<?xml version="1.0" standalone="no"?>
<!DOCTYPE svg PUBLIC "-//W3C//DTD SVG 1.1//EN" "http://www.w3.org/Graphics/SVG/1.1/DTD/svg11.dtd" >
<svg xmlns="http://www.w3.org/2000/svg" xmlns:xlink="http://www.w3.org/1999/xlink" version="1.1">
<metadata>
Created by FontForge 20170731 at Wed Jul  3 00:09:14 2019
 By Aleksey,,,
Copyright (c) 2019, The Saira Project Authors (https://github.com/Omnibus-Type/Saira/Saira)
</metadata>
<defs>
<font id="Saira-MediumItalic" horiz-adv-x="0" >
  <font-face 
    font-family="Saira Medium Italic"
    font-weight="500"
    font-style="italic"
    font-stretch="normal"
    units-per-em="1000"
    panose-1="0 0 6 0 0 0 0 0 0 0"
    ascent="800"
    descent="-200"
    x-height="510"
    cap-height="688"
    bbox="-511 -402 1371 1149"
    underline-thickness="89"
    underline-position="-336"
    slope="-12"
    unicode-range="U+000D-FB02"
  />
<missing-glyph horiz-adv-x="500" 
d="M0 0v700h500v-700h-500zM50 50h400v600h-400v-600zM229 215v63q0 29 13.5 48t40.5 41q18 15 28 25t19 29.5t9 43.5q0 31 -19 59t-70 28q-31 0 -52.5 -12t-30.5 -30.5t-12 -32t-3 -25.5v-28h-49q-4 16 -4 31q0 11 2 24.5t11 36.5t24 41t45 31.5t69 13.5t68 -13.5t43 -30
t22 -39t9 -33.5t1 -19q0 -71 -67 -129q-15 -12 -22.5 -19.5t-14.5 -21.5t-7 -29v-53h-53zM225 99v70h60v-70h-60z" />
    <glyph glyph-name="fi" unicode="fi" horiz-adv-x="669" 
d="M565 642l21 101h111l-21 -101h-111zM-61 -200l18 78q62 0 80 11t25 44l104 492h-104l18 85h104l14 66q9 42 18 68.5t26 46t32 29t48.5 15t63 6.5t87.5 1l-16 -77q-84 0 -111 -12.5t-37 -58.5l-18 -84h133l-18 -85h-133l-100 -470q-6 -29 -11.5 -49.5t-14.5 -37.5
t-16.5 -27.5t-23 -18.5t-28 -12t-37.5 -6.5t-45.5 -3t-57.5 -0.5zM431 0l108 510h107l-108 -510h-107z" />
    <glyph glyph-name="fl" unicode="fl" horiz-adv-x="644" 
d="M411 0l157 743h107l-157 -743h-107zM-61 -200l18 78q62 0 80 11t25 44l104 492h-104l18 85h104l14 66q9 42 18 68.5t26 46t32 29t48.5 15t63 6.5t87.5 1l-16 -77q-84 0 -111 -12.5t-37 -58.5l-18 -84h133l-18 -85h-133l-100 -470q-6 -29 -11.5 -49.5t-14.5 -37.5
t-16.5 -27.5t-23 -18.5t-28 -12t-37.5 -6.5t-45.5 -3t-57.5 -0.5z" />
    <glyph glyph-name="f_f" unicode="ff" horiz-adv-x="800" 
d="M-61 -200l18 78q62 0 80 11t25 44l104 492h-104l18 85h104l14 66q9 42 18 68.5t26 46t32 29t48.5 15t63 6.5t87.5 1l-16 -77q-84 0 -111 -12.5t-37 -58.5l-18 -84h133l-18 -85h-133l-100 -470q-6 -29 -11.5 -49.5t-14.5 -37.5t-16.5 -27.5t-23 -18.5t-28 -12t-37.5 -6.5
t-45.5 -3t-57.5 -0.5zM339 -200l18 78q62 0 80 11t25 44l104 492h-104l18 85h104l14 66q9 42 18 68.5t26 46t32 29t48.5 15t63 6.5t87.5 1l-16 -77q-84 0 -111 -12.5t-37 -58.5l-18 -84h133l-18 -85h-133l-100 -470q-6 -29 -11.5 -49.5t-14.5 -37.5t-16.5 -27.5t-23 -18.5
t-28 -12t-37.5 -6.5t-45.5 -3t-57.5 -0.5z" />
    <glyph glyph-name="f_f_i" unicode="ffi" horiz-adv-x="1070" 
d="M965 642l21 101h111l-21 -101h-111zM-61 -200l18 78q62 0 80 11t25 44l104 492h-104l18 85h104l14 66q9 42 18 68.5t26 46t32 29t48.5 15t63 6.5t87.5 1l-16 -77q-84 0 -111 -12.5t-37 -58.5l-18 -84h133l-18 -85h-133l-100 -470q-6 -29 -11.5 -49.5t-14.5 -37.5
t-16.5 -27.5t-23 -18.5t-28 -12t-37.5 -6.5t-45.5 -3t-57.5 -0.5zM339 -200l18 78q62 0 80 11t25 44l104 492h-104l18 85h104l14 66q9 42 18 68.5t26 46t32 29t48.5 15t63 6.5t87.5 1l-16 -77q-84 0 -111 -12.5t-37 -58.5l-18 -84h133l-18 -85h-133l-100 -470
q-6 -29 -11.5 -49.5t-14.5 -37.5t-16.5 -27.5t-23 -18.5t-28 -12t-37.5 -6.5t-45.5 -3t-57.5 -0.5zM831 0l108 510h107l-108 -510h-107z" />
    <glyph glyph-name="f_f_l" unicode="ffl" horiz-adv-x="1045" 
d="M811 0l157 743h107l-157 -743h-107zM-61 -200l18 78q62 0 80 11t25 44l104 492h-104l18 85h104l14 66q9 42 18 68.5t26 46t32 29t48.5 15t63 6.5t87.5 1l-16 -77q-84 0 -111 -12.5t-37 -58.5l-18 -84h133l-18 -85h-133l-100 -470q-6 -29 -11.5 -49.5t-14.5 -37.5
t-16.5 -27.5t-23 -18.5t-28 -12t-37.5 -6.5t-45.5 -3t-57.5 -0.5zM339 -200l18 78q62 0 80 11t25 44l104 492h-104l18 85h104l14 66q9 42 18 68.5t26 46t32 29t48.5 15t63 6.5t87.5 1l-16 -77q-84 0 -111 -12.5t-37 -58.5l-18 -84h133l-18 -85h-133l-100 -470
q-6 -29 -11.5 -49.5t-14.5 -37.5t-16.5 -27.5t-23 -18.5t-28 -12t-37.5 -6.5t-45.5 -3t-57.5 -0.5z" />
    <glyph glyph-name=".notdef" horiz-adv-x="500" 
d="M0 0v700h500v-700h-500zM50 50h400v600h-400v-600zM229 215v63q0 29 13.5 48t40.5 41q18 15 28 25t19 29.5t9 43.5q0 31 -19 59t-70 28q-31 0 -52.5 -12t-30.5 -30.5t-12 -32t-3 -25.5v-28h-49q-4 16 -4 31q0 11 2 24.5t11 36.5t24 41t45 31.5t69 13.5t68 -13.5t43 -30
t22 -39t9 -33.5t1 -19q0 -71 -67 -129q-15 -12 -22.5 -19.5t-14.5 -21.5t-7 -29v-53h-53zM225 99v70h60v-70h-60z" />
    <glyph glyph-name=".null" 
 />
    <glyph glyph-name="nonmarkingreturn" horiz-adv-x="333" 
 />
    <glyph glyph-name="CR" unicode="&#xd;" horiz-adv-x="600" 
 />
    <glyph glyph-name="space" unicode=" " horiz-adv-x="249" 
 />
    <glyph glyph-name="exclam" unicode="!" horiz-adv-x="278" 
d="M96 209q43 292 64 393l18 86h120l-19 -86q-14 -73 -102 -393h-81zM33 0l24 112h117l-25 -112h-116z" />
    <glyph glyph-name="quotedbl" unicode="&#x22;" horiz-adv-x="391" 
d="M119 440l25 177l15 71h97l-15 -71l-51 -177h-71zM275 440l25 177l16 71h97l-15 -71l-52 -177h-71z" />
    <glyph glyph-name="numbersign" unicode="#" horiz-adv-x="772" 
d="M59 0l85 186h-96l15 73h114l75 165h-115l16 72h132l88 192h81l-88 -192h155l88 192h81l-90 -192h101l-16 -72h-117l-75 -165h118l-16 -73h-135l-85 -186h-80l85 186h-156l-85 -186h-80zM257 259h156l75 165h-156z" />
    <glyph glyph-name="dollar" unicode="$" horiz-adv-x="539" 
d="M500 516q-51 8 -132 11l-29 -137l55 -7q83 -11 83 -85q0 -28 -9 -68q-19 -92 -58 -125t-140 -37l-16 -76h-79l16 75q-80 3 -148 15l18 87q52 -7 150 -10l30 142l-52 7q-90 12 -90 92q0 25 8 62q20 87 60 119t141 36l17 79h79l-17 -78q74 -3 132 -15zM254 400l8 -1l27 127
q-37 -3 -52.5 -16t-22.5 -46q-6 -24 -6 -35q0 -15 9.5 -20.5t36.5 -8.5zM367 259q0 16 -10 22t-39 10l-28 -130q37 3 51 16.5t22 49.5q4 26 4 32z" />
    <glyph glyph-name="percent" unicode="%" horiz-adv-x="856" 
d="M197 337q-74 0 -102 16.5t-28 65.5q0 38 17 112q14 66 24 97.5t29.5 56t47 31t77.5 6.5q74 0 101.5 -17t27.5 -67q0 -35 -17 -112q-26 -124 -55 -156.5t-122 -32.5zM105 0l607 688h77l-605 -688h-79zM201 394q32 0 44.5 1.5t25.5 16.5t19.5 39t17.5 78q16 80 16 101
q0 24 -13 29.5t-53 5.5q-21 0 -31 -0.5t-22 -5.5t-17 -12t-12 -24t-12 -37.5t-12 -56.5q-17 -74 -17 -99q0 -17 7.5 -25t19.5 -9.5t39 -1.5zM634 -34q-76 0 -103.5 17t-27.5 67q0 40 16 111q26 123 56 156.5t123 33.5q75 0 102 -17t27 -66q0 -36 -17 -112
q-14 -67 -23.5 -98.5t-29 -55.5t-46.5 -30t-77 -6zM636 23q32 0 44.5 1.5t25.5 17t19 38.5t17 78q18 75 18 101q0 24 -13 29.5t-53 5.5q-31 0 -44 -2t-26 -17t-19 -39t-17 -78q-16 -70 -16 -99q0 -17 7.5 -25t18.5 -9.5t38 -1.5z" />
    <glyph glyph-name="ampersand" unicode="&#x26;" horiz-adv-x="758" 
d="M322 -8q-151 0 -209.5 34t-58.5 100q0 28 8 62q16 77 53.5 111.5t105.5 49.5l1 4q-47 12 -69.5 37t-22.5 71q0 25 7 56q9 40 27.5 69.5t54.5 56t98.5 40t150.5 13.5q108 0 221 -20l-18 -85q-111 15 -195 15q-93 0 -140.5 -11t-66 -32.5t-27.5 -65.5q-5 -23 -5 -40
q0 -31 23 -47.5t84 -16.5h86l-19 -90h-85q-84 0 -114.5 -24.5t-40.5 -86.5q-5 -22 -5 -35q0 -46 39 -60.5t135 -14.5q63 0 123 6l65 305h217l-19 -90h-112l-61 -291q-118 -20 -231 -20z" />
    <glyph glyph-name="quotesingle" unicode="'" horiz-adv-x="232" 
d="M119 440l25 177l16 71h97l-16 -71l-51 -177h-71z" />
    <glyph glyph-name="parenleft" unicode="(" horiz-adv-x="327" 
d="M150 -150q-48 70 -68.5 125.5t-20.5 131.5q0 82 29 205q23 102 41.5 160t49 107t62 80t96.5 84h71q-44 -44 -61 -62t-46.5 -58t-45 -78t-35 -100.5t-37.5 -147.5q-32 -156 -32 -238q0 -45 11 -85t20 -57t37 -67h-71z" />
    <glyph glyph-name="parenright" unicode=")" horiz-adv-x="327" 
d="M-68 -150q44 44 61 62t46.5 58t45 78t35 100.5t37.5 147.5q32 156 32 238q0 45 -10.5 84t-20.5 58.5t-37 66.5h72q48 -71 68.5 -126t20.5 -131q0 -78 -30 -205q-23 -102 -41 -160t-49 -107t-62 -80t-96 -84h-72z" />
    <glyph glyph-name="asterisk" unicode="*" horiz-adv-x="450" 
d="M203 314l43 152l-141 -85l-23 55l152 64l-122 71l38 49l109 -87l23 155h61l-45 -156l143 89l23 -55l-152 -69l122 -66l-38 -48l-110 83l-21 -152h-62z" />
    <glyph glyph-name="plus" unicode="+" horiz-adv-x="549" 
d="M190 50l34 162h-159l17 80h159l35 164h85l-35 -164h162l-18 -80h-161l-34 -162h-85z" />
    <glyph glyph-name="comma" unicode="," horiz-adv-x="249" 
d="M-26 -127l10 46q39 0 53.5 12.5t22.5 51.5l3 17h-43l23 112h118l-20 -94q-19 -93 -47.5 -119t-119.5 -26z" />
    <glyph glyph-name="hyphen" unicode="-" horiz-adv-x="375" 
d="M57 240l19 90h260l-19 -90h-260z" />
    <glyph glyph-name="period" unicode="." horiz-adv-x="249" 
d="M19 0l24 112h118l-23 -112h-119z" />
    <glyph glyph-name="slash" unicode="/" horiz-adv-x="381" 
d="M-74 -55l471 798h100l-472 -798h-99z" />
    <glyph glyph-name="zero" unicode="0" horiz-adv-x="670" 
d="M291 -8q-141 0 -192 27.5t-51 113.5q0 59 34 214q14 67 22.5 103.5t22 79t23.5 62.5t29 43t38 31.5t50 17t65 10.5t83 2q142 0 193.5 -28t51.5 -114q0 -64 -33 -213q-14 -67 -22.5 -103.5t-22 -79t-24 -62.5t-29 -43t-38 -31.5t-50.5 -17t-65.5 -10.5t-84.5 -2zM299 84
q33 0 50.5 0.5t39 5.5t30.5 9t23 20.5t19.5 30.5t15.5 47t16.5 62.5t18.5 84.5q31 148 31 189q0 48 -26.5 59.5t-107.5 11.5h-51.5t-38.5 -5.5t-30.5 -9.5t-23 -20.5t-19 -30.5t-16 -47.5t-16.5 -62.5t-18 -84q-32 -147 -32 -190q0 -47 27 -58.5t108 -11.5z" />
    <glyph glyph-name="one" unicode="1" horiz-adv-x="391" 
d="M117 0l118 562l-153 -67l20 100l197 93h79l-147 -688h-114z" />
    <glyph glyph-name="two" unicode="2" horiz-adv-x="630" 
d="M16 0l18 85q26 123 55 167.5t117 78.5q102 40 184 70q56 21 82 55.5t26 88.5q0 35 -29.5 45t-115.5 10q-74 0 -198 -13l19 89q102 20 224 20q50 0 84 -4t66.5 -16t49 -38t16.5 -66q0 -28 -7 -59q-19 -86 -56 -127t-110 -68q-33 -12 -100.5 -38.5t-104.5 -40.5
q-40 -14 -53 -34.5t-25 -71.5l-8 -36h368l-21 -97h-481z" />
    <glyph glyph-name="three" unicode="3" horiz-adv-x="623" 
d="M234 -8q-111 0 -223 19l17 85q122 -12 205 -12q92 0 132.5 19.5t57.5 87.5q6 24 6 43q0 38 -24 53.5t-80 15.5h-128l19 91h125q114 0 139 90q7 26 7 53q0 42 -33.5 54.5t-120.5 12.5q-99 0 -195 -14l17 87q100 19 202 19q133 0 191 -35t58 -107q0 -38 -11 -78
q-30 -104 -151 -123v-4q49 -10 74 -36.5t25 -78.5q0 -21 -7 -61q-11 -60 -37 -97t-91 -60.5t-174 -23.5z" />
    <glyph glyph-name="four" unicode="4" horiz-adv-x="667" 
d="M360 0l33 155h-366l17 81l361 452h129l-361 -440h243l76 222h81l-48 -222h99l-19 -93h-99l-34 -155h-112z" />
    <glyph glyph-name="five" unicode="5" horiz-adv-x="643" 
d="M267 -8q-115 0 -230 18l18 86q120 -12 205 -12q104 0 142.5 24.5t52.5 97.5q7 35 7 50q0 42 -34 54.5t-128 12.5q-74 0 -191 -12l79 377h431l-21 -94h-329l-40 -189q63 10 140 10q118 0 164.5 -33.5t46.5 -104.5q0 -33 -9 -75q-17 -80 -45.5 -123t-89.5 -65t-169 -22z
" />
    <glyph glyph-name="six" unicode="6" horiz-adv-x="680" 
d="M314 -8q-139 0 -197 28.5t-58 123.5q0 65 29 196q25 116 48.5 180t64 106.5t95 56t147.5 13.5q90 0 225 -18l-18 -87q-128 13 -192 13q-92 0 -136 -18t-67.5 -64.5t-45.5 -154.5h5q49 49 191 49q117 0 166.5 -27.5t49.5 -110.5q0 -32 -9 -73q-18 -85 -45.5 -128t-86 -64
t-166.5 -21zM311 84q103 0 137.5 20t50.5 98q8 31 8 59q0 41 -29 52.5t-115 11.5q-72 0 -109 -10.5t-51 -29.5t-22 -59q-10 -42 -10 -68q0 -47 30.5 -60.5t109.5 -13.5z" />
    <glyph glyph-name="seven" unicode="7" horiz-adv-x="584" 
d="M77 0l401 594h-367l20 94h497l-19 -85l-397 -603h-135z" />
    <glyph glyph-name="eight" unicode="8" horiz-adv-x="705" 
d="M319 -8q-149 0 -207.5 34.5t-58.5 105.5q0 31 7 60q18 79 56 112t108 45v4q-48 11 -71 38t-23 77q0 30 9 63q14 57 43 91.5t90 54t160 19.5q144 0 202.5 -33.5t58.5 -104.5q0 -38 -9 -68q-29 -119 -153 -137v-4q52 -13 75.5 -37t23.5 -75q0 -21 -7 -61q-10 -47 -26 -78
t-49 -56.5t-89.5 -37.5t-139.5 -12zM386 390q99 0 134.5 21t49.5 86q6 24 6 44q0 38 -31 51t-114 13q-100 0 -134.5 -21t-48.5 -87q-6 -24 -6 -42q0 -38 31.5 -51.5t112.5 -13.5zM320 82q101 0 139.5 20.5t52.5 89.5q6 36 6 47q0 41 -32 54t-118 13q-104 0 -140.5 -20.5
t-51.5 -93.5q-5 -25 -5 -42q0 -42 32.5 -55t116.5 -13z" />
    <glyph glyph-name="nine" unicode="9" horiz-adv-x="680" 
d="M274 -8q-91 0 -226 18l17 87q130 -13 193 -13q92 0 136 18t67.5 64.5t45.5 154.5h-5q-49 -49 -190 -49q-117 0 -167.5 28t-50.5 110q0 28 10 73q14 64 31 102t50.5 64.5t84.5 36.5t132 10q139 0 197 -28.5t58 -123.5q0 -65 -29 -196q-25 -116 -48 -180t-64 -106.5
t-95.5 -56t-146.5 -13.5zM354 363q72 0 109 10.5t50.5 29.5t21.5 59q9 38 9 68q0 47 -30 60.5t-109 13.5q-102 0 -136.5 -20t-51.5 -98q-8 -31 -8 -59q0 -41 29.5 -52.5t115.5 -11.5z" />
    <glyph glyph-name="colon" unicode=":" horiz-adv-x="249" 
d="M104 397l25 113h118l-24 -113h-119zM19 0l25 112h118l-24 -112h-119z" />
    <glyph glyph-name="semicolon" unicode=";" horiz-adv-x="249" 
d="M103 397l25 113h118l-24 -113h-119zM-25 -127l9 46q39 0 53.5 12.5t22.5 51.5l3 17h-43l23 112h118l-20 -94q-19 -93 -47.5 -119t-118.5 -26z" />
    <glyph glyph-name="less" unicode="&#x3c;" horiz-adv-x="550" 
d="M431 42l-369 165l19 90l440 167l-18 -86l-348 -128l293 -128z" />
    <glyph glyph-name="equal" unicode="=" horiz-adv-x="549" 
d="M86 316l18 81h405l-17 -81h-406zM43 109l17 80h405l-17 -80h-405z" />
    <glyph glyph-name="greater" unicode="&#x3e;" horiz-adv-x="550" 
d="M36 42l18 87l347 128l-293 127l17 80l369 -166l-18 -90z" />
    <glyph glyph-name="question" unicode="?" horiz-adv-x="521" 
d="M158 208l15 74q13 57 34 80t67 36l37 12q49 16 67.5 33t29.5 68q5 25 5 40q0 34 -25 43.5t-91 9.5q-85 0 -174 -12l18 87q92 17 187 17q103 0 151 -26.5t48 -99.5q0 -26 -6 -61q-16 -73 -44.5 -107.5t-89.5 -51.5l-35 -12q-54 -18 -65.5 -28t-20.5 -49l-11 -53h-97z
M104 0l23 112h118l-24 -112h-117z" />
    <glyph glyph-name="at" unicode="@" horiz-adv-x="961" 
d="M420 -108q-207 0 -280.5 32.5t-73.5 135.5q0 82 28 234q14 76 23.5 121t25.5 92.5t30 72t40.5 49.5t54 35t73.5 19t96 11t125 2q214 0 287 -32.5t73 -137.5q0 -70 -35 -232q-12 -54 -22.5 -90.5t-23.5 -61t-24 -38t-31 -20t-35 -8t-44 -1.5h-158l9 60h-6
q-22 -40 -56.5 -53t-84.5 -13q-77 0 -109 25t-32 92q0 41 14 111q27 130 67.5 175t127.5 45q59 0 93 -12.5t46 -47.5h5l18 54h87l-83 -388h82q23 0 33.5 3t24.5 19.5t24.5 51t23.5 97.5q36 167 36 226q0 83 -60.5 105t-251.5 22q-69 0 -110 -1t-84 -8t-64.5 -14t-46 -29
t-35 -42t-25.5 -63.5t-23.5 -83.5t-21.5 -112q-28 -160 -28 -227q0 -83 58 -104.5t240 -21.5q131 0 195 4l-11 -50q-57 -3 -181 -3zM452 147q76 0 102 45q16 28 31.5 88t15.5 94q0 35 -19.5 49.5t-67.5 14.5q-69 0 -91.5 -24t-43.5 -121q-14 -65 -14 -93q0 -34 18.5 -43.5
t68.5 -9.5z" />
    <glyph glyph-name="A" unicode="A" horiz-adv-x="709" 
d="M-29 0l405 688h147l112 -688h-112l-30 172h-303l-103 -172h-116zM237 263h245l-51 316h-6z" />
    <glyph glyph-name="B" unicode="B" horiz-adv-x="696" 
d="M44 0l147 688h326q174 0 174 -127q0 -37 -9 -68q-30 -119 -155 -140l-1 -4q53 -11 76.5 -39.5t23.5 -76.5q0 -42 -10 -79q-19 -73 -70.5 -113.5t-151.5 -40.5h-350zM240 390h186q119 0 140 104q4 17 4 42q0 33 -22.5 47t-76.5 14h-187zM176 91h190q69 0 99.5 23.5
t43.5 83.5q5 25 5 39q0 37 -24 53t-78 16h-189z" />
    <glyph glyph-name="C" unicode="C" horiz-adv-x="590" 
d="M310 -8q-140 0 -196 34t-56 131q0 71 26 187q18 81 32.5 131t35.5 93t43 65t58 38t78.5 20.5t106.5 4.5q99 0 180 -15l-19 -87q-92 10 -140 10q-53 0 -83 -2t-58.5 -13t-42.5 -24.5t-29 -47.5t-24 -70t-23 -103q-26 -122 -26 -167q0 -59 36 -76t140 -17q78 0 148 10
l-19 -90q-75 -12 -168 -12z" />
    <glyph glyph-name="D" unicode="D" horiz-adv-x="707" 
d="M44 0l147 688h217q162 0 220 -30.5t58 -122.5q0 -54 -28 -194q-14 -64 -22.5 -99t-21.5 -76.5t-24.5 -61t-31.5 -42.5t-41 -31.5t-55 -17.5t-72.5 -11t-92.5 -2h-253zM178 92h105h66t50 5t39.5 9.5t28 19.5t23 29t17.5 45.5t18 61t18 82.5q27 124 27 170q0 56 -35.5 69
t-144.5 13h-105z" />
    <glyph glyph-name="E" unicode="E" horiz-adv-x="621" 
d="M44 0l147 688h474l-20 -92h-360l-44 -203h311l-19 -91h-310l-46 -210h361l-20 -92h-474z" />
    <glyph glyph-name="F" unicode="F" horiz-adv-x="583" 
d="M44 0l147 688h453l-19 -92h-340l-48 -222h301l-20 -93h-301l-60 -281h-113z" />
    <glyph glyph-name="G" unicode="G" horiz-adv-x="693" 
d="M328 -8q-149 0 -210 38t-61 142q0 63 26 175q24 114 48 177.5t66.5 104.5t99 54t152.5 13q127 0 239 -21l-18 -87q-110 16 -179 16q-47 0 -70 -0.5t-55 -4t-45.5 -9.5t-33.5 -19.5t-29 -31t-22 -46.5t-21.5 -64t-18.5 -85q-24 -105 -24 -160q0 -61 35.5 -81.5
t127.5 -20.5q62 0 126 8l43 200h-146l19 87h252l-78 -365q-115 -20 -223 -20z" />
    <glyph glyph-name="H" unicode="H" horiz-adv-x="748" 
d="M44 0l147 688h113l-62 -292h333l62 292h114l-147 -688h-114l63 297h-332l-64 -297h-113z" />
    <glyph glyph-name="I" unicode="I" horiz-adv-x="302" 
d="M44 0l147 688h113l-147 -688h-113z" />
    <glyph glyph-name="J" unicode="J" horiz-adv-x="378" 
d="M-24 0l20 88q41 1 60.5 1.5t41.5 8t29.5 14.5t18.5 30t15.5 44.5t14.5 68.5l92 433h115l-88 -413q-12 -59 -18.5 -89t-19.5 -65.5t-20 -50t-27 -32t-35 -22t-49.5 -10t-64.5 -6t-85 -0.5z" />
    <glyph glyph-name="K" unicode="K" horiz-adv-x="698" 
d="M44 0l147 688h113l-62 -293h109l287 293h131l-338 -342l194 -346h-124l-169 304h-109l-66 -304h-113z" />
    <glyph glyph-name="L" unicode="L" horiz-adv-x="552" 
d="M44 0l147 688h113l-125 -591h317l-21 -97h-431z" />
    <glyph glyph-name="M" unicode="M" horiz-adv-x="930" 
d="M44 0l147 688h149l110 -497h6l322 497h155l-147 -688h-110l109 513h-6l-328 -513h-76l-110 513h-6l-108 -513h-107z" />
    <glyph glyph-name="N" unicode="N" horiz-adv-x="749" 
d="M44 0l147 688h116l225 -487h6l105 487h109l-147 -688h-107l-230 507h-7l-108 -507h-109z" />
    <glyph glyph-name="O" unicode="O" horiz-adv-x="738" 
d="M325 -8q-155 0 -211 31.5t-56 122.5q0 56 31 201q13 64 21.5 100t21.5 78t24 62.5t31 44t41 32.5t54.5 18t71.5 11.5t91 2.5q154 0 210 -32t56 -123q0 -61 -30 -200q-11 -52 -18 -82t-17.5 -67.5t-18.5 -56.5t-21 -44t-25.5 -36t-31.5 -25t-39.5 -19t-49.5 -10.5t-61 -7
t-74 -1.5zM329 84q37 0 56.5 0.5t43.5 5t35 9.5t26 20t21.5 30.5t17.5 47t18.5 63t18.5 84.5q28 131 28 181q0 23 -6 37.5t-15 23t-31 12.5t-42.5 5t-60.5 1q-38 0 -57 -0.5t-43.5 -5t-35 -9.5t-25.5 -20t-21.5 -30.5t-17.5 -47t-18 -63t-18 -84.5q-29 -139 -29 -182
q0 -53 31 -65.5t124 -12.5z" />
    <glyph glyph-name="P" unicode="P" horiz-adv-x="666" 
d="M44 0l147 688h305q103 0 143.5 -35t40.5 -104q0 -30 -11 -87q-9 -43 -18 -70.5t-26.5 -58t-42 -47.5t-64 -28.5t-92.5 -11.5h-215l-54 -246h-113zM230 337h166q85 0 114 27t45 103q9 47 9 66q0 35 -24 49.5t-87 14.5h-168z" />
    <glyph glyph-name="Q" unicode="Q" horiz-adv-x="738" 
d="M681 341q-37 -168 -65.5 -233.5t-93.5 -91.5l67 -129v-2h-119l-54 110q-41 -3 -91 -3q-155 0 -211 31.5t-56 122.5q0 56 31 201q13 64 21.5 100t21.5 78t24 62.5t31 44t41 32.5t54.5 18t71.5 11.5t91 2.5q154 0 210 -32t56 -123q0 -61 -30 -200zM476 106q29 21 47 71
t43 167q28 131 28 181q0 23 -6 37.5t-15 23t-31 12.5t-42.5 5t-60.5 1q-38 0 -57 -0.5t-43.5 -5t-35 -9.5t-25.5 -20t-21.5 -30.5t-17.5 -47t-18 -63t-18 -84.5q-29 -139 -29 -182q0 -53 31 -65.5t124 -12.5h43l-65 134h111z" />
    <glyph glyph-name="R" unicode="R" horiz-adv-x="697" 
d="M44 0l147 688h316q103 0 143.5 -34t40.5 -101q0 -39 -12 -86q-20 -83 -50 -125.5t-96 -60.5l56 -281h-117l-46 267q-7 0 -22.5 -0.5t-23.5 -0.5h-165l-58 -266h-113zM233 356h176q45 0 73.5 6.5t45 23.5t24 36t14.5 54q8 37 8 60q0 32 -23.5 46.5t-84.5 14.5h-181z" />
    <glyph glyph-name="S" unicode="S" horiz-adv-x="647" 
d="M304 -8q-146 0 -268 15l19 90q132 -13 218 -13q101 0 137 19q28 15 42.5 61.5t14.5 81.5q0 24 -17 32t-70 14l-162 23q-61 7 -85 34.5t-24 80.5q0 40 10 84q11 47 29 80t41.5 53t58.5 31t70.5 14.5t87.5 3.5q145 0 235 -17l-18 -88q-91 13 -206 13q-98 0 -136 -21
q-26 -14 -39.5 -51.5t-13.5 -74.5q0 -23 15 -31.5t56 -13.5l156 -19q34 -5 54 -10t40 -17.5t29 -34.5t9 -56q0 -40 -11 -88q-12 -54 -31.5 -91t-41 -57.5t-56.5 -31t-64.5 -13t-78.5 -2.5z" />
    <glyph glyph-name="T" unicode="T" horiz-adv-x="600" 
d="M188 0l126 591h-217l21 97h547l-21 -97h-216l-126 -591h-114z" />
    <glyph glyph-name="U" unicode="U" horiz-adv-x="725" 
d="M326 -8q-142 0 -196.5 32.5t-54.5 119.5q0 50 23 160l82 384h113l-88 -416q-17 -85 -17 -112q0 -44 29.5 -59.5t110.5 -15.5q59 0 90.5 6t53.5 30t31.5 54t23.5 97l89 416h113l-81 -384q-14 -71 -24.5 -111t-28 -80.5t-37 -59.5t-52.5 -35t-75.5 -21t-104.5 -5z" />
    <glyph glyph-name="V" unicode="V" horiz-adv-x="684" 
d="M214 0l-100 688h115l80 -554h5l318 554h119l-394 -688h-143z" />
    <glyph glyph-name="W" unicode="W" horiz-adv-x="1014" 
d="M158 0l-36 688h112l26 -543h7l272 543h116l43 -543h7l253 543h118l-331 -688h-136l-46 510h-6l-263 -510h-136z" />
    <glyph glyph-name="X" unicode="X" horiz-adv-x="704" 
d="M-26 0l333 350l-183 338h128l133 -250h7l244 250h132l-330 -345l186 -343h-128l-137 254h-9l-247 -254h-129z" />
    <glyph glyph-name="Y" unicode="Y" horiz-adv-x="640" 
d="M203 0l55 255l-161 433h116l119 -322h7l257 322h121l-346 -433l-55 -255h-113z" />
    <glyph glyph-name="Z" unicode="Z" horiz-adv-x="630" 
d="M-5 0l20 89l477 507h-359l20 92h511l-19 -85l-480 -511h376l-20 -92h-526z" />
    <glyph glyph-name="bracketleft" unicode="[" horiz-adv-x="356" 
d="M14 -150l189 893h216l-14 -72l-124 -4l-157 -741l122 -4l-16 -72h-216z" />
    <glyph glyph-name="backslash" unicode="\" horiz-adv-x="381" 
d="M234 -55l-128 798h93l126 -798h-91z" />
    <glyph glyph-name="bracketright" unicode="]" horiz-adv-x="356" 
d="M-48 -150l15 72l123 4l157 741l-122 4l15 72h217l-189 -893h-216z" />
    <glyph glyph-name="asciicircum" unicode="^" horiz-adv-x="457" 
d="M91 440l207 309h88l75 -309h-75l-56 239l-157 -239h-82z" />
    <glyph glyph-name="underscore" unicode="_" horiz-adv-x="369" 
d="M-69 -174l17 80h368l-17 -80h-368z" />
    <glyph glyph-name="grave" unicode="`" horiz-adv-x="250" 
d="M229 588l-108 138l1 5h105l75 -138l-1 -5h-72z" />
    <glyph glyph-name="a" unicode="a" horiz-adv-x="590" 
d="M205 -8q-90 0 -128 30t-38 108q0 43 18 130q32 153 78 205.5t149 52.5q70 0 111 -15.5t54 -55.5h7l20 63h99l-108 -510h-98l11 71h-6q-27 -47 -68.5 -63t-100.5 -16zM253 80q90 0 122 57q19 32 37 103t18 110q0 44 -24 61.5t-82 17.5q-83 0 -110 -29t-52 -145
q-16 -77 -16 -108q0 -42 22.5 -54.5t84.5 -12.5z" />
    <glyph glyph-name="b" unicode="b" horiz-adv-x="607" 
d="M320 -8q-68 0 -111 16.5t-55 60.5h-6l-20 -69h-97l158 743h106l-63 -298h6q27 42 66 57.5t98 15.5q90 0 128 -30t38 -108q0 -42 -18 -132q-32 -152 -79 -204t-151 -52zM281 80q46 0 69 4.5t42.5 24.5t29.5 51.5t23 94.5q16 85 16 106q0 42 -23 55t-84 13q-89 0 -119 -51
q-20 -30 -39.5 -108.5t-19.5 -112.5q0 -42 24 -59.5t81 -17.5z" />
    <glyph glyph-name="c" unicode="c" horiz-adv-x="476" 
d="M236 -8q-108 0 -151.5 32.5t-43.5 103.5q0 53 20 139q12 58 23.5 93.5t30 69t44 51t64 27.5t92.5 10q87 0 161 -14l-17 -81q-62 10 -118 10q-89 0 -119.5 -33t-54.5 -145q-17 -71 -17 -106q0 -43 25.5 -57.5t91.5 -14.5q52 0 124 10l-17 -80q-69 -15 -138 -15z" />
    <glyph glyph-name="d" unicode="d" horiz-adv-x="607" 
d="M207 -8q-91 0 -128 29.5t-37 108.5q0 55 17 130q32 153 78.5 205.5t149.5 52.5q69 0 110 -15.5t55 -55.5h6l63 296h106l-158 -743h-98l11 71h-7q-26 -47 -67 -63t-101 -16zM255 80q90 0 122 57q19 32 37 102.5t18 110.5q0 44 -24 61.5t-82 17.5q-83 0 -109.5 -29
t-51.5 -145q-16 -70 -16 -108q0 -42 22.5 -54.5t83.5 -12.5z" />
    <glyph glyph-name="e" unicode="e" horiz-adv-x="576" 
d="M250 -8q-115 0 -160 28t-45 97q0 45 20 137q13 62 25 99t32 72.5t49 53.5t72.5 28.5t105.5 10.5q100 0 139.5 -27.5t39.5 -89.5q0 -48 -23 -147l-8 -34h-333q-11 -52 -11 -79q0 -37 27.5 -49t108.5 -12t161 10l-18 -83q-75 -15 -182 -15zM180 293h231l2 11q9 42 9 67
q0 36 -20.5 47.5t-71.5 11.5q-79 0 -105 -25t-45 -112z" />
    <glyph glyph-name="f" unicode="f" horiz-adv-x="400" 
d="M-61 -200l18 78q62 0 80 11t25 44l104 492h-104l18 85h104l14 66q9 42 18 68.5t26 46t32 29t48.5 15t63 6.5t87.5 1l-16 -77q-84 0 -111 -12.5t-37 -58.5l-18 -84h133l-18 -85h-133l-100 -470q-6 -29 -11.5 -49.5t-14.5 -37.5t-16.5 -27.5t-23 -18.5t-28 -12t-37.5 -6.5
t-45.5 -3t-57.5 -0.5z" />
    <glyph glyph-name="g" unicode="g" horiz-adv-x="606" 
d="M187 -206q-102 0 -176 10l17 83q84 -4 151 -4q56 0 87 5.5t52 24.5t30 44t20 75q1 5 4 17.5t4 16.5h-6q-48 -70 -168 -70q-78 0 -112 27.5t-34 97.5q0 51 17 134q32 152 83 207.5t154 55.5q121 0 144 -74h6l19 66h97l-95 -447q-11 -53 -20.5 -87t-25 -67.5t-35.5 -52.5
t-49.5 -34.5t-69.5 -21.5t-94 -6zM263 89q74 0 108 41q20 25 39 100t19 122q0 39 -23 55.5t-73 16.5q-42 0 -64 -4.5t-39.5 -24t-27.5 -49.5t-22 -90q-16 -77 -16 -107q0 -37 21 -48.5t78 -11.5z" />
    <glyph glyph-name="h" unicode="h" horiz-adv-x="614" 
d="M31 0l157 743h106l-63 -297h6q51 72 167 72q88 0 121.5 -28t33.5 -91q0 -37 -13 -97l-64 -302h-105l60 284q13 67 13 85q0 37 -20.5 48t-75.5 11q-44 0 -72.5 -10.5t-45.5 -35.5t-25.5 -50t-17.5 -71l-57 -261h-105z" />
    <glyph glyph-name="i" unicode="i" horiz-adv-x="270" 
d="M165 642l21 101h111l-21 -101h-111zM31 0l108 510h107l-108 -510h-107z" />
    <glyph glyph-name="j" unicode="j" horiz-adv-x="273" 
d="M167 642l21 101h112l-22 -101h-111zM-103 -200l17 78q63 0 80.5 10.5t24.5 44.5l123 577h107l-118 -555q-8 -39 -16 -64t-22.5 -43t-27.5 -27t-41.5 -14t-53 -6t-73.5 -1z" />
    <glyph glyph-name="k" unicode="k" horiz-adv-x="570" 
d="M31 0l157 743h106l-95 -444h57l215 211h123l-261 -254l157 -256h-118l-132 216h-58l-45 -216h-106z" />
    <glyph glyph-name="l" unicode="l" horiz-adv-x="265" 
d="M31 0l157 743h107l-157 -743h-107z" />
    <glyph glyph-name="m" unicode="m" horiz-adv-x="906" 
d="M31 0l108 510h98l-11 -71h7q48 79 159 79q70 0 102 -18.5t40 -60.5h8q48 79 167 79q79 0 110.5 -27t31.5 -88q0 -33 -14 -101l-65 -302h-106l61 284q14 68 14 90q0 34 -17.5 44t-65.5 10q-40 0 -65 -9.5t-41 -34t-24 -49.5t-18 -74l-56 -261h-105l60 284q14 68 14 90
q0 34 -17.5 44t-65.5 10q-39 0 -64.5 -10.5t-41.5 -35.5t-24 -50t-17 -71l-57 -261h-105z" />
    <glyph glyph-name="n" unicode="n" horiz-adv-x="614" 
d="M31 0l108 510h98l-11 -71h7q51 79 172 79q87 0 120.5 -28t33.5 -91q0 -37 -13 -97l-64 -302h-105l60 284q13 67 13 85q0 37 -20.5 48t-75.5 11q-36 0 -61.5 -8t-41 -20t-27.5 -36t-17.5 -45t-13.5 -58l-57 -261h-105z" />
    <glyph glyph-name="o" unicode="o" horiz-adv-x="576" 
d="M249 -8q-126 0 -172 25.5t-46 95.5q0 35 21 142q9 46 15.5 73t16 57.5t18.5 46.5t24 34t32 25.5t42.5 15t56 9.5t71.5 2q125 0 170.5 -25.5t45.5 -96.5q0 -49 -20 -141q-11 -49 -16.5 -73t-16 -57t-19 -47.5t-23.5 -33.5t-31.5 -25.5t-42 -14.5t-55.5 -10t-71 -2zM250 77
q29 0 48.5 2.5t35.5 5t27 14t18.5 20.5t14.5 33.5t11.5 43t13.5 59.5q18 88 18 119q0 36 -23 47.5t-88 11.5q-34 0 -55 -1.5t-39 -11t-26.5 -17t-18 -33.5t-14.5 -46.5t-15 -68.5q-19 -95 -19 -120q0 -36 23 -47t88 -11z" />
    <glyph glyph-name="p" unicode="p" horiz-adv-x="607" 
d="M-9 -200l150 710h98l-11 -71h7q27 47 68 63t100 16q91 0 128.5 -29.5t37.5 -108.5q0 -48 -17 -130q-32 -153 -78.5 -205.5t-149.5 -52.5q-70 0 -111 15.5t-54 55.5h-6l-56 -263h-106zM284 81q45 0 68 4.5t42 25t29 51.5t23 93q16 70 16 108q0 42 -22.5 54.5t-83.5 12.5
q-49 0 -77 -13.5t-46 -43.5q-19 -32 -36.5 -102t-17.5 -111q0 -44 23.5 -61.5t81.5 -17.5z" />
    <glyph glyph-name="q" unicode="q" horiz-adv-x="589" 
d="M300 -199l39 184q5 24 10.5 48t6.5 28h-7q-30 -40 -71 -54.5t-101 -14.5q-76 0 -109 28t-33 98q0 52 18 136q32 152 83 208t153 56q122 0 145 -74h7l18 66h98l-151 -709h-106zM243 87q45 0 71 11.5t43 38.5q21 33 39 121q14 58 14 90q0 42 -23 59t-73 17
q-79 0 -104.5 -28t-49.5 -141q-16 -70 -16 -107q0 -38 20.5 -49.5t78.5 -11.5z" />
    <glyph glyph-name="r" unicode="r" horiz-adv-x="390" 
d="M31 0l108 510h98l-17 -97h6q33 61 78 83t118 22l-21 -101q-104 0 -149.5 -48t-69.5 -159l-46 -210h-105z" />
    <glyph glyph-name="s" unicode="s" horiz-adv-x="519" 
d="M225 -8q-104 0 -206 13l17 80q110 -10 176 -10q68 0 93 14t36 52q8 22 8 35q0 18 -11.5 23.5t-44.5 8.5l-134 17q-47 6 -67 27t-20 59q0 25 9 63q9 39 23.5 65.5t32 42t46.5 23.5t56.5 10.5t71.5 2.5q104 0 179 -14l-16 -80q-85 11 -158 11q-32 0 -48 -1t-35.5 -5.5
t-30.5 -16t-17 -29.5q-10 -20 -10 -43q0 -18 11 -24t43 -9l133 -17q48 -6 69.5 -23t21.5 -61q0 -26 -9 -65q-20 -93 -67.5 -121t-151.5 -28z" />
    <glyph glyph-name="t" unicode="t" horiz-adv-x="388" 
d="M302 0q-122 0 -167 17t-45 79q0 32 10 73l55 256h-104l18 85h103l31 148h107l-31 -148h122l-18 -85h-122l-52 -246q-9 -45 -9 -59q0 -26 24.5 -34t94.5 -8z" />
    <glyph glyph-name="u" unicode="u" horiz-adv-x="597" 
d="M204 -8q-88 0 -121.5 28t-33.5 92q0 37 13 97l64 301h106l-60 -284q-13 -67 -13 -85q0 -37 20 -48t76 -11q36 0 61.5 8t41 20t27 36.5t17 44.5t13.5 58l57 261h106l-109 -510h-98l11 71h-7q-51 -79 -171 -79z" />
    <glyph glyph-name="v" unicode="v" horiz-adv-x="553" 
d="M154 0l-74 510h104l55 -407h8l225 407h112l-293 -510h-137z" />
    <glyph glyph-name="w" unicode="w" horiz-adv-x="847" 
d="M132 0l-47 510h102l31 -394h8l201 394h99l36 -394h9l196 394h108l-266 -510h-125l-37 344h-7l-182 -344h-126z" />
    <glyph glyph-name="x" unicode="x" horiz-adv-x="575" 
d="M-23 0l252 265l-138 245h115l95 -178h6l172 178h118l-244 -253l143 -257h-114l-101 187h-7l-180 -187h-117z" />
    <glyph glyph-name="y" unicode="y" horiz-adv-x="616" 
d="M193 -206q-97 0 -173 9l18 84q95 -4 149 -4t85.5 6t50.5 26t27.5 42.5t18.5 69.5l9 40h-7q-49 -71 -172 -71q-77 0 -108 25t-31 79q0 39 12 93l68 317h106l-59 -275q-14 -65 -14 -93q0 -34 19 -43.5t72 -9.5q40 0 66 9.5t42.5 32.5t25.5 48.5t18 69.5l56 261h106
l-96 -450q-17 -79 -33 -123t-47.5 -80t-81 -49.5t-127.5 -13.5z" />
    <glyph glyph-name="z" unicode="z" horiz-adv-x="528" 
d="M-5 0l16 80l354 345h-267l18 85h414l-17 -80l-353 -345h281l-18 -85h-428z" />
    <glyph glyph-name="braceleft" unicode="{" horiz-adv-x="338" 
d="M161 -150q-31 15 -57.5 56t-26.5 93q0 21 4 40l24 112q5 23 5 43q0 73 -77 76l10 53q99 4 124 119l24 111q10 46 29 81t43.5 56.5t43.5 32t43 20.5h77q-43 -23 -84.5 -68.5t-54.5 -104.5l-26 -124q-26 -125 -136 -146l-1 -7q79 -17 79 -99q0 -27 -5 -48l-26 -123
q-3 -12 -3 -28q0 -45 21.5 -86t46.5 -59h-77z" />
    <glyph glyph-name="bar" unicode="|" horiz-adv-x="290" 
d="M10 -161l193 904h93l-193 -904h-93z" />
    <glyph glyph-name="braceright" unicode="}" horiz-adv-x="338" 
d="M-71 -150q43 23 84 68.5t54 104.5l27 124q28 126 136 146l1 7q-80 17 -80 99q0 23 6 48l26 123q3 12 3 28q0 45 -21.5 86t-46.5 59h77q31 -15 58 -56t27 -93q0 -21 -4 -40l-25 -112q-4 -19 -4 -43q0 -73 77 -76l-11 -53q-98 -4 -123 -119l-25 -111q-10 -46 -28.5 -81
t-43 -56t-43.5 -32t-43 -21h-78z" />
    <glyph glyph-name="asciitilde" unicode="~" horiz-adv-x="501" 
d="M61 236q10 66 32.5 94t73.5 28q46 0 117 -23q59 -17 83 -17q19 0 26.5 10.5t13.5 41.5h56q-10 -66 -32 -94.5t-74 -28.5q-32 0 -117 23q-56 18 -81 18q-20 0 -27.5 -10t-14.5 -42h-56z" />
    <glyph glyph-name="uni00A0" unicode="&#xa0;" horiz-adv-x="249" 
 />
    <glyph glyph-name="exclamdown" unicode="&#xa1;" horiz-adv-x="267" 
d="M118 398l24 112h117l-24 -112h-117zM-7 -178l20 86q14 73 102 393h81q-42 -283 -63 -393l-20 -86h-120z" />
    <glyph glyph-name="cent" unicode="&#xa2;" horiz-adv-x="469" 
d="M451 516q-40 8 -92 10l-78 -367q44 1 100 10l-19 -87q-44 -11 -101 -14l-16 -76h-79l16 76q-66 6 -102.5 42.5t-36.5 96.5q0 53 18 135q34 165 79.5 218.5t158.5 57.5l17 78h79l-17 -79q52 -3 91 -13zM158 233q0 -31 10.5 -46.5t34.5 -22.5l76 359q-47 -7 -65.5 -40.5
t-40.5 -140.5q-15 -69 -15 -109z" />
    <glyph glyph-name="sterling" unicode="&#xa3;" horiz-adv-x="614" 
d="M5 0l19 92h75l47 219h-77l19 88h76q37 179 98 238t215 59q107 0 173 -16l-18 -87q-77 11 -124 11q-109 0 -147 -23q-31 -20 -48.5 -61.5t-34.5 -120.5h233l-19 -88h-233l-45 -219h324l-20 -92h-513z" />
    <glyph glyph-name="currency" unicode="&#xa4;" horiz-adv-x="694" 
d="M68 -4l-47 60l98 85q-6 19 -6 45q0 42 24 159q32 154 66 202l-64 85l74 60l68 -92q46 19 141 19q93 0 133 -17l107 91l48 -60l-98 -84q6 -18 6 -44q0 -43 -24 -160q-33 -158 -67 -204l65 -87l-73 -59l-69 92q-48 -18 -141 -18q-95 0 -135 18zM326 158q32 0 52 1.5
t37 11.5t25 18.5t17.5 35t14.5 48.5t15 72q21 97 21 128q0 35 -21.5 46t-81.5 11q-33 0 -52.5 -1.5t-36.5 -11t-25 -18t-17.5 -34.5t-14.5 -48.5t-15 -71.5q-21 -97 -21 -129q0 -36 21.5 -47t81.5 -11z" />
    <glyph glyph-name="yen" unicode="&#xa5;" horiz-adv-x="640" 
d="M205 0l50 229h-201l14 67h182l-31 91h-131l13 67h96l-79 234h114l102 -331h6l245 331h117l-178 -234h93l-13 -67h-131l-70 -91h181l-14 -67h-200l-50 -229h-115z" />
    <glyph glyph-name="brokenbar" unicode="&#xa6;" horiz-adv-x="290" 
d="M135 390l75 353h93l-75 -353h-93zM17 -161l75 353h93l-75 -353h-93z" />
    <glyph glyph-name="section" unicode="&#xa7;" horiz-adv-x="695" 
d="M239 -171q-29 0 -57.5 1.5t-49.5 3.5t-37.5 3.5t-26 3t-10.5 1.5l19 89q28 -7 135 -7q102 0 135.5 11.5t41.5 51.5q4 26 4 33q0 17 -10 25t-37 16l-200 60q-49 14 -71.5 34.5t-22.5 64.5q0 30 8 62q16 72 46.5 115t91.5 51q-5 12 -5 26q0 20 10 64q20 91 83.5 124.5
t173.5 33.5q29 0 57.5 -1.5t49 -3t37 -3.5t26.5 -3.5t11 -1.5l-19 -89q-24 6 -135 6q-102 0 -136 -12.5t-41 -51.5q-4 -17 -4 -32q0 -17 10 -25t37 -16l192 -59q54 -17 77.5 -38t23.5 -64q0 -25 -7 -59q-16 -72 -47 -115.5t-92 -51.5q5 -15 5 -28q0 -22 -9 -62
q-11 -47 -33 -78.5t-57 -48.5t-74 -23.5t-93 -6.5zM464 141q51 0 68 86q5 25 5 37q0 19 -10 28.5t-34 17.5l-206 61q-39 11 -52 11q-52 0 -69 -86q-5 -27 -5 -38q0 -19 9.5 -28t35.5 -16l206 -62q33 -11 52 -11z" />
    <glyph glyph-name="dieresis" unicode="&#xa8;" horiz-adv-x="340" 
d="M97 616l19 91h93l-20 -91h-92zM304 616l20 91h92l-19 -91h-93z" />
    <glyph glyph-name="copyright" unicode="&#xa9;" horiz-adv-x="738" 
d="M341 -8q-160 0 -217 26.5t-57 112.5q0 55 35 213q12 55 18.5 84.5t17 69t17.5 57.5t20 44t24 36t30 24.5t38 18.5t47 10t59 7t72 1q153 0 208 -27.5t55 -114.5q0 -57 -33 -210q-12 -54 -18.5 -84.5t-17 -69t-18 -58t-20 -44.5t-23.5 -35.5t-29.5 -24.5t-37 -18.5
t-45.5 -10t-56 -6.5t-69 -1zM329 39q48 0 75.5 0.5t57.5 7t44.5 12t32.5 25t25.5 36t20.5 55.5t20 72t21 97q33 158 33 207q0 64 -40.5 80.5t-160.5 16.5q-50 0 -79 -0.5t-60.5 -7t-46.5 -11.5t-33.5 -24.5t-26.5 -36t-20.5 -55t-20 -72.5t-20.5 -97q-35 -162 -35 -208
q0 -64 42.5 -80.5t170.5 -16.5zM386 153q-80 0 -111 19t-31 71q0 35 14 100q26 118 59 153.5t128 35.5q56 0 91 -7l-11 -54q-37 5 -67 5q-72 0 -91 -20t-39 -113q-15 -63 -15 -87q0 -30 18.5 -38t70.5 -8q30 0 70 4l-12 -54q-37 -7 -74 -7z" />
    <glyph glyph-name="ordfeminine" unicode="&#xaa;" horiz-adv-x="419" 
d="M190 310q-66 0 -93.5 22t-27.5 80q0 34 12 94q24 112 57.5 150t108.5 38q104 0 121 -52h4l15 46h74l-79 -372h-73l8 52h-5q-32 -58 -122 -58zM229 382q60 0 85 39q14 22 26 71t12 77q0 29 -16.5 41.5t-57.5 12.5q-57 0 -76 -20.5t-35 -99.5q-11 -53 -11 -75q0 -28 16 -37
t57 -9z" />
    <glyph glyph-name="guillemotleft" unicode="&#xab;" horiz-adv-x="491" 
d="M157 96l-94 206l172 208h79l-159 -208l72 -206h-70zM334 96l-94 206l172 208h80l-159 -208l72 -206h-71z" />
    <glyph glyph-name="logicalnot" unicode="&#xac;" horiz-adv-x="548" 
d="M357 51l35 163h-324l17 82h404l-52 -245h-80z" />
    <glyph glyph-name="uni00AD" unicode="&#xad;" horiz-adv-x="375" 
d="M58 240l19 90h260l-19 -90h-260z" />
    <glyph glyph-name="registered" unicode="&#xae;" horiz-adv-x="738" 
d="M314 -8q-144 0 -196 25.5t-52 104.5q0 62 36 222q11 53 18 83t17 68t17.5 57.5t21 44.5t25.5 36t31.5 25t40 19t50.5 10.5t62.5 7t75.5 1.5q145 0 197 -26t52 -105q0 -59 -35 -221q-11 -53 -18 -83t-17.5 -68t-18 -57.5t-21 -44.5t-25.5 -36t-31.5 -25t-40.5 -19
t-50.5 -10.5t-62 -7t-76.5 -1.5zM322 40q50 0 78 0.5t59 7t45.5 11.5t33 24.5t26 35.5t20.5 55.5t20 72l21 97.5q34 167 34 208q0 64 -40.5 79.5t-166.5 15.5h-63t-51 -4t-41.5 -6.5t-32.5 -13t-26.5 -18.5t-20.5 -29.5t-18 -38t-15.5 -51t-15.5 -63t-17 -79.5
q-35 -156 -35 -209q0 -63 41 -79t165 -16zM211 158l79 370h165q56 0 77.5 -17t21.5 -50q0 -21 -6 -48q-18 -87 -77 -106l30 -149h-72l-25 139h-97l-30 -139h-66zM319 353h74q48 0 64.5 12.5t23.5 44.5q4 24 4 30q0 17 -13 24t-47 7h-81z" />
    <glyph glyph-name="macron" unicode="&#xaf;" horiz-adv-x="367" 
d="M97 616l16 71h326l-15 -71h-327z" />
    <glyph glyph-name="degree" unicode="&#xb0;" horiz-adv-x="401" 
d="M239 397q-73 0 -100 16t-27 60q0 24 11 76q11 49 18.5 72.5t25 43t44 25.5t73.5 6q73 0 99.5 -16t26.5 -60q0 -25 -11 -77q-11 -50 -18.5 -73t-25 -42.5t-43.5 -25t-73 -5.5zM241 450q49 0 62 15.5t27 80.5q11 53 11 65q0 19 -12.5 25.5t-46.5 6.5q-50 0 -64 -16.5
t-27 -80.5q-11 -44 -11 -63q0 -20 13 -26.5t48 -6.5z" />
    <glyph glyph-name="plusminus" unicode="&#xb1;" horiz-adv-x="549" 
d="M222 184l34 163h-159l17 81h159l35 162h85l-35 -162h161l-17 -81h-161l-34 -163h-85zM22 -4l17 81h405l-17 -81h-405z" />
    <glyph glyph-name="uni00B2" unicode="&#xb2;" horiz-adv-x="356" 
d="M84 420l10 48q15 74 30.5 97t62.5 39l108 39q31 12 40.5 20.5t14.5 28.5q3 12 3 26q0 17 -16.5 21.5t-60.5 4.5q-52 0 -115 -6l11 54q66 11 135 11q57 0 87 -14.5t30 -55.5q0 -17 -6 -43q-8 -39 -29 -61t-64 -38l-115 -43q-17 -6 -24 -14.5t-12 -31.5l-4 -23h205l-13 -59
h-278z" />
    <glyph glyph-name="uni00B3" unicode="&#xb3;" horiz-adv-x="351" 
d="M202 416q-61 0 -135 10l12 54q78 -6 116 -6q45 0 68.5 7.5t32.5 32.5q6 15 6 33q0 20 -13.5 28t-44.5 8h-74l11 57h75q53 0 71 40q5 11 5 30q0 22 -18 28t-67 6q-61 0 -112 -6l12 55q64 10 114 10q80 0 113.5 -19t33.5 -60q0 -22 -7 -45q-19 -57 -84 -65v-1
q30 -6 43 -21.5t13 -47.5q0 -24 -7 -50q-12 -40 -49 -59t-115 -19z" />
    <glyph glyph-name="acute" unicode="&#xb4;" horiz-adv-x="257" 
d="M91 588l1 5l132 138h115l-1 -5l-166 -138h-81z" />
    <glyph glyph-name="uni00B5" unicode="&#xb5;" horiz-adv-x="614" 
d="M-9 -189l149 699h73l-62 -292q-14 -68 -14 -91q0 -42 24 -54.5t89 -12.5q34 0 60 5.5t44 19.5t30 27t22 40t15 46t13 55l55 257h74l-109 -510h-65l11 74h-5q-49 -82 -176 -82q-72 0 -110 28l-45 -209h-73z" />
    <glyph glyph-name="paragraph" unicode="&#xb6;" horiz-adv-x="605" 
d="M216 -144l77 366q-128 0 -172 18t-44 77q0 42 21 137q12 58 20 88.5t23.5 61.5t31.5 43.5t48 24t70 14t99 2.5h78l-176 -832h-76zM358 -144l176 832h74l-176 -832h-74z" />
    <glyph glyph-name="periodcentered" unicode="&#xb7;" horiz-adv-x="248" 
d="M57 244l24 112h120l-24 -112h-120z" />
    <glyph glyph-name="cedilla" unicode="&#xb8;" horiz-adv-x="182" 
d="M-74 -190v5l113 203h73v-5l-84 -203h-102z" />
    <glyph glyph-name="uni00B9" unicode="&#xb9;" horiz-adv-x="228" 
d="M134 420l63 297l-90 -37l15 65l114 53h51l-81 -378h-72z" />
    <glyph glyph-name="ordmasculine" unicode="&#xba;" horiz-adv-x="437" 
d="M244 313q-90 0 -124 19.5t-34 72.5q0 21 15 98q13 63 24 95.5t33 56.5t55 31.5t89 7.5q90 0 123.5 -19t33.5 -73q0 -27 -14 -99q-10 -44 -16.5 -67.5t-17.5 -48.5t-23 -36.5t-32.5 -21.5t-46.5 -13t-65 -3zM246 377q66 0 83 20t34 106q14 68 14 85q0 24 -16.5 32.5
t-60.5 8.5q-24 0 -39 -1t-27 -8t-18.5 -12.5t-13.5 -24.5t-10.5 -32.5t-10.5 -47.5q-12 -57 -12 -84q0 -26 16 -34t61 -8z" />
    <glyph glyph-name="guillemotright" unicode="&#xbb;" horiz-adv-x="491" 
d="M34 96l160 208l-73 206h70l95 -206l-172 -208h-80zM210 96l159 208l-71 206h70l94 -206l-172 -208h-80z" />
    <glyph glyph-name="onequarter" unicode="&#xbc;" horiz-adv-x="678" 
d="M-15 0l589 688h84l-588 -688h-85zM110 308l63 297l-90 -37l15 65l114 53h51l-81 -378h-72zM477 0l17 82h-197l11 50l187 246h82l-189 -239h120l45 112h51l-24 -112h52l-12 -57h-52l-18 -82h-73z" />
    <glyph glyph-name="onehalf" unicode="&#xbd;" horiz-adv-x="733" 
d="M-15 0l589 688h84l-588 -688h-85zM110 308l63 297l-90 -37l15 65l114 53h51l-81 -378h-72zM373 0l10 48q15 74 30.5 97t62.5 39l108 39q31 12 40.5 20.5t14.5 28.5q3 12 3 26q0 17 -16.5 21.5t-60.5 4.5q-52 0 -115 -6l11 54q66 11 135 11q57 0 87 -14.5t30 -55.5
q0 -17 -6 -43q-8 -39 -29 -61t-64 -38l-115 -43q-17 -6 -24 -14.5t-12 -31.5l-4 -23h205l-13 -59h-278z" />
    <glyph glyph-name="threequarters" unicode="&#xbe;" horiz-adv-x="801" 
d="M178 304q-61 0 -135 10l12 54q78 -6 116 -6q45 0 68.5 7.5t32.5 32.5q6 15 6 33q0 20 -13.5 28t-44.5 8h-74l11 57h75q53 0 71 40q5 11 5 30q0 22 -18 28t-67 6q-61 0 -112 -6l12 55q64 10 114 10q80 0 113.5 -19t33.5 -60q0 -22 -7 -45q-19 -57 -84 -65v-1
q30 -6 43 -21.5t13 -47.5q0 -24 -7 -50q-12 -40 -49 -59t-115 -19zM108 0l589 688h84l-588 -688h-85zM600 0l17 82h-197l11 50l187 246h82l-189 -239h120l45 112h51l-24 -112h52l-12 -57h-52l-18 -82h-73z" />
    <glyph glyph-name="questiondown" unicode="&#xbf;" horiz-adv-x="454" 
d="M272 398l23 112h118l-23 -112h-118zM189 -186q-103 0 -151.5 26.5t-48.5 99.5q0 29 7 61q16 73 44.5 107t88.5 52l36 12q54 18 66 28t21 49l11 53h96l-16 -74q-11 -57 -32.5 -79.5t-67.5 -36.5l-37 -12q-49 -16 -67.5 -33t-29.5 -67q-5 -27 -5 -41q0 -34 25 -43.5
t91 -9.5q85 0 174 12l-18 -87q-92 -17 -187 -17z" />
    <glyph glyph-name="Agrave" unicode="&#xc0;" horiz-adv-x="709" 
d="M437 766l-108 138l1 5h105l75 -138l-1 -5h-72zM-29 0l405 688h147l112 -688h-112l-30 172h-303l-103 -172h-116zM237 263h245l-51 316h-6z" />
    <glyph glyph-name="Aacute" unicode="&#xc1;" horiz-adv-x="709" 
d="M395 767v5l103 137h108v-5l-137 -137h-74zM-29 0l405 688h147l112 -688h-112l-30 172h-303l-103 -172h-116zM237 263h245l-51 316h-6z" />
    <glyph glyph-name="Acircumflex" unicode="&#xc2;" horiz-adv-x="709" 
d="M306 767v6l130 136h103l75 -136l-1 -6h-65l-66 92l-100 -92h-76zM-29 0l405 688h147l112 -688h-112l-30 172h-303l-103 -172h-116zM237 263h245l-51 316h-6z" />
    <glyph glyph-name="Atilde" unicode="&#xc3;" horiz-adv-x="709" 
d="M276 773q14 69 34.5 96.5t72.5 27.5q33 0 103 -22q52 -18 71 -18q20 0 27 10t13 41h60q-14 -69 -34.5 -96.5t-72.5 -27.5q-37 0 -103 22q-53 17 -71 17q-19 0 -26 -9.5t-14 -40.5h-60zM-29 0l405 688h147l112 -688h-112l-30 172h-303l-103 -172h-116zM237 263h245
l-51 316h-6z" />
    <glyph glyph-name="Adieresis" unicode="&#xc4;" horiz-adv-x="709" 
d="M317 794l19 91h92l-19 -91h-92zM524 794l20 91h92l-19 -91h-93zM-29 0l405 688h147l112 -688h-112l-30 172h-303l-103 -172h-116zM237 263h245l-51 316h-6z" />
    <glyph glyph-name="Aring" unicode="&#xc5;" horiz-adv-x="709" 
d="M524 681l111 -681h-112l-30 172h-303l-103 -172h-116l401 681q-44 12 -44 52q0 18 8 52q8 35 14.5 51t22.5 32.5t44 22t75 5.5q69 0 95 -14t26 -45q0 -18 -8 -52q-11 -50 -26.5 -72.5t-54.5 -31.5zM399 785q-5 -22 -5 -33q0 -15 13 -21t50 -6q51 0 63.5 10.5t20.5 49.5
q5 23 5 33q0 16 -13 21.5t-50 5.5q-49 0 -62 -10.5t-22 -49.5zM237 263h245l-51 316h-6z" />
    <glyph glyph-name="AE" unicode="&#xc6;" horiz-adv-x="990" 
d="M-29 0l405 688h641l-19 -92h-461l34 -203h334l-20 -91h-300l36 -210h270l-21 -92h-347l-30 172h-303l-103 -172h-116zM237 263h245l-51 316h-6z" />
    <glyph glyph-name="Ccedilla" unicode="&#xc7;" horiz-adv-x="590" 
d="M459 604q-53 0 -83 -2t-58.5 -13t-42.5 -24.5t-29 -47.5t-24 -70t-23 -103q-26 -122 -26 -167q0 -59 36 -76t140 -17q78 0 148 10l-19 -90q-66 -10 -144 -12l-76 -183h-102v5l100 179q-108 5 -153 40.5t-45 123.5q0 71 26 187q18 81 32.5 131t35.5 93t43 65t58 38
t78.5 20.5t106.5 4.5q99 0 180 -15l-19 -87q-92 10 -140 10z" />
    <glyph glyph-name="Egrave" unicode="&#xc8;" horiz-adv-x="621" 
d="M410 766l-108 138l1 5h105l75 -138l-1 -5h-72zM44 0l147 688h474l-20 -92h-360l-44 -203h311l-19 -91h-310l-46 -210h361l-20 -92h-474z" />
    <glyph glyph-name="Eacute" unicode="&#xc9;" horiz-adv-x="621" 
d="M367 767v5l103 137h108v-5l-137 -137h-74zM44 0l147 688h474l-20 -92h-360l-44 -203h311l-19 -91h-310l-46 -210h361l-20 -92h-474z" />
    <glyph glyph-name="Ecircumflex" unicode="&#xca;" horiz-adv-x="621" 
d="M278 767v6l130 136h103l75 -136l-1 -6h-65l-66 92l-100 -92h-76zM44 0l147 688h474l-20 -92h-360l-44 -203h311l-19 -91h-310l-46 -210h361l-20 -92h-474z" />
    <glyph glyph-name="Edieresis" unicode="&#xcb;" horiz-adv-x="621" 
d="M289 794l19 91h92l-19 -91h-92zM496 794l20 91h92l-19 -91h-93zM44 0l147 688h474l-20 -92h-360l-44 -203h311l-19 -91h-310l-46 -210h361l-20 -92h-474z" />
    <glyph glyph-name="Igrave" unicode="&#xcc;" horiz-adv-x="302" 
d="M231 766l-108 138l1 5h105l75 -138l-1 -5h-72zM44 0l147 688h113l-147 -688h-113z" />
    <glyph glyph-name="Iacute" unicode="&#xcd;" horiz-adv-x="302" 
d="M188 767v5l103 137h108v-5l-137 -137h-74zM44 0l147 688h113l-147 -688h-113z" />
    <glyph glyph-name="Icircumflex" unicode="&#xce;" horiz-adv-x="302" 
d="M100 767v6l130 136h103l75 -136l-1 -6h-65l-66 92l-100 -92h-76zM44 0l147 688h113l-147 -688h-113z" />
    <glyph glyph-name="Idieresis" unicode="&#xcf;" horiz-adv-x="302" 
d="M110 794l19 91h92l-19 -91h-92zM317 794l20 91h92l-19 -91h-93zM44 0l147 688h113l-147 -688h-113z" />
    <glyph glyph-name="Eth" unicode="&#xd0;" horiz-adv-x="707" 
d="M408 688q162 0 220 -30.5t58 -122.5q0 -54 -28 -194q-14 -64 -22.5 -99t-21.5 -76.5t-24.5 -61t-31.5 -42.5t-41 -31.5t-55 -17.5t-72.5 -11t-92.5 -2h-253l66 308h-70l18 82h69l64 298h217zM543 344q27 124 27 170q0 56 -35.5 69t-144.5 13h-105l-44 -206h106l-17 -82
h-106l-46 -216h105h66t50 5t39.5 9.5t28 19.5t23 29t17.5 45.5t18 61t18 82.5z" />
    <glyph glyph-name="Ntilde" unicode="&#xd1;" horiz-adv-x="749" 
d="M293 773q14 69 34.5 96.5t72.5 27.5q33 0 103 -22q52 -18 71 -18q20 0 27 10t13 41h60q-14 -69 -34.5 -96.5t-72.5 -27.5q-37 0 -103 22q-53 17 -71 17q-19 0 -26 -9.5t-14 -40.5h-60zM44 0l147 688h116l225 -487h6l105 487h109l-147 -688h-107l-230 507h-7l-108 -507
h-109z" />
    <glyph glyph-name="Ograve" unicode="&#xd2;" horiz-adv-x="738" 
d="M449 766l-108 138l1 5h105l75 -138l-1 -5h-72zM325 -8q-155 0 -211 31.5t-56 122.5q0 56 31 201q13 64 21.5 100t21.5 78t24 62.5t31 44t41 32.5t54.5 18t71.5 11.5t91 2.5q154 0 210 -32t56 -123q0 -61 -30 -200q-11 -52 -18 -82t-17.5 -67.5t-18.5 -56.5t-21 -44
t-25.5 -36t-31.5 -25t-39.5 -19t-49.5 -10.5t-61 -7t-74 -1.5zM329 84q37 0 56.5 0.5t43.5 5t35 9.5t26 20t21.5 30.5t17.5 47t18.5 63t18.5 84.5q28 131 28 181q0 23 -6 37.5t-15 23t-31 12.5t-42.5 5t-60.5 1q-38 0 -57 -0.5t-43.5 -5t-35 -9.5t-25.5 -20t-21.5 -30.5
t-17.5 -47t-18 -63t-18 -84.5q-29 -139 -29 -182q0 -53 31 -65.5t124 -12.5z" />
    <glyph glyph-name="Oacute" unicode="&#xd3;" horiz-adv-x="738" 
d="M407 767v5l103 137h108v-5l-137 -137h-74zM325 -8q-155 0 -211 31.5t-56 122.5q0 56 31 201q13 64 21.5 100t21.5 78t24 62.5t31 44t41 32.5t54.5 18t71.5 11.5t91 2.5q154 0 210 -32t56 -123q0 -61 -30 -200q-11 -52 -18 -82t-17.5 -67.5t-18.5 -56.5t-21 -44t-25.5 -36
t-31.5 -25t-39.5 -19t-49.5 -10.5t-61 -7t-74 -1.5zM329 84q37 0 56.5 0.5t43.5 5t35 9.5t26 20t21.5 30.5t17.5 47t18.5 63t18.5 84.5q28 131 28 181q0 23 -6 37.5t-15 23t-31 12.5t-42.5 5t-60.5 1q-38 0 -57 -0.5t-43.5 -5t-35 -9.5t-25.5 -20t-21.5 -30.5t-17.5 -47
t-18 -63t-18 -84.5q-29 -139 -29 -182q0 -53 31 -65.5t124 -12.5z" />
    <glyph glyph-name="Ocircumflex" unicode="&#xd4;" horiz-adv-x="738" 
d="M318 767v6l130 136h103l75 -136l-1 -6h-65l-66 92l-100 -92h-76zM325 -8q-155 0 -211 31.5t-56 122.5q0 56 31 201q13 64 21.5 100t21.5 78t24 62.5t31 44t41 32.5t54.5 18t71.5 11.5t91 2.5q154 0 210 -32t56 -123q0 -61 -30 -200q-11 -52 -18 -82t-17.5 -67.5
t-18.5 -56.5t-21 -44t-25.5 -36t-31.5 -25t-39.5 -19t-49.5 -10.5t-61 -7t-74 -1.5zM329 84q37 0 56.5 0.5t43.5 5t35 9.5t26 20t21.5 30.5t17.5 47t18.5 63t18.5 84.5q28 131 28 181q0 23 -6 37.5t-15 23t-31 12.5t-42.5 5t-60.5 1q-38 0 -57 -0.5t-43.5 -5t-35 -9.5
t-25.5 -20t-21.5 -30.5t-17.5 -47t-18 -63t-18 -84.5q-29 -139 -29 -182q0 -53 31 -65.5t124 -12.5z" />
    <glyph glyph-name="Otilde" unicode="&#xd5;" horiz-adv-x="738" 
d="M288 773q14 69 34.5 96.5t72.5 27.5q33 0 103 -22q52 -18 71 -18q20 0 27 10t13 41h60q-14 -69 -34.5 -96.5t-72.5 -27.5q-37 0 -103 22q-53 17 -71 17q-19 0 -26 -9.5t-14 -40.5h-60zM325 -8q-155 0 -211 31.5t-56 122.5q0 56 31 201q13 64 21.5 100t21.5 78t24 62.5
t31 44t41 32.5t54.5 18t71.5 11.5t91 2.5q154 0 210 -32t56 -123q0 -61 -30 -200q-11 -52 -18 -82t-17.5 -67.5t-18.5 -56.5t-21 -44t-25.5 -36t-31.5 -25t-39.5 -19t-49.5 -10.5t-61 -7t-74 -1.5zM329 84q37 0 56.5 0.5t43.5 5t35 9.5t26 20t21.5 30.5t17.5 47t18.5 63
t18.5 84.5q28 131 28 181q0 23 -6 37.5t-15 23t-31 12.5t-42.5 5t-60.5 1q-38 0 -57 -0.5t-43.5 -5t-35 -9.5t-25.5 -20t-21.5 -30.5t-17.5 -47t-18 -63t-18 -84.5q-29 -139 -29 -182q0 -53 31 -65.5t124 -12.5z" />
    <glyph glyph-name="Odieresis" unicode="&#xd6;" horiz-adv-x="738" 
d="M329 794l19 91h92l-19 -91h-92zM536 794l20 91h92l-19 -91h-93zM325 -8q-155 0 -211 31.5t-56 122.5q0 56 31 201q13 64 21.5 100t21.5 78t24 62.5t31 44t41 32.5t54.5 18t71.5 11.5t91 2.5q154 0 210 -32t56 -123q0 -61 -30 -200q-11 -52 -18 -82t-17.5 -67.5
t-18.5 -56.5t-21 -44t-25.5 -36t-31.5 -25t-39.5 -19t-49.5 -10.5t-61 -7t-74 -1.5zM329 84q37 0 56.5 0.5t43.5 5t35 9.5t26 20t21.5 30.5t17.5 47t18.5 63t18.5 84.5q28 131 28 181q0 23 -6 37.5t-15 23t-31 12.5t-42.5 5t-60.5 1q-38 0 -57 -0.5t-43.5 -5t-35 -9.5
t-25.5 -20t-21.5 -30.5t-17.5 -47t-18 -63t-18 -84.5q-29 -139 -29 -182q0 -53 31 -65.5t124 -12.5z" />
    <glyph glyph-name="multiply" unicode="&#xd7;" horiz-adv-x="500" 
d="M99 70l-51 65l143 117l-93 118l73 60l92 -117l142 117l50 -62l-144 -120l92 -116l-71 -58l-91 115z" />
    <glyph glyph-name="Oslash" unicode="&#xd8;" horiz-adv-x="738" 
d="M756 743l-78 -96q33 -34 33 -106q0 -61 -30 -200q-11 -52 -18 -82t-17.5 -67.5t-18.5 -56.5t-21 -44t-25.5 -36t-31.5 -25t-39.5 -19t-49.5 -10.5t-61 -7t-74 -1.5q-110 0 -166 14l-50 -61h-97l78 97q-32 32 -32 104q0 56 31 201q13 64 21.5 100t21.5 78t24 62.5t31 44
t41 32.5t54.5 18t71.5 11.5t91 2.5q108 0 164 -14l49 61h98zM174 162q0 -11 1 -16l366 452q-24 6 -102 6q-38 0 -57 -0.5t-43.5 -5t-35 -9.5t-25.5 -20t-21.5 -30.5t-17.5 -47t-18 -63t-18 -84.5q-29 -139 -29 -182zM594 525q0 12 -1 17l-367 -452q25 -6 103 -6
q37 0 56.5 0.5t43.5 5t35 9.5t26 20t21.5 30.5t17.5 47t18.5 63t18.5 84.5q28 131 28 181z" />
    <glyph glyph-name="Ugrave" unicode="&#xd9;" horiz-adv-x="725" 
d="M443 766l-108 138l1 5h105l75 -138l-1 -5h-72zM326 -8q-142 0 -196.5 32.5t-54.5 119.5q0 50 23 160l82 384h113l-88 -416q-17 -85 -17 -112q0 -44 29.5 -59.5t110.5 -15.5q59 0 90.5 6t53.5 30t31.5 54t23.5 97l89 416h113l-81 -384q-14 -71 -24.5 -111t-28 -80.5
t-37 -59.5t-52.5 -35t-75.5 -21t-104.5 -5z" />
    <glyph glyph-name="Uacute" unicode="&#xda;" horiz-adv-x="725" 
d="M401 767v5l103 137h108v-5l-137 -137h-74zM326 -8q-142 0 -196.5 32.5t-54.5 119.5q0 50 23 160l82 384h113l-88 -416q-17 -85 -17 -112q0 -44 29.5 -59.5t110.5 -15.5q59 0 90.5 6t53.5 30t31.5 54t23.5 97l89 416h113l-81 -384q-14 -71 -24.5 -111t-28 -80.5t-37 -59.5
t-52.5 -35t-75.5 -21t-104.5 -5z" />
    <glyph glyph-name="Ucircumflex" unicode="&#xdb;" horiz-adv-x="725" 
d="M312 767v6l130 136h103l75 -136l-1 -6h-65l-66 92l-100 -92h-76zM326 -8q-142 0 -196.5 32.5t-54.5 119.5q0 50 23 160l82 384h113l-88 -416q-17 -85 -17 -112q0 -44 29.5 -59.5t110.5 -15.5q59 0 90.5 6t53.5 30t31.5 54t23.5 97l89 416h113l-81 -384
q-14 -71 -24.5 -111t-28 -80.5t-37 -59.5t-52.5 -35t-75.5 -21t-104.5 -5z" />
    <glyph glyph-name="Udieresis" unicode="&#xdc;" horiz-adv-x="725" 
d="M323 794l19 91h92l-19 -91h-92zM530 794l20 91h92l-19 -91h-93zM326 -8q-142 0 -196.5 32.5t-54.5 119.5q0 50 23 160l82 384h113l-88 -416q-17 -85 -17 -112q0 -44 29.5 -59.5t110.5 -15.5q59 0 90.5 6t53.5 30t31.5 54t23.5 97l89 416h113l-81 -384q-14 -71 -24.5 -111
t-28 -80.5t-37 -59.5t-52.5 -35t-75.5 -21t-104.5 -5z" />
    <glyph glyph-name="Yacute" unicode="&#xdd;" horiz-adv-x="640" 
d="M353 767v5l103 137h108v-5l-137 -137h-74zM203 0l55 255l-161 433h116l119 -322h7l257 322h121l-346 -433l-55 -255h-113z" />
    <glyph glyph-name="Thorn" unicode="&#xde;" horiz-adv-x="651" 
d="M50 0l147 688h114l-25 -118h175q103 0 143.5 -34.5t40.5 -104.5q0 -34 -12 -87q-9 -43 -17.5 -70.5t-26.5 -58t-42 -47.5t-63.5 -28.5t-92.5 -11.5h-199l-27 -128h-115zM212 220h149q86 0 115 27t44 102q9 47 9 67q0 34 -24 49t-87 15h-152z" />
    <glyph glyph-name="germandbls" unicode="&#xdf;" horiz-adv-x="606" 
d="M20 0l116 547q23 108 84.5 155.5t190.5 47.5q106 0 150.5 -29t44.5 -88q0 -21 -7 -60q-13 -61 -48 -93.5t-97 -41.5l-1 -4q47 -9 70.5 -35.5t23.5 -78.5q0 -35 -10 -81q-15 -69 -31 -110t-45.5 -72.5t-74.5 -44t-113 -12.5h-66l19 88h44q47 0 69 3t41.5 20t29 45t21.5 86
q10 46 10 77q0 42 -23.5 55.5t-81.5 13.5h-26l20 89h26q66 0 95 17.5t39 65.5q5 21 5 44q0 34 -23.5 45.5t-83.5 11.5q-69 0 -100.5 -24t-48.5 -105l-113 -532h-106z" />
    <glyph glyph-name="agrave" unicode="&#xe0;" horiz-adv-x="590" 
d="M354 588l-108 138l1 5h105l75 -138l-1 -5h-72zM205 -8q-90 0 -128 30t-38 108q0 43 18 130q32 153 78 205.5t149 52.5q70 0 111 -15.5t54 -55.5h7l20 63h99l-108 -510h-98l11 71h-6q-27 -47 -68.5 -63t-100.5 -16zM253 80q90 0 122 57q19 32 37 103t18 110q0 44 -24 61.5
t-82 17.5q-83 0 -110 -29t-52 -145q-16 -77 -16 -108q0 -42 22.5 -54.5t84.5 -12.5z" />
    <glyph glyph-name="aacute" unicode="&#xe1;" horiz-adv-x="590" 
d="M279 588l1 5l132 138h115l-1 -5l-166 -138h-81zM205 -8q-90 0 -128 30t-38 108q0 43 18 130q32 153 78 205.5t149 52.5q70 0 111 -15.5t54 -55.5h7l20 63h99l-108 -510h-98l11 71h-6q-27 -47 -68.5 -63t-100.5 -16zM253 80q90 0 122 57q19 32 37 103t18 110
q0 44 -24 61.5t-82 17.5q-83 0 -110 -29t-52 -145q-16 -77 -16 -108q0 -42 22.5 -54.5t84.5 -12.5z" />
    <glyph glyph-name="acircumflex" unicode="&#xe2;" horiz-adv-x="590" 
d="M209 589l1 6l130 136h103l74 -136v-6h-65l-66 92l-100 -92h-77zM205 -8q-90 0 -128 30t-38 108q0 43 18 130q32 153 78 205.5t149 52.5q70 0 111 -15.5t54 -55.5h7l20 63h99l-108 -510h-98l11 71h-6q-27 -47 -68.5 -63t-100.5 -16zM253 80q90 0 122 57q19 32 37 103
t18 110q0 44 -24 61.5t-82 17.5q-83 0 -110 -29t-52 -145q-16 -77 -16 -108q0 -42 22.5 -54.5t84.5 -12.5z" />
    <glyph glyph-name="atilde" unicode="&#xe3;" horiz-adv-x="590" 
d="M185 595q14 69 34.5 96.5t72.5 27.5q33 0 103 -22q52 -18 71 -18q20 0 27 10t13 41h60q-14 -69 -34.5 -96.5t-72.5 -27.5q-39 0 -103 22q-53 17 -71 17q-20 0 -26.5 -9.5t-13.5 -40.5h-60zM205 -8q-90 0 -128 30t-38 108q0 43 18 130q32 153 78 205.5t149 52.5
q70 0 111 -15.5t54 -55.5h7l20 63h99l-108 -510h-98l11 71h-6q-27 -47 -68.5 -63t-100.5 -16zM253 80q90 0 122 57q19 32 37 103t18 110q0 44 -24 61.5t-82 17.5q-83 0 -110 -29t-52 -145q-16 -77 -16 -108q0 -42 22.5 -54.5t84.5 -12.5z" />
    <glyph glyph-name="adieresis" unicode="&#xe4;" horiz-adv-x="590" 
d="M222 616l19 91h92l-19 -91h-92zM429 616l20 91h92l-19 -91h-93zM205 -8q-90 0 -128 30t-38 108q0 43 18 130q32 153 78 205.5t149 52.5q70 0 111 -15.5t54 -55.5h7l20 63h99l-108 -510h-98l11 71h-6q-27 -47 -68.5 -63t-100.5 -16zM253 80q90 0 122 57q19 32 37 103
t18 110q0 44 -24 61.5t-82 17.5q-83 0 -110 -29t-52 -145q-16 -77 -16 -108q0 -42 22.5 -54.5t84.5 -12.5z" />
    <glyph glyph-name="aring" unicode="&#xe5;" horiz-adv-x="590" 
d="M363 575q-69 0 -94.5 13.5t-25.5 44.5q0 20 8 52q8 34 14.5 50.5t22.5 33.5t44 22.5t75 5.5q69 0 95 -14t26 -46q0 -18 -8 -52q-8 -35 -14.5 -51t-22.5 -32t-44.5 -21.5t-75.5 -5.5zM373 625q50 0 62.5 10.5t20.5 49.5q5 23 5 33q0 16 -13 21.5t-50 5.5q-49 0 -62 -10.5
t-22 -49.5q-5 -22 -5 -32q0 -16 13 -22t51 -6zM205 -8q-90 0 -128 30t-38 108q0 43 18 130q32 153 78 205.5t149 52.5q70 0 111 -15.5t54 -55.5h7l20 63h99l-108 -510h-98l11 71h-6q-27 -47 -68.5 -63t-100.5 -16zM253 80q90 0 122 57q19 32 37 103t18 110q0 44 -24 61.5
t-82 17.5q-83 0 -110 -29t-52 -145q-16 -77 -16 -108q0 -42 22.5 -54.5t84.5 -12.5z" />
    <glyph glyph-name="ae" unicode="&#xe6;" horiz-adv-x="883" 
d="M177 -8q-79 0 -116.5 23t-37.5 78q0 21 6 50q19 86 59.5 119.5t131.5 33.5q29 0 86.5 -0.5t86.5 -0.5l5 24q8 48 8 56q0 36 -25.5 45t-104.5 9q-101 0 -155 -9l18 83q94 15 190 15q128 0 160 -49q58 49 180 49q101 0 140 -27.5t39 -89.5q0 -46 -22 -146l-7 -33h-334
q-12 -57 -12 -78q0 -38 28.5 -51t107.5 -13q81 0 161 10l-18 -83q-75 -15 -184 -15q-84 0 -127 16t-59 52q-65 -68 -205 -68zM501 293h231l2 12q8 32 8 64q0 38 -20 49.5t-72 11.5q-79 0 -105 -25t-44 -112zM223 78q70 0 103 27.5t49 102.5l3 15h-147q-52 0 -69.5 -12.5
t-27.5 -59.5q-4 -24 -4 -32q0 -25 19.5 -33t73.5 -8z" />
    <glyph glyph-name="ccedilla" unicode="&#xe7;" horiz-adv-x="476" 
d="M341 433q-89 0 -119.5 -33t-54.5 -145q-17 -71 -17 -106q0 -43 25.5 -57.5t91.5 -14.5q52 0 124 10l-17 -80q-53 -11 -104 -14l-76 -184h-102v5l100 180q-83 6 -117 38.5t-34 95.5q0 53 20 139q12 58 23.5 93.5t30 69t44 51t64 27.5t92.5 10q87 0 161 -14l-17 -81
q-62 10 -118 10z" />
    <glyph glyph-name="egrave" unicode="&#xe8;" horiz-adv-x="576" 
d="M349 588l-108 138l1 5h105l75 -138l-1 -5h-72zM250 -8q-115 0 -160 28t-45 97q0 45 20 137q13 62 25 99t32 72.5t49 53.5t72.5 28.5t105.5 10.5q100 0 139.5 -27.5t39.5 -89.5q0 -48 -23 -147l-8 -34h-333q-11 -52 -11 -79q0 -37 27.5 -49t108.5 -12t161 10l-18 -83
q-75 -15 -182 -15zM180 293h231l2 11q9 42 9 67q0 36 -20.5 47.5t-71.5 11.5q-79 0 -105 -25t-45 -112z" />
    <glyph glyph-name="eacute" unicode="&#xe9;" horiz-adv-x="576" 
d="M274 588l1 5l132 138h115l-1 -5l-166 -138h-81zM250 -8q-115 0 -160 28t-45 97q0 45 20 137q13 62 25 99t32 72.5t49 53.5t72.5 28.5t105.5 10.5q100 0 139.5 -27.5t39.5 -89.5q0 -48 -23 -147l-8 -34h-333q-11 -52 -11 -79q0 -37 27.5 -49t108.5 -12t161 10l-18 -83
q-75 -15 -182 -15zM180 293h231l2 11q9 42 9 67q0 36 -20.5 47.5t-71.5 11.5q-79 0 -105 -25t-45 -112z" />
    <glyph glyph-name="ecircumflex" unicode="&#xea;" horiz-adv-x="576" 
d="M204 589l1 6l130 136h103l74 -136v-6h-65l-66 92l-100 -92h-77zM250 -8q-115 0 -160 28t-45 97q0 45 20 137q13 62 25 99t32 72.5t49 53.5t72.5 28.5t105.5 10.5q100 0 139.5 -27.5t39.5 -89.5q0 -48 -23 -147l-8 -34h-333q-11 -52 -11 -79q0 -37 27.5 -49t108.5 -12
t161 10l-18 -83q-75 -15 -182 -15zM180 293h231l2 11q9 42 9 67q0 36 -20.5 47.5t-71.5 11.5q-79 0 -105 -25t-45 -112z" />
    <glyph glyph-name="edieresis" unicode="&#xeb;" horiz-adv-x="576" 
d="M216 616l19 91h92l-19 -91h-92zM423 616l20 91h92l-19 -91h-93zM250 -8q-115 0 -160 28t-45 97q0 45 20 137q13 62 25 99t32 72.5t49 53.5t72.5 28.5t105.5 10.5q100 0 139.5 -27.5t39.5 -89.5q0 -48 -23 -147l-8 -34h-333q-11 -52 -11 -79q0 -37 27.5 -49t108.5 -12
t161 10l-18 -83q-75 -15 -182 -15zM180 293h231l2 11q9 42 9 67q0 36 -20.5 47.5t-71.5 11.5q-79 0 -105 -25t-45 -112z" />
    <glyph glyph-name="igrave" unicode="&#xec;" horiz-adv-x="270" 
d="M194 588l-108 138l1 5h105l75 -138l-1 -5h-72zM31 0l108 510h107l-108 -510h-107z" />
    <glyph glyph-name="iacute" unicode="&#xed;" horiz-adv-x="270" 
d="M119 588l1 5l132 138h115l-1 -5l-166 -138h-81zM31 0l108 510h107l-108 -510h-107z" />
    <glyph glyph-name="icircumflex" unicode="&#xee;" horiz-adv-x="270" 
d="M49 589l1 6l130 136h103l74 -136v-6h-65l-66 92l-100 -92h-77zM31 0l108 510h107l-108 -510h-107z" />
    <glyph glyph-name="idieresis" unicode="&#xef;" horiz-adv-x="270" 
d="M62 616l19 91h92l-19 -91h-92zM269 616l20 91h92l-19 -91h-93zM31 0l108 510h107l-108 -510h-107z" />
    <glyph glyph-name="eth" unicode="&#xf0;" horiz-adv-x="594" 
d="M255 -8q-126 0 -171 27t-45 101q0 44 19 134q14 68 24 104.5t27.5 72.5t41.5 51.5t60.5 25t91.5 9.5q88 0 138 -22l6 2q-9 67 -30 114l-136 -21l14 67l87 14q-21 30 -61 68l1 4h116q26 -23 50 -57l120 19l-15 -67l-71 -12q34 -79 34 -171q0 -75 -22 -185
q-10 -49 -16.5 -76.5t-16.5 -60.5t-19 -49.5t-24 -35.5t-32.5 -27t-43 -16t-56 -10.5t-71.5 -2.5zM256 77q35 0 55.5 1.5t38.5 10.5t26.5 17t18 33.5t14.5 46t15 68.5q18 86 18 110q0 38 -24 53.5t-86 15.5q-34 0 -55 -1.5t-39 -11t-26.5 -17.5t-18 -34t-14.5 -46.5
t-15 -68.5q-20 -90 -20 -120q0 -35 23 -46t89 -11z" />
    <glyph glyph-name="ntilde" unicode="&#xf1;" horiz-adv-x="614" 
d="M200 595q14 69 34.5 96.5t72.5 27.5q33 0 103 -22q52 -18 71 -18q20 0 27 10t13 41h60q-14 -69 -34.5 -96.5t-72.5 -27.5q-39 0 -103 22q-53 17 -71 17q-20 0 -26.5 -9.5t-13.5 -40.5h-60zM31 0l108 510h98l-11 -71h7q51 79 172 79q87 0 120.5 -28t33.5 -91
q0 -37 -13 -97l-64 -302h-105l60 284q13 67 13 85q0 37 -20.5 48t-75.5 11q-36 0 -61.5 -8t-41 -20t-27.5 -36t-17.5 -45t-13.5 -58l-57 -261h-105z" />
    <glyph glyph-name="ograve" unicode="&#xf2;" horiz-adv-x="576" 
d="M347 588l-108 138l1 5h105l75 -138l-1 -5h-72zM249 -8q-126 0 -172 25.5t-46 95.5q0 35 21 142q9 46 15.5 73t16 57.5t18.5 46.5t24 34t32 25.5t42.5 15t56 9.5t71.5 2q125 0 170.5 -25.5t45.5 -96.5q0 -49 -20 -141q-11 -49 -16.5 -73t-16 -57t-19 -47.5t-23.5 -33.5
t-31.5 -25.5t-42 -14.5t-55.5 -10t-71 -2zM250 77q29 0 48.5 2.5t35.5 5t27 14t18.5 20.5t14.5 33.5t11.5 43t13.5 59.5q18 88 18 119q0 36 -23 47.5t-88 11.5q-34 0 -55 -1.5t-39 -11t-26.5 -17t-18 -33.5t-14.5 -46.5t-15 -68.5q-19 -95 -19 -120q0 -36 23 -47t88 -11z
" />
    <glyph glyph-name="oacute" unicode="&#xf3;" horiz-adv-x="576" 
d="M272 588l1 5l132 138h115l-1 -5l-166 -138h-81zM249 -8q-126 0 -172 25.5t-46 95.5q0 35 21 142q9 46 15.5 73t16 57.5t18.5 46.5t24 34t32 25.5t42.5 15t56 9.5t71.5 2q125 0 170.5 -25.5t45.5 -96.5q0 -49 -20 -141q-11 -49 -16.5 -73t-16 -57t-19 -47.5t-23.5 -33.5
t-31.5 -25.5t-42 -14.5t-55.5 -10t-71 -2zM250 77q29 0 48.5 2.5t35.5 5t27 14t18.5 20.5t14.5 33.5t11.5 43t13.5 59.5q18 88 18 119q0 36 -23 47.5t-88 11.5q-34 0 -55 -1.5t-39 -11t-26.5 -17t-18 -33.5t-14.5 -46.5t-15 -68.5q-19 -95 -19 -120q0 -36 23 -47t88 -11z
" />
    <glyph glyph-name="ocircumflex" unicode="&#xf4;" horiz-adv-x="576" 
d="M202 589l1 6l130 136h103l74 -136v-6h-65l-66 92l-100 -92h-77zM249 -8q-126 0 -172 25.5t-46 95.5q0 35 21 142q9 46 15.5 73t16 57.5t18.5 46.5t24 34t32 25.5t42.5 15t56 9.5t71.5 2q125 0 170.5 -25.5t45.5 -96.5q0 -49 -20 -141q-11 -49 -16.5 -73t-16 -57
t-19 -47.5t-23.5 -33.5t-31.5 -25.5t-42 -14.5t-55.5 -10t-71 -2zM250 77q29 0 48.5 2.5t35.5 5t27 14t18.5 20.5t14.5 33.5t11.5 43t13.5 59.5q18 88 18 119q0 36 -23 47.5t-88 11.5q-34 0 -55 -1.5t-39 -11t-26.5 -17t-18 -33.5t-14.5 -46.5t-15 -68.5q-19 -95 -19 -120
q0 -36 23 -47t88 -11z" />
    <glyph glyph-name="otilde" unicode="&#xf5;" horiz-adv-x="576" 
d="M178 595q14 69 34.5 96.5t72.5 27.5q33 0 103 -22q52 -18 71 -18q20 0 27 10t13 41h60q-14 -69 -34.5 -96.5t-72.5 -27.5q-39 0 -103 22q-53 17 -71 17q-20 0 -26.5 -9.5t-13.5 -40.5h-60zM249 -8q-126 0 -172 25.5t-46 95.5q0 35 21 142q9 46 15.5 73t16 57.5t18.5 46.5
t24 34t32 25.5t42.5 15t56 9.5t71.5 2q125 0 170.5 -25.5t45.5 -96.5q0 -49 -20 -141q-11 -49 -16.5 -73t-16 -57t-19 -47.5t-23.5 -33.5t-31.5 -25.5t-42 -14.5t-55.5 -10t-71 -2zM250 77q29 0 48.5 2.5t35.5 5t27 14t18.5 20.5t14.5 33.5t11.5 43t13.5 59.5q18 88 18 119
q0 36 -23 47.5t-88 11.5q-34 0 -55 -1.5t-39 -11t-26.5 -17t-18 -33.5t-14.5 -46.5t-15 -68.5q-19 -95 -19 -120q0 -36 23 -47t88 -11z" />
    <glyph glyph-name="odieresis" unicode="&#xf6;" horiz-adv-x="576" 
d="M215 616l19 91h92l-19 -91h-92zM422 616l20 91h92l-19 -91h-93zM249 -8q-126 0 -172 25.5t-46 95.5q0 35 21 142q9 46 15.5 73t16 57.5t18.5 46.5t24 34t32 25.5t42.5 15t56 9.5t71.5 2q125 0 170.5 -25.5t45.5 -96.5q0 -49 -20 -141q-11 -49 -16.5 -73t-16 -57
t-19 -47.5t-23.5 -33.5t-31.5 -25.5t-42 -14.5t-55.5 -10t-71 -2zM250 77q29 0 48.5 2.5t35.5 5t27 14t18.5 20.5t14.5 33.5t11.5 43t13.5 59.5q18 88 18 119q0 36 -23 47.5t-88 11.5q-34 0 -55 -1.5t-39 -11t-26.5 -17t-18 -33.5t-14.5 -46.5t-15 -68.5q-19 -95 -19 -120
q0 -36 23 -47t88 -11z" />
    <glyph glyph-name="divide" unicode="&#xf7;" horiz-adv-x="549" 
d="M267 402l18 85h83l-17 -85h-84zM66 212l17 80h405l-17 -80h-405zM185 18l18 86h84l-18 -86h-84z" />
    <glyph glyph-name="oslash" unicode="&#xf8;" horiz-adv-x="576" 
d="M514 481q30 -26 30 -85q0 -49 -20 -141q-11 -49 -16.5 -73t-16 -57t-19 -47.5t-23.5 -33.5t-31.5 -25.5t-42 -14.5t-55.5 -10t-71 -2q-78 0 -124 9l-46 -56h-86l68 84q-30 25 -30 84q0 35 21 142q9 46 15.5 73t16 57.5t18.5 46.5t24 34t32 25.5t42.5 15t56 9.5t71.5 2
q76 0 123 -9l45 56h86zM139 135v-10l247 305q-22 3 -60 3q-34 0 -55 -1.5t-39 -11t-26.5 -17t-18 -33.5t-14.5 -46.5t-15 -68.5q-19 -95 -19 -120zM419 255q18 88 18 119q0 8 -1 12l-247 -306q24 -3 61 -3q29 0 48.5 2.5t35.5 5t27 14t18.5 20.5t14.5 33.5t11.5 43
t13.5 59.5z" />
    <glyph glyph-name="ugrave" unicode="&#xf9;" horiz-adv-x="597" 
d="M350 588l-108 138l1 5h105l75 -138l-1 -5h-72zM204 -8q-88 0 -121.5 28t-33.5 92q0 37 13 97l64 301h106l-60 -284q-13 -67 -13 -85q0 -37 20 -48t76 -11q36 0 61.5 8t41 20t27 36.5t17 44.5t13.5 58l57 261h106l-109 -510h-98l11 71h-7q-51 -79 -171 -79z" />
    <glyph glyph-name="uacute" unicode="&#xfa;" horiz-adv-x="597" 
d="M275 588l1 5l132 138h115l-1 -5l-166 -138h-81zM204 -8q-88 0 -121.5 28t-33.5 92q0 37 13 97l64 301h106l-60 -284q-13 -67 -13 -85q0 -37 20 -48t76 -11q36 0 61.5 8t41 20t27 36.5t17 44.5t13.5 58l57 261h106l-109 -510h-98l11 71h-7q-51 -79 -171 -79z" />
    <glyph glyph-name="ucircumflex" unicode="&#xfb;" horiz-adv-x="597" 
d="M205 589l1 6l130 136h103l74 -136v-6h-65l-66 92l-100 -92h-77zM204 -8q-88 0 -121.5 28t-33.5 92q0 37 13 97l64 301h106l-60 -284q-13 -67 -13 -85q0 -37 20 -48t76 -11q36 0 61.5 8t41 20t27 36.5t17 44.5t13.5 58l57 261h106l-109 -510h-98l11 71h-7
q-51 -79 -171 -79z" />
    <glyph glyph-name="udieresis" unicode="&#xfc;" horiz-adv-x="597" 
d="M218 616l19 91h92l-19 -91h-92zM425 616l20 91h92l-19 -91h-93zM204 -8q-88 0 -121.5 28t-33.5 92q0 37 13 97l64 301h106l-60 -284q-13 -67 -13 -85q0 -37 20 -48t76 -11q36 0 61.5 8t41 20t27 36.5t17 44.5t13.5 58l57 261h106l-109 -510h-98l11 71h-7
q-51 -79 -171 -79z" />
    <glyph glyph-name="yacute" unicode="&#xfd;" horiz-adv-x="616" 
d="M292 588l1 5l132 138h115l-1 -5l-166 -138h-81zM193 -206q-97 0 -173 9l18 84q95 -4 149 -4t85.5 6t50.5 26t27.5 42.5t18.5 69.5l9 40h-7q-49 -71 -172 -71q-77 0 -108 25t-31 79q0 39 12 93l68 317h106l-59 -275q-14 -65 -14 -93q0 -34 19 -43.5t72 -9.5q40 0 66 9.5
t42.5 32.5t25.5 48.5t18 69.5l56 261h106l-96 -450q-17 -79 -33 -123t-47.5 -80t-81 -49.5t-127.5 -13.5z" />
    <glyph glyph-name="thorn" unicode="&#xfe;" horiz-adv-x="607" 
d="M-9 -200l201 943h102l-66 -304h7q27 47 68 63t100 16q91 0 128.5 -29.5t37.5 -108.5q0 -48 -17 -130q-32 -153 -78.5 -205.5t-149.5 -52.5q-70 0 -111 15.5t-54 55.5h-6l-56 -263h-106zM284 81q45 0 68 4.5t42 25t29 51.5t23 93q16 70 16 108q0 42 -22.5 54.5t-83.5 12.5
q-49 0 -77 -13.5t-46 -43.5q-19 -32 -36.5 -102t-17.5 -111q0 -44 23.5 -61.5t81.5 -17.5z" />
    <glyph glyph-name="ydieresis" unicode="&#xff;" horiz-adv-x="616" 
d="M235 616l19 91h92l-19 -91h-92zM442 616l20 91h92l-19 -91h-93zM193 -206q-97 0 -173 9l18 84q95 -4 149 -4t85.5 6t50.5 26t27.5 42.5t18.5 69.5l9 40h-7q-49 -71 -172 -71q-77 0 -108 25t-31 79q0 39 12 93l68 317h106l-59 -275q-14 -65 -14 -93q0 -34 19 -43.5
t72 -9.5q40 0 66 9.5t42.5 32.5t25.5 48.5t18 69.5l56 261h106l-96 -450q-17 -79 -33 -123t-47.5 -80t-81 -49.5t-127.5 -13.5z" />
    <glyph glyph-name="Amacron" unicode="&#x100;" horiz-adv-x="709" 
d="M304 794l16 71h326l-15 -71h-327zM-29 0l405 688h147l112 -688h-112l-30 172h-303l-103 -172h-116zM237 263h245l-51 316h-6z" />
    <glyph glyph-name="amacron" unicode="&#x101;" horiz-adv-x="590" 
d="M209 616l16 71h326l-15 -71h-327zM205 -8q-90 0 -128 30t-38 108q0 43 18 130q32 153 78 205.5t149 52.5q70 0 111 -15.5t54 -55.5h7l20 63h99l-108 -510h-98l11 71h-6q-27 -47 -68.5 -63t-100.5 -16zM253 80q90 0 122 57q19 32 37 103t18 110q0 44 -24 61.5t-82 17.5
q-83 0 -110 -29t-52 -145q-16 -77 -16 -108q0 -42 22.5 -54.5t84.5 -12.5z" />
    <glyph glyph-name="Abreve" unicode="&#x102;" horiz-adv-x="709" 
d="M463 763q-68 0 -95 20t-27 60q0 24 10 66h63q-6 -34 -6 -43q0 -21 14 -30.5t52 -9.5q28 0 45.5 5t27.5 17.5t14 24.5t9 36h66q-15 -75 -49 -110.5t-124 -35.5zM-29 0l405 688h147l112 -688h-112l-30 172h-303l-103 -172h-116zM237 263h245l-51 316h-6z" />
    <glyph glyph-name="abreve" unicode="&#x103;" horiz-adv-x="590" 
d="M368 585q-68 0 -95 20t-27 60q0 24 10 66h63q-6 -34 -6 -43q0 -21 14 -30.5t52 -9.5q28 0 45.5 5t27.5 17.5t14 24.5t9 36h66q-15 -75 -49 -110.5t-124 -35.5zM205 -8q-90 0 -128 30t-38 108q0 43 18 130q32 153 78 205.5t149 52.5q70 0 111 -15.5t54 -55.5h7l20 63h99
l-108 -510h-98l11 71h-6q-27 -47 -68.5 -63t-100.5 -16zM253 80q90 0 122 57q19 32 37 103t18 110q0 44 -24 61.5t-82 17.5q-83 0 -110 -29t-52 -145q-16 -77 -16 -108q0 -42 22.5 -54.5t84.5 -12.5z" />
    <glyph glyph-name="Aogonek" unicode="&#x104;" horiz-adv-x="709" 
d="M548 -110q0 -27 41 -27q9 0 18 1l-13 -62q-16 -2 -49 -2q-91 0 -91 65q0 73 88 135h-19l-30 172h-303l-103 -172h-116l405 688h147l112 -688q-31 -20 -59 -52.5t-28 -57.5zM237 263h245l-51 316h-6z" />
    <glyph glyph-name="aogonek" unicode="&#x105;" horiz-adv-x="590" 
d="M467 0q-31 -20 -59 -52.5t-28 -57.5q0 -27 41 -27q9 0 18 1l-13 -62q-16 -2 -49 -2q-91 0 -91 65q0 73 88 135h-5l11 71h-6q-27 -47 -68.5 -63t-100.5 -16q-90 0 -128 30t-38 108q0 43 18 130q32 153 78 205.5t149 52.5q70 0 111 -15.5t54 -55.5h7l20 63h99zM375 137
q19 32 37 103t18 110q0 44 -24 61.5t-82 17.5q-83 0 -110 -29t-52 -145q-16 -77 -16 -108q0 -42 22.5 -54.5t84.5 -12.5q90 0 122 57z" />
    <glyph glyph-name="Cacute" unicode="&#x106;" horiz-adv-x="590" 
d="M361 767v5l103 137h108v-5l-137 -137h-74zM310 -8q-140 0 -196 34t-56 131q0 71 26 187q18 81 32.5 131t35.5 93t43 65t58 38t78.5 20.5t106.5 4.5q99 0 180 -15l-19 -87q-92 10 -140 10q-53 0 -83 -2t-58.5 -13t-42.5 -24.5t-29 -47.5t-24 -70t-23 -103
q-26 -122 -26 -167q0 -59 36 -76t140 -17q78 0 148 10l-19 -90q-75 -12 -168 -12z" />
    <glyph glyph-name="cacute" unicode="&#x107;" horiz-adv-x="476" 
d="M243 588l1 5l132 138h115l-1 -5l-166 -138h-81zM236 -8q-108 0 -151.5 32.5t-43.5 103.5q0 53 20 139q12 58 23.5 93.5t30 69t44 51t64 27.5t92.5 10q87 0 161 -14l-17 -81q-62 10 -118 10q-89 0 -119.5 -33t-54.5 -145q-17 -71 -17 -106q0 -43 25.5 -57.5t91.5 -14.5
q52 0 124 10l-17 -80q-69 -15 -138 -15z" />
    <glyph glyph-name="Ccircumflex" unicode="&#x108;" horiz-adv-x="590" 
d="M273 767v6l130 136h103l75 -136l-1 -6h-65l-66 92l-100 -92h-76zM310 -8q-140 0 -196 34t-56 131q0 71 26 187q18 81 32.5 131t35.5 93t43 65t58 38t78.5 20.5t106.5 4.5q99 0 180 -15l-19 -87q-92 10 -140 10q-53 0 -83 -2t-58.5 -13t-42.5 -24.5t-29 -47.5t-24 -70
t-23 -103q-26 -122 -26 -167q0 -59 36 -76t140 -17q78 0 148 10l-19 -90q-75 -12 -168 -12z" />
    <glyph glyph-name="ccircumflex" unicode="&#x109;" horiz-adv-x="476" 
d="M173 589l1 6l130 136h103l74 -136v-6h-65l-66 92l-100 -92h-77zM236 -8q-108 0 -151.5 32.5t-43.5 103.5q0 53 20 139q12 58 23.5 93.5t30 69t44 51t64 27.5t92.5 10q87 0 161 -14l-17 -81q-62 10 -118 10q-89 0 -119.5 -33t-54.5 -145q-17 -71 -17 -106
q0 -43 25.5 -57.5t91.5 -14.5q52 0 124 10l-17 -80q-69 -15 -138 -15z" />
    <glyph glyph-name="Cdotaccent" unicode="&#x10a;" horiz-adv-x="590" 
d="M392 794l19 91h92l-18 -91h-93zM310 -8q-140 0 -196 34t-56 131q0 71 26 187q18 81 32.5 131t35.5 93t43 65t58 38t78.5 20.5t106.5 4.5q99 0 180 -15l-19 -87q-92 10 -140 10q-53 0 -83 -2t-58.5 -13t-42.5 -24.5t-29 -47.5t-24 -70t-23 -103q-26 -122 -26 -167
q0 -59 36 -76t140 -17q78 0 148 10l-19 -90q-75 -12 -168 -12z" />
    <glyph glyph-name="cdotaccent" unicode="&#x10b;" horiz-adv-x="476" 
d="M289 616l19 91h92l-18 -91h-93zM236 -8q-108 0 -151.5 32.5t-43.5 103.5q0 53 20 139q12 58 23.5 93.5t30 69t44 51t64 27.5t92.5 10q87 0 161 -14l-17 -81q-62 10 -118 10q-89 0 -119.5 -33t-54.5 -145q-17 -71 -17 -106q0 -43 25.5 -57.5t91.5 -14.5q52 0 124 10
l-17 -80q-69 -15 -138 -15z" />
    <glyph glyph-name="Ccaron" unicode="&#x10c;" horiz-adv-x="590" 
d="M379 767l-74 136l2 6h67l64 -95l97 95h79l-1 -6l-127 -136h-107zM310 -8q-140 0 -196 34t-56 131q0 71 26 187q18 81 32.5 131t35.5 93t43 65t58 38t78.5 20.5t106.5 4.5q99 0 180 -15l-19 -87q-92 10 -140 10q-53 0 -83 -2t-58.5 -13t-42.5 -24.5t-29 -47.5t-24 -70
t-23 -103q-26 -122 -26 -167q0 -59 36 -76t140 -17q78 0 148 10l-19 -90q-75 -12 -168 -12z" />
    <glyph glyph-name="ccaron" unicode="&#x10d;" horiz-adv-x="476" 
d="M280 589l-74 136l2 6h67l64 -95l97 95h79l-1 -6l-127 -136h-107zM236 -8q-108 0 -151.5 32.5t-43.5 103.5q0 53 20 139q12 58 23.5 93.5t30 69t44 51t64 27.5t92.5 10q87 0 161 -14l-17 -81q-62 10 -118 10q-89 0 -119.5 -33t-54.5 -145q-17 -71 -17 -106
q0 -43 25.5 -57.5t91.5 -14.5q52 0 124 10l-17 -80q-69 -15 -138 -15z" />
    <glyph glyph-name="Dcaron" unicode="&#x10e;" horiz-adv-x="707" 
d="M409 767l-74 136l2 6h67l64 -95l97 95h79l-1 -6l-127 -136h-107zM44 0l147 688h217q162 0 220 -30.5t58 -122.5q0 -54 -28 -194q-14 -64 -22.5 -99t-21.5 -76.5t-24.5 -61t-31.5 -42.5t-41 -31.5t-55 -17.5t-72.5 -11t-92.5 -2h-253zM178 92h105h66t50 5t39.5 9.5
t28 19.5t23 29t17.5 45.5t18 61t18 82.5q27 124 27 170q0 56 -35.5 69t-144.5 13h-105z" />
    <glyph glyph-name="dcaron" unicode="&#x10f;" horiz-adv-x="607" 
d="M207 -8q-91 0 -128 29.5t-37 108.5q0 55 17 130q32 153 78.5 205.5t149.5 52.5q69 0 110 -15.5t55 -55.5h6l63 296h106l-158 -743h-98l11 71h-7q-26 -47 -67 -63t-101 -16zM594 440l59 177l18 71h90l-18 -71l-84 -177h-65zM255 80q90 0 122 57q19 32 37 102.5t18 110.5
q0 44 -24 61.5t-82 17.5q-83 0 -109.5 -29t-51.5 -145q-16 -70 -16 -108q0 -42 22.5 -54.5t83.5 -12.5z" />
    <glyph glyph-name="Dcroat" unicode="&#x110;" horiz-adv-x="707" 
d="M408 688q162 0 220 -30.5t58 -122.5q0 -54 -28 -194q-14 -64 -22.5 -99t-21.5 -76.5t-24.5 -61t-31.5 -42.5t-41 -31.5t-55 -17.5t-72.5 -11t-92.5 -2h-253l66 308h-70l18 82h69l64 298h217zM543 344q27 124 27 170q0 56 -35.5 69t-144.5 13h-105l-44 -206h106l-17 -82
h-106l-46 -216h105h66t50 5t39.5 9.5t28 19.5t23 29t17.5 45.5t18 61t18 82.5z" />
    <glyph glyph-name="dcroat" unicode="&#x111;" horiz-adv-x="607" 
d="M683 688l-19 -87h-67l-128 -601h-98l11 71h-7q-26 -47 -67 -63t-101 -16q-91 0 -128 29.5t-37 108.5q0 55 17 130q32 153 78.5 205.5t149.5 52.5q69 0 110 -15.5t55 -55.5h6l33 154h-127l18 87h127l12 55h106l-12 -55h68zM377 137q19 32 37 102.5t18 110.5q0 44 -24 61.5
t-82 17.5q-83 0 -109.5 -29t-51.5 -145q-16 -70 -16 -108q0 -42 22.5 -54.5t83.5 -12.5q90 0 122 57z" />
    <glyph glyph-name="Emacron" unicode="&#x112;" horiz-adv-x="621" 
d="M276 794l16 71h326l-15 -71h-327zM44 0l147 688h474l-20 -92h-360l-44 -203h311l-19 -91h-310l-46 -210h361l-20 -92h-474z" />
    <glyph glyph-name="emacron" unicode="&#x113;" horiz-adv-x="576" 
d="M203 616l16 71h326l-15 -71h-327zM250 -8q-115 0 -160 28t-45 97q0 45 20 137q13 62 25 99t32 72.5t49 53.5t72.5 28.5t105.5 10.5q100 0 139.5 -27.5t39.5 -89.5q0 -48 -23 -147l-8 -34h-333q-11 -52 -11 -79q0 -37 27.5 -49t108.5 -12t161 10l-18 -83q-75 -15 -182 -15
zM180 293h231l2 11q9 42 9 67q0 36 -20.5 47.5t-71.5 11.5q-79 0 -105 -25t-45 -112z" />
    <glyph glyph-name="Ebreve" unicode="&#x114;" horiz-adv-x="621" 
d="M436 763q-68 0 -95 20t-27 60q0 24 10 66h63q-6 -34 -6 -43q0 -21 14 -30.5t52 -9.5q28 0 45.5 5t27.5 17.5t14 24.5t9 36h66q-15 -75 -49 -110.5t-124 -35.5zM44 0l147 688h474l-20 -92h-360l-44 -203h311l-19 -91h-310l-46 -210h361l-20 -92h-474z" />
    <glyph glyph-name="ebreve" unicode="&#x115;" horiz-adv-x="576" 
d="M362 585q-68 0 -95 20t-27 60q0 24 10 66h63q-6 -34 -6 -43q0 -21 14 -30.5t52 -9.5q28 0 45.5 5t27.5 17.5t14 24.5t9 36h66q-15 -75 -49 -110.5t-124 -35.5zM250 -8q-115 0 -160 28t-45 97q0 45 20 137q13 62 25 99t32 72.5t49 53.5t72.5 28.5t105.5 10.5
q100 0 139.5 -27.5t39.5 -89.5q0 -48 -23 -147l-8 -34h-333q-11 -52 -11 -79q0 -37 27.5 -49t108.5 -12t161 10l-18 -83q-75 -15 -182 -15zM180 293h231l2 11q9 42 9 67q0 36 -20.5 47.5t-71.5 11.5q-79 0 -105 -25t-45 -112z" />
    <glyph glyph-name="Edotaccent" unicode="&#x116;" horiz-adv-x="621" 
d="M398 794l19 91h92l-18 -91h-93zM44 0l147 688h474l-20 -92h-360l-44 -203h311l-19 -91h-310l-46 -210h361l-20 -92h-474z" />
    <glyph glyph-name="edotaccent" unicode="&#x117;" horiz-adv-x="576" 
d="M319 616l19 91h92l-18 -91h-93zM250 -8q-115 0 -160 28t-45 97q0 45 20 137q13 62 25 99t32 72.5t49 53.5t72.5 28.5t105.5 10.5q100 0 139.5 -27.5t39.5 -89.5q0 -48 -23 -147l-8 -34h-333q-11 -52 -11 -79q0 -37 27.5 -49t108.5 -12t161 10l-18 -83q-75 -15 -182 -15z
M180 293h231l2 11q9 42 9 67q0 36 -20.5 47.5t-71.5 11.5q-79 0 -105 -25t-45 -112z" />
    <glyph glyph-name="Eogonek" unicode="&#x118;" horiz-adv-x="621" 
d="M645 596h-360l-44 -203h311l-19 -91h-310l-46 -210h361l-20 -92q-31 -20 -59 -52.5t-28 -57.5q0 -27 41 -27q9 0 18 1l-13 -62q-16 -2 -49 -2q-91 0 -91 65q0 73 88 135h-381l147 688h474z" />
    <glyph glyph-name="eogonek" unicode="&#x119;" horiz-adv-x="576" 
d="M349 518q100 0 139.5 -27.5t39.5 -89.5q0 -48 -23 -147l-8 -34h-333q-11 -52 -11 -79q0 -37 27.5 -49t108.5 -12t161 10l-18 -83q-31 -20 -59 -52.5t-28 -57.5q0 -27 41 -27q9 0 18 1l-13 -62q-16 -2 -49 -2q-91 0 -91 65q0 66 71 122q-48 -2 -72 -2q-115 0 -160 28
t-45 97q0 45 20 137q13 62 25 99t32 72.5t49 53.5t72.5 28.5t105.5 10.5zM413 304q9 42 9 67q0 36 -20.5 47.5t-71.5 11.5q-79 0 -105 -25t-45 -112h231z" />
    <glyph glyph-name="Ecaron" unicode="&#x11a;" horiz-adv-x="621" 
d="M385 767l-74 136l2 6h67l64 -95l97 95h79l-1 -6l-127 -136h-107zM44 0l147 688h474l-20 -92h-360l-44 -203h311l-19 -91h-310l-46 -210h361l-20 -92h-474z" />
    <glyph glyph-name="ecaron" unicode="&#x11b;" horiz-adv-x="576" 
d="M311 589l-74 136l2 6h67l64 -95l97 95h79l-1 -6l-127 -136h-107zM250 -8q-115 0 -160 28t-45 97q0 45 20 137q13 62 25 99t32 72.5t49 53.5t72.5 28.5t105.5 10.5q100 0 139.5 -27.5t39.5 -89.5q0 -48 -23 -147l-8 -34h-333q-11 -52 -11 -79q0 -37 27.5 -49t108.5 -12
t161 10l-18 -83q-75 -15 -182 -15zM180 293h231l2 11q9 42 9 67q0 36 -20.5 47.5t-71.5 11.5q-79 0 -105 -25t-45 -112z" />
    <glyph glyph-name="Gcircumflex" unicode="&#x11c;" horiz-adv-x="693" 
d="M295 767v6l130 136h103l75 -136l-1 -6h-65l-66 92l-100 -92h-76zM328 -8q-149 0 -210 38t-61 142q0 63 26 175q24 114 48 177.5t66.5 104.5t99 54t152.5 13q127 0 239 -21l-18 -87q-110 16 -179 16q-47 0 -70 -0.5t-55 -4t-45.5 -9.5t-33.5 -19.5t-29 -31t-22 -46.5
t-21.5 -64t-18.5 -85q-24 -105 -24 -160q0 -61 35.5 -81.5t127.5 -20.5q62 0 126 8l43 200h-146l19 87h252l-78 -365q-115 -20 -223 -20z" />
    <glyph glyph-name="gcircumflex" unicode="&#x11d;" horiz-adv-x="606" 
d="M212 589l1 6l130 136h103l74 -136v-6h-65l-66 92l-100 -92h-77zM187 -206q-102 0 -176 10l17 83q84 -4 151 -4q56 0 87 5.5t52 24.5t30 44t20 75q1 5 4 17.5t4 16.5h-6q-48 -70 -168 -70q-78 0 -112 27.5t-34 97.5q0 51 17 134q32 152 83 207.5t154 55.5q121 0 144 -74h6
l19 66h97l-95 -447q-11 -53 -20.5 -87t-25 -67.5t-35.5 -52.5t-49.5 -34.5t-69.5 -21.5t-94 -6zM263 89q74 0 108 41q20 25 39 100t19 122q0 39 -23 55.5t-73 16.5q-42 0 -64 -4.5t-39.5 -24t-27.5 -49.5t-22 -90q-16 -77 -16 -107q0 -37 21 -48.5t78 -11.5z" />
    <glyph glyph-name="Gbreve" unicode="&#x11e;" horiz-adv-x="693" 
d="M452 763q-68 0 -95 20t-27 60q0 24 10 66h63q-6 -34 -6 -43q0 -21 14 -30.5t52 -9.5q28 0 45.5 5t27.5 17.5t14 24.5t9 36h66q-15 -75 -49 -110.5t-124 -35.5zM328 -8q-149 0 -210 38t-61 142q0 63 26 175q24 114 48 177.5t66.5 104.5t99 54t152.5 13q127 0 239 -21
l-18 -87q-110 16 -179 16q-47 0 -70 -0.5t-55 -4t-45.5 -9.5t-33.5 -19.5t-29 -31t-22 -46.5t-21.5 -64t-18.5 -85q-24 -105 -24 -160q0 -61 35.5 -81.5t127.5 -20.5q62 0 126 8l43 200h-146l19 87h252l-78 -365q-115 -20 -223 -20z" />
    <glyph glyph-name="gbreve" unicode="&#x11f;" horiz-adv-x="606" 
d="M371 585q-68 0 -95 20t-27 60q0 24 10 66h63q-6 -34 -6 -43q0 -21 14 -30.5t52 -9.5q28 0 45.5 5t27.5 17.5t14 24.5t9 36h66q-15 -75 -49 -110.5t-124 -35.5zM187 -206q-102 0 -176 10l17 83q84 -4 151 -4q56 0 87 5.5t52 24.5t30 44t20 75q1 5 4 17.5t4 16.5h-6
q-48 -70 -168 -70q-78 0 -112 27.5t-34 97.5q0 51 17 134q32 152 83 207.5t154 55.5q121 0 144 -74h6l19 66h97l-95 -447q-11 -53 -20.5 -87t-25 -67.5t-35.5 -52.5t-49.5 -34.5t-69.5 -21.5t-94 -6zM263 89q74 0 108 41q20 25 39 100t19 122q0 39 -23 55.5t-73 16.5
q-42 0 -64 -4.5t-39.5 -24t-27.5 -49.5t-22 -90q-16 -77 -16 -107q0 -37 21 -48.5t78 -11.5z" />
    <glyph glyph-name="Gdotaccent" unicode="&#x120;" horiz-adv-x="693" 
d="M414 794l19 91h92l-18 -91h-93zM328 -8q-149 0 -210 38t-61 142q0 63 26 175q24 114 48 177.5t66.5 104.5t99 54t152.5 13q127 0 239 -21l-18 -87q-110 16 -179 16q-47 0 -70 -0.5t-55 -4t-45.5 -9.5t-33.5 -19.5t-29 -31t-22 -46.5t-21.5 -64t-18.5 -85
q-24 -105 -24 -160q0 -61 35.5 -81.5t127.5 -20.5q62 0 126 8l43 200h-146l19 87h252l-78 -365q-115 -20 -223 -20z" />
    <glyph glyph-name="gdotaccent" unicode="&#x121;" horiz-adv-x="606" 
d="M328 616l19 91h92l-18 -91h-93zM187 -206q-102 0 -176 10l17 83q84 -4 151 -4q56 0 87 5.5t52 24.5t30 44t20 75q1 5 4 17.5t4 16.5h-6q-48 -70 -168 -70q-78 0 -112 27.5t-34 97.5q0 51 17 134q32 152 83 207.5t154 55.5q121 0 144 -74h6l19 66h97l-95 -447
q-11 -53 -20.5 -87t-25 -67.5t-35.5 -52.5t-49.5 -34.5t-69.5 -21.5t-94 -6zM263 89q74 0 108 41q20 25 39 100t19 122q0 39 -23 55.5t-73 16.5q-42 0 -64 -4.5t-39.5 -24t-27.5 -49.5t-22 -90q-16 -77 -16 -107q0 -37 21 -48.5t78 -11.5z" />
    <glyph glyph-name="uni0122" unicode="&#x122;" horiz-adv-x="693" 
d="M328 -8q-149 0 -210 38t-61 142q0 63 26 175q24 114 48 177.5t66.5 104.5t99 54t152.5 13q127 0 239 -21l-18 -87q-110 16 -179 16q-47 0 -70 -0.5t-55 -4t-45.5 -9.5t-33.5 -19.5t-29 -31t-22 -46.5t-21.5 -64t-18.5 -85q-24 -105 -24 -160q0 -61 35.5 -81.5
t127.5 -20.5q62 0 126 8l43 200h-146l19 87h252l-78 -365q-115 -20 -223 -20zM183 -282l9 46q35 0 47.5 7.5t18.5 32.5l4 17h-46l20 89h107l-13 -61q-17 -81 -43.5 -106t-103.5 -25z" />
    <glyph glyph-name="uni0123" unicode="&#x123;" horiz-adv-x="606" 
d="M312 589l17 80q16 76 45 100t112 24l-9 -44q-39 0 -52.5 -9.5t-19.5 -38.5l-3 -15h42l-21 -97h-111zM187 -206q-102 0 -176 10l17 83q84 -4 151 -4q56 0 87 5.5t52 24.5t30 44t20 75q1 5 4 17.5t4 16.5h-6q-48 -70 -168 -70q-78 0 -112 27.5t-34 97.5q0 51 17 134
q32 152 83 207.5t154 55.5q121 0 144 -74h6l19 66h97l-95 -447q-11 -53 -20.5 -87t-25 -67.5t-35.5 -52.5t-49.5 -34.5t-69.5 -21.5t-94 -6zM263 89q74 0 108 41q20 25 39 100t19 122q0 39 -23 55.5t-73 16.5q-42 0 -64 -4.5t-39.5 -24t-27.5 -49.5t-22 -90
q-16 -77 -16 -107q0 -37 21 -48.5t78 -11.5z" />
    <glyph glyph-name="Hcircumflex" unicode="&#x124;" horiz-adv-x="748" 
d="M323 767v6l130 136h103l75 -136l-1 -6h-65l-66 92l-100 -92h-76zM44 0l147 688h113l-62 -292h333l62 292h114l-147 -688h-114l63 297h-332l-64 -297h-113z" />
    <glyph glyph-name="hcircumflex" unicode="&#x125;" horiz-adv-x="614" 
d="M90 767l1 6l130 136h103l74 -136v-6h-65l-66 92l-100 -92h-77zM31 0l157 743h106l-63 -297h6q51 72 167 72q88 0 121.5 -28t33.5 -91q0 -37 -13 -97l-64 -302h-105l60 284q13 67 13 85q0 37 -20.5 48t-75.5 11q-44 0 -72.5 -10.5t-45.5 -35.5t-25.5 -50t-17.5 -71
l-57 -261h-105z" />
    <glyph glyph-name="Hbar" unicode="&#x126;" horiz-adv-x="748" 
d="M44 0l146 688h113l-26 -126h333l26 126h114l-146 -688h-114l56 265h-333l-56 -265h-113zM235 364h332l25 117h-332z" />
    <glyph glyph-name="hbar" unicode="&#x127;" horiz-adv-x="614" 
d="M404 518q88 0 121.5 -28t33.5 -91q0 -37 -13 -97l-64 -302h-105l60 284q13 67 13 85q0 37 -20.5 48t-75.5 11q-44 0 -72.5 -10.5t-45.5 -35.5t-25.5 -50t-17.5 -71l-57 -261h-105l127 601h-66l18 87h66l12 55h106l-12 -55h140l-19 -87h-139l-33 -155h6q51 72 167 72z" />
    <glyph glyph-name="Itilde" unicode="&#x128;" horiz-adv-x="302" 
d="M69 773q14 69 34.5 96.5t72.5 27.5q33 0 103 -22q52 -18 71 -18q20 0 27 10t13 41h60q-14 -69 -34.5 -96.5t-72.5 -27.5q-37 0 -103 22q-53 17 -71 17q-19 0 -26 -9.5t-14 -40.5h-60zM44 0l147 688h113l-147 -688h-113z" />
    <glyph glyph-name="itilde" unicode="&#x129;" horiz-adv-x="270" 
d="M25 595q14 69 34.5 96.5t72.5 27.5q33 0 103 -22q52 -18 71 -18q20 0 27 10t13 41h60q-14 -69 -34.5 -96.5t-72.5 -27.5q-39 0 -103 22q-53 17 -71 17q-20 0 -26.5 -9.5t-13.5 -40.5h-60zM31 0l108 510h107l-108 -510h-107z" />
    <glyph glyph-name="Imacron" unicode="&#x12a;" horiz-adv-x="302" 
d="M98 794l16 71h326l-15 -71h-327zM44 0l147 688h113l-147 -688h-113z" />
    <glyph glyph-name="imacron" unicode="&#x12b;" horiz-adv-x="270" 
d="M49 616l16 71h326l-15 -71h-327zM31 0l108 510h107l-108 -510h-107z" />
    <glyph glyph-name="Ibreve" unicode="&#x12c;" horiz-adv-x="302" 
d="M257 763q-68 0 -95 20t-27 60q0 24 10 66h63q-6 -34 -6 -43q0 -21 14 -30.5t52 -9.5q28 0 45.5 5t27.5 17.5t14 24.5t9 36h66q-15 -75 -49 -110.5t-124 -35.5zM44 0l147 688h113l-147 -688h-113z" />
    <glyph glyph-name="ibreve" unicode="&#x12d;" horiz-adv-x="270" 
d="M208 585q-68 0 -95 20t-27 60q0 24 10 66h63q-6 -34 -6 -43q0 -21 14 -30.5t52 -9.5q28 0 45.5 5t27.5 17.5t14 24.5t9 36h66q-15 -75 -49 -110.5t-124 -35.5zM31 0l108 510h107l-108 -510h-107z" />
    <glyph glyph-name="Iogonek" unicode="&#x12e;" horiz-adv-x="302" 
d="M158 0q-31 -20 -59 -52.5t-28 -57.5q0 -27 41 -27q9 0 18 1l-13 -62q-16 -2 -49 -2q-91 0 -91 65q0 73 88 135h-21l147 688h113l-147 -688h1z" />
    <glyph glyph-name="iogonek" unicode="&#x12f;" horiz-adv-x="270" 
d="M186 743h111l-21 -101h-111zM31 0l108 510h107l-108 -510q-31 -20 -59 -52.5t-28 -57.5q0 -27 41 -27q9 0 18 1l-13 -62q-16 -2 -49 -2q-91 0 -91 65q0 73 88 135h-14z" />
    <glyph glyph-name="Idotaccent" unicode="&#x130;" horiz-adv-x="302" 
d="M219 794l19 91h92l-18 -91h-93zM44 0l147 688h113l-147 -688h-113z" />
    <glyph glyph-name="dotlessi" unicode="&#x131;" horiz-adv-x="270" 
d="M31 0l108 510h107l-108 -510h-107z" />
    <glyph glyph-name="IJ" unicode="&#x132;" horiz-adv-x="680" 
d="M44 0l147 688h113l-147 -688h-113zM278 0l20 88q41 1 60.5 1.5t41.5 8t29.5 14.5t18.5 30t15.5 44.5t14.5 68.5l92 433h115l-88 -413q-12 -59 -18.5 -89t-19.5 -65.5t-20 -50t-27 -32t-35 -22t-49.5 -10t-64.5 -6t-85 -0.5z" />
    <glyph glyph-name="ij" unicode="&#x133;" horiz-adv-x="543" 
d="M165 642l21 101h111l-21 -101h-111zM437 642l21 101h112l-22 -101h-111zM31 0l108 510h107l-108 -510h-107zM167 -200l17 78q63 0 80.5 10.5t24.5 44.5l123 577h107l-118 -555q-8 -39 -16 -64t-22.5 -43t-27.5 -27t-41.5 -14t-53 -6t-73.5 -1z" />
    <glyph glyph-name="Jcircumflex" unicode="&#x134;" horiz-adv-x="378" 
d="M180 767v6l130 136h103l75 -136l-1 -6h-65l-66 92l-100 -92h-76zM-24 0l20 88q41 1 60.5 1.5t41.5 8t29.5 14.5t18.5 30t15.5 44.5t14.5 68.5l92 433h115l-88 -413q-12 -59 -18.5 -89t-19.5 -65.5t-20 -50t-27 -32t-35 -22t-49.5 -10t-64.5 -6t-85 -0.5z" />
    <glyph glyph-name="jcircumflex" unicode="&#x135;" horiz-adv-x="270" 
d="M49 589l1 6l130 136h103l74 -136v-6h-65l-66 92l-100 -92h-77zM-103 -200l17 78q63 0 80.5 10.5t24.5 44.5l123 577h107l-118 -555q-8 -39 -16 -64t-22.5 -43t-27.5 -27t-41.5 -14t-53 -6t-73.5 -1z" />
    <glyph glyph-name="uni0136" unicode="&#x136;" horiz-adv-x="698" 
d="M44 0l147 688h113l-62 -293h109l287 293h131l-338 -342l194 -346h-124l-169 304h-109l-66 -304h-113zM175 -282l9 46q35 0 47.5 7.5t18.5 32.5l4 17h-46l20 89h107l-13 -61q-17 -81 -43.5 -106t-103.5 -25z" />
    <glyph glyph-name="uni0137" unicode="&#x137;" horiz-adv-x="570" 
d="M31 0l157 743h106l-95 -444h57l215 211h123l-261 -254l157 -256h-118l-132 216h-58l-45 -216h-106zM114 -279l10 46q38 0 52 8.5t20 35.5l4 17h-47l23 110h115l-18 -83q-17 -83 -45.5 -108.5t-113.5 -25.5z" />
    <glyph glyph-name="kgreenlandic" unicode="&#x138;" horiz-adv-x="566" 
d="M27 0l116 510h106l-48 -211h57l218 211h123l-265 -254l152 -256h-117l-130 216h-58l-48 -216h-106z" />
    <glyph glyph-name="Lacute" unicode="&#x139;" horiz-adv-x="552" 
d="M193 767v5l103 137h108v-5l-137 -137h-74zM44 0l147 688h113l-125 -591h317l-21 -97h-431z" />
    <glyph glyph-name="lacute" unicode="&#x13a;" horiz-adv-x="265" 
d="M177 775v5l103 137h108v-5l-136 -137h-75zM31 0l157 743h107l-157 -743h-107z" />
    <glyph glyph-name="uni013B" unicode="&#x13b;" horiz-adv-x="552" 
d="M44 0l147 688h113l-125 -591h317l-21 -97h-431zM151 -282l9 46q35 0 47.5 7.5t18.5 32.5l4 17h-46l20 89h107l-13 -61q-17 -81 -43.5 -106t-103.5 -25z" />
    <glyph glyph-name="uni013C" unicode="&#x13c;" horiz-adv-x="265" 
d="M31 0l157 743h107l-157 -743h-107zM-46 -279l10 46q38 0 52 8.5t20 35.5l4 17h-47l23 110h115l-18 -83q-17 -83 -45.5 -108.5t-113.5 -25.5z" />
    <glyph glyph-name="Lcaron" unicode="&#x13d;" horiz-adv-x="552" 
d="M44 0l147 688h113l-125 -591h317l-21 -97h-431zM379 440l59 177l18 71h90l-18 -71l-84 -177h-65z" />
    <glyph glyph-name="lcaron" unicode="&#x13e;" horiz-adv-x="265" 
d="M31 0l157 743h107l-157 -743h-107zM263 440l59 177l18 71h90l-18 -71l-84 -177h-65z" />
    <glyph glyph-name="Ldot" unicode="&#x13f;" horiz-adv-x="556" 
d="M44 0l147 688h113l-125 -591h317l-21 -97h-431zM386 324l24 112h120l-24 -112h-120z" />
    <glyph glyph-name="ldot" unicode="&#x140;" horiz-adv-x="309" 
d="M31 0l157 743h107l-157 -743h-107zM231 242l24 115h119l-24 -115h-119z" />
    <glyph glyph-name="Lslash" unicode="&#x141;" horiz-adv-x="556" 
d="M179 97h317l-21 -97h-431l61 284l-70 -24l19 82l68 23l69 323h113l-59 -281l202 69l-19 -81l-201 -69z" />
    <glyph glyph-name="lslash" unicode="&#x142;" horiz-adv-x="282" 
d="M35 0l67 314l-67 -22l17 81l68 22l73 348h109l-66 -310l68 24l-17 -82l-68 -22l-75 -353h-109z" />
    <glyph glyph-name="Nacute" unicode="&#x143;" horiz-adv-x="749" 
d="M412 767v5l103 137h108v-5l-137 -137h-74zM44 0l147 688h116l225 -487h6l105 487h109l-147 -688h-107l-230 507h-7l-108 -507h-109z" />
    <glyph glyph-name="nacute" unicode="&#x144;" horiz-adv-x="614" 
d="M294 588l1 5l132 138h115l-1 -5l-166 -138h-81zM31 0l108 510h98l-11 -71h7q51 79 172 79q87 0 120.5 -28t33.5 -91q0 -37 -13 -97l-64 -302h-105l60 284q13 67 13 85q0 37 -20.5 48t-75.5 11q-36 0 -61.5 -8t-41 -20t-27.5 -36t-17.5 -45t-13.5 -58l-57 -261h-105z" />
    <glyph glyph-name="uni0145" unicode="&#x145;" horiz-adv-x="749" 
d="M44 0l147 688h116l225 -487h6l105 487h109l-147 -688h-107l-230 507h-7l-108 -507h-109zM200 -282l9 46q35 0 47.5 7.5t18.5 32.5l4 17h-46l20 89h107l-13 -61q-17 -81 -43.5 -106t-103.5 -25z" />
    <glyph glyph-name="uni0146" unicode="&#x146;" horiz-adv-x="614" 
d="M31 0l108 510h98l-11 -71h7q51 79 172 79q87 0 120.5 -28t33.5 -91q0 -37 -13 -97l-64 -302h-105l60 284q13 67 13 85q0 37 -20.5 48t-75.5 11q-36 0 -61.5 -8t-41 -20t-27.5 -36t-17.5 -45t-13.5 -58l-57 -261h-105zM132 -279l10 46q38 0 52 8.5t20 35.5l4 17h-47
l23 110h115l-18 -83q-17 -83 -45.5 -108.5t-113.5 -25.5z" />
    <glyph glyph-name="Ncaron" unicode="&#x147;" horiz-adv-x="749" 
d="M430 767l-74 136l2 6h67l64 -95l97 95h79l-1 -6l-127 -136h-107zM44 0l147 688h116l225 -487h6l105 487h109l-147 -688h-107l-230 507h-7l-108 -507h-109z" />
    <glyph glyph-name="ncaron" unicode="&#x148;" horiz-adv-x="614" 
d="M331 589l-74 136l2 6h67l64 -95l97 95h79l-1 -6l-127 -136h-107zM31 0l108 510h98l-11 -71h7q51 79 172 79q87 0 120.5 -28t33.5 -91q0 -37 -13 -97l-64 -302h-105l60 284q13 67 13 85q0 37 -20.5 48t-75.5 11q-36 0 -61.5 -8t-41 -20t-27.5 -36t-17.5 -45t-13.5 -58
l-57 -261h-105z" />
    <glyph glyph-name="napostrophe" unicode="&#x149;" horiz-adv-x="643" 
d="M59 529l9 44q40 0 53 13t21 49l4 17h-43l20 91h112l-16 -75q-9 -42 -16.5 -63.5t-24.5 -41.5t-45 -27t-74 -7zM59 0l109 510h98l-12 -71h8q49 79 171 79q87 0 120.5 -28t33.5 -91q0 -41 -12 -97l-65 -302h-105l60 284q13 67 13 85q0 37 -20.5 48t-75.5 11q-36 0 -61.5 -8
t-41 -20t-27 -36t-17 -45t-13.5 -58l-57 -261h-106z" />
    <glyph glyph-name="Eng" unicode="&#x14a;" horiz-adv-x="749" 
d="M362 -200l17 78q65 0 81.5 8.5t23.5 46.5l14 67l-230 507h-7l-108 -507h-109l147 688h116l225 -487h6l105 487h109l-156 -733q-7 -33 -14.5 -56t-15.5 -40.5t-23.5 -28t-28 -17t-39.5 -9t-49 -3.5t-64 -1z" />
    <glyph glyph-name="eng" unicode="&#x14b;" horiz-adv-x="614" 
d="M241 -200l17 78q63 0 80 10.5t25 44.5l74 351q13 67 13 85q0 37 -20.5 48t-75.5 11q-36 0 -61.5 -8t-41 -20t-27.5 -36t-17.5 -45t-13.5 -58l-57 -261h-105l108 510h98l-11 -71h7q51 79 172 79q87 0 120.5 -28t33.5 -91q0 -37 -13 -97l-74 -347q-8 -39 -15.5 -63.5
t-22 -43t-27 -27t-41 -14t-52.5 -6.5t-73 -1z" />
    <glyph glyph-name="Omacron" unicode="&#x14c;" horiz-adv-x="738" 
d="M316 794l16 71h326l-15 -71h-327zM325 -8q-155 0 -211 31.5t-56 122.5q0 56 31 201q13 64 21.5 100t21.5 78t24 62.5t31 44t41 32.5t54.5 18t71.5 11.5t91 2.5q154 0 210 -32t56 -123q0 -61 -30 -200q-11 -52 -18 -82t-17.5 -67.5t-18.5 -56.5t-21 -44t-25.5 -36
t-31.5 -25t-39.5 -19t-49.5 -10.5t-61 -7t-74 -1.5zM329 84q37 0 56.5 0.5t43.5 5t35 9.5t26 20t21.5 30.5t17.5 47t18.5 63t18.5 84.5q28 131 28 181q0 23 -6 37.5t-15 23t-31 12.5t-42.5 5t-60.5 1q-38 0 -57 -0.5t-43.5 -5t-35 -9.5t-25.5 -20t-21.5 -30.5t-17.5 -47
t-18 -63t-18 -84.5q-29 -139 -29 -182q0 -53 31 -65.5t124 -12.5z" />
    <glyph glyph-name="omacron" unicode="&#x14d;" horiz-adv-x="576" 
d="M202 616l16 71h326l-15 -71h-327zM249 -8q-126 0 -172 25.5t-46 95.5q0 35 21 142q9 46 15.5 73t16 57.5t18.5 46.5t24 34t32 25.5t42.5 15t56 9.5t71.5 2q125 0 170.5 -25.5t45.5 -96.5q0 -49 -20 -141q-11 -49 -16.5 -73t-16 -57t-19 -47.5t-23.5 -33.5t-31.5 -25.5
t-42 -14.5t-55.5 -10t-71 -2zM250 77q29 0 48.5 2.5t35.5 5t27 14t18.5 20.5t14.5 33.5t11.5 43t13.5 59.5q18 88 18 119q0 36 -23 47.5t-88 11.5q-34 0 -55 -1.5t-39 -11t-26.5 -17t-18 -33.5t-14.5 -46.5t-15 -68.5q-19 -95 -19 -120q0 -36 23 -47t88 -11z" />
    <glyph glyph-name="Obreve" unicode="&#x14e;" horiz-adv-x="738" 
d="M476 763q-68 0 -95 20t-27 60q0 24 10 66h63q-6 -34 -6 -43q0 -21 14 -30.5t52 -9.5q28 0 45.5 5t27.5 17.5t14 24.5t9 36h66q-15 -75 -49 -110.5t-124 -35.5zM325 -8q-155 0 -211 31.5t-56 122.5q0 56 31 201q13 64 21.5 100t21.5 78t24 62.5t31 44t41 32.5t54.5 18
t71.5 11.5t91 2.5q154 0 210 -32t56 -123q0 -61 -30 -200q-11 -52 -18 -82t-17.5 -67.5t-18.5 -56.5t-21 -44t-25.5 -36t-31.5 -25t-39.5 -19t-49.5 -10.5t-61 -7t-74 -1.5zM329 84q37 0 56.5 0.5t43.5 5t35 9.5t26 20t21.5 30.5t17.5 47t18.5 63t18.5 84.5q28 131 28 181
q0 23 -6 37.5t-15 23t-31 12.5t-42.5 5t-60.5 1q-38 0 -57 -0.5t-43.5 -5t-35 -9.5t-25.5 -20t-21.5 -30.5t-17.5 -47t-18 -63t-18 -84.5q-29 -139 -29 -182q0 -53 31 -65.5t124 -12.5z" />
    <glyph glyph-name="obreve" unicode="&#x14f;" horiz-adv-x="576" 
d="M361 585q-68 0 -95 20t-27 60q0 24 10 66h63q-6 -34 -6 -43q0 -21 14 -30.5t52 -9.5q28 0 45.5 5t27.5 17.5t14 24.5t9 36h66q-15 -75 -49 -110.5t-124 -35.5zM249 -8q-126 0 -172 25.5t-46 95.5q0 35 21 142q9 46 15.5 73t16 57.5t18.5 46.5t24 34t32 25.5t42.5 15
t56 9.5t71.5 2q125 0 170.5 -25.5t45.5 -96.5q0 -49 -20 -141q-11 -49 -16.5 -73t-16 -57t-19 -47.5t-23.5 -33.5t-31.5 -25.5t-42 -14.5t-55.5 -10t-71 -2zM250 77q29 0 48.5 2.5t35.5 5t27 14t18.5 20.5t14.5 33.5t11.5 43t13.5 59.5q18 88 18 119q0 36 -23 47.5t-88 11.5
q-34 0 -55 -1.5t-39 -11t-26.5 -17t-18 -33.5t-14.5 -46.5t-15 -68.5q-19 -95 -19 -120q0 -36 23 -47t88 -11z" />
    <glyph glyph-name="Ohungarumlaut" unicode="&#x150;" horiz-adv-x="738" 
d="M321 737v5l105 121h99v-5l-134 -121h-70zM511 737v5l107 121h98v-5l-134 -121h-71zM325 -8q-155 0 -211 31.5t-56 122.5q0 56 31 201q13 64 21.5 100t21.5 78t24 62.5t31 44t41 32.5t54.5 18t71.5 11.5t91 2.5q154 0 210 -32t56 -123q0 -61 -30 -200q-11 -52 -18 -82
t-17.5 -67.5t-18.5 -56.5t-21 -44t-25.5 -36t-31.5 -25t-39.5 -19t-49.5 -10.5t-61 -7t-74 -1.5zM329 84q37 0 56.5 0.5t43.5 5t35 9.5t26 20t21.5 30.5t17.5 47t18.5 63t18.5 84.5q28 131 28 181q0 23 -6 37.5t-15 23t-31 12.5t-42.5 5t-60.5 1q-38 0 -57 -0.5t-43.5 -5
t-35 -9.5t-25.5 -20t-21.5 -30.5t-17.5 -47t-18 -63t-18 -84.5q-29 -139 -29 -182q0 -53 31 -65.5t124 -12.5z" />
    <glyph glyph-name="ohungarumlaut" unicode="&#x151;" horiz-adv-x="576" 
d="M198 589v5l105 121h99v-5l-134 -121h-70zM388 589v5l107 121h98v-5l-134 -121h-71zM249 -8q-126 0 -172 25.5t-46 95.5q0 35 21 142q9 46 15.5 73t16 57.5t18.5 46.5t24 34t32 25.5t42.5 15t56 9.5t71.5 2q125 0 170.5 -25.5t45.5 -96.5q0 -49 -20 -141
q-11 -49 -16.5 -73t-16 -57t-19 -47.5t-23.5 -33.5t-31.5 -25.5t-42 -14.5t-55.5 -10t-71 -2zM250 77q29 0 48.5 2.5t35.5 5t27 14t18.5 20.5t14.5 33.5t11.5 43t13.5 59.5q18 88 18 119q0 36 -23 47.5t-88 11.5q-34 0 -55 -1.5t-39 -11t-26.5 -17t-18 -33.5t-14.5 -46.5
t-15 -68.5q-19 -95 -19 -120q0 -36 23 -47t88 -11z" />
    <glyph glyph-name="OE" unicode="&#x152;" horiz-adv-x="1032" 
d="M303 0q-142 0 -194.5 29t-52.5 109q0 56 32 206q17 80 28 123t30.5 89t40.5 66t58 38t84 23t117 5h629l-20 -96h-306q-35 0 -70 8q12 -24 12 -65q0 -48 -18 -140h293l-20 -96h-293q-18 -82 -36 -130.5t-46 -80.5q37 8 74 8h305l-21 -96h-626zM322 96q49 0 71.5 0.5
t49 10.5t36.5 21.5t25 44t23 68t23 103.5q27 132 27 174q0 22 -6 35.5t-14.5 21.5t-30 11.5t-41 4.5t-58.5 1q-49 0 -71 -0.5t-49 -10.5t-36.5 -21.5t-24.5 -44t-23 -68t-22 -103.5q-28 -129 -28 -175q0 -50 29.5 -61.5t119.5 -11.5z" />
    <glyph glyph-name="oe" unicode="&#x153;" horiz-adv-x="929" 
d="M249 -8q-127 0 -172.5 25.5t-45.5 96.5q0 34 21 141q9 46 15.5 73t16 57.5t18.5 46.5t24 34t32 25.5t42.5 15t56 9.5t71.5 2q82 0 126.5 -10.5t64.5 -36.5q56 47 183 47q100 0 139 -27t39 -90q0 -53 -22 -147l-8 -34h-333q-11 -52 -11 -79q0 -37 27.5 -49t108.5 -12
t161 10l-18 -83q-75 -15 -184 -15q-128 0 -169 40q-49 -40 -183 -40zM250 77q94 0 118.5 27.5t47.5 140.5q1 2 1 3t0.5 3t0.5 3q19 94 19 120q0 36 -23 47.5t-88 11.5q-34 0 -55 -1.5t-39 -11t-26.5 -17t-18 -33.5t-14.5 -46.5t-15 -68.5q-19 -95 -19 -120q0 -36 23 -47
t88 -11zM533 293h231q11 59 11 78q0 36 -20.5 47.5t-71.5 11.5q-79 0 -105 -25t-45 -112z" />
    <glyph glyph-name="Racute" unicode="&#x154;" horiz-adv-x="697" 
d="M375 767v5l103 137h108v-5l-137 -137h-74zM44 0l147 688h316q103 0 143.5 -34t40.5 -101q0 -39 -12 -86q-20 -83 -50 -125.5t-96 -60.5l56 -281h-117l-46 267q-7 0 -22.5 -0.5t-23.5 -0.5h-165l-58 -266h-113zM233 356h176q45 0 73.5 6.5t45 23.5t24 36t14.5 54
q8 37 8 60q0 32 -23.5 46.5t-84.5 14.5h-181z" />
    <glyph glyph-name="racute" unicode="&#x155;" horiz-adv-x="390" 
d="M180 588l1 5l132 138h115l-1 -5l-166 -138h-81zM31 0l108 510h98l-17 -97h6q33 61 78 83t118 22l-21 -101q-104 0 -149.5 -48t-69.5 -159l-46 -210h-105z" />
    <glyph glyph-name="uni0156" unicode="&#x156;" horiz-adv-x="697" 
d="M44 0l147 688h316q103 0 143.5 -34t40.5 -101q0 -39 -12 -86q-20 -83 -50 -125.5t-96 -60.5l56 -281h-117l-46 267q-7 0 -22.5 -0.5t-23.5 -0.5h-165l-58 -266h-113zM233 356h176q45 0 73.5 6.5t45 23.5t24 36t14.5 54q8 37 8 60q0 32 -23.5 46.5t-84.5 14.5h-181z
M174 -282l9 46q35 0 47.5 7.5t18.5 32.5l4 17h-46l20 89h107l-13 -61q-17 -81 -43.5 -106t-103.5 -25z" />
    <glyph glyph-name="uni0157" unicode="&#x157;" horiz-adv-x="390" 
d="M31 0l108 510h98l-17 -97h6q33 61 78 83t118 22l-21 -101q-104 0 -149.5 -48t-69.5 -159l-46 -210h-105zM-45 -279l10 46q38 0 52 8.5t20 35.5l4 17h-47l23 110h115l-18 -83q-17 -83 -45.5 -108.5t-113.5 -25.5z" />
    <glyph glyph-name="Rcaron" unicode="&#x158;" horiz-adv-x="697" 
d="M393 767l-74 136l2 6h67l64 -95l97 95h79l-1 -6l-127 -136h-107zM44 0l147 688h316q103 0 143.5 -34t40.5 -101q0 -39 -12 -86q-20 -83 -50 -125.5t-96 -60.5l56 -281h-117l-46 267q-7 0 -22.5 -0.5t-23.5 -0.5h-165l-58 -266h-113zM233 356h176q45 0 73.5 6.5t45 23.5
t24 36t14.5 54q8 37 8 60q0 32 -23.5 46.5t-84.5 14.5h-181z" />
    <glyph glyph-name="rcaron" unicode="&#x159;" horiz-adv-x="390" 
d="M217 589l-74 136l2 6h67l64 -95l97 95h79l-1 -6l-127 -136h-107zM31 0l108 510h98l-17 -97h6q33 61 78 83t118 22l-21 -101q-104 0 -149.5 -48t-69.5 -159l-46 -210h-105z" />
    <glyph glyph-name="Sacute" unicode="&#x15a;" horiz-adv-x="647" 
d="M361 767v5l103 137h108v-5l-137 -137h-74zM304 -8q-146 0 -268 15l19 90q132 -13 218 -13q101 0 137 19q28 15 42.5 61.5t14.5 81.5q0 24 -17 32t-70 14l-162 23q-61 7 -85 34.5t-24 80.5q0 40 10 84q11 47 29 80t41.5 53t58.5 31t70.5 14.5t87.5 3.5q145 0 235 -17
l-18 -88q-91 13 -206 13q-98 0 -136 -21q-26 -14 -39.5 -51.5t-13.5 -74.5q0 -23 15 -31.5t56 -13.5l156 -19q34 -5 54 -10t40 -17.5t29 -34.5t9 -56q0 -40 -11 -88q-12 -54 -31.5 -91t-41 -57.5t-56.5 -31t-64.5 -13t-78.5 -2.5z" />
    <glyph glyph-name="sacute" unicode="&#x15b;" horiz-adv-x="519" 
d="M244 588l1 5l132 138h115l-1 -5l-166 -138h-81zM225 -8q-104 0 -206 13l17 80q110 -10 176 -10q68 0 93 14t36 52q8 22 8 35q0 18 -11.5 23.5t-44.5 8.5l-134 17q-47 6 -67 27t-20 59q0 25 9 63q9 39 23.5 65.5t32 42t46.5 23.5t56.5 10.5t71.5 2.5q104 0 179 -14
l-16 -80q-85 11 -158 11q-32 0 -48 -1t-35.5 -5.5t-30.5 -16t-17 -29.5q-10 -20 -10 -43q0 -18 11 -24t43 -9l133 -17q48 -6 69.5 -23t21.5 -61q0 -26 -9 -65q-20 -93 -67.5 -121t-151.5 -28z" />
    <glyph glyph-name="Scircumflex" unicode="&#x15c;" horiz-adv-x="647" 
d="M272 767v6l130 136h103l75 -136l-1 -6h-65l-66 92l-100 -92h-76zM304 -8q-146 0 -268 15l19 90q132 -13 218 -13q101 0 137 19q28 15 42.5 61.5t14.5 81.5q0 24 -17 32t-70 14l-162 23q-61 7 -85 34.5t-24 80.5q0 40 10 84q11 47 29 80t41.5 53t58.5 31t70.5 14.5
t87.5 3.5q145 0 235 -17l-18 -88q-91 13 -206 13q-98 0 -136 -21q-26 -14 -39.5 -51.5t-13.5 -74.5q0 -23 15 -31.5t56 -13.5l156 -19q34 -5 54 -10t40 -17.5t29 -34.5t9 -56q0 -40 -11 -88q-12 -54 -31.5 -91t-41 -57.5t-56.5 -31t-64.5 -13t-78.5 -2.5z" />
    <glyph glyph-name="scircumflex" unicode="&#x15d;" horiz-adv-x="519" 
d="M174 589l1 6l130 136h103l74 -136v-6h-65l-66 92l-100 -92h-77zM225 -8q-104 0 -206 13l17 80q110 -10 176 -10q68 0 93 14t36 52q8 22 8 35q0 18 -11.5 23.5t-44.5 8.5l-134 17q-47 6 -67 27t-20 59q0 25 9 63q9 39 23.5 65.5t32 42t46.5 23.5t56.5 10.5t71.5 2.5
q104 0 179 -14l-16 -80q-85 11 -158 11q-32 0 -48 -1t-35.5 -5.5t-30.5 -16t-17 -29.5q-10 -20 -10 -43q0 -18 11 -24t43 -9l133 -17q48 -6 69.5 -23t21.5 -61q0 -26 -9 -65q-20 -93 -67.5 -121t-151.5 -28z" />
    <glyph glyph-name="Scedilla" unicode="&#x15e;" horiz-adv-x="647" 
d="M281 583q-26 -14 -39.5 -51.5t-13.5 -74.5q0 -23 15 -31.5t56 -13.5l156 -19q34 -5 54 -10t40 -17.5t29 -34.5t9 -56q0 -40 -11 -88q-13 -62 -35 -101.5t-55 -59t-66.5 -26.5t-85.5 -8l-76 -183h-102v5l99 179q-112 1 -219 14l19 90q132 -13 218 -13q101 0 137 19
q28 15 42.5 61.5t14.5 81.5q0 24 -17 32t-70 14l-162 23q-61 7 -85 34.5t-24 80.5q0 40 10 84q11 47 29 80t41.5 53t58.5 31t70.5 14.5t87.5 3.5q145 0 235 -17l-18 -88q-91 13 -206 13q-98 0 -136 -21z" />
    <glyph glyph-name="scedilla" unicode="&#x15f;" horiz-adv-x="519" 
d="M316 435q-32 0 -48 -1t-35.5 -5.5t-30.5 -16t-17 -29.5q-10 -20 -10 -43q0 -18 11 -24t43 -9l133 -17q48 -6 69.5 -23t21.5 -61q0 -26 -9 -65q-20 -89 -64 -118t-136 -31l-76 -183h-102v5l100 179q-76 3 -147 12l17 80q110 -10 176 -10q68 0 93 14t36 52q8 22 8 35
q0 18 -11.5 23.5t-44.5 8.5l-134 17q-47 6 -67 27t-20 59q0 25 9 63q9 39 23.5 65.5t32 42t46.5 23.5t56.5 10.5t71.5 2.5q104 0 179 -14l-16 -80q-85 11 -158 11z" />
    <glyph glyph-name="Scaron" unicode="&#x160;" horiz-adv-x="647" 
d="M379 767l-74 136l2 6h67l64 -95l97 95h79l-1 -6l-127 -136h-107zM304 -8q-146 0 -268 15l19 90q132 -13 218 -13q101 0 137 19q28 15 42.5 61.5t14.5 81.5q0 24 -17 32t-70 14l-162 23q-61 7 -85 34.5t-24 80.5q0 40 10 84q11 47 29 80t41.5 53t58.5 31t70.5 14.5
t87.5 3.5q145 0 235 -17l-18 -88q-91 13 -206 13q-98 0 -136 -21q-26 -14 -39.5 -51.5t-13.5 -74.5q0 -23 15 -31.5t56 -13.5l156 -19q34 -5 54 -10t40 -17.5t29 -34.5t9 -56q0 -40 -11 -88q-12 -54 -31.5 -91t-41 -57.5t-56.5 -31t-64.5 -13t-78.5 -2.5z" />
    <glyph glyph-name="scaron" unicode="&#x161;" horiz-adv-x="519" 
d="M281 589l-74 136l2 6h67l64 -95l97 95h79l-1 -6l-127 -136h-107zM225 -8q-104 0 -206 13l17 80q110 -10 176 -10q68 0 93 14t36 52q8 22 8 35q0 18 -11.5 23.5t-44.5 8.5l-134 17q-47 6 -67 27t-20 59q0 25 9 63q9 39 23.5 65.5t32 42t46.5 23.5t56.5 10.5t71.5 2.5
q104 0 179 -14l-16 -80q-85 11 -158 11q-32 0 -48 -1t-35.5 -5.5t-30.5 -16t-17 -29.5q-10 -20 -10 -43q0 -18 11 -24t43 -9l133 -17q48 -6 69.5 -23t21.5 -61q0 -26 -9 -65q-20 -93 -67.5 -121t-151.5 -28z" />
    <glyph glyph-name="uni0162" unicode="&#x162;" horiz-adv-x="600" 
d="M118 688h547l-21 -97h-216l-126 -591h-17l-79 -190h-102v5l103 185h-19l126 591h-217z" />
    <glyph glyph-name="uni0163" unicode="&#x163;" horiz-adv-x="388" 
d="M261 425l-52 -246q-9 -45 -9 -59q0 -26 24.5 -34t94.5 -8l-17 -78q-52 0 -73 1l-80 -192h-102v5l109 196q-34 8 -50 28t-16 58q0 32 10 73l55 256h-104l18 85h103l31 148h107l-31 -148h122l-18 -85h-122z" />
    <glyph glyph-name="Tcaron" unicode="&#x164;" horiz-adv-x="600" 
d="M353 767l-74 136l2 6h67l64 -95l97 95h79l-1 -6l-127 -136h-107zM188 0l126 591h-217l21 97h547l-21 -97h-216l-126 -591h-114z" />
    <glyph glyph-name="tcaron" unicode="&#x165;" horiz-adv-x="388" 
d="M340 565l58 177l19 71h89l-17 -71l-85 -177h-64zM302 0q-122 0 -167 17t-45 79q0 32 10 73l55 256h-104l18 85h103l31 148h107l-31 -148h122l-18 -85h-122l-52 -246q-9 -45 -9 -59q0 -26 24.5 -34t94.5 -8z" />
    <glyph glyph-name="Tbar" unicode="&#x166;" horiz-adv-x="600" 
d="M644 591h-216l-46 -217h188l-17 -87h-190l-61 -287h-114l61 287h-184l18 87h185l46 217h-217l21 97h547z" />
    <glyph glyph-name="tbar" unicode="&#x167;" horiz-adv-x="388" 
d="M383 425h-122l-26 -125h116l-18 -87h-117l-7 -34q-9 -45 -9 -59q0 -26 24.5 -34t94.5 -8l-17 -78q-122 0 -167 17t-45 79q0 32 10 73l9 44h-102l18 87h103l27 125h-104l18 85h103l31 148h107l-31 -148h122z" />
    <glyph glyph-name="Utilde" unicode="&#x168;" horiz-adv-x="725" 
d="M282 773q14 69 34.5 96.5t72.5 27.5q33 0 103 -22q52 -18 71 -18q20 0 27 10t13 41h60q-14 -69 -34.5 -96.5t-72.5 -27.5q-37 0 -103 22q-53 17 -71 17q-19 0 -26 -9.5t-14 -40.5h-60zM326 -8q-142 0 -196.5 32.5t-54.5 119.5q0 50 23 160l82 384h113l-88 -416
q-17 -85 -17 -112q0 -44 29.5 -59.5t110.5 -15.5q59 0 90.5 6t53.5 30t31.5 54t23.5 97l89 416h113l-81 -384q-14 -71 -24.5 -111t-28 -80.5t-37 -59.5t-52.5 -35t-75.5 -21t-104.5 -5z" />
    <glyph glyph-name="utilde" unicode="&#x169;" horiz-adv-x="597" 
d="M181 595q14 69 34.5 96.5t72.5 27.5q33 0 103 -22q52 -18 71 -18q20 0 27 10t13 41h60q-14 -69 -34.5 -96.5t-72.5 -27.5q-39 0 -103 22q-53 17 -71 17q-20 0 -26.5 -9.5t-13.5 -40.5h-60zM204 -8q-88 0 -121.5 28t-33.5 92q0 37 13 97l64 301h106l-60 -284
q-13 -67 -13 -85q0 -37 20 -48t76 -11q36 0 61.5 8t41 20t27 36.5t17 44.5t13.5 58l57 261h106l-109 -510h-98l11 71h-7q-51 -79 -171 -79z" />
    <glyph glyph-name="Umacron" unicode="&#x16a;" horiz-adv-x="725" 
d="M310 794l16 71h326l-15 -71h-327zM326 -8q-142 0 -196.5 32.5t-54.5 119.5q0 50 23 160l82 384h113l-88 -416q-17 -85 -17 -112q0 -44 29.5 -59.5t110.5 -15.5q59 0 90.5 6t53.5 30t31.5 54t23.5 97l89 416h113l-81 -384q-14 -71 -24.5 -111t-28 -80.5t-37 -59.5
t-52.5 -35t-75.5 -21t-104.5 -5z" />
    <glyph glyph-name="umacron" unicode="&#x16b;" horiz-adv-x="597" 
d="M205 616l16 71h326l-15 -71h-327zM204 -8q-88 0 -121.5 28t-33.5 92q0 37 13 97l64 301h106l-60 -284q-13 -67 -13 -85q0 -37 20 -48t76 -11q36 0 61.5 8t41 20t27 36.5t17 44.5t13.5 58l57 261h106l-109 -510h-98l11 71h-7q-51 -79 -171 -79z" />
    <glyph glyph-name="Ubreve" unicode="&#x16c;" horiz-adv-x="725" 
d="M469 763q-68 0 -95 20t-27 60q0 24 10 66h63q-6 -34 -6 -43q0 -21 14 -30.5t52 -9.5q28 0 45.5 5t27.5 17.5t14 24.5t9 36h66q-15 -75 -49 -110.5t-124 -35.5zM326 -8q-142 0 -196.5 32.5t-54.5 119.5q0 50 23 160l82 384h113l-88 -416q-17 -85 -17 -112
q0 -44 29.5 -59.5t110.5 -15.5q59 0 90.5 6t53.5 30t31.5 54t23.5 97l89 416h113l-81 -384q-14 -71 -24.5 -111t-28 -80.5t-37 -59.5t-52.5 -35t-75.5 -21t-104.5 -5z" />
    <glyph glyph-name="ubreve" unicode="&#x16d;" horiz-adv-x="597" 
d="M364 585q-68 0 -95 20t-27 60q0 24 10 66h63q-6 -34 -6 -43q0 -21 14 -30.5t52 -9.5q28 0 45.5 5t27.5 17.5t14 24.5t9 36h66q-15 -75 -49 -110.5t-124 -35.5zM204 -8q-88 0 -121.5 28t-33.5 92q0 37 13 97l64 301h106l-60 -284q-13 -67 -13 -85q0 -37 20 -48t76 -11
q36 0 61.5 8t41 20t27 36.5t17 44.5t13.5 58l57 261h106l-109 -510h-98l11 71h-7q-51 -79 -171 -79z" />
    <glyph glyph-name="Uring" unicode="&#x16e;" horiz-adv-x="725" 
d="M464 753q-69 0 -94.5 13.5t-25.5 44.5q0 20 8 52q8 34 14.5 50.5t22.5 33.5t44 22.5t75 5.5q69 0 95 -14t26 -46q0 -18 -8 -52q-8 -35 -14.5 -51t-22.5 -32t-44.5 -21.5t-75.5 -5.5zM474 803q50 0 62.5 10.5t20.5 49.5q5 23 5 33q0 16 -13 21.5t-50 5.5q-49 0 -62 -10.5
t-22 -49.5q-5 -22 -5 -32q0 -16 13 -22t51 -6zM326 -8q-142 0 -196.5 32.5t-54.5 119.5q0 50 23 160l82 384h113l-88 -416q-17 -85 -17 -112q0 -44 29.5 -59.5t110.5 -15.5q59 0 90.5 6t53.5 30t31.5 54t23.5 97l89 416h113l-81 -384q-14 -71 -24.5 -111t-28 -80.5
t-37 -59.5t-52.5 -35t-75.5 -21t-104.5 -5z" />
    <glyph glyph-name="uring" unicode="&#x16f;" horiz-adv-x="597" 
d="M359 575q-69 0 -94.5 13.5t-25.5 44.5q0 20 8 52q8 34 14.5 50.5t22.5 33.5t44 22.5t75 5.5q69 0 95 -14t26 -46q0 -18 -8 -52q-8 -35 -14.5 -51t-22.5 -32t-44.5 -21.5t-75.5 -5.5zM369 625q50 0 62.5 10.5t20.5 49.5q5 23 5 33q0 16 -13 21.5t-50 5.5q-49 0 -62 -10.5
t-22 -49.5q-5 -22 -5 -32q0 -16 13 -22t51 -6zM204 -8q-88 0 -121.5 28t-33.5 92q0 37 13 97l64 301h106l-60 -284q-13 -67 -13 -85q0 -37 20 -48t76 -11q36 0 61.5 8t41 20t27 36.5t17 44.5t13.5 58l57 261h106l-109 -510h-98l11 71h-7q-51 -79 -171 -79z" />
    <glyph glyph-name="Uhungarumlaut" unicode="&#x170;" horiz-adv-x="725" 
d="M314 737v5l105 121h99v-5l-134 -121h-70zM504 737v5l107 121h98v-5l-134 -121h-71zM326 -8q-142 0 -196.5 32.5t-54.5 119.5q0 50 23 160l82 384h113l-88 -416q-17 -85 -17 -112q0 -44 29.5 -59.5t110.5 -15.5q59 0 90.5 6t53.5 30t31.5 54t23.5 97l89 416h113l-81 -384
q-14 -71 -24.5 -111t-28 -80.5t-37 -59.5t-52.5 -35t-75.5 -21t-104.5 -5z" />
    <glyph glyph-name="uhungarumlaut" unicode="&#x171;" horiz-adv-x="597" 
d="M201 589v5l105 121h99v-5l-134 -121h-70zM391 589v5l107 121h98v-5l-134 -121h-71zM204 -8q-88 0 -121.5 28t-33.5 92q0 37 13 97l64 301h106l-60 -284q-13 -67 -13 -85q0 -37 20 -48t76 -11q36 0 61.5 8t41 20t27 36.5t17 44.5t13.5 58l57 261h106l-109 -510h-98l11 71
h-7q-51 -79 -171 -79z" />
    <glyph glyph-name="Uogonek" unicode="&#x172;" horiz-adv-x="725" 
d="M616 688h113l-81 -384q-13 -66 -23 -105.5t-25.5 -78.5t-33.5 -58.5t-46.5 -36.5t-65 -23.5t-89.5 -8.5q-30 -23 -53 -51.5t-23 -51.5q0 -27 41 -27q9 0 18 1l-13 -62q-16 -2 -49 -2q-91 0 -91 65q0 69 79 128q-110 5 -154.5 38.5t-44.5 112.5q0 50 23 160l82 384h113
l-88 -416q-17 -85 -17 -112q0 -44 29.5 -59.5t110.5 -15.5q59 0 90.5 6t53.5 30t31.5 54t23.5 97z" />
    <glyph glyph-name="uogonek" unicode="&#x173;" horiz-adv-x="597" 
d="M469 0q-31 -20 -59 -52.5t-28 -57.5q0 -27 41 -27q9 0 18 1l-13 -62q-16 -2 -49 -2q-91 0 -91 65q0 73 88 135h-5l11 71h-7q-51 -79 -171 -79q-88 0 -121.5 28t-33.5 92q0 37 13 97l64 301h106l-60 -284q-13 -67 -13 -85q0 -37 20 -48t76 -11q36 0 61.5 8t41 20t27 36.5
t17 44.5t13.5 58l57 261h106z" />
    <glyph glyph-name="Wcircumflex" unicode="&#x174;" horiz-adv-x="1014" 
d="M455 767v6l130 136h103l75 -136l-1 -6h-65l-66 92l-100 -92h-76zM158 0l-36 688h112l26 -543h7l272 543h116l43 -543h7l253 543h118l-331 -688h-136l-46 510h-6l-263 -510h-136z" />
    <glyph glyph-name="wcircumflex" unicode="&#x175;" horiz-adv-x="847" 
d="M329 589l1 6l130 136h103l74 -136v-6h-65l-66 92l-100 -92h-77zM132 0l-47 510h102l31 -394h8l201 394h99l36 -394h9l196 394h108l-266 -510h-125l-37 344h-7l-182 -344h-126z" />
    <glyph glyph-name="Ycircumflex" unicode="&#x176;" horiz-adv-x="640" 
d="M264 767v6l130 136h103l75 -136l-1 -6h-65l-66 92l-100 -92h-76zM203 0l55 255l-161 433h116l119 -322h7l257 322h121l-346 -433l-55 -255h-113z" />
    <glyph glyph-name="ycircumflex" unicode="&#x177;" horiz-adv-x="616" 
d="M223 589l1 6l130 136h103l74 -136v-6h-65l-66 92l-100 -92h-77zM193 -206q-97 0 -173 9l18 84q95 -4 149 -4t85.5 6t50.5 26t27.5 42.5t18.5 69.5l9 40h-7q-49 -71 -172 -71q-77 0 -108 25t-31 79q0 39 12 93l68 317h106l-59 -275q-14 -65 -14 -93q0 -34 19 -43.5
t72 -9.5q40 0 66 9.5t42.5 32.5t25.5 48.5t18 69.5l56 261h106l-96 -450q-17 -79 -33 -123t-47.5 -80t-81 -49.5t-127.5 -13.5z" />
    <glyph glyph-name="Ydieresis" unicode="&#x178;" horiz-adv-x="640" 
d="M275 794l19 91h92l-19 -91h-92zM482 794l20 91h92l-19 -91h-93zM203 0l55 255l-161 433h116l119 -322h7l257 322h121l-346 -433l-55 -255h-113z" />
    <glyph glyph-name="Zacute" unicode="&#x179;" horiz-adv-x="630" 
d="M341 767v5l103 137h108v-5l-137 -137h-74zM-5 0l20 89l477 507h-359l20 92h511l-19 -85l-480 -511h376l-20 -92h-526z" />
    <glyph glyph-name="zacute" unicode="&#x17a;" horiz-adv-x="528" 
d="M241 588l1 5l132 138h115l-1 -5l-166 -138h-81zM-5 0l16 80l354 345h-267l18 85h414l-17 -80l-353 -345h281l-18 -85h-428z" />
    <glyph glyph-name="Zdotaccent" unicode="&#x17b;" horiz-adv-x="630" 
d="M371 794l19 91h92l-18 -91h-93zM-5 0l20 89l477 507h-359l20 92h511l-19 -85l-480 -511h376l-20 -92h-526z" />
    <glyph glyph-name="zdotaccent" unicode="&#x17c;" horiz-adv-x="528" 
d="M287 616l19 91h92l-18 -91h-93zM-5 0l16 80l354 345h-267l18 85h414l-17 -80l-353 -345h281l-18 -85h-428z" />
    <glyph glyph-name="Zcaron" unicode="&#x17d;" horiz-adv-x="630" 
d="M358 767l-74 136l2 6h67l64 -95l97 95h79l-1 -6l-127 -136h-107zM-5 0l20 89l477 507h-359l20 92h511l-19 -85l-480 -511h376l-20 -92h-526z" />
    <glyph glyph-name="zcaron" unicode="&#x17e;" horiz-adv-x="528" 
d="M278 589l-74 136l2 6h67l64 -95l97 95h79l-1 -6l-127 -136h-107zM-5 0l16 80l354 345h-267l18 85h414l-17 -80l-353 -345h281l-18 -85h-428z" />
    <glyph glyph-name="longs" unicode="&#x17f;" horiz-adv-x="370" 
d="M76 0l90 425h-105l19 85h105l15 70q10 47 24.5 76t32 47t52 26.5t68.5 10.5t97 2l-17 -77q-86 0 -112 -12.5t-36 -58.5l-126 -594h-107z" />
    <glyph glyph-name="uni018F" unicode="&#x18f;" horiz-adv-x="693" 
d="M289 -8q-134 0 -184 28.5t-50 107.5q0 61 33 216l10 51h442q14 75 14 112q0 54 -40.5 73.5t-137.5 19.5q-88 0 -156 -11l19 91q80 16 186 16q131 0 188.5 -35.5t57.5 -120.5q0 -62 -29 -196q-13 -61 -21.5 -97.5t-21.5 -77t-25 -62.5t-31.5 -45.5t-41 -34t-53.5 -20
t-70 -12.5t-89 -3zM310 88q44 0 64 1t45 8.5t34.5 18t23.5 37t22.5 58.5t20.5 88h-329q-21 -103 -21 -140q0 -48 27.5 -59.5t112.5 -11.5z" />
    <glyph glyph-name="florin" unicode="&#x192;" horiz-adv-x="423" 
d="M-194 -192l33 80q85 0 113 14.5t49 68.5l173 450h-101l36 89h101q23 63 35 94t33 62.5t36.5 42.5t51 21t70 11t99.5 1l-33 -81q-38 0 -55.5 -0.5t-38 -7t-28 -12.5t-20.5 -27.5t-20.5 -41t-22.5 -62.5h129l-36 -89h-130l-152 -401q-12 -33 -21.5 -56.5t-21.5 -45.5
t-19.5 -36t-22 -27t-23.5 -19.5t-29 -12.5t-33.5 -8.5t-42 -4.5t-49 -2h-60.5z" />
    <glyph glyph-name="uni019D" unicode="&#x19d;" horiz-adv-x="750" 
d="M-94 -200l16 78q62 0 80.5 11t26.5 46l159 753h118l229 -482h4l102 482h109l-146 -688h-108l-232 502h-5l-117 -547q-9 -44 -21.5 -71.5t-28 -45t-44 -25.5t-59 -10.5t-83.5 -2.5z" />
    <glyph glyph-name="Ohorn" unicode="&#x1a0;" horiz-adv-x="738" 
d="M710 782h74l-4 -22q-11 -58 -32 -83t-69 -32q32 -32 32 -104q0 -61 -30 -200q-11 -52 -18 -82t-17.5 -67.5t-18.5 -56.5t-21 -44t-25.5 -36t-31.5 -25t-39.5 -19t-49.5 -10.5t-61 -7t-74 -1.5q-155 0 -211 31.5t-56 122.5q0 56 31 201q13 64 21.5 100t21.5 78t24 62.5
t31 44t41 32.5t54.5 18t71.5 11.5t91 2.5q87 0 134 -8h52q38 0 51 13t22 52zM566 344q28 131 28 181q0 23 -6 37.5t-15 23t-31 12.5t-42.5 5t-60.5 1q-38 0 -57 -0.5t-43.5 -5t-35 -9.5t-25.5 -20t-21.5 -30.5t-17.5 -47t-18 -63t-18 -84.5q-29 -139 -29 -182
q0 -53 31 -65.5t124 -12.5q37 0 56.5 0.5t43.5 5t35 9.5t26 20t21.5 30.5t17.5 47t18.5 63t18.5 84.5z" />
    <glyph glyph-name="ohorn" unicode="&#x1a1;" horiz-adv-x="576" 
d="M521 604h74l-4 -22q-9 -48 -24.5 -72.5t-45.5 -35.5q23 -24 23 -78q0 -49 -20 -141q-11 -49 -16.5 -73t-16 -57t-19 -47.5t-23.5 -33.5t-31.5 -25.5t-42 -14.5t-55.5 -10t-71 -2q-126 0 -172 25.5t-46 95.5q0 35 21 142q9 46 15.5 73t16 57.5t18.5 46.5t24 34t32 25.5
t42.5 15t56 9.5t71.5 2q77 0 117 -8q36 1 48.5 13.5t21.5 51.5zM419 255q18 88 18 119q0 36 -23 47.5t-88 11.5q-34 0 -55 -1.5t-39 -11t-26.5 -17t-18 -33.5t-14.5 -46.5t-15 -68.5q-19 -95 -19 -120q0 -36 23 -47t88 -11q29 0 48.5 2.5t35.5 5t27 14t18.5 20.5t14.5 33.5
t11.5 43t13.5 59.5z" />
    <glyph glyph-name="Uhorn" unicode="&#x1af;" horiz-adv-x="725" 
d="M762 782h74l-4 -22q-12 -61 -34.5 -86t-77.5 -30l-72 -340q-14 -71 -24.5 -111t-28 -80.5t-37 -59.5t-52.5 -35t-75.5 -21t-104.5 -5q-142 0 -196.5 32.5t-54.5 119.5q0 50 23 160l82 384h113l-88 -416q-17 -85 -17 -112q0 -44 29.5 -59.5t110.5 -15.5q59 0 90.5 6
t53.5 30t31.5 54t23.5 97l89 416h67q38 0 51 13t22 52z" />
    <glyph glyph-name="uhorn" unicode="&#x1b0;" horiz-adv-x="597" 
d="M605 604h74l-4 -22q-12 -60 -33.5 -84.5t-72.5 -30.5l-100 -467h-98l11 71h-7q-51 -79 -171 -79q-88 0 -121.5 28t-33.5 92q0 37 13 97l64 301h106l-60 -284q-13 -67 -13 -85q0 -37 20 -48t76 -11q36 0 61.5 8t41 20t27 36.5t17 44.5t13.5 58l47 217l9 44h55q38 0 51 13
t22 52z" />
    <glyph glyph-name="uni01C4" unicode="&#x1c4;" horiz-adv-x="1337" 
d="M1065 767l-74 136l2 6h67l64 -95l97 95h79l-1 -6l-127 -136h-107zM44 0l147 688h217q162 0 220 -30.5t58 -122.5q0 -54 -28 -194q-14 -64 -22.5 -99t-21.5 -76.5t-24.5 -61t-31.5 -42.5t-41 -31.5t-55 -17.5t-72.5 -11t-92.5 -2h-253zM702 0l20 89l477 507h-359l20 92
h511l-19 -85l-480 -511h376l-20 -92h-526zM178 92h105h66t50 5t39.5 9.5t28 19.5t23 29t17.5 45.5t18 61t18 82.5q27 124 27 170q0 56 -35.5 69t-144.5 13h-105z" />
    <glyph glyph-name="uni01C5" unicode="&#x1c5;" horiz-adv-x="1235" 
d="M985 589l-74 136l2 6h67l64 -95l97 95h79l-1 -6l-127 -136h-107zM44 0l147 688h217q162 0 220 -30.5t58 -122.5q0 -54 -28 -194q-14 -64 -22.5 -99t-21.5 -76.5t-24.5 -61t-31.5 -42.5t-41 -31.5t-55 -17.5t-72.5 -11t-92.5 -2h-253zM178 92h105h66t50 5t39.5 9.5
t28 19.5t23 29t17.5 45.5t18 61t18 82.5q27 124 27 170q0 56 -35.5 69t-144.5 13h-105zM702 0l16 80l354 345h-267l18 85h414l-17 -80l-353 -345h281l-18 -85h-428z" />
    <glyph glyph-name="uni01C6" unicode="&#x1c6;" horiz-adv-x="1135" 
d="M207 -8q-91 0 -128 29.5t-37 108.5q0 55 17 130q32 153 78.5 205.5t149.5 52.5q69 0 110 -15.5t55 -55.5h6l63 296h106l-158 -743h-98l11 71h-7q-26 -47 -67 -63t-101 -16zM886 589l-74 136l2 6h67l64 -95l97 95h79l-1 -6l-127 -136h-107zM602 0l16 80l354 345h-267
l18 85h414l-17 -80l-353 -345h281l-18 -85h-428zM255 80q90 0 122 57q19 32 37 102.5t18 110.5q0 44 -24 61.5t-82 17.5q-83 0 -109.5 -29t-51.5 -145q-16 -70 -16 -108q0 -42 22.5 -54.5t83.5 -12.5z" />
    <glyph glyph-name="uni01C7" unicode="&#x1c7;" horiz-adv-x="930" 
d="M44 0l147 688h113l-125 -591h317l-21 -97h-431zM528 0l20 88q41 1 60.5 1.5t41.5 8t29.5 14.5t18.5 30t15.5 44.5t14.5 68.5l92 433h115l-88 -413q-12 -59 -18.5 -89t-19.5 -65.5t-20 -50t-27 -32t-35 -22t-49.5 -10t-64.5 -6t-85 -0.5z" />
    <glyph glyph-name="uni01C8" unicode="&#x1c8;" horiz-adv-x="825" 
d="M719 642l21 101h112l-22 -101h-111zM44 0l147 688h113l-125 -591h317l-21 -97h-431zM449 -200l17 78q63 0 80.5 10.5t24.5 44.5l123 577h107l-118 -555q-8 -39 -16 -64t-22.5 -43t-27.5 -27t-41.5 -14t-53 -6t-73.5 -1z" />
    <glyph glyph-name="uni01C9" unicode="&#x1c9;" horiz-adv-x="538" 
d="M31 0l157 743h107l-157 -743h-107zM432 642l21 101h112l-22 -101h-111zM162 -200l17 78q63 0 80.5 10.5t24.5 44.5l123 577h107l-118 -555q-8 -39 -16 -64t-22.5 -43t-27.5 -27t-41.5 -14t-53 -6t-73.5 -1z" />
    <glyph glyph-name="uni01CA" unicode="&#x1ca;" horiz-adv-x="1128" 
d="M44 0l147 688h116l225 -487h6l105 487h109l-147 -688h-107l-230 507h-7l-108 -507h-109zM725 0l20 88q41 1 60.5 1.5t41.5 8t29.5 14.5t18.5 30t15.5 44.5t14.5 68.5l92 433h115l-88 -413q-12 -59 -18.5 -89t-19.5 -65.5t-20 -50t-27 -32t-35 -22t-49.5 -10t-64.5 -6
t-85 -0.5z" />
    <glyph glyph-name="uni01CB" unicode="&#x1cb;" horiz-adv-x="1022" 
d="M916 642l21 101h112l-22 -101h-111zM44 0l147 688h116l225 -487h6l105 487h109l-147 -688h-107l-230 507h-7l-108 -507h-109zM646 -200l17 78q63 0 80.5 10.5t24.5 44.5l123 577h107l-118 -555q-8 -39 -16 -64t-22.5 -43t-27.5 -27t-41.5 -14t-53 -6t-73.5 -1z" />
    <glyph glyph-name="uni01CC" unicode="&#x1cc;" horiz-adv-x="887" 
d="M781 642l21 101h112l-22 -101h-111zM31 0l108 510h98l-11 -71h7q51 79 172 79q87 0 120.5 -28t33.5 -91q0 -37 -13 -97l-64 -302h-105l60 284q13 67 13 85q0 37 -20.5 48t-75.5 11q-36 0 -61.5 -8t-41 -20t-27.5 -36t-17.5 -45t-13.5 -58l-57 -261h-105zM511 -200l17 78
q63 0 80.5 10.5t24.5 44.5l123 577h107l-118 -555q-8 -39 -16 -64t-22.5 -43t-27.5 -27t-41.5 -14t-53 -6t-73.5 -1z" />
    <glyph glyph-name="uni01CD" unicode="&#x1cd;" horiz-adv-x="709" 
d="M412 767l-74 136l2 6h67l64 -95l97 95h79l-1 -6l-127 -136h-107zM-29 0l405 688h147l112 -688h-112l-30 172h-303l-103 -172h-116zM237 263h245l-51 316h-6z" />
    <glyph glyph-name="uni01CE" unicode="&#x1ce;" horiz-adv-x="590" 
d="M316 589l-74 136l2 6h67l64 -95l97 95h79l-1 -6l-127 -136h-107zM205 -8q-90 0 -128 30t-38 108q0 43 18 130q32 153 78 205.5t149 52.5q70 0 111 -15.5t54 -55.5h7l20 63h99l-108 -510h-98l11 71h-6q-27 -47 -68.5 -63t-100.5 -16zM253 80q90 0 122 57q19 32 37 103
t18 110q0 44 -24 61.5t-82 17.5q-83 0 -110 -29t-52 -145q-16 -77 -16 -108q0 -42 22.5 -54.5t84.5 -12.5z" />
    <glyph glyph-name="uni01CF" unicode="&#x1cf;" horiz-adv-x="302" 
d="M206 767l-74 136l2 6h67l64 -95l97 95h79l-1 -6l-127 -136h-107zM44 0l147 688h113l-147 -688h-113z" />
    <glyph glyph-name="uni01D0" unicode="&#x1d0;" horiz-adv-x="270" 
d="M156 589l-74 136l2 6h67l64 -95l97 95h79l-1 -6l-127 -136h-107zM31 0l108 510h107l-108 -510h-107z" />
    <glyph glyph-name="uni01D1" unicode="&#x1d1;" horiz-adv-x="738" 
d="M425 767l-74 136l2 6h67l64 -95l97 95h79l-1 -6l-127 -136h-107zM325 -8q-155 0 -211 31.5t-56 122.5q0 56 31 201q13 64 21.5 100t21.5 78t24 62.5t31 44t41 32.5t54.5 18t71.5 11.5t91 2.5q154 0 210 -32t56 -123q0 -61 -30 -200q-11 -52 -18 -82t-17.5 -67.5
t-18.5 -56.5t-21 -44t-25.5 -36t-31.5 -25t-39.5 -19t-49.5 -10.5t-61 -7t-74 -1.5zM329 84q37 0 56.5 0.5t43.5 5t35 9.5t26 20t21.5 30.5t17.5 47t18.5 63t18.5 84.5q28 131 28 181q0 23 -6 37.5t-15 23t-31 12.5t-42.5 5t-60.5 1q-38 0 -57 -0.5t-43.5 -5t-35 -9.5
t-25.5 -20t-21.5 -30.5t-17.5 -47t-18 -63t-18 -84.5q-29 -139 -29 -182q0 -53 31 -65.5t124 -12.5z" />
    <glyph glyph-name="uni01D2" unicode="&#x1d2;" horiz-adv-x="576" 
d="M309 589l-74 136l2 6h67l64 -95l97 95h79l-1 -6l-127 -136h-107zM249 -8q-126 0 -172 25.5t-46 95.5q0 35 21 142q9 46 15.5 73t16 57.5t18.5 46.5t24 34t32 25.5t42.5 15t56 9.5t71.5 2q125 0 170.5 -25.5t45.5 -96.5q0 -49 -20 -141q-11 -49 -16.5 -73t-16 -57
t-19 -47.5t-23.5 -33.5t-31.5 -25.5t-42 -14.5t-55.5 -10t-71 -2zM250 77q29 0 48.5 2.5t35.5 5t27 14t18.5 20.5t14.5 33.5t11.5 43t13.5 59.5q18 88 18 119q0 36 -23 47.5t-88 11.5q-34 0 -55 -1.5t-39 -11t-26.5 -17t-18 -33.5t-14.5 -46.5t-15 -68.5q-19 -95 -19 -120
q0 -36 23 -47t88 -11z" />
    <glyph glyph-name="uni01D3" unicode="&#x1d3;" horiz-adv-x="725" 
d="M418 767l-74 136l2 6h67l64 -95l97 95h79l-1 -6l-127 -136h-107zM326 -8q-142 0 -196.5 32.5t-54.5 119.5q0 50 23 160l82 384h113l-88 -416q-17 -85 -17 -112q0 -44 29.5 -59.5t110.5 -15.5q59 0 90.5 6t53.5 30t31.5 54t23.5 97l89 416h113l-81 -384
q-14 -71 -24.5 -111t-28 -80.5t-37 -59.5t-52.5 -35t-75.5 -21t-104.5 -5z" />
    <glyph glyph-name="uni01D4" unicode="&#x1d4;" horiz-adv-x="597" 
d="M312 589l-74 136l2 6h67l64 -95l97 95h79l-1 -6l-127 -136h-107zM204 -8q-88 0 -121.5 28t-33.5 92q0 37 13 97l64 301h106l-60 -284q-13 -67 -13 -85q0 -37 20 -48t76 -11q36 0 61.5 8t41 20t27 36.5t17 44.5t13.5 58l57 261h106l-109 -510h-98l11 71h-7
q-51 -79 -171 -79z" />
    <glyph glyph-name="uni01D5" unicode="&#x1d5;" horiz-adv-x="725" 
d="M346 991l16 71h326l-15 -71h-327zM323 794l19 91h92l-19 -91h-92zM530 794l20 91h92l-19 -91h-93zM326 -8q-142 0 -196.5 32.5t-54.5 119.5q0 50 23 160l82 384h113l-88 -416q-17 -85 -17 -112q0 -44 29.5 -59.5t110.5 -15.5q59 0 90.5 6t53.5 30t31.5 54t23.5 97l89 416
h113l-81 -384q-14 -71 -24.5 -111t-28 -80.5t-37 -59.5t-52.5 -35t-75.5 -21t-104.5 -5z" />
    <glyph glyph-name="uni01D6" unicode="&#x1d6;" horiz-adv-x="597" 
d="M239 776l16 71h326l-15 -71h-327zM218 616l19 91h92l-19 -91h-92zM425 616l20 91h92l-19 -91h-93zM204 -8q-88 0 -121.5 28t-33.5 92q0 37 13 97l64 301h106l-60 -284q-13 -67 -13 -85q0 -37 20 -48t76 -11q36 0 61.5 8t41 20t27 36.5t17 44.5t13.5 58l57 261h106
l-109 -510h-98l11 71h-7q-51 -79 -171 -79z" />
    <glyph glyph-name="uni01D7" unicode="&#x1d7;" horiz-adv-x="725" 
d="M437 964v5l103 137h108v-5l-137 -137h-74zM323 794l19 91h92l-19 -91h-92zM530 794l20 91h92l-19 -91h-93zM326 -8q-142 0 -196.5 32.5t-54.5 119.5q0 50 23 160l82 384h113l-88 -416q-17 -85 -17 -112q0 -44 29.5 -59.5t110.5 -15.5q59 0 90.5 6t53.5 30t31.5 54
t23.5 97l89 416h113l-81 -384q-14 -71 -24.5 -111t-28 -80.5t-37 -59.5t-52.5 -35t-75.5 -21t-104.5 -5z" />
    <glyph glyph-name="uni01D8" unicode="&#x1d8;" horiz-adv-x="597" 
d="M309 748l1 5l132 138h115l-1 -5l-166 -138h-81zM218 616l19 91h92l-19 -91h-92zM425 616l20 91h92l-19 -91h-93zM204 -8q-88 0 -121.5 28t-33.5 92q0 37 13 97l64 301h106l-60 -284q-13 -67 -13 -85q0 -37 20 -48t76 -11q36 0 61.5 8t41 20t27 36.5t17 44.5t13.5 58
l57 261h106l-109 -510h-98l11 71h-7q-51 -79 -171 -79z" />
    <glyph glyph-name="uni01D9" unicode="&#x1d9;" horiz-adv-x="725" 
d="M455 964l-74 136l2 6h67l64 -95l97 95h79l-1 -6l-127 -136h-107zM323 794l19 91h92l-19 -91h-92zM530 794l20 91h92l-19 -91h-93zM326 -8q-142 0 -196.5 32.5t-54.5 119.5q0 50 23 160l82 384h113l-88 -416q-17 -85 -17 -112q0 -44 29.5 -59.5t110.5 -15.5q59 0 90.5 6
t53.5 30t31.5 54t23.5 97l89 416h113l-81 -384q-14 -71 -24.5 -111t-28 -80.5t-37 -59.5t-52.5 -35t-75.5 -21t-104.5 -5z" />
    <glyph glyph-name="uni01DA" unicode="&#x1da;" horiz-adv-x="597" 
d="M346 749l-74 136l2 6h67l64 -95l97 95h79l-1 -6l-127 -136h-107zM218 616l19 91h92l-19 -91h-92zM425 616l20 91h92l-19 -91h-93zM204 -8q-88 0 -121.5 28t-33.5 92q0 37 13 97l64 301h106l-60 -284q-13 -67 -13 -85q0 -37 20 -48t76 -11q36 0 61.5 8t41 20t27 36.5
t17 44.5t13.5 58l57 261h106l-109 -510h-98l11 71h-7q-51 -79 -171 -79z" />
    <glyph glyph-name="uni01DB" unicode="&#x1db;" horiz-adv-x="725" 
d="M479 963l-108 138l1 5h105l75 -138l-1 -5h-72zM323 794l19 91h92l-19 -91h-92zM530 794l20 91h92l-19 -91h-93zM326 -8q-142 0 -196.5 32.5t-54.5 119.5q0 50 23 160l82 384h113l-88 -416q-17 -85 -17 -112q0 -44 29.5 -59.5t110.5 -15.5q59 0 90.5 6t53.5 30t31.5 54
t23.5 97l89 416h113l-81 -384q-14 -71 -24.5 -111t-28 -80.5t-37 -59.5t-52.5 -35t-75.5 -21t-104.5 -5z" />
    <glyph glyph-name="uni01DC" unicode="&#x1dc;" horiz-adv-x="597" 
d="M384 748l-108 138l1 5h105l75 -138l-1 -5h-72zM218 616l19 91h92l-19 -91h-92zM425 616l20 91h92l-19 -91h-93zM204 -8q-88 0 -121.5 28t-33.5 92q0 37 13 97l64 301h106l-60 -284q-13 -67 -13 -85q0 -37 20 -48t76 -11q36 0 61.5 8t41 20t27 36.5t17 44.5t13.5 58
l57 261h106l-109 -510h-98l11 71h-7q-51 -79 -171 -79z" />
    <glyph glyph-name="Gcaron" unicode="&#x1e6;" horiz-adv-x="693" 
d="M401 767l-74 136l2 6h67l64 -95l97 95h79l-1 -6l-127 -136h-107zM328 -8q-149 0 -210 38t-61 142q0 63 26 175q24 114 48 177.5t66.5 104.5t99 54t152.5 13q127 0 239 -21l-18 -87q-110 16 -179 16q-47 0 -70 -0.5t-55 -4t-45.5 -9.5t-33.5 -19.5t-29 -31t-22 -46.5
t-21.5 -64t-18.5 -85q-24 -105 -24 -160q0 -61 35.5 -81.5t127.5 -20.5q62 0 126 8l43 200h-146l19 87h252l-78 -365q-115 -20 -223 -20z" />
    <glyph glyph-name="gcaron" unicode="&#x1e7;" horiz-adv-x="606" 
d="M319 589l-74 136l2 6h67l64 -95l97 95h79l-1 -6l-127 -136h-107zM187 -206q-102 0 -176 10l17 83q84 -4 151 -4q56 0 87 5.5t52 24.5t30 44t20 75q1 5 4 17.5t4 16.5h-6q-48 -70 -168 -70q-78 0 -112 27.5t-34 97.5q0 51 17 134q32 152 83 207.5t154 55.5q121 0 144 -74
h6l19 66h97l-95 -447q-11 -53 -20.5 -87t-25 -67.5t-35.5 -52.5t-49.5 -34.5t-69.5 -21.5t-94 -6zM263 89q74 0 108 41q20 25 39 100t19 122q0 39 -23 55.5t-73 16.5q-42 0 -64 -4.5t-39.5 -24t-27.5 -49.5t-22 -90q-16 -77 -16 -107q0 -37 21 -48.5t78 -11.5z" />
    <glyph glyph-name="uni01EA" unicode="&#x1ea;" horiz-adv-x="738" 
d="M445 696q154 0 210 -32t56 -123q0 -61 -30 -200q-11 -49 -17.5 -78t-16 -64.5t-17 -55t-19.5 -43.5t-23 -36t-27.5 -26t-34.5 -20t-42.5 -12.5t-52 -9t-63.5 -3.5q-30 -23 -53 -51.5t-23 -51.5q0 -27 41 -27q9 0 18 1l-13 -62q-16 -2 -49 -2q-91 0 -91 65q0 69 78 128
q-124 4 -171 36.5t-47 116.5q0 56 31 201q13 64 21.5 100t21.5 78t24 62.5t31 44t41 32.5t54.5 18t71.5 11.5t91 2.5zM566 344q28 131 28 181q0 23 -6 37.5t-15 23t-31 12.5t-42.5 5t-60.5 1q-38 0 -57 -0.5t-43.5 -5t-35 -9.5t-25.5 -20t-21.5 -30.5t-17.5 -47t-18 -63
t-18 -84.5q-29 -139 -29 -182q0 -53 31 -65.5t124 -12.5q37 0 56.5 0.5t43.5 5t35 9.5t26 20t21.5 30.5t17.5 47t18.5 63t18.5 84.5z" />
    <glyph glyph-name="uni01EB" unicode="&#x1eb;" horiz-adv-x="576" 
d="M328 518q125 0 170.5 -25.5t45.5 -96.5q0 -49 -20 -141q-10 -46 -15.5 -69t-15 -54.5t-17 -46t-20.5 -33.5t-27 -26.5t-35 -16.5t-46 -12t-59 -4q-29 -21 -52.5 -50.5t-23.5 -52.5q0 -27 41 -27q9 0 18 1l-13 -62q-16 -2 -49 -2q-91 0 -91 65q0 69 78 128
q-94 4 -130 30.5t-36 89.5q0 35 21 142q9 46 15.5 73t16 57.5t18.5 46.5t24 34t32 25.5t42.5 15t56 9.5t71.5 2zM419 255q18 88 18 119q0 36 -23 47.5t-88 11.5q-34 0 -55 -1.5t-39 -11t-26.5 -17t-18 -33.5t-14.5 -46.5t-15 -68.5q-19 -95 -19 -120q0 -36 23 -47t88 -11
q29 0 48.5 2.5t35.5 5t27 14t18.5 20.5t14.5 33.5t11.5 43t13.5 59.5z" />
    <glyph glyph-name="uni01F1" unicode="&#x1f1;" horiz-adv-x="1337" 
d="M44 0l147 688h217q162 0 220 -30.5t58 -122.5q0 -54 -28 -194q-14 -64 -22.5 -99t-21.5 -76.5t-24.5 -61t-31.5 -42.5t-41 -31.5t-55 -17.5t-72.5 -11t-92.5 -2h-253zM702 0l20 89l477 507h-359l20 92h511l-19 -85l-480 -511h376l-20 -92h-526zM178 92h105h66t50 5
t39.5 9.5t28 19.5t23 29t17.5 45.5t18 61t18 82.5q27 124 27 170q0 56 -35.5 69t-144.5 13h-105z" />
    <glyph glyph-name="uni01F2" unicode="&#x1f2;" horiz-adv-x="1235" 
d="M44 0l147 688h217q162 0 220 -30.5t58 -122.5q0 -54 -28 -194q-14 -64 -22.5 -99t-21.5 -76.5t-24.5 -61t-31.5 -42.5t-41 -31.5t-55 -17.5t-72.5 -11t-92.5 -2h-253zM178 92h105h66t50 5t39.5 9.5t28 19.5t23 29t17.5 45.5t18 61t18 82.5q27 124 27 170q0 56 -35.5 69
t-144.5 13h-105zM702 0l16 80l354 345h-267l18 85h414l-17 -80l-353 -345h281l-18 -85h-428z" />
    <glyph glyph-name="uni01F3" unicode="&#x1f3;" horiz-adv-x="1135" 
d="M207 -8q-91 0 -128 29.5t-37 108.5q0 55 17 130q32 153 78.5 205.5t149.5 52.5q69 0 110 -15.5t55 -55.5h6l63 296h106l-158 -743h-98l11 71h-7q-26 -47 -67 -63t-101 -16zM602 0l16 80l354 345h-267l18 85h414l-17 -80l-353 -345h281l-18 -85h-428zM255 80q90 0 122 57
q19 32 37 102.5t18 110.5q0 44 -24 61.5t-82 17.5q-83 0 -109.5 -29t-51.5 -145q-16 -70 -16 -108q0 -42 22.5 -54.5t83.5 -12.5z" />
    <glyph glyph-name="uni01F4" unicode="&#x1f4;" horiz-adv-x="693" 
d="M383 767v5l103 137h108v-5l-137 -137h-74zM328 -8q-149 0 -210 38t-61 142q0 63 26 175q24 114 48 177.5t66.5 104.5t99 54t152.5 13q127 0 239 -21l-18 -87q-110 16 -179 16q-47 0 -70 -0.5t-55 -4t-45.5 -9.5t-33.5 -19.5t-29 -31t-22 -46.5t-21.5 -64t-18.5 -85
q-24 -105 -24 -160q0 -61 35.5 -81.5t127.5 -20.5q62 0 126 8l43 200h-146l19 87h252l-78 -365q-115 -20 -223 -20z" />
    <glyph glyph-name="uni01F5" unicode="&#x1f5;" horiz-adv-x="606" 
d="M282 588l1 5l132 138h115l-1 -5l-166 -138h-81zM187 -206q-102 0 -176 10l17 83q84 -4 151 -4q56 0 87 5.5t52 24.5t30 44t20 75q1 5 4 17.5t4 16.5h-6q-48 -70 -168 -70q-78 0 -112 27.5t-34 97.5q0 51 17 134q32 152 83 207.5t154 55.5q121 0 144 -74h6l19 66h97
l-95 -447q-11 -53 -20.5 -87t-25 -67.5t-35.5 -52.5t-49.5 -34.5t-69.5 -21.5t-94 -6zM263 89q74 0 108 41q20 25 39 100t19 122q0 39 -23 55.5t-73 16.5q-42 0 -64 -4.5t-39.5 -24t-27.5 -49.5t-22 -90q-16 -77 -16 -107q0 -37 21 -48.5t78 -11.5z" />
    <glyph glyph-name="Aringacute" unicode="&#x1fa;" horiz-adv-x="709" 
d="M533 1071h108v-5l-137 -137h-74v5zM605 785q-11 -50 -26.5 -72.5t-54.5 -31.5l111 -681h-112l-30 172h-303l-103 -172h-116l401 681q-44 12 -44 52q0 18 8 52q8 35 14.5 51t22.5 32.5t44 22t75 5.5q69 0 95 -14t26 -45q0 -18 -8 -52zM399 785q-5 -22 -5 -33q0 -15 13 -21
t50 -6q51 0 63.5 10.5t20.5 49.5q5 23 5 33q0 16 -13 21.5t-50 5.5q-49 0 -62 -10.5t-22 -49.5zM237 263h245l-51 316h-6z" />
    <glyph glyph-name="aringacute" unicode="&#x1fb;" horiz-adv-x="590" 
d="M333 841l1 5l132 138h115l-1 -5l-166 -138h-81zM363 575q-69 0 -94.5 13.5t-25.5 44.5q0 20 8 52q8 34 14.5 50.5t22.5 33.5t44 22.5t75 5.5q69 0 95 -14t26 -46q0 -18 -8 -52q-8 -35 -14.5 -51t-22.5 -32t-44.5 -21.5t-75.5 -5.5zM373 625q50 0 62.5 10.5t20.5 49.5
q5 23 5 33q0 16 -13 21.5t-50 5.5q-49 0 -62 -10.5t-22 -49.5q-5 -22 -5 -32q0 -16 13 -22t51 -6zM205 -8q-90 0 -128 30t-38 108q0 43 18 130q32 153 78 205.5t149 52.5q70 0 111 -15.5t54 -55.5h7l20 63h99l-108 -510h-98l11 71h-6q-27 -47 -68.5 -63t-100.5 -16zM253 80
q90 0 122 57q19 32 37 103t18 110q0 44 -24 61.5t-82 17.5q-83 0 -110 -29t-52 -145q-16 -77 -16 -108q0 -42 22.5 -54.5t84.5 -12.5z" />
    <glyph glyph-name="AEacute" unicode="&#x1fc;" horiz-adv-x="990" 
d="M533 767v5l103 137h108v-5l-137 -137h-74zM-29 0l405 688h641l-19 -92h-461l34 -203h334l-20 -91h-300l36 -210h270l-21 -92h-347l-30 172h-303l-103 -172h-116zM237 263h245l-51 316h-6z" />
    <glyph glyph-name="aeacute" unicode="&#x1fd;" horiz-adv-x="883" 
d="M420 588l1 5l132 138h115l-1 -5l-166 -138h-81zM177 -8q-79 0 -116.5 23t-37.5 78q0 21 6 50q19 86 59.5 119.5t131.5 33.5q29 0 86.5 -0.5t86.5 -0.5l5 24q8 48 8 56q0 36 -25.5 45t-104.5 9q-101 0 -155 -9l18 83q94 15 190 15q128 0 160 -49q58 49 180 49
q101 0 140 -27.5t39 -89.5q0 -46 -22 -146l-7 -33h-334q-12 -57 -12 -78q0 -38 28.5 -51t107.5 -13q81 0 161 10l-18 -83q-75 -15 -184 -15q-84 0 -127 16t-59 52q-65 -68 -205 -68zM501 293h231l2 12q8 32 8 64q0 38 -20 49.5t-72 11.5q-79 0 -105 -25t-44 -112zM223 78
q70 0 103 27.5t49 102.5l3 15h-147q-52 0 -69.5 -12.5t-27.5 -59.5q-4 -24 -4 -32q0 -25 19.5 -33t73.5 -8z" />
    <glyph glyph-name="Oslashacute" unicode="&#x1fe;" horiz-adv-x="738" 
d="M618 904l-137 -137h-74v5l103 137h108v-5zM756 743l-78 -96q33 -34 33 -106q0 -61 -30 -200q-11 -52 -18 -82t-17.5 -67.5t-18.5 -56.5t-21 -44t-25.5 -36t-31.5 -25t-39.5 -19t-49.5 -10.5t-61 -7t-74 -1.5q-110 0 -166 14l-50 -61h-97l78 97q-32 32 -32 104
q0 56 31 201q13 64 21.5 100t21.5 78t24 62.5t31 44t41 32.5t54.5 18t71.5 11.5t91 2.5q108 0 164 -14l49 61h98zM174 162q0 -11 1 -16l366 452q-24 6 -102 6q-38 0 -57 -0.5t-43.5 -5t-35 -9.5t-25.5 -20t-21.5 -30.5t-17.5 -47t-18 -63t-18 -84.5q-29 -139 -29 -182z
M594 525q0 12 -1 17l-367 -452q25 -6 103 -6q37 0 56.5 0.5t43.5 5t35 9.5t26 20t21.5 30.5t17.5 47t18.5 63t18.5 84.5q28 131 28 181z" />
    <glyph glyph-name="oslashacute" unicode="&#x1ff;" horiz-adv-x="576" 
d="M519 726l-166 -138h-81l1 5l132 138h115zM514 481q30 -26 30 -85q0 -49 -20 -141q-11 -49 -16.5 -73t-16 -57t-19 -47.5t-23.5 -33.5t-31.5 -25.5t-42 -14.5t-55.5 -10t-71 -2q-78 0 -124 9l-46 -56h-86l68 84q-30 25 -30 84q0 35 21 142q9 46 15.5 73t16 57.5t18.5 46.5
t24 34t32 25.5t42.5 15t56 9.5t71.5 2q76 0 123 -9l45 56h86zM139 135v-10l247 305q-22 3 -60 3q-34 0 -55 -1.5t-39 -11t-26.5 -17t-18 -33.5t-14.5 -46.5t-15 -68.5q-19 -95 -19 -120zM419 255q18 88 18 119q0 8 -1 12l-247 -306q24 -3 61 -3q29 0 48.5 2.5t35.5 5t27 14
t18.5 20.5t14.5 33.5t11.5 43t13.5 59.5z" />
    <glyph glyph-name="uni0200" unicode="&#x200;" horiz-adv-x="709" 
d="M401 767h-71l-86 121l2 5h98l59 -121zM591 767h-69l-87 121l2 5h98l58 -121zM-29 0l405 688h147l112 -688h-112l-30 172h-303l-103 -172h-116zM237 263h245l-51 316h-6z" />
    <glyph glyph-name="uni0201" unicode="&#x201;" horiz-adv-x="590" 
d="M247 589l-114 124v5h92l84 -124v-5h-62zM445 589l-115 124v5h93l82 -124v-5h-60zM205 -8q-90 0 -128 30t-38 108q0 43 18 130q32 153 78 205.5t149 52.5q70 0 111 -15.5t54 -55.5h7l20 63h99l-108 -510h-98l11 71h-6q-27 -47 -68.5 -63t-100.5 -16zM253 80q90 0 122 57
q19 32 37 103t18 110q0 44 -24 61.5t-82 17.5q-83 0 -110 -29t-52 -145q-16 -77 -16 -108q0 -42 22.5 -54.5t84.5 -12.5z" />
    <glyph glyph-name="uni0202" unicode="&#x202;" horiz-adv-x="709" 
d="M491 913q68 0 95 -20.5t27 -59.5q0 -23 -9 -66h-64q6 32 6 42q0 21 -14 30.5t-52 9.5q-28 0 -45.5 -5t-27.5 -17.5t-14 -24.5t-9 -35h-66q8 37 17 59.5t27 44.5t50 32t79 10zM-29 0l405 688h147l112 -688h-112l-30 172h-303l-103 -172h-116zM237 263h245l-51 316h-6z" />
    <glyph glyph-name="uni0203" unicode="&#x203;" horiz-adv-x="590" 
d="M393 734q68 0 95 -20t27 -60q0 -24 -10 -66h-63q6 34 6 43q0 21 -14 30.5t-52 9.5q-28 0 -45.5 -5t-27.5 -17.5t-14 -24.5t-9 -36h-66q15 75 49 110.5t124 35.5zM205 -8q-90 0 -128 30t-38 108q0 43 18 130q32 153 78 205.5t149 52.5q70 0 111 -15.5t54 -55.5h7l20 63h99
l-108 -510h-98l11 71h-6q-27 -47 -68.5 -63t-100.5 -16zM253 80q90 0 122 57q19 32 37 103t18 110q0 44 -24 61.5t-82 17.5q-83 0 -110 -29t-52 -145q-16 -77 -16 -108q0 -42 22.5 -54.5t84.5 -12.5z" />
    <glyph glyph-name="uni0204" unicode="&#x204;" horiz-adv-x="621" 
d="M373 767h-71l-86 121l2 5h98l59 -121zM563 767h-69l-87 121l2 5h98l58 -121zM44 0l147 688h474l-20 -92h-360l-44 -203h311l-19 -91h-310l-46 -210h361l-20 -92h-474z" />
    <glyph glyph-name="uni0205" unicode="&#x205;" horiz-adv-x="576" 
d="M241 589l-114 124v5h92l84 -124v-5h-62zM439 589l-115 124v5h93l82 -124v-5h-60zM250 -8q-115 0 -160 28t-45 97q0 45 20 137q13 62 25 99t32 72.5t49 53.5t72.5 28.5t105.5 10.5q100 0 139.5 -27.5t39.5 -89.5q0 -48 -23 -147l-8 -34h-333q-11 -52 -11 -79
q0 -37 27.5 -49t108.5 -12t161 10l-18 -83q-75 -15 -182 -15zM180 293h231l2 11q9 42 9 67q0 36 -20.5 47.5t-71.5 11.5q-79 0 -105 -25t-45 -112z" />
    <glyph glyph-name="uni0206" unicode="&#x206;" horiz-adv-x="621" 
d="M463 913q68 0 95 -20.5t27 -59.5q0 -23 -9 -66h-64q6 32 6 42q0 21 -14 30.5t-52 9.5q-28 0 -45.5 -5t-27.5 -17.5t-14 -24.5t-9 -35h-66q8 37 17 59.5t27 44.5t50 32t79 10zM44 0l147 688h474l-20 -92h-360l-44 -203h311l-19 -91h-310l-46 -210h361l-20 -92h-474z" />
    <glyph glyph-name="uni0207" unicode="&#x207;" horiz-adv-x="576" 
d="M387 734q68 0 95 -20t27 -60q0 -24 -10 -66h-63q6 34 6 43q0 21 -14 30.5t-52 9.5q-28 0 -45.5 -5t-27.5 -17.5t-14 -24.5t-9 -36h-66q15 75 49 110.5t124 35.5zM250 -8q-115 0 -160 28t-45 97q0 45 20 137q13 62 25 99t32 72.5t49 53.5t72.5 28.5t105.5 10.5
q100 0 139.5 -27.5t39.5 -89.5q0 -48 -23 -147l-8 -34h-333q-11 -52 -11 -79q0 -37 27.5 -49t108.5 -12t161 10l-18 -83q-75 -15 -182 -15zM180 293h231l2 11q9 42 9 67q0 36 -20.5 47.5t-71.5 11.5q-79 0 -105 -25t-45 -112z" />
    <glyph glyph-name="uni0208" unicode="&#x208;" horiz-adv-x="302" 
d="M195 767h-71l-86 121l2 5h98l59 -121zM385 767h-69l-87 121l2 5h98l58 -121zM44 0l147 688h113l-147 -688h-113z" />
    <glyph glyph-name="uni0209" unicode="&#x209;" horiz-adv-x="270" 
d="M87 589l-114 124v5h92l84 -124v-5h-62zM285 589l-115 124v5h93l82 -124v-5h-60zM31 0l108 510h107l-108 -510h-107z" />
    <glyph glyph-name="uni020A" unicode="&#x20a;" horiz-adv-x="302" 
d="M284 913q68 0 95 -20.5t27 -59.5q0 -23 -9 -66h-64q6 32 6 42q0 21 -14 30.5t-52 9.5q-28 0 -45.5 -5t-27.5 -17.5t-14 -24.5t-9 -35h-66q8 37 17 59.5t27 44.5t50 32t79 10zM44 0l147 688h113l-147 -688h-113z" />
    <glyph glyph-name="uni020B" unicode="&#x20b;" horiz-adv-x="270" 
d="M233 734q68 0 95 -20t27 -60q0 -24 -10 -66h-63q6 34 6 43q0 21 -14 30.5t-52 9.5q-28 0 -45.5 -5t-27.5 -17.5t-14 -24.5t-9 -36h-66q15 75 49 110.5t124 35.5zM31 0l108 510h107l-108 -510h-107z" />
    <glyph glyph-name="uni020C" unicode="&#x20c;" horiz-adv-x="738" 
d="M413 767h-71l-86 121l2 5h98l59 -121zM603 767h-69l-87 121l2 5h98l58 -121zM325 -8q-155 0 -211 31.5t-56 122.5q0 56 31 201q13 64 21.5 100t21.5 78t24 62.5t31 44t41 32.5t54.5 18t71.5 11.5t91 2.5q154 0 210 -32t56 -123q0 -61 -30 -200q-11 -52 -18 -82
t-17.5 -67.5t-18.5 -56.5t-21 -44t-25.5 -36t-31.5 -25t-39.5 -19t-49.5 -10.5t-61 -7t-74 -1.5zM329 84q37 0 56.5 0.5t43.5 5t35 9.5t26 20t21.5 30.5t17.5 47t18.5 63t18.5 84.5q28 131 28 181q0 23 -6 37.5t-15 23t-31 12.5t-42.5 5t-60.5 1q-38 0 -57 -0.5t-43.5 -5
t-35 -9.5t-25.5 -20t-21.5 -30.5t-17.5 -47t-18 -63t-18 -84.5q-29 -139 -29 -182q0 -53 31 -65.5t124 -12.5z" />
    <glyph glyph-name="uni020D" unicode="&#x20d;" horiz-adv-x="576" 
d="M240 589l-114 124v5h92l84 -124v-5h-62zM438 589l-115 124v5h93l82 -124v-5h-60zM249 -8q-126 0 -172 25.5t-46 95.5q0 35 21 142q9 46 15.5 73t16 57.5t18.5 46.5t24 34t32 25.5t42.5 15t56 9.5t71.5 2q125 0 170.5 -25.5t45.5 -96.5q0 -49 -20 -141q-11 -49 -16.5 -73
t-16 -57t-19 -47.5t-23.5 -33.5t-31.5 -25.5t-42 -14.5t-55.5 -10t-71 -2zM250 77q29 0 48.5 2.5t35.5 5t27 14t18.5 20.5t14.5 33.5t11.5 43t13.5 59.5q18 88 18 119q0 36 -23 47.5t-88 11.5q-34 0 -55 -1.5t-39 -11t-26.5 -17t-18 -33.5t-14.5 -46.5t-15 -68.5
q-19 -95 -19 -120q0 -36 23 -47t88 -11z" />
    <glyph glyph-name="uni020E" unicode="&#x20e;" horiz-adv-x="738" 
d="M503 913q68 0 95 -20.5t27 -59.5q0 -23 -9 -66h-64q6 32 6 42q0 21 -14 30.5t-52 9.5q-28 0 -45.5 -5t-27.5 -17.5t-14 -24.5t-9 -35h-66q8 37 17 59.5t27 44.5t50 32t79 10zM325 -8q-155 0 -211 31.5t-56 122.5q0 56 31 201q13 64 21.5 100t21.5 78t24 62.5t31 44
t41 32.5t54.5 18t71.5 11.5t91 2.5q154 0 210 -32t56 -123q0 -61 -30 -200q-11 -52 -18 -82t-17.5 -67.5t-18.5 -56.5t-21 -44t-25.5 -36t-31.5 -25t-39.5 -19t-49.5 -10.5t-61 -7t-74 -1.5zM329 84q37 0 56.5 0.5t43.5 5t35 9.5t26 20t21.5 30.5t17.5 47t18.5 63t18.5 84.5
q28 131 28 181q0 23 -6 37.5t-15 23t-31 12.5t-42.5 5t-60.5 1q-38 0 -57 -0.5t-43.5 -5t-35 -9.5t-25.5 -20t-21.5 -30.5t-17.5 -47t-18 -63t-18 -84.5q-29 -139 -29 -182q0 -53 31 -65.5t124 -12.5z" />
    <glyph glyph-name="uni020F" unicode="&#x20f;" horiz-adv-x="576" 
d="M386 734q68 0 95 -20t27 -60q0 -24 -10 -66h-63q6 34 6 43q0 21 -14 30.5t-52 9.5q-28 0 -45.5 -5t-27.5 -17.5t-14 -24.5t-9 -36h-66q15 75 49 110.5t124 35.5zM249 -8q-126 0 -172 25.5t-46 95.5q0 35 21 142q9 46 15.5 73t16 57.5t18.5 46.5t24 34t32 25.5t42.5 15
t56 9.5t71.5 2q125 0 170.5 -25.5t45.5 -96.5q0 -49 -20 -141q-11 -49 -16.5 -73t-16 -57t-19 -47.5t-23.5 -33.5t-31.5 -25.5t-42 -14.5t-55.5 -10t-71 -2zM250 77q29 0 48.5 2.5t35.5 5t27 14t18.5 20.5t14.5 33.5t11.5 43t13.5 59.5q18 88 18 119q0 36 -23 47.5t-88 11.5
q-34 0 -55 -1.5t-39 -11t-26.5 -17t-18 -33.5t-14.5 -46.5t-15 -68.5q-19 -95 -19 -120q0 -36 23 -47t88 -11z" />
    <glyph glyph-name="uni0210" unicode="&#x210;" horiz-adv-x="697" 
d="M381 767h-71l-86 121l2 5h98l59 -121zM571 767h-69l-87 121l2 5h98l58 -121zM44 0l147 688h316q103 0 143.5 -34t40.5 -101q0 -39 -12 -86q-20 -83 -50 -125.5t-96 -60.5l56 -281h-117l-46 267q-7 0 -22.5 -0.5t-23.5 -0.5h-165l-58 -266h-113zM233 356h176
q45 0 73.5 6.5t45 23.5t24 36t14.5 54q8 37 8 60q0 32 -23.5 46.5t-84.5 14.5h-181z" />
    <glyph glyph-name="uni0211" unicode="&#x211;" horiz-adv-x="390" 
d="M147 589l-114 124v5h92l84 -124v-5h-62zM345 589l-115 124v5h93l82 -124v-5h-60zM31 0l108 510h98l-17 -97h6q33 61 78 83t118 22l-21 -101q-104 0 -149.5 -48t-69.5 -159l-46 -210h-105z" />
    <glyph glyph-name="uni0212" unicode="&#x212;" horiz-adv-x="697" 
d="M471 913q68 0 95 -20.5t27 -59.5q0 -23 -9 -66h-64q6 32 6 42q0 21 -14 30.5t-52 9.5q-28 0 -45.5 -5t-27.5 -17.5t-14 -24.5t-9 -35h-66q8 37 17 59.5t27 44.5t50 32t79 10zM44 0l147 688h316q103 0 143.5 -34t40.5 -101q0 -39 -12 -86q-20 -83 -50 -125.5t-96 -60.5
l56 -281h-117l-46 267q-7 0 -22.5 -0.5t-23.5 -0.5h-165l-58 -266h-113zM233 356h176q45 0 73.5 6.5t45 23.5t24 36t14.5 54q8 37 8 60q0 32 -23.5 46.5t-84.5 14.5h-181z" />
    <glyph glyph-name="uni0213" unicode="&#x213;" horiz-adv-x="390" 
d="M293 734q68 0 95 -20t27 -60q0 -24 -10 -66h-63q6 34 6 43q0 21 -14 30.5t-52 9.5q-28 0 -45.5 -5t-27.5 -17.5t-14 -24.5t-9 -36h-66q15 75 49 110.5t124 35.5zM31 0l108 510h98l-17 -97h6q33 61 78 83t118 22l-21 -101q-104 0 -149.5 -48t-69.5 -159l-46 -210h-105z
" />
    <glyph glyph-name="uni0214" unicode="&#x214;" horiz-adv-x="725" 
d="M407 767h-71l-86 121l2 5h98l59 -121zM597 767h-69l-87 121l2 5h98l58 -121zM326 -8q-142 0 -196.5 32.5t-54.5 119.5q0 50 23 160l82 384h113l-88 -416q-17 -85 -17 -112q0 -44 29.5 -59.5t110.5 -15.5q59 0 90.5 6t53.5 30t31.5 54t23.5 97l89 416h113l-81 -384
q-14 -71 -24.5 -111t-28 -80.5t-37 -59.5t-52.5 -35t-75.5 -21t-104.5 -5z" />
    <glyph glyph-name="uni0215" unicode="&#x215;" horiz-adv-x="597" 
d="M243 589l-114 124v5h92l84 -124v-5h-62zM441 589l-115 124v5h93l82 -124v-5h-60zM204 -8q-88 0 -121.5 28t-33.5 92q0 37 13 97l64 301h106l-60 -284q-13 -67 -13 -85q0 -37 20 -48t76 -11q36 0 61.5 8t41 20t27 36.5t17 44.5t13.5 58l57 261h106l-109 -510h-98l11 71h-7
q-51 -79 -171 -79z" />
    <glyph glyph-name="uni0216" unicode="&#x216;" horiz-adv-x="725" 
d="M497 913q68 0 95 -20.5t27 -59.5q0 -23 -9 -66h-64q6 32 6 42q0 21 -14 30.5t-52 9.5q-28 0 -45.5 -5t-27.5 -17.5t-14 -24.5t-9 -35h-66q8 37 17 59.5t27 44.5t50 32t79 10zM326 -8q-142 0 -196.5 32.5t-54.5 119.5q0 50 23 160l82 384h113l-88 -416q-17 -85 -17 -112
q0 -44 29.5 -59.5t110.5 -15.5q59 0 90.5 6t53.5 30t31.5 54t23.5 97l89 416h113l-81 -384q-14 -71 -24.5 -111t-28 -80.5t-37 -59.5t-52.5 -35t-75.5 -21t-104.5 -5z" />
    <glyph glyph-name="uni0217" unicode="&#x217;" horiz-adv-x="597" 
d="M389 734q68 0 95 -20t27 -60q0 -24 -10 -66h-63q6 34 6 43q0 21 -14 30.5t-52 9.5q-28 0 -45.5 -5t-27.5 -17.5t-14 -24.5t-9 -36h-66q15 75 49 110.5t124 35.5zM204 -8q-88 0 -121.5 28t-33.5 92q0 37 13 97l64 301h106l-60 -284q-13 -67 -13 -85q0 -37 20 -48t76 -11
q36 0 61.5 8t41 20t27 36.5t17 44.5t13.5 58l57 261h106l-109 -510h-98l11 71h-7q-51 -79 -171 -79z" />
    <glyph glyph-name="uni0218" unicode="&#x218;" horiz-adv-x="647" 
d="M304 -8q-146 0 -268 15l19 90q132 -13 218 -13q101 0 137 19q28 15 42.5 61.5t14.5 81.5q0 24 -17 32t-70 14l-162 23q-61 7 -85 34.5t-24 80.5q0 40 10 84q11 47 29 80t41.5 53t58.5 31t70.5 14.5t87.5 3.5q145 0 235 -17l-18 -88q-91 13 -206 13q-98 0 -136 -21
q-26 -14 -39.5 -51.5t-13.5 -74.5q0 -23 15 -31.5t56 -13.5l156 -19q34 -5 54 -10t40 -17.5t29 -34.5t9 -56q0 -40 -11 -88q-12 -54 -31.5 -91t-41 -57.5t-56.5 -31t-64.5 -13t-78.5 -2.5zM149 -282l9 46q35 0 47.5 7.5t18.5 32.5l4 17h-46l20 89h107l-13 -61
q-17 -81 -43.5 -106t-103.5 -25z" />
    <glyph glyph-name="uni0219" unicode="&#x219;" horiz-adv-x="519" 
d="M225 -8q-104 0 -206 13l17 80q110 -10 176 -10q68 0 93 14t36 52q8 22 8 35q0 18 -11.5 23.5t-44.5 8.5l-134 17q-47 6 -67 27t-20 59q0 25 9 63q9 39 23.5 65.5t32 42t46.5 23.5t56.5 10.5t71.5 2.5q104 0 179 -14l-16 -80q-85 11 -158 11q-32 0 -48 -1t-35.5 -5.5
t-30.5 -16t-17 -29.5q-10 -20 -10 -43q0 -18 11 -24t43 -9l133 -17q48 -6 69.5 -23t21.5 -61q0 -26 -9 -65q-20 -93 -67.5 -121t-151.5 -28zM79 -279l10 46q38 0 52 8.5t20 35.5l4 17h-47l23 110h115l-18 -83q-17 -83 -45.5 -108.5t-113.5 -25.5z" />
    <glyph glyph-name="uni021A" unicode="&#x21a;" horiz-adv-x="600" 
d="M188 0l126 591h-217l21 97h547l-21 -97h-216l-126 -591h-114zM119 -282l9 46q35 0 47.5 7.5t18.5 32.5l4 17h-46l20 89h107l-13 -61q-17 -81 -43.5 -106t-103.5 -25z" />
    <glyph glyph-name="uni021B" unicode="&#x21b;" horiz-adv-x="388" 
d="M302 0q-122 0 -167 17t-45 79q0 32 10 73l55 256h-104l18 85h103l31 148h107l-31 -148h122l-18 -85h-122l-52 -246q-9 -45 -9 -59q0 -26 24.5 -34t94.5 -8zM59 -279l10 46q38 0 52 8.5t20 35.5l4 17h-47l23 110h115l-18 -83q-17 -83 -45.5 -108.5t-113.5 -25.5z" />
    <glyph glyph-name="uni022A" unicode="&#x22a;" horiz-adv-x="738" 
d="M353 991l16 71h326l-15 -71h-327zM329 794l19 91h92l-19 -91h-92zM536 794l20 91h92l-19 -91h-93zM325 -8q-155 0 -211 31.5t-56 122.5q0 56 31 201q13 64 21.5 100t21.5 78t24 62.5t31 44t41 32.5t54.5 18t71.5 11.5t91 2.5q154 0 210 -32t56 -123q0 -61 -30 -200
q-11 -52 -18 -82t-17.5 -67.5t-18.5 -56.5t-21 -44t-25.5 -36t-31.5 -25t-39.5 -19t-49.5 -10.5t-61 -7t-74 -1.5zM329 84q37 0 56.5 0.5t43.5 5t35 9.5t26 20t21.5 30.5t17.5 47t18.5 63t18.5 84.5q28 131 28 181q0 23 -6 37.5t-15 23t-31 12.5t-42.5 5t-60.5 1
q-38 0 -57 -0.5t-43.5 -5t-35 -9.5t-25.5 -20t-21.5 -30.5t-17.5 -47t-18 -63t-18 -84.5q-29 -139 -29 -182q0 -53 31 -65.5t124 -12.5z" />
    <glyph glyph-name="uni022B" unicode="&#x22b;" horiz-adv-x="576" 
d="M236 776l16 71h326l-15 -71h-327zM215 616l19 91h92l-19 -91h-92zM422 616l20 91h92l-19 -91h-93zM249 -8q-126 0 -172 25.5t-46 95.5q0 35 21 142q9 46 15.5 73t16 57.5t18.5 46.5t24 34t32 25.5t42.5 15t56 9.5t71.5 2q125 0 170.5 -25.5t45.5 -96.5q0 -49 -20 -141
q-11 -49 -16.5 -73t-16 -57t-19 -47.5t-23.5 -33.5t-31.5 -25.5t-42 -14.5t-55.5 -10t-71 -2zM250 77q29 0 48.5 2.5t35.5 5t27 14t18.5 20.5t14.5 33.5t11.5 43t13.5 59.5q18 88 18 119q0 36 -23 47.5t-88 11.5q-34 0 -55 -1.5t-39 -11t-26.5 -17t-18 -33.5t-14.5 -46.5
t-15 -68.5q-19 -95 -19 -120q0 -36 23 -47t88 -11z" />
    <glyph glyph-name="uni022C" unicode="&#x22c;" horiz-adv-x="738" 
d="M339 972l16 71h326l-15 -71h-327zM288 773q14 69 34.5 96.5t72.5 27.5q33 0 103 -22q52 -18 71 -18q20 0 27 10t13 41h60q-14 -69 -34.5 -96.5t-72.5 -27.5q-37 0 -103 22q-53 17 -71 17q-19 0 -26 -9.5t-14 -40.5h-60zM325 -8q-155 0 -211 31.5t-56 122.5q0 56 31 201
q13 64 21.5 100t21.5 78t24 62.5t31 44t41 32.5t54.5 18t71.5 11.5t91 2.5q154 0 210 -32t56 -123q0 -61 -30 -200q-11 -52 -18 -82t-17.5 -67.5t-18.5 -56.5t-21 -44t-25.5 -36t-31.5 -25t-39.5 -19t-49.5 -10.5t-61 -7t-74 -1.5zM329 84q37 0 56.5 0.5t43.5 5t35 9.5
t26 20t21.5 30.5t17.5 47t18.5 63t18.5 84.5q28 131 28 181q0 23 -6 37.5t-15 23t-31 12.5t-42.5 5t-60.5 1q-38 0 -57 -0.5t-43.5 -5t-35 -9.5t-25.5 -20t-21.5 -30.5t-17.5 -47t-18 -63t-18 -84.5q-29 -139 -29 -182q0 -53 31 -65.5t124 -12.5z" />
    <glyph glyph-name="uni022D" unicode="&#x22d;" horiz-adv-x="576" 
d="M234 792l16 71h326l-15 -71h-327zM178 595q14 69 34.5 96.5t72.5 27.5q33 0 103 -22q52 -18 71 -18q20 0 27 10t13 41h60q-14 -69 -34.5 -96.5t-72.5 -27.5q-39 0 -103 22q-53 17 -71 17q-20 0 -26.5 -9.5t-13.5 -40.5h-60zM249 -8q-126 0 -172 25.5t-46 95.5
q0 35 21 142q9 46 15.5 73t16 57.5t18.5 46.5t24 34t32 25.5t42.5 15t56 9.5t71.5 2q125 0 170.5 -25.5t45.5 -96.5q0 -49 -20 -141q-11 -49 -16.5 -73t-16 -57t-19 -47.5t-23.5 -33.5t-31.5 -25.5t-42 -14.5t-55.5 -10t-71 -2zM250 77q29 0 48.5 2.5t35.5 5t27 14
t18.5 20.5t14.5 33.5t11.5 43t13.5 59.5q18 88 18 119q0 36 -23 47.5t-88 11.5q-34 0 -55 -1.5t-39 -11t-26.5 -17t-18 -33.5t-14.5 -46.5t-15 -68.5q-19 -95 -19 -120q0 -36 23 -47t88 -11z" />
    <glyph glyph-name="uni0230" unicode="&#x230;" horiz-adv-x="738" 
d="M353 967l16 71h326l-15 -71h-327zM438 794l19 91h92l-18 -91h-93zM325 -8q-155 0 -211 31.5t-56 122.5q0 56 31 201q13 64 21.5 100t21.5 78t24 62.5t31 44t41 32.5t54.5 18t71.5 11.5t91 2.5q154 0 210 -32t56 -123q0 -61 -30 -200q-11 -52 -18 -82t-17.5 -67.5
t-18.5 -56.5t-21 -44t-25.5 -36t-31.5 -25t-39.5 -19t-49.5 -10.5t-61 -7t-74 -1.5zM329 84q37 0 56.5 0.5t43.5 5t35 9.5t26 20t21.5 30.5t17.5 47t18.5 63t18.5 84.5q28 131 28 181q0 23 -6 37.5t-15 23t-31 12.5t-42.5 5t-60.5 1q-38 0 -57 -0.5t-43.5 -5t-35 -9.5
t-25.5 -20t-21.5 -30.5t-17.5 -47t-18 -63t-18 -84.5q-29 -139 -29 -182q0 -53 31 -65.5t124 -12.5z" />
    <glyph glyph-name="uni0231" unicode="&#x231;" horiz-adv-x="576" 
d="M238 789l16 71h326l-15 -71h-327zM318 616l19 91h92l-18 -91h-93zM249 -8q-126 0 -172 25.5t-46 95.5q0 35 21 142q9 46 15.5 73t16 57.5t18.5 46.5t24 34t32 25.5t42.5 15t56 9.5t71.5 2q125 0 170.5 -25.5t45.5 -96.5q0 -49 -20 -141q-11 -49 -16.5 -73t-16 -57
t-19 -47.5t-23.5 -33.5t-31.5 -25.5t-42 -14.5t-55.5 -10t-71 -2zM250 77q29 0 48.5 2.5t35.5 5t27 14t18.5 20.5t14.5 33.5t11.5 43t13.5 59.5q18 88 18 119q0 36 -23 47.5t-88 11.5q-34 0 -55 -1.5t-39 -11t-26.5 -17t-18 -33.5t-14.5 -46.5t-15 -68.5q-19 -95 -19 -120
q0 -36 23 -47t88 -11z" />
    <glyph glyph-name="uni0232" unicode="&#x232;" horiz-adv-x="640" 
d="M262 794l16 71h326l-15 -71h-327zM203 0l55 255l-161 433h116l119 -322h7l257 322h121l-346 -433l-55 -255h-113z" />
    <glyph glyph-name="uni0233" unicode="&#x233;" horiz-adv-x="616" 
d="M222 616l16 71h326l-15 -71h-327zM193 -206q-97 0 -173 9l18 84q95 -4 149 -4t85.5 6t50.5 26t27.5 42.5t18.5 69.5l9 40h-7q-49 -71 -172 -71q-77 0 -108 25t-31 79q0 39 12 93l68 317h106l-59 -275q-14 -65 -14 -93q0 -34 19 -43.5t72 -9.5q40 0 66 9.5t42.5 32.5
t25.5 48.5t18 69.5l56 261h106l-96 -450q-17 -79 -33 -123t-47.5 -80t-81 -49.5t-127.5 -13.5z" />
    <glyph glyph-name="uni0237" unicode="&#x237;" horiz-adv-x="270" 
d="M-103 -200l17 78q63 0 80.5 10.5t24.5 44.5l123 577h107l-118 -555q-8 -39 -16 -64t-22.5 -43t-27.5 -27t-41.5 -14t-53 -6t-73.5 -1z" />
    <glyph glyph-name="uni0259" unicode="&#x259;" horiz-adv-x="577" 
d="M327 518q115 0 159.5 -28t44.5 -97q0 -45 -20 -137q-13 -62 -25 -99.5t-32 -72.5t-48.5 -53t-72 -28.5t-105.5 -10.5q-101 0 -140 27t-39 90q0 53 22 147l8 34h333q12 57 12 79q0 37 -28 49t-109 12t-161 -10l18 83q75 15 183 15zM396 217h-230l-3 -11q-9 -50 -9 -67
q0 -36 20.5 -47.5t72.5 -11.5q78 0 104 25t45 112z" />
    <glyph glyph-name="uni0272" unicode="&#x272;" horiz-adv-x="614" 
d="M-105 -200l17 78q44 0 65.5 6t28 16t11.5 33l122 577h98l-11 -71h7q51 79 172 79q87 0 120.5 -28t33.5 -91q0 -37 -13 -97l-64 -302h-105l60 284q13 67 13 85q0 37 -20.5 48t-75.5 11q-36 0 -61.5 -8t-41 -20t-27.5 -36t-17.5 -45t-13.5 -58l-66 -306q-6 -29 -11.5 -49.5
t-15 -37.5t-17 -27.5t-23 -18.5t-27.5 -12t-37 -6.5t-44.5 -3t-56.5 -0.5z" />
    <glyph glyph-name="uni02B9" unicode="&#x2b9;" horiz-adv-x="120" 
d="M27 380l80 308h105l-32 -131l-75 -177h-78z" />
    <glyph glyph-name="uni02BA" unicode="&#x2ba;" horiz-adv-x="294" 
d="M27 380l80 308h105l-32 -131l-75 -177h-78zM200 380l80 308h106l-33 -131l-74 -177h-79z" />
    <glyph glyph-name="uni02BC" unicode="&#x2bc;" horiz-adv-x="131" 
d="M59 529l9 44q40 0 53 13t21 49l4 17h-43l20 91h112l-16 -75q-9 -42 -16.5 -63.5t-24.5 -41.5t-45 -27t-74 -7z" />
    <glyph glyph-name="circumflex" unicode="&#x2c6;" horiz-adv-x="349" 
d="M92 589l1 6l130 136h103l75 -136l-1 -6h-65l-66 92l-100 -92h-77z" />
    <glyph glyph-name="caron" unicode="&#x2c7;" horiz-adv-x="348" 
d="M194 589l-74 136l2 6h67l65 -95l96 95h80l-2 -6l-127 -136h-107z" />
    <glyph glyph-name="uni02C9" unicode="&#x2c9;" horiz-adv-x="264" 
d="M48 616l17 71h326l-16 -71h-327z" />
    <glyph glyph-name="breve" unicode="&#x2d8;" horiz-adv-x="326" 
d="M234 585q-68 0 -95 20t-27 60q0 24 10 66h63q-6 -34 -6 -43q0 -21 14 -30.5t52 -9.5q28 0 45.5 5t27.5 17.5t14 24.5t9 36h66q-15 -75 -49 -110.5t-124 -35.5z" />
    <glyph glyph-name="dotaccent" unicode="&#x2d9;" horiz-adv-x="134" 
d="M97 616l19 91h93l-18 -91h-94z" />
    <glyph glyph-name="ring" unicode="&#x2da;" horiz-adv-x="311" 
d="M224 575q-69 0 -94.5 13.5t-25.5 44.5q0 20 8 52q9 35 15 51t22.5 33t44 22.5t74.5 5.5q69 0 95 -14t26 -46q0 -18 -8 -52q-8 -35 -14.5 -51t-22.5 -32t-44.5 -21.5t-75.5 -5.5zM234 625q50 0 63 11t21 49q5 23 5 33q0 16 -13.5 21.5t-50.5 5.5q-49 0 -62 -10.5
t-22 -49.5q-5 -22 -5 -32q0 -16 13 -22t51 -6z" />
    <glyph glyph-name="ogonek" unicode="&#x2db;" horiz-adv-x="197" 
d="M32 -196q-91 0 -91 65q0 79 103 145l78 -10q-31 -20 -59 -52.5t-28 -57.5q0 -27 41 -27q9 0 18 1l-13 -62q-16 -2 -49 -2z" />
    <glyph glyph-name="tilde" unicode="&#x2dc;" horiz-adv-x="392" 
d="M93 595q14 69 34.5 96.5t72.5 27.5q33 0 103 -22q52 -18 71 -18q20 0 27 10t13 41h60q-14 -69 -34.5 -96.5t-72.5 -27.5q-37 0 -103 22q-53 17 -71 17q-19 0 -26 -9.5t-14 -40.5h-60z" />
    <glyph glyph-name="hungarumlaut" unicode="&#x2dd;" horiz-adv-x="410" 
d="M92 589v5l105 121h99v-5l-134 -121h-70zM282 589v5l107 121h98v-5l-134 -121h-71z" />
    <glyph glyph-name="gravecomb" unicode="&#x300;" 
d="M-1 588l-108 138l1 5h105l75 -138l-1 -5h-72z" />
    <glyph glyph-name="acutecomb" unicode="&#x301;" 
d="M-146 588l1 5l132 138h115l-1 -5l-166 -138h-81z" />
    <glyph glyph-name="uni0302" unicode="&#x302;" 
d="M-237 589l1 6l130 136h103l74 -136v-6h-65l-66 92l-100 -92h-77z" />
    <glyph glyph-name="tildecomb" unicode="&#x303;" 
d="M-279 595q14 69 34.5 96.5t72.5 27.5q33 0 103 -22q52 -18 71 -18q20 0 27 10t13 41h60q-14 -69 -34.5 -96.5t-72.5 -27.5q-39 0 -103 22q-53 17 -71 17q-20 0 -26.5 -9.5t-13.5 -40.5h-60z" />
    <glyph glyph-name="uni0304" unicode="&#x304;" 
d="M-250 616l16 71h326l-15 -71h-327z" />
    <glyph glyph-name="uni0306" unicode="&#x306;" 
d="M-72 585q-68 0 -95 20t-27 60q0 24 10 66h63q-6 -34 -6 -43q0 -21 14 -30.5t52 -9.5q28 0 45.5 5t27.5 17.5t14 24.5t9 36h66q-15 -75 -49 -110.5t-124 -35.5z" />
    <glyph glyph-name="uni0307" unicode="&#x307;" 
d="M-17 616l19 91h92l-18 -91h-93z" />
    <glyph glyph-name="uni0308" unicode="&#x308;" 
d="M-223 616l19 91h92l-19 -91h-92zM-16 616l20 91h92l-19 -91h-93z" />
    <glyph glyph-name="hookabovecomb" unicode="&#x309;" 
d="M-116 575l2 9q6 27 17 37.5t40 20.5l23 8q4 1 11 3.5t10 3.5l7.5 2.5t6.5 2.5t5 3t4 3l3 3t2.5 4t1.5 5l2 6q2 8 2 11q0 17 -15 20.5t-59 3.5q-51 0 -104 -5l12 52q61 9 122 9q63 0 90.5 -10.5t27.5 -46.5q0 -10 -3 -27q-6 -35 -23 -50t-58 -27l-23 -6q-27 -8 -34 -13.5
t-10 -21.5h-60z" />
    <glyph glyph-name="uni030A" unicode="&#x30a;" 
d="M-66 575q-69 0 -94.5 13.5t-25.5 44.5q0 20 8 52q8 34 14.5 50.5t22.5 33.5t44 22.5t75 5.5q69 0 95 -14t26 -46q0 -18 -8 -52q-8 -35 -14.5 -51t-22.5 -32t-44.5 -21.5t-75.5 -5.5zM-56 625q50 0 62.5 10.5t20.5 49.5q5 23 5 33q0 16 -13 21.5t-50 5.5q-49 0 -62 -10.5
t-22 -49.5q-5 -22 -5 -32q0 -16 13 -22t51 -6z" />
    <glyph glyph-name="uni030B" unicode="&#x30b;" 
d="M-288 589v5l105 121h99v-5l-134 -121h-70zM-98 589v5l107 121h98v-5l-134 -121h-71z" />
    <glyph glyph-name="uni030C" unicode="&#x30c;" 
d="M-134 589l-74 136l2 6h67l64 -95l97 95h79l-1 -6l-127 -136h-107z" />
    <glyph glyph-name="uni030F" unicode="&#x30f;" 
d="M-187 589l-114 124v5h92l84 -124v-5h-62zM11 589l-115 124v5h93l82 -124v-5h-60z" />
    <glyph glyph-name="uni0311" unicode="&#x311;" 
d="M-42 734q68 0 95 -20t27 -60q0 -24 -10 -66h-63q6 34 6 43q0 21 -14 30.5t-52 9.5q-28 0 -45.5 -5t-27.5 -17.5t-14 -24.5t-9 -36h-66q15 75 49 110.5t124 35.5z" />
    <glyph glyph-name="uni0312" unicode="&#x312;" 
d="M-60 589l17 80q16 76 45 100t112 24l-9 -44q-39 0 -52.5 -9.5t-19.5 -38.5l-3 -15h42l-21 -97h-111z" />
    <glyph glyph-name="uni031B" unicode="&#x31b;" 
d="M-144 464l9 46h55q38 0 51 13t22 52l6 29h74l-4 -22q-14 -71 -44.5 -94.5t-113.5 -23.5h-55z" />
    <glyph glyph-name="dotbelowcomb" unicode="&#x323;" 
d="M-184 -196l19 87h87l-18 -87h-88z" />
    <glyph glyph-name="uni0324" unicode="&#x324;" 
d="M-374 -176l19 91h92l-19 -91h-92zM-167 -176l20 91h92l-19 -91h-93z" />
    <glyph glyph-name="uni0326" unicode="&#x326;" 
d="M-244 -279l10 46q38 0 52 8.5t20 35.5l4 17h-47l23 110h115l-18 -83q-17 -83 -45.5 -108.5t-113.5 -25.5z" />
    <glyph glyph-name="uni0327" unicode="&#x327;" 
d="M-236 -190v5l113 203h73v-5l-84 -203h-102z" />
    <glyph glyph-name="uni0328" unicode="&#x328;" 
d="M-145 -196q-91 0 -91 65q0 79 103 145l78 -10q-31 -20 -59 -52.5t-28 -57.5q0 -27 41 -27q9 0 18 1l-13 -62q-16 -2 -49 -2z" />
    <glyph glyph-name="uni032E" unicode="&#x32e;" 
d="M-243 -220q-68 0 -95 20t-27 60q0 24 10 66h63q-6 -34 -6 -43q0 -21 14 -30.5t52 -9.5q28 0 45.5 5t27.5 17.5t14 24.5t9 36h66q-15 -75 -49 -110.5t-124 -35.5z" />
    <glyph glyph-name="uni0331" unicode="&#x331;" 
d="M-358 -188l16 71h326l-15 -71h-327z" />
    <glyph glyph-name="uni0335" unicode="&#x335;" 
d="M-278 308v82h289v-82h-289z" />
    <glyph glyph-name="uni0336" unicode="&#x336;" 
d="M-511 481v81h559v-81h-559z" />
    <glyph glyph-name="uni0394" unicode="&#x394;" horiz-adv-x="683" 
d="M-30 0l394 688h147l102 -688h-643zM138 96h355l-70 490h-5z" />
    <glyph glyph-name="uni03A9" unicode="&#x3a9;" horiz-adv-x="714" 
d="M17 0l21 96h14l107 -24l1 5q-84 37 -84 152q0 49 24 164q16 80 33.5 129.5t42 86t62.5 54.5t87 25.5t125 7.5q134 0 189.5 -34t55.5 -115q0 -61 -26 -178q-25 -121 -67.5 -192.5t-121.5 -99.5l-1 -5l117 24h14l-20 -96h-233l18 89q78 9 111 63t67 210q25 118 25 156
q0 51 -32 66.5t-123 15.5q-42 0 -67 -2t-47.5 -12.5t-34.5 -23.5t-25 -44t-21 -63.5t-21 -92.5q-26 -125 -26 -175q0 -48 20 -70.5t68 -27.5l-19 -89h-233z" />
    <glyph glyph-name="uni03BC" unicode="&#x3bc;" horiz-adv-x="614" 
d="M-9 -189l149 699h73l-62 -292q-14 -68 -14 -91q0 -42 24 -54.5t89 -12.5q34 0 60 5.5t44 19.5t30 27t22 40t15 46t13 55l55 257h74l-109 -510h-65l11 74h-5q-49 -82 -176 -82q-72 0 -110 28l-45 -209h-73z" />
    <glyph glyph-name="pi" unicode="&#x3c0;" horiz-adv-x="608" 
d="M27 0l108 510h446l-108 -510h-110l90 425h-225l-90 -425h-111z" />
    <glyph glyph-name="uni1E0C" unicode="&#x1e0c;" horiz-adv-x="707" 
d="M44 0l147 688h217q162 0 220 -30.5t58 -122.5q0 -54 -28 -194q-14 -64 -22.5 -99t-21.5 -76.5t-24.5 -61t-31.5 -42.5t-41 -31.5t-55 -17.5t-72.5 -11t-92.5 -2h-253zM178 92h105h66t50 5t39.5 9.5t28 19.5t23 29t17.5 45.5t18 61t18 82.5q27 124 27 170q0 56 -35.5 69
t-144.5 13h-105zM215 -196l19 87h87l-18 -87h-88z" />
    <glyph glyph-name="uni1E0D" unicode="&#x1e0d;" horiz-adv-x="607" 
d="M207 -8q-91 0 -128 29.5t-37 108.5q0 55 17 130q32 153 78.5 205.5t149.5 52.5q69 0 110 -15.5t55 -55.5h6l63 296h106l-158 -743h-98l11 71h-7q-26 -47 -67 -63t-101 -16zM255 80q90 0 122 57q19 32 37 102.5t18 110.5q0 44 -24 61.5t-82 17.5q-83 0 -109.5 -29
t-51.5 -145q-16 -70 -16 -108q0 -42 22.5 -54.5t83.5 -12.5zM163 -196l19 87h87l-18 -87h-88z" />
    <glyph glyph-name="uni1E24" unicode="&#x1e24;" horiz-adv-x="748" 
d="M44 0l147 688h113l-62 -292h333l62 292h114l-147 -688h-114l63 297h-332l-64 -297h-113zM235 -196l19 87h87l-18 -87h-88z" />
    <glyph glyph-name="uni1E25" unicode="&#x1e25;" horiz-adv-x="614" 
d="M31 0l157 743h106l-63 -297h6q51 72 167 72q88 0 121.5 -28t33.5 -91q0 -37 -13 -97l-64 -302h-105l60 284q13 67 13 85q0 37 -20.5 48t-75.5 11q-44 0 -72.5 -10.5t-45.5 -35.5t-25.5 -50t-17.5 -71l-57 -261h-105zM163 -196l19 87h87l-18 -87h-88z" />
    <glyph glyph-name="uni1E44" unicode="&#x1e44;" horiz-adv-x="749" 
d="M443 794l19 91h92l-18 -91h-93zM44 0l147 688h116l225 -487h6l105 487h109l-147 -688h-107l-230 507h-7l-108 -507h-109z" />
    <glyph glyph-name="uni1E45" unicode="&#x1e45;" horiz-adv-x="614" 
d="M340 616l19 91h92l-18 -91h-93zM31 0l108 510h98l-11 -71h7q51 79 172 79q87 0 120.5 -28t33.5 -91q0 -37 -13 -97l-64 -302h-105l60 284q13 67 13 85q0 37 -20.5 48t-75.5 11q-36 0 -61.5 -8t-41 -20t-27.5 -36t-17.5 -45t-13.5 -58l-57 -261h-105z" />
    <glyph glyph-name="uni1E5A" unicode="&#x1e5a;" horiz-adv-x="697" 
d="M44 0l147 688h316q103 0 143.5 -34t40.5 -101q0 -39 -12 -86q-20 -83 -50 -125.5t-96 -60.5l56 -281h-117l-46 267q-7 0 -22.5 -0.5t-23.5 -0.5h-165l-58 -266h-113zM233 356h176q45 0 73.5 6.5t45 23.5t24 36t14.5 54q8 37 8 60q0 32 -23.5 46.5t-84.5 14.5h-181z
M210 -196l19 87h87l-18 -87h-88z" />
    <glyph glyph-name="uni1E5B" unicode="&#x1e5b;" horiz-adv-x="390" 
d="M31 0l108 510h98l-17 -97h6q33 61 78 83t118 22l-21 -101q-104 0 -149.5 -48t-69.5 -159l-46 -210h-105zM-5 -196l19 87h87l-18 -87h-88z" />
    <glyph glyph-name="uni1E62" unicode="&#x1e62;" horiz-adv-x="647" 
d="M304 -8q-146 0 -268 15l19 90q132 -13 218 -13q101 0 137 19q28 15 42.5 61.5t14.5 81.5q0 24 -17 32t-70 14l-162 23q-61 7 -85 34.5t-24 80.5q0 40 10 84q11 47 29 80t41.5 53t58.5 31t70.5 14.5t87.5 3.5q145 0 235 -17l-18 -88q-91 13 -206 13q-98 0 -136 -21
q-26 -14 -39.5 -51.5t-13.5 -74.5q0 -23 15 -31.5t56 -13.5l156 -19q34 -5 54 -10t40 -17.5t29 -34.5t9 -56q0 -40 -11 -88q-12 -54 -31.5 -91t-41 -57.5t-56.5 -31t-64.5 -13t-78.5 -2.5zM185 -196l19 87h87l-18 -87h-88z" />
    <glyph glyph-name="uni1E63" unicode="&#x1e63;" horiz-adv-x="519" 
d="M225 -8q-104 0 -206 13l17 80q110 -10 176 -10q68 0 93 14t36 52q8 22 8 35q0 18 -11.5 23.5t-44.5 8.5l-134 17q-47 6 -67 27t-20 59q0 25 9 63q9 39 23.5 65.5t32 42t46.5 23.5t56.5 10.5t71.5 2.5q104 0 179 -14l-16 -80q-85 11 -158 11q-32 0 -48 -1t-35.5 -5.5
t-30.5 -16t-17 -29.5q-10 -20 -10 -43q0 -18 11 -24t43 -9l133 -17q48 -6 69.5 -23t21.5 -61q0 -26 -9 -65q-20 -93 -67.5 -121t-151.5 -28zM119 -196l19 87h87l-18 -87h-88z" />
    <glyph glyph-name="uni1E6C" unicode="&#x1e6c;" horiz-adv-x="600" 
d="M188 0l126 591h-217l21 97h547l-21 -97h-216l-126 -591h-114zM155 -196l19 87h87l-18 -87h-88z" />
    <glyph glyph-name="uni1E6D" unicode="&#x1e6d;" horiz-adv-x="388" 
d="M302 0q-122 0 -167 17t-45 79q0 32 10 73l55 256h-104l18 85h103l31 148h107l-31 -148h122l-18 -85h-122l-52 -246q-9 -45 -9 -59q0 -26 24.5 -34t94.5 -8zM99 -196l19 87h87l-18 -87h-88z" />
    <glyph glyph-name="Wgrave" unicode="&#x1e80;" horiz-adv-x="1014" 
d="M586 766l-108 138l1 5h105l75 -138l-1 -5h-72zM158 0l-36 688h112l26 -543h7l272 543h116l43 -543h7l253 543h118l-331 -688h-136l-46 510h-6l-263 -510h-136z" />
    <glyph glyph-name="wgrave" unicode="&#x1e81;" horiz-adv-x="847" 
d="M474 588l-108 138l1 5h105l75 -138l-1 -5h-72zM132 0l-47 510h102l31 -394h8l201 394h99l36 -394h9l196 394h108l-266 -510h-125l-37 344h-7l-182 -344h-126z" />
    <glyph glyph-name="Wacute" unicode="&#x1e82;" horiz-adv-x="1014" 
d="M544 767v5l103 137h108v-5l-137 -137h-74zM158 0l-36 688h112l26 -543h7l272 543h116l43 -543h7l253 543h118l-331 -688h-136l-46 510h-6l-263 -510h-136z" />
    <glyph glyph-name="wacute" unicode="&#x1e83;" horiz-adv-x="847" 
d="M399 588l1 5l132 138h115l-1 -5l-166 -138h-81zM132 0l-47 510h102l31 -394h8l201 394h99l36 -394h9l196 394h108l-266 -510h-125l-37 344h-7l-182 -344h-126z" />
    <glyph glyph-name="Wdieresis" unicode="&#x1e84;" horiz-adv-x="1014" 
d="M466 794l19 91h92l-19 -91h-92zM673 794l20 91h92l-19 -91h-93zM158 0l-36 688h112l26 -543h7l272 543h116l43 -543h7l253 543h118l-331 -688h-136l-46 510h-6l-263 -510h-136z" />
    <glyph glyph-name="wdieresis" unicode="&#x1e85;" horiz-adv-x="847" 
d="M342 616l19 91h92l-19 -91h-92zM549 616l20 91h92l-19 -91h-93zM132 0l-47 510h102l31 -394h8l201 394h99l36 -394h9l196 394h108l-266 -510h-125l-37 344h-7l-182 -344h-126z" />
    <glyph glyph-name="uni1E92" unicode="&#x1e92;" horiz-adv-x="630" 
d="M-5 0l20 89l477 507h-359l20 92h511l-19 -85l-480 -511h376l-20 -92h-526zM190 -196l19 87h87l-18 -87h-88z" />
    <glyph glyph-name="uni1E93" unicode="&#x1e93;" horiz-adv-x="528" 
d="M-5 0l16 80l354 345h-267l18 85h414l-17 -80l-353 -345h281l-18 -85h-428zM138 -196l19 87h87l-18 -87h-88z" />
    <glyph glyph-name="uni1E9E" unicode="&#x1e9e;" horiz-adv-x="713" 
d="M365 -8q-73 0 -140 19l19 89q74 -12 128 -12q80 0 110 20.5t44 83.5q7 25 7 46q0 35 -21 48.5t-69 13.5h-109l17 82l212 208q-46 10 -100 10q-48 0 -76 -2t-54 -12.5t-39 -24.5t-27.5 -46t-23.5 -67.5t-22 -98.5l-74 -349h-113l87 410q18 87 40 138.5t60.5 86.5t93.5 48
t141 13q147 0 246 -34l-18 -83l-204 -200h19q80 -2 115 -29.5t35 -91.5q0 -28 -10 -76q-20 -99 -85 -144.5t-189 -45.5z" />
    <glyph glyph-name="uni1EA0" unicode="&#x1ea0;" horiz-adv-x="709" 
d="M-29 0l405 688h147l112 -688h-112l-30 172h-303l-103 -172h-116zM237 263h245l-51 316h-6zM226 -196l19 87h87l-18 -87h-88z" />
    <glyph glyph-name="uni1EA1" unicode="&#x1ea1;" horiz-adv-x="590" 
d="M205 -8q-90 0 -128 30t-38 108q0 43 18 130q32 153 78 205.5t149 52.5q70 0 111 -15.5t54 -55.5h7l20 63h99l-108 -510h-98l11 71h-6q-27 -47 -68.5 -63t-100.5 -16zM253 80q90 0 122 57q19 32 37 103t18 110q0 44 -24 61.5t-82 17.5q-83 0 -110 -29t-52 -145
q-16 -77 -16 -108q0 -42 22.5 -54.5t84.5 -12.5zM154 -196l19 87h87l-18 -87h-88z" />
    <glyph glyph-name="uni1EA2" unicode="&#x1ea2;" horiz-adv-x="709" 
d="M407 753l2 9q6 27 17 37.5t40 20.5l23 8q4 1 11 3.5t10 3.5l7.5 2.5t6.5 2.5t5 3t4 3l3 3t2.5 4t1.5 5l2 6q2 8 2 11q0 17 -15 20.5t-59 3.5q-51 0 -104 -5l12 52q61 9 122 9q63 0 90.5 -10.5t27.5 -46.5q0 -10 -3 -27q-6 -35 -23 -50t-58 -27l-23 -6q-27 -8 -34 -13.5
t-10 -21.5h-60zM-29 0l405 688h147l112 -688h-112l-30 172h-303l-103 -172h-116zM237 263h245l-51 316h-6z" />
    <glyph glyph-name="uni1EA3" unicode="&#x1ea3;" horiz-adv-x="590" 
d="M306 575l2 9q6 27 17 37.5t40 20.5l23 8q4 1 11 3.5t10 3.5l7.5 2.5t6.5 2.5t5 3t4 3l3 3t2.5 4t1.5 5l2 6q2 8 2 11q0 17 -15 20.5t-59 3.5q-51 0 -104 -5l12 52q61 9 122 9q63 0 90.5 -10.5t27.5 -46.5q0 -10 -3 -27q-6 -35 -23 -50t-58 -27l-23 -6q-27 -8 -34 -13.5
t-10 -21.5h-60zM205 -8q-90 0 -128 30t-38 108q0 43 18 130q32 153 78 205.5t149 52.5q70 0 111 -15.5t54 -55.5h7l20 63h99l-108 -510h-98l11 71h-6q-27 -47 -68.5 -63t-100.5 -16zM253 80q90 0 122 57q19 32 37 103t18 110q0 44 -24 61.5t-82 17.5q-83 0 -110 -29
t-52 -145q-16 -77 -16 -108q0 -42 22.5 -54.5t84.5 -12.5z" />
    <glyph glyph-name="uni1EA4" unicode="&#x1ea4;" horiz-adv-x="709" 
d="M428 945v5l103 137h108v-5l-136 -137h-75zM306 767v6l130 136h103l75 -136l-1 -6h-65l-66 92l-100 -92h-76zM-29 0l405 688h147l112 -688h-112l-30 172h-303l-103 -172h-116zM237 263h245l-51 316h-6z" />
    <glyph glyph-name="uni1EA5" unicode="&#x1ea5;" horiz-adv-x="590" 
d="M316 766l1 5l132 138h115l-1 -5l-166 -138h-81zM210 589v6l130 136h103l75 -136l-1 -6h-65l-66 92l-100 -92h-76zM205 -8q-90 0 -128 30t-38 108q0 43 18 130q32 153 78 205.5t149 52.5q70 0 111 -15.5t54 -55.5h7l20 63h99l-108 -510h-98l11 71h-6q-27 -47 -68.5 -63
t-100.5 -16zM253 80q90 0 122 57q19 32 37 103t18 110q0 44 -24 61.5t-82 17.5q-83 0 -110 -29t-52 -145q-16 -77 -16 -108q0 -42 22.5 -54.5t84.5 -12.5z" />
    <glyph glyph-name="uni1EA6" unicode="&#x1ea6;" horiz-adv-x="709" 
d="M471 944l-109 138l1 5h105l76 -138l-1 -5h-72zM306 767v6l130 136h103l75 -136l-1 -6h-65l-66 92l-100 -92h-76zM-29 0l405 688h147l112 -688h-112l-30 172h-303l-103 -172h-116zM237 263h245l-51 316h-6z" />
    <glyph glyph-name="uni1EA7" unicode="&#x1ea7;" horiz-adv-x="590" 
d="M391 766l-108 138l1 5h105l75 -138l-1 -5h-72zM210 589v6l130 136h103l75 -136l-1 -6h-65l-66 92l-100 -92h-76zM205 -8q-90 0 -128 30t-38 108q0 43 18 130q32 153 78 205.5t149 52.5q70 0 111 -15.5t54 -55.5h7l20 63h99l-108 -510h-98l11 71h-6q-27 -47 -68.5 -63
t-100.5 -16zM253 80q90 0 122 57q19 32 37 103t18 110q0 44 -24 61.5t-82 17.5q-83 0 -110 -29t-52 -145q-16 -77 -16 -108q0 -42 22.5 -54.5t84.5 -12.5z" />
    <glyph glyph-name="uni1EA8" unicode="&#x1ea8;" horiz-adv-x="709" 
d="M440 931l2 9q7 28 17.5 38t40.5 20l22 8q4 1 11.5 3.5t10 3.5l7.5 3t6.5 2.5t5 2.5t4.5 3l3 3t2.5 4t1.5 5l2 6q1 4 1 11q0 17 -15 20.5t-58 3.5q-51 0 -104 -5l12 52q59 9 122 9t90.5 -10.5t27.5 -46.5q0 -10 -3 -27q-6 -34 -23 -49.5t-58 -27.5l-23 -6
q-28 -8 -35 -13.5t-10 -21.5h-60zM306 767v6l130 136h103l75 -136l-1 -6h-65l-66 92l-100 -92h-76zM-29 0l405 688h147l112 -688h-112l-30 172h-303l-103 -172h-116zM237 263h245l-51 316h-6z" />
    <glyph glyph-name="uni1EA9" unicode="&#x1ea9;" horiz-adv-x="590" 
d="M343 753l2 9q7 28 17.5 38t40.5 20l22 8q4 1 11.5 3.5t10 3.5l7.5 3t6.5 2.5t5 2.5t4.5 3l3 3t2.5 4t1.5 5l2 6q1 4 1 11q0 17 -15 20.5t-58 3.5q-51 0 -104 -5l12 52q59 9 122 9t90.5 -10.5t27.5 -46.5q0 -10 -3 -27q-6 -34 -23 -49.5t-58 -27.5l-23 -6
q-28 -8 -35 -13.5t-10 -21.5h-60zM210 589v6l130 136h103l75 -136l-1 -6h-65l-66 92l-100 -92h-76zM205 -8q-90 0 -128 30t-38 108q0 43 18 130q32 153 78 205.5t149 52.5q70 0 111 -15.5t54 -55.5h7l20 63h99l-108 -510h-98l11 71h-6q-27 -47 -68.5 -63t-100.5 -16zM253 80
q90 0 122 57q19 32 37 103t18 110q0 44 -24 61.5t-82 17.5q-83 0 -110 -29t-52 -145q-16 -77 -16 -108q0 -42 22.5 -54.5t84.5 -12.5z" />
    <glyph glyph-name="uni1EAA" unicode="&#x1eaa;" horiz-adv-x="709" 
d="M310 951q13 68 34 96t73 28q33 0 103 -22q50 -18 71 -18q20 0 26.5 9.5t13.5 41.5h59q-13 -69 -33.5 -96.5t-72.5 -27.5q-39 0 -103 22q-55 17 -71 17q-20 0 -27 -9.5t-13 -40.5h-60zM306 767v6l130 136h103l75 -136l-1 -6h-65l-66 92l-100 -92h-76zM-29 0l405 688h147
l112 -688h-112l-30 172h-303l-103 -172h-116zM237 263h245l-51 316h-6z" />
    <glyph glyph-name="uni1EAB" unicode="&#x1eab;" horiz-adv-x="590" 
d="M222 773q14 69 34.5 96.5t72.5 27.5q33 0 103 -22q52 -18 71 -18q20 0 27 10t13 41h60q-14 -69 -34.5 -96.5t-72.5 -27.5q-37 0 -103 22q-53 17 -71 17q-19 0 -26 -9.5t-14 -40.5h-60zM210 589v6l130 136h104l74 -136v-6h-65l-66 92l-100 -92h-77zM205 -8q-90 0 -128 30
t-38 108q0 43 18 130q32 153 78 205.5t149 52.5q70 0 111 -15.5t54 -55.5h7l20 63h99l-108 -510h-98l11 71h-6q-27 -47 -68.5 -63t-100.5 -16zM253 80q90 0 122 57q19 32 37 103t18 110q0 44 -24 61.5t-82 17.5q-83 0 -110 -29t-52 -145q-16 -77 -16 -108q0 -42 22.5 -54.5
t84.5 -12.5z" />
    <glyph glyph-name="uni1EAC" unicode="&#x1eac;" horiz-adv-x="709" 
d="M306 767v6l130 136h103l75 -136l-1 -6h-65l-66 92l-100 -92h-76zM-29 0l405 688h147l112 -688h-112l-30 172h-303l-103 -172h-116zM237 263h245l-51 316h-6zM226 -196l19 87h87l-18 -87h-88z" />
    <glyph glyph-name="uni1EAD" unicode="&#x1ead;" horiz-adv-x="590" 
d="M209 589l1 6l130 136h103l74 -136v-6h-65l-66 92l-100 -92h-77zM205 -8q-90 0 -128 30t-38 108q0 43 18 130q32 153 78 205.5t149 52.5q70 0 111 -15.5t54 -55.5h7l20 63h99l-108 -510h-98l11 71h-6q-27 -47 -68.5 -63t-100.5 -16zM253 80q90 0 122 57q19 32 37 103
t18 110q0 44 -24 61.5t-82 17.5q-83 0 -110 -29t-52 -145q-16 -77 -16 -108q0 -42 22.5 -54.5t84.5 -12.5zM154 -196l19 87h87l-18 -87h-88z" />
    <glyph glyph-name="uni1EAE" unicode="&#x1eae;" horiz-adv-x="709" 
d="M427 937v5l103 138h108v-5l-136 -138h-75zM463 763q-68 0 -95 20t-27 60q0 24 10 66h63q-6 -34 -6 -43q0 -21 14 -30.5t52 -9.5q28 0 45.5 5t27.5 17.5t14 24.5t9 36h66q-15 -75 -49 -110.5t-124 -35.5zM-29 0l405 688h147l112 -688h-112l-30 172h-303l-103 -172h-116z
M237 263h245l-51 316h-6z" />
    <glyph glyph-name="uni1EAF" unicode="&#x1eaf;" horiz-adv-x="590" 
d="M316 759l1 5l132 137h115l-1 -5l-166 -137h-81zM368 585q-68 0 -95 20t-27 60q0 24 10 66h63q-6 -34 -6 -43q0 -21 14 -30.5t52 -9.5q28 0 45.5 5t27.5 17.5t14 24.5t9 36h66q-15 -75 -49 -110.5t-124 -35.5zM205 -8q-90 0 -128 30t-38 108q0 43 18 130q32 153 78 205.5
t149 52.5q70 0 111 -15.5t54 -55.5h7l20 63h99l-108 -510h-98l11 71h-6q-27 -47 -68.5 -63t-100.5 -16zM253 80q90 0 122 57q19 32 37 103t18 110q0 44 -24 61.5t-82 17.5q-83 0 -110 -29t-52 -145q-16 -77 -16 -108q0 -42 22.5 -54.5t84.5 -12.5z" />
    <glyph glyph-name="uni1EB0" unicode="&#x1eb0;" horiz-adv-x="709" 
d="M491 937l-108 137l1 5h105l75 -137l-1 -5h-72zM468 763q-68 0 -95 20t-27 60q0 24 10 66h63q-6 -34 -6 -43q0 -21 14 -30.5t52 -9.5q28 0 45.5 5t27.5 17.5t14 24.5t9 36h66q-15 -75 -49 -110.5t-124 -35.5zM-29 0l405 688h147l112 -688h-112l-30 172h-303l-103 -172
h-116zM237 263h245l-51 316h-6z" />
    <glyph glyph-name="uni1EB1" unicode="&#x1eb1;" horiz-adv-x="590" 
d="M391 759l-109 137l1 5h105l76 -137l-1 -5h-72zM368 585q-68 0 -95 20t-27 60q0 21 9 66h64q-7 -30 -7 -43q0 -21 14.5 -30.5t52.5 -9.5q28 0 45.5 5t27.5 17.5t14 24.5t9 36h66q-8 -37 -17 -60t-27 -44.5t-50 -31.5t-79 -10zM205 -8q-90 0 -128 30t-38 108q0 43 18 130
q32 153 78 205.5t149 52.5q70 0 111 -15.5t54 -55.5h7l20 63h99l-108 -510h-98l11 71h-6q-27 -47 -68.5 -63t-100.5 -16zM253 80q90 0 122 57q19 32 37 103t18 110q0 44 -24 61.5t-82 17.5q-83 0 -110 -29t-52 -145q-16 -77 -16 -108q0 -42 22.5 -54.5t84.5 -12.5z" />
    <glyph glyph-name="uni1EB2" unicode="&#x1eb2;" horiz-adv-x="709" 
d="M443 924l2 9q6 27 17 37.5t40 20.5l23 8q5 2 12.5 4.5l10.5 3.5t8 3t7 3l5 2.5t4 3.5t2.5 4.5t2.5 5t2 6.5t1 11q0 17 -15 20.5t-59 3.5q-50 0 -103 -5l11 52q61 9 122 9q63 0 91 -10.5t28 -46.5q0 -11 -3 -27q-6 -35 -23.5 -50t-58.5 -27l-22 -7q-28 -8 -35 -13t-10 -21
h-60zM468 763q-68 0 -95 20t-27 60q0 24 10 66h63q-6 -34 -6 -43q0 -21 14 -30.5t52 -9.5q28 0 45.5 5t27.5 17.5t14 24.5t9 36h66q-15 -75 -49 -110.5t-124 -35.5zM-29 0l405 688h147l112 -688h-112l-30 172h-303l-103 -172h-116zM237 263h245l-51 316h-6z" />
    <glyph glyph-name="uni1EB3" unicode="&#x1eb3;" horiz-adv-x="590" 
d="M343 746l2 9q6 27 17 37.5t40 20.5l23 8q5 2 12.5 4.5l10.5 3.5t8 3t7 3l5 2.5t4 3.5t2.5 4.5t2.5 5t2 6.5t1 11q0 17 -15 20.5t-59 3.5q-50 0 -103 -5l11 52q61 9 122 9q63 0 91 -10.5t28 -46.5q0 -11 -3 -27q-6 -35 -23.5 -50t-58.5 -27l-22 -7q-28 -8 -35 -13t-10 -21
h-60zM368 585q-68 0 -95 20t-27 60q0 24 10 66h63q-6 -34 -6 -43q0 -21 14 -30.5t52 -9.5q28 0 45.5 5t27.5 17.5t14 24.5t9 36h66q-15 -75 -49 -110.5t-124 -35.5zM205 -8q-90 0 -128 30t-38 108q0 43 18 130q32 153 78 205.5t149 52.5q70 0 111 -15.5t54 -55.5h7l20 63h99
l-108 -510h-98l11 71h-6q-27 -47 -68.5 -63t-100.5 -16zM253 80q90 0 122 57q19 32 37 103t18 110q0 44 -24 61.5t-82 17.5q-83 0 -110 -29t-52 -145q-16 -77 -16 -108q0 -42 22.5 -54.5t84.5 -12.5z" />
    <glyph glyph-name="uni1EB4" unicode="&#x1eb4;" horiz-adv-x="709" 
d="M321 943q14 69 35 97t73 28q34 0 103 -23q53 -17 71 -17q19 0 26 9.5t14 41.5h59q-14 -70 -34 -97.5t-72 -27.5q-35 0 -104 23q-53 17 -71 17q-19 0 -26 -10t-13 -41h-61zM468 763q-68 0 -95 20t-27 60q0 24 10 66h63q-6 -34 -6 -43q0 -21 14 -30.5t52 -9.5q28 0 45.5 5
t27.5 17.5t14 24.5t9 36h66q-15 -75 -49 -110.5t-124 -35.5zM-29 0l405 688h147l112 -688h-112l-30 172h-303l-103 -172h-116zM237 263h245l-51 316h-6z" />
    <glyph glyph-name="uni1EB5" unicode="&#x1eb5;" horiz-adv-x="590" 
d="M221 765q14 69 34.5 97t72.5 28q36 0 103 -23q55 -17 71 -17q20 0 27 10t13 41h60q-14 -69 -34.5 -97t-72.5 -28q-34 0 -103 23q-53 17 -71 17q-19 0 -26 -9.5t-14 -41.5h-60zM368 585q-68 0 -95 20t-27 60q0 21 9 66h64q-7 -30 -7 -43q0 -21 14.5 -30.5t51.5 -9.5
q28 0 46 5t27.5 17.5t14 24.5t9.5 36h66q-8 -37 -17 -60t-27 -44.5t-50 -31.5t-79 -10zM205 -8q-90 0 -128 30t-38 108q0 43 18 130q32 153 78 205.5t149 52.5q70 0 111 -15.5t54 -55.5h7l20 63h99l-108 -510h-98l11 71h-6q-27 -47 -68.5 -63t-100.5 -16zM253 80
q90 0 122 57q19 32 37 103t18 110q0 44 -24 61.5t-82 17.5q-83 0 -110 -29t-52 -145q-16 -77 -16 -108q0 -42 22.5 -54.5t84.5 -12.5z" />
    <glyph glyph-name="uni1EB6" unicode="&#x1eb6;" horiz-adv-x="709" 
d="M463 763q-68 0 -95 20t-27 60q0 24 10 66h63q-6 -34 -6 -43q0 -21 14 -30.5t52 -9.5q28 0 45.5 5t27.5 17.5t14 24.5t9 36h66q-15 -75 -49 -110.5t-124 -35.5zM-29 0l405 688h147l112 -688h-112l-30 172h-303l-103 -172h-116zM237 263h245l-51 316h-6zM226 -196l19 87h87
l-18 -87h-88z" />
    <glyph glyph-name="uni1EB7" unicode="&#x1eb7;" horiz-adv-x="590" 
d="M368 585q-68 0 -95 20t-27 60q0 24 10 66h63q-6 -34 -6 -43q0 -21 14 -30.5t52 -9.5q28 0 45.5 5t27.5 17.5t14 24.5t9 36h66q-15 -75 -49 -110.5t-124 -35.5zM205 -8q-90 0 -128 30t-38 108q0 43 18 130q32 153 78 205.5t149 52.5q70 0 111 -15.5t54 -55.5h7l20 63h99
l-108 -510h-98l11 71h-6q-27 -47 -68.5 -63t-100.5 -16zM253 80q90 0 122 57q19 32 37 103t18 110q0 44 -24 61.5t-82 17.5q-83 0 -110 -29t-52 -145q-16 -77 -16 -108q0 -42 22.5 -54.5t84.5 -12.5zM154 -196l19 87h87l-18 -87h-88z" />
    <glyph glyph-name="uni1EB8" unicode="&#x1eb8;" horiz-adv-x="621" 
d="M44 0l147 688h474l-20 -92h-360l-44 -203h311l-19 -91h-310l-46 -210h361l-20 -92h-474zM194 -196l19 87h87l-18 -87h-88z" />
    <glyph glyph-name="uni1EB9" unicode="&#x1eb9;" horiz-adv-x="576" 
d="M250 -8q-115 0 -160 28t-45 97q0 45 20 137q13 62 25 99t32 72.5t49 53.5t72.5 28.5t105.5 10.5q100 0 139.5 -27.5t39.5 -89.5q0 -48 -23 -147l-8 -34h-333q-11 -52 -11 -79q0 -37 27.5 -49t108.5 -12t161 10l-18 -83q-75 -15 -182 -15zM180 293h231l2 11q9 42 9 67
q0 36 -20.5 47.5t-71.5 11.5q-79 0 -105 -25t-45 -112zM148 -196l19 87h87l-18 -87h-88z" />
    <glyph glyph-name="uni1EBA" unicode="&#x1eba;" horiz-adv-x="621" 
d="M379 753l2 9q6 27 17 37.5t40 20.5l23 8q4 1 11 3.5t10 3.5l7.5 2.5t6.5 2.5t5 3t4 3l3 3t2.5 4t1.5 5l2 6q2 8 2 11q0 17 -15 20.5t-59 3.5q-51 0 -104 -5l12 52q61 9 122 9q63 0 90.5 -10.5t27.5 -46.5q0 -10 -3 -27q-6 -35 -23 -50t-58 -27l-23 -6q-27 -8 -34 -13.5
t-10 -21.5h-60zM44 0l147 688h474l-20 -92h-360l-44 -203h311l-19 -91h-310l-46 -210h361l-20 -92h-474z" />
    <glyph glyph-name="uni1EBB" unicode="&#x1ebb;" horiz-adv-x="576" 
d="M301 575l2 9q6 27 17 37.5t40 20.5l23 8q4 1 11 3.5t10 3.5l7.5 2.5t6.5 2.5t5 3t4 3l3 3t2.5 4t1.5 5l2 6q2 8 2 11q0 17 -15 20.5t-59 3.5q-51 0 -104 -5l12 52q61 9 122 9q63 0 90.5 -10.5t27.5 -46.5q0 -10 -3 -27q-6 -35 -23 -50t-58 -27l-23 -6q-27 -8 -34 -13.5
t-10 -21.5h-60zM250 -8q-115 0 -160 28t-45 97q0 45 20 137q13 62 25 99t32 72.5t49 53.5t72.5 28.5t105.5 10.5q100 0 139.5 -27.5t39.5 -89.5q0 -48 -23 -147l-8 -34h-333q-11 -52 -11 -79q0 -37 27.5 -49t108.5 -12t161 10l-18 -83q-75 -15 -182 -15zM180 293h231l2 11
q9 42 9 67q0 36 -20.5 47.5t-71.5 11.5q-79 0 -105 -25t-45 -112z" />
    <glyph glyph-name="uni1EBC" unicode="&#x1ebc;" horiz-adv-x="621" 
d="M248 773q14 69 34.5 96.5t72.5 27.5q33 0 103 -22q52 -18 71 -18q20 0 27 10t13 41h60q-14 -69 -34.5 -96.5t-72.5 -27.5q-37 0 -103 22q-53 17 -71 17q-19 0 -26 -9.5t-14 -40.5h-60zM44 0l147 688h474l-20 -92h-360l-44 -203h311l-19 -91h-310l-46 -210h361l-20 -92
h-474z" />
    <glyph glyph-name="uni1EBD" unicode="&#x1ebd;" horiz-adv-x="576" 
d="M179 595q14 69 34.5 96.5t72.5 27.5q33 0 103 -22q52 -18 71 -18q20 0 27 10t13 41h60q-14 -69 -34.5 -96.5t-72.5 -27.5q-39 0 -103 22q-53 17 -71 17q-20 0 -26.5 -9.5t-13.5 -40.5h-60zM250 -8q-115 0 -160 28t-45 97q0 45 20 137q13 62 25 99t32 72.5t49 53.5
t72.5 28.5t105.5 10.5q100 0 139.5 -27.5t39.5 -89.5q0 -48 -23 -147l-8 -34h-333q-11 -52 -11 -79q0 -37 27.5 -49t108.5 -12t161 10l-18 -83q-75 -15 -182 -15zM180 293h231l2 11q9 42 9 67q0 36 -20.5 47.5t-71.5 11.5q-79 0 -105 -25t-45 -112z" />
    <glyph glyph-name="uni1EBE" unicode="&#x1ebe;" horiz-adv-x="621" 
d="M400 945v5l103 137h108v-5l-136 -137h-75zM278 767v6l130 136h103l75 -136l-1 -6h-65l-66 92l-100 -92h-76zM44 0l147 688h474l-20 -92h-360l-44 -203h311l-19 -91h-310l-46 -210h361l-20 -92h-474z" />
    <glyph glyph-name="uni1EBF" unicode="&#x1ebf;" horiz-adv-x="576" 
d="M311 766l1 5l132 138h115l-1 -5l-166 -138h-81zM205 589v6l130 136h103l75 -136l-1 -6h-65l-66 92l-100 -92h-76zM250 -8q-115 0 -160 28t-45 97q0 45 20 137q13 62 25 99t32 72.5t49 53.5t72.5 28.5t105.5 10.5q100 0 139.5 -27.5t39.5 -89.5q0 -48 -23 -147l-8 -34
h-333q-11 -52 -11 -79q0 -37 27.5 -49t108.5 -12t161 10l-18 -83q-75 -15 -182 -15zM180 293h231l2 11q9 42 9 67q0 36 -20.5 47.5t-71.5 11.5q-79 0 -105 -25t-45 -112z" />
    <glyph glyph-name="uni1EC0" unicode="&#x1ec0;" horiz-adv-x="621" 
d="M443 944l-109 138l1 5h105l76 -138l-1 -5h-72zM278 767v6l130 136h103l75 -136l-1 -6h-65l-66 92l-100 -92h-76zM44 0l147 688h474l-20 -92h-360l-44 -203h311l-19 -91h-310l-46 -210h361l-20 -92h-474z" />
    <glyph glyph-name="uni1EC1" unicode="&#x1ec1;" horiz-adv-x="576" 
d="M386 766l-108 138l1 5h105l75 -138l-1 -5h-72zM205 589v6l130 136h103l75 -136l-1 -6h-65l-66 92l-100 -92h-76zM250 -8q-115 0 -160 28t-45 97q0 45 20 137q13 62 25 99t32 72.5t49 53.5t72.5 28.5t105.5 10.5q100 0 139.5 -27.5t39.5 -89.5q0 -48 -23 -147l-8 -34h-333
q-11 -52 -11 -79q0 -37 27.5 -49t108.5 -12t161 10l-18 -83q-75 -15 -182 -15zM180 293h231l2 11q9 42 9 67q0 36 -20.5 47.5t-71.5 11.5q-79 0 -105 -25t-45 -112z" />
    <glyph glyph-name="uni1EC2" unicode="&#x1ec2;" horiz-adv-x="621" 
d="M412 931l2 9q7 28 17.5 38t40.5 20l22 8q4 1 11.5 3.5t10 3.5l7.5 3t6.5 2.5t5 2.5t4.5 3l3 3t2.5 4t1.5 5l2 6q1 4 1 11q0 17 -15 20.5t-58 3.5q-51 0 -104 -5l12 52q59 9 122 9t90.5 -10.5t27.5 -46.5q0 -10 -3 -27q-6 -34 -23 -49.5t-58 -27.5l-23 -6
q-28 -8 -35 -13.5t-10 -21.5h-60zM278 767v6l130 136h103l75 -136l-1 -6h-65l-66 92l-100 -92h-76zM44 0l147 688h474l-20 -92h-360l-44 -203h311l-19 -91h-310l-46 -210h361l-20 -92h-474z" />
    <glyph glyph-name="uni1EC3" unicode="&#x1ec3;" horiz-adv-x="576" 
d="M338 753l2 9q7 28 17.5 38t40.5 20l22 8q4 1 11.5 3.5t10 3.5l7.5 3t6.5 2.5t5 2.5t4.5 3l3 3t2.5 4t1.5 5l2 6q1 4 1 11q0 17 -15 20.5t-58 3.5q-51 0 -104 -5l12 52q59 9 122 9t90.5 -10.5t27.5 -46.5q0 -10 -3 -27q-6 -34 -23 -49.5t-58 -27.5l-23 -6
q-28 -8 -35 -13.5t-10 -21.5h-60zM205 589v6l130 136h103l75 -136l-1 -6h-65l-66 92l-100 -92h-76zM250 -8q-115 0 -160 28t-45 97q0 45 20 137q13 62 25 99t32 72.5t49 53.5t72.5 28.5t105.5 10.5q100 0 139.5 -27.5t39.5 -89.5q0 -48 -23 -147l-8 -34h-333
q-11 -52 -11 -79q0 -37 27.5 -49t108.5 -12t161 10l-18 -83q-75 -15 -182 -15zM180 293h231l2 11q9 42 9 67q0 36 -20.5 47.5t-71.5 11.5q-79 0 -105 -25t-45 -112z" />
    <glyph glyph-name="uni1EC4" unicode="&#x1ec4;" horiz-adv-x="621" 
d="M282 951q13 68 34 96t73 28q33 0 103 -22q50 -18 71 -18q20 0 26.5 9.5t13.5 41.5h59q-13 -69 -33.5 -96.5t-72.5 -27.5q-39 0 -103 22q-55 17 -71 17q-20 0 -27 -9.5t-13 -40.5h-60zM278 767v6l130 136h103l75 -136l-1 -6h-65l-66 92l-100 -92h-76zM44 0l147 688h474
l-20 -92h-360l-44 -203h311l-19 -91h-310l-46 -210h361l-20 -92h-474z" />
    <glyph glyph-name="uni1EC5" unicode="&#x1ec5;" horiz-adv-x="576" 
d="M216 773q14 69 34.5 96.5t72.5 27.5q33 0 103 -22q52 -18 71 -18q20 0 27 10t13 41h60q-14 -69 -34.5 -96.5t-72.5 -27.5q-37 0 -103 22q-53 17 -71 17q-19 0 -26 -9.5t-14 -40.5h-60zM204 589v6l130 136h104l74 -136v-6h-65l-66 92l-100 -92h-77zM250 -8q-115 0 -160 28
t-45 97q0 45 20 137q13 62 25 99t32 72.5t49 53.5t72.5 28.5t105.5 10.5q100 0 139.5 -27.5t39.5 -89.5q0 -48 -23 -147l-8 -34h-333q-11 -52 -11 -79q0 -37 27.5 -49t108.5 -12t161 10l-18 -83q-75 -15 -182 -15zM180 293h231l2 11q9 42 9 67q0 36 -20.5 47.5t-71.5 11.5
q-79 0 -105 -25t-45 -112z" />
    <glyph glyph-name="uni1EC6" unicode="&#x1ec6;" horiz-adv-x="621" 
d="M278 767v6l130 136h103l75 -136l-1 -6h-65l-66 92l-100 -92h-76zM44 0l147 688h474l-20 -92h-360l-44 -203h311l-19 -91h-310l-46 -210h361l-20 -92h-474zM194 -196l19 87h87l-18 -87h-88z" />
    <glyph glyph-name="uni1EC7" unicode="&#x1ec7;" horiz-adv-x="576" 
d="M204 589l1 6l130 136h103l74 -136v-6h-65l-66 92l-100 -92h-77zM250 -8q-115 0 -160 28t-45 97q0 45 20 137q13 62 25 99t32 72.5t49 53.5t72.5 28.5t105.5 10.5q100 0 139.5 -27.5t39.5 -89.5q0 -48 -23 -147l-8 -34h-333q-11 -52 -11 -79q0 -37 27.5 -49t108.5 -12
t161 10l-18 -83q-75 -15 -182 -15zM180 293h231l2 11q9 42 9 67q0 36 -20.5 47.5t-71.5 11.5q-79 0 -105 -25t-45 -112zM148 -196l19 87h87l-18 -87h-88z" />
    <glyph glyph-name="uni1EC8" unicode="&#x1ec8;" horiz-adv-x="302" 
d="M200 753l2 9q6 27 17 37.5t40 20.5l23 8q4 1 11 3.5t10 3.5l7.5 2.5t6.5 2.5t5 3t4 3l3 3t2.5 4t1.5 5l2 6q2 8 2 11q0 17 -15 20.5t-59 3.5q-51 0 -104 -5l12 52q61 9 122 9q63 0 90.5 -10.5t27.5 -46.5q0 -10 -3 -27q-6 -35 -23 -50t-58 -27l-23 -6q-27 -8 -34 -13.5
t-10 -21.5h-60zM44 0l147 688h113l-147 -688h-113z" />
    <glyph glyph-name="uni1EC9" unicode="&#x1ec9;" horiz-adv-x="270" 
d="M146 575l2 9q6 27 17 37.5t40 20.5l23 8q4 1 11 3.5t10 3.5l7.5 2.5t6.5 2.5t5 3t4 3l3 3t2.5 4t1.5 5l2 6q2 8 2 11q0 17 -15 20.5t-59 3.5q-51 0 -104 -5l12 52q61 9 122 9q63 0 90.5 -10.5t27.5 -46.5q0 -10 -3 -27q-6 -35 -23 -50t-58 -27l-23 -6q-27 -8 -34 -13.5
t-10 -21.5h-60zM31 0l108 510h107l-108 -510h-107z" />
    <glyph glyph-name="uni1ECA" unicode="&#x1eca;" horiz-adv-x="302" 
d="M44 0l147 688h113l-147 -688h-113zM14 -196l19 87h87l-18 -87h-88z" />
    <glyph glyph-name="uni1ECB" unicode="&#x1ecb;" horiz-adv-x="270" 
d="M165 642l21 101h111l-21 -101h-111zM31 0l108 510h107l-108 -510h-107zM-6 -196l19 87h87l-18 -87h-88z" />
    <glyph glyph-name="uni1ECC" unicode="&#x1ecc;" horiz-adv-x="738" 
d="M325 -8q-155 0 -211 31.5t-56 122.5q0 56 31 201q13 64 21.5 100t21.5 78t24 62.5t31 44t41 32.5t54.5 18t71.5 11.5t91 2.5q154 0 210 -32t56 -123q0 -61 -30 -200q-11 -52 -18 -82t-17.5 -67.5t-18.5 -56.5t-21 -44t-25.5 -36t-31.5 -25t-39.5 -19t-49.5 -10.5t-61 -7
t-74 -1.5zM329 84q37 0 56.5 0.5t43.5 5t35 9.5t26 20t21.5 30.5t17.5 47t18.5 63t18.5 84.5q28 131 28 181q0 23 -6 37.5t-15 23t-31 12.5t-42.5 5t-60.5 1q-38 0 -57 -0.5t-43.5 -5t-35 -9.5t-25.5 -20t-21.5 -30.5t-17.5 -47t-18 -63t-18 -84.5q-29 -139 -29 -182
q0 -53 31 -65.5t124 -12.5zM231 -196l19 87h87l-18 -87h-88z" />
    <glyph glyph-name="uni1ECD" unicode="&#x1ecd;" horiz-adv-x="576" 
d="M249 -8q-126 0 -172 25.5t-46 95.5q0 35 21 142q9 46 15.5 73t16 57.5t18.5 46.5t24 34t32 25.5t42.5 15t56 9.5t71.5 2q125 0 170.5 -25.5t45.5 -96.5q0 -49 -20 -141q-11 -49 -16.5 -73t-16 -57t-19 -47.5t-23.5 -33.5t-31.5 -25.5t-42 -14.5t-55.5 -10t-71 -2zM250 77
q29 0 48.5 2.5t35.5 5t27 14t18.5 20.5t14.5 33.5t11.5 43t13.5 59.5q18 88 18 119q0 36 -23 47.5t-88 11.5q-34 0 -55 -1.5t-39 -11t-26.5 -17t-18 -33.5t-14.5 -46.5t-15 -68.5q-19 -95 -19 -120q0 -36 23 -47t88 -11zM147 -196l19 87h87l-18 -87h-88z" />
    <glyph glyph-name="uni1ECE" unicode="&#x1ece;" horiz-adv-x="738" 
d="M419 753l2 9q6 27 17 37.5t40 20.5l23 8q4 1 11 3.5t10 3.5l7.5 2.5t6.5 2.5t5 3t4 3l3 3t2.5 4t1.5 5l2 6q2 8 2 11q0 17 -15 20.5t-59 3.5q-51 0 -104 -5l12 52q61 9 122 9q63 0 90.5 -10.5t27.5 -46.5q0 -10 -3 -27q-6 -35 -23 -50t-58 -27l-23 -6q-27 -8 -34 -13.5
t-10 -21.5h-60zM325 -8q-155 0 -211 31.5t-56 122.5q0 56 31 201q13 64 21.5 100t21.5 78t24 62.5t31 44t41 32.5t54.5 18t71.5 11.5t91 2.5q154 0 210 -32t56 -123q0 -61 -30 -200q-11 -52 -18 -82t-17.5 -67.5t-18.5 -56.5t-21 -44t-25.5 -36t-31.5 -25t-39.5 -19
t-49.5 -10.5t-61 -7t-74 -1.5zM329 84q37 0 56.5 0.5t43.5 5t35 9.5t26 20t21.5 30.5t17.5 47t18.5 63t18.5 84.5q28 131 28 181q0 23 -6 37.5t-15 23t-31 12.5t-42.5 5t-60.5 1q-38 0 -57 -0.5t-43.5 -5t-35 -9.5t-25.5 -20t-21.5 -30.5t-17.5 -47t-18 -63t-18 -84.5
q-29 -139 -29 -182q0 -53 31 -65.5t124 -12.5z" />
    <glyph glyph-name="uni1ECF" unicode="&#x1ecf;" horiz-adv-x="576" 
d="M299 575l2 9q6 27 17 37.5t40 20.5l23 8q4 1 11 3.5t10 3.5l7.5 2.5t6.5 2.5t5 3t4 3l3 3t2.5 4t1.5 5l2 6q2 8 2 11q0 17 -15 20.5t-59 3.5q-51 0 -104 -5l12 52q61 9 122 9q63 0 90.5 -10.5t27.5 -46.5q0 -10 -3 -27q-6 -35 -23 -50t-58 -27l-23 -6q-27 -8 -34 -13.5
t-10 -21.5h-60zM249 -8q-126 0 -172 25.5t-46 95.5q0 35 21 142q9 46 15.5 73t16 57.5t18.5 46.5t24 34t32 25.5t42.5 15t56 9.5t71.5 2q125 0 170.5 -25.5t45.5 -96.5q0 -49 -20 -141q-11 -49 -16.5 -73t-16 -57t-19 -47.5t-23.5 -33.5t-31.5 -25.5t-42 -14.5t-55.5 -10
t-71 -2zM250 77q29 0 48.5 2.5t35.5 5t27 14t18.5 20.5t14.5 33.5t11.5 43t13.5 59.5q18 88 18 119q0 36 -23 47.5t-88 11.5q-34 0 -55 -1.5t-39 -11t-26.5 -17t-18 -33.5t-14.5 -46.5t-15 -68.5q-19 -95 -19 -120q0 -36 23 -47t88 -11z" />
    <glyph glyph-name="uni1ED0" unicode="&#x1ed0;" horiz-adv-x="738" 
d="M440 945v5l103 137h108v-5l-136 -137h-75zM318 767v6l130 136h103l75 -136l-1 -6h-65l-66 92l-100 -92h-76zM325 -8q-155 0 -211 31.5t-56 122.5q0 56 31 201q13 64 21.5 100t21.5 78t24 62.5t31 44t41 32.5t54.5 18t71.5 11.5t91 2.5q154 0 210 -32t56 -123
q0 -61 -30 -200q-11 -52 -18 -82t-17.5 -67.5t-18.5 -56.5t-21 -44t-25.5 -36t-31.5 -25t-39.5 -19t-49.5 -10.5t-61 -7t-74 -1.5zM329 84q37 0 56.5 0.5t43.5 5t35 9.5t26 20t21.5 30.5t17.5 47t18.5 63t18.5 84.5q28 131 28 181q0 23 -6 37.5t-15 23t-31 12.5t-42.5 5
t-60.5 1q-38 0 -57 -0.5t-43.5 -5t-35 -9.5t-25.5 -20t-21.5 -30.5t-17.5 -47t-18 -63t-18 -84.5q-29 -139 -29 -182q0 -53 31 -65.5t124 -12.5z" />
    <glyph glyph-name="uni1ED1" unicode="&#x1ed1;" horiz-adv-x="576" 
d="M309 766l1 5l132 138h115l-1 -5l-166 -138h-81zM203 589v6l130 136h103l75 -136l-1 -6h-65l-66 92l-100 -92h-76zM249 -8q-126 0 -172 25.5t-46 95.5q0 35 21 142q9 46 15.5 73t16 57.5t18.5 46.5t24 34t32 25.5t42.5 15t56 9.5t71.5 2q125 0 170.5 -25.5t45.5 -96.5
q0 -49 -20 -141q-11 -49 -16.5 -73t-16 -57t-19 -47.5t-23.5 -33.5t-31.5 -25.5t-42 -14.5t-55.5 -10t-71 -2zM250 77q29 0 48.5 2.5t35.5 5t27 14t18.5 20.5t14.5 33.5t11.5 43t13.5 59.5q18 88 18 119q0 36 -23 47.5t-88 11.5q-34 0 -55 -1.5t-39 -11t-26.5 -17t-18 -33.5
t-14.5 -46.5t-15 -68.5q-19 -95 -19 -120q0 -36 23 -47t88 -11z" />
    <glyph glyph-name="uni1ED2" unicode="&#x1ed2;" horiz-adv-x="738" 
d="M483 944l-109 138l1 5h105l76 -138l-1 -5h-72zM318 767v6l130 136h103l75 -136l-1 -6h-65l-66 92l-100 -92h-76zM325 -8q-155 0 -211 31.5t-56 122.5q0 56 31 201q13 64 21.5 100t21.5 78t24 62.5t31 44t41 32.5t54.5 18t71.5 11.5t91 2.5q154 0 210 -32t56 -123
q0 -61 -30 -200q-11 -52 -18 -82t-17.5 -67.5t-18.5 -56.5t-21 -44t-25.5 -36t-31.5 -25t-39.5 -19t-49.5 -10.5t-61 -7t-74 -1.5zM329 84q37 0 56.5 0.5t43.5 5t35 9.5t26 20t21.5 30.5t17.5 47t18.5 63t18.5 84.5q28 131 28 181q0 23 -6 37.5t-15 23t-31 12.5t-42.5 5
t-60.5 1q-38 0 -57 -0.5t-43.5 -5t-35 -9.5t-25.5 -20t-21.5 -30.5t-17.5 -47t-18 -63t-18 -84.5q-29 -139 -29 -182q0 -53 31 -65.5t124 -12.5z" />
    <glyph glyph-name="uni1ED3" unicode="&#x1ed3;" horiz-adv-x="576" 
d="M384 766l-108 138l1 5h105l75 -138l-1 -5h-72zM203 589v6l130 136h103l75 -136l-1 -6h-65l-66 92l-100 -92h-76zM249 -8q-126 0 -172 25.5t-46 95.5q0 35 21 142q9 46 15.5 73t16 57.5t18.5 46.5t24 34t32 25.5t42.5 15t56 9.5t71.5 2q125 0 170.5 -25.5t45.5 -96.5
q0 -49 -20 -141q-11 -49 -16.5 -73t-16 -57t-19 -47.5t-23.5 -33.5t-31.5 -25.5t-42 -14.5t-55.5 -10t-71 -2zM250 77q29 0 48.5 2.5t35.5 5t27 14t18.5 20.5t14.5 33.5t11.5 43t13.5 59.5q18 88 18 119q0 36 -23 47.5t-88 11.5q-34 0 -55 -1.5t-39 -11t-26.5 -17t-18 -33.5
t-14.5 -46.5t-15 -68.5q-19 -95 -19 -120q0 -36 23 -47t88 -11z" />
    <glyph glyph-name="uni1ED4" unicode="&#x1ed4;" horiz-adv-x="738" 
d="M452 931l2 9q7 28 17.5 38t40.5 20l22 8q4 1 11.5 3.5t10 3.5l7.5 3t6.5 2.5t5 2.5t4.5 3l3 3t2.5 4t1.5 5l2 6q1 4 1 11q0 17 -15 20.5t-58 3.5q-51 0 -104 -5l12 52q59 9 122 9t90.5 -10.5t27.5 -46.5q0 -10 -3 -27q-6 -34 -23 -49.5t-58 -27.5l-23 -6
q-28 -8 -35 -13.5t-10 -21.5h-60zM318 767v6l130 136h103l75 -136l-1 -6h-65l-66 92l-100 -92h-76zM325 -8q-155 0 -211 31.5t-56 122.5q0 56 31 201q13 64 21.5 100t21.5 78t24 62.5t31 44t41 32.5t54.5 18t71.5 11.5t91 2.5q154 0 210 -32t56 -123q0 -61 -30 -200
q-11 -52 -18 -82t-17.5 -67.5t-18.5 -56.5t-21 -44t-25.5 -36t-31.5 -25t-39.5 -19t-49.5 -10.5t-61 -7t-74 -1.5zM329 84q37 0 56.5 0.5t43.5 5t35 9.5t26 20t21.5 30.5t17.5 47t18.5 63t18.5 84.5q28 131 28 181q0 23 -6 37.5t-15 23t-31 12.5t-42.5 5t-60.5 1
q-38 0 -57 -0.5t-43.5 -5t-35 -9.5t-25.5 -20t-21.5 -30.5t-17.5 -47t-18 -63t-18 -84.5q-29 -139 -29 -182q0 -53 31 -65.5t124 -12.5z" />
    <glyph glyph-name="uni1ED5" unicode="&#x1ed5;" horiz-adv-x="576" 
d="M336 753l2 9q7 28 17.5 38t40.5 20l22 8q4 1 11.5 3.5t10 3.5l7.5 3t6.5 2.5t5 2.5t4.5 3l3 3t2.5 4t1.5 5l2 6q1 4 1 11q0 17 -15 20.5t-58 3.5q-51 0 -104 -5l12 52q59 9 122 9t90.5 -10.5t27.5 -46.5q0 -10 -3 -27q-6 -34 -23 -49.5t-58 -27.5l-23 -6
q-28 -8 -35 -13.5t-10 -21.5h-60zM203 589v6l130 136h103l75 -136l-1 -6h-65l-66 92l-100 -92h-76zM249 -8q-126 0 -172 25.5t-46 95.5q0 35 21 142q9 46 15.5 73t16 57.5t18.5 46.5t24 34t32 25.5t42.5 15t56 9.5t71.5 2q125 0 170.5 -25.5t45.5 -96.5q0 -49 -20 -141
q-11 -49 -16.5 -73t-16 -57t-19 -47.5t-23.5 -33.5t-31.5 -25.5t-42 -14.5t-55.5 -10t-71 -2zM250 77q29 0 48.5 2.5t35.5 5t27 14t18.5 20.5t14.5 33.5t11.5 43t13.5 59.5q18 88 18 119q0 36 -23 47.5t-88 11.5q-34 0 -55 -1.5t-39 -11t-26.5 -17t-18 -33.5t-14.5 -46.5
t-15 -68.5q-19 -95 -19 -120q0 -36 23 -47t88 -11z" />
    <glyph glyph-name="uni1ED6" unicode="&#x1ed6;" horiz-adv-x="738" 
d="M322 951q13 68 34 96t73 28q33 0 103 -22q50 -18 71 -18q20 0 26.5 9.5t13.5 41.5h59q-13 -69 -33.5 -96.5t-72.5 -27.5q-39 0 -103 22q-55 17 -71 17q-20 0 -27 -9.5t-13 -40.5h-60zM318 767v6l130 136h103l75 -136l-1 -6h-65l-66 92l-100 -92h-76zM325 -8
q-155 0 -211 31.5t-56 122.5q0 56 31 201q13 64 21.5 100t21.5 78t24 62.5t31 44t41 32.5t54.5 18t71.5 11.5t91 2.5q154 0 210 -32t56 -123q0 -61 -30 -200q-11 -52 -18 -82t-17.5 -67.5t-18.5 -56.5t-21 -44t-25.5 -36t-31.5 -25t-39.5 -19t-49.5 -10.5t-61 -7t-74 -1.5z
M329 84q37 0 56.5 0.5t43.5 5t35 9.5t26 20t21.5 30.5t17.5 47t18.5 63t18.5 84.5q28 131 28 181q0 23 -6 37.5t-15 23t-31 12.5t-42.5 5t-60.5 1q-38 0 -57 -0.5t-43.5 -5t-35 -9.5t-25.5 -20t-21.5 -30.5t-17.5 -47t-18 -63t-18 -84.5q-29 -139 -29 -182q0 -53 31 -65.5
t124 -12.5z" />
    <glyph glyph-name="uni1ED7" unicode="&#x1ed7;" horiz-adv-x="576" 
d="M215 773q14 69 34.5 96.5t72.5 27.5q33 0 103 -22q52 -18 71 -18q20 0 27 10t13 41h60q-14 -69 -34.5 -96.5t-72.5 -27.5q-37 0 -103 22q-53 17 -71 17q-19 0 -26 -9.5t-14 -40.5h-60zM203 589v6l130 136h104l74 -136v-6h-65l-66 92l-100 -92h-77zM249 -8
q-126 0 -172 25.5t-46 95.5q0 35 21 142q9 46 15.5 73t16 57.5t18.5 46.5t24 34t32 25.5t42.5 15t56 9.5t71.5 2q125 0 170.5 -25.5t45.5 -96.5q0 -49 -20 -141q-11 -49 -16.5 -73t-16 -57t-19 -47.5t-23.5 -33.5t-31.5 -25.5t-42 -14.5t-55.5 -10t-71 -2zM250 77
q29 0 48.5 2.5t35.5 5t27 14t18.5 20.5t14.5 33.5t11.5 43t13.5 59.5q18 88 18 119q0 36 -23 47.5t-88 11.5q-34 0 -55 -1.5t-39 -11t-26.5 -17t-18 -33.5t-14.5 -46.5t-15 -68.5q-19 -95 -19 -120q0 -36 23 -47t88 -11z" />
    <glyph glyph-name="uni1ED8" unicode="&#x1ed8;" horiz-adv-x="738" 
d="M318 767v6l130 136h103l75 -136l-1 -6h-65l-66 92l-100 -92h-76zM325 -8q-155 0 -211 31.5t-56 122.5q0 56 31 201q13 64 21.5 100t21.5 78t24 62.5t31 44t41 32.5t54.5 18t71.5 11.5t91 2.5q154 0 210 -32t56 -123q0 -61 -30 -200q-11 -52 -18 -82t-17.5 -67.5
t-18.5 -56.5t-21 -44t-25.5 -36t-31.5 -25t-39.5 -19t-49.5 -10.5t-61 -7t-74 -1.5zM329 84q37 0 56.5 0.5t43.5 5t35 9.5t26 20t21.5 30.5t17.5 47t18.5 63t18.5 84.5q28 131 28 181q0 23 -6 37.5t-15 23t-31 12.5t-42.5 5t-60.5 1q-38 0 -57 -0.5t-43.5 -5t-35 -9.5
t-25.5 -20t-21.5 -30.5t-17.5 -47t-18 -63t-18 -84.5q-29 -139 -29 -182q0 -53 31 -65.5t124 -12.5zM231 -196l19 87h87l-18 -87h-88z" />
    <glyph glyph-name="uni1ED9" unicode="&#x1ed9;" horiz-adv-x="576" 
d="M202 589l1 6l130 136h103l74 -136v-6h-65l-66 92l-100 -92h-77zM249 -8q-126 0 -172 25.5t-46 95.5q0 35 21 142q9 46 15.5 73t16 57.5t18.5 46.5t24 34t32 25.5t42.5 15t56 9.5t71.5 2q125 0 170.5 -25.5t45.5 -96.5q0 -49 -20 -141q-11 -49 -16.5 -73t-16 -57
t-19 -47.5t-23.5 -33.5t-31.5 -25.5t-42 -14.5t-55.5 -10t-71 -2zM250 77q29 0 48.5 2.5t35.5 5t27 14t18.5 20.5t14.5 33.5t11.5 43t13.5 59.5q18 88 18 119q0 36 -23 47.5t-88 11.5q-34 0 -55 -1.5t-39 -11t-26.5 -17t-18 -33.5t-14.5 -46.5t-15 -68.5q-19 -95 -19 -120
q0 -36 23 -47t88 -11zM147 -196l19 87h87l-18 -87h-88z" />
    <glyph glyph-name="uni1EDA" unicode="&#x1eda;" horiz-adv-x="738" 
d="M618 904l-137 -137h-74v5l103 137h108v-5zM710 782h74l-4 -22q-11 -58 -32 -83t-69 -32q32 -32 32 -104q0 -61 -30 -200q-11 -52 -18 -82t-17.5 -67.5t-18.5 -56.5t-21 -44t-25.5 -36t-31.5 -25t-39.5 -19t-49.5 -10.5t-61 -7t-74 -1.5q-155 0 -211 31.5t-56 122.5
q0 56 31 201q13 64 21.5 100t21.5 78t24 62.5t31 44t41 32.5t54.5 18t71.5 11.5t91 2.5q87 0 134 -8h52q38 0 51 13t22 52zM566 344q28 131 28 181q0 23 -6 37.5t-15 23t-31 12.5t-42.5 5t-60.5 1q-38 0 -57 -0.5t-43.5 -5t-35 -9.5t-25.5 -20t-21.5 -30.5t-17.5 -47
t-18 -63t-18 -84.5q-29 -139 -29 -182q0 -53 31 -65.5t124 -12.5q37 0 56.5 0.5t43.5 5t35 9.5t26 20t21.5 30.5t17.5 47t18.5 63t18.5 84.5z" />
    <glyph glyph-name="uni1EDB" unicode="&#x1edb;" horiz-adv-x="576" 
d="M519 726l-166 -138h-81l1 5l132 138h115zM521 604h74l-4 -22q-9 -48 -24.5 -72.5t-45.5 -35.5q23 -24 23 -78q0 -49 -20 -141q-11 -49 -16.5 -73t-16 -57t-19 -47.5t-23.5 -33.5t-31.5 -25.5t-42 -14.5t-55.5 -10t-71 -2q-126 0 -172 25.5t-46 95.5q0 35 21 142
q9 46 15.5 73t16 57.5t18.5 46.5t24 34t32 25.5t42.5 15t56 9.5t71.5 2q77 0 117 -8q36 1 48.5 13.5t21.5 51.5zM419 255q18 88 18 119q0 36 -23 47.5t-88 11.5q-34 0 -55 -1.5t-39 -11t-26.5 -17t-18 -33.5t-14.5 -46.5t-15 -68.5q-19 -95 -19 -120q0 -36 23 -47t88 -11
q29 0 48.5 2.5t35.5 5t27 14t18.5 20.5t14.5 33.5t11.5 43t13.5 59.5z" />
    <glyph glyph-name="uni1EDC" unicode="&#x1edc;" horiz-adv-x="738" 
d="M521 766h-72l-108 138l1 5h105l75 -138zM710 782h74l-4 -22q-11 -58 -32 -83t-69 -32q32 -32 32 -104q0 -61 -30 -200q-11 -52 -18 -82t-17.5 -67.5t-18.5 -56.5t-21 -44t-25.5 -36t-31.5 -25t-39.5 -19t-49.5 -10.5t-61 -7t-74 -1.5q-155 0 -211 31.5t-56 122.5
q0 56 31 201q13 64 21.5 100t21.5 78t24 62.5t31 44t41 32.5t54.5 18t71.5 11.5t91 2.5q87 0 134 -8h52q38 0 51 13t22 52zM566 344q28 131 28 181q0 23 -6 37.5t-15 23t-31 12.5t-42.5 5t-60.5 1q-38 0 -57 -0.5t-43.5 -5t-35 -9.5t-25.5 -20t-21.5 -30.5t-17.5 -47
t-18 -63t-18 -84.5q-29 -139 -29 -182q0 -53 31 -65.5t124 -12.5q37 0 56.5 0.5t43.5 5t35 9.5t26 20t21.5 30.5t17.5 47t18.5 63t18.5 84.5z" />
    <glyph glyph-name="uni1EDD" unicode="&#x1edd;" horiz-adv-x="576" 
d="M419 588h-72l-108 138l1 5h105l75 -138zM521 604h74l-4 -22q-9 -48 -24.5 -72.5t-45.5 -35.5q23 -24 23 -78q0 -49 -20 -141q-11 -49 -16.5 -73t-16 -57t-19 -47.5t-23.5 -33.5t-31.5 -25.5t-42 -14.5t-55.5 -10t-71 -2q-126 0 -172 25.5t-46 95.5q0 35 21 142
q9 46 15.5 73t16 57.5t18.5 46.5t24 34t32 25.5t42.5 15t56 9.5t71.5 2q77 0 117 -8q36 1 48.5 13.5t21.5 51.5zM419 255q18 88 18 119q0 36 -23 47.5t-88 11.5q-34 0 -55 -1.5t-39 -11t-26.5 -17t-18 -33.5t-14.5 -46.5t-15 -68.5q-19 -95 -19 -120q0 -36 23 -47t88 -11
q29 0 48.5 2.5t35.5 5t27 14t18.5 20.5t14.5 33.5t11.5 43t13.5 59.5z" />
    <glyph glyph-name="uni1EDE" unicode="&#x1ede;" horiz-adv-x="738" 
d="M556 875q0 17 -15 20.5t-59 3.5q-51 0 -104 -5l12 52q61 9 122 9q63 0 90.5 -10.5t27.5 -46.5q0 -10 -3 -27q-6 -35 -23 -50t-58 -27l-23 -6q-27 -8 -34 -13.5t-10 -21.5h-60l2 9q6 27 17 37.5t40 20.5l23 8q4 1 11 3.5t10 3.5l7.5 2.5t6.5 2.5t5 3t4 3l3 3t2.5 4t1.5 5
l2 6q2 8 2 11zM710 782h74l-4 -22q-11 -58 -32 -83t-69 -32q32 -32 32 -104q0 -61 -30 -200q-11 -52 -18 -82t-17.5 -67.5t-18.5 -56.5t-21 -44t-25.5 -36t-31.5 -25t-39.5 -19t-49.5 -10.5t-61 -7t-74 -1.5q-155 0 -211 31.5t-56 122.5q0 56 31 201q13 64 21.5 100t21.5 78
t24 62.5t31 44t41 32.5t54.5 18t71.5 11.5t91 2.5q87 0 134 -8h52q38 0 51 13t22 52zM566 344q28 131 28 181q0 23 -6 37.5t-15 23t-31 12.5t-42.5 5t-60.5 1q-38 0 -57 -0.5t-43.5 -5t-35 -9.5t-25.5 -20t-21.5 -30.5t-17.5 -47t-18 -63t-18 -84.5q-29 -139 -29 -182
q0 -53 31 -65.5t124 -12.5q37 0 56.5 0.5t43.5 5t35 9.5t26 20t21.5 30.5t17.5 47t18.5 63t18.5 84.5z" />
    <glyph glyph-name="uni1EDF" unicode="&#x1edf;" horiz-adv-x="576" 
d="M436 697q0 17 -15 20.5t-59 3.5q-51 0 -104 -5l12 52q61 9 122 9q63 0 90.5 -10.5t27.5 -46.5q0 -10 -3 -27q-6 -35 -23 -50t-58 -27l-23 -6q-27 -8 -34 -13.5t-10 -21.5h-60l2 9q6 27 17 37.5t40 20.5l23 8q4 1 11 3.5t10 3.5l7.5 2.5t6.5 2.5t5 3t4 3l3 3t2.5 4t1.5 5
l2 6q2 8 2 11zM521 604h74l-4 -22q-9 -48 -24.5 -72.5t-45.5 -35.5q23 -24 23 -78q0 -49 -20 -141q-11 -49 -16.5 -73t-16 -57t-19 -47.5t-23.5 -33.5t-31.5 -25.5t-42 -14.5t-55.5 -10t-71 -2q-126 0 -172 25.5t-46 95.5q0 35 21 142q9 46 15.5 73t16 57.5t18.5 46.5t24 34
t32 25.5t42.5 15t56 9.5t71.5 2q77 0 117 -8q36 1 48.5 13.5t21.5 51.5zM419 255q18 88 18 119q0 36 -23 47.5t-88 11.5q-34 0 -55 -1.5t-39 -11t-26.5 -17t-18 -33.5t-14.5 -46.5t-15 -68.5q-19 -95 -19 -120q0 -36 23 -47t88 -11q29 0 48.5 2.5t35.5 5t27 14t18.5 20.5
t14.5 33.5t11.5 43t13.5 59.5z" />
    <glyph glyph-name="uni1EE0" unicode="&#x1ee0;" horiz-adv-x="738" 
d="M388 823q-19 0 -26 -9.5t-14 -40.5h-60q14 69 34.5 96.5t72.5 27.5q33 0 103 -22q52 -18 71 -18q20 0 27 10t13 41h60q-14 -69 -34.5 -96.5t-72.5 -27.5q-37 0 -103 22q-53 17 -71 17zM710 782h74l-4 -22q-11 -58 -32 -83t-69 -32q32 -32 32 -104q0 -61 -30 -200
q-11 -52 -18 -82t-17.5 -67.5t-18.5 -56.5t-21 -44t-25.5 -36t-31.5 -25t-39.5 -19t-49.5 -10.5t-61 -7t-74 -1.5q-155 0 -211 31.5t-56 122.5q0 56 31 201q13 64 21.5 100t21.5 78t24 62.5t31 44t41 32.5t54.5 18t71.5 11.5t91 2.5q87 0 134 -8h52q38 0 51 13t22 52z
M566 344q28 131 28 181q0 23 -6 37.5t-15 23t-31 12.5t-42.5 5t-60.5 1q-38 0 -57 -0.5t-43.5 -5t-35 -9.5t-25.5 -20t-21.5 -30.5t-17.5 -47t-18 -63t-18 -84.5q-29 -139 -29 -182q0 -53 31 -65.5t124 -12.5q37 0 56.5 0.5t43.5 5t35 9.5t26 20t21.5 30.5t17.5 47t18.5 63
t18.5 84.5z" />
    <glyph glyph-name="uni1EE1" unicode="&#x1ee1;" horiz-adv-x="576" 
d="M278 645q-20 0 -26.5 -9.5t-13.5 -40.5h-60q14 69 34.5 96.5t72.5 27.5q33 0 103 -22q52 -18 71 -18q20 0 27 10t13 41h60q-14 -69 -34.5 -96.5t-72.5 -27.5q-39 0 -103 22q-53 17 -71 17zM521 604h74l-4 -22q-9 -48 -24.5 -72.5t-45.5 -35.5q23 -24 23 -78
q0 -49 -20 -141q-11 -49 -16.5 -73t-16 -57t-19 -47.5t-23.5 -33.5t-31.5 -25.5t-42 -14.5t-55.5 -10t-71 -2q-126 0 -172 25.5t-46 95.5q0 35 21 142q9 46 15.5 73t16 57.5t18.5 46.5t24 34t32 25.5t42.5 15t56 9.5t71.5 2q77 0 117 -8q36 1 48.5 13.5t21.5 51.5zM419 255
q18 88 18 119q0 36 -23 47.5t-88 11.5q-34 0 -55 -1.5t-39 -11t-26.5 -17t-18 -33.5t-14.5 -46.5t-15 -68.5q-19 -95 -19 -120q0 -36 23 -47t88 -11q29 0 48.5 2.5t35.5 5t27 14t18.5 20.5t14.5 33.5t11.5 43t13.5 59.5z" />
    <glyph glyph-name="uni1EE2" unicode="&#x1ee2;" horiz-adv-x="738" 
d="M710 782h74l-4 -22q-11 -58 -32 -83t-69 -32q32 -32 32 -104q0 -61 -30 -200q-11 -52 -18 -82t-17.5 -67.5t-18.5 -56.5t-21 -44t-25.5 -36t-31.5 -25t-39.5 -19t-49.5 -10.5t-61 -7t-74 -1.5q-155 0 -211 31.5t-56 122.5q0 56 31 201q13 64 21.5 100t21.5 78t24 62.5
t31 44t41 32.5t54.5 18t71.5 11.5t91 2.5q87 0 134 -8h52q38 0 51 13t22 52zM566 344q28 131 28 181q0 23 -6 37.5t-15 23t-31 12.5t-42.5 5t-60.5 1q-38 0 -57 -0.5t-43.5 -5t-35 -9.5t-25.5 -20t-21.5 -30.5t-17.5 -47t-18 -63t-18 -84.5q-29 -139 -29 -182
q0 -53 31 -65.5t124 -12.5q37 0 56.5 0.5t43.5 5t35 9.5t26 20t21.5 30.5t17.5 47t18.5 63t18.5 84.5zM231 -196l19 87h87l-18 -87h-88z" />
    <glyph glyph-name="uni1EE3" unicode="&#x1ee3;" horiz-adv-x="576" 
d="M521 604h74l-4 -22q-9 -48 -24.5 -72.5t-45.5 -35.5q23 -24 23 -78q0 -49 -20 -141q-11 -49 -16.5 -73t-16 -57t-19 -47.5t-23.5 -33.5t-31.5 -25.5t-42 -14.5t-55.5 -10t-71 -2q-126 0 -172 25.5t-46 95.5q0 35 21 142q9 46 15.5 73t16 57.5t18.5 46.5t24 34t32 25.5
t42.5 15t56 9.5t71.5 2q77 0 117 -8q36 1 48.5 13.5t21.5 51.5zM419 255q18 88 18 119q0 36 -23 47.5t-88 11.5q-34 0 -55 -1.5t-39 -11t-26.5 -17t-18 -33.5t-14.5 -46.5t-15 -68.5q-19 -95 -19 -120q0 -36 23 -47t88 -11q29 0 48.5 2.5t35.5 5t27 14t18.5 20.5t14.5 33.5
t11.5 43t13.5 59.5zM147 -196l19 87h87l-18 -87h-88z" />
    <glyph glyph-name="uni1EE4" unicode="&#x1ee4;" horiz-adv-x="725" 
d="M326 -8q-142 0 -196.5 32.5t-54.5 119.5q0 50 23 160l82 384h113l-88 -416q-17 -85 -17 -112q0 -44 29.5 -59.5t110.5 -15.5q59 0 90.5 6t53.5 30t31.5 54t23.5 97l89 416h113l-81 -384q-14 -71 -24.5 -111t-28 -80.5t-37 -59.5t-52.5 -35t-75.5 -21t-104.5 -5zM224 -196
l19 87h87l-18 -87h-88z" />
    <glyph glyph-name="uni1EE5" unicode="&#x1ee5;" horiz-adv-x="597" 
d="M204 -8q-88 0 -121.5 28t-33.5 92q0 37 13 97l64 301h106l-60 -284q-13 -67 -13 -85q0 -37 20 -48t76 -11q36 0 61.5 8t41 20t27 36.5t17 44.5t13.5 58l57 261h106l-109 -510h-98l11 71h-7q-51 -79 -171 -79zM160 -196l19 87h87l-18 -87h-88z" />
    <glyph glyph-name="uni1EE6" unicode="&#x1ee6;" horiz-adv-x="725" 
d="M413 753l2 9q6 27 17 37.5t40 20.5l23 8q4 1 11 3.5t10 3.5l7.5 2.5t6.5 2.5t5 3t4 3l3 3t2.5 4t1.5 5l2 6q2 8 2 11q0 17 -15 20.5t-59 3.5q-51 0 -104 -5l12 52q61 9 122 9q63 0 90.5 -10.5t27.5 -46.5q0 -10 -3 -27q-6 -35 -23 -50t-58 -27l-23 -6q-27 -8 -34 -13.5
t-10 -21.5h-60zM326 -8q-142 0 -196.5 32.5t-54.5 119.5q0 50 23 160l82 384h113l-88 -416q-17 -85 -17 -112q0 -44 29.5 -59.5t110.5 -15.5q59 0 90.5 6t53.5 30t31.5 54t23.5 97l89 416h113l-81 -384q-14 -71 -24.5 -111t-28 -80.5t-37 -59.5t-52.5 -35t-75.5 -21
t-104.5 -5z" />
    <glyph glyph-name="uni1EE7" unicode="&#x1ee7;" horiz-adv-x="597" 
d="M302 575l2 9q6 27 17 37.5t40 20.5l23 8q4 1 11 3.5t10 3.5l7.5 2.5t6.5 2.5t5 3t4 3l3 3t2.5 4t1.5 5l2 6q2 8 2 11q0 17 -15 20.5t-59 3.5q-51 0 -104 -5l12 52q61 9 122 9q63 0 90.5 -10.5t27.5 -46.5q0 -10 -3 -27q-6 -35 -23 -50t-58 -27l-23 -6q-27 -8 -34 -13.5
t-10 -21.5h-60zM204 -8q-88 0 -121.5 28t-33.5 92q0 37 13 97l64 301h106l-60 -284q-13 -67 -13 -85q0 -37 20 -48t76 -11q36 0 61.5 8t41 20t27 36.5t17 44.5t13.5 58l57 261h106l-109 -510h-98l11 71h-7q-51 -79 -171 -79z" />
    <glyph glyph-name="uni1EE8" unicode="&#x1ee8;" horiz-adv-x="725" 
d="M612 904l-137 -137h-74v5l103 137h108v-5zM762 782h74l-4 -22q-12 -61 -34.5 -86t-77.5 -30l-72 -340q-14 -71 -24.5 -111t-28 -80.5t-37 -59.5t-52.5 -35t-75.5 -21t-104.5 -5q-142 0 -196.5 32.5t-54.5 119.5q0 50 23 160l82 384h113l-88 -416q-17 -85 -17 -112
q0 -44 29.5 -59.5t110.5 -15.5q59 0 90.5 6t53.5 30t31.5 54t23.5 97l89 416h67q38 0 51 13t22 52z" />
    <glyph glyph-name="uni1EE9" unicode="&#x1ee9;" horiz-adv-x="597" 
d="M522 726l-166 -138h-81l1 5l132 138h115zM605 604h74l-4 -22q-12 -60 -33.5 -84.5t-72.5 -30.5l-100 -467h-98l11 71h-7q-51 -79 -171 -79q-88 0 -121.5 28t-33.5 92q0 37 13 97l64 301h106l-60 -284q-13 -67 -13 -85q0 -37 20 -48t76 -11q36 0 61.5 8t41 20t27 36.5
t17 44.5t13.5 58l47 217l9 44h55q38 0 51 13t22 52z" />
    <glyph glyph-name="uni1EEA" unicode="&#x1eea;" horiz-adv-x="725" 
d="M515 766h-72l-108 138l1 5h105l75 -138zM762 782h74l-4 -22q-12 -61 -34.5 -86t-77.5 -30l-72 -340q-14 -71 -24.5 -111t-28 -80.5t-37 -59.5t-52.5 -35t-75.5 -21t-104.5 -5q-142 0 -196.5 32.5t-54.5 119.5q0 50 23 160l82 384h113l-88 -416q-17 -85 -17 -112
q0 -44 29.5 -59.5t110.5 -15.5q59 0 90.5 6t53.5 30t31.5 54t23.5 97l89 416h67q38 0 51 13t22 52z" />
    <glyph glyph-name="uni1EEB" unicode="&#x1eeb;" horiz-adv-x="597" 
d="M422 588h-72l-108 138l1 5h105l75 -138zM605 604h74l-4 -22q-12 -60 -33.5 -84.5t-72.5 -30.5l-100 -467h-98l11 71h-7q-51 -79 -171 -79q-88 0 -121.5 28t-33.5 92q0 37 13 97l64 301h106l-60 -284q-13 -67 -13 -85q0 -37 20 -48t76 -11q36 0 61.5 8t41 20t27 36.5
t17 44.5t13.5 58l47 217l9 44h55q38 0 51 13t22 52z" />
    <glyph glyph-name="uni1EEC" unicode="&#x1eec;" horiz-adv-x="725" 
d="M550 875q0 17 -15 20.5t-59 3.5q-51 0 -104 -5l12 52q61 9 122 9q63 0 90.5 -10.5t27.5 -46.5q0 -10 -3 -27q-6 -35 -23 -50t-58 -27l-23 -6q-27 -8 -34 -13.5t-10 -21.5h-60l2 9q6 27 17 37.5t40 20.5l23 8q4 1 11 3.5t10 3.5l7.5 2.5t6.5 2.5t5 3t4 3l3 3t2.5 4t1.5 5
l2 6q2 8 2 11zM762 782h74l-4 -22q-12 -61 -34.5 -86t-77.5 -30l-72 -340q-14 -71 -24.5 -111t-28 -80.5t-37 -59.5t-52.5 -35t-75.5 -21t-104.5 -5q-142 0 -196.5 32.5t-54.5 119.5q0 50 23 160l82 384h113l-88 -416q-17 -85 -17 -112q0 -44 29.5 -59.5t110.5 -15.5
q59 0 90.5 6t53.5 30t31.5 54t23.5 97l89 416h67q38 0 51 13t22 52z" />
    </font>
</defs>
</svg>
