<?xml version="1.0" standalone="no"?>
<!DOCTYPE svg PUBLIC "-//W3C//DTD SVG 1.1//EN" "http://www.w3.org/Graphics/SVG/1.1/DTD/svg11.dtd" >
<svg xmlns="http://www.w3.org/2000/svg" xmlns:xlink="http://www.w3.org/1999/xlink" version="1.1">
<metadata>
Created by FontForge 20170731 at Wed Jul  3 00:25:38 2019
 By Aleksey,,,
Copyright (c) 2019, The Saira Project Authors (https://github.com/Omnibus-Type/Saira/Saira)
</metadata>
<defs>
<font id="Saira-ExtraLight" horiz-adv-x="0" >
  <font-face 
    font-family="Saira ExtraLight"
    font-weight="200"
    font-stretch="normal"
    units-per-em="1000"
    panose-1="0 0 3 0 0 0 0 0 0 0"
    ascent="800"
    descent="-200"
    x-height="510"
    cap-height="688"
    bbox="-625 -394 1240 1163"
    underline-thickness="43"
    underline-position="-244"
    unicode-range="U+000D-FB02"
  />
<missing-glyph horiz-adv-x="500" 
d="M0 0v700h500v-700h-500zM50 50h400v600h-400v-600zM229 215v63q0 29 13.5 48t40.5 41q18 15 28 25t19 29.5t9 43.5q0 31 -19 59t-70 28q-31 0 -52.5 -12t-30.5 -30.5t-12 -32t-3 -25.5v-28h-49q-4 12 -4 31q0 11 2 24.5t11 36.5t24 41t45 31.5t69 13.5t68 -13.5t43 -30
t22 -39t9 -33.5t1 -19q0 -71 -67 -129q-15 -12 -22.5 -19.5t-14.5 -21.5t-7 -29v-53h-53zM225 99v70h60v-70h-60z" />
    <glyph glyph-name="fi" unicode="fi" horiz-adv-x="590" 
d="M136 0v469h-107v41h107v107q0 81 40 103.5t141 22.5v-38q-81 0 -108 -16t-27 -64v-115h135v-41h-135v-469h-46zM444 675v68h53v-68h-53zM448 0v510h46v-510h-46z" />
    <glyph glyph-name="fl" unicode="fl" horiz-adv-x="570" 
d="M136 0v469h-107v41h107v107q0 81 40 103.5t141 22.5v-38q-81 0 -108 -16t-27 -64v-115h135v-41h-135v-469h-46zM428 0v743h46v-743h-46z" />
    <glyph glyph-name="f_f" unicode="ff" horiz-adv-x="701" 
d="M136 0v469h-107v41h107v107q0 81 40 103.5t141 22.5v-38q-81 0 -108 -16t-27 -64v-115h135v-41h-135v-469h-46zM487 0v469h-107v41h107v107q0 81 40 103.5t141 22.5v-38q-81 0 -108 -16t-27 -64v-115h135v-41h-135v-469h-46z" />
    <glyph glyph-name="f_f_i" unicode="ffi" horiz-adv-x="940" 
d="M136 0v469h-107v41h107v107q0 81 40 103.5t141 22.5v-38q-81 0 -108 -16t-27 -64v-115h135v-41h-135v-469h-46zM487 0v469h-107v41h107v107q0 81 40 103.5t141 22.5v-38q-81 0 -108 -16t-27 -64v-115h135v-41h-135v-469h-46zM794 675v68h53v-68h-53zM798 0v510h46v-510
h-46z" />
    <glyph glyph-name="f_f_l" unicode="ffl" horiz-adv-x="920" 
d="M136 0v469h-107v41h107v107q0 81 40 103.5t141 22.5v-38q-81 0 -108 -16t-27 -64v-115h135v-41h-135v-469h-46zM487 0v469h-107v41h107v107q0 81 40 103.5t141 22.5v-38q-81 0 -108 -16t-27 -64v-115h135v-41h-135v-469h-46zM778 0v743h46v-743h-46z" />
    <glyph glyph-name=".notdef" horiz-adv-x="500" 
d="M0 0v700h500v-700h-500zM50 50h400v600h-400v-600zM229 215v63q0 29 13.5 48t40.5 41q18 15 28 25t19 29.5t9 43.5q0 31 -19 59t-70 28q-31 0 -52.5 -12t-30.5 -30.5t-12 -32t-3 -25.5v-28h-49q-4 12 -4 31q0 11 2 24.5t11 36.5t24 41t45 31.5t69 13.5t68 -13.5t43 -30
t22 -39t9 -33.5t1 -19q0 -71 -67 -129q-15 -12 -22.5 -19.5t-14.5 -21.5t-7 -29v-53h-53zM225 99v70h60v-70h-60z" />
    <glyph glyph-name=".null" 
 />
    <glyph glyph-name="nonmarkingreturn" horiz-adv-x="333" 
 />
    <glyph glyph-name="CR" unicode="&#xd;" horiz-adv-x="600" 
 />
    <glyph glyph-name="space" unicode=" " horiz-adv-x="227" 
 />
    <glyph glyph-name="exclam" unicode="!" horiz-adv-x="210" 
d="M88 179q-8 339 -8 373v136h51v-136q0 -46 -3 -187t-4 -186h-36zM76 0v73h59v-73h-59z" />
    <glyph glyph-name="quotedbl" unicode="&#x22;" horiz-adv-x="288" 
d="M74 452l-9 150v86h48v-86l-8 -150h-31zM184 452l-9 150v86h48v-86l-8 -150h-31z" />
    <glyph glyph-name="numbersign" unicode="#" horiz-adv-x="823" 
d="M131 0l45 199h-101v41h111l46 199h-120v40h129l49 209h40l-48 -209h194l48 209h41l-48 -209h108v-40h-118l-46 -199h127v-41h-136l-46 -199h-40l45 199h-194l-46 -199h-40zM226 240h194l47 199h-194z" />
    <glyph glyph-name="dollar" unicode="$" horiz-adv-x="537" 
d="M459 217q0 -86 -37 -116.5t-131 -32.5v-76h-41v76q-99 3 -157 12v42q91 -11 157 -12v217l-60 6q-67 7 -90 35.5t-23 98.5q0 89 40.5 119.5t132.5 32.5v77h41v-77q78 -2 140 -13v-42q-58 9 -140 13v-209l66 -6q62 -6 82 -34t20 -111zM197 377l53 -5v205q-67 -1 -96.5 -20
t-29.5 -84q0 -58 14 -74.5t59 -21.5zM291 110q75 1 98.5 23t23.5 84q0 64 -14 80.5t-56 20.5l-52 5v-213z" />
    <glyph glyph-name="percent" unicode="%" horiz-adv-x="802" 
d="M196 311q-40 0 -63.5 5.5t-39.5 15.5t-22.5 35t-9 54t-2.5 82q0 45 1 70.5t6 50t13.5 36.5t24.5 21.5t37.5 12t54.5 2.5t54.5 -2.5t37.5 -12t24.5 -21.5t13.5 -36.5t6 -50t1 -70.5q0 -53 -2.5 -82t-9 -54t-22.5 -35t-39.5 -15.5t-63.5 -5.5zM153 0l449 688h47l-449 -688
h-47zM196 349q26 0 38 0.5t25.5 6t17.5 13.5t9 27.5t5.5 42.5t0.5 64v65t-4.5 42.5t-8.5 28t-17.5 12.5t-26 6.5t-39.5 0.5q-26 0 -38 -0.5t-25.5 -6t-17.5 -13.5t-9 -27.5t-5.5 -43t-0.5 -64.5t0.5 -64t5.5 -42.5t9 -27.5t17.5 -13.5t25.5 -6t38 -0.5zM607 -8
q-93 0 -115.5 34t-22.5 158q0 53 2.5 82t9.5 54t23 35.5t39.5 16t63.5 5.5q49 0 75 -6.5t40.5 -31t17.5 -56.5t3 -99q0 -54 -2 -82.5t-9 -53.5t-22.5 -35t-39 -15.5t-63.5 -5.5zM607 30q26 0 38 0.5t25.5 6t17.5 13.5t9 27.5t5.5 42.5t0.5 64v65t-4.5 42.5t-8.5 28
t-17.5 12.5t-26 6.5t-39.5 0.5q-26 0 -38 -0.5t-25.5 -6t-17.5 -13.5t-9 -27.5t-5.5 -43t-0.5 -64.5t0.5 -64t5.5 -42.5t9 -27.5t17.5 -13.5t25.5 -6t38 -0.5z" />
    <glyph glyph-name="ampersand" unicode="&#x26;" horiz-adv-x="734" 
d="M524 370h167v-43h-121v-318q-7 -2 -34 -5.5t-77.5 -7.5t-95.5 -4q-74 0 -126.5 8.5t-84 23.5t-49 40.5t-23 52.5t-5.5 67q0 80 30 115t95 50v4q-62 15 -90.5 52t-28.5 110q0 45 11 75.5t40.5 56t86 37.5t143.5 12q109 0 204 -17v-40q-105 16 -182 16q-85 0 -136 -7.5
t-78 -27t-35 -43.5t-8 -66q0 -22 2 -38t11.5 -37t26 -34t48.5 -22.5t76 -9.5h110v-43h-110q-56 0 -91.5 -9.5t-52 -31.5t-21.5 -45t-5 -62q0 -90 54.5 -118t187.5 -28q97 0 161 10v327z" />
    <glyph glyph-name="quotesingle" unicode="'" horiz-adv-x="178" 
d="M74 452l-9 150v86h48v-86l-8 -150h-31z" />
    <glyph glyph-name="parenleft" unicode="(" horiz-adv-x="286" 
d="M226 -150q-59 72 -84 117t-39.5 122.5t-14.5 207.5t14.5 207t40 122.5t83.5 116.5h40q-36 -47 -48.5 -65t-34.5 -59t-29.5 -78.5t-14 -99t-6.5 -144.5t6.5 -145t14 -99t29.5 -78.5t35 -60t48 -64.5h-40z" />
    <glyph glyph-name="parenright" unicode=")" horiz-adv-x="286" 
d="M20 -150q35 46 48 64.5t35 60t29.5 78.5t14 99t6.5 145t-6.5 144.5t-14 99t-29.5 78.5t-34.5 59t-48.5 65h40q58 -71 83.5 -116t40 -123t14.5 -207q0 -99 -6 -162t-25 -114t-41 -83.5t-66 -87.5h-40z" />
    <glyph glyph-name="asterisk" unicode="*" horiz-adv-x="439" 
d="M198 321l6 156l-133 -83l-21 37l138 73l-138 74l21 37l133 -84l-6 157h43l-7 -157l134 84l21 -37l-138 -74l138 -73l-21 -37l-133 83l6 -156h-43z" />
    <glyph glyph-name="plus" unicode="+" horiz-adv-x="540" 
d="M249 53v180h-179v40h179v180h40v-180h181v-40h-181v-180h-40z" />
    <glyph glyph-name="comma" unicode="," horiz-adv-x="187" 
d="M36 -106v26q34 0 43 12t9 51v17h-24v73h59v-77q0 -61 -17 -81.5t-70 -20.5z" />
    <glyph glyph-name="hyphen" unicode="-" horiz-adv-x="356" 
d="M64 263v45h229v-45h-229z" />
    <glyph glyph-name="period" unicode="." horiz-adv-x="187" 
d="M64 0v73h59v-73h-59z" />
    <glyph glyph-name="slash" unicode="/" horiz-adv-x="335" 
d="M-1 -55l290 798h47l-291 -798h-46z" />
    <glyph glyph-name="zero" unicode="0" horiz-adv-x="674" 
d="M337 -8q-65 0 -104 3t-69.5 21t-44 35t-22 66t-9.5 92t-1 135t1 135t9.5 92t22 66t44 35t69.5 21t104 3q39 0 67 -1t53 -6.5t42 -10t32 -18t23.5 -24t15.5 -35.5t10 -44t5 -58t2.5 -69.5t0.5 -85.5t-0.5 -85.5t-2.5 -69.5t-5 -58t-10 -44t-15.5 -35.5t-23.5 -24t-32 -18
t-42 -10t-53 -6.5t-67 -1zM337 36h54t42.5 3.5t34.5 6t25 12.5t19 18.5t12.5 29.5t9 38.5t4 52.5t2.5 65v82v82t-2.5 65t-4 52.5t-9 38.5t-12.5 29.5t-19 18.5t-25 12.5t-34.5 6t-42.5 3.5h-54h-54t-42.5 -3.5t-34.5 -6t-25 -12.5t-19 -18.5t-12.5 -29.5t-9 -38.5t-4 -52.5
t-2.5 -65v-82v-82t2.5 -65t4 -52.5t9 -38.5t12.5 -29.5t19 -18.5t25 -12.5t34.5 -6t42.5 -3.5h54z" />
    <glyph glyph-name="one" unicode="1" horiz-adv-x="367" 
d="M194 0v630l-147 -77v47l159 88h36v-688h-48z" />
    <glyph glyph-name="two" unicode="2" horiz-adv-x="608" 
d="M125 105v-61h405v-44h-453v73q0 45 0.5 66t4.5 47.5t10 38.5t20 27.5t32.5 25.5t47.5 23q31 13 99.5 43t100.5 43q55 24 72.5 51t17.5 82q0 83 -36 107.5t-149 24.5q-85 0 -206 -11v41q95 14 219 14q44 0 71.5 -2t59 -11.5t48.5 -27t29 -49t12 -77.5q0 -82 -26 -118.5
t-99 -68.5q-172 -74 -227 -98q-39 -16 -46 -46q-7 -26 -7 -93z" />
    <glyph glyph-name="three" unicode="3" horiz-adv-x="597" 
d="M260 -8q-106 0 -196 15v41q117 -12 195 -12q109 0 158 27.5t49 115.5q0 79 -34 113.5t-114 34.5h-135v44h135q140 0 140 140q0 88 -46 114.5t-163 26.5q-88 0 -181 -12v41q90 15 193 15q139 0 192.5 -41t53.5 -140q0 -137 -118 -161v-4q61 -10 93 -48t32 -118
q0 -50 -9.5 -82.5t-36.5 -59t-78 -38.5t-130 -12z" />
    <glyph glyph-name="four" unicode="4" horiz-adv-x="639" 
d="M431 0v172h-379v40l276 476h54l-275 -472h325l4 287h43v-287h107v-44h-107v-172h-48z" />
    <glyph glyph-name="five" unicode="5" horiz-adv-x="616" 
d="M285 -8q-107 0 -197 15v41q118 -12 195 -12q126 0 167 33.5t41 128.5q0 101 -41.5 128.5t-184.5 27.5q-54 0 -169 -15v349h392v-44h-346v-258q63 12 165 12q61 0 103.5 -8t67.5 -22t38.5 -39.5t18 -53t4.5 -69.5q0 -123 -51 -168.5t-203 -45.5z" />
    <glyph glyph-name="six" unicode="6" horiz-adv-x="650" 
d="M349 -8q-115 0 -169.5 21.5t-76.5 93.5q-16 48 -16 228q0 178 20 239q24 72 80 97t169 25q83 0 196 -15v-41q-103 12 -186 12q-54 0 -89 -4t-62.5 -17.5t-41.5 -32.5t-23.5 -56t-12 -80t-2.5 -113h6q42 51 209 51q74 0 114.5 -5.5t71.5 -25.5t42.5 -57t11.5 -100
q0 -92 -18 -136.5t-68.5 -64t-154.5 -19.5zM341 36q54 0 84.5 3t56 11t37 26.5t17.5 45.5t6 71q0 40 -2.5 65.5t-12.5 45t-22 29.5t-38 15.5t-52.5 7t-73.5 1.5q-70 0 -110.5 -6.5t-61 -24t-26 -39t-5.5 -60.5q0 -65 8.5 -102t34 -57.5t60.5 -26t100 -5.5z" />
    <glyph glyph-name="seven" unicode="7" horiz-adv-x="559" 
d="M156 0l293 644h-405v44h459v-38l-293 -650h-54z" />
    <glyph glyph-name="eight" unicode="8" horiz-adv-x="682" 
d="M341 -8q-82 0 -133.5 11t-79 37t-37 59t-9.5 85q0 85 29 118t96 47v4q-62 11 -90.5 49t-28.5 113q0 99 53 140t200 41q146 0 199 -41t53 -140q0 -75 -28.5 -113t-90.5 -49v-4q67 -14 96 -47t29 -118q0 -52 -9.5 -85t-36.5 -59t-78.5 -37t-133.5 -11zM341 370
q122 0 163 28.5t41 112.5t-40 113t-164 29q-125 0 -164.5 -29t-39.5 -113t41 -112.5t163 -28.5zM341 36q124 0 167 27.5t43 115.5q0 94 -40 120.5t-170 26.5t-170 -26.5t-40 -120.5q0 -88 43 -115.5t167 -27.5z" />
    <glyph glyph-name="nine" unicode="9" horiz-adv-x="650" 
d="M294 -8q-89 0 -196 15v41q99 -12 185 -12q54 0 89 4t63 17.5t42 32.5t23.5 56t12 80t2.5 113h-6q-43 -51 -210 -51q-74 0 -114 5.5t-71.5 25.5t-42.5 57t-11 100q0 92 18 136.5t68.5 64t154.5 19.5q116 0 170 -20.5t74 -87.5q18 -62 18 -235q0 -177 -23 -247
q-22 -66 -78 -90t-168 -24zM309 331q70 0 110.5 6.5t61 24t26 39t5.5 60.5q0 65 -8.5 102t-34 57.5t-60.5 26t-100 5.5q-54 0 -84.5 -3t-56 -11t-37 -26.5t-17.5 -45.5t-6 -71q0 -40 2.5 -65.5t12.5 -45t21.5 -29.5t37.5 -15.5t52.5 -7t74.5 -1.5z" />
    <glyph glyph-name="colon" unicode=":" horiz-adv-x="187" 
d="M64 437v73h59v-73h-59zM64 0v73h59v-73h-59z" />
    <glyph glyph-name="semicolon" unicode=";" horiz-adv-x="187" 
d="M64 437v73h59v-73h-59zM36 -106v26q34 0 43 12t9 51v17h-24v73h59v-77q0 -61 -17 -81.5t-70 -20.5z" />
    <glyph glyph-name="less" unicode="&#x3c;" horiz-adv-x="541" 
d="M471 45l-400 179v58l400 179v-45l-367 -163l367 -163v-45z" />
    <glyph glyph-name="equal" unicode="=" horiz-adv-x="540" 
d="M70 333v40h400v-40h-400zM70 133v40h400v-40h-400z" />
    <glyph glyph-name="greater" unicode="&#x3e;" horiz-adv-x="541" 
d="M70 45v45l367 163l-367 163v45l400 -179v-58z" />
    <glyph glyph-name="question" unicode="?" horiz-adv-x="497" 
d="M161 179v85q0 53 16 71.5t66 35.5l30 10q65 23 82 48t17 95q0 82 -33.5 105t-129.5 23q-59 0 -169 -11v41q95 14 179 14q110 0 155.5 -34t45.5 -129q0 -76 -16 -115.5t-73 -59.5l-25 -8q-72 -27 -85.5 -39.5t-13.5 -52.5v-79h-46zM155 0v73h59v-73h-59z" />
    <glyph glyph-name="at" unicode="@" horiz-adv-x="925" 
d="M462 -108q-73 0 -122 2t-91 12.5t-67 19.5t-44.5 37t-28.5 49.5t-14.5 72.5t-6 90.5t-0.5 118.5t0.5 118.5t6 90.5t14.5 72.5t28.5 49.5t44.5 37t67 19.5t91 12.5t122 2q97 0 156 -3.5t104.5 -24.5t65.5 -40t32.5 -76t14 -105t1.5 -153q0 -64 -4.5 -104t-12 -64t-25 -35
t-34 -13.5t-49.5 -2.5h-109l-4 69h-4q-16 -46 -57 -61t-98 -15q-84 0 -119.5 26t-35.5 100q0 72 27 99.5t103 27.5q62 0 180 -4v34q0 88 -23.5 108t-118.5 20q-84 0 -137 -11v40q67 10 153 10q107 0 139 -31.5t32 -130.5v-248h84q31 0 44.5 7.5t22.5 48.5t9 130
q0 79 -1 121.5t-6.5 88.5t-15.5 67t-28.5 41.5t-45 28.5t-66.5 13q-79 9 -175 9q-92 0 -169 -9q-31 -3 -53.5 -8.5t-40 -17t-29.5 -23t-20.5 -35.5t-13 -45.5t-7 -61.5t-3 -75t-0.5 -94q0 -61 0.5 -95.5t3.5 -75.5t8 -62t14.5 -45.5t22.5 -35.5t33.5 -22.5t46 -17t60.5 -8.5
q52 -6 148 -6q135 0 177 3v-35q-34 -2 -177 -2zM444 106q86 0 118 30.5t32 115.5v32h-169q-61 0 -79 -16t-18 -73q0 -55 22.5 -72t93.5 -17z" />
    <glyph glyph-name="A" unicode="A" horiz-adv-x="683" 
d="M37 0l278 688h53l278 -688h-51l-87 214h-335l-86 -214h-50zM190 258h301l-147 370h-5z" />
    <glyph glyph-name="B" unicode="B" horiz-adv-x="685" 
d="M111 0v688h310q96 0 135.5 -45t39.5 -127q0 -140 -117 -162v-4q51 -8 80 -37t36.5 -59.5t7.5 -73.5q0 -37 -7 -66t-26 -56.5t-58.5 -42.5t-97.5 -15h-303zM159 371h249q68 0 104 35t36 101q0 73 -30.5 105t-109.5 32h-249v-273zM159 43h253q79 0 111.5 34t32.5 108
q0 73 -34 107.5t-110 34.5h-253v-284z" />
    <glyph glyph-name="C" unicode="C" horiz-adv-x="577" 
d="M356 -8q-62 0 -100.5 4t-71.5 18t-49.5 36t-28.5 64t-15.5 94.5t-3.5 135.5q0 82 3.5 134.5t15.5 94.5t28.5 64t49.5 36.5t71.5 18.5t100.5 4q92 0 154 -13v-41q-68 10 -141 10q-59 0 -92 -2.5t-63 -15t-42.5 -29.5t-22.5 -55.5t-12 -83.5t-2 -122t2 -122t12 -83.5
t22.5 -55.5t42.5 -29.5t63 -15t92 -2.5q78 0 145 10v-43q-66 -11 -158 -11z" />
    <glyph glyph-name="D" unicode="D" horiz-adv-x="692" 
d="M111 0v688h208q54 0 90 -2t68 -10t51 -16.5t35 -30t23 -43t12 -61.5t6 -78.5t1 -102.5t-1 -102.5t-6 -78.5t-12 -61.5t-23 -43t-35 -30t-51 -16.5t-68 -10t-90 -2h-208zM159 44h142h67t53 3t43 5.5t31.5 12t25 18.5t16 28.5t11.5 37.5t5.5 51t3.5 63.5v80.5q0 61 -0.5 98
t-6.5 73t-10.5 54t-21.5 35t-30 23t-46.5 11t-60 5.5t-80.5 0.5h-142v-600z" />
    <glyph glyph-name="E" unicode="E" horiz-adv-x="599" 
d="M111 0v688h431v-44h-383v-274h336v-44h-336v-282h383v-44h-431z" />
    <glyph glyph-name="F" unicode="F" horiz-adv-x="562" 
d="M111 0v688h411v-44h-363v-289h326v-43h-326v-312h-48z" />
    <glyph glyph-name="G" unicode="G" horiz-adv-x="681" 
d="M371 -8q-64 0 -104.5 4.5t-74.5 18.5t-52.5 36.5t-31.5 64t-17 94.5t-4 134q0 80 4.5 133.5t17.5 95t31.5 64t53 36.5t74.5 18.5t103 4.5q117 0 210 -19v-40q-100 15 -177 15q-41 0 -61.5 -0.5t-50.5 -2.5t-44 -6t-34 -12t-28 -18.5t-19.5 -28t-15.5 -39t-9 -52t-6 -66.5
t-1 -83q0 -73 2.5 -117.5t12 -82.5t24 -56.5t43 -32t63.5 -17t91 -3.5q74 0 166 11v265h-185v43h232v-344q-106 -18 -213 -18z" />
    <glyph glyph-name="H" unicode="H" horiz-adv-x="736" 
d="M111 0v688h48v-318h418v318h48v-688h-48v326h-418v-326h-48z" />
    <glyph glyph-name="I" unicode="I" horiz-adv-x="271" 
d="M111 0v688h48v-688h-48z" />
    <glyph glyph-name="J" unicode="J" horiz-adv-x="331" 
d="M38 0v43q31 1 47 1.5t34.5 5t26 7.5t16.5 16.5t11 23.5t5 37t3 48.5v65.5v440h48v-420q0 -55 -0.5 -85.5t-4 -63.5t-7 -48t-15.5 -31.5t-22.5 -21.5t-34.5 -10.5t-45.5 -6t-61.5 -1.5z" />
    <glyph glyph-name="K" unicode="K" horiz-adv-x="666" 
d="M111 0v688h48v-317h161l251 317h55l-266 -338l269 -350h-57l-252 327h-161v-327h-48z" />
    <glyph glyph-name="L" unicode="L" horiz-adv-x="536" 
d="M111 0v688h48v-644h343v-44h-391z" />
    <glyph glyph-name="M" unicode="M" horiz-adv-x="912" 
d="M111 0v688h63l280 -614h5l280 614h62v-688h-47v602h-4l-275 -602h-39l-275 602h-4v-602h-46z" />
    <glyph glyph-name="N" unicode="N" horiz-adv-x="736" 
d="M111 0v688h48l415 -599h4v599h47v-688h-47l-416 602h-4v-602h-47z" />
    <glyph glyph-name="O" unicode="O" horiz-adv-x="723" 
d="M362 -8q-41 0 -71 1t-57.5 6t-46 10.5t-34.5 18t-26 24.5t-18 35t-12 44.5t-6.5 57.5t-3 69.5t-0.5 85.5t0.5 85.5t3 69.5t6.5 57.5t12 44.5t18 35t26 24.5t34.5 18t46 10.5t57.5 6t71 1t71 -1t57 -6t45.5 -10.5t35 -18t26.5 -24.5t18 -35t11.5 -44.5t6.5 -57.5
t3.5 -69.5t0.5 -85.5t-0.5 -85.5t-3.5 -69.5t-6.5 -57.5t-11.5 -44.5t-18 -35t-26.5 -24.5t-35 -18t-45.5 -10.5t-57 -6t-71 -1zM362 36q62 0 90 1t60 12t42 26.5t21 54.5t12.5 85t1.5 129t-1.5 129t-12.5 85t-21 54.5t-42 26.5t-60 12t-90 1q-47 0 -70.5 -0.5t-53 -5.5
t-41 -11t-27 -23.5t-19.5 -36.5t-9.5 -55.5t-6 -75t-0.5 -100.5t0.5 -100.5t6 -75t9.5 -55.5t19.5 -36.5t27 -23.5t41 -11t53 -5.5t70.5 -0.5z" />
    <glyph glyph-name="P" unicode="P" horiz-adv-x="654" 
d="M111 0v688h291q52 0 88.5 -12t56 -29t30 -47t13 -55.5t2.5 -65.5q0 -39 -2.5 -65t-13.5 -56t-30.5 -47.5t-56 -29.5t-87.5 -12h-243v-269h-48zM159 313h235q51 0 82 10t45.5 34.5t18.5 50t4 71.5t-3.5 70.5t-17.5 49.5t-45.5 35t-83.5 10h-235v-331z" />
    <glyph glyph-name="Q" unicode="Q" horiz-adv-x="723" 
d="M551 16l98 -129v-2h-56l-88 117q-45 -10 -143 -10q-41 0 -71 1t-57.5 6t-46 10.5t-34.5 18t-26 24.5t-18 35t-12 44.5t-6.5 57.5t-3 69.5t-0.5 85.5t0.5 85.5t3 69.5t6.5 57.5t12 44.5t18 35t26 24.5t34.5 18t46 10.5t57.5 6t71 1t71 -1t57 -6t45.5 -10.5t35 -18
t26.5 -24.5t18 -35t11.5 -44.5t6.5 -57.5t3.5 -69.5t0.5 -85.5q0 -167 -15 -235t-71 -93zM362 36q85 0 114 4l-133 178h55l125 -165q42 19 54 79t12 212q0 83 -1.5 129t-12.5 85t-21 54.5t-42 26.5t-60 12t-90 1q-47 0 -70.5 -0.5t-53 -5.5t-41 -11t-27 -23.5t-19.5 -36.5
t-9.5 -55.5t-6 -75t-0.5 -100.5t0.5 -100.5t6 -75t9.5 -55.5t19.5 -36.5t27 -23.5t41 -11t53 -5.5t70.5 -0.5z" />
    <glyph glyph-name="R" unicode="R" horiz-adv-x="684" 
d="M608 0h-53l-115 290q-14 -1 -35 -1h-246v-289h-48v688h308q50 0 84.5 -11.5t53 -28.5t28.5 -46t12.5 -52.5t2.5 -60.5q0 -36 -3 -61t-13.5 -53.5t-34.5 -48t-61 -28.5zM398 333q52 0 84 10t47 33.5t19 47.5t4 65q0 42 -3.5 65t-16.5 46.5t-42.5 33.5t-78.5 10h-252v-311
h239z" />
    <glyph glyph-name="S" unicode="S" horiz-adv-x="634" 
d="M332 -8q-125 0 -235 12v44q117 -12 221 -12q105 0 149 23q42 23 42 126q0 33 -0.5 49.5t-5 34.5t-10.5 24.5t-21 14t-33 10.5t-49 6l-180 19q-47 5 -75 17.5t-40 37.5t-15 48t-3 66q0 112 54.5 148t185.5 36q137 0 205 -14v-42q-94 12 -199 12q-119 0 -160 -28
q-23 -15 -30.5 -41t-7.5 -72q0 -71 16.5 -93.5t78.5 -28.5l173 -19q38 -4 57.5 -7t42 -10.5t35 -21.5t19.5 -36q10 -29 10 -105q0 -55 -11.5 -92.5t-28 -58.5t-49 -31.5t-60.5 -13t-76 -2.5z" />
    <glyph glyph-name="T" unicode="T" horiz-adv-x="581" 
d="M267 0v644h-229v44h506v-44h-229v-644h-48z" />
    <glyph glyph-name="U" unicode="U" horiz-adv-x="715" 
d="M358 -8q-60 0 -100.5 5t-70 20.5t-45.5 35t-25.5 57.5t-12 78.5t-2.5 107.5v392h48v-423q0 -52 1.5 -82t9 -59.5t20 -43.5t37 -25.5t57.5 -15t83 -3.5t83 3.5t57 15t36.5 25.5t20 43.5t9 59t1.5 82.5v423h48v-392q0 -67 -2.5 -107.5t-12 -78.5t-25.5 -57.5t-45 -35
t-69.5 -20.5t-100.5 -5z" />
    <glyph glyph-name="V" unicode="V" horiz-adv-x="663" 
d="M305 0l-268 688h51l241 -622h5l241 622h50l-268 -688h-52z" />
    <glyph glyph-name="W" unicode="W" horiz-adv-x="984" 
d="M245 0l-200 688h51l174 -612h6l192 612h51l192 -612h6l173 612h49l-200 -688h-51l-194 607h-4l-194 -607h-51z" />
    <glyph glyph-name="X" unicode="X" horiz-adv-x="674" 
d="M37 0l271 346l-267 342h59l234 -301h7l235 301h57l-267 -341l270 -347h-58l-237 304h-8l-239 -304h-57z" />
    <glyph glyph-name="Y" unicode="Y" horiz-adv-x="601" 
d="M276 0v277l-258 411h54l225 -362h7l226 362h53l-259 -411v-277h-48z" />
    <glyph glyph-name="Z" unicode="Z" horiz-adv-x="602" 
d="M58 0v41l422 603h-411v44h472v-41l-422 -604h429v-43h-490z" />
    <glyph glyph-name="bracketleft" unicode="[" horiz-adv-x="315" 
d="M111 -150v893h164v-39l-119 -4v-807l119 -4v-39h-164z" />
    <glyph glyph-name="backslash" unicode="\" horiz-adv-x="335" 
d="M290 -55l-291 798h47l290 -798h-46z" />
    <glyph glyph-name="bracketright" unicode="]" horiz-adv-x="315" 
d="M40 -150v39l119 4v807l-119 4v39h164v-893h-164z" />
    <glyph glyph-name="asciicircum" unicode="^" horiz-adv-x="467" 
d="M65 444l139 305h58l139 -305h-44l-124 274l-124 -274h-44z" />
    <glyph glyph-name="underscore" unicode="_" horiz-adv-x="344" 
d="M0 -162v40h344v-40h-344z" />
    <glyph glyph-name="grave" unicode="`" horiz-adv-x="201" 
d="M147 602l-127 134v5h56l105 -134v-5h-34z" />
    <glyph glyph-name="a" unicode="a" horiz-adv-x="573" 
d="M243 -8q-98 0 -139 30t-41 117q0 84 31.5 115t120.5 31q67 0 215 -4v42q0 56 -5.5 84.5t-26.5 45.5t-50 20.5t-90 3.5q-84 0 -160 -12v41q74 12 178 12q125 0 162.5 -37t37.5 -153v-328h-39l-3 80h-5q-19 -53 -68.5 -70.5t-117.5 -17.5zM249 32q62 0 101.5 11t56.5 46
q23 50 23 121v37h-203q-73 0 -96 -19.5t-23 -87.5q0 -66 27.5 -87t113.5 -21z" />
    <glyph glyph-name="b" unicode="b" horiz-adv-x="594" 
d="M324 -8q-70 0 -116 18t-65 71h-4l-4 -81h-38v743h46v-305h4q18 43 61 61.5t116 18.5q123 0 160.5 -51t37.5 -212q0 -160 -38 -211.5t-160 -51.5zM309 34q58 0 88 6.5t49.5 32t24.5 65.5t5 117t-5 117t-24.5 65.5t-49.5 32t-88 6.5q-124 0 -150 -71q-16 -45 -16 -150
q0 -106 15 -148q25 -73 151 -73z" />
    <glyph glyph-name="c" unicode="c" horiz-adv-x="458" 
d="M275 -8q-47 0 -79.5 5.5t-55.5 20.5t-36 33.5t-20 51.5t-9 65.5t-2 85.5q0 157 38.5 210.5t158.5 53.5q77 0 132 -12v-40q-62 11 -122 11q-103 0 -132 -41.5t-29 -179.5q0 -142 29 -182.5t135 -40.5q71 0 124 12v-41q-55 -12 -132 -12z" />
    <glyph glyph-name="d" unicode="d" horiz-adv-x="594" 
d="M270 -8q-122 0 -159.5 51t-37.5 212q0 160 37.5 211.5t159.5 51.5q73 0 116 -18.5t61 -61.5h5v305h46v-743h-39l-3 81h-5q-19 -53 -65 -71t-116 -18zM286 34q126 0 150 71q16 48 16 162q0 88 -14 129q-14 43 -51.5 61.5t-105.5 18.5q-45 0 -71.5 -5t-46 -16.5
t-28.5 -38.5t-12.5 -63t-3.5 -98t4 -98t12.5 -63t29 -38.5t47.5 -16.5t74 -5z" />
    <glyph glyph-name="e" unicode="e" horiz-adv-x="561" 
d="M489 256v-17h-370q0 -46 2 -73.5t8.5 -53.5t18 -39t32.5 -23t49 -13.5t71 -3.5q93 0 169 13v-41q-65 -13 -177 -13q-49 0 -83 4.5t-59.5 17.5t-39.5 30.5t-23 49.5t-11.5 68t-2.5 92q0 57 1.5 88.5t8.5 66.5t20.5 51.5t38.5 32t61.5 20.5t89.5 5q47 0 79 -4.5t54 -19
t34.5 -31t19 -50.5t8 -67t1.5 -90zM290 477q-61 0 -92.5 -6t-50.5 -30t-23.5 -58.5t-4.5 -104.5h324v18q0 62 -6.5 97t-26 54.5t-45.5 24.5t-75 5z" />
    <glyph glyph-name="f" unicode="f" horiz-adv-x="351" 
d="M136 0v469h-107v41h107v107q0 81 40 103.5t141 22.5v-38q-81 0 -108 -16t-27 -64v-115h135v-41h-135v-469h-46z" />
    <glyph glyph-name="g" unicode="g" horiz-adv-x="594" 
d="M278 -206q-115 0 -185 8v40q96 -7 177 -7q62 0 97 9t54.5 37t25 66t5.5 110v16h-5q-17 -43 -60.5 -61.5t-116.5 -18.5q-122 0 -159.5 51t-37.5 211q0 161 37.5 212t160.5 51q69 0 115 -18t65 -71h5l3 81h39v-439q0 -84 -7 -132t-30.5 -83.5t-66.5 -48.5t-116 -13zM286 34
q125 0 150 75q16 45 16 146q0 103 -13 140q-15 44 -52 62.5t-101 18.5q-47 0 -74 -5t-47.5 -16.5t-29 -38.5t-12.5 -63t-4 -98t4 -98t12.5 -63t29 -38.5t47.5 -16.5t74 -5z" />
    <glyph glyph-name="h" unicode="h" horiz-adv-x="602" 
d="M97 0v743h46v-306h4q32 81 175 81q60 0 96 -10.5t55.5 -36t26 -60t6.5 -91.5v-320h-46v309q0 109 -27 138t-124 29q-35 0 -61.5 -6t-44 -14.5t-29 -26t-18 -31t-9.5 -40.5t-3.5 -44t-0.5 -50v-264h-46z" />
    <glyph glyph-name="i" unicode="i" horiz-adv-x="239" 
d="M93 675v68h53v-68h-53zM97 0v510h46v-510h-46z" />
    <glyph glyph-name="j" unicode="j" horiz-adv-x="239" 
d="M93 675v68h53v-68h-53zM-4 -200v38q66 0 83.5 11t17.5 46v615h46v-603q0 -71 -30.5 -89t-116.5 -18z" />
    <glyph glyph-name="k" unicode="k" horiz-adv-x="524" 
d="M97 0v743h46v-462h80l205 229h55l-223 -248l226 -262h-58l-205 238h-80v-238h-46z" />
    <glyph glyph-name="l" unicode="l" horiz-adv-x="239" 
d="M97 0v743h46v-743h-46z" />
    <glyph glyph-name="m" unicode="m" horiz-adv-x="890" 
d="M97 0v510h38l4 -81h4q28 89 160 89q73 0 108 -20.5t48 -68.5h5q28 89 164 89q102 0 133.5 -42.5t31.5 -155.5v-320h-46v309q0 109 -23 138t-109 29q-27 0 -48 -3.5t-36.5 -12t-26 -17t-17.5 -25.5t-11 -29.5t-5.5 -37t-2 -40.5t-0.5 -47v-264h-46v309q0 109 -23.5 138
t-108.5 29q-31 0 -54 -6t-39 -14.5t-26.5 -25.5t-16 -31t-8 -40.5t-3 -44t-0.5 -50.5v-264h-46z" />
    <glyph glyph-name="n" unicode="n" horiz-adv-x="602" 
d="M97 0v510h38l4 -81h4q9 27 26.5 45t56 31t96.5 13q60 0 96 -10.5t55.5 -36t26 -60t6.5 -91.5v-320h-46v309q0 109 -27 138t-124 29q-35 0 -61.5 -6t-44 -14.5t-29 -26t-18 -31t-9.5 -40.5t-3.5 -44t-0.5 -50v-264h-46z" />
    <glyph glyph-name="o" unicode="o" horiz-adv-x="579" 
d="M289 -8q-53 0 -87 4t-59.5 17t-38.5 28.5t-20.5 49.5t-9 68t-1.5 95t1.5 95t9 68.5t20.5 50t38.5 29t59.5 17.5t87 4q40 0 68.5 -2t52 -9t38.5 -15t26.5 -25.5t17 -34t9 -46.5t4.5 -58t1 -74q0 -45 -1 -73t-4.5 -58t-9 -46.5t-17 -33.5t-26.5 -25t-38.5 -15t-52 -9
t-68.5 -2zM289 33q27 0 46.5 0.5t37 4.5t29 6.5t21.5 12.5t16 15.5t10 23t6 27.5t3.5 36t1.5 42.5v52.5q0 150 -24 186.5t-147 36.5q-122 0 -146 -36.5t-24 -186.5q0 -149 24 -185t146 -36z" />
    <glyph glyph-name="p" unicode="p" horiz-adv-x="594" 
d="M97 -200v710h38l4 -81h4q19 53 65 71t116 18q122 0 160 -51t38 -212t-37.5 -212t-160.5 -51q-73 0 -116 18.5t-61 61.5h-4v-272h-46zM309 34q58 0 88 6.5t49.5 32t24.5 65.5t5 117t-5 117t-24.5 65.5t-49.5 32t-88 6.5q-127 0 -152 -76q-14 -40 -14 -145q0 -103 11 -137
q16 -45 53 -64.5t102 -19.5z" />
    <glyph glyph-name="q" unicode="q" horiz-adv-x="594" 
d="M452 -200v272h-5q-18 -43 -61 -61.5t-116 -18.5q-122 0 -159.5 51t-37.5 212q0 160 37.5 211.5t159.5 51.5q70 0 116 -18t65 -71h5l3 81h39v-710h-46zM286 34q64 0 101 18.5t52 61.5q13 41 13 141q0 103 -17 151q-24 70 -149 70q-47 0 -74 -5t-47.5 -16.5t-29 -38.5
t-12.5 -63t-4 -98t4 -98t12.5 -63t29 -38.5t47.5 -16.5t74 -5z" />
    <glyph glyph-name="r" unicode="r" horiz-adv-x="347" 
d="M97 0v510h38l4 -106h4q16 65 60 89.5t115 24.5v-46q-103 0 -139 -52.5t-36 -166.5v-253h-46z" />
    <glyph glyph-name="s" unicode="s" horiz-adv-x="500" 
d="M254 -8q-89 0 -175 11v41q103 -11 185 -11q81 0 104.5 21.5t23.5 80.5q0 33 -3 50.5t-13.5 27t-21.5 12t-37 5.5l-144 15q-65 7 -87.5 33.5t-22.5 93.5q0 49 12 79t40 44.5t58.5 18.5t83.5 4q84 0 152 -13v-40q-77 12 -165 12q-37 0 -57 -2.5t-41 -11.5t-29.5 -29.5
t-8.5 -55.5q0 -55 14 -70t61 -20l142 -14q68 -7 90 -32t22 -107q0 -86 -41 -114.5t-142 -28.5z" />
    <glyph glyph-name="t" unicode="t" horiz-adv-x="336" 
d="M136 0v469h-107v41h107v148h46v-148h125v-41h-125v-469h-46z" />
    <glyph glyph-name="u" unicode="u" horiz-adv-x="602" 
d="M281 -8q-60 0 -96.5 10t-55.5 36.5t-25.5 60t-6.5 91.5v320h46v-309q0 -109 27 -138t124 -29q34 0 60.5 6t44 14.5t29.5 25.5t18.5 31.5t9.5 40.5t3.5 43.5t0.5 50.5v264h46v-510h-39l-3 81h-5q-15 -42 -54.5 -65.5t-123.5 -23.5z" />
    <glyph glyph-name="v" unicode="v" horiz-adv-x="523" 
d="M236 0l-203 510h49l177 -452h6l177 452h48l-203 -510h-51z" />
    <glyph glyph-name="w" unicode="w" horiz-adv-x="806" 
d="M211 0l-174 510h49l148 -443h6l140 443h47l141 -443h6l147 443h48l-175 -510h-49l-140 432h-6l-138 -432h-50z" />
    <glyph glyph-name="x" unicode="x" horiz-adv-x="539" 
d="M38 0l202 259l-195 251h56l166 -213h5l167 213h55l-196 -250l203 -260h-56l-173 222h-6l-173 -222h-55z" />
    <glyph glyph-name="y" unicode="y" horiz-adv-x="602" 
d="M283 -206q-97 0 -170 7v41q100 -7 162 -7q43 0 73 5t50.5 17t32.5 27t18.5 41.5t8.5 52.5t2 68v28h-5q-30 -81 -174 -81q-60 0 -96.5 10t-55.5 36t-25.5 60t-6.5 92v319h46v-309q0 -109 27 -138t124 -29q34 0 60.5 6t44 14.5t29.5 26t18.5 31.5t9.5 40.5t3.5 44t0.5 50.5
v263h46v-444q0 -80 -8 -128t-32.5 -82.5t-67.5 -48t-115 -13.5z" />
    <glyph glyph-name="z" unicode="z" horiz-adv-x="499" 
d="M54 0v36l327 433h-315v41h376v-36l-326 -433h328v-41h-390z" />
    <glyph glyph-name="braceleft" unicode="{" horiz-adv-x="306" 
d="M243 -150q-42 22 -74 74.5t-32 111.5v115q0 54 -25 91.5t-83 37.5v33q58 0 83 37.5t25 91.5v115q0 59 32 111.5t74 74.5h43q-42 -26 -73 -75.5t-31 -99.5v-121q0 -125 -88 -148v-5q88 -23 88 -148v-121q0 -50 31 -99.5t73 -75.5h-43z" />
    <glyph glyph-name="bar" unicode="|" horiz-adv-x="268" 
d="M112 -161v904h44v-904h-44z" />
    <glyph glyph-name="braceright" unicode="}" horiz-adv-x="306" 
d="M20 -150q42 26 73 75.5t31 99.5v121q0 125 88 148v5q-88 23 -88 148v121q0 50 -31 99.5t-73 75.5h43q42 -22 73.5 -74.5t31.5 -111.5v-115q0 -54 25 -91.5t83 -37.5v-33q-58 0 -83 -37.5t-25 -91.5v-115q0 -59 -31.5 -111.5t-73.5 -74.5h-43z" />
    <glyph glyph-name="asciitilde" unicode="~" horiz-adv-x="497" 
d="M75 247q0 57 12 78t52 21q43 0 120 -27q70 -22 97 -22q22 0 28 12.5t6 47.5h32q0 -57 -12.5 -78t-52.5 -21q-41 0 -120 27q-62 22 -96 22q-21 0 -27.5 -12.5t-6.5 -47.5h-32z" />
    <glyph glyph-name="uni00A0" unicode="&#xa0;" horiz-adv-x="227" 
 />
    <glyph glyph-name="exclamdown" unicode="&#xa1;" horiz-adv-x="209" 
d="M75 437v73h59v-73h-59zM79 -178v136q0 46 3 187t4 186h36q8 -339 8 -373v-136h-51z" />
    <glyph glyph-name="cent" unicode="&#xa2;" horiz-adv-x="467" 
d="M413 124v-44q-45 -10 -114 -12v-76h-41v77q-115 4 -150 59t-35 214q0 113 18 171.5t56 81t111 24.5v77h41v-77q65 -3 109 -13v-42q-46 12 -109 12v-466q65 2 114 14zM121 344q0 -141 25.5 -184.5t111.5 -48.5v464q-59 -3 -87 -22t-39 -65.5t-11 -143.5z" />
    <glyph glyph-name="sterling" unicode="&#xa3;" horiz-adv-x="583" 
d="M180 44h354v-44h-476v44h74v292h-74v43h75q0 102 8.5 159t36.5 95t74.5 50.5t127.5 12.5q90 0 142 -13v-41q-65 10 -125 10q-118 0 -156 -22q-37 -22 -49 -83.5t-12 -167.5h267v-43h-267v-292z" />
    <glyph glyph-name="currency" unicode="&#xa4;" horiz-adv-x="752" 
d="M100 -15l-27 28l114 114q-18 28 -23.5 76.5t-5.5 139.5q0 90 5.5 138.5t22.5 77.5l-113 114l28 28l113 -113q41 31 161 31q122 0 162 -31l114 113l27 -27l-113 -114q17 -29 22 -78t5 -139t-5 -138.5t-22 -77.5l114 -114l-28 -29l-115 115q-42 -30 -161 -30
q-120 0 -160 31zM375 110q27 0 46.5 0.5t37 5t29 7t21.5 13t16 16.5t10 24t6 29t3.5 38.5t1.5 44.5v55q0 158 -24 196.5t-147 38.5q-26 0 -46 -0.5t-37 -5t-28.5 -7t-21.5 -13t-16 -16.5t-10.5 -24.5t-6 -29.5t-3 -38.5t-1.5 -45v-55.5q0 -157 24 -195t146 -38z" />
    <glyph glyph-name="yen" unicode="&#xa5;" horiz-adv-x="620" 
d="M581 688l-139 -239h103v-39h-125l-67 -115h192v-39h-212v-256h-48v256h-212v39h193l-67 115h-126v39h104l-139 239h53l135 -239h169l135 239h51zM314 305l59 105h-125l59 -105h7z" />
    <glyph glyph-name="brokenbar" unicode="&#xa6;" horiz-adv-x="268" 
d="M112 390v353h44v-353h-44zM112 -161v353h44v-353h-44z" />
    <glyph glyph-name="section" unicode="&#xa7;" horiz-adv-x="698" 
d="M326 -171q-95 0 -168 11v42q80 -10 156 -10q41 0 63.5 1t48.5 6.5t38.5 15.5t21 29t8.5 47q0 59 -14 80t-59 33l-245 67q-60 15 -84.5 41.5t-24.5 90.5q0 25 1.5 44.5t8.5 43t18 39t32 27t49 12.5q-20 28 -20 103q0 85 51.5 114.5t164.5 29.5q94 0 167 -11v-42
q-72 9 -155 9q-41 0 -64 -1t-49 -6.5t-38.5 -15.5t-21 -28.5t-8.5 -46.5q0 -60 17 -81t79 -38l227 -62q53 -15 78.5 -41.5t25.5 -89.5q0 -32 -3.5 -56t-13.5 -51t-33 -42.5t-58 -16.5q19 -29 19 -103q0 -84 -51.5 -114t-163.5 -30zM506 111q78 0 78 116q0 52 -15 72t-66 34
l-241 64q-59 16 -70 16q-78 0 -78 -116q0 -51 13 -71t56 -32l256 -68q57 -15 67 -15z" />
    <glyph glyph-name="dieresis" unicode="&#xa8;" horiz-adv-x="300" 
d="M20 645v65h51v-65h-51zM229 645v65h51v-65h-51z" />
    <glyph glyph-name="copyright" unicode="&#xa9;" horiz-adv-x="726" 
d="M363 -8q-72 0 -114.5 3t-76 20.5t-48 34t-24 66.5t-10.5 92.5t-1 135.5t1 135.5t10.5 92.5t24 66.5t48 34t76 20.5t114.5 3t114.5 -3t76 -20.5t48 -34t24 -66.5t10.5 -92.5t1 -135.5t-1 -135.5t-10.5 -92.5t-24 -66.5t-48 -34t-76 -20.5t-114.5 -3zM363 21q39 0 64 0.5
t51 4.5t41 7.5t30.5 15t23 20.5t15 31.5t10 40.5t5 54t2.5 66v83v83t-2.5 66t-5 54t-10 40.5t-15 31.5t-23 20.5t-30.5 15t-41 7.5t-51 4.5t-64 0.5t-64 -0.5t-51 -4.5t-41 -7.5t-30.5 -15t-23 -20.5t-15 -31.5t-10 -40.5t-5 -54t-2.5 -66v-83v-83t2.5 -66t5 -54t10 -40.5
t15 -31.5t23 -20.5t30.5 -15t41 -7.5t51 -4.5t64 -0.5zM386 154q-34 0 -55 2t-39 10t-27 19.5t-15.5 34.5t-8.5 51t-2 73q0 124 25.5 157t121.5 33q57 0 85 -7v-33q-33 5 -80 5q-43 0 -62.5 -3.5t-33.5 -21t-16.5 -45t-2.5 -85.5q0 -39 1 -62t6 -42.5t11.5 -28t21 -14.5
t30.5 -7.5t45 -1.5q49 0 82 5v-34q-35 -5 -87 -5z" />
    <glyph glyph-name="ordfeminine" unicode="&#xaa;" horiz-adv-x="403" 
d="M174 316q-71 0 -100.5 21.5t-29.5 85.5q0 62 22.5 84.5t88.5 22.5q10 0 35 -0.5t60.5 -1.5t53.5 -1v27q0 71 -20 88t-99 17q-68 0 -117 -9v37q45 9 130 9q91 0 118.5 -27t27.5 -112v-237h-34l-5 43h-4q-18 -30 -49.5 -38.5t-77.5 -8.5zM179 350q96 0 112 41q13 31 13 81
v24h-139q-50 0 -66.5 -13.5t-16.5 -58.5t19.5 -59.5t77.5 -14.5z" />
    <glyph glyph-name="guillemotleft" unicode="&#xab;" horiz-adv-x="459" 
d="M189 99l-132 205l132 206h37l-118 -206l118 -205h-37zM344 99l-132 205l132 206h38l-118 -206l118 -205h-38z" />
    <glyph glyph-name="logicalnot" unicode="&#xac;" horiz-adv-x="539" 
d="M427 53v181h-357v42h399v-223h-42z" />
    <glyph glyph-name="uni00AD" unicode="&#xad;" horiz-adv-x="356" 
d="M64 263v45h229v-45h-229z" />
    <glyph glyph-name="registered" unicode="&#xae;" horiz-adv-x="726" 
d="M363 696q72 0 114.5 -3t76 -20.5t48 -34t24 -66.5t10.5 -92.5t1 -135.5t-1 -135.5t-10.5 -92.5t-24 -66.5t-48 -34t-76 -20.5t-114.5 -3t-114.5 3t-76 20.5t-48 34t-24 66.5t-10.5 92.5t-1 135.5t1 135.5t10.5 92.5t24 66.5t48 34t76 20.5t114.5 3zM363 21q39 0 64 0.5
t51 4.5t41 7.5t30.5 15t23 20.5t15 31.5t10 40.5t5 54t2.5 66v83v83t-2.5 66t-5 54t-10 40.5t-15 31.5t-23 20.5t-30.5 15t-41 7.5t-51 4.5t-64 0.5t-64 -0.5t-51 -4.5t-41 -7.5t-30.5 -15t-23 -20.5t-15 -31.5t-10 -40.5t-5 -54t-2.5 -66v-83v-83t2.5 -66t5 -54t10 -40.5
t15 -31.5t23 -20.5t30.5 -15t41 -7.5t51 -4.5t64 -0.5zM501 419q0 -84 -56 -104l64 -158h-42l-59 153q-6 -1 -20 -1h-117v-152h-37v372h166q34 0 56 -9t31 -27t11.5 -33.5t2.5 -40.5zM271 343h117q49 0 63 18t14 58t-12.5 58t-56.5 18h-125v-152z" />
    <glyph glyph-name="macron" unicode="&#xaf;" horiz-adv-x="314" 
d="M22 646v38h271v-38h-271z" />
    <glyph glyph-name="degree" unicode="&#xb0;" horiz-adv-x="386" 
d="M193 397q-84 0 -104.5 27t-20.5 122t20.5 122.5t104.5 27.5q45 0 69 -5.5t37 -25t16 -44t3 -75.5t-3 -75.5t-16 -43.5t-37 -24.5t-69 -5.5zM193 432q61 0 73 19t12 95q0 77 -12 96t-73 19t-73 -19t-12 -96q0 -76 12 -95t73 -19z" />
    <glyph glyph-name="plusminus" unicode="&#xb1;" horiz-adv-x="540" 
d="M249 184v180h-179v40h179v180h40v-180h181v-40h-181v-180h-40zM70 0v40h400v-40h-400z" />
    <glyph glyph-name="uni00B2" unicode="&#xb2;" horiz-adv-x="358" 
d="M44 420v43q0 68 9.5 89.5t55.5 39.5l113 44q33 14 41 24t8 40q0 41 -19.5 52.5t-82.5 11.5q-62 0 -117 -7v35q58 9 129 9q33 0 52.5 -2.5t40.5 -11t30.5 -29t9.5 -53.5q0 -45 -15.5 -66t-56.5 -37l-128 -50q-19 -8 -23.5 -18t-4.5 -48v-28h228v-38h-270z" />
    <glyph glyph-name="uni00B3" unicode="&#xb3;" horiz-adv-x="352" 
d="M154 416q-64 0 -118 8v35q78 -6 113 -6q62 0 88 12.5t26 55.5q0 39 -18.5 55t-62.5 16h-79v37h79q77 0 77 67q0 43 -25 55.5t-90 12.5q-56 0 -106 -6v34q59 9 117 9q82 0 114 -22t32 -77q0 -75 -68 -89v-2q36 -6 54 -26.5t18 -64.5q0 -55 -31 -79.5t-120 -24.5z" />
    <glyph glyph-name="acute" unicode="&#xb4;" horiz-adv-x="201" 
d="M20 602v5l105 134h56v-5l-126 -134h-35z" />
    <glyph glyph-name="uni00B5" unicode="&#xb5;" horiz-adv-x="602" 
d="M460 510h46v-510h-39l-3 81h-5q-15 -42 -54.5 -65.5t-123.5 -23.5q-98 0 -138 41v-223h-46v700h46v-309q0 -109 27 -138t124 -29q34 0 60.5 6t44 14.5t29.5 25.5t18.5 31.5t9.5 40.5t3.5 43.5t0.5 50.5v264z" />
    <glyph glyph-name="paragraph" unicode="&#xb6;" horiz-adv-x="564" 
d="M316 -144v366q-62 0 -99.5 2.5t-67 13.5t-43 23t-22.5 43t-10.5 61.5t-1.5 88.5t1.5 88.5t10 61.5t22.5 43.5t43.5 24t67 14t99.5 2.5h43v-832h-43zM425 -144v832h41v-832h-41z" />
    <glyph glyph-name="periodcentered" unicode="&#xb7;" horiz-adv-x="187" 
d="M64 263v73h59v-73h-59z" />
    <glyph glyph-name="cedilla" unicode="&#xb8;" horiz-adv-x="135" 
d="M20 -190v5l62 203h33v-5l-45 -203h-50z" />
    <glyph glyph-name="uni00B9" unicode="&#xb9;" horiz-adv-x="222" 
d="M111 420v328l-86 -41v38l96 51h33v-376h-43z" />
    <glyph glyph-name="ordmasculine" unicode="&#xba;" horiz-adv-x="416" 
d="M208 315q-39 0 -64 2.5t-43.5 12t-28 21t-15.5 36t-7 49t-1 68.5t1.5 68.5t6.5 49.5t15 36.5t28.5 21.5t43.5 13t64 3q38 0 63.5 -3t43.5 -13t28 -21.5t15 -36.5t6.5 -49.5t1.5 -68.5t-1 -68.5t-7 -49t-15 -36t-27.5 -21t-43.5 -12t-64 -2.5zM208 350q31 0 50 1.5t33 10
t20.5 15.5t10 29.5t4 39.5t0.5 58q0 40 -0.5 57t-4 40t-10 30t-20.5 16t-33 10.5t-50 1.5t-50 -1.5t-33 -10.5t-20.5 -16t-10 -30t-4 -40t-0.5 -57q0 -41 0.5 -58t4 -39.5t10 -29.5t20.5 -15.5t33 -10t50 -1.5z" />
    <glyph glyph-name="guillemotright" unicode="&#xbb;" horiz-adv-x="459" 
d="M77 99l118 205l-118 206h38l132 -206l-132 -205h-38zM233 99l118 205l-118 206h38l131 -206l-131 -205h-38z" />
    <glyph glyph-name="onequarter" unicode="&#xbc;" horiz-adv-x="658" 
d="M41 0l449 688h47l-449 -688h-47zM111 308v328l-86 -41v38l96 51h33v-376h-43zM530 0v89h-216v32l152 255h47l-152 -251h169l8 139h34v-139h59v-36h-59v-89h-42z" />
    <glyph glyph-name="onehalf" unicode="&#xbd;" horiz-adv-x="714" 
d="M41 0l449 688h47l-449 -688h-47zM111 308v328l-86 -41v38l96 51h33v-376h-43zM400 0v43q0 68 9.5 89.5t55.5 39.5l113 44q33 14 41 24t8 40q0 41 -19.5 52.5t-82.5 11.5q-62 0 -117 -7v35q58 9 129 9q33 0 52.5 -2.5t40.5 -11t30.5 -29t9.5 -53.5q0 -45 -15.5 -66
t-56.5 -37l-128 -50q-19 -8 -23.5 -18t-4.5 -48v-28h228v-38h-270z" />
    <glyph glyph-name="threequarters" unicode="&#xbe;" horiz-adv-x="788" 
d="M154 304q-64 0 -118 8v35q78 -6 113 -6q62 0 88 12.5t26 55.5q0 39 -18.5 55t-62.5 16h-79v37h79q77 0 77 67q0 43 -25 55.5t-90 12.5q-56 0 -106 -6v34q59 9 117 9q82 0 114 -22t32 -77q0 -75 -68 -89v-2q36 -6 54 -26.5t18 -64.5q0 -55 -31 -79.5t-120 -24.5zM171 0
l449 688h47l-449 -688h-47zM660 0v89h-216v32l152 255h47l-152 -251h169l8 139h34v-139h59v-36h-59v-89h-42z" />
    <glyph glyph-name="questiondown" unicode="&#xbf;" horiz-adv-x="429" 
d="M274 437v73h59v-73h-59zM269 -186q-110 0 -155.5 34t-45.5 129q0 51 4.5 79.5t25 55.5t61.5 41l53 19q50 18 59.5 29t9.5 51v79h46v-85q0 -53 -15.5 -71.5t-64.5 -35.5l-28 -9q-67 -23 -85 -48.5t-18 -95.5q0 -82 33.5 -105t129.5 -23q59 0 169 11v-41q-94 -14 -179 -14z
" />
    <glyph glyph-name="Agrave" unicode="&#xc0;" horiz-adv-x="683" 
d="M346 781l-127 134v5h56l105 -134v-5h-34zM37 0l278 688h53l278 -688h-51l-87 214h-335l-86 -214h-50zM190 258h301l-147 370h-5z" />
    <glyph glyph-name="Aacute" unicode="&#xc1;" horiz-adv-x="683" 
d="M303 781v5l105 134h56v-5l-126 -134h-35zM37 0l278 688h53l278 -688h-51l-87 214h-335l-86 -214h-50zM190 258h301l-147 370h-5z" />
    <glyph glyph-name="Acircumflex" unicode="&#xc2;" horiz-adv-x="683" 
d="M208 781v6l106 133h55l106 -133v-6h-34l-100 106l-99 -106h-34zM37 0l278 688h53l278 -688h-51l-87 214h-335l-86 -214h-50zM190 258h301l-147 370h-5z" />
    <glyph glyph-name="Atilde" unicode="&#xc3;" horiz-adv-x="683" 
d="M178 794q0 57 12.5 78.5t52.5 21.5q31 0 110 -27q56 -22 86 -22q21 0 27.5 12.5t6.5 47.5h32q0 -57 -12 -78.5t-52 -21.5q-36 0 -110 28q-64 22 -87 22q-21 0 -27.5 -13t-6.5 -48h-32zM37 0l278 688h53l278 -688h-51l-87 214h-335l-86 -214h-50zM190 258h301l-147 370h-5
z" />
    <glyph glyph-name="Adieresis" unicode="&#xc4;" horiz-adv-x="683" 
d="M211 823v65h51v-65h-51zM420 823v65h51v-65h-51zM37 0l278 688h53l278 -688h-51l-87 214h-335l-86 -214h-50zM190 258h301l-147 370h-5z" />
    <glyph glyph-name="Aring" unicode="&#xc5;" horiz-adv-x="683" 
d="M378 664l268 -664h-51l-87 214h-335l-86 -214h-50l268 664q-53 4 -66.5 24t-13.5 71q0 31 2.5 46t14 28t35 17.5t64.5 4.5t64.5 -4.5t35 -17.5t14 -28t2.5 -46q0 -51 -13.5 -71t-65.5 -24zM262 759q0 -41 12 -52.5t67 -11.5q56 0 67.5 11.5t11.5 52.5q0 42 -11.5 54
t-67.5 12q-55 0 -67 -12t-12 -54zM190 258h301l-147 370h-5z" />
    <glyph glyph-name="AE" unicode="&#xc6;" horiz-adv-x="948" 
d="M-2 0l350 688h543v-44h-478l83 -274h348v-44h-336l86 -282h297v-44h-335l-64 214h-336l-108 -214h-50zM178 258h301l-109 370h-5z" />
    <glyph glyph-name="Ccedilla" unicode="&#xc7;" horiz-adv-x="577" 
d="M514 46v-43q-59 -9 -144 -11l-40 -182h-50v5l54 177q-56 1 -92 6t-65.5 20t-45.5 37t-26.5 64t-14 93.5t-3.5 131.5q0 82 3.5 134.5t15.5 94.5t28.5 64t49.5 36.5t71.5 18.5t100.5 4q92 0 154 -13v-41q-68 10 -141 10q-59 0 -92 -2.5t-63 -15t-42.5 -29.5t-22.5 -55.5
t-12 -83.5t-2 -122t2 -122t12 -83.5t22.5 -55.5t42.5 -29.5t63 -15t92 -2.5q78 0 145 10z" />
    <glyph glyph-name="Egrave" unicode="&#xc8;" horiz-adv-x="599" 
d="M336 781l-127 134v5h56l105 -134v-5h-34zM111 0v688h431v-44h-383v-274h336v-44h-336v-282h383v-44h-431z" />
    <glyph glyph-name="Eacute" unicode="&#xc9;" horiz-adv-x="599" 
d="M293 781v5l105 134h56v-5l-126 -134h-35zM111 0v688h431v-44h-383v-274h336v-44h-336v-282h383v-44h-431z" />
    <glyph glyph-name="Ecircumflex" unicode="&#xca;" horiz-adv-x="599" 
d="M199 781v6l106 133h55l106 -133v-6h-34l-100 106l-99 -106h-34zM111 0v688h431v-44h-383v-274h336v-44h-336v-282h383v-44h-431z" />
    <glyph glyph-name="Edieresis" unicode="&#xcb;" horiz-adv-x="599" 
d="M201 823v65h51v-65h-51zM410 823v65h51v-65h-51zM111 0v688h431v-44h-383v-274h336v-44h-336v-282h383v-44h-431z" />
    <glyph glyph-name="Igrave" unicode="&#xcc;" horiz-adv-x="271" 
d="M139 781l-127 134v5h56l105 -134v-5h-34zM111 0v688h48v-688h-48z" />
    <glyph glyph-name="Iacute" unicode="&#xcd;" horiz-adv-x="271" 
d="M96 781v5l105 134h56v-5l-126 -134h-35zM111 0v688h48v-688h-48z" />
    <glyph glyph-name="Icircumflex" unicode="&#xce;" horiz-adv-x="271" 
d="M2 781v6l106 133h55l106 -133v-6h-34l-100 106l-99 -106h-34zM111 0v688h48v-688h-48z" />
    <glyph glyph-name="Idieresis" unicode="&#xcf;" horiz-adv-x="271" 
d="M5 823v65h51v-65h-51zM214 823v65h51v-65h-51zM111 0v688h48v-688h-48z" />
    <glyph glyph-name="Eth" unicode="&#xd0;" horiz-adv-x="692" 
d="M111 0v327h-69v44h69v317h208q54 0 90 -2t68 -10t51 -16.5t35 -30t23 -43t12 -61.5t6 -78.5t1 -102.5t-1 -102.5t-6 -78.5t-12 -61.5t-23 -43t-35 -30t-51 -16.5t-68 -10t-90 -2h-208zM159 44h142h67t53 3t43 5.5t31.5 12t25 18.5t16 28.5t11.5 37.5t5.5 51t3.5 63.5
v80.5q0 61 -0.5 98t-6.5 73t-10.5 54t-21.5 35t-30 23t-46.5 11t-60 5.5t-80.5 0.5h-142v-273h125v-44h-125v-283z" />
    <glyph glyph-name="Ntilde" unicode="&#xd1;" horiz-adv-x="736" 
d="M214 794q0 57 12.5 78.5t52.5 21.5q31 0 110 -27q56 -22 86 -22q21 0 27.5 12.5t6.5 47.5h32q0 -57 -12 -78.5t-52 -21.5q-36 0 -110 28q-64 22 -87 22q-21 0 -27.5 -13t-6.5 -48h-32zM111 0v688h48l415 -599h4v599h47v-688h-47l-416 602h-4v-602h-47z" />
    <glyph glyph-name="Ograve" unicode="&#xd2;" horiz-adv-x="723" 
d="M366 781l-127 134v5h56l105 -134v-5h-34zM362 -8q-41 0 -71 1t-57.5 6t-46 10.5t-34.5 18t-26 24.5t-18 35t-12 44.5t-6.5 57.5t-3 69.5t-0.5 85.5t0.5 85.5t3 69.5t6.5 57.5t12 44.5t18 35t26 24.5t34.5 18t46 10.5t57.5 6t71 1t71 -1t57 -6t45.5 -10.5t35 -18
t26.5 -24.5t18 -35t11.5 -44.5t6.5 -57.5t3.5 -69.5t0.5 -85.5t-0.5 -85.5t-3.5 -69.5t-6.5 -57.5t-11.5 -44.5t-18 -35t-26.5 -24.5t-35 -18t-45.5 -10.5t-57 -6t-71 -1zM362 36q62 0 90 1t60 12t42 26.5t21 54.5t12.5 85t1.5 129t-1.5 129t-12.5 85t-21 54.5t-42 26.5
t-60 12t-90 1q-47 0 -70.5 -0.5t-53 -5.5t-41 -11t-27 -23.5t-19.5 -36.5t-9.5 -55.5t-6 -75t-0.5 -100.5t0.5 -100.5t6 -75t9.5 -55.5t19.5 -36.5t27 -23.5t41 -11t53 -5.5t70.5 -0.5z" />
    <glyph glyph-name="Oacute" unicode="&#xd3;" horiz-adv-x="723" 
d="M323 781v5l105 134h56v-5l-126 -134h-35zM362 -8q-41 0 -71 1t-57.5 6t-46 10.5t-34.5 18t-26 24.5t-18 35t-12 44.5t-6.5 57.5t-3 69.5t-0.5 85.5t0.5 85.5t3 69.5t6.5 57.5t12 44.5t18 35t26 24.5t34.5 18t46 10.5t57.5 6t71 1t71 -1t57 -6t45.5 -10.5t35 -18
t26.5 -24.5t18 -35t11.5 -44.5t6.5 -57.5t3.5 -69.5t0.5 -85.5t-0.5 -85.5t-3.5 -69.5t-6.5 -57.5t-11.5 -44.5t-18 -35t-26.5 -24.5t-35 -18t-45.5 -10.5t-57 -6t-71 -1zM362 36q62 0 90 1t60 12t42 26.5t21 54.5t12.5 85t1.5 129t-1.5 129t-12.5 85t-21 54.5t-42 26.5
t-60 12t-90 1q-47 0 -70.5 -0.5t-53 -5.5t-41 -11t-27 -23.5t-19.5 -36.5t-9.5 -55.5t-6 -75t-0.5 -100.5t0.5 -100.5t6 -75t9.5 -55.5t19.5 -36.5t27 -23.5t41 -11t53 -5.5t70.5 -0.5z" />
    <glyph glyph-name="Ocircumflex" unicode="&#xd4;" horiz-adv-x="723" 
d="M228 781v6l106 133h55l106 -133v-6h-34l-100 106l-99 -106h-34zM362 -8q-41 0 -71 1t-57.5 6t-46 10.5t-34.5 18t-26 24.5t-18 35t-12 44.5t-6.5 57.5t-3 69.5t-0.5 85.5t0.5 85.5t3 69.5t6.5 57.5t12 44.5t18 35t26 24.5t34.5 18t46 10.5t57.5 6t71 1t71 -1t57 -6
t45.5 -10.5t35 -18t26.5 -24.5t18 -35t11.5 -44.5t6.5 -57.5t3.5 -69.5t0.5 -85.5t-0.5 -85.5t-3.5 -69.5t-6.5 -57.5t-11.5 -44.5t-18 -35t-26.5 -24.5t-35 -18t-45.5 -10.5t-57 -6t-71 -1zM362 36q62 0 90 1t60 12t42 26.5t21 54.5t12.5 85t1.5 129t-1.5 129t-12.5 85
t-21 54.5t-42 26.5t-60 12t-90 1q-47 0 -70.5 -0.5t-53 -5.5t-41 -11t-27 -23.5t-19.5 -36.5t-9.5 -55.5t-6 -75t-0.5 -100.5t0.5 -100.5t6 -75t9.5 -55.5t19.5 -36.5t27 -23.5t41 -11t53 -5.5t70.5 -0.5z" />
    <glyph glyph-name="Otilde" unicode="&#xd5;" horiz-adv-x="723" 
d="M198 794q0 57 12.5 78.5t52.5 21.5q31 0 110 -27q56 -22 86 -22q21 0 27.5 12.5t6.5 47.5h32q0 -57 -12 -78.5t-52 -21.5q-36 0 -110 28q-64 22 -87 22q-21 0 -27.5 -13t-6.5 -48h-32zM362 -8q-41 0 -71 1t-57.5 6t-46 10.5t-34.5 18t-26 24.5t-18 35t-12 44.5t-6.5 57.5
t-3 69.5t-0.5 85.5t0.5 85.5t3 69.5t6.5 57.5t12 44.5t18 35t26 24.5t34.5 18t46 10.5t57.5 6t71 1t71 -1t57 -6t45.5 -10.5t35 -18t26.5 -24.5t18 -35t11.5 -44.5t6.5 -57.5t3.5 -69.5t0.5 -85.5t-0.5 -85.5t-3.5 -69.5t-6.5 -57.5t-11.5 -44.5t-18 -35t-26.5 -24.5
t-35 -18t-45.5 -10.5t-57 -6t-71 -1zM362 36q62 0 90 1t60 12t42 26.5t21 54.5t12.5 85t1.5 129t-1.5 129t-12.5 85t-21 54.5t-42 26.5t-60 12t-90 1q-47 0 -70.5 -0.5t-53 -5.5t-41 -11t-27 -23.5t-19.5 -36.5t-9.5 -55.5t-6 -75t-0.5 -100.5t0.5 -100.5t6 -75t9.5 -55.5
t19.5 -36.5t27 -23.5t41 -11t53 -5.5t70.5 -0.5z" />
    <glyph glyph-name="Odieresis" unicode="&#xd6;" horiz-adv-x="723" 
d="M231 823v65h51v-65h-51zM440 823v65h51v-65h-51zM362 -8q-41 0 -71 1t-57.5 6t-46 10.5t-34.5 18t-26 24.5t-18 35t-12 44.5t-6.5 57.5t-3 69.5t-0.5 85.5t0.5 85.5t3 69.5t6.5 57.5t12 44.5t18 35t26 24.5t34.5 18t46 10.5t57.5 6t71 1t71 -1t57 -6t45.5 -10.5t35 -18
t26.5 -24.5t18 -35t11.5 -44.5t6.5 -57.5t3.5 -69.5t0.5 -85.5t-0.5 -85.5t-3.5 -69.5t-6.5 -57.5t-11.5 -44.5t-18 -35t-26.5 -24.5t-35 -18t-45.5 -10.5t-57 -6t-71 -1zM362 36q62 0 90 1t60 12t42 26.5t21 54.5t12.5 85t1.5 129t-1.5 129t-12.5 85t-21 54.5t-42 26.5
t-60 12t-90 1q-47 0 -70.5 -0.5t-53 -5.5t-41 -11t-27 -23.5t-19.5 -36.5t-9.5 -55.5t-6 -75t-0.5 -100.5t0.5 -100.5t6 -75t9.5 -55.5t19.5 -36.5t27 -23.5t41 -11t53 -5.5t70.5 -0.5z" />
    <glyph glyph-name="multiply" unicode="&#xd7;" horiz-adv-x="471" 
d="M98 87l-28 29l137 136l-137 137l28 29l138 -137l137 137l28 -28l-138 -137l138 -138l-29 -28l-137 137z" />
    <glyph glyph-name="Oslash" unicode="&#xd8;" horiz-adv-x="723" 
d="M580 653q36 -31 46.5 -97t10.5 -212q0 -52 -0.5 -85.5t-3.5 -69.5t-6.5 -57.5t-11.5 -44.5t-18 -35t-26.5 -24.5t-35 -18t-45.5 -10.5t-57 -6t-71 -1q-133 0 -185 22l-44 -69h-46l56 89q-36 32 -46 98t-10 212q0 52 0.5 85.5t3 69.5t6.5 57.5t12 44.5t18 35t26 24.5
t34.5 18t46 10.5t57.5 6t71 1q132 0 185 -22l43 69h47zM135 344q0 -124 6.5 -181.5t28.5 -85.5l352 559q-35 16 -160 16q-47 0 -70.5 -0.5t-53 -5.5t-41 -11t-27 -23.5t-19.5 -36.5t-9.5 -55.5t-6 -75t-0.5 -100.5zM362 36q62 0 90 1t60 12t42 26.5t21 54.5t12.5 85t1.5 129
q0 122 -7 180.5t-28 86.5l-353 -559q36 -16 161 -16z" />
    <glyph glyph-name="Ugrave" unicode="&#xd9;" horiz-adv-x="715" 
d="M362 781l-127 134v5h56l105 -134v-5h-34zM358 -8q-60 0 -100.5 5t-70 20.5t-45.5 35t-25.5 57.5t-12 78.5t-2.5 107.5v392h48v-423q0 -52 1.5 -82t9 -59.5t20 -43.5t37 -25.5t57.5 -15t83 -3.5t83 3.5t57 15t36.5 25.5t20 43.5t9 59t1.5 82.5v423h48v-392
q0 -67 -2.5 -107.5t-12 -78.5t-25.5 -57.5t-45 -35t-69.5 -20.5t-100.5 -5z" />
    <glyph glyph-name="Uacute" unicode="&#xda;" horiz-adv-x="715" 
d="M319 781v5l105 134h56v-5l-126 -134h-35zM358 -8q-60 0 -100.5 5t-70 20.5t-45.5 35t-25.5 57.5t-12 78.5t-2.5 107.5v392h48v-423q0 -52 1.5 -82t9 -59.5t20 -43.5t37 -25.5t57.5 -15t83 -3.5t83 3.5t57 15t36.5 25.5t20 43.5t9 59t1.5 82.5v423h48v-392
q0 -67 -2.5 -107.5t-12 -78.5t-25.5 -57.5t-45 -35t-69.5 -20.5t-100.5 -5z" />
    <glyph glyph-name="Ucircumflex" unicode="&#xdb;" horiz-adv-x="715" 
d="M224 781v6l106 133h55l106 -133v-6h-34l-100 106l-99 -106h-34zM358 -8q-60 0 -100.5 5t-70 20.5t-45.5 35t-25.5 57.5t-12 78.5t-2.5 107.5v392h48v-423q0 -52 1.5 -82t9 -59.5t20 -43.5t37 -25.5t57.5 -15t83 -3.5t83 3.5t57 15t36.5 25.5t20 43.5t9 59t1.5 82.5v423
h48v-392q0 -67 -2.5 -107.5t-12 -78.5t-25.5 -57.5t-45 -35t-69.5 -20.5t-100.5 -5z" />
    <glyph glyph-name="Udieresis" unicode="&#xdc;" horiz-adv-x="715" 
d="M227 823v65h51v-65h-51zM436 823v65h51v-65h-51zM358 -8q-60 0 -100.5 5t-70 20.5t-45.5 35t-25.5 57.5t-12 78.5t-2.5 107.5v392h48v-423q0 -52 1.5 -82t9 -59.5t20 -43.5t37 -25.5t57.5 -15t83 -3.5t83 3.5t57 15t36.5 25.5t20 43.5t9 59t1.5 82.5v423h48v-392
q0 -67 -2.5 -107.5t-12 -78.5t-25.5 -57.5t-45 -35t-69.5 -20.5t-100.5 -5z" />
    <glyph glyph-name="Yacute" unicode="&#xdd;" horiz-adv-x="601" 
d="M262 781v5l105 134h56v-5l-126 -134h-35zM276 0v277l-258 411h54l225 -362h7l226 362h53l-259 -411v-277h-48z" />
    <glyph glyph-name="Thorn" unicode="&#xde;" horiz-adv-x="654" 
d="M111 0v688h48v-128h243q52 0 88.5 -12t56 -29t30 -47.5t13 -56t2.5 -65.5q0 -39 -2.5 -65t-13.5 -56t-30.5 -47t-56 -29t-87.5 -12h-243v-141h-48zM159 184h235q41 0 69 8t44 20t24.5 35t10.5 45t2 58q0 47 -3.5 71.5t-17.5 49.5t-45.5 35t-83.5 10h-235v-332z" />
    <glyph glyph-name="germandbls" unicode="&#xdf;" horiz-adv-x="611" 
d="M97 0v530q0 116 50 168t175 52q119 0 163.5 -41t44.5 -133q0 -60 -28 -92t-88 -42v-4q64 -10 94.5 -54.5t30.5 -140.5q0 -73 -7 -115.5t-29 -73.5t-60.5 -42.5t-102.5 -11.5h-88v41h68q50 0 77 3.5t49 13t30.5 33t12.5 55.5t4 89q0 107 -34.5 144.5t-131.5 37.5h-38v40
h38q85 0 121 28t36 93q0 75 -35.5 103t-133.5 28q-95 0 -134 -37t-39 -148v-524h-45z" />
    <glyph glyph-name="agrave" unicode="&#xe0;" horiz-adv-x="573" 
d="M298 602l-127 134v5h56l106 -134v-5h-35zM243 -8q-98 0 -139 30t-41 117q0 84 31.5 115t120.5 31q67 0 215 -4v42q0 56 -5.5 84.5t-26.5 45.5t-50 20.5t-90 3.5q-84 0 -160 -12v41q74 12 178 12q125 0 162.5 -37t37.5 -153v-328h-39l-3 80h-5q-19 -53 -68.5 -70.5
t-117.5 -17.5zM249 32q62 0 101.5 11t56.5 46q23 50 23 121v37h-203q-73 0 -96 -19.5t-23 -87.5q0 -66 27.5 -87t113.5 -21z" />
    <glyph glyph-name="aacute" unicode="&#xe1;" horiz-adv-x="573" 
d="M251 602v5l105 134h56v-5l-126 -134h-35zM243 -8q-98 0 -139 30t-41 117q0 84 31.5 115t120.5 31q67 0 215 -4v42q0 56 -5.5 84.5t-26.5 45.5t-50 20.5t-90 3.5q-84 0 -160 -12v41q74 12 178 12q125 0 162.5 -37t37.5 -153v-328h-39l-3 80h-5q-19 -53 -68.5 -70.5
t-117.5 -17.5zM249 32q62 0 101.5 11t56.5 46q23 50 23 121v37h-203q-73 0 -96 -19.5t-23 -87.5q0 -66 27.5 -87t113.5 -21z" />
    <glyph glyph-name="acircumflex" unicode="&#xe2;" horiz-adv-x="573" 
d="M156 602v6l105 133h56l106 -133v-6h-34l-100 106l-100 -106h-33zM243 -8q-98 0 -139 30t-41 117q0 84 31.5 115t120.5 31q67 0 215 -4v42q0 56 -5.5 84.5t-26.5 45.5t-50 20.5t-90 3.5q-84 0 -160 -12v41q74 12 178 12q125 0 162.5 -37t37.5 -153v-328h-39l-3 80h-5
q-19 -53 -68.5 -70.5t-117.5 -17.5zM249 32q62 0 101.5 11t56.5 46q23 50 23 121v37h-203q-73 0 -96 -19.5t-23 -87.5q0 -66 27.5 -87t113.5 -21z" />
    <glyph glyph-name="atilde" unicode="&#xe3;" horiz-adv-x="573" 
d="M126 616q0 57 12.5 78.5t52.5 21.5q31 0 110 -27q56 -22 86 -22q21 0 27.5 12.5t6.5 47.5h32q0 -57 -12 -78.5t-52 -21.5q-36 0 -110 28q-64 22 -87 22q-21 0 -27.5 -13t-6.5 -48h-32zM243 -8q-98 0 -139 30t-41 117q0 84 31.5 115t120.5 31q67 0 215 -4v42
q0 56 -5.5 84.5t-26.5 45.5t-50 20.5t-90 3.5q-84 0 -160 -12v41q74 12 178 12q125 0 162.5 -37t37.5 -153v-328h-39l-3 80h-5q-19 -53 -68.5 -70.5t-117.5 -17.5zM249 32q62 0 101.5 11t56.5 46q23 50 23 121v37h-203q-73 0 -96 -19.5t-23 -87.5q0 -66 27.5 -87t113.5 -21z
" />
    <glyph glyph-name="adieresis" unicode="&#xe4;" horiz-adv-x="573" 
d="M160 645v65h51v-65h-51zM369 645v65h51v-65h-51zM243 -8q-98 0 -139 30t-41 117q0 84 31.5 115t120.5 31q67 0 215 -4v42q0 56 -5.5 84.5t-26.5 45.5t-50 20.5t-90 3.5q-84 0 -160 -12v41q74 12 178 12q125 0 162.5 -37t37.5 -153v-328h-39l-3 80h-5q-19 -53 -68.5 -70.5
t-117.5 -17.5zM249 32q62 0 101.5 11t56.5 46q23 50 23 121v37h-203q-73 0 -96 -19.5t-23 -87.5q0 -66 27.5 -87t113.5 -21z" />
    <glyph glyph-name="aring" unicode="&#xe5;" horiz-adv-x="573" 
d="M277 589q-41 0 -64.5 4.5t-35 17.5t-14 28t-2.5 46q0 40 6 58t31 28.5t79 10.5t79 -10.5t31 -28.5t6 -58q0 -31 -2.5 -46t-14 -28t-35 -17.5t-64.5 -4.5zM277 621q55 0 67 11.5t12 52.5q0 42 -12 54t-67 12t-67 -12t-12 -54q0 -41 12 -52.5t67 -11.5zM243 -8
q-98 0 -139 30t-41 117q0 84 31.5 115t120.5 31q67 0 215 -4v42q0 56 -5.5 84.5t-26.5 45.5t-50 20.5t-90 3.5q-84 0 -160 -12v41q74 12 178 12q125 0 162.5 -37t37.5 -153v-328h-39l-3 80h-5q-19 -53 -68.5 -70.5t-117.5 -17.5zM249 32q62 0 101.5 11t56.5 46q23 50 23 121
v37h-203q-73 0 -96 -19.5t-23 -87.5q0 -66 27.5 -87t113.5 -21z" />
    <glyph glyph-name="ae" unicode="&#xe6;" horiz-adv-x="919" 
d="M245 -8q-98 0 -140 30t-42 117q0 82 31.5 112.5t120.5 30.5q143 0 215 -1v42q0 56 -5.5 84.5t-26.5 45.5t-50 20.5t-90 3.5q-86 0 -160 -12v41q70 12 178 12q81 0 122.5 -15t58.5 -53q20 37 64.5 52.5t128.5 15.5q47 0 79 -4.5t54 -19t34.5 -30.5t19 -50t8 -66t1.5 -89
v-16h-370q0 -47 2 -75t8.5 -54.5t18 -39.5t32.5 -23.5t49 -14t71 -3.5q94 0 169 13v-41q-65 -13 -177 -13q-94 0 -138 20.5t-63 75.5q-24 -59 -75 -77.5t-128 -18.5zM476 281h325q0 54 -4 87t-12.5 56t-28 34t-44 15t-65.5 4t-66.5 -2.5t-46 -11t-31 -20.5t-17.5 -36
t-8.5 -52t-1.5 -74zM249 32q63 0 102.5 11.5t56.5 49.5q22 47 22 117v33h-203q-73 0 -96 -18.5t-23 -84.5t27.5 -87t113.5 -21z" />
    <glyph glyph-name="ccedilla" unicode="&#xe7;" horiz-adv-x="458" 
d="M407 45v-41q-49 -10 -116 -12l-40 -182h-50v5l54 177q-50 2 -83 13t-53 28.5t-30 52t-13 71t-3 97.5q0 157 38.5 210.5t158.5 53.5q77 0 132 -12v-40q-62 11 -122 11q-103 0 -132 -41.5t-29 -179.5q0 -142 29 -182.5t135 -40.5q71 0 124 12z" />
    <glyph glyph-name="egrave" unicode="&#xe8;" horiz-adv-x="561" 
d="M336 602h-34l-127 134v5h56l105 -134v-5zM489 256v-17h-370q0 -46 2 -73.5t8.5 -53.5t18 -39t32.5 -23t49 -13.5t71 -3.5q93 0 169 13v-41q-65 -13 -177 -13q-49 0 -83 4.5t-59.5 17.5t-39.5 30.5t-23 49.5t-11.5 68t-2.5 92q0 57 1.5 88.5t8.5 66.5t20.5 51.5t38.5 32
t61.5 20.5t89.5 5q47 0 79 -4.5t54 -19t34.5 -31t19 -50.5t8 -67t1.5 -90zM290 477q-61 0 -92.5 -6t-50.5 -30t-23.5 -58.5t-4.5 -104.5h324v18q0 62 -6.5 97t-26 54.5t-45.5 24.5t-75 5z" />
    <glyph glyph-name="eacute" unicode="&#xe9;" horiz-adv-x="561" 
d="M407 736l-126 -134h-35v5l105 134h56v-5zM489 256v-17h-370q0 -46 2 -73.5t8.5 -53.5t18 -39t32.5 -23t49 -13.5t71 -3.5q93 0 169 13v-41q-65 -13 -177 -13q-49 0 -83 4.5t-59.5 17.5t-39.5 30.5t-23 49.5t-11.5 68t-2.5 92q0 57 1.5 88.5t8.5 66.5t20.5 51.5t38.5 32
t61.5 20.5t89.5 5q47 0 79 -4.5t54 -19t34.5 -31t19 -50.5t8 -67t1.5 -90zM290 477q-61 0 -92.5 -6t-50.5 -30t-23.5 -58.5t-4.5 -104.5h324v18q0 62 -6.5 97t-26 54.5t-45.5 24.5t-75 5z" />
    <glyph glyph-name="ecircumflex" unicode="&#xea;" horiz-adv-x="561" 
d="M285 708l-99 -106h-34v6l106 133h55l106 -133v-6h-34zM489 256v-17h-370q0 -46 2 -73.5t8.5 -53.5t18 -39t32.5 -23t49 -13.5t71 -3.5q93 0 169 13v-41q-65 -13 -177 -13q-49 0 -83 4.5t-59.5 17.5t-39.5 30.5t-23 49.5t-11.5 68t-2.5 92q0 57 1.5 88.5t8.5 66.5
t20.5 51.5t38.5 32t61.5 20.5t89.5 5q47 0 79 -4.5t54 -19t34.5 -31t19 -50.5t8 -67t1.5 -90zM290 477q-61 0 -92.5 -6t-50.5 -30t-23.5 -58.5t-4.5 -104.5h324v18q0 62 -6.5 97t-26 54.5t-45.5 24.5t-75 5z" />
    <glyph glyph-name="edieresis" unicode="&#xeb;" horiz-adv-x="561" 
d="M207 710v-65h-51v65h51zM416 710v-65h-51v65h51zM489 256v-17h-370q0 -46 2 -73.5t8.5 -53.5t18 -39t32.5 -23t49 -13.5t71 -3.5q93 0 169 13v-41q-65 -13 -177 -13q-49 0 -83 4.5t-59.5 17.5t-39.5 30.5t-23 49.5t-11.5 68t-2.5 92q0 57 1.5 88.5t8.5 66.5t20.5 51.5
t38.5 32t61.5 20.5t89.5 5q47 0 79 -4.5t54 -19t34.5 -31t19 -50.5t8 -67t1.5 -90zM290 477q-61 0 -92.5 -6t-50.5 -30t-23.5 -58.5t-4.5 -104.5h324v18q0 62 -6.5 97t-26 54.5t-45.5 24.5t-75 5z" />
    <glyph glyph-name="igrave" unicode="&#xec;" horiz-adv-x="239" 
d="M136 602l-127 134v5h56l105 -134v-5h-34zM97 0v510h46v-510h-46z" />
    <glyph glyph-name="iacute" unicode="&#xed;" horiz-adv-x="239" 
d="M80 602v5l105 134h56v-5l-126 -134h-35zM97 0v510h46v-510h-46z" />
    <glyph glyph-name="icircumflex" unicode="&#xee;" horiz-adv-x="239" 
d="M-13 602v6l106 133h55l106 -133v-6h-34l-100 106l-99 -106h-34zM97 0v510h46v-510h-46z" />
    <glyph glyph-name="idieresis" unicode="&#xef;" horiz-adv-x="239" 
d="M-10 645v65h51v-65h-51zM199 645v65h51v-65h-51zM97 0v510h46v-510h-46z" />
    <glyph glyph-name="eth" unicode="&#xf0;" horiz-adv-x="579" 
d="M289 -8q-39 0 -67.5 2t-52 9t-38.5 15t-26.5 25t-17 33.5t-9 46.5t-4.5 58t-1 73q0 60 1.5 94t9 68t20.5 50t37.5 30t58.5 18t85 4q95 0 144 -34l6 2q-26 82 -76 151l-121 -21v38l95 16q-34 38 -74 69v4h54q33 -23 67 -65l102 18v-37l-77 -14q72 -101 91 -229
q10 -61 10 -139q0 -42 -0.5 -65.5t-2 -54t-4.5 -46t-8.5 -36t-13.5 -29.5t-20 -21t-27.5 -16.5t-36.5 -9t-46 -6t-58 -1.5zM289 33q123 0 147 35.5t24 185.5v48.5t-1.5 40.5t-4.5 36.5t-9 29.5t-14.5 25.5t-21 18t-30 14.5t-40 7t-50.5 3q-122 0 -146 -36.5t-24 -186.5
t24 -185.5t146 -35.5z" />
    <glyph glyph-name="ntilde" unicode="&#xf1;" horiz-adv-x="602" 
d="M128 616q0 57 12 78.5t52 21.5q33 0 110 -27q58 -22 87 -22q21 0 27.5 12.5t6.5 47.5h32q0 -57 -12.5 -78.5t-52.5 -21.5q-11 0 -22 1.5t-24 5t-19.5 5.5t-23 7.5t-21.5 7.5q-56 22 -86 22q-22 0 -28 -12.5t-6 -47.5h-32zM97 0v510h38l4 -81h4q9 27 26.5 45t56 31
t96.5 13q60 0 96 -10.5t55.5 -36t26 -60t6.5 -91.5v-320h-46v309q0 109 -27 138t-124 29q-35 0 -61.5 -6t-44 -14.5t-29 -26t-18 -31t-9.5 -40.5t-3.5 -44t-0.5 -50v-264h-46z" />
    <glyph glyph-name="ograve" unicode="&#xf2;" horiz-adv-x="579" 
d="M292 602l-126 134v5h56l105 -134v-5h-35zM289 -8q-53 0 -87 4t-59.5 17t-38.5 28.5t-20.5 49.5t-9 68t-1.5 95t1.5 95t9 68.5t20.5 50t38.5 29t59.5 17.5t87 4q40 0 68.5 -2t52 -9t38.5 -15t26.5 -25.5t17 -34t9 -46.5t4.5 -58t1 -74q0 -45 -1 -73t-4.5 -58t-9 -46.5
t-17 -33.5t-26.5 -25t-38.5 -15t-52 -9t-68.5 -2zM289 33q27 0 46.5 0.5t37 4.5t29 6.5t21.5 12.5t16 15.5t10 23t6 27.5t3.5 36t1.5 42.5v52.5q0 150 -24 186.5t-147 36.5q-122 0 -146 -36.5t-24 -186.5q0 -149 24 -185t146 -36z" />
    <glyph glyph-name="oacute" unicode="&#xf3;" horiz-adv-x="579" 
d="M249 602v5l105 134h56v-5l-126 -134h-35zM289 -8q-53 0 -87 4t-59.5 17t-38.5 28.5t-20.5 49.5t-9 68t-1.5 95t1.5 95t9 68.5t20.5 50t38.5 29t59.5 17.5t87 4q40 0 68.5 -2t52 -9t38.5 -15t26.5 -25.5t17 -34t9 -46.5t4.5 -58t1 -74q0 -45 -1 -73t-4.5 -58t-9 -46.5
t-17 -33.5t-26.5 -25t-38.5 -15t-52 -9t-68.5 -2zM289 33q27 0 46.5 0.5t37 4.5t29 6.5t21.5 12.5t16 15.5t10 23t6 27.5t3.5 36t1.5 42.5v52.5q0 150 -24 186.5t-147 36.5q-122 0 -146 -36.5t-24 -186.5q0 -149 24 -185t146 -36z" />
    <glyph glyph-name="ocircumflex" unicode="&#xf4;" horiz-adv-x="579" 
d="M156 602v6l106 133h55l106 -133v-6h-34l-100 106l-99 -106h-34zM289 -8q-53 0 -87 4t-59.5 17t-38.5 28.5t-20.5 49.5t-9 68t-1.5 95t1.5 95t9 68.5t20.5 50t38.5 29t59.5 17.5t87 4q40 0 68.5 -2t52 -9t38.5 -15t26.5 -25.5t17 -34t9 -46.5t4.5 -58t1 -74q0 -45 -1 -73
t-4.5 -58t-9 -46.5t-17 -33.5t-26.5 -25t-38.5 -15t-52 -9t-68.5 -2zM289 33q27 0 46.5 0.5t37 4.5t29 6.5t21.5 12.5t16 15.5t10 23t6 27.5t3.5 36t1.5 42.5v52.5q0 150 -24 186.5t-147 36.5q-122 0 -146 -36.5t-24 -186.5q0 -149 24 -185t146 -36z" />
    <glyph glyph-name="otilde" unicode="&#xf5;" horiz-adv-x="579" 
d="M125 616q0 57 12.5 78.5t52.5 21.5q31 0 110 -27q56 -22 86 -22q22 0 28 12.5t6 47.5h32q0 -57 -12 -78.5t-52 -21.5q-36 0 -110 28q-64 22 -87 22q-21 0 -27.5 -13t-6.5 -48h-32zM289 -8q-53 0 -87 4t-59.5 17t-38.5 28.5t-20.5 49.5t-9 68t-1.5 95t1.5 95t9 68.5
t20.5 50t38.5 29t59.5 17.5t87 4q40 0 68.5 -2t52 -9t38.5 -15t26.5 -25.5t17 -34t9 -46.5t4.5 -58t1 -74q0 -45 -1 -73t-4.5 -58t-9 -46.5t-17 -33.5t-26.5 -25t-38.5 -15t-52 -9t-68.5 -2zM289 33q27 0 46.5 0.5t37 4.5t29 6.5t21.5 12.5t16 15.5t10 23t6 27.5t3.5 36
t1.5 42.5v52.5q0 150 -24 186.5t-147 36.5q-122 0 -146 -36.5t-24 -186.5q0 -149 24 -185t146 -36z" />
    <glyph glyph-name="odieresis" unicode="&#xf6;" horiz-adv-x="579" 
d="M159 645v65h51v-65h-51zM368 645v65h51v-65h-51zM289 -8q-53 0 -87 4t-59.5 17t-38.5 28.5t-20.5 49.5t-9 68t-1.5 95t1.5 95t9 68.5t20.5 50t38.5 29t59.5 17.5t87 4q40 0 68.5 -2t52 -9t38.5 -15t26.5 -25.5t17 -34t9 -46.5t4.5 -58t1 -74q0 -45 -1 -73t-4.5 -58
t-9 -46.5t-17 -33.5t-26.5 -25t-38.5 -15t-52 -9t-68.5 -2zM289 33q27 0 46.5 0.5t37 4.5t29 6.5t21.5 12.5t16 15.5t10 23t6 27.5t3.5 36t1.5 42.5v52.5q0 150 -24 186.5t-147 36.5q-122 0 -146 -36.5t-24 -186.5q0 -149 24 -185t146 -36z" />
    <glyph glyph-name="divide" unicode="&#xf7;" horiz-adv-x="540" 
d="M245 410v65h50v-65h-50zM70 233v40h400v-40h-400zM245 31v65h50v-65h-50z" />
    <glyph glyph-name="oslash" unicode="&#xf8;" horiz-adv-x="579" 
d="M456 486q32 -24 41 -74t9 -158q0 -45 -1 -73t-4.5 -58t-9 -46.5t-17 -33.5t-26.5 -25t-38.5 -15t-52 -9t-68.5 -2q-91 0 -133 15l-39 -62h-44l49 79q-31 24 -40 73.5t-9 156.5q0 61 1.5 95t9 68.5t20.5 50t38.5 29t59.5 17.5t87 4q91 0 133 -15l39 62h45zM119 254
q0 -92 4.5 -130.5t23.5 -59.5l252 401q-33 12 -110 12q-122 0 -146 -36.5t-24 -186.5zM289 33q27 0 46.5 0.5t37 4.5t29 6.5t21.5 12.5t16 15.5t10 23t6 27.5t3.5 36t1.5 42.5v52.5q0 92 -4.5 131.5t-24.5 60.5l-252 -402q34 -11 110 -11z" />
    <glyph glyph-name="ugrave" unicode="&#xf9;" horiz-adv-x="602" 
d="M317 602l-127 134v5h56l105 -134v-5h-34zM281 -8q-60 0 -96.5 10t-55.5 36.5t-25.5 60t-6.5 91.5v320h46v-309q0 -109 27 -138t124 -29q34 0 60.5 6t44 14.5t29.5 25.5t18.5 31.5t9.5 40.5t3.5 43.5t0.5 50.5v264h46v-510h-39l-3 81h-5q-15 -42 -54.5 -65.5t-123.5 -23.5
z" />
    <glyph glyph-name="uacute" unicode="&#xfa;" horiz-adv-x="602" 
d="M261 602v5l105 134h56v-5l-126 -134h-35zM281 -8q-60 0 -96.5 10t-55.5 36.5t-25.5 60t-6.5 91.5v320h46v-309q0 -109 27 -138t124 -29q34 0 60.5 6t44 14.5t29.5 25.5t18.5 31.5t9.5 40.5t3.5 43.5t0.5 50.5v264h46v-510h-39l-3 81h-5q-15 -42 -54.5 -65.5t-123.5 -23.5
z" />
    <glyph glyph-name="ucircumflex" unicode="&#xfb;" horiz-adv-x="602" 
d="M168 602v6l106 133h55l106 -133v-6h-34l-100 106l-99 -106h-34zM281 -8q-60 0 -96.5 10t-55.5 36.5t-25.5 60t-6.5 91.5v320h46v-309q0 -109 27 -138t124 -29q34 0 60.5 6t44 14.5t29.5 25.5t18.5 31.5t9.5 40.5t3.5 43.5t0.5 50.5v264h46v-510h-39l-3 81h-5
q-15 -42 -54.5 -65.5t-123.5 -23.5z" />
    <glyph glyph-name="udieresis" unicode="&#xfc;" horiz-adv-x="602" 
d="M171 645v65h51v-65h-51zM380 645v65h51v-65h-51zM281 -8q-60 0 -96.5 10t-55.5 36.5t-25.5 60t-6.5 91.5v320h46v-309q0 -109 27 -138t124 -29q34 0 60.5 6t44 14.5t29.5 25.5t18.5 31.5t9.5 40.5t3.5 43.5t0.5 50.5v264h46v-510h-39l-3 81h-5q-15 -42 -54.5 -65.5
t-123.5 -23.5z" />
    <glyph glyph-name="yacute" unicode="&#xfd;" horiz-adv-x="602" 
d="M261 602v5l105 134h56v-5l-126 -134h-35zM283 -206q-97 0 -170 7v41q100 -7 162 -7q43 0 73 5t50.5 17t32.5 27t18.5 41.5t8.5 52.5t2 68v28h-5q-30 -81 -174 -81q-60 0 -96.5 10t-55.5 36t-25.5 60t-6.5 92v319h46v-309q0 -109 27 -138t124 -29q34 0 60.5 6t44 14.5
t29.5 26t18.5 31.5t9.5 40.5t3.5 44t0.5 50.5v263h46v-444q0 -80 -8 -128t-32.5 -82.5t-67.5 -48t-115 -13.5z" />
    <glyph glyph-name="thorn" unicode="&#xfe;" horiz-adv-x="594" 
d="M97 -190v933h46v-305h4q18 43 61 61.5t116 18.5q122 0 160 -51t38 -212t-37.5 -212t-160.5 -51q-73 0 -116 18.5t-61 61.5h-4v-262h-46zM309 34q58 0 88 6.5t49.5 32t24.5 65.5t5 117t-5 117t-24.5 65.5t-49.5 32t-88 6.5q-64 0 -101.5 -18.5t-52.5 -61.5
q-12 -36 -12 -141q0 -103 10 -133q17 -48 53.5 -68t102.5 -20z" />
    <glyph glyph-name="ydieresis" unicode="&#xff;" horiz-adv-x="602" 
d="M171 645v65h51v-65h-51zM380 645v65h51v-65h-51zM283 -206q-97 0 -170 7v41q100 -7 162 -7q43 0 73 5t50.5 17t32.5 27t18.5 41.5t8.5 52.5t2 68v28h-5q-30 -81 -174 -81q-60 0 -96.5 10t-55.5 36t-25.5 60t-6.5 92v319h46v-309q0 -109 27 -138t124 -29q34 0 60.5 6
t44 14.5t29.5 26t18.5 31.5t9.5 40.5t3.5 44t0.5 50.5v263h46v-444q0 -80 -8 -128t-32.5 -82.5t-67.5 -48t-115 -13.5z" />
    <glyph glyph-name="Amacron" unicode="&#x100;" horiz-adv-x="683" 
d="M206 824v38h271v-38h-271zM37 0l278 688h53l278 -688h-51l-87 214h-335l-86 -214h-50zM190 258h301l-147 370h-5z" />
    <glyph glyph-name="amacron" unicode="&#x101;" horiz-adv-x="573" 
d="M154 646v38h271v-38h-271zM243 -8q-98 0 -139 30t-41 117q0 84 31.5 115t120.5 31q67 0 215 -4v42q0 56 -5.5 84.5t-26.5 45.5t-50 20.5t-90 3.5q-84 0 -160 -12v41q74 12 178 12q125 0 162.5 -37t37.5 -153v-328h-39l-3 80h-5q-19 -53 -68.5 -70.5t-117.5 -17.5zM249 32
q62 0 101.5 11t56.5 46q23 50 23 121v37h-203q-73 0 -96 -19.5t-23 -87.5q0 -66 27.5 -87t113.5 -21z" />
    <glyph glyph-name="Abreve" unicode="&#x102;" horiz-adv-x="683" 
d="M341 777q-46 0 -74 9.5t-39.5 32t-14 42t-2.5 58.5h36q0 -33 1.5 -48t10.5 -31.5t28.5 -22.5t53.5 -6t54 6t28.5 22.5t10.5 32t2 47.5h36q0 -31 -1 -47t-8 -37.5t-20 -32t-38.5 -18t-63.5 -7.5zM37 0l278 688h53l278 -688h-51l-87 214h-335l-86 -214h-50zM190 258h301
l-147 370h-5z" />
    <glyph glyph-name="abreve" unicode="&#x103;" horiz-adv-x="573" 
d="M289 599q-46 0 -74 9.5t-39.5 32t-14 42t-2.5 58.5h36q0 -33 1.5 -48t10.5 -31.5t28.5 -22.5t53.5 -6t54 6t28.5 22.5t10.5 32t2 47.5h36q0 -31 -1 -47t-8 -37.5t-20 -32t-38.5 -18t-63.5 -7.5zM243 -8q-98 0 -139 30t-41 117q0 84 31.5 115t120.5 31q67 0 215 -4v42
q0 56 -5.5 84.5t-26.5 45.5t-50 20.5t-90 3.5q-84 0 -160 -12v41q74 12 178 12q125 0 162.5 -37t37.5 -153v-328h-39l-3 80h-5q-19 -53 -68.5 -70.5t-117.5 -17.5zM249 32q62 0 101.5 11t56.5 46q23 50 23 121v37h-203q-73 0 -96 -19.5t-23 -87.5q0 -66 27.5 -87t113.5 -21z
" />
    <glyph glyph-name="Aogonek" unicode="&#x104;" horiz-adv-x="683" 
d="M630 -163q8 0 17 1v-37q-10 -1 -26 -1q-81 0 -81 73q0 63 64 127h-9l-87 214h-335l-86 -214h-50l278 688h53l278 -688q-22 -19 -42.5 -54.5t-20.5 -63.5q0 -45 47 -45zM190 258h301l-147 370h-5z" />
    <glyph glyph-name="aogonek" unicode="&#x105;" horiz-adv-x="573" 
d="M460 -163q8 0 17 1v-37q-10 -1 -26 -1q-81 0 -81 73q0 65 67 130l-3 77h-5q-19 -53 -68.5 -70.5t-117.5 -17.5q-98 0 -139 30t-41 117q0 84 31.5 115t120.5 31q67 0 215 -4v42q0 56 -5.5 84.5t-26.5 45.5t-50 20.5t-90 3.5q-84 0 -160 -12v41q74 12 178 12
q125 0 162.5 -37t37.5 -153v-328q-22 -19 -42.5 -54.5t-20.5 -63.5q0 -45 47 -45zM430 210v37h-203q-73 0 -96 -19.5t-23 -87.5q0 -66 27.5 -87t113.5 -21q62 0 101.5 11t56.5 46q23 50 23 121z" />
    <glyph glyph-name="Cacute" unicode="&#x106;" horiz-adv-x="577" 
d="M290 781v5l105 134h56v-5l-126 -134h-35zM356 -8q-62 0 -100.5 4t-71.5 18t-49.5 36t-28.5 64t-15.5 94.5t-3.5 135.5q0 82 3.5 134.5t15.5 94.5t28.5 64t49.5 36.5t71.5 18.5t100.5 4q92 0 154 -13v-41q-68 10 -141 10q-59 0 -92 -2.5t-63 -15t-42.5 -29.5t-22.5 -55.5
t-12 -83.5t-2 -122t2 -122t12 -83.5t22.5 -55.5t42.5 -29.5t63 -15t92 -2.5q78 0 145 10v-43q-66 -11 -158 -11z" />
    <glyph glyph-name="cacute" unicode="&#x107;" horiz-adv-x="458" 
d="M218 602v5l105 134h56v-5l-126 -134h-35zM275 -8q-47 0 -79.5 5.5t-55.5 20.5t-36 33.5t-20 51.5t-9 65.5t-2 85.5q0 157 38.5 210.5t158.5 53.5q77 0 132 -12v-40q-62 11 -122 11q-103 0 -132 -41.5t-29 -179.5q0 -142 29 -182.5t135 -40.5q71 0 124 12v-41
q-55 -12 -132 -12z" />
    <glyph glyph-name="Ccircumflex" unicode="&#x108;" horiz-adv-x="577" 
d="M196 781v6l106 133h55l106 -133v-6h-34l-100 106l-99 -106h-34zM356 -8q-62 0 -100.5 4t-71.5 18t-49.5 36t-28.5 64t-15.5 94.5t-3.5 135.5q0 82 3.5 134.5t15.5 94.5t28.5 64t49.5 36.5t71.5 18.5t100.5 4q92 0 154 -13v-41q-68 10 -141 10q-59 0 -92 -2.5t-63 -15
t-42.5 -29.5t-22.5 -55.5t-12 -83.5t-2 -122t2 -122t12 -83.5t22.5 -55.5t42.5 -29.5t63 -15t92 -2.5q78 0 145 10v-43q-66 -11 -158 -11z" />
    <glyph glyph-name="ccircumflex" unicode="&#x109;" horiz-adv-x="458" 
d="M124 602v6l106 133h55l106 -133v-6h-34l-100 106l-99 -106h-34zM275 -8q-47 0 -79.5 5.5t-55.5 20.5t-36 33.5t-20 51.5t-9 65.5t-2 85.5q0 157 38.5 210.5t158.5 53.5q77 0 132 -12v-40q-62 11 -122 11q-103 0 -132 -41.5t-29 -179.5q0 -142 29 -182.5t135 -40.5
q71 0 124 12v-41q-55 -12 -132 -12z" />
    <glyph glyph-name="Cdotaccent" unicode="&#x10a;" horiz-adv-x="577" 
d="M303 824v65h51v-65h-51zM356 -8q-62 0 -100.5 4t-71.5 18t-49.5 36t-28.5 64t-15.5 94.5t-3.5 135.5q0 82 3.5 134.5t15.5 94.5t28.5 64t49.5 36.5t71.5 18.5t100.5 4q92 0 154 -13v-41q-68 10 -141 10q-59 0 -92 -2.5t-63 -15t-42.5 -29.5t-22.5 -55.5t-12 -83.5
t-2 -122t2 -122t12 -83.5t22.5 -55.5t42.5 -29.5t63 -15t92 -2.5q78 0 145 10v-43q-66 -11 -158 -11z" />
    <glyph glyph-name="cdotaccent" unicode="&#x10b;" horiz-adv-x="458" 
d="M232 645v65h51v-65h-51zM275 -8q-47 0 -79.5 5.5t-55.5 20.5t-36 33.5t-20 51.5t-9 65.5t-2 85.5q0 157 38.5 210.5t158.5 53.5q77 0 132 -12v-40q-62 11 -122 11q-103 0 -132 -41.5t-29 -179.5q0 -142 29 -182.5t135 -40.5q71 0 124 12v-41q-55 -12 -132 -12z" />
    <glyph glyph-name="Ccaron" unicode="&#x10c;" horiz-adv-x="577" 
d="M302 781l-106 133v5h34l99 -105l100 105h34v-5l-106 -133h-55zM356 -8q-62 0 -100.5 4t-71.5 18t-49.5 36t-28.5 64t-15.5 94.5t-3.5 135.5q0 82 3.5 134.5t15.5 94.5t28.5 64t49.5 36.5t71.5 18.5t100.5 4q92 0 154 -13v-41q-68 10 -141 10q-59 0 -92 -2.5t-63 -15
t-42.5 -29.5t-22.5 -55.5t-12 -83.5t-2 -122t2 -122t12 -83.5t22.5 -55.5t42.5 -29.5t63 -15t92 -2.5q78 0 145 10v-43q-66 -11 -158 -11z" />
    <glyph glyph-name="ccaron" unicode="&#x10d;" horiz-adv-x="458" 
d="M230 603l-106 133v5h34l99 -105l100 105h34v-5l-106 -133h-55zM275 -8q-47 0 -79.5 5.5t-55.5 20.5t-36 33.5t-20 51.5t-9 65.5t-2 85.5q0 157 38.5 210.5t158.5 53.5q77 0 132 -12v-40q-62 11 -122 11q-103 0 -132 -41.5t-29 -179.5q0 -142 29 -182.5t135 -40.5
q71 0 124 12v-41q-55 -12 -132 -12z" />
    <glyph glyph-name="Dcaron" unicode="&#x10e;" horiz-adv-x="692" 
d="M319 781l-106 133v5h34l99 -105l100 105h34v-5l-106 -133h-55zM111 0v688h208q54 0 90 -2t68 -10t51 -16.5t35 -30t23 -43t12 -61.5t6 -78.5t1 -102.5t-1 -102.5t-6 -78.5t-12 -61.5t-23 -43t-35 -30t-51 -16.5t-68 -10t-90 -2h-208zM159 44h142h67t53 3t43 5.5t31.5 12
t25 18.5t16 28.5t11.5 37.5t5.5 51t3.5 63.5v80.5q0 61 -0.5 98t-6.5 73t-10.5 54t-21.5 35t-30 23t-46.5 11t-60 5.5t-80.5 0.5h-142v-600z" />
    <glyph glyph-name="dcaron" unicode="&#x10f;" horiz-adv-x="594" 
d="M270 -8q-122 0 -159.5 51t-37.5 212q0 160 37.5 211.5t159.5 51.5q73 0 116 -18.5t61 -61.5h5v305h46v-743h-39l-3 81h-5q-19 -53 -65 -71t-116 -18zM542 452l13 150v86h42v-86l-25 -150h-30zM286 34q126 0 150 71q16 48 16 162q0 88 -14 129q-14 43 -51.5 61.5
t-105.5 18.5q-45 0 -71.5 -5t-46 -16.5t-28.5 -38.5t-12.5 -63t-3.5 -98t4 -98t12.5 -63t29 -38.5t47.5 -16.5t74 -5z" />
    <glyph glyph-name="Dcroat" unicode="&#x110;" horiz-adv-x="692" 
d="M111 0v327h-69v44h69v317h208q54 0 90 -2t68 -10t51 -16.5t35 -30t23 -43t12 -61.5t6 -78.5t1 -102.5t-1 -102.5t-6 -78.5t-12 -61.5t-23 -43t-35 -30t-51 -16.5t-68 -10t-90 -2h-208zM159 44h142h67t53 3t43 5.5t31.5 12t25 18.5t16 28.5t11.5 37.5t5.5 51t3.5 63.5
v80.5q0 61 -0.5 98t-6.5 73t-10.5 54t-21.5 35t-30 23t-46.5 11t-60 5.5t-80.5 0.5h-142v-273h125v-44h-125v-283z" />
    <glyph glyph-name="dcroat" unicode="&#x111;" horiz-adv-x="594" 
d="M566 688v-41h-68v-647h-39l-3 81h-5q-19 -53 -65 -71t-116 -18q-122 0 -159.5 51t-37.5 212q0 160 37.5 211.5t159.5 51.5q73 0 116 -18.5t61 -61.5h5v209h-148v41h148v55h46v-55h68zM436 105q16 48 16 162q0 88 -14 129q-14 43 -51.5 61.5t-105.5 18.5q-45 0 -71.5 -5
t-46 -16.5t-28.5 -38.5t-12.5 -63t-3.5 -98t4 -98t12.5 -63t29 -38.5t47.5 -16.5t74 -5q126 0 150 71z" />
    <glyph glyph-name="Emacron" unicode="&#x112;" horiz-adv-x="599" 
d="M196 824v38h271v-38h-271zM111 0v688h431v-44h-383v-274h336v-44h-336v-282h383v-44h-431z" />
    <glyph glyph-name="emacron" unicode="&#x113;" horiz-adv-x="561" 
d="M421 684v-38h-271v38h271zM489 256v-17h-370q0 -46 2 -73.5t8.5 -53.5t18 -39t32.5 -23t49 -13.5t71 -3.5q93 0 169 13v-41q-65 -13 -177 -13q-49 0 -83 4.5t-59.5 17.5t-39.5 30.5t-23 49.5t-11.5 68t-2.5 92q0 57 1.5 88.5t8.5 66.5t20.5 51.5t38.5 32t61.5 20.5
t89.5 5q47 0 79 -4.5t54 -19t34.5 -31t19 -50.5t8 -67t1.5 -90zM290 477q-61 0 -92.5 -6t-50.5 -30t-23.5 -58.5t-4.5 -104.5h324v18q0 62 -6.5 97t-26 54.5t-45.5 24.5t-75 5z" />
    <glyph glyph-name="Ebreve" unicode="&#x114;" horiz-adv-x="599" 
d="M331 777q-46 0 -74 9.5t-39.5 32t-14 42t-2.5 58.5h36q0 -33 1.5 -48t10.5 -31.5t28.5 -22.5t53.5 -6t54 6t28.5 22.5t10.5 32t2 47.5h36q0 -31 -1 -47t-8 -37.5t-20 -32t-38.5 -18t-63.5 -7.5zM111 0v688h431v-44h-383v-274h336v-44h-336v-282h383v-44h-431z" />
    <glyph glyph-name="ebreve" unicode="&#x115;" horiz-adv-x="561" 
d="M285 599q-46 0 -74 9.5t-39.5 32t-14 42t-2.5 58.5h36q0 -33 1.5 -48t10.5 -31.5t28.5 -22.5t53.5 -6t54 6t28.5 22.5t10.5 32t2 47.5h36q0 -31 -1 -47t-8 -37.5t-20 -32t-38.5 -18t-63.5 -7.5zM489 256v-17h-370q0 -46 2 -73.5t8.5 -53.5t18 -39t32.5 -23t49 -13.5
t71 -3.5q93 0 169 13v-41q-65 -13 -177 -13q-49 0 -83 4.5t-59.5 17.5t-39.5 30.5t-23 49.5t-11.5 68t-2.5 92q0 57 1.5 88.5t8.5 66.5t20.5 51.5t38.5 32t61.5 20.5t89.5 5q47 0 79 -4.5t54 -19t34.5 -31t19 -50.5t8 -67t1.5 -90zM290 477q-61 0 -92.5 -6t-50.5 -30
t-23.5 -58.5t-4.5 -104.5h324v18q0 62 -6.5 97t-26 54.5t-45.5 24.5t-75 5z" />
    <glyph glyph-name="Edotaccent" unicode="&#x116;" horiz-adv-x="599" 
d="M306 824v65h51v-65h-51zM111 0v688h431v-44h-383v-274h336v-44h-336v-282h383v-44h-431z" />
    <glyph glyph-name="edotaccent" unicode="&#x117;" horiz-adv-x="561" 
d="M311 710v-65h-51v65h51zM489 256v-17h-370q0 -46 2 -73.5t8.5 -53.5t18 -39t32.5 -23t49 -13.5t71 -3.5q93 0 169 13v-41q-65 -13 -177 -13q-49 0 -83 4.5t-59.5 17.5t-39.5 30.5t-23 49.5t-11.5 68t-2.5 92q0 57 1.5 88.5t8.5 66.5t20.5 51.5t38.5 32t61.5 20.5t89.5 5
q47 0 79 -4.5t54 -19t34.5 -31t19 -50.5t8 -67t1.5 -90zM290 477q-61 0 -92.5 -6t-50.5 -30t-23.5 -58.5t-4.5 -104.5h324v18q0 62 -6.5 97t-26 54.5t-45.5 24.5t-75 5z" />
    <glyph glyph-name="Eogonek" unicode="&#x118;" horiz-adv-x="599" 
d="M526 -163q8 0 17 1v-37q-10 -1 -26 -1q-81 0 -81 73q0 63 64 127h-389v688h431v-44h-383v-274h336v-44h-336v-282h383v-44q-22 -19 -42.5 -54.5t-20.5 -63.5q0 -45 47 -45z" />
    <glyph glyph-name="eogonek" unicode="&#x119;" horiz-adv-x="561" 
d="M489 256v-17h-370q0 -46 2 -73.5t8.5 -53.5t18 -39t32.5 -23t49 -13.5t71 -3.5q93 0 169 13v-41q-22 -19 -42.5 -54.5t-20.5 -63.5q0 -45 47 -45q8 0 17 1v-37q-10 -1 -26 -1q-81 0 -81 73q0 59 58 120q-59 -6 -129 -6q-49 0 -83 4.5t-59.5 17.5t-39.5 30.5t-23 49.5
t-11.5 68t-2.5 92q0 57 1.5 88.5t8.5 66.5t20.5 51.5t38.5 32t61.5 20.5t89.5 5q47 0 79 -4.5t54 -19t34.5 -31t19 -50.5t8 -67t1.5 -90zM290 477q-61 0 -92.5 -6t-50.5 -30t-23.5 -58.5t-4.5 -104.5h324v18q0 62 -6.5 97t-26 54.5t-45.5 24.5t-75 5z" />
    <glyph glyph-name="Ecaron" unicode="&#x11a;" horiz-adv-x="599" 
d="M305 781l-106 133v5h34l99 -105l100 105h34v-5l-106 -133h-55zM111 0v688h431v-44h-383v-274h336v-44h-336v-282h383v-44h-431z" />
    <glyph glyph-name="ecaron" unicode="&#x11b;" horiz-adv-x="561" 
d="M313 603h-55l-106 133v5h34l99 -105l100 105h34v-5zM489 256v-17h-370q0 -46 2 -73.5t8.5 -53.5t18 -39t32.5 -23t49 -13.5t71 -3.5q93 0 169 13v-41q-65 -13 -177 -13q-49 0 -83 4.5t-59.5 17.5t-39.5 30.5t-23 49.5t-11.5 68t-2.5 92q0 57 1.5 88.5t8.5 66.5t20.5 51.5
t38.5 32t61.5 20.5t89.5 5q47 0 79 -4.5t54 -19t34.5 -31t19 -50.5t8 -67t1.5 -90zM290 477q-61 0 -92.5 -6t-50.5 -30t-23.5 -58.5t-4.5 -104.5h324v18q0 62 -6.5 97t-26 54.5t-45.5 24.5t-75 5z" />
    <glyph glyph-name="Gcircumflex" unicode="&#x11c;" horiz-adv-x="681" 
d="M227 781v6l106 133h55l106 -133v-6h-34l-100 106l-99 -106h-34zM371 -8q-64 0 -104.5 4.5t-74.5 18.5t-52.5 36.5t-31.5 64t-17 94.5t-4 134q0 80 4.5 133.5t17.5 95t31.5 64t53 36.5t74.5 18.5t103 4.5q117 0 210 -19v-40q-100 15 -177 15q-41 0 -61.5 -0.5t-50.5 -2.5
t-44 -6t-34 -12t-28 -18.5t-19.5 -28t-15.5 -39t-9 -52t-6 -66.5t-1 -83q0 -73 2.5 -117.5t12 -82.5t24 -56.5t43 -32t63.5 -17t91 -3.5q74 0 166 11v265h-185v43h232v-344q-106 -18 -213 -18z" />
    <glyph glyph-name="gcircumflex" unicode="&#x11d;" horiz-adv-x="594" 
d="M164 602v6l106 133h55l106 -133v-6h-34l-100 106l-99 -106h-34zM278 -206q-115 0 -185 8v40q96 -7 177 -7q62 0 97 9t54.5 37t25 66t5.5 110v16h-5q-17 -43 -60.5 -61.5t-116.5 -18.5q-122 0 -159.5 51t-37.5 211q0 161 37.5 212t160.5 51q69 0 115 -18t65 -71h5l3 81h39
v-439q0 -84 -7 -132t-30.5 -83.5t-66.5 -48.5t-116 -13zM286 34q125 0 150 75q16 45 16 146q0 103 -13 140q-15 44 -52 62.5t-101 18.5q-47 0 -74 -5t-47.5 -16.5t-29 -38.5t-12.5 -63t-4 -98t4 -98t12.5 -63t29 -38.5t47.5 -16.5t74 -5z" />
    <glyph glyph-name="Gbreve" unicode="&#x11e;" horiz-adv-x="681" 
d="M360 777q-46 0 -74 9.5t-39.5 32t-14 42t-2.5 58.5h36q0 -33 1.5 -48t10.5 -31.5t28.5 -22.5t53.5 -6t54 6t28.5 22.5t10.5 32t2 47.5h36q0 -31 -1 -47t-8 -37.5t-20 -32t-38.5 -18t-63.5 -7.5zM371 -8q-64 0 -104.5 4.5t-74.5 18.5t-52.5 36.5t-31.5 64t-17 94.5t-4 134
q0 80 4.5 133.5t17.5 95t31.5 64t53 36.5t74.5 18.5t103 4.5q117 0 210 -19v-40q-100 15 -177 15q-41 0 -61.5 -0.5t-50.5 -2.5t-44 -6t-34 -12t-28 -18.5t-19.5 -28t-15.5 -39t-9 -52t-6 -66.5t-1 -83q0 -73 2.5 -117.5t12 -82.5t24 -56.5t43 -32t63.5 -17t91 -3.5
q74 0 166 11v265h-185v43h232v-344q-106 -18 -213 -18z" />
    <glyph glyph-name="gbreve" unicode="&#x11f;" horiz-adv-x="594" 
d="M296 599q-46 0 -74 9.5t-39.5 32t-14 42t-2.5 58.5h36q0 -33 1.5 -48t10.5 -31.5t28.5 -22.5t53.5 -6t54 6t28.5 22.5t10.5 32t2 47.5h36q0 -31 -1 -47t-8 -37.5t-20 -32t-38.5 -18t-63.5 -7.5zM278 -206q-115 0 -185 8v40q96 -7 177 -7q62 0 97 9t54.5 37t25 66t5.5 110
v16h-5q-17 -43 -60.5 -61.5t-116.5 -18.5q-122 0 -159.5 51t-37.5 211q0 161 37.5 212t160.5 51q69 0 115 -18t65 -71h5l3 81h39v-439q0 -84 -7 -132t-30.5 -83.5t-66.5 -48.5t-116 -13zM286 34q125 0 150 75q16 45 16 146q0 103 -13 140q-15 44 -52 62.5t-101 18.5
q-47 0 -74 -5t-47.5 -16.5t-29 -38.5t-12.5 -63t-4 -98t4 -98t12.5 -63t29 -38.5t47.5 -16.5t74 -5z" />
    <glyph glyph-name="Gdotaccent" unicode="&#x120;" horiz-adv-x="681" 
d="M335 824v65h51v-65h-51zM371 -8q-64 0 -104.5 4.5t-74.5 18.5t-52.5 36.5t-31.5 64t-17 94.5t-4 134q0 80 4.5 133.5t17.5 95t31.5 64t53 36.5t74.5 18.5t103 4.5q117 0 210 -19v-40q-100 15 -177 15q-41 0 -61.5 -0.5t-50.5 -2.5t-44 -6t-34 -12t-28 -18.5t-19.5 -28
t-15.5 -39t-9 -52t-6 -66.5t-1 -83q0 -73 2.5 -117.5t12 -82.5t24 -56.5t43 -32t63.5 -17t91 -3.5q74 0 166 11v265h-185v43h232v-344q-106 -18 -213 -18z" />
    <glyph glyph-name="gdotaccent" unicode="&#x121;" horiz-adv-x="594" 
d="M271 645v65h51v-65h-51zM278 -206q-115 0 -185 8v40q96 -7 177 -7q62 0 97 9t54.5 37t25 66t5.5 110v16h-5q-17 -43 -60.5 -61.5t-116.5 -18.5q-122 0 -159.5 51t-37.5 211q0 161 37.5 212t160.5 51q69 0 115 -18t65 -71h5l3 81h39v-439q0 -84 -7 -132t-30.5 -83.5
t-66.5 -48.5t-116 -13zM286 34q125 0 150 75q16 45 16 146q0 103 -13 140q-15 44 -52 62.5t-101 18.5q-47 0 -74 -5t-47.5 -16.5t-29 -38.5t-12.5 -63t-4 -98t4 -98t12.5 -63t29 -38.5t47.5 -16.5t74 -5z" />
    <glyph glyph-name="uni0122" unicode="&#x122;" horiz-adv-x="681" 
d="M371 -8q-64 0 -104.5 4.5t-74.5 18.5t-52.5 36.5t-31.5 64t-17 94.5t-4 134q0 80 4.5 133.5t17.5 95t31.5 64t53 36.5t74.5 18.5t103 4.5q117 0 210 -19v-40q-100 15 -177 15q-41 0 -61.5 -0.5t-50.5 -2.5t-44 -6t-34 -12t-28 -18.5t-19.5 -28t-15.5 -39t-9 -52t-6 -66.5
t-1 -83q0 -73 2.5 -117.5t12 -82.5t24 -56.5t43 -32t63.5 -17t91 -3.5q74 0 166 11v265h-185v43h232v-344q-106 -18 -213 -18zM305 -236v25q33 0 42.5 11.5t9.5 48.5v17h-24v72h58v-76q0 -59 -16.5 -78.5t-69.5 -19.5z" />
    <glyph glyph-name="uni0123" unicode="&#x123;" horiz-adv-x="594" 
d="M268 603v76q0 59 16.5 78.5t69.5 19.5v-25q-33 0 -42.5 -11.5t-9.5 -48.5v-17h24v-72h-58zM278 -206q-115 0 -185 8v40q96 -7 177 -7q62 0 97 9t54.5 37t25 66t5.5 110v16h-5q-17 -43 -60.5 -61.5t-116.5 -18.5q-122 0 -159.5 51t-37.5 211q0 161 37.5 212t160.5 51
q69 0 115 -18t65 -71h5l3 81h39v-439q0 -84 -7 -132t-30.5 -83.5t-66.5 -48.5t-116 -13zM286 34q125 0 150 75q16 45 16 146q0 103 -13 140q-15 44 -52 62.5t-101 18.5q-47 0 -74 -5t-47.5 -16.5t-29 -38.5t-12.5 -63t-4 -98t4 -98t12.5 -63t29 -38.5t47.5 -16.5t74 -5z" />
    <glyph glyph-name="Hcircumflex" unicode="&#x124;" horiz-adv-x="736" 
d="M235 781v6l106 133h55l106 -133v-6h-34l-100 106l-99 -106h-34zM111 0v688h48v-318h418v318h48v-688h-48v326h-418v-326h-48z" />
    <glyph glyph-name="hcircumflex" unicode="&#x125;" horiz-adv-x="602" 
d="M-13 780v6l106 133h55l106 -133v-6h-34l-100 106l-99 -106h-34zM97 0v743h46v-306h4q32 81 175 81q60 0 96 -10.5t55.5 -36t26 -60t6.5 -91.5v-320h-46v309q0 109 -27 138t-124 29q-35 0 -61.5 -6t-44 -14.5t-29 -26t-18 -31t-9.5 -40.5t-3.5 -44t-0.5 -50v-264h-46z" />
    <glyph glyph-name="Hbar" unicode="&#x126;" horiz-adv-x="736" 
d="M111 0v688h48v-153h418v153h48v-688h-48v303h-418v-303h-48zM159 347h418v144h-418v-144z" />
    <glyph glyph-name="hbar" unicode="&#x127;" horiz-adv-x="602" 
d="M322 518q60 0 96 -10.5t55.5 -36t26 -60t6.5 -91.5v-320h-46v309q0 109 -27 138t-124 29q-35 0 -61.5 -6t-44 -14.5t-29 -26t-18 -31t-9.5 -40.5t-3.5 -44t-0.5 -50v-264h-46v647h-69v41h69v55h46v-55h147v-41h-147v-210h4q32 81 175 81z" />
    <glyph glyph-name="Itilde" unicode="&#x128;" horiz-adv-x="271" 
d="M-29 794q0 57 12.5 78.5t52.5 21.5q31 0 110 -27q56 -22 86 -22q22 0 28 12.5t6 47.5h32q0 -57 -12 -78.5t-52 -21.5q-36 0 -110 28q-64 22 -87 22q-21 0 -27.5 -13t-6.5 -48h-32zM111 0v688h48v-688h-48z" />
    <glyph glyph-name="itilde" unicode="&#x129;" horiz-adv-x="239" 
d="M-44 616q0 57 12.5 78.5t52.5 21.5q31 0 110 -27q56 -22 86 -22q21 0 27.5 12.5t6.5 47.5h32q0 -57 -12 -78.5t-52 -21.5q-36 0 -110 28q-64 22 -87 22q-21 0 -27.5 -13t-6.5 -48h-32zM97 0v510h46v-510h-46z" />
    <glyph glyph-name="Imacron" unicode="&#x12a;" horiz-adv-x="271" 
d="M-1 824v38h271v-38h-271zM111 0v688h48v-688h-48z" />
    <glyph glyph-name="imacron" unicode="&#x12b;" horiz-adv-x="239" 
d="M-16 646v38h271v-38h-271zM97 0v510h46v-510h-46z" />
    <glyph glyph-name="Ibreve" unicode="&#x12c;" horiz-adv-x="271" 
d="M134 777q-46 0 -74 9.5t-39.5 32t-14 42t-2.5 58.5h36q0 -33 1.5 -48t10.5 -31.5t28.5 -22.5t53.5 -6t54 6t28.5 22.5t10.5 32t2 47.5h36q0 -31 -1 -47t-8 -37.5t-20 -32t-38.5 -18t-63.5 -7.5zM111 0v688h48v-688h-48z" />
    <glyph glyph-name="ibreve" unicode="&#x12d;" horiz-adv-x="239" 
d="M119 599q-46 0 -74 9.5t-39.5 32t-14 42t-2.5 58.5h36q0 -33 1.5 -48t10.5 -31.5t28.5 -22.5t53.5 -6t54 6t28.5 22.5t10.5 32t2 47.5h36q0 -31 -1 -47t-8 -37.5t-20 -32t-38.5 -18t-63.5 -7.5zM97 0v510h46v-510h-46z" />
    <glyph glyph-name="Iogonek" unicode="&#x12e;" horiz-adv-x="271" 
d="M143 -163q8 0 17 1v-37q-10 -1 -26 -1q-81 0 -81 73q0 63 64 127h-6v688h48v-688q-22 -19 -42.5 -54.5t-20.5 -63.5q0 -45 47 -45z" />
    <glyph glyph-name="iogonek" unicode="&#x12f;" horiz-adv-x="239" 
d="M93 743h53v-68h-53v68zM80 -118q0 -45 47 -45q8 0 17 1v-37q-10 -1 -26 -1q-81 0 -81 73q0 63 64 127h-4v510h46v-510q-22 -19 -42.5 -54.5t-20.5 -63.5z" />
    <glyph glyph-name="Idotaccent" unicode="&#x130;" horiz-adv-x="271" 
d="M109 824v65h51v-65h-51zM111 0v688h48v-688h-48z" />
    <glyph glyph-name="dotlessi" unicode="&#x131;" horiz-adv-x="239" 
d="M97 0v510h46v-510h-46z" />
    <glyph glyph-name="IJ" unicode="&#x132;" horiz-adv-x="602" 
d="M111 0v688h48v-688h-48zM309 0v43q31 1 47 1.5t34.5 5t26 7.5t16.5 16.5t11 23.5t5 37t3 48.5v65.5v440h48v-420q0 -55 -0.5 -85.5t-4 -63.5t-7 -48t-15.5 -31.5t-22.5 -21.5t-34.5 -10.5t-45.5 -6t-61.5 -1.5z" />
    <glyph glyph-name="ij" unicode="&#x133;" horiz-adv-x="479" 
d="M93 675v68h53v-68h-53zM332 675v68h53v-68h-53zM97 0v510h46v-510h-46zM235 -200v38q66 0 83.5 11t17.5 46v615h46v-603q0 -71 -30.5 -89t-116.5 -18z" />
    <glyph glyph-name="Jcircumflex" unicode="&#x134;" horiz-adv-x="331" 
d="M72 781v6l106 133h55l106 -133v-6h-34l-100 106l-99 -106h-34zM38 0v43q31 1 47 1.5t34.5 5t26 7.5t16.5 16.5t11 23.5t5 37t3 48.5v65.5v440h48v-420q0 -55 -0.5 -85.5t-4 -63.5t-7 -48t-15.5 -31.5t-22.5 -21.5t-34.5 -10.5t-45.5 -6t-61.5 -1.5z" />
    <glyph glyph-name="jcircumflex" unicode="&#x135;" horiz-adv-x="239" 
d="M-13 602v6l106 133h55l106 -133v-6h-34l-100 106l-99 -106h-34zM-4 -200v38q66 0 83.5 11t17.5 46v615h46v-603q0 -71 -30.5 -89t-116.5 -18z" />
    <glyph glyph-name="uni0136" unicode="&#x136;" horiz-adv-x="666" 
d="M111 0v688h48v-317h161l251 317h55l-266 -338l269 -350h-57l-252 327h-161v-327h-48zM287 -253v25q27 0 35 8t8 34v17h-29v69h62v-73q0 -48 -15 -64t-61 -16z" />
    <glyph glyph-name="uni0137" unicode="&#x137;" horiz-adv-x="524" 
d="M97 0v743h46v-462h80l205 229h55l-223 -248l226 -262h-58l-205 238h-80v-238h-46zM211 -236v25q33 0 42.5 11.5t9.5 48.5v17h-24v72h58v-76q0 -59 -16.5 -78.5t-69.5 -19.5z" />
    <glyph glyph-name="kgreenlandic" unicode="&#x138;" horiz-adv-x="524" 
d="M97 0v510h46v-229h80l205 229h55l-223 -248l226 -262h-58l-205 238h-80v-238h-46z" />
    <glyph glyph-name="Lacute" unicode="&#x139;" horiz-adv-x="536" 
d="M96 781v5l105 134h56v-5l-126 -134h-35zM111 0v688h48v-644h343v-44h-391z" />
    <glyph glyph-name="lacute" unicode="&#x13a;" horiz-adv-x="239" 
d="M80 782v5l106 133h56v-5l-127 -133h-35zM97 0v743h46v-743h-46z" />
    <glyph glyph-name="uni013B" unicode="&#x13b;" horiz-adv-x="536" 
d="M111 0v688h48v-644h343v-44h-391zM270 -253v25q27 0 35 8t8 34v17h-29v69h62v-73q0 -48 -15 -64t-61 -16z" />
    <glyph glyph-name="uni013C" unicode="&#x13c;" horiz-adv-x="239" 
d="M97 0v743h46v-743h-46zM64 -236v25q33 0 42.5 11.5t9.5 48.5v17h-24v72h58v-76q0 -59 -16.5 -78.5t-69.5 -19.5z" />
    <glyph glyph-name="Lcaron" unicode="&#x13d;" horiz-adv-x="536" 
d="M111 0v688h48v-644h343v-44h-391zM322 452l13 150v86h42v-86l-25 -150h-30z" />
    <glyph glyph-name="lcaron" unicode="&#x13e;" horiz-adv-x="239" 
d="M97 0v743h46v-743h-46zM190 452l13 150v86h42v-86l-25 -150h-30z" />
    <glyph glyph-name="Ldot" unicode="&#x13f;" horiz-adv-x="536" 
d="M111 0v688h48v-644h343v-44h-391zM377 325v73h59v-73h-59z" />
    <glyph glyph-name="ldot" unicode="&#x140;" horiz-adv-x="246" 
d="M97 0v743h46v-743h-46zM215 263v73h59v-73h-59z" />
    <glyph glyph-name="Lslash" unicode="&#x141;" horiz-adv-x="536" 
d="M159 44h343v-44h-391v305l-67 -25v42l67 25v341h48v-324l208 77v-42l-208 -77v-278z" />
    <glyph glyph-name="lslash" unicode="&#x142;" horiz-adv-x="241" 
d="M97 0v337l-64 -23v43l64 23v363h46v-346l67 24v-43l-67 -24v-354h-46z" />
    <glyph glyph-name="Nacute" unicode="&#x143;" horiz-adv-x="736" 
d="M339 781v5l105 134h56v-5l-126 -134h-35zM111 0v688h48l415 -599h4v599h47v-688h-47l-416 602h-4v-602h-47z" />
    <glyph glyph-name="nacute" unicode="&#x144;" horiz-adv-x="602" 
d="M261 602v5l105 134h56v-5l-126 -134h-35zM97 0v510h38l4 -81h4q9 27 26.5 45t56 31t96.5 13q60 0 96 -10.5t55.5 -36t26 -60t6.5 -91.5v-320h-46v309q0 109 -27 138t-124 29q-35 0 -61.5 -6t-44 -14.5t-29 -26t-18 -31t-9.5 -40.5t-3.5 -44t-0.5 -50v-264h-46z" />
    <glyph glyph-name="uni0145" unicode="&#x145;" horiz-adv-x="736" 
d="M111 0v688h48l415 -599h4v599h47v-688h-47l-416 602h-4v-602h-47zM332 -253v25q27 0 35 8t8 34v17h-29v69h62v-73q0 -48 -15 -64t-61 -16z" />
    <glyph glyph-name="uni0146" unicode="&#x146;" horiz-adv-x="602" 
d="M97 0v510h38l4 -81h4q9 27 26.5 45t56 31t96.5 13q60 0 96 -10.5t55.5 -36t26 -60t6.5 -91.5v-320h-46v309q0 109 -27 138t-124 29q-35 0 -61.5 -6t-44 -14.5t-29 -26t-18 -31t-9.5 -40.5t-3.5 -44t-0.5 -50v-264h-46zM245 -236v25q33 0 42.5 11.5t9.5 48.5v17h-24v72h58
v-76q0 -59 -16.5 -78.5t-69.5 -19.5z" />
    <glyph glyph-name="Ncaron" unicode="&#x147;" horiz-adv-x="736" 
d="M351 781l-106 133v5h34l99 -105l100 105h34v-5l-106 -133h-55zM111 0v688h48l415 -599h4v599h47v-688h-47l-416 602h-4v-602h-47z" />
    <glyph glyph-name="ncaron" unicode="&#x148;" horiz-adv-x="602" 
d="M274 603l-106 133v5h34l99 -105l100 105h34v-5l-106 -133h-55zM97 0v510h38l4 -81h4q9 27 26.5 45t56 31t96.5 13q60 0 96 -10.5t55.5 -36t26 -60t6.5 -91.5v-320h-46v309q0 109 -27 138t-124 29q-35 0 -61.5 -6t-44 -14.5t-29 -26t-18 -31t-9.5 -40.5t-3.5 -44t-0.5 -50
v-264h-46z" />
    <glyph glyph-name="napostrophe" unicode="&#x149;" horiz-adv-x="610" 
d="M0 570v25q33 0 42.5 12t9.5 50v17h-24v69h58v-73q0 -61 -16.5 -80.5t-69.5 -19.5zM104 0v510h39l3 -81h4q9 27 26.5 45t56 31t96.5 13q60 0 96 -10.5t55.5 -36t26 -60t6.5 -91.5v-320h-46v309q0 109 -27 138t-124 29q-35 0 -61.5 -6t-44 -14.5t-29 -26t-18 -31
t-9.5 -40.5t-3.5 -44t-0.5 -50v-264h-46z" />
    <glyph glyph-name="Eng" unicode="&#x14a;" horiz-adv-x="736" 
d="M478 -200v38q66 0 83 11t17 46v105l-416 602h-4v-602h-47v688h48l415 -599h4v599h47v-781q0 -71 -30.5 -89t-116.5 -18z" />
    <glyph glyph-name="eng" unicode="&#x14b;" horiz-adv-x="602" 
d="M359 -200v38q66 0 83.5 11t17.5 46v414q0 109 -27 138t-124 29q-35 0 -61.5 -6t-44 -14.5t-29 -26t-18 -31t-9.5 -40.5t-3.5 -44t-0.5 -50v-264h-46v510h38l4 -81h4q9 27 26.5 45t56 31t96.5 13q60 0 96 -10.5t55.5 -36t26 -60t6.5 -91.5v-413q0 -71 -30.5 -89
t-116.5 -18z" />
    <glyph glyph-name="Omacron" unicode="&#x14c;" horiz-adv-x="723" 
d="M226 824v38h271v-38h-271zM362 -8q-41 0 -71 1t-57.5 6t-46 10.5t-34.5 18t-26 24.5t-18 35t-12 44.5t-6.5 57.5t-3 69.5t-0.5 85.5t0.5 85.5t3 69.5t6.5 57.5t12 44.5t18 35t26 24.5t34.5 18t46 10.5t57.5 6t71 1t71 -1t57 -6t45.5 -10.5t35 -18t26.5 -24.5t18 -35
t11.5 -44.5t6.5 -57.5t3.5 -69.5t0.5 -85.5t-0.5 -85.5t-3.5 -69.5t-6.5 -57.5t-11.5 -44.5t-18 -35t-26.5 -24.5t-35 -18t-45.5 -10.5t-57 -6t-71 -1zM362 36q62 0 90 1t60 12t42 26.5t21 54.5t12.5 85t1.5 129t-1.5 129t-12.5 85t-21 54.5t-42 26.5t-60 12t-90 1
q-47 0 -70.5 -0.5t-53 -5.5t-41 -11t-27 -23.5t-19.5 -36.5t-9.5 -55.5t-6 -75t-0.5 -100.5t0.5 -100.5t6 -75t9.5 -55.5t19.5 -36.5t27 -23.5t41 -11t53 -5.5t70.5 -0.5z" />
    <glyph glyph-name="omacron" unicode="&#x14d;" horiz-adv-x="579" 
d="M154 646v38h271v-38h-271zM289 -8q-53 0 -87 4t-59.5 17t-38.5 28.5t-20.5 49.5t-9 68t-1.5 95t1.5 95t9 68.5t20.5 50t38.5 29t59.5 17.5t87 4q40 0 68.5 -2t52 -9t38.5 -15t26.5 -25.5t17 -34t9 -46.5t4.5 -58t1 -74q0 -45 -1 -73t-4.5 -58t-9 -46.5t-17 -33.5
t-26.5 -25t-38.5 -15t-52 -9t-68.5 -2zM289 33q27 0 46.5 0.5t37 4.5t29 6.5t21.5 12.5t16 15.5t10 23t6 27.5t3.5 36t1.5 42.5v52.5q0 150 -24 186.5t-147 36.5q-122 0 -146 -36.5t-24 -186.5q0 -149 24 -185t146 -36z" />
    <glyph glyph-name="Obreve" unicode="&#x14e;" horiz-adv-x="723" 
d="M361 777q-46 0 -74 9.5t-39.5 32t-14 42t-2.5 58.5h36q0 -33 1.5 -48t10.5 -31.5t28.5 -22.5t53.5 -6t54 6t28.5 22.5t10.5 32t2 47.5h36q0 -31 -1 -47t-8 -37.5t-20 -32t-38.5 -18t-63.5 -7.5zM362 -8q-41 0 -71 1t-57.5 6t-46 10.5t-34.5 18t-26 24.5t-18 35t-12 44.5
t-6.5 57.5t-3 69.5t-0.5 85.5t0.5 85.5t3 69.5t6.5 57.5t12 44.5t18 35t26 24.5t34.5 18t46 10.5t57.5 6t71 1t71 -1t57 -6t45.5 -10.5t35 -18t26.5 -24.5t18 -35t11.5 -44.5t6.5 -57.5t3.5 -69.5t0.5 -85.5t-0.5 -85.5t-3.5 -69.5t-6.5 -57.5t-11.5 -44.5t-18 -35
t-26.5 -24.5t-35 -18t-45.5 -10.5t-57 -6t-71 -1zM362 36q62 0 90 1t60 12t42 26.5t21 54.5t12.5 85t1.5 129t-1.5 129t-12.5 85t-21 54.5t-42 26.5t-60 12t-90 1q-47 0 -70.5 -0.5t-53 -5.5t-41 -11t-27 -23.5t-19.5 -36.5t-9.5 -55.5t-6 -75t-0.5 -100.5t0.5 -100.5t6 -75
t9.5 -55.5t19.5 -36.5t27 -23.5t41 -11t53 -5.5t70.5 -0.5z" />
    <glyph glyph-name="obreve" unicode="&#x14f;" horiz-adv-x="579" 
d="M288 599q-46 0 -74 9.5t-39.5 32t-14 42t-2.5 58.5h36q0 -33 1.5 -48t10.5 -31.5t28.5 -22.5t53.5 -6t54 6t28.5 22.5t10.5 32t2 47.5h36q0 -31 -1 -47t-8 -37.5t-20 -32t-38.5 -18t-63.5 -7.5zM289 -8q-53 0 -87 4t-59.5 17t-38.5 28.5t-20.5 49.5t-9 68t-1.5 95t1.5 95
t9 68.5t20.5 50t38.5 29t59.5 17.5t87 4q40 0 68.5 -2t52 -9t38.5 -15t26.5 -25.5t17 -34t9 -46.5t4.5 -58t1 -74q0 -45 -1 -73t-4.5 -58t-9 -46.5t-17 -33.5t-26.5 -25t-38.5 -15t-52 -9t-68.5 -2zM289 33q27 0 46.5 0.5t37 4.5t29 6.5t21.5 12.5t16 15.5t10 23t6 27.5
t3.5 36t1.5 42.5v52.5q0 150 -24 186.5t-147 36.5q-122 0 -146 -36.5t-24 -186.5q0 -149 24 -185t146 -36z" />
    <glyph glyph-name="Ohungarumlaut" unicode="&#x150;" horiz-adv-x="723" 
d="M230 781v5l90 114h54v-5l-111 -114h-33zM402 781v5l90 114h54v-5l-111 -114h-33zM362 -8q-41 0 -71 1t-57.5 6t-46 10.5t-34.5 18t-26 24.5t-18 35t-12 44.5t-6.5 57.5t-3 69.5t-0.5 85.5t0.5 85.5t3 69.5t6.5 57.5t12 44.5t18 35t26 24.5t34.5 18t46 10.5t57.5 6t71 1
t71 -1t57 -6t45.5 -10.5t35 -18t26.5 -24.5t18 -35t11.5 -44.5t6.5 -57.5t3.5 -69.5t0.5 -85.5t-0.5 -85.5t-3.5 -69.5t-6.5 -57.5t-11.5 -44.5t-18 -35t-26.5 -24.5t-35 -18t-45.5 -10.5t-57 -6t-71 -1zM362 36q62 0 90 1t60 12t42 26.5t21 54.5t12.5 85t1.5 129t-1.5 129
t-12.5 85t-21 54.5t-42 26.5t-60 12t-90 1q-47 0 -70.5 -0.5t-53 -5.5t-41 -11t-27 -23.5t-19.5 -36.5t-9.5 -55.5t-6 -75t-0.5 -100.5t0.5 -100.5t6 -75t9.5 -55.5t19.5 -36.5t27 -23.5t41 -11t53 -5.5t70.5 -0.5z" />
    <glyph glyph-name="ohungarumlaut" unicode="&#x151;" horiz-adv-x="579" 
d="M180 603v5l90 114h54v-5l-111 -114h-33zM352 603v5l90 114h54v-5l-111 -114h-33zM289 -8q-53 0 -87 4t-59.5 17t-38.5 28.5t-20.5 49.5t-9 68t-1.5 95t1.5 95t9 68.5t20.5 50t38.5 29t59.5 17.5t87 4q40 0 68.5 -2t52 -9t38.5 -15t26.5 -25.5t17 -34t9 -46.5t4.5 -58
t1 -74q0 -45 -1 -73t-4.5 -58t-9 -46.5t-17 -33.5t-26.5 -25t-38.5 -15t-52 -9t-68.5 -2zM289 33q27 0 46.5 0.5t37 4.5t29 6.5t21.5 12.5t16 15.5t10 23t6 27.5t3.5 36t1.5 42.5v52.5q0 150 -24 186.5t-147 36.5q-122 0 -146 -36.5t-24 -186.5q0 -149 24 -185t146 -36z" />
    <glyph glyph-name="OE" unicode="&#x152;" horiz-adv-x="1066" 
d="M362 0q-52 0 -87 2t-65.5 10t-49 17t-33.5 30.5t-22 42.5t-11.5 61.5t-5.5 78.5t-1 102t1 102t5.5 78.5t11.5 61.5t22 42.5t33.5 30.5t49 17t65.5 10t87 2h647v-44h-367q-36 0 -73 5q42 -29 54.5 -89.5t13.5 -189.5h325v-44h-325q-1 -135 -13.5 -196.5t-54.5 -90.5
q37 5 73 5h367v-44h-647zM362 44q47 0 70 0.5t52.5 5.5t41.5 11t27 22.5t19.5 35.5t10 54t6 73t0.5 98t-0.5 98t-6 73t-10 54t-19.5 35.5t-27 22.5t-41.5 11t-52.5 5.5t-70 0.5t-70.5 -0.5t-53 -5.5t-41 -11t-27 -23t-19.5 -35.5t-9.5 -53.5t-6 -73t-0.5 -98t0.5 -98t6 -73
t9.5 -53.5t19.5 -35.5t27 -23t41 -11t53 -5.5t70.5 -0.5z" />
    <glyph glyph-name="oe" unicode="&#x153;" horiz-adv-x="949" 
d="M877 256v-17h-370q0 -46 2 -73.5t8.5 -53.5t18 -39t32.5 -23t49 -13.5t71 -3.5q94 0 169 13v-41q-65 -13 -177 -13q-86 0 -130.5 18t-64.5 63q-18 -47 -61 -64t-135 -17q-53 0 -87 4t-59.5 17t-38.5 28.5t-20.5 49.5t-9 68t-1.5 95t1.5 95t9 68.5t20.5 50t38.5 29
t59.5 17.5t87 4q90 0 134 -17t61 -62q19 42 64 60.5t133 18.5q47 0 79 -4.5t54 -19t34.5 -31t19 -50.5t8 -67t1.5 -90zM289 33q27 0 46.5 0.5t37 4.5t29 6.5t21.5 12.5t16 15.5t10 23t6 27.5t3.5 36t1.5 42.5v52.5q0 150 -24 186.5t-147 36.5q-122 0 -146 -36.5t-24 -186.5
q0 -149 24 -185t146 -36zM678 477q-61 0 -92.5 -6t-50.5 -30t-23.5 -58.5t-4.5 -104.5h324v18q0 62 -6.5 97t-26 54.5t-45.5 24.5t-75 5z" />
    <glyph glyph-name="Racute" unicode="&#x154;" horiz-adv-x="684" 
d="M464 915l-126 -134h-35v5l105 134h56v-5zM608 0h-53l-115 290q-14 -1 -35 -1h-246v-289h-48v688h308q50 0 84.5 -11.5t53 -28.5t28.5 -46t12.5 -52.5t2.5 -60.5q0 -36 -3 -61t-13.5 -53.5t-34.5 -48t-61 -28.5zM398 333q52 0 84 10t47 33.5t19 47.5t4 65q0 42 -3.5 65
t-16.5 46.5t-42.5 33.5t-78.5 10h-252v-311h239z" />
    <glyph glyph-name="racute" unicode="&#x155;" horiz-adv-x="347" 
d="M134 602v5l105 134h56v-5l-126 -134h-35zM97 0v510h38l4 -106h4q16 65 60 89.5t115 24.5v-46q-103 0 -139 -52.5t-36 -166.5v-253h-46z" />
    <glyph glyph-name="uni0156" unicode="&#x156;" horiz-adv-x="684" 
d="M608 0h-53l-115 290q-14 -1 -35 -1h-246v-289h-48v688h308q50 0 84.5 -11.5t53 -28.5t28.5 -46t12.5 -52.5t2.5 -60.5q0 -36 -3 -61t-13.5 -53.5t-34.5 -48t-61 -28.5zM398 333q52 0 84 10t47 33.5t19 47.5t4 65q0 42 -3.5 65t-16.5 46.5t-42.5 33.5t-78.5 10h-252v-311
h239zM310 -169v69h62v-73q0 -48 -15 -64t-61 -16v25q27 0 35 8t8 34v17h-29z" />
    <glyph glyph-name="uni0157" unicode="&#x157;" horiz-adv-x="347" 
d="M97 0v510h38l4 -106h4q16 65 60 89.5t115 24.5v-46q-103 0 -139 -52.5t-36 -166.5v-253h-46zM64 -236v25q33 0 42.5 11.5t9.5 48.5v17h-24v72h58v-76q0 -59 -16.5 -78.5t-69.5 -19.5z" />
    <glyph glyph-name="Rcaron" unicode="&#x158;" horiz-adv-x="684" 
d="M370 781h-55l-106 133v5h34l99 -105l100 105h34v-5zM608 0h-53l-115 290q-14 -1 -35 -1h-246v-289h-48v688h308q50 0 84.5 -11.5t53 -28.5t28.5 -46t12.5 -52.5t2.5 -60.5q0 -36 -3 -61t-13.5 -53.5t-34.5 -48t-61 -28.5zM398 333q52 0 84 10t47 33.5t19 47.5t4 65
q0 42 -3.5 65t-16.5 46.5t-42.5 33.5t-78.5 10h-252v-311h239z" />
    <glyph glyph-name="rcaron" unicode="&#x159;" horiz-adv-x="347" 
d="M146 603l-106 133v5h34l99 -105l100 105h34v-5l-106 -133h-55zM97 0v510h38l4 -106h4q16 65 60 89.5t115 24.5v-46q-103 0 -139 -52.5t-36 -166.5v-253h-46z" />
    <glyph glyph-name="Sacute" unicode="&#x15a;" horiz-adv-x="634" 
d="M278 781v5l105 134h56v-5l-126 -134h-35zM332 -8q-125 0 -235 12v44q117 -12 221 -12q105 0 149 23q42 23 42 126q0 33 -0.5 49.5t-5 34.5t-10.5 24.5t-21 14t-33 10.5t-49 6l-180 19q-47 5 -75 17.5t-40 37.5t-15 48t-3 66q0 112 54.5 148t185.5 36q137 0 205 -14v-42
q-94 12 -199 12q-119 0 -160 -28q-23 -15 -30.5 -41t-7.5 -72q0 -71 16.5 -93.5t78.5 -28.5l173 -19q38 -4 57.5 -7t42 -10.5t35 -21.5t19.5 -36q10 -29 10 -105q0 -55 -11.5 -92.5t-28 -58.5t-49 -31.5t-60.5 -13t-76 -2.5z" />
    <glyph glyph-name="sacute" unicode="&#x15b;" horiz-adv-x="500" 
d="M210 602v5l105 134h56v-5l-126 -134h-35zM254 -8q-89 0 -175 11v41q103 -11 185 -11q81 0 104.5 21.5t23.5 80.5q0 33 -3 50.5t-13.5 27t-21.5 12t-37 5.5l-144 15q-65 7 -87.5 33.5t-22.5 93.5q0 49 12 79t40 44.5t58.5 18.5t83.5 4q84 0 152 -13v-40q-77 12 -165 12
q-37 0 -57 -2.5t-41 -11.5t-29.5 -29.5t-8.5 -55.5q0 -55 14 -70t61 -20l142 -14q68 -7 90 -32t22 -107q0 -86 -41 -114.5t-142 -28.5z" />
    <glyph glyph-name="Scircumflex" unicode="&#x15c;" horiz-adv-x="634" 
d="M183 781v6l106 133h55l106 -133v-6h-34l-100 106l-99 -106h-34zM332 -8q-125 0 -235 12v44q117 -12 221 -12q105 0 149 23q42 23 42 126q0 33 -0.5 49.5t-5 34.5t-10.5 24.5t-21 14t-33 10.5t-49 6l-180 19q-47 5 -75 17.5t-40 37.5t-15 48t-3 66q0 112 54.5 148
t185.5 36q137 0 205 -14v-42q-94 12 -199 12q-119 0 -160 -28q-23 -15 -30.5 -41t-7.5 -72q0 -71 16.5 -93.5t78.5 -28.5l173 -19q38 -4 57.5 -7t42 -10.5t35 -21.5t19.5 -36q10 -29 10 -105q0 -55 -11.5 -92.5t-28 -58.5t-49 -31.5t-60.5 -13t-76 -2.5z" />
    <glyph glyph-name="scircumflex" unicode="&#x15d;" horiz-adv-x="500" 
d="M116 602v6l106 133h55l106 -133v-6h-34l-100 106l-99 -106h-34zM254 -8q-89 0 -175 11v41q103 -11 185 -11q81 0 104.5 21.5t23.5 80.5q0 33 -3 50.5t-13.5 27t-21.5 12t-37 5.5l-144 15q-65 7 -87.5 33.5t-22.5 93.5q0 49 12 79t40 44.5t58.5 18.5t83.5 4q84 0 152 -13
v-40q-77 12 -165 12q-37 0 -57 -2.5t-41 -11.5t-29.5 -29.5t-8.5 -55.5q0 -55 14 -70t61 -20l142 -14q68 -7 90 -32t22 -107q0 -86 -41 -114.5t-142 -28.5z" />
    <glyph glyph-name="Scedilla" unicode="&#x15e;" horiz-adv-x="634" 
d="M557 190q0 -51 -9.5 -87.5t-25 -57.5t-42.5 -33t-54 -15.5t-68 -4.5l-40 -182h-50v5l54 177q-120 0 -225 12v44q117 -12 221 -12q105 0 149 23q42 23 42 126q0 33 -0.5 49.5t-5 34.5t-10.5 24.5t-21 14t-33 10.5t-49 6l-180 19q-47 5 -75 17.5t-40 37.5t-15 48t-3 66
q0 112 54.5 148t185.5 36q137 0 205 -14v-42q-94 12 -199 12q-119 0 -160 -28q-23 -15 -30.5 -41t-7.5 -72q0 -71 16.5 -93.5t78.5 -28.5l173 -19q38 -4 57.5 -7t42 -10.5t35 -21.5t19.5 -36q10 -29 10 -105z" />
    <glyph glyph-name="scedilla" unicode="&#x15f;" horiz-adv-x="500" 
d="M437 135q0 -83 -39 -112t-133 -31l-40 -182h-50v5l54 177q-74 1 -150 11v41q103 -11 185 -11q81 0 104.5 21.5t23.5 80.5q0 33 -3 50.5t-13.5 27t-21.5 12t-37 5.5l-144 15q-65 7 -87.5 33.5t-22.5 93.5q0 49 12 79t40 44.5t58.5 18.5t83.5 4q84 0 152 -13v-40
q-77 12 -165 12q-37 0 -57 -2.5t-41 -11.5t-29.5 -29.5t-8.5 -55.5q0 -55 14 -70t61 -20l142 -14q68 -7 90 -32t22 -107z" />
    <glyph glyph-name="Scaron" unicode="&#x160;" horiz-adv-x="634" 
d="M299 749l-106 133v5h34l99 -105l100 105h34v-5l-106 -133h-55zM332 -8q-125 0 -235 12v44q117 -12 221 -12q105 0 149 23q42 23 42 126q0 33 -0.5 49.5t-5 34.5t-10.5 24.5t-21 14t-33 10.5t-49 6l-180 19q-47 5 -75 17.5t-40 37.5t-15 48t-3 66q0 112 54.5 148t185.5 36
q137 0 205 -14v-42q-94 12 -199 12q-119 0 -160 -28q-23 -15 -30.5 -41t-7.5 -72q0 -71 16.5 -93.5t78.5 -28.5l173 -19q38 -4 57.5 -7t42 -10.5t35 -21.5t19.5 -36q10 -29 10 -105q0 -55 -11.5 -92.5t-28 -58.5t-49 -31.5t-60.5 -13t-76 -2.5z" />
    <glyph glyph-name="scaron" unicode="&#x161;" horiz-adv-x="500" 
d="M222 603l-106 133v5h34l99 -105l100 105h34v-5l-106 -133h-55zM254 -8q-89 0 -175 11v41q103 -11 185 -11q81 0 104.5 21.5t23.5 80.5q0 33 -3 50.5t-13.5 27t-21.5 12t-37 5.5l-144 15q-65 7 -87.5 33.5t-22.5 93.5q0 49 12 79t40 44.5t58.5 18.5t83.5 4q84 0 152 -13
v-40q-77 12 -165 12q-37 0 -57 -2.5t-41 -11.5t-29.5 -29.5t-8.5 -55.5q0 -55 14 -70t61 -20l142 -14q68 -7 90 -32t22 -107q0 -86 -41 -114.5t-142 -28.5z" />
    <glyph glyph-name="uni0162" unicode="&#x162;" horiz-adv-x="581" 
d="M38 688h506v-44h-229v-644h-6l-43 -190h-49v5l57 185h-7v644h-229v44z" />
    <glyph glyph-name="uni0163" unicode="&#x163;" horiz-adv-x="336" 
d="M182 510h125v-41h-125v-469h-5l-42 -190h-50v5l57 185h-6v469h-107v41h107v148h46v-148z" />
    <glyph glyph-name="Tcaron" unicode="&#x164;" horiz-adv-x="581" 
d="M263 781l-106 133v5h34l99 -105l100 105h34v-5l-106 -133h-55zM267 0v644h-229v44h506v-44h-229v-644h-48z" />
    <glyph glyph-name="tcaron" unicode="&#x165;" horiz-adv-x="336" 
d="M237 577l13 150v86h43v-86l-26 -150h-30zM136 0v469h-107v41h107v148h46v-148h125v-41h-125v-469h-46z" />
    <glyph glyph-name="Tbar" unicode="&#x166;" horiz-adv-x="581" 
d="M544 644h-229v-267h199v-40h-199v-337h-48v337h-200v40h200v267h-229v44h506v-44z" />
    <glyph glyph-name="tbar" unicode="&#x167;" horiz-adv-x="336" 
d="M307 469h-125v-182h125v-40h-125v-247h-46v247h-104v40h104v182h-107v41h107v148h46v-148h125v-41z" />
    <glyph glyph-name="Utilde" unicode="&#x168;" horiz-adv-x="715" 
d="M194 794q0 57 12.5 78.5t52.5 21.5q31 0 110 -27q56 -22 86 -22q21 0 27.5 12.5t6.5 47.5h32q0 -57 -12 -78.5t-52 -21.5q-36 0 -110 28q-64 22 -87 22q-21 0 -27.5 -13t-6.5 -48h-32zM358 -8q-60 0 -100.5 5t-70 20.5t-45.5 35t-25.5 57.5t-12 78.5t-2.5 107.5v392h48
v-423q0 -52 1.5 -82t9 -59.5t20 -43.5t37 -25.5t57.5 -15t83 -3.5t83 3.5t57 15t36.5 25.5t20 43.5t9 59t1.5 82.5v423h48v-392q0 -67 -2.5 -107.5t-12 -78.5t-25.5 -57.5t-45 -35t-69.5 -20.5t-100.5 -5z" />
    <glyph glyph-name="utilde" unicode="&#x169;" horiz-adv-x="602" 
d="M137 616q0 57 12.5 78.5t52.5 21.5q31 0 110 -27q56 -22 86 -22q22 0 28 12.5t6 47.5h32q0 -57 -12 -78.5t-52 -21.5q-36 0 -110 28q-64 22 -87 22q-21 0 -27.5 -13t-6.5 -48h-32zM281 -8q-60 0 -96.5 10t-55.5 36.5t-25.5 60t-6.5 91.5v320h46v-309q0 -109 27 -138
t124 -29q34 0 60.5 6t44 14.5t29.5 25.5t18.5 31.5t9.5 40.5t3.5 43.5t0.5 50.5v264h46v-510h-39l-3 81h-5q-15 -42 -54.5 -65.5t-123.5 -23.5z" />
    <glyph glyph-name="Umacron" unicode="&#x16a;" horiz-adv-x="715" 
d="M222 824v38h271v-38h-271zM358 -8q-60 0 -100.5 5t-70 20.5t-45.5 35t-25.5 57.5t-12 78.5t-2.5 107.5v392h48v-423q0 -52 1.5 -82t9 -59.5t20 -43.5t37 -25.5t57.5 -15t83 -3.5t83 3.5t57 15t36.5 25.5t20 43.5t9 59t1.5 82.5v423h48v-392q0 -67 -2.5 -107.5t-12 -78.5
t-25.5 -57.5t-45 -35t-69.5 -20.5t-100.5 -5z" />
    <glyph glyph-name="umacron" unicode="&#x16b;" horiz-adv-x="602" 
d="M165 646v38h271v-38h-271zM281 -8q-60 0 -96.5 10t-55.5 36.5t-25.5 60t-6.5 91.5v320h46v-309q0 -109 27 -138t124 -29q34 0 60.5 6t44 14.5t29.5 25.5t18.5 31.5t9.5 40.5t3.5 43.5t0.5 50.5v264h46v-510h-39l-3 81h-5q-15 -42 -54.5 -65.5t-123.5 -23.5z" />
    <glyph glyph-name="Ubreve" unicode="&#x16c;" horiz-adv-x="715" 
d="M357 777q-46 0 -74 9.5t-39.5 32t-14 42t-2.5 58.5h36q0 -33 1.5 -48t10.5 -31.5t28.5 -22.5t53.5 -6t54 6t28.5 22.5t10.5 32t2 47.5h36q0 -31 -1 -47t-8 -37.5t-20 -32t-38.5 -18t-63.5 -7.5zM358 -8q-60 0 -100.5 5t-70 20.5t-45.5 35t-25.5 57.5t-12 78.5t-2.5 107.5
v392h48v-423q0 -52 1.5 -82t9 -59.5t20 -43.5t37 -25.5t57.5 -15t83 -3.5t83 3.5t57 15t36.5 25.5t20 43.5t9 59t1.5 82.5v423h48v-392q0 -67 -2.5 -107.5t-12 -78.5t-25.5 -57.5t-45 -35t-69.5 -20.5t-100.5 -5z" />
    <glyph glyph-name="ubreve" unicode="&#x16d;" horiz-adv-x="602" 
d="M300 599q-46 0 -74 9.5t-39.5 32t-14 42t-2.5 58.5h36q0 -33 1.5 -48t10.5 -31.5t28.5 -22.5t53.5 -6t54 6t28.5 22.5t10.5 32t2 47.5h36q0 -31 -1 -47t-8 -37.5t-20 -32t-38.5 -18t-63.5 -7.5zM281 -8q-60 0 -96.5 10t-55.5 36.5t-25.5 60t-6.5 91.5v320h46v-309
q0 -109 27 -138t124 -29q34 0 60.5 6t44 14.5t29.5 25.5t18.5 31.5t9.5 40.5t3.5 43.5t0.5 50.5v264h46v-510h-39l-3 81h-5q-15 -42 -54.5 -65.5t-123.5 -23.5z" />
    <glyph glyph-name="Uring" unicode="&#x16e;" horiz-adv-x="715" 
d="M356 767q-41 0 -64 4.5t-34.5 17.5t-14 28t-2.5 46q0 40 6 58t30.5 28.5t78.5 10.5q55 0 80 -10.5t31 -28.5t6 -58q0 -31 -2.5 -46t-14 -28t-35 -17.5t-65.5 -4.5zM356 799q56 0 68 11.5t12 52.5q0 42 -12 54t-68 12q-54 0 -66 -12t-12 -54q0 -41 12 -52.5t66 -11.5z
M358 -8q-60 0 -100.5 5t-70 20.5t-45.5 35t-25.5 57.5t-12 78.5t-2.5 107.5v392h48v-423q0 -52 1.5 -82t9 -59.5t20 -43.5t37 -25.5t57.5 -15t83 -3.5t83 3.5t57 15t36.5 25.5t20 43.5t9 59t1.5 82.5v423h48v-392q0 -67 -2.5 -107.5t-12 -78.5t-25.5 -57.5t-45 -35
t-69.5 -20.5t-100.5 -5z" />
    <glyph glyph-name="uring" unicode="&#x16f;" horiz-adv-x="602" 
d="M300 589q-41 0 -64 4.5t-34.5 17.5t-14 28t-2.5 46q0 40 6 58t30.5 28.5t78.5 10.5q55 0 80 -10.5t31 -28.5t6 -58q0 -31 -2.5 -46t-14 -28t-35 -17.5t-65.5 -4.5zM300 621q56 0 68 11.5t12 52.5q0 42 -12 54t-68 12q-54 0 -66 -12t-12 -54q0 -41 12 -52.5t66 -11.5z
M281 -8q-60 0 -96.5 10t-55.5 36.5t-25.5 60t-6.5 91.5v320h46v-309q0 -109 27 -138t124 -29q34 0 60.5 6t44 14.5t29.5 25.5t18.5 31.5t9.5 40.5t3.5 43.5t0.5 50.5v264h46v-510h-39l-3 81h-5q-15 -42 -54.5 -65.5t-123.5 -23.5z" />
    <glyph glyph-name="Uhungarumlaut" unicode="&#x170;" horiz-adv-x="715" 
d="M226 781v5l90 114h54v-5l-111 -114h-33zM398 781v5l90 114h54v-5l-111 -114h-33zM358 -8q-60 0 -100.5 5t-70 20.5t-45.5 35t-25.5 57.5t-12 78.5t-2.5 107.5v392h48v-423q0 -52 1.5 -82t9 -59.5t20 -43.5t37 -25.5t57.5 -15t83 -3.5t83 3.5t57 15t36.5 25.5t20 43.5
t9 59t1.5 82.5v423h48v-392q0 -67 -2.5 -107.5t-12 -78.5t-25.5 -57.5t-45 -35t-69.5 -20.5t-100.5 -5z" />
    <glyph glyph-name="uhungarumlaut" unicode="&#x171;" horiz-adv-x="602" 
d="M192 603v5l90 114h54v-5l-111 -114h-33zM364 603v5l90 114h54v-5l-111 -114h-33zM281 -8q-60 0 -96.5 10t-55.5 36.5t-25.5 60t-6.5 91.5v320h46v-309q0 -109 27 -138t124 -29q34 0 60.5 6t44 14.5t29.5 25.5t18.5 31.5t9.5 40.5t3.5 43.5t0.5 50.5v264h46v-510h-39
l-3 81h-5q-15 -42 -54.5 -65.5t-123.5 -23.5z" />
    <glyph glyph-name="Uogonek" unicode="&#x172;" horiz-adv-x="715" 
d="M565 688h48v-392q0 -54 -1.5 -88.5t-6.5 -69t-14.5 -55t-24.5 -39t-38 -28t-53.5 -15.5t-72.5 -8q-21 -22 -38 -54t-17 -57q0 -45 47 -45q8 0 17 1v-37q-10 -1 -26 -1q-81 0 -81 73q0 57 57 119h-3q-60 0 -100.5 5t-70 20.5t-45.5 35t-25.5 57.5t-12 78.5t-2.5 107.5v392
h48v-423q0 -52 1.5 -82t9 -59.5t20 -43.5t37 -25.5t57.5 -15t83 -3.5t83 3.5t57 15t36.5 25.5t20 43.5t9 59t1.5 82.5v423z" />
    <glyph glyph-name="uogonek" unicode="&#x173;" horiz-adv-x="602" 
d="M490 -163q8 0 17 1v-37q-10 -1 -26 -1q-81 0 -81 73q0 65 67 130l-3 78h-5q-15 -42 -54.5 -65.5t-123.5 -23.5q-60 0 -96.5 10t-55.5 36.5t-25.5 60t-6.5 91.5v320h46v-309q0 -109 27 -138t124 -29q34 0 60.5 6t44 14.5t29.5 25.5t18.5 31.5t9.5 40.5t3.5 43.5t0.5 50.5
v264h46v-510q-22 -19 -42.5 -54.5t-20.5 -63.5q0 -45 47 -45z" />
    <glyph glyph-name="Wcircumflex" unicode="&#x174;" horiz-adv-x="984" 
d="M359 781v6l106 133h55l106 -133v-6h-34l-100 106l-99 -106h-34zM245 0l-200 688h51l174 -612h6l192 612h51l192 -612h6l173 612h49l-200 -688h-51l-194 607h-4l-194 -607h-51z" />
    <glyph glyph-name="wcircumflex" unicode="&#x175;" horiz-adv-x="806" 
d="M270 602v6l106 133h55l106 -133v-6h-34l-100 106l-99 -106h-34zM211 0l-174 510h49l148 -443h6l140 443h47l141 -443h6l147 443h48l-175 -510h-49l-140 432h-6l-138 -432h-50z" />
    <glyph glyph-name="Ycircumflex" unicode="&#x176;" horiz-adv-x="601" 
d="M168 781v6l106 133h55l106 -133v-6h-34l-100 106l-99 -106h-34zM276 0v277l-258 411h54l225 -362h7l226 362h53l-259 -411v-277h-48z" />
    <glyph glyph-name="ycircumflex" unicode="&#x177;" horiz-adv-x="602" 
d="M168 602v6l106 133h55l106 -133v-6h-34l-100 106l-99 -106h-34zM283 -206q-97 0 -170 7v41q100 -7 162 -7q43 0 73 5t50.5 17t32.5 27t18.5 41.5t8.5 52.5t2 68v28h-5q-30 -81 -174 -81q-60 0 -96.5 10t-55.5 36t-25.5 60t-6.5 92v319h46v-309q0 -109 27 -138t124 -29
q34 0 60.5 6t44 14.5t29.5 26t18.5 31.5t9.5 40.5t3.5 44t0.5 50.5v263h46v-444q0 -80 -8 -128t-32.5 -82.5t-67.5 -48t-115 -13.5z" />
    <glyph glyph-name="Ydieresis" unicode="&#x178;" horiz-adv-x="601" 
d="M170 823v65h51v-65h-51zM379 823v65h51v-65h-51zM276 0v277l-258 411h54l225 -362h7l226 362h53l-259 -411v-277h-48z" />
    <glyph glyph-name="Zacute" unicode="&#x179;" horiz-adv-x="602" 
d="M269 781v5l105 134h56v-5l-126 -134h-35zM58 0v41l422 603h-411v44h472v-41l-422 -604h429v-43h-490z" />
    <glyph glyph-name="zacute" unicode="&#x17a;" horiz-adv-x="499" 
d="M213 602v5l105 134h56v-5l-126 -134h-35zM54 0v36l327 433h-315v41h376v-36l-326 -433h328v-41h-390z" />
    <glyph glyph-name="Zdotaccent" unicode="&#x17b;" horiz-adv-x="602" 
d="M282 824v65h51v-65h-51zM58 0v41l422 603h-411v44h472v-41l-422 -604h429v-43h-490z" />
    <glyph glyph-name="zdotaccent" unicode="&#x17c;" horiz-adv-x="499" 
d="M227 645v65h51v-65h-51zM54 0v36l327 433h-315v41h376v-36l-326 -433h328v-41h-390z" />
    <glyph glyph-name="Zcaron" unicode="&#x17d;" horiz-adv-x="602" 
d="M280 781l-106 133v5h34l99 -105l100 105h34v-5l-106 -133h-55zM58 0v41l422 603h-411v44h472v-41l-422 -604h429v-43h-490z" />
    <glyph glyph-name="zcaron" unicode="&#x17e;" horiz-adv-x="499" 
d="M225 603l-106 133v5h34l99 -105l100 105h34v-5l-106 -133h-55zM54 0v36l327 433h-315v41h376v-36l-326 -433h328v-41h-390z" />
    <glyph glyph-name="longs" unicode="&#x17f;" horiz-adv-x="313" 
d="M136 0v469h-107v41h107v107q0 81 40 103.5t141 22.5v-38q-81 0 -108 -16t-27 -64v-625h-46z" />
    <glyph glyph-name="uni018F" unicode="&#x18f;" horiz-adv-x="703" 
d="M352 -8q-40 0 -68.5 1t-55 6t-44.5 10.5t-33.5 18t-25 24.5t-17.5 35t-11.5 44.5t-6 57.5t-3 69.5t-0.5 85.5v26h482q-1 69 -3.5 111t-13.5 76.5t-25 51t-44.5 27.5t-64.5 13.5t-93 2.5q-92 0 -164 -18v43q79 19 177 19q64 0 104 -4t74 -18t51.5 -36t30 -64t16 -95
t3.5 -135q0 -65 -1 -104.5t-5.5 -80.5t-11 -62.5t-21 -43.5t-32.5 -31.5t-47.5 -17.5t-63 -10t-83.5 -2zM352 36q35 0 53.5 0.5t43.5 2.5t36 5.5t27 12t21.5 17.5t14.5 27t11 36.5t5.5 49t4 62t0.5 77.5h-434q0 -58 1 -95t6.5 -70.5t9.5 -52t19 -34.5t26 -22t39 -10.5t50 -5
t66 -0.5z" />
    <glyph glyph-name="florin" unicode="&#x192;" horiz-adv-x="332" 
d="M350 705q-45 0 -68.5 -4.5t-45 -23.5t-34 -53t-25.5 -97l-3 -17h135l-9 -41h-135l-98 -459q-12 -58 -28 -96t-31.5 -59t-44 -31t-51 -12t-67.5 -2l9 38q81 0 111 17.5t43 76.5l111 527h-107l9 41h107l2 8q12 55 24 93t29 63t31.5 39t40.5 20.5t46 8t58 1.5z" />
    <glyph glyph-name="uni019D" unicode="&#x19d;" horiz-adv-x="736" 
d="M11 -200v38q66 0 83 11t17 46v793h48l415 -599h4v599h47v-688h-47l-416 602h-4v-695q0 -71 -30.5 -89t-116.5 -18z" />
    <glyph glyph-name="Ohorn" unicode="&#x1a0;" horiz-adv-x="723" 
d="M643 758q0 -54 -14 -75.5t-54 -24.5q40 -31 51 -97.5t11 -216.5q0 -52 -0.5 -85.5t-3.5 -69.5t-6.5 -57.5t-11.5 -44.5t-18 -35t-26.5 -24.5t-35 -18t-45.5 -10.5t-57 -6t-71 -1t-71 1t-57.5 6t-46 10.5t-34.5 18t-26 24.5t-18 35t-12 44.5t-6.5 57.5t-3 69.5t-0.5 85.5
t0.5 85.5t3 69.5t6.5 57.5t12 44.5t18 35t26 24.5t34.5 18t46 10.5t57.5 6t71 1q87 0 135 -8h56q33 0 42 12t9 51v34h39v-27zM589 344q0 83 -1.5 129t-12.5 85t-21 54.5t-42 26.5t-60 12t-90 1q-47 0 -70.5 -0.5t-53 -5.5t-41 -11t-27 -23.5t-19.5 -36.5t-9.5 -55.5t-6 -75
t-0.5 -100.5t0.5 -100.5t6 -75t9.5 -55.5t19.5 -36.5t27 -23.5t41 -11t53 -5.5t70.5 -0.5q62 0 90 1t60 12t42 26.5t21 54.5t12.5 85t1.5 129z" />
    <glyph glyph-name="ohorn" unicode="&#x1a1;" horiz-adv-x="579" 
d="M520 580q0 -52 -12 -73.5t-46 -25.5q28 -26 36 -75.5t8 -151.5q0 -45 -1 -73t-4.5 -58t-9 -46.5t-17 -33.5t-26.5 -25t-38.5 -15t-52 -9t-68.5 -2q-53 0 -87 4t-59.5 17t-38.5 28.5t-20.5 49.5t-9 68t-1.5 95t1.5 95t9 68.5t20.5 50t38.5 29t59.5 17.5t87 4q71 0 108 -8
h33q33 0 42 12t9 51v34h39v-27zM289 33q27 0 46.5 0.5t37 4.5t29 6.5t21.5 12.5t16 15.5t10 23t6 27.5t3.5 36t1.5 42.5v52.5q0 150 -24 186.5t-147 36.5q-122 0 -146 -36.5t-24 -186.5q0 -149 24 -185t146 -36z" />
    <glyph glyph-name="Uhorn" unicode="&#x1af;" horiz-adv-x="715" 
d="M677 785h39v-27q0 -61 -17.5 -81t-72.5 -20h-13v-361q0 -67 -2.5 -107.5t-12 -78.5t-25.5 -57.5t-45 -35t-69.5 -20.5t-100.5 -5t-100.5 5t-70 20.5t-45.5 35t-25.5 57.5t-12 78.5t-2.5 107.5v392h48v-423q0 -52 1.5 -82t9 -59.5t20 -43.5t37 -25.5t57.5 -15t83 -3.5
t83 3.5t57 15t36.5 25.5t20 43.5t9 59t1.5 82.5v423h61q33 0 42 12t9 51v34z" />
    <glyph glyph-name="uhorn" unicode="&#x1b0;" horiz-adv-x="602" 
d="M572 607h39v-27q0 -61 -17.5 -81t-72.5 -20h-15v-479h-39l-3 81h-5q-15 -42 -54.5 -65.5t-123.5 -23.5q-60 0 -96.5 10t-55.5 36.5t-25.5 60t-6.5 91.5v320h46v-309q0 -109 27 -138t124 -29q34 0 60.5 6t44 14.5t29.5 25.5t18.5 31.5t9.5 40.5t3.5 43.5t0.5 50.5v264h61
q33 0 42 12t9 51v34z" />
    <glyph glyph-name="uni01C4" unicode="&#x1c4;" horiz-adv-x="1293" 
d="M972 781l-106 133v5h34l99 -105l100 105h34v-5l-106 -133h-55zM111 0v688h208q54 0 90 -2t68 -10t51 -16.5t35 -30t23 -43t12 -61.5t6 -78.5t1 -102.5t-1 -102.5t-6 -78.5t-12 -61.5t-23 -43t-35 -30t-51 -16.5t-68 -10t-90 -2h-208zM750 0v41l422 603h-411v44h472v-41
l-422 -604h429v-43h-490zM159 44h142h67t53 3t43 5.5t31.5 12t25 18.5t16 28.5t11.5 37.5t5.5 51t3.5 63.5v80.5q0 61 -0.5 98t-6.5 73t-10.5 54t-21.5 35t-30 23t-46.5 11t-60 5.5t-80.5 0.5h-142v-600z" />
    <glyph glyph-name="uni01C5" unicode="&#x1c5;" horiz-adv-x="1190" 
d="M917 603l-106 133v5h34l99 -105l100 105h34v-5l-106 -133h-55zM111 0v688h208q54 0 90 -2t68 -10t51 -16.5t35 -30t23 -43t12 -61.5t6 -78.5t1 -102.5t-1 -102.5t-6 -78.5t-12 -61.5t-23 -43t-35 -30t-51 -16.5t-68 -10t-90 -2h-208zM159 44h142h67t53 3t43 5.5t31.5 12
t25 18.5t16 28.5t11.5 37.5t5.5 51t3.5 63.5v80.5q0 61 -0.5 98t-6.5 73t-10.5 54t-21.5 35t-30 23t-46.5 11t-60 5.5t-80.5 0.5h-142v-600zM746 0v36l327 433h-315v41h376v-36l-326 -433h328v-41h-390z" />
    <glyph glyph-name="uni01C6" unicode="&#x1c6;" horiz-adv-x="1093" 
d="M270 -8q-122 0 -159.5 51t-37.5 212q0 160 37.5 211.5t159.5 51.5q73 0 116 -18.5t61 -61.5h5v305h46v-743h-39l-3 81h-5q-19 -53 -65 -71t-116 -18zM819 603l-106 133v5h34l99 -105l100 105h34v-5l-106 -133h-55zM648 0v36l327 433h-315v41h376v-36l-326 -433h328v-41
h-390zM286 34q126 0 150 71q16 48 16 162q0 88 -14 129q-14 43 -51.5 61.5t-105.5 18.5q-45 0 -71.5 -5t-46 -16.5t-28.5 -38.5t-12.5 -63t-3.5 -98t4 -98t12.5 -63t29 -38.5t47.5 -16.5t74 -5z" />
    <glyph glyph-name="uni01C7" unicode="&#x1c7;" horiz-adv-x="867" 
d="M111 0v688h48v-644h343v-44h-391zM574 0v43q31 1 47 1.5t34.5 5t26 7.5t16.5 16.5t11 23.5t5 37t3 48.5v65.5v440h48v-420q0 -55 -0.5 -85.5t-4 -63.5t-7 -48t-15.5 -31.5t-22.5 -21.5t-34.5 -10.5t-45.5 -6t-61.5 -1.5z" />
    <glyph glyph-name="uni01C8" unicode="&#x1c8;" horiz-adv-x="776" 
d="M629 675v68h53v-68h-53zM111 0v688h48v-644h343v-44h-391zM532 -200v38q66 0 83.5 11t17.5 46v615h46v-603q0 -71 -30.5 -89t-116.5 -18z" />
    <glyph glyph-name="uni01C9" unicode="&#x1c9;" horiz-adv-x="479" 
d="M97 0v743h46v-743h-46zM332 675v68h53v-68h-53zM235 -200v38q66 0 83.5 11t17.5 46v615h46v-603q0 -71 -30.5 -89t-116.5 -18z" />
    <glyph glyph-name="uni01CA" unicode="&#x1ca;" horiz-adv-x="1067" 
d="M111 0v688h48l415 -599h4v599h47v-688h-47l-416 602h-4v-602h-47zM774 0v43q31 1 47 1.5t34.5 5t26 7.5t16.5 16.5t11 23.5t5 37t3 48.5v65.5v440h48v-420q0 -55 -0.5 -85.5t-4 -63.5t-7 -48t-15.5 -31.5t-22.5 -21.5t-34.5 -10.5t-45.5 -6t-61.5 -1.5z" />
    <glyph glyph-name="uni01CB" unicode="&#x1cb;" horiz-adv-x="975" 
d="M829 675v68h53v-68h-53zM111 0v688h48l415 -599h4v599h47v-688h-47l-416 602h-4v-602h-47zM732 -200v38q66 0 83.5 11t17.5 46v615h46v-603q0 -71 -30.5 -89t-116.5 -18z" />
    <glyph glyph-name="uni01CC" unicode="&#x1cc;" horiz-adv-x="842" 
d="M695 675v68h53v-68h-53zM97 0v510h38l4 -81h4q9 27 26.5 45t56 31t96.5 13q60 0 96 -10.5t55.5 -36t26 -60t6.5 -91.5v-320h-46v309q0 109 -27 138t-124 29q-35 0 -61.5 -6t-44 -14.5t-29 -26t-18 -31t-9.5 -40.5t-3.5 -44t-0.5 -50v-264h-46zM598 -200v38q66 0 83.5 11
t17.5 46v615h46v-603q0 -71 -30.5 -89t-116.5 -18z" />
    <glyph glyph-name="uni01CD" unicode="&#x1cd;" horiz-adv-x="683" 
d="M314 781l-106 133v5h34l99 -105l100 105h34v-5l-106 -133h-55zM37 0l278 688h53l278 -688h-51l-87 214h-335l-86 -214h-50zM190 258h301l-147 370h-5z" />
    <glyph glyph-name="uni01CE" unicode="&#x1ce;" horiz-adv-x="573" 
d="M262 603l-106 133v5h34l99 -105l100 105h34v-5l-106 -133h-55zM243 -8q-98 0 -139 30t-41 117q0 84 31.5 115t120.5 31q67 0 215 -4v42q0 56 -5.5 84.5t-26.5 45.5t-50 20.5t-90 3.5q-84 0 -160 -12v41q74 12 178 12q125 0 162.5 -37t37.5 -153v-328h-39l-3 80h-5
q-19 -53 -68.5 -70.5t-117.5 -17.5zM249 32q62 0 101.5 11t56.5 46q23 50 23 121v37h-203q-73 0 -96 -19.5t-23 -87.5q0 -66 27.5 -87t113.5 -21z" />
    <glyph glyph-name="uni01CF" unicode="&#x1cf;" horiz-adv-x="271" 
d="M108 781l-106 133v5h34l99 -105l100 105h34v-5l-106 -133h-55zM111 0v688h48v-688h-48z" />
    <glyph glyph-name="uni01D0" unicode="&#x1d0;" horiz-adv-x="239" 
d="M93 603l-106 133v5h34l99 -105l100 105h34v-5l-106 -133h-55zM97 0v510h46v-510h-46z" />
    <glyph glyph-name="uni01D1" unicode="&#x1d1;" horiz-adv-x="723" 
d="M334 781l-106 133v5h34l99 -105l100 105h34v-5l-106 -133h-55zM362 -8q-41 0 -71 1t-57.5 6t-46 10.5t-34.5 18t-26 24.5t-18 35t-12 44.5t-6.5 57.5t-3 69.5t-0.5 85.5t0.5 85.5t3 69.5t6.5 57.5t12 44.5t18 35t26 24.5t34.5 18t46 10.5t57.5 6t71 1t71 -1t57 -6
t45.5 -10.5t35 -18t26.5 -24.5t18 -35t11.5 -44.5t6.5 -57.5t3.5 -69.5t0.5 -85.5t-0.5 -85.5t-3.5 -69.5t-6.5 -57.5t-11.5 -44.5t-18 -35t-26.5 -24.5t-35 -18t-45.5 -10.5t-57 -6t-71 -1zM362 36q62 0 90 1t60 12t42 26.5t21 54.5t12.5 85t1.5 129t-1.5 129t-12.5 85
t-21 54.5t-42 26.5t-60 12t-90 1q-47 0 -70.5 -0.5t-53 -5.5t-41 -11t-27 -23.5t-19.5 -36.5t-9.5 -55.5t-6 -75t-0.5 -100.5t0.5 -100.5t6 -75t9.5 -55.5t19.5 -36.5t27 -23.5t41 -11t53 -5.5t70.5 -0.5z" />
    <glyph glyph-name="uni01D2" unicode="&#x1d2;" horiz-adv-x="579" 
d="M262 603l-106 133v5h34l99 -105l100 105h34v-5l-106 -133h-55zM289 -8q-53 0 -87 4t-59.5 17t-38.5 28.5t-20.5 49.5t-9 68t-1.5 95t1.5 95t9 68.5t20.5 50t38.5 29t59.5 17.5t87 4q40 0 68.5 -2t52 -9t38.5 -15t26.5 -25.5t17 -34t9 -46.5t4.5 -58t1 -74q0 -45 -1 -73
t-4.5 -58t-9 -46.5t-17 -33.5t-26.5 -25t-38.5 -15t-52 -9t-68.5 -2zM289 33q27 0 46.5 0.5t37 4.5t29 6.5t21.5 12.5t16 15.5t10 23t6 27.5t3.5 36t1.5 42.5v52.5q0 150 -24 186.5t-147 36.5q-122 0 -146 -36.5t-24 -186.5q0 -149 24 -185t146 -36z" />
    <glyph glyph-name="uni01D3" unicode="&#x1d3;" horiz-adv-x="715" 
d="M330 781l-106 133v5h34l99 -105l100 105h34v-5l-106 -133h-55zM358 -8q-60 0 -100.5 5t-70 20.5t-45.5 35t-25.5 57.5t-12 78.5t-2.5 107.5v392h48v-423q0 -52 1.5 -82t9 -59.5t20 -43.5t37 -25.5t57.5 -15t83 -3.5t83 3.5t57 15t36.5 25.5t20 43.5t9 59t1.5 82.5v423h48
v-392q0 -67 -2.5 -107.5t-12 -78.5t-25.5 -57.5t-45 -35t-69.5 -20.5t-100.5 -5z" />
    <glyph glyph-name="uni01D4" unicode="&#x1d4;" horiz-adv-x="602" 
d="M274 603l-106 133v5h34l99 -105l100 105h34v-5l-106 -133h-55zM281 -8q-60 0 -96.5 10t-55.5 36.5t-25.5 60t-6.5 91.5v320h46v-309q0 -109 27 -138t124 -29q34 0 60.5 6t44 14.5t29.5 25.5t18.5 31.5t9.5 40.5t3.5 43.5t0.5 50.5v264h46v-510h-39l-3 81h-5
q-15 -42 -54.5 -65.5t-123.5 -23.5z" />
    <glyph glyph-name="uni01D5" unicode="&#x1d5;" horiz-adv-x="715" 
d="M222 1024v38h271v-38h-271zM227 823v65h51v-65h-51zM436 823v65h51v-65h-51zM358 -8q-60 0 -100.5 5t-70 20.5t-45.5 35t-25.5 57.5t-12 78.5t-2.5 107.5v392h48v-423q0 -52 1.5 -82t9 -59.5t20 -43.5t37 -25.5t57.5 -15t83 -3.5t83 3.5t57 15t36.5 25.5t20 43.5t9 59
t1.5 82.5v423h48v-392q0 -67 -2.5 -107.5t-12 -78.5t-25.5 -57.5t-45 -35t-69.5 -20.5t-100.5 -5z" />
    <glyph glyph-name="uni01D6" unicode="&#x1d6;" horiz-adv-x="602" 
d="M165 806v38h271v-38h-271zM171 645v65h51v-65h-51zM380 645v65h51v-65h-51zM281 -8q-60 0 -96.5 10t-55.5 36.5t-25.5 60t-6.5 91.5v320h46v-309q0 -109 27 -138t124 -29q34 0 60.5 6t44 14.5t29.5 25.5t18.5 31.5t9.5 40.5t3.5 43.5t0.5 50.5v264h46v-510h-39l-3 81h-5
q-15 -42 -54.5 -65.5t-123.5 -23.5z" />
    <glyph glyph-name="uni01D7" unicode="&#x1d7;" horiz-adv-x="715" 
d="M319 981v5l105 134h56v-5l-126 -134h-35zM227 823v65h51v-65h-51zM436 823v65h51v-65h-51zM358 -8q-60 0 -100.5 5t-70 20.5t-45.5 35t-25.5 57.5t-12 78.5t-2.5 107.5v392h48v-423q0 -52 1.5 -82t9 -59.5t20 -43.5t37 -25.5t57.5 -15t83 -3.5t83 3.5t57 15t36.5 25.5
t20 43.5t9 59t1.5 82.5v423h48v-392q0 -67 -2.5 -107.5t-12 -78.5t-25.5 -57.5t-45 -35t-69.5 -20.5t-100.5 -5z" />
    <glyph glyph-name="uni01D8" unicode="&#x1d8;" horiz-adv-x="602" 
d="M261 762v5l105 134h56v-5l-126 -134h-35zM171 645v65h51v-65h-51zM380 645v65h51v-65h-51zM281 -8q-60 0 -96.5 10t-55.5 36.5t-25.5 60t-6.5 91.5v320h46v-309q0 -109 27 -138t124 -29q34 0 60.5 6t44 14.5t29.5 25.5t18.5 31.5t9.5 40.5t3.5 43.5t0.5 50.5v264h46v-510
h-39l-3 81h-5q-15 -42 -54.5 -65.5t-123.5 -23.5z" />
    <glyph glyph-name="uni01D9" unicode="&#x1d9;" horiz-adv-x="715" 
d="M330 981l-106 133v5h34l99 -105l100 105h34v-5l-106 -133h-55zM227 823v65h51v-65h-51zM436 823v65h51v-65h-51zM358 -8q-60 0 -100.5 5t-70 20.5t-45.5 35t-25.5 57.5t-12 78.5t-2.5 107.5v392h48v-423q0 -52 1.5 -82t9 -59.5t20 -43.5t37 -25.5t57.5 -15t83 -3.5
t83 3.5t57 15t36.5 25.5t20 43.5t9 59t1.5 82.5v423h48v-392q0 -67 -2.5 -107.5t-12 -78.5t-25.5 -57.5t-45 -35t-69.5 -20.5t-100.5 -5z" />
    <glyph glyph-name="uni01DA" unicode="&#x1da;" horiz-adv-x="602" 
d="M274 763l-106 133v5h34l99 -105l100 105h34v-5l-106 -133h-55zM171 645v65h51v-65h-51zM380 645v65h51v-65h-51zM281 -8q-60 0 -96.5 10t-55.5 36.5t-25.5 60t-6.5 91.5v320h46v-309q0 -109 27 -138t124 -29q34 0 60.5 6t44 14.5t29.5 25.5t18.5 31.5t9.5 40.5t3.5 43.5
t0.5 50.5v264h46v-510h-39l-3 81h-5q-15 -42 -54.5 -65.5t-123.5 -23.5z" />
    <glyph glyph-name="uni01DB" unicode="&#x1db;" horiz-adv-x="715" 
d="M362 981l-127 134v5h56l105 -134v-5h-34zM227 823v65h51v-65h-51zM436 823v65h51v-65h-51zM358 -8q-60 0 -100.5 5t-70 20.5t-45.5 35t-25.5 57.5t-12 78.5t-2.5 107.5v392h48v-423q0 -52 1.5 -82t9 -59.5t20 -43.5t37 -25.5t57.5 -15t83 -3.5t83 3.5t57 15t36.5 25.5
t20 43.5t9 59t1.5 82.5v423h48v-392q0 -67 -2.5 -107.5t-12 -78.5t-25.5 -57.5t-45 -35t-69.5 -20.5t-100.5 -5z" />
    <glyph glyph-name="uni01DC" unicode="&#x1dc;" horiz-adv-x="602" 
d="M317 762l-127 134v5h56l105 -134v-5h-34zM171 645v65h51v-65h-51zM380 645v65h51v-65h-51zM281 -8q-60 0 -96.5 10t-55.5 36.5t-25.5 60t-6.5 91.5v320h46v-309q0 -109 27 -138t124 -29q34 0 60.5 6t44 14.5t29.5 25.5t18.5 31.5t9.5 40.5t3.5 43.5t0.5 50.5v264h46v-510
h-39l-3 81h-5q-15 -42 -54.5 -65.5t-123.5 -23.5z" />
    <glyph glyph-name="Gcaron" unicode="&#x1e6;" horiz-adv-x="681" 
d="M333 781l-106 133v5h34l99 -105l100 105h34v-5l-106 -133h-55zM371 -8q-64 0 -104.5 4.5t-74.5 18.5t-52.5 36.5t-31.5 64t-17 94.5t-4 134q0 80 4.5 133.5t17.5 95t31.5 64t53 36.5t74.5 18.5t103 4.5q117 0 210 -19v-40q-100 15 -177 15q-41 0 -61.5 -0.5t-50.5 -2.5
t-44 -6t-34 -12t-28 -18.5t-19.5 -28t-15.5 -39t-9 -52t-6 -66.5t-1 -83q0 -73 2.5 -117.5t12 -82.5t24 -56.5t43 -32t63.5 -17t91 -3.5q74 0 166 11v265h-185v43h232v-344q-106 -18 -213 -18z" />
    <glyph glyph-name="gcaron" unicode="&#x1e7;" horiz-adv-x="594" 
d="M270 603l-106 133v5h34l99 -105l100 105h34v-5l-106 -133h-55zM278 -206q-115 0 -185 8v40q96 -7 177 -7q62 0 97 9t54.5 37t25 66t5.5 110v16h-5q-17 -43 -60.5 -61.5t-116.5 -18.5q-122 0 -159.5 51t-37.5 211q0 161 37.5 212t160.5 51q69 0 115 -18t65 -71h5l3 81h39
v-439q0 -84 -7 -132t-30.5 -83.5t-66.5 -48.5t-116 -13zM286 34q125 0 150 75q16 45 16 146q0 103 -13 140q-15 44 -52 62.5t-101 18.5q-47 0 -74 -5t-47.5 -16.5t-29 -38.5t-12.5 -63t-4 -98t4 -98t12.5 -63t29 -38.5t47.5 -16.5t74 -5z" />
    <glyph glyph-name="uni01EA" unicode="&#x1ea;" horiz-adv-x="723" 
d="M637 344q0 -62 -1 -100t-5 -78t-10.5 -62t-19.5 -44.5t-29.5 -32.5t-43 -19t-58 -12t-75.5 -4q-21 -21 -38 -53t-17 -57q0 -45 47 -45q8 0 17 1v-37q-10 -1 -26 -1q-81 0 -81 73q0 57 57 119q-50 0 -84 2.5t-64 10.5t-47.5 17.5t-32 31.5t-21.5 44t-11.5 63t-5.5 80
t-1 103q0 52 0.5 85.5t3 69.5t6.5 57.5t12 44.5t18 35t26 24.5t34.5 18t46 10.5t57.5 6t71 1t71 -1t57 -6t45.5 -10.5t35 -18t26.5 -24.5t18 -35t11.5 -44.5t6.5 -57.5t3.5 -69.5t0.5 -85.5zM135 344q0 -62 0.5 -100.5t6 -75t9.5 -55.5t19.5 -36.5t27 -23.5t41 -11t53 -5.5
t70.5 -0.5q62 0 90 1t60 12t42 26.5t21 54.5t12.5 85t1.5 129t-1.5 129t-12.5 85t-21 54.5t-42 26.5t-60 12t-90 1q-47 0 -70.5 -0.5t-53 -5.5t-41 -11t-27 -23.5t-19.5 -36.5t-9.5 -55.5t-6 -75t-0.5 -100.5z" />
    <glyph glyph-name="uni01EB" unicode="&#x1eb;" horiz-adv-x="579" 
d="M506 254q0 -57 -1.5 -89.5t-8 -66t-17.5 -49.5t-32 -30.5t-50.5 -19.5t-73.5 -6q-21 -21 -38 -53.5t-17 -57.5q0 -45 47 -45q8 0 17 1v-37q-10 -1 -26 -1q-81 0 -81 73q0 57 57 119q-51 0 -84 4t-57.5 18t-37 29.5t-20 49.5t-9 67.5t-1.5 93.5q0 61 1.5 95t9 68.5
t20.5 50t38.5 29t59.5 17.5t87 4q40 0 68.5 -2t52 -9t38.5 -15t26.5 -25.5t17 -34t9 -46.5t4.5 -58t1 -74zM119 254q0 -149 24 -185t146 -36q27 0 46.5 0.5t37 4.5t29 6.5t21.5 12.5t16 15.5t10 23t6 27.5t3.5 36t1.5 42.5v52.5q0 150 -24 186.5t-147 36.5
q-122 0 -146 -36.5t-24 -186.5z" />
    <glyph glyph-name="uni01F1" unicode="&#x1f1;" horiz-adv-x="1293" 
d="M111 0v688h208q54 0 90 -2t68 -10t51 -16.5t35 -30t23 -43t12 -61.5t6 -78.5t1 -102.5t-1 -102.5t-6 -78.5t-12 -61.5t-23 -43t-35 -30t-51 -16.5t-68 -10t-90 -2h-208zM750 0v41l422 603h-411v44h472v-41l-422 -604h429v-43h-490zM159 44h142h67t53 3t43 5.5t31.5 12
t25 18.5t16 28.5t11.5 37.5t5.5 51t3.5 63.5v80.5q0 61 -0.5 98t-6.5 73t-10.5 54t-21.5 35t-30 23t-46.5 11t-60 5.5t-80.5 0.5h-142v-600z" />
    <glyph glyph-name="uni01F2" unicode="&#x1f2;" horiz-adv-x="1190" 
d="M111 0v688h208q54 0 90 -2t68 -10t51 -16.5t35 -30t23 -43t12 -61.5t6 -78.5t1 -102.5t-1 -102.5t-6 -78.5t-12 -61.5t-23 -43t-35 -30t-51 -16.5t-68 -10t-90 -2h-208zM159 44h142h67t53 3t43 5.5t31.5 12t25 18.5t16 28.5t11.5 37.5t5.5 51t3.5 63.5v80.5q0 61 -0.5 98
t-6.5 73t-10.5 54t-21.5 35t-30 23t-46.5 11t-60 5.5t-80.5 0.5h-142v-600zM746 0v36l327 433h-315v41h376v-36l-326 -433h328v-41h-390z" />
    <glyph glyph-name="uni01F3" unicode="&#x1f3;" horiz-adv-x="1093" 
d="M270 -8q-122 0 -159.5 51t-37.5 212q0 160 37.5 211.5t159.5 51.5q73 0 116 -18.5t61 -61.5h5v305h46v-743h-39l-3 81h-5q-19 -53 -65 -71t-116 -18zM648 0v36l327 433h-315v41h376v-36l-326 -433h328v-41h-390zM286 34q126 0 150 71q16 48 16 162q0 88 -14 129
q-14 43 -51.5 61.5t-105.5 18.5q-45 0 -71.5 -5t-46 -16.5t-28.5 -38.5t-12.5 -63t-3.5 -98t4 -98t12.5 -63t29 -38.5t47.5 -16.5t74 -5z" />
    <glyph glyph-name="uni01F4" unicode="&#x1f4;" horiz-adv-x="681" 
d="M322 781v5l105 134h56v-5l-126 -134h-35zM371 -8q-64 0 -104.5 4.5t-74.5 18.5t-52.5 36.5t-31.5 64t-17 94.5t-4 134q0 80 4.5 133.5t17.5 95t31.5 64t53 36.5t74.5 18.5t103 4.5q117 0 210 -19v-40q-100 15 -177 15q-41 0 -61.5 -0.5t-50.5 -2.5t-44 -6t-34 -12
t-28 -18.5t-19.5 -28t-15.5 -39t-9 -52t-6 -66.5t-1 -83q0 -73 2.5 -117.5t12 -82.5t24 -56.5t43 -32t63.5 -17t91 -3.5q74 0 166 11v265h-185v43h232v-344q-106 -18 -213 -18z" />
    <glyph glyph-name="uni01F5" unicode="&#x1f5;" horiz-adv-x="594" 
d="M257 602v5l105 134h56v-5l-126 -134h-35zM278 -206q-115 0 -185 8v40q96 -7 177 -7q62 0 97 9t54.5 37t25 66t5.5 110v16h-5q-17 -43 -60.5 -61.5t-116.5 -18.5q-122 0 -159.5 51t-37.5 211q0 161 37.5 212t160.5 51q69 0 115 -18t65 -71h5l3 81h39v-439q0 -84 -7 -132
t-30.5 -83.5t-66.5 -48.5t-116 -13zM286 34q125 0 150 75q16 45 16 146q0 103 -13 140q-15 44 -52 62.5t-101 18.5q-47 0 -74 -5t-47.5 -16.5t-29 -38.5t-12.5 -63t-4 -98t4 -98t12.5 -63t29 -38.5t47.5 -16.5t74 -5z" />
    <glyph glyph-name="Aringacute" unicode="&#x1fa;" horiz-adv-x="683" 
d="M464 1054l-126 -134h-35v5l105 134h56v-5zM378 664l268 -664h-51l-87 214h-335l-86 -214h-50l268 664q-53 4 -66.5 24t-13.5 71q0 31 2.5 46t14 28t35 17.5t64.5 4.5t64.5 -4.5t35 -17.5t14 -28t2.5 -46q0 -51 -13.5 -71t-65.5 -24zM262 759q0 -41 12 -52.5t67 -11.5
q56 0 67.5 11.5t11.5 52.5q0 42 -11.5 54t-67.5 12q-55 0 -67 -12t-12 -54zM190 258h301l-147 370h-5z" />
    <glyph glyph-name="aringacute" unicode="&#x1fb;" horiz-adv-x="573" 
d="M250 845v5l105 134h56v-5l-126 -134h-35zM288 589q-41 0 -64 4.5t-34.5 17.5t-14 28t-2.5 46q0 40 6 58t30.5 28.5t78.5 10.5q55 0 80 -10.5t31 -28.5t6 -58q0 -31 -2.5 -46t-14 -28t-35 -17.5t-65.5 -4.5zM288 621q56 0 68 11.5t12 52.5q0 42 -12 54t-68 12
q-54 0 -66 -12t-12 -54q0 -41 12 -52.5t66 -11.5zM243 -8q-98 0 -139 30t-41 117q0 84 31.5 115t120.5 31q67 0 215 -4v42q0 56 -5.5 84.5t-26.5 45.5t-50 20.5t-90 3.5q-84 0 -160 -12v41q74 12 178 12q125 0 162.5 -37t37.5 -153v-328h-39l-3 80h-5q-19 -53 -68.5 -70.5
t-117.5 -17.5zM249 32q62 0 101.5 11t56.5 46q23 50 23 121v37h-203q-73 0 -96 -19.5t-23 -87.5q0 -66 27.5 -87t113.5 -21z" />
    <glyph glyph-name="AEacute" unicode="&#x1fc;" horiz-adv-x="948" 
d="M430 781v5l105 134h56v-5l-126 -134h-35zM-2 0l350 688h543v-44h-478l83 -274h348v-44h-336l86 -282h297v-44h-335l-64 214h-336l-108 -214h-50zM178 258h301l-109 370h-5z" />
    <glyph glyph-name="aeacute" unicode="&#x1fd;" horiz-adv-x="919" 
d="M419 602v5l105 134h56v-5l-126 -134h-35zM245 -8q-98 0 -140 30t-42 117q0 82 31.5 112.5t120.5 30.5q143 0 215 -1v42q0 56 -5.5 84.5t-26.5 45.5t-50 20.5t-90 3.5q-86 0 -160 -12v41q70 12 178 12q81 0 122.5 -15t58.5 -53q20 37 64.5 52.5t128.5 15.5q47 0 79 -4.5
t54 -19t34.5 -30.5t19 -50t8 -66t1.5 -89v-16h-370q0 -47 2 -75t8.5 -54.5t18 -39.5t32.5 -23.5t49 -14t71 -3.5q94 0 169 13v-41q-65 -13 -177 -13q-94 0 -138 20.5t-63 75.5q-24 -59 -75 -77.5t-128 -18.5zM476 281h325q0 54 -4 87t-12.5 56t-28 34t-44 15t-65.5 4
t-66.5 -2.5t-46 -11t-31 -20.5t-17.5 -36t-8.5 -52t-1.5 -74zM249 32q63 0 102.5 11.5t56.5 49.5q22 47 22 117v33h-203q-73 0 -96 -18.5t-23 -84.5t27.5 -87t113.5 -21z" />
    <glyph glyph-name="Oslashacute" unicode="&#x1fe;" horiz-adv-x="723" 
d="M484 915l-126 -134h-35v5l105 134h56v-5zM580 653q36 -31 46.5 -97t10.5 -212q0 -52 -0.5 -85.5t-3.5 -69.5t-6.5 -57.5t-11.5 -44.5t-18 -35t-26.5 -24.5t-35 -18t-45.5 -10.5t-57 -6t-71 -1q-133 0 -185 22l-44 -69h-46l56 89q-36 32 -46 98t-10 212q0 52 0.5 85.5
t3 69.5t6.5 57.5t12 44.5t18 35t26 24.5t34.5 18t46 10.5t57.5 6t71 1q132 0 185 -22l43 69h47zM135 344q0 -124 6.5 -181.5t28.5 -85.5l352 559q-35 16 -160 16q-47 0 -70.5 -0.5t-53 -5.5t-41 -11t-27 -23.5t-19.5 -36.5t-9.5 -55.5t-6 -75t-0.5 -100.5zM362 36q62 0 90 1
t60 12t42 26.5t21 54.5t12.5 85t1.5 129q0 122 -7 180.5t-28 86.5l-353 -559q36 -16 161 -16z" />
    <glyph glyph-name="oslashacute" unicode="&#x1ff;" horiz-adv-x="579" 
d="M410 736l-126 -134h-35v5l105 134h56v-5zM456 486q32 -24 41 -74t9 -158q0 -45 -1 -73t-4.5 -58t-9 -46.5t-17 -33.5t-26.5 -25t-38.5 -15t-52 -9t-68.5 -2q-91 0 -133 15l-39 -62h-44l49 79q-31 24 -40 73.5t-9 156.5q0 61 1.5 95t9 68.5t20.5 50t38.5 29t59.5 17.5
t87 4q91 0 133 -15l39 62h45zM119 254q0 -92 4.5 -130.5t23.5 -59.5l252 401q-33 12 -110 12q-122 0 -146 -36.5t-24 -186.5zM289 33q27 0 46.5 0.5t37 4.5t29 6.5t21.5 12.5t16 15.5t10 23t6 27.5t3.5 36t1.5 42.5v52.5q0 92 -4.5 131.5t-24.5 60.5l-252 -402
q34 -11 110 -11z" />
    <glyph glyph-name="uni0200" unicode="&#x200;" horiz-adv-x="683" 
d="M304 781h-33l-111 114v5h53l91 -114v-5zM476 781h-33l-111 114v5h53l91 -114v-5zM37 0l278 688h53l278 -688h-51l-87 214h-335l-86 -214h-50zM190 258h301l-147 370h-5z" />
    <glyph glyph-name="uni0201" unicode="&#x201;" horiz-adv-x="573" 
d="M189 602l-125 132v5h53l105 -132v-5h-33zM381 602l-124 132v5h53l104 -132v-5h-33zM243 -8q-98 0 -139 30t-41 117q0 84 31.5 115t120.5 31q67 0 215 -4v42q0 56 -5.5 84.5t-26.5 45.5t-50 20.5t-90 3.5q-84 0 -160 -12v41q74 12 178 12q125 0 162.5 -37t37.5 -153v-328
h-39l-3 80h-5q-19 -53 -68.5 -70.5t-117.5 -17.5zM249 32q62 0 101.5 11t56.5 46q23 50 23 121v37h-203q-73 0 -96 -19.5t-23 -87.5q0 -66 27.5 -87t113.5 -21z" />
    <glyph glyph-name="uni0202" unicode="&#x202;" horiz-adv-x="683" 
d="M342 923q27 0 47.5 -4t34.5 -9.5t23.5 -17t14 -20.5t7 -27t3 -29.5t0.5 -34.5h-36q0 33 -1.5 48t-10.5 32t-28.5 22.5t-53.5 5.5t-54 -6t-28.5 -22t-10.5 -31.5t-2 -48.5h-36q0 39 2.5 58.5t14.5 42t40 32t74 9.5zM37 0l278 688h53l278 -688h-51l-87 214h-335l-86 -214
h-50zM190 258h301l-147 370h-5z" />
    <glyph glyph-name="uni0203" unicode="&#x203;" horiz-adv-x="573" 
d="M290 745q27 0 47.5 -4t34.5 -9.5t23.5 -17t14 -20.5t7 -27t3 -29.5t0.5 -34.5h-36q0 33 -1.5 48t-10.5 32t-28.5 22.5t-53.5 5.5t-54 -6t-28.5 -22t-10.5 -31.5t-2 -48.5h-36q0 39 2.5 58.5t14.5 42t40 32t74 9.5zM243 -8q-98 0 -139 30t-41 117q0 84 31.5 115t120.5 31
q67 0 215 -4v42q0 56 -5.5 84.5t-26.5 45.5t-50 20.5t-90 3.5q-84 0 -160 -12v41q74 12 178 12q125 0 162.5 -37t37.5 -153v-328h-39l-3 80h-5q-19 -53 -68.5 -70.5t-117.5 -17.5zM249 32q62 0 101.5 11t56.5 46q23 50 23 121v37h-203q-73 0 -96 -19.5t-23 -87.5
q0 -66 27.5 -87t113.5 -21z" />
    <glyph glyph-name="uni0204" unicode="&#x204;" horiz-adv-x="599" 
d="M294 781h-33l-111 114v5h53l91 -114v-5zM466 781h-33l-111 114v5h53l91 -114v-5zM111 0v688h431v-44h-383v-274h336v-44h-336v-282h383v-44h-431z" />
    <glyph glyph-name="uni0205" unicode="&#x205;" horiz-adv-x="561" 
d="M217 602h-33l-125 132v5h53l105 -132v-5zM409 602h-33l-124 132v5h53l104 -132v-5zM489 256v-17h-370q0 -46 2 -73.5t8.5 -53.5t18 -39t32.5 -23t49 -13.5t71 -3.5q93 0 169 13v-41q-65 -13 -177 -13q-49 0 -83 4.5t-59.5 17.5t-39.5 30.5t-23 49.5t-11.5 68t-2.5 92
q0 57 1.5 88.5t8.5 66.5t20.5 51.5t38.5 32t61.5 20.5t89.5 5q47 0 79 -4.5t54 -19t34.5 -31t19 -50.5t8 -67t1.5 -90zM290 477q-61 0 -92.5 -6t-50.5 -30t-23.5 -58.5t-4.5 -104.5h324v18q0 62 -6.5 97t-26 54.5t-45.5 24.5t-75 5z" />
    <glyph glyph-name="uni0206" unicode="&#x206;" horiz-adv-x="599" 
d="M332 923q27 0 47.5 -4t34.5 -9.5t23.5 -17t14 -20.5t7 -27t3 -29.5t0.5 -34.5h-36q0 33 -1.5 48t-10.5 32t-28.5 22.5t-53.5 5.5t-54 -6t-28.5 -22t-10.5 -31.5t-2 -48.5h-36q0 39 2.5 58.5t14.5 42t40 32t74 9.5zM111 0v688h431v-44h-383v-274h336v-44h-336v-282h383
v-44h-431z" />
    <glyph glyph-name="uni0207" unicode="&#x207;" horiz-adv-x="561" 
d="M286 711q-34 0 -54 -6t-28.5 -22t-10.5 -31.5t-2 -48.5h-36q0 39 2.5 58.5t14.5 42t40 32t74 9.5q27 0 47.5 -4t34.5 -9.5t23.5 -17t14 -20.5t7 -27t3 -29.5t0.5 -34.5h-36q0 33 -1.5 48t-10.5 32t-28.5 22.5t-53.5 5.5zM489 256v-17h-370q0 -46 2 -73.5t8.5 -53.5
t18 -39t32.5 -23t49 -13.5t71 -3.5q93 0 169 13v-41q-65 -13 -177 -13q-49 0 -83 4.5t-59.5 17.5t-39.5 30.5t-23 49.5t-11.5 68t-2.5 92q0 57 1.5 88.5t8.5 66.5t20.5 51.5t38.5 32t61.5 20.5t89.5 5q47 0 79 -4.5t54 -19t34.5 -31t19 -50.5t8 -67t1.5 -90zM290 477
q-61 0 -92.5 -6t-50.5 -30t-23.5 -58.5t-4.5 -104.5h324v18q0 62 -6.5 97t-26 54.5t-45.5 24.5t-75 5z" />
    <glyph glyph-name="uni0208" unicode="&#x208;" horiz-adv-x="271" 
d="M97 781h-33l-111 114v5h53l91 -114v-5zM269 781h-33l-111 114v5h53l91 -114v-5zM111 0v688h48v-688h-48z" />
    <glyph glyph-name="uni0209" unicode="&#x209;" horiz-adv-x="239" 
d="M19 602l-125 132v5h53l105 -132v-5h-33zM211 602l-124 132v5h53l104 -132v-5h-33zM97 0v510h46v-510h-46z" />
    <glyph glyph-name="uni020A" unicode="&#x20a;" horiz-adv-x="271" 
d="M135 923q27 0 47.5 -4t34.5 -9.5t23.5 -17t14 -20.5t7 -27t3 -29.5t0.5 -34.5h-36q0 33 -1.5 48t-10.5 32t-28.5 22.5t-53.5 5.5t-54 -6t-28.5 -22t-10.5 -31.5t-2 -48.5h-36q0 39 2.5 58.5t14.5 42t40 32t74 9.5zM111 0v688h48v-688h-48z" />
    <glyph glyph-name="uni020B" unicode="&#x20b;" horiz-adv-x="239" 
d="M120 745q27 0 47.5 -4t34.5 -9.5t23.5 -17t14 -20.5t7 -27t3 -29.5t0.5 -34.5h-36q0 33 -1.5 48t-10.5 32t-28.5 22.5t-53.5 5.5t-54 -6t-28.5 -22t-10.5 -31.5t-2 -48.5h-36q0 39 2.5 58.5t14.5 42t40 32t74 9.5zM97 0v510h46v-510h-46z" />
    <glyph glyph-name="uni020C" unicode="&#x20c;" horiz-adv-x="723" 
d="M324 781h-33l-111 114v5h53l91 -114v-5zM496 781h-33l-111 114v5h53l91 -114v-5zM362 -8q-41 0 -71 1t-57.5 6t-46 10.5t-34.5 18t-26 24.5t-18 35t-12 44.5t-6.5 57.5t-3 69.5t-0.5 85.5t0.5 85.5t3 69.5t6.5 57.5t12 44.5t18 35t26 24.5t34.5 18t46 10.5t57.5 6t71 1
t71 -1t57 -6t45.5 -10.5t35 -18t26.5 -24.5t18 -35t11.5 -44.5t6.5 -57.5t3.5 -69.5t0.5 -85.5t-0.5 -85.5t-3.5 -69.5t-6.5 -57.5t-11.5 -44.5t-18 -35t-26.5 -24.5t-35 -18t-45.5 -10.5t-57 -6t-71 -1zM362 36q62 0 90 1t60 12t42 26.5t21 54.5t12.5 85t1.5 129t-1.5 129
t-12.5 85t-21 54.5t-42 26.5t-60 12t-90 1q-47 0 -70.5 -0.5t-53 -5.5t-41 -11t-27 -23.5t-19.5 -36.5t-9.5 -55.5t-6 -75t-0.5 -100.5t0.5 -100.5t6 -75t9.5 -55.5t19.5 -36.5t27 -23.5t41 -11t53 -5.5t70.5 -0.5z" />
    <glyph glyph-name="uni020D" unicode="&#x20d;" horiz-adv-x="579" 
d="M188 602l-125 132v5h53l105 -132v-5h-33zM380 602l-124 132v5h53l104 -132v-5h-33zM289 -8q-53 0 -87 4t-59.5 17t-38.5 28.5t-20.5 49.5t-9 68t-1.5 95t1.5 95t9 68.5t20.5 50t38.5 29t59.5 17.5t87 4q40 0 68.5 -2t52 -9t38.5 -15t26.5 -25.5t17 -34t9 -46.5t4.5 -58
t1 -74q0 -45 -1 -73t-4.5 -58t-9 -46.5t-17 -33.5t-26.5 -25t-38.5 -15t-52 -9t-68.5 -2zM289 33q27 0 46.5 0.5t37 4.5t29 6.5t21.5 12.5t16 15.5t10 23t6 27.5t3.5 36t1.5 42.5v52.5q0 150 -24 186.5t-147 36.5q-122 0 -146 -36.5t-24 -186.5q0 -149 24 -185t146 -36z" />
    <glyph glyph-name="uni020E" unicode="&#x20e;" horiz-adv-x="723" 
d="M362 923q27 0 47.5 -4t34.5 -9.5t23.5 -17t14 -20.5t7 -27t3 -29.5t0.5 -34.5h-36q0 33 -1.5 48t-10.5 32t-28.5 22.5t-53.5 5.5t-54 -6t-28.5 -22t-10.5 -31.5t-2 -48.5h-36q0 39 2.5 58.5t14.5 42t40 32t74 9.5zM362 -8q-41 0 -71 1t-57.5 6t-46 10.5t-34.5 18
t-26 24.5t-18 35t-12 44.5t-6.5 57.5t-3 69.5t-0.5 85.5t0.5 85.5t3 69.5t6.5 57.5t12 44.5t18 35t26 24.5t34.5 18t46 10.5t57.5 6t71 1t71 -1t57 -6t45.5 -10.5t35 -18t26.5 -24.5t18 -35t11.5 -44.5t6.5 -57.5t3.5 -69.5t0.5 -85.5t-0.5 -85.5t-3.5 -69.5t-6.5 -57.5
t-11.5 -44.5t-18 -35t-26.5 -24.5t-35 -18t-45.5 -10.5t-57 -6t-71 -1zM362 36q62 0 90 1t60 12t42 26.5t21 54.5t12.5 85t1.5 129t-1.5 129t-12.5 85t-21 54.5t-42 26.5t-60 12t-90 1q-47 0 -70.5 -0.5t-53 -5.5t-41 -11t-27 -23.5t-19.5 -36.5t-9.5 -55.5t-6 -75
t-0.5 -100.5t0.5 -100.5t6 -75t9.5 -55.5t19.5 -36.5t27 -23.5t41 -11t53 -5.5t70.5 -0.5z" />
    <glyph glyph-name="uni020F" unicode="&#x20f;" horiz-adv-x="579" 
d="M289 745q27 0 47.5 -4t34.5 -9.5t23.5 -17t14 -20.5t7 -27t3 -29.5t0.5 -34.5h-36q0 33 -1.5 48t-10.5 32t-28.5 22.5t-53.5 5.5t-54 -6t-28.5 -22t-10.5 -31.5t-2 -48.5h-36q0 39 2.5 58.5t14.5 42t40 32t74 9.5zM289 -8q-53 0 -87 4t-59.5 17t-38.5 28.5t-20.5 49.5
t-9 68t-1.5 95t1.5 95t9 68.5t20.5 50t38.5 29t59.5 17.5t87 4q40 0 68.5 -2t52 -9t38.5 -15t26.5 -25.5t17 -34t9 -46.5t4.5 -58t1 -74q0 -45 -1 -73t-4.5 -58t-9 -46.5t-17 -33.5t-26.5 -25t-38.5 -15t-52 -9t-68.5 -2zM289 33q27 0 46.5 0.5t37 4.5t29 6.5t21.5 12.5
t16 15.5t10 23t6 27.5t3.5 36t1.5 42.5v52.5q0 150 -24 186.5t-147 36.5q-122 0 -146 -36.5t-24 -186.5q0 -149 24 -185t146 -36z" />
    <glyph glyph-name="uni0210" unicode="&#x210;" horiz-adv-x="684" 
d="M304 781h-33l-111 114v5h53l91 -114v-5zM476 781h-33l-111 114v5h53l91 -114v-5zM608 0h-53l-115 290q-14 -1 -35 -1h-246v-289h-48v688h308q50 0 84.5 -11.5t53 -28.5t28.5 -46t12.5 -52.5t2.5 -60.5q0 -36 -3 -61t-13.5 -53.5t-34.5 -48t-61 -28.5zM398 333q52 0 84 10
t47 33.5t19 47.5t4 65q0 42 -3.5 65t-16.5 46.5t-42.5 33.5t-78.5 10h-252v-311h239z" />
    <glyph glyph-name="uni0211" unicode="&#x211;" horiz-adv-x="347" 
d="M73 602l-125 132v5h53l105 -132v-5h-33zM265 602l-124 132v5h53l104 -132v-5h-33zM97 0v510h38l4 -106h4q16 65 60 89.5t115 24.5v-46q-103 0 -139 -52.5t-36 -166.5v-253h-46z" />
    <glyph glyph-name="uni0212" unicode="&#x212;" horiz-adv-x="684" 
d="M342 889q-34 0 -54 -6t-28.5 -22t-10.5 -31.5t-2 -48.5h-36q0 39 2.5 58.5t14.5 42t40 32t74 9.5q27 0 47.5 -4t34.5 -9.5t23.5 -17t14 -20.5t7 -27t3 -29.5t0.5 -34.5h-36q0 33 -1.5 48t-10.5 32t-28.5 22.5t-53.5 5.5zM608 0h-53l-115 290q-14 -1 -35 -1h-246v-289h-48
v688h308q50 0 84.5 -11.5t53 -28.5t28.5 -46t12.5 -52.5t2.5 -60.5q0 -36 -3 -61t-13.5 -53.5t-34.5 -48t-61 -28.5zM398 333q52 0 84 10t47 33.5t19 47.5t4 65q0 42 -3.5 65t-16.5 46.5t-42.5 33.5t-78.5 10h-252v-311h239z" />
    <glyph glyph-name="uni0213" unicode="&#x213;" horiz-adv-x="347" 
d="M174 745q27 0 47.5 -4t34.5 -9.5t23.5 -17t14 -20.5t7 -27t3 -29.5t0.5 -34.5h-36q0 33 -1.5 48t-10.5 32t-28.5 22.5t-53.5 5.5t-54 -6t-28.5 -22t-10.5 -31.5t-2 -48.5h-36q0 39 2.5 58.5t14.5 42t40 32t74 9.5zM97 0v510h38l4 -106h4q16 65 60 89.5t115 24.5v-46
q-103 0 -139 -52.5t-36 -166.5v-253h-46z" />
    <glyph glyph-name="uni0214" unicode="&#x214;" horiz-adv-x="715" 
d="M320 781h-33l-111 114v5h53l91 -114v-5zM492 781h-33l-111 114v5h53l91 -114v-5zM358 -8q-60 0 -100.5 5t-70 20.5t-45.5 35t-25.5 57.5t-12 78.5t-2.5 107.5v392h48v-423q0 -52 1.5 -82t9 -59.5t20 -43.5t37 -25.5t57.5 -15t83 -3.5t83 3.5t57 15t36.5 25.5t20 43.5
t9 59t1.5 82.5v423h48v-392q0 -67 -2.5 -107.5t-12 -78.5t-25.5 -57.5t-45 -35t-69.5 -20.5t-100.5 -5z" />
    <glyph glyph-name="uni0215" unicode="&#x215;" horiz-adv-x="602" 
d="M200 602l-125 132v5h53l105 -132v-5h-33zM392 602l-124 132v5h53l104 -132v-5h-33zM281 -8q-60 0 -96.5 10t-55.5 36.5t-25.5 60t-6.5 91.5v320h46v-309q0 -109 27 -138t124 -29q34 0 60.5 6t44 14.5t29.5 25.5t18.5 31.5t9.5 40.5t3.5 43.5t0.5 50.5v264h46v-510h-39
l-3 81h-5q-15 -42 -54.5 -65.5t-123.5 -23.5z" />
    <glyph glyph-name="uni0216" unicode="&#x216;" horiz-adv-x="715" 
d="M358 923q27 0 47.5 -4t34.5 -9.5t23.5 -17t14 -20.5t7 -27t3 -29.5t0.5 -34.5h-36q0 33 -1.5 48t-10.5 32t-28.5 22.5t-53.5 5.5t-54 -6t-28.5 -22t-10.5 -31.5t-2 -48.5h-36q0 39 2.5 58.5t14.5 42t40 32t74 9.5zM358 -8q-60 0 -100.5 5t-70 20.5t-45.5 35t-25.5 57.5
t-12 78.5t-2.5 107.5v392h48v-423q0 -52 1.5 -82t9 -59.5t20 -43.5t37 -25.5t57.5 -15t83 -3.5t83 3.5t57 15t36.5 25.5t20 43.5t9 59t1.5 82.5v423h48v-392q0 -67 -2.5 -107.5t-12 -78.5t-25.5 -57.5t-45 -35t-69.5 -20.5t-100.5 -5z" />
    <glyph glyph-name="uni0217" unicode="&#x217;" horiz-adv-x="602" 
d="M301 745q27 0 47.5 -4t34.5 -9.5t23.5 -17t14 -20.5t7 -27t3 -29.5t0.5 -34.5h-36q0 33 -1.5 48t-10.5 32t-28.5 22.5t-53.5 5.5t-54 -6t-28.5 -22t-10.5 -31.5t-2 -48.5h-36q0 39 2.5 58.5t14.5 42t40 32t74 9.5zM281 -8q-60 0 -96.5 10t-55.5 36.5t-25.5 60t-6.5 91.5
v320h46v-309q0 -109 27 -138t124 -29q34 0 60.5 6t44 14.5t29.5 25.5t18.5 31.5t9.5 40.5t3.5 43.5t0.5 50.5v264h46v-510h-39l-3 81h-5q-15 -42 -54.5 -65.5t-123.5 -23.5z" />
    <glyph glyph-name="uni0218" unicode="&#x218;" horiz-adv-x="634" 
d="M332 -8q-125 0 -235 12v44q117 -12 221 -12q105 0 149 23q42 23 42 126q0 33 -0.5 49.5t-5 34.5t-10.5 24.5t-21 14t-33 10.5t-49 6l-180 19q-47 5 -75 17.5t-40 37.5t-15 48t-3 66q0 112 54.5 148t185.5 36q137 0 205 -14v-42q-94 12 -199 12q-119 0 -160 -28
q-23 -15 -30.5 -41t-7.5 -72q0 -71 16.5 -93.5t78.5 -28.5l173 -19q38 -4 57.5 -7t42 -10.5t35 -21.5t19.5 -36q10 -29 10 -105q0 -55 -11.5 -92.5t-28 -58.5t-49 -31.5t-60.5 -13t-76 -2.5zM271 -253v25q27 0 35 8t8 34v17h-29v69h62v-73q0 -48 -15 -64t-61 -16z" />
    <glyph glyph-name="uni0219" unicode="&#x219;" horiz-adv-x="500" 
d="M254 -8q-89 0 -175 11v41q103 -11 185 -11q81 0 104.5 21.5t23.5 80.5q0 33 -3 50.5t-13.5 27t-21.5 12t-37 5.5l-144 15q-65 7 -87.5 33.5t-22.5 93.5q0 49 12 79t40 44.5t58.5 18.5t83.5 4q84 0 152 -13v-40q-77 12 -165 12q-37 0 -57 -2.5t-41 -11.5t-29.5 -29.5
t-8.5 -55.5q0 -55 14 -70t61 -20l142 -14q68 -7 90 -32t22 -107q0 -86 -41 -114.5t-142 -28.5zM194 -236v25q33 0 42.5 11.5t9.5 48.5v17h-24v72h58v-76q0 -59 -16.5 -78.5t-69.5 -19.5z" />
    <glyph glyph-name="uni021A" unicode="&#x21a;" horiz-adv-x="581" 
d="M267 0v644h-229v44h506v-44h-229v-644h-48zM245 -253v25q27 0 35 8t8 34v17h-29v69h62v-73q0 -48 -15 -64t-61 -16z" />
    <glyph glyph-name="uni021B" unicode="&#x21b;" horiz-adv-x="336" 
d="M136 0v469h-107v41h107v148h46v-148h125v-41h-125v-469h-46zM103 -236v25q33 0 42.5 11.5t9.5 48.5v17h-24v72h58v-76q0 -59 -16.5 -78.5t-69.5 -19.5z" />
    <glyph glyph-name="uni022A" unicode="&#x22a;" horiz-adv-x="723" 
d="M226 1024v38h271v-38h-271zM231 823v65h51v-65h-51zM440 823v65h51v-65h-51zM362 -8q-41 0 -71 1t-57.5 6t-46 10.5t-34.5 18t-26 24.5t-18 35t-12 44.5t-6.5 57.5t-3 69.5t-0.5 85.5t0.5 85.5t3 69.5t6.5 57.5t12 44.5t18 35t26 24.5t34.5 18t46 10.5t57.5 6t71 1t71 -1
t57 -6t45.5 -10.5t35 -18t26.5 -24.5t18 -35t11.5 -44.5t6.5 -57.5t3.5 -69.5t0.5 -85.5t-0.5 -85.5t-3.5 -69.5t-6.5 -57.5t-11.5 -44.5t-18 -35t-26.5 -24.5t-35 -18t-45.5 -10.5t-57 -6t-71 -1zM362 36q62 0 90 1t60 12t42 26.5t21 54.5t12.5 85t1.5 129t-1.5 129
t-12.5 85t-21 54.5t-42 26.5t-60 12t-90 1q-47 0 -70.5 -0.5t-53 -5.5t-41 -11t-27 -23.5t-19.5 -36.5t-9.5 -55.5t-6 -75t-0.5 -100.5t0.5 -100.5t6 -75t9.5 -55.5t19.5 -36.5t27 -23.5t41 -11t53 -5.5t70.5 -0.5z" />
    <glyph glyph-name="uni022B" unicode="&#x22b;" horiz-adv-x="579" 
d="M154 806v38h271v-38h-271zM159 645v65h51v-65h-51zM368 645v65h51v-65h-51zM289 -8q-53 0 -87 4t-59.5 17t-38.5 28.5t-20.5 49.5t-9 68t-1.5 95t1.5 95t9 68.5t20.5 50t38.5 29t59.5 17.5t87 4q40 0 68.5 -2t52 -9t38.5 -15t26.5 -25.5t17 -34t9 -46.5t4.5 -58t1 -74
q0 -45 -1 -73t-4.5 -58t-9 -46.5t-17 -33.5t-26.5 -25t-38.5 -15t-52 -9t-68.5 -2zM289 33q27 0 46.5 0.5t37 4.5t29 6.5t21.5 12.5t16 15.5t10 23t6 27.5t3.5 36t1.5 42.5v52.5q0 150 -24 186.5t-147 36.5q-122 0 -146 -36.5t-24 -186.5q0 -149 24 -185t146 -36z" />
    <glyph glyph-name="uni022C" unicode="&#x22c;" horiz-adv-x="723" 
d="M226 1002v38h271v-38h-271zM198 794q0 57 12.5 78.5t52.5 21.5q31 0 110 -27q56 -22 86 -22q21 0 27.5 12.5t6.5 47.5h32q0 -57 -12 -78.5t-52 -21.5q-36 0 -110 28q-64 22 -87 22q-21 0 -27.5 -13t-6.5 -48h-32zM362 -8q-41 0 -71 1t-57.5 6t-46 10.5t-34.5 18t-26 24.5
t-18 35t-12 44.5t-6.5 57.5t-3 69.5t-0.5 85.5t0.5 85.5t3 69.5t6.5 57.5t12 44.5t18 35t26 24.5t34.5 18t46 10.5t57.5 6t71 1t71 -1t57 -6t45.5 -10.5t35 -18t26.5 -24.5t18 -35t11.5 -44.5t6.5 -57.5t3.5 -69.5t0.5 -85.5t-0.5 -85.5t-3.5 -69.5t-6.5 -57.5t-11.5 -44.5
t-18 -35t-26.5 -24.5t-35 -18t-45.5 -10.5t-57 -6t-71 -1zM362 36q62 0 90 1t60 12t42 26.5t21 54.5t12.5 85t1.5 129t-1.5 129t-12.5 85t-21 54.5t-42 26.5t-60 12t-90 1q-47 0 -70.5 -0.5t-53 -5.5t-41 -11t-27 -23.5t-19.5 -36.5t-9.5 -55.5t-6 -75t-0.5 -100.5
t0.5 -100.5t6 -75t9.5 -55.5t19.5 -36.5t27 -23.5t41 -11t53 -5.5t70.5 -0.5z" />
    <glyph glyph-name="uni022D" unicode="&#x22d;" horiz-adv-x="579" 
d="M154 824v38h271v-38h-271zM125 616q0 57 12.5 78.5t52.5 21.5q31 0 110 -27q56 -22 86 -22q22 0 28 12.5t6 47.5h32q0 -57 -12 -78.5t-52 -21.5q-36 0 -110 28q-64 22 -87 22q-21 0 -27.5 -13t-6.5 -48h-32zM289 -8q-53 0 -87 4t-59.5 17t-38.5 28.5t-20.5 49.5t-9 68
t-1.5 95t1.5 95t9 68.5t20.5 50t38.5 29t59.5 17.5t87 4q40 0 68.5 -2t52 -9t38.5 -15t26.5 -25.5t17 -34t9 -46.5t4.5 -58t1 -74q0 -45 -1 -73t-4.5 -58t-9 -46.5t-17 -33.5t-26.5 -25t-38.5 -15t-52 -9t-68.5 -2zM289 33q27 0 46.5 0.5t37 4.5t29 6.5t21.5 12.5t16 15.5
t10 23t6 27.5t3.5 36t1.5 42.5v52.5q0 150 -24 186.5t-147 36.5q-122 0 -146 -36.5t-24 -186.5q0 -149 24 -185t146 -36z" />
    <glyph glyph-name="uni0230" unicode="&#x230;" horiz-adv-x="723" 
d="M226 988v38h271v-38h-271zM336 824v65h51v-65h-51zM362 -8q-41 0 -71 1t-57.5 6t-46 10.5t-34.5 18t-26 24.5t-18 35t-12 44.5t-6.5 57.5t-3 69.5t-0.5 85.5t0.5 85.5t3 69.5t6.5 57.5t12 44.5t18 35t26 24.5t34.5 18t46 10.5t57.5 6t71 1t71 -1t57 -6t45.5 -10.5t35 -18
t26.5 -24.5t18 -35t11.5 -44.5t6.5 -57.5t3.5 -69.5t0.5 -85.5t-0.5 -85.5t-3.5 -69.5t-6.5 -57.5t-11.5 -44.5t-18 -35t-26.5 -24.5t-35 -18t-45.5 -10.5t-57 -6t-71 -1zM362 36q62 0 90 1t60 12t42 26.5t21 54.5t12.5 85t1.5 129t-1.5 129t-12.5 85t-21 54.5t-42 26.5
t-60 12t-90 1q-47 0 -70.5 -0.5t-53 -5.5t-41 -11t-27 -23.5t-19.5 -36.5t-9.5 -55.5t-6 -75t-0.5 -100.5t0.5 -100.5t6 -75t9.5 -55.5t19.5 -36.5t27 -23.5t41 -11t53 -5.5t70.5 -0.5z" />
    <glyph glyph-name="uni0231" unicode="&#x231;" horiz-adv-x="579" 
d="M154 812v38h271v-38h-271zM263 645v65h51v-65h-51zM289 -8q-53 0 -87 4t-59.5 17t-38.5 28.5t-20.5 49.5t-9 68t-1.5 95t1.5 95t9 68.5t20.5 50t38.5 29t59.5 17.5t87 4q40 0 68.5 -2t52 -9t38.5 -15t26.5 -25.5t17 -34t9 -46.5t4.5 -58t1 -74q0 -45 -1 -73t-4.5 -58
t-9 -46.5t-17 -33.5t-26.5 -25t-38.5 -15t-52 -9t-68.5 -2zM289 33q27 0 46.5 0.5t37 4.5t29 6.5t21.5 12.5t16 15.5t10 23t6 27.5t3.5 36t1.5 42.5v52.5q0 150 -24 186.5t-147 36.5q-122 0 -146 -36.5t-24 -186.5q0 -149 24 -185t146 -36z" />
    <glyph glyph-name="uni0232" unicode="&#x232;" horiz-adv-x="601" 
d="M165 824v38h271v-38h-271zM276 0v277l-258 411h54l225 -362h7l226 362h53l-259 -411v-277h-48z" />
    <glyph glyph-name="uni0233" unicode="&#x233;" horiz-adv-x="602" 
d="M165 646v38h271v-38h-271zM283 -206q-97 0 -170 7v41q100 -7 162 -7q43 0 73 5t50.5 17t32.5 27t18.5 41.5t8.5 52.5t2 68v28h-5q-30 -81 -174 -81q-60 0 -96.5 10t-55.5 36t-25.5 60t-6.5 92v319h46v-309q0 -109 27 -138t124 -29q34 0 60.5 6t44 14.5t29.5 26t18.5 31.5
t9.5 40.5t3.5 44t0.5 50.5v263h46v-444q0 -80 -8 -128t-32.5 -82.5t-67.5 -48t-115 -13.5z" />
    <glyph glyph-name="uni0237" unicode="&#x237;" horiz-adv-x="239" 
d="M-4 -200v38q66 0 83.5 11t17.5 46v615h46v-603q0 -71 -30.5 -89t-116.5 -18z" />
    <glyph glyph-name="uni0259" unicode="&#x259;" horiz-adv-x="561" 
d="M269 518q50 0 84 -4.5t59 -17.5t39.5 -30.5t23.5 -49.5t11.5 -68t2.5 -92q0 -43 -1 -68.5t-4 -55.5t-9 -46.5t-17 -35t-27 -27.5t-39 -17t-53.5 -11t-70.5 -3q-47 0 -79 4.5t-54 19.5t-34 31t-18.5 50.5t-8 66.5t-1.5 90v17h369q0 46 -2 73.5t-8.5 53.5t-18 39t-32.5 23
t-49 13.5t-71 3.5q-93 0 -169 -13v41q65 13 177 13zM271 33q61 0 92.5 6t50.5 30t23.5 58.5t4.5 104.5h-324v-18q0 -62 6.5 -97t26 -54.5t45.5 -24.5t75 -5z" />
    <glyph glyph-name="uni0272" unicode="&#x272;" horiz-adv-x="602" 
d="M-4 -200v38q66 0 83.5 11t17.5 46v615h38l4 -81h4q9 27 26.5 45t56 31t96.5 13q60 0 96 -10.5t55.5 -36t26 -60t6.5 -91.5v-320h-46v309q0 109 -27 138t-124 29q-35 0 -61.5 -6t-44 -14.5t-29 -26t-18 -31t-9.5 -40t-3.5 -43.5t-0.5 -50v-358q0 -71 -30.5 -89t-116.5 -18
z" />
    <glyph glyph-name="uni02B9" unicode="&#x2b9;" horiz-adv-x="69" 
d="M0 392l20 296h49l-10 -146l-28 -150h-31z" />
    <glyph glyph-name="uni02BA" unicode="&#x2ba;" horiz-adv-x="196" 
d="M0 392l20 296h49l-10 -146l-28 -150h-31zM128 392l20 296h48l-10 -146l-27 -150h-31z" />
    <glyph glyph-name="uni02BC" unicode="&#x2bc;" horiz-adv-x="86" 
d="M0 570v25q33 0 42.5 12t9.5 50v17h-24v69h58v-73q0 -61 -16.5 -80.5t-69.5 -19.5z" />
    <glyph glyph-name="circumflex" unicode="&#x2c6;" horiz-adv-x="307" 
d="M20 602v6l106 133h55l106 -133v-6h-34l-100 106l-99 -106h-34z" />
    <glyph glyph-name="caron" unicode="&#x2c7;" horiz-adv-x="307" 
d="M126 603l-106 133v5h34l99 -105l100 105h34v-5l-106 -133h-55z" />
    <glyph glyph-name="uni02C9" unicode="&#x2c9;" horiz-adv-x="229" 
d="M-42 646v38h271v-38h-271z" />
    <glyph glyph-name="breve" unicode="&#x2d8;" horiz-adv-x="301" 
d="M150 599q-46 0 -74 9.5t-39.5 32t-14 42t-2.5 58.5h36q0 -33 1.5 -48t10.5 -31.5t28.5 -22.5t53.5 -6t54 6t28.5 22.5t10.5 32t2 47.5h36q0 -31 -1 -47t-8 -37.5t-20 -32t-38.5 -18t-63.5 -7.5z" />
    <glyph glyph-name="dotaccent" unicode="&#x2d9;" horiz-adv-x="91" 
d="M20 645v65h51v-65h-51z" />
    <glyph glyph-name="ring" unicode="&#x2da;" horiz-adv-x="272" 
d="M135 589q-41 0 -64 4.5t-34.5 17.5t-14 28t-2.5 46q0 40 6 58t30.5 28.5t78.5 10.5q55 0 80 -10.5t31 -28.5t6 -58q0 -31 -2.5 -46t-14 -28t-35 -17.5t-65.5 -4.5zM135 621q56 0 68 11.5t12 52.5q0 42 -12 54t-68 12q-54 0 -66 -12t-12 -54q0 -41 12 -52.5t66 -11.5z" />
    <glyph glyph-name="ogonek" unicode="&#x2db;" horiz-adv-x="147" 
d="M101 -196q-81 0 -81 73q0 33 20.5 70t54.5 67l31 -10q-22 -19 -42.5 -54.5t-20.5 -63.5q0 -45 47 -45q8 0 17 1v-37q-10 -1 -26 -1z" />
    <glyph glyph-name="tilde" unicode="&#x2dc;" horiz-adv-x="367" 
d="M20 616q0 57 12.5 78.5t52.5 21.5q32 0 109 -27q58 -22 87 -22q21 0 27.5 12.5t6.5 47.5h32q0 -57 -12 -78.5t-52 -21.5q-36 0 -110 28q-64 22 -87 22q-21 0 -27.5 -13t-6.5 -48h-32z" />
    <glyph glyph-name="hungarumlaut" unicode="&#x2dd;" horiz-adv-x="356" 
d="M20 603v5l90 114h54v-5l-111 -114h-33zM192 603v5l90 114h54v-5l-111 -114h-33z" />
    <glyph glyph-name="gravecomb" unicode="&#x300;" 
d="M-34 602l-127 134v5h56l105 -134v-5h-34z" />
    <glyph glyph-name="acutecomb" unicode="&#x301;" 
d="M-161 602v5l105 134h56v-5l-126 -134h-35z" />
    <glyph glyph-name="uni0302" unicode="&#x302;" 
d="M-267 602v6l106 133h55l106 -133v-6h-34l-100 106l-99 -106h-34z" />
    <glyph glyph-name="tildecomb" unicode="&#x303;" 
d="M-345 616q0 57 12.5 78.5t52.5 21.5q31 0 110 -27q56 -22 86 -22q22 0 28 12.5t6 47.5h32q0 -57 -12 -78.5t-52 -21.5q-36 0 -110 28q-64 22 -87 22q-21 0 -27.5 -13t-6.5 -48h-32z" />
    <glyph glyph-name="uni0304" unicode="&#x304;" 
d="M-271 646v38h271v-38h-271z" />
    <glyph glyph-name="uni0306" unicode="&#x306;" 
d="M-131 599q-46 0 -74 9.5t-39.5 32t-14 42t-2.5 58.5h36q0 -33 1.5 -48t10.5 -31.5t28.5 -22.5t53.5 -6t54 6t28.5 22.5t10.5 32t2 47.5h36q0 -31 -1 -47t-8 -37.5t-20 -32t-38.5 -18t-63.5 -7.5z" />
    <glyph glyph-name="uni0307" unicode="&#x307;" 
d="M-51 645v65h51v-65h-51z" />
    <glyph glyph-name="uni0308" unicode="&#x308;" 
d="M-260 645v65h51v-65h-51zM-51 645v65h51v-65h-51z" />
    <glyph glyph-name="hookabovecomb" unicode="&#x309;" 
d="M-164 589v11q0 23 9 32.5t34 17.5l25 6q39 11 49 19t10 28q0 29 -19.5 35.5t-79.5 6.5q-44 0 -102 -5v30q48 6 112 6q71 0 98.5 -13t27.5 -56q0 -31 -11 -46t-47 -25l-29 -8q-32 -8 -38 -13.5t-6 -25.5h-33z" />
    <glyph glyph-name="uni030A" unicode="&#x30a;" 
d="M-117 589q-41 0 -64 4.5t-34.5 17.5t-14 28t-2.5 46q0 40 6 58t30.5 28.5t78.5 10.5q55 0 80 -10.5t31 -28.5t6 -58q0 -31 -2.5 -46t-14 -28t-35 -17.5t-65.5 -4.5zM-117 621q56 0 68 11.5t12 52.5q0 42 -12 54t-68 12q-54 0 -66 -12t-12 -54q0 -41 12 -52.5t66 -11.5z
" />
    <glyph glyph-name="uni030B" unicode="&#x30b;" 
d="M-350 603v5l90 114h54v-5l-111 -114h-33zM-178 603v5l90 114h54v-5l-111 -114h-33z" />
    <glyph glyph-name="uni030C" unicode="&#x30c;" 
d="M-161 603l-106 133v5h34l99 -105l100 105h34v-5l-106 -133h-55z" />
    <glyph glyph-name="uni030F" unicode="&#x30f;" 
d="M-225 602l-125 132v5h53l105 -132v-5h-33zM-33 602l-124 132v5h53l104 -132v-5h-33z" />
    <glyph glyph-name="uni0311" unicode="&#x311;" 
d="M-130 745q27 0 47.5 -4t34.5 -9.5t23.5 -17t14 -20.5t7 -27t3 -29.5t0.5 -34.5h-36q0 33 -1.5 48t-10.5 32t-28.5 22.5t-53.5 5.5t-54 -6t-28.5 -22t-10.5 -31.5t-2 -48.5h-36q0 39 2.5 58.5t14.5 42t40 32t74 9.5z" />
    <glyph glyph-name="uni0312" unicode="&#x312;" 
d="M-86 603v76q0 59 16.5 78.5t69.5 19.5v-25q-33 0 -42.5 -11.5t-9.5 -48.5v-17h24v-72h-58z" />
    <glyph glyph-name="uni031B" unicode="&#x31b;" 
d="M-151 479v31h61q33 0 42 12t9 51v34h39v-27q0 -61 -17.5 -81t-72.5 -20h-61z" />
    <glyph glyph-name="dotbelowcomb" unicode="&#x323;" 
d="M-51 -188v61h51v-61h-51z" />
    <glyph glyph-name="uni0324" unicode="&#x324;" 
d="M-233 -148v65h51v-65h-51zM-24 -148v65h51v-65h-51z" />
    <glyph glyph-name="uni0326" unicode="&#x326;" 
d="M-86 -236v25q33 0 42.5 11.5t9.5 48.5v17h-24v72h58v-76q0 -59 -16.5 -78.5t-69.5 -19.5z" />
    <glyph glyph-name="uni0327" unicode="&#x327;" 
d="M-93 -190v5l62 203h33v-5l-45 -203h-50z" />
    <glyph glyph-name="uni0328" unicode="&#x328;" 
d="M-26 -196q-81 0 -81 73q0 33 20.5 70t54.5 67l31 -10q-22 -19 -42.5 -54.5t-20.5 -63.5q0 -45 47 -45q8 0 17 1v-37q-10 -1 -26 -1z" />
    <glyph glyph-name="uni032E" unicode="&#x32e;" 
d="M-131 -206q-46 0 -74 9.5t-39.5 32t-14 42t-2.5 58.5h36q0 -33 1.5 -48t10.5 -31.5t28.5 -22.5t53.5 -6t54 6t28.5 22.5t10.5 32t2 47.5h36q0 -31 -1 -47t-8 -37.5t-20 -32t-38.5 -18t-63.5 -7.5z" />
    <glyph glyph-name="uni0331" unicode="&#x331;" 
d="M-227 -158v38h271v-38h-271z" />
    <glyph glyph-name="uni0335" unicode="&#x335;" 
d="M-283 327v44h242v-44h-242z" />
    <glyph glyph-name="uni0336" unicode="&#x336;" 
d="M-625 491v44h514v-44h-514z" />
    <glyph glyph-name="uni0394" unicode="&#x394;" horiz-adv-x="683" 
d="M37 0l278 688h53l278 -688h-609zM103 44h476l-235 585h-5z" />
    <glyph glyph-name="uni03A9" unicode="&#x3a9;" horiz-adv-x="724" 
d="M90 0v44h4q20 -2 59.5 -5.5t59.5 -5.5v6q-34 10 -57.5 30t-37 45t-20.5 65.5t-9 80t-2 100.5q0 76 2 119t11.5 86.5t26.5 64t48.5 38t76 23t110.5 5.5q50 0 86 -3t65.5 -12t49 -20t33.5 -33t22 -43.5t12.5 -59.5t5.5 -73.5t1 -91.5q0 -77 -4 -123.5t-16.5 -90.5
t-38 -69.5t-67.5 -37.5v-6q19 2 58.5 5.5t59.5 5.5h5v-44h-212v38q46 7 75.5 20.5t48.5 34t28 60t12 84.5t3 122q0 72 -2 113.5t-11 78.5t-22 53.5t-41 29t-61.5 15.5t-89.5 3t-89.5 -3t-61.5 -15.5t-41 -29t-22 -53.5t-11 -78.5t-2 -113.5q0 -77 3 -121.5t12 -84.5t28 -60
t48.5 -34t75.5 -21v-38h-212z" />
    <glyph glyph-name="uni03BC" unicode="&#x3bc;" horiz-adv-x="602" 
d="M460 510h46v-510h-39l-3 81h-5q-15 -42 -54.5 -65.5t-123.5 -23.5q-98 0 -138 41v-223h-46v700h46v-309q0 -109 27 -138t124 -29q34 0 60.5 6t44 14.5t29.5 25.5t18.5 31.5t9.5 40.5t3.5 43.5t0.5 50.5v264z" />
    <glyph glyph-name="pi" unicode="&#x3c0;" horiz-adv-x="593" 
d="M97 0v510h399v-510h-46v469h-307v-469h-46z" />
    <glyph glyph-name="uni1E0C" unicode="&#x1e0c;" horiz-adv-x="692" 
d="M111 0v688h208q54 0 90 -2t68 -10t51 -16.5t35 -30t23 -43t12 -61.5t6 -78.5t1 -102.5t-1 -102.5t-6 -78.5t-12 -61.5t-23 -43t-35 -30t-51 -16.5t-68 -10t-90 -2h-208zM159 44h142h67t53 3t43 5.5t31.5 12t25 18.5t16 28.5t11.5 37.5t5.5 51t3.5 63.5v80.5q0 61 -0.5 98
t-6.5 73t-10.5 54t-21.5 35t-30 23t-46.5 11t-60 5.5t-80.5 0.5h-142v-600zM321 -188v61h51v-61h-51z" />
    <glyph glyph-name="uni1E0D" unicode="&#x1e0d;" horiz-adv-x="594" 
d="M270 -8q-122 0 -159.5 51t-37.5 212q0 160 37.5 211.5t159.5 51.5q73 0 116 -18.5t61 -61.5h5v305h46v-743h-39l-3 81h-5q-19 -53 -65 -71t-116 -18zM286 34q126 0 150 71q16 48 16 162q0 88 -14 129q-14 43 -51.5 61.5t-105.5 18.5q-45 0 -71.5 -5t-46 -16.5
t-28.5 -38.5t-12.5 -63t-3.5 -98t4 -98t12.5 -63t29 -38.5t47.5 -16.5t74 -5zM272 -188v61h51v-61h-51z" />
    <glyph glyph-name="uni1E24" unicode="&#x1e24;" horiz-adv-x="736" 
d="M111 0v688h48v-318h418v318h48v-688h-48v326h-418v-326h-48zM343 -188v61h51v-61h-51z" />
    <glyph glyph-name="uni1E25" unicode="&#x1e25;" horiz-adv-x="602" 
d="M97 0v743h46v-306h4q32 81 175 81q60 0 96 -10.5t55.5 -36t26 -60t6.5 -91.5v-320h-46v309q0 109 -27 138t-124 29q-35 0 -61.5 -6t-44 -14.5t-29 -26t-18 -31t-9.5 -40.5t-3.5 -44t-0.5 -50v-264h-46zM276 -188v61h51v-61h-51z" />
    <glyph glyph-name="uni1E44" unicode="&#x1e44;" horiz-adv-x="736" 
d="M352 824v65h51v-65h-51zM111 0v688h48l415 -599h4v599h47v-688h-47l-416 602h-4v-602h-47z" />
    <glyph glyph-name="uni1E45" unicode="&#x1e45;" horiz-adv-x="602" 
d="M275 645v65h51v-65h-51zM97 0v510h38l4 -81h4q9 27 26.5 45t56 31t96.5 13q60 0 96 -10.5t55.5 -36t26 -60t6.5 -91.5v-320h-46v309q0 109 -27 138t-124 29q-35 0 -61.5 -6t-44 -14.5t-29 -26t-18 -31t-9.5 -40.5t-3.5 -44t-0.5 -50v-264h-46z" />
    <glyph glyph-name="uni1E5A" unicode="&#x1e5a;" horiz-adv-x="684" 
d="M608 0h-53l-115 290q-14 -1 -35 -1h-246v-289h-48v688h308q50 0 84.5 -11.5t53 -28.5t28.5 -46t12.5 -52.5t2.5 -60.5q0 -36 -3 -61t-13.5 -53.5t-34.5 -48t-61 -28.5zM398 333q52 0 84 10t47 33.5t19 47.5t4 65q0 42 -3.5 65t-16.5 46.5t-42.5 33.5t-78.5 10h-252v-311
h239zM317 -188v61h51v-61h-51z" />
    <glyph glyph-name="uni1E5B" unicode="&#x1e5b;" horiz-adv-x="347" 
d="M97 0v510h38l4 -106h4q16 65 60 89.5t115 24.5v-46q-103 0 -139 -52.5t-36 -166.5v-253h-46zM95 -188v61h51v-61h-51z" />
    <glyph glyph-name="uni1E62" unicode="&#x1e62;" horiz-adv-x="634" 
d="M332 -8q-125 0 -235 12v44q117 -12 221 -12q105 0 149 23q42 23 42 126q0 33 -0.5 49.5t-5 34.5t-10.5 24.5t-21 14t-33 10.5t-49 6l-180 19q-47 5 -75 17.5t-40 37.5t-15 48t-3 66q0 112 54.5 148t185.5 36q137 0 205 -14v-42q-94 12 -199 12q-119 0 -160 -28
q-23 -15 -30.5 -41t-7.5 -72q0 -71 16.5 -93.5t78.5 -28.5l173 -19q38 -4 57.5 -7t42 -10.5t35 -21.5t19.5 -36q10 -29 10 -105q0 -55 -11.5 -92.5t-28 -58.5t-49 -31.5t-60.5 -13t-76 -2.5zM292 -188v61h51v-61h-51z" />
    <glyph glyph-name="uni1E63" unicode="&#x1e63;" horiz-adv-x="500" 
d="M254 -8q-89 0 -175 11v41q103 -11 185 -11q81 0 104.5 21.5t23.5 80.5q0 33 -3 50.5t-13.5 27t-21.5 12t-37 5.5l-144 15q-65 7 -87.5 33.5t-22.5 93.5q0 49 12 79t40 44.5t58.5 18.5t83.5 4q84 0 152 -13v-40q-77 12 -165 12q-37 0 -57 -2.5t-41 -11.5t-29.5 -29.5
t-8.5 -55.5q0 -55 14 -70t61 -20l142 -14q68 -7 90 -32t22 -107q0 -86 -41 -114.5t-142 -28.5zM224 -188v61h51v-61h-51z" />
    <glyph glyph-name="uni1E6C" unicode="&#x1e6c;" horiz-adv-x="581" 
d="M267 0v644h-229v44h506v-44h-229v-644h-48zM265 -188v61h51v-61h-51z" />
    <glyph glyph-name="uni1E6D" unicode="&#x1e6d;" horiz-adv-x="336" 
d="M136 0v469h-107v41h107v148h46v-148h125v-41h-125v-469h-46zM134 -188v61h51v-61h-51z" />
    <glyph glyph-name="Wgrave" unicode="&#x1e80;" horiz-adv-x="984" 
d="M496 781l-127 134v5h56l105 -134v-5h-34zM245 0l-200 688h51l174 -612h6l192 612h51l192 -612h6l173 612h49l-200 -688h-51l-194 607h-4l-194 -607h-51z" />
    <glyph glyph-name="wgrave" unicode="&#x1e81;" horiz-adv-x="806" 
d="M419 602l-127 134v5h56l105 -134v-5h-34zM211 0l-174 510h49l148 -443h6l140 443h47l141 -443h6l147 443h48l-175 -510h-49l-140 432h-6l-138 -432h-50z" />
    <glyph glyph-name="Wacute" unicode="&#x1e82;" horiz-adv-x="984" 
d="M453 781v5l105 134h56v-5l-126 -134h-35zM245 0l-200 688h51l174 -612h6l192 612h51l192 -612h6l173 612h49l-200 -688h-51l-194 607h-4l-194 -607h-51z" />
    <glyph glyph-name="wacute" unicode="&#x1e83;" horiz-adv-x="806" 
d="M363 602v5l105 134h56v-5l-126 -134h-35zM211 0l-174 510h49l148 -443h6l140 443h47l141 -443h6l147 443h48l-175 -510h-49l-140 432h-6l-138 -432h-50z" />
    <glyph glyph-name="Wdieresis" unicode="&#x1e84;" horiz-adv-x="984" 
d="M362 823v65h51v-65h-51zM571 823v65h51v-65h-51zM245 0l-200 688h51l174 -612h6l192 612h51l192 -612h6l173 612h49l-200 -688h-51l-194 607h-4l-194 -607h-51z" />
    <glyph glyph-name="wdieresis" unicode="&#x1e85;" horiz-adv-x="806" 
d="M273 645v65h51v-65h-51zM482 645v65h51v-65h-51zM211 0l-174 510h49l148 -443h6l140 443h47l141 -443h6l147 443h48l-175 -510h-49l-140 432h-6l-138 -432h-50z" />
    <glyph glyph-name="uni1E92" unicode="&#x1e92;" horiz-adv-x="602" 
d="M58 0v41l422 603h-411v44h472v-41l-422 -604h429v-43h-490zM281 -188v61h51v-61h-51z" />
    <glyph glyph-name="uni1E93" unicode="&#x1e93;" horiz-adv-x="499" 
d="M54 0v36l327 433h-315v41h376v-36l-326 -433h328v-41h-390zM228 -188v61h51v-61h-51z" />
    <glyph glyph-name="uni1E9E" unicode="&#x1e9e;" horiz-adv-x="716" 
d="M446 366q96 0 142 -44t46 -142q0 -97 -52 -142.5t-171 -45.5q-89 0 -162 15v41q94 -12 166 -12q96 0 133.5 32t36.5 113q1 78 -31 112t-106 34h-116v31l197 265q-95 29 -196 29q-45 0 -72 -3t-49.5 -16.5t-33 -31.5t-18 -56.5t-9 -82t-1.5 -118.5v-344h-48v382
q0 103 8 161t34 94t66 47.5t112 11.5q142 0 257 -44v-37l-186 -249h53z" />
    <glyph glyph-name="uni1EA0" unicode="&#x1ea0;" horiz-adv-x="683" 
d="M37 0l278 688h53l278 -688h-51l-87 214h-335l-86 -214h-50zM190 258h301l-147 370h-5zM316 -188v61h51v-61h-51z" />
    <glyph glyph-name="uni1EA1" unicode="&#x1ea1;" horiz-adv-x="573" 
d="M243 -8q-98 0 -139 30t-41 117q0 84 31.5 115t120.5 31q67 0 215 -4v42q0 56 -5.5 84.5t-26.5 45.5t-50 20.5t-90 3.5q-84 0 -160 -12v41q74 12 178 12q125 0 162.5 -37t37.5 -153v-328h-39l-3 80h-5q-19 -53 -68.5 -70.5t-117.5 -17.5zM249 32q62 0 101.5 11t56.5 46
q23 50 23 121v37h-203q-73 0 -96 -19.5t-23 -87.5q0 -66 27.5 -87t113.5 -21zM261 -188v61h51v-61h-51z" />
    <glyph glyph-name="uni1EA2" unicode="&#x1ea2;" horiz-adv-x="683" 
d="M304 767v11q0 23 9 32.5t34 17.5l25 6q39 11 49 19t10 28q0 29 -19.5 35.5t-79.5 6.5q-44 0 -102 -5v30q48 6 112 6q71 0 98.5 -13t27.5 -56q0 -31 -11 -46t-47 -25l-29 -8q-32 -8 -38 -13.5t-6 -25.5h-33zM37 0l278 688h53l278 -688h-51l-87 214h-335l-86 -214h-50z
M190 258h301l-147 370h-5z" />
    <glyph glyph-name="uni1EA3" unicode="&#x1ea3;" horiz-adv-x="573" 
d="M252 589v11q0 23 9 32.5t34 17.5l25 6q39 11 49 19t10 28q0 29 -19.5 35.5t-79.5 6.5q-44 0 -102 -5v30q48 6 112 6q71 0 98.5 -13t27.5 -56q0 -31 -11 -46t-47 -25l-29 -8q-32 -8 -38 -13.5t-6 -25.5h-33zM243 -8q-98 0 -139 30t-41 117q0 84 31.5 115t120.5 31
q67 0 215 -4v42q0 56 -5.5 84.5t-26.5 45.5t-50 20.5t-90 3.5q-84 0 -160 -12v41q74 12 178 12q125 0 162.5 -37t37.5 -153v-328h-39l-3 80h-5q-19 -53 -68.5 -70.5t-117.5 -17.5zM249 32q62 0 101.5 11t56.5 46q23 50 23 121v37h-203q-73 0 -96 -19.5t-23 -87.5
q0 -66 27.5 -87t113.5 -21z" />
    <glyph glyph-name="uni1EA4" unicode="&#x1ea4;" horiz-adv-x="683" 
d="M302 959v5l106 134h56v-5l-127 -134h-35zM208 781v6l106 133h55l106 -133v-6h-34l-100 106l-99 -106h-34zM37 0l278 688h53l278 -688h-51l-87 214h-335l-86 -214h-50zM190 258h301l-147 370h-5z" />
    <glyph glyph-name="uni1EA5" unicode="&#x1ea5;" horiz-adv-x="573" 
d="M249 780v5l106 134h56v-5l-127 -134h-35zM156 602v6l106 133h55l106 -133v-6h-34l-100 106l-99 -106h-34zM243 -8q-98 0 -139 30t-41 117q0 84 31.5 115t120.5 31q67 0 215 -4v42q0 56 -5.5 84.5t-26.5 45.5t-50 20.5t-90 3.5q-84 0 -160 -12v41q74 12 178 12
q125 0 162.5 -37t37.5 -153v-328h-39l-3 80h-5q-19 -53 -68.5 -70.5t-117.5 -17.5zM249 32q62 0 101.5 11t56.5 46q23 50 23 121v37h-203q-73 0 -96 -19.5t-23 -87.5q0 -66 27.5 -87t113.5 -21z" />
    <glyph glyph-name="uni1EA6" unicode="&#x1ea6;" horiz-adv-x="683" 
d="M345 959l-127 134v5h56l106 -134v-5h-35zM208 781v6l106 133h55l106 -133v-6h-34l-100 106l-99 -106h-34zM37 0l278 688h53l278 -688h-51l-87 214h-335l-86 -214h-50zM190 258h301l-147 370h-5z" />
    <glyph glyph-name="uni1EA7" unicode="&#x1ea7;" horiz-adv-x="573" 
d="M305 780l-127 134v5h56l106 -134v-5h-35zM156 602v6l106 133h55l106 -133v-6h-34l-100 106l-99 -106h-34zM243 -8q-98 0 -139 30t-41 117q0 84 31.5 115t120.5 31q67 0 215 -4v42q0 56 -5.5 84.5t-26.5 45.5t-50 20.5t-90 3.5q-84 0 -160 -12v41q74 12 178 12
q125 0 162.5 -37t37.5 -153v-328h-39l-3 80h-5q-19 -53 -68.5 -70.5t-117.5 -17.5zM249 32q62 0 101.5 11t56.5 46q23 50 23 121v37h-203q-73 0 -96 -19.5t-23 -87.5q0 -66 27.5 -87t113.5 -21z" />
    <glyph glyph-name="uni1EA8" unicode="&#x1ea8;" horiz-adv-x="683" 
d="M304 945v11q0 23 9 32.5t34 17.5l25 6q39 11 48.5 19t9.5 28q0 29 -19 35.5t-79 6.5q-44 0 -102 -5v30q48 6 111 6q72 0 99.5 -13t27.5 -56q0 -31 -11 -46t-47 -25l-29 -8q-32 -8 -38 -13.5t-6 -25.5h-33zM208 781v6l106 133h55l106 -133v-6h-34l-100 106l-99 -106h-34z
M37 0l278 688h53l278 -688h-51l-87 214h-335l-86 -214h-50zM190 258h301l-147 370h-5z" />
    <glyph glyph-name="uni1EA9" unicode="&#x1ea9;" horiz-adv-x="573" 
d="M252 767v11q0 23 9 32.5t34 17.5l25 6q39 11 48.5 19t9.5 28q0 29 -19 35.5t-79 6.5q-44 0 -102 -5v30q48 6 111 6q72 0 99.5 -13t27.5 -56q0 -31 -11 -46t-47 -25l-29 -8q-32 -8 -38 -13.5t-6 -25.5h-33zM156 602v6l106 133h55l106 -133v-6h-34l-100 106l-99 -106h-34z
M243 -8q-98 0 -139 30t-41 117q0 84 31.5 115t120.5 31q67 0 215 -4v42q0 56 -5.5 84.5t-26.5 45.5t-50 20.5t-90 3.5q-84 0 -160 -12v41q74 12 178 12q125 0 162.5 -37t37.5 -153v-328h-39l-3 80h-5q-19 -53 -68.5 -70.5t-117.5 -17.5zM249 32q62 0 101.5 11t56.5 46
q23 50 23 121v37h-203q-73 0 -96 -19.5t-23 -87.5q0 -66 27.5 -87t113.5 -21z" />
    <glyph glyph-name="uni1EAA" unicode="&#x1eaa;" horiz-adv-x="683" 
d="M177 972q0 57 12.5 78.5t52.5 21.5q31 0 110 -27q58 -22 87 -22q21 0 27.5 12.5t6.5 47.5h32q0 -57 -12.5 -78.5t-52.5 -21.5q-34 0 -110 28q-62 22 -87 22q-21 0 -27.5 -13t-6.5 -48h-32zM208 781v6l106 133h55l106 -133v-6h-34l-100 106l-99 -106h-34zM37 0l278 688h53
l278 -688h-51l-87 214h-335l-86 -214h-50zM190 258h301l-147 370h-5z" />
    <glyph glyph-name="uni1EAB" unicode="&#x1eab;" horiz-adv-x="573" 
d="M126 794q0 57 12.5 78.5t52.5 21.5q31 0 110 -27q56 -22 86 -22q21 0 27.5 12.5t6.5 47.5h32q0 -57 -12 -78.5t-52 -21.5q-36 0 -110 28q-64 22 -87 22q-21 0 -27.5 -13t-6.5 -48h-32zM157 602v6l105 133h56l106 -133v-6h-34l-100 106l-99 -106h-34zM243 -8
q-98 0 -139 30t-41 117q0 84 31.5 115t120.5 31q67 0 215 -4v42q0 56 -5.5 84.5t-26.5 45.5t-50 20.5t-90 3.5q-84 0 -160 -12v41q74 12 178 12q125 0 162.5 -37t37.5 -153v-328h-39l-3 80h-5q-19 -53 -68.5 -70.5t-117.5 -17.5zM249 32q62 0 101.5 11t56.5 46q23 50 23 121
v37h-203q-73 0 -96 -19.5t-23 -87.5q0 -66 27.5 -87t113.5 -21z" />
    <glyph glyph-name="uni1EAC" unicode="&#x1eac;" horiz-adv-x="683" 
d="M208 781v6l106 133h55l106 -133v-6h-34l-100 106l-99 -106h-34zM37 0l278 688h53l278 -688h-51l-87 214h-335l-86 -214h-50zM190 258h301l-147 370h-5zM316 -188v61h51v-61h-51z" />
    <glyph glyph-name="uni1EAD" unicode="&#x1ead;" horiz-adv-x="573" 
d="M156 602v6l106 133h55l106 -133v-6h-34l-100 106l-99 -106h-34zM243 -8q-98 0 -139 30t-41 117q0 84 31.5 115t120.5 31q67 0 215 -4v42q0 56 -5.5 84.5t-26.5 45.5t-50 20.5t-90 3.5q-84 0 -160 -12v41q74 12 178 12q125 0 162.5 -37t37.5 -153v-328h-39l-3 80h-5
q-19 -53 -68.5 -70.5t-117.5 -17.5zM249 32q62 0 101.5 11t56.5 46q23 50 23 121v37h-203q-73 0 -96 -19.5t-23 -87.5q0 -66 27.5 -87t113.5 -21zM261 -188v61h51v-61h-51z" />
    <glyph glyph-name="uni1EAE" unicode="&#x1eae;" horiz-adv-x="683" 
d="M303 956v5l105 133h56v-5l-126 -133h-35zM341 777q-46 0 -74 9.5t-39.5 32t-14 42t-2.5 58.5h36q0 -33 1.5 -48t10.5 -31.5t28.5 -22.5t53.5 -6t54 6t28.5 22.5t10.5 32t2 47.5h36q0 -31 -1 -47t-8 -37.5t-20 -32t-38.5 -18t-63.5 -7.5zM37 0l278 688h53l278 -688h-51
l-87 214h-335l-86 -214h-50zM190 258h301l-147 370h-5z" />
    <glyph glyph-name="uni1EAF" unicode="&#x1eaf;" horiz-adv-x="573" 
d="M250 777v5l106 133h56v-5l-127 -133h-35zM289 599q-46 0 -74 9.5t-39.5 32t-14 42t-2.5 58.5h36q0 -33 1.5 -48t10.5 -31.5t28.5 -22.5t53.5 -6t54 6t28.5 22.5t10.5 32t2 47.5h36q0 -31 -1 -47t-8 -37.5t-20 -32t-38.5 -18t-63.5 -7.5zM243 -8q-98 0 -139 30t-41 117
q0 84 31.5 115t120.5 31q67 0 215 -4v42q0 56 -5.5 84.5t-26.5 45.5t-50 20.5t-90 3.5q-84 0 -160 -12v41q74 12 178 12q125 0 162.5 -37t37.5 -153v-328h-39l-3 80h-5q-19 -53 -68.5 -70.5t-117.5 -17.5zM249 32q62 0 101.5 11t56.5 46q23 50 23 121v37h-203
q-73 0 -96 -19.5t-23 -87.5q0 -66 27.5 -87t113.5 -21z" />
    <glyph glyph-name="uni1EB0" unicode="&#x1eb0;" horiz-adv-x="683" 
d="M358 955l-127 133v5h56l106 -133v-5h-35zM341 777q-46 0 -74 9.5t-39.5 32t-14 42t-2.5 58.5h36q0 -33 1.5 -48t10.5 -31.5t28.5 -22.5t53.5 -6t54 6t28.5 22.5t10.5 32t2 47.5h36q0 -31 -1 -47t-8 -37.5t-20 -32t-38.5 -18t-63.5 -7.5zM37 0l278 688h53l278 -688h-51
l-87 214h-335l-86 -214h-50zM190 258h301l-147 370h-5z" />
    <glyph glyph-name="uni1EB1" unicode="&#x1eb1;" horiz-adv-x="573" 
d="M305 777l-126 133v5h56l105 -133v-5h-35zM289 599q-47 0 -74.5 9.5t-39 32.5t-14 42t-2.5 58h36q0 -33 1.5 -48t10.5 -31.5t28.5 -22.5t53.5 -6t54 6t28.5 22.5t10.5 32t2 47.5h36q0 -38 -3 -58t-14.5 -42.5t-39.5 -32t-74 -9.5zM243 -8q-98 0 -139 30t-41 117
q0 84 31.5 115t120.5 31q67 0 215 -4v42q0 56 -5.5 84.5t-26.5 45.5t-50 20.5t-90 3.5q-84 0 -160 -12v41q74 12 178 12q125 0 162.5 -37t37.5 -153v-328h-39l-3 80h-5q-19 -53 -68.5 -70.5t-117.5 -17.5zM249 32q62 0 101.5 11t56.5 46q23 50 23 121v37h-203
q-73 0 -96 -19.5t-23 -87.5q0 -66 27.5 -87t113.5 -21z" />
    <glyph glyph-name="uni1EB2" unicode="&#x1eb2;" horiz-adv-x="683" 
d="M305 942v10q0 23 9 33t33 17l25 7q39 11 49 18.5t10 27.5q0 32 -28 39q-16 3 -70 3q-44 0 -102 -5v30q48 6 111 6q72 0 99 -12.5t27 -55.5q0 -32 -10.5 -46.5t-47.5 -24.5l-28 -8q-32 -9 -38 -14.5t-6 -24.5h-33zM341 777q-46 0 -74 9.5t-39.5 32t-14 42t-2.5 58.5h36
q0 -33 1.5 -48t10.5 -31.5t28.5 -22.5t53.5 -6t54 6t28.5 22.5t10.5 32t2 47.5h36q0 -31 -1 -47t-8 -37.5t-20 -32t-38.5 -18t-63.5 -7.5zM37 0l278 688h53l278 -688h-51l-87 214h-335l-86 -214h-50zM190 258h301l-147 370h-5z" />
    <glyph glyph-name="uni1EB3" unicode="&#x1eb3;" horiz-adv-x="573" 
d="M253 764v10q0 23 9 33t33 17l25 7q39 11 49 18.5t10 27.5q0 32 -28 39q-16 3 -70 3q-44 0 -102 -5v30q48 6 111 6q72 0 99 -12.5t27 -55.5q0 -32 -10.5 -46.5t-47.5 -24.5l-28 -8q-32 -9 -38 -14.5t-6 -24.5h-33zM289 599q-46 0 -74 9.5t-39.5 32t-14 42t-2.5 58.5h36
q0 -33 1.5 -48t10.5 -31.5t28.5 -22.5t53.5 -6t54 6t28.5 22.5t10.5 32t2 47.5h36q0 -31 -1 -47t-8 -37.5t-20 -32t-38.5 -18t-63.5 -7.5zM243 -8q-98 0 -139 30t-41 117q0 84 31.5 115t120.5 31q67 0 215 -4v42q0 56 -5.5 84.5t-26.5 45.5t-50 20.5t-90 3.5q-84 0 -160 -12
v41q74 12 178 12q125 0 162.5 -37t37.5 -153v-328h-39l-3 80h-5q-19 -53 -68.5 -70.5t-117.5 -17.5zM249 32q62 0 101.5 11t56.5 46q23 50 23 121v37h-203q-73 0 -96 -19.5t-23 -87.5q0 -66 27.5 -87t113.5 -21z" />
    <glyph glyph-name="uni1EB4" unicode="&#x1eb4;" horiz-adv-x="683" 
d="M178 969q0 57 12.5 78t52.5 21q38 0 109 -27q64 -22 87 -22q21 0 27.5 12.5t6.5 47.5h32q0 -57 -12.5 -78t-52.5 -21q-38 0 -109 27q-64 22 -87 22q-22 0 -28 -12.5t-6 -47.5h-32zM341 777q-46 0 -74 9.5t-39.5 32t-14 42t-2.5 58.5h36q0 -33 1.5 -48t10.5 -31.5
t28.5 -22.5t53.5 -6t54 6t28.5 22.5t10.5 32t2 47.5h36q0 -31 -1 -47t-8 -37.5t-20 -32t-38.5 -18t-63.5 -7.5zM37 0l278 688h53l278 -688h-51l-87 214h-335l-86 -214h-50zM190 258h301l-147 370h-5z" />
    <glyph glyph-name="uni1EB5" unicode="&#x1eb5;" horiz-adv-x="573" 
d="M126 791q0 57 12.5 78t52.5 21q37 0 110 -27q62 -22 86 -22q21 0 27.5 12.5t6.5 47.5h32q0 -57 -12 -78t-52 -21q-39 0 -110 27q-64 22 -87 22q-22 0 -28 -12.5t-6 -47.5h-32zM289 599q-46 0 -74 9.5t-39.5 32t-14 42t-2.5 58.5h36q0 -33 1.5 -48t10.5 -31.5t28.5 -22.5
t53.5 -6t54 6t28.5 22.5t10.5 32t2 47.5h36q0 -31 -1 -47t-8 -37.5t-20 -32t-38.5 -18t-63.5 -7.5zM243 -8q-98 0 -139 30t-41 117q0 84 31.5 115t120.5 31q67 0 215 -4v42q0 56 -5.5 84.5t-26.5 45.5t-50 20.5t-90 3.5q-84 0 -160 -12v41q74 12 178 12q125 0 162.5 -37
t37.5 -153v-328h-39l-3 80h-5q-19 -53 -68.5 -70.5t-117.5 -17.5zM249 32q62 0 101.5 11t56.5 46q23 50 23 121v37h-203q-73 0 -96 -19.5t-23 -87.5q0 -66 27.5 -87t113.5 -21z" />
    <glyph glyph-name="uni1EB6" unicode="&#x1eb6;" horiz-adv-x="683" 
d="M341 777q-46 0 -74 9.5t-39.5 32t-14 42t-2.5 58.5h36q0 -33 1.5 -48t10.5 -31.5t28.5 -22.5t53.5 -6t54 6t28.5 22.5t10.5 32t2 47.5h36q0 -31 -1 -47t-8 -37.5t-20 -32t-38.5 -18t-63.5 -7.5zM37 0l278 688h53l278 -688h-51l-87 214h-335l-86 -214h-50zM190 258h301
l-147 370h-5zM316 -188v61h51v-61h-51z" />
    <glyph glyph-name="uni1EB7" unicode="&#x1eb7;" horiz-adv-x="573" 
d="M289 599q-46 0 -74 9.5t-39.5 32t-14 42t-2.5 58.5h36q0 -33 1.5 -48t10.5 -31.5t28.5 -22.5t53.5 -6t54 6t28.5 22.5t10.5 32t2 47.5h36q0 -31 -1 -47t-8 -37.5t-20 -32t-38.5 -18t-63.5 -7.5zM243 -8q-98 0 -139 30t-41 117q0 84 31.5 115t120.5 31q67 0 215 -4v42
q0 56 -5.5 84.5t-26.5 45.5t-50 20.5t-90 3.5q-84 0 -160 -12v41q74 12 178 12q125 0 162.5 -37t37.5 -153v-328h-39l-3 80h-5q-19 -53 -68.5 -70.5t-117.5 -17.5zM249 32q62 0 101.5 11t56.5 46q23 50 23 121v37h-203q-73 0 -96 -19.5t-23 -87.5q0 -66 27.5 -87t113.5 -21z
M261 -188v61h51v-61h-51z" />
    <glyph glyph-name="uni1EB8" unicode="&#x1eb8;" horiz-adv-x="599" 
d="M111 0v688h431v-44h-383v-274h336v-44h-336v-282h383v-44h-431zM307 -188v61h51v-61h-51z" />
    <glyph glyph-name="uni1EB9" unicode="&#x1eb9;" horiz-adv-x="561" 
d="M489 256v-17h-370q0 -46 2 -73.5t8.5 -53.5t18 -39t32.5 -23t49 -13.5t71 -3.5q93 0 169 13v-41q-65 -13 -177 -13q-49 0 -83 4.5t-59.5 17.5t-39.5 30.5t-23 49.5t-11.5 68t-2.5 92q0 57 1.5 88.5t8.5 66.5t20.5 51.5t38.5 32t61.5 20.5t89.5 5q47 0 79 -4.5t54 -19
t34.5 -31t19 -50.5t8 -67t1.5 -90zM290 477q-61 0 -92.5 -6t-50.5 -30t-23.5 -58.5t-4.5 -104.5h324v18q0 62 -6.5 97t-26 54.5t-45.5 24.5t-75 5zM255 -188v61h51v-61h-51z" />
    <glyph glyph-name="uni1EBA" unicode="&#x1eba;" horiz-adv-x="599" 
d="M294 767v11q0 23 9 32.5t34 17.5l25 6q39 11 49 19t10 28q0 29 -19.5 35.5t-79.5 6.5q-44 0 -102 -5v30q48 6 112 6q71 0 98.5 -13t27.5 -56q0 -31 -11 -46t-47 -25l-29 -8q-32 -8 -38 -13.5t-6 -25.5h-33zM111 0v688h431v-44h-383v-274h336v-44h-336v-282h383v-44h-431z
" />
    <glyph glyph-name="uni1EBB" unicode="&#x1ebb;" horiz-adv-x="561" 
d="M375 703q0 29 -19.5 35.5t-79.5 6.5q-44 0 -102 -5v30q48 6 112 6q71 0 98.5 -13t27.5 -56q0 -31 -11 -46t-47 -25l-29 -8q-32 -8 -38 -13.5t-6 -25.5h-33v11q0 23 9 32.5t34 17.5l25 6q39 11 49 19t10 28zM489 256v-17h-370q0 -46 2 -73.5t8.5 -53.5t18 -39t32.5 -23
t49 -13.5t71 -3.5q93 0 169 13v-41q-65 -13 -177 -13q-49 0 -83 4.5t-59.5 17.5t-39.5 30.5t-23 49.5t-11.5 68t-2.5 92q0 57 1.5 88.5t8.5 66.5t20.5 51.5t38.5 32t61.5 20.5t89.5 5q47 0 79 -4.5t54 -19t34.5 -31t19 -50.5t8 -67t1.5 -90zM290 477q-61 0 -92.5 -6
t-50.5 -30t-23.5 -58.5t-4.5 -104.5h324v18q0 62 -6.5 97t-26 54.5t-45.5 24.5t-75 5z" />
    <glyph glyph-name="uni1EBC" unicode="&#x1ebc;" horiz-adv-x="599" 
d="M168 794q0 57 12.5 78.5t52.5 21.5q31 0 110 -27q56 -22 86 -22q21 0 27.5 12.5t6.5 47.5h32q0 -57 -12 -78.5t-52 -21.5q-36 0 -110 28q-64 22 -87 22q-21 0 -27.5 -13t-6.5 -48h-32zM111 0v688h431v-44h-383v-274h336v-44h-336v-282h383v-44h-431z" />
    <glyph glyph-name="uni1EBD" unicode="&#x1ebd;" horiz-adv-x="561" 
d="M187 677q-21 0 -27.5 -13t-6.5 -48h-32q0 57 12.5 78.5t52.5 21.5q31 0 110 -27q56 -22 86 -22q22 0 28 12.5t6 47.5h32q0 -57 -12 -78.5t-52 -21.5q-36 0 -110 28q-64 22 -87 22zM489 256v-17h-370q0 -46 2 -73.5t8.5 -53.5t18 -39t32.5 -23t49 -13.5t71 -3.5
q93 0 169 13v-41q-65 -13 -177 -13q-49 0 -83 4.5t-59.5 17.5t-39.5 30.5t-23 49.5t-11.5 68t-2.5 92q0 57 1.5 88.5t8.5 66.5t20.5 51.5t38.5 32t61.5 20.5t89.5 5q47 0 79 -4.5t54 -19t34.5 -31t19 -50.5t8 -67t1.5 -90zM290 477q-61 0 -92.5 -6t-50.5 -30t-23.5 -58.5
t-4.5 -104.5h324v18q0 62 -6.5 97t-26 54.5t-45.5 24.5t-75 5z" />
    <glyph glyph-name="uni1EBE" unicode="&#x1ebe;" horiz-adv-x="599" 
d="M293 959v5l106 134h56v-5l-127 -134h-35zM199 781v6l106 133h55l106 -133v-6h-34l-100 106l-99 -106h-34zM111 0v688h431v-44h-383v-274h336v-44h-336v-282h383v-44h-431z" />
    <glyph glyph-name="uni1EBF" unicode="&#x1ebf;" horiz-adv-x="561" 
d="M407 914l-127 -134h-35v5l106 134h56v-5zM285 708l-99 -106h-34v6l106 133h55l106 -133v-6h-34zM489 256v-17h-370q0 -46 2 -73.5t8.5 -53.5t18 -39t32.5 -23t49 -13.5t71 -3.5q93 0 169 13v-41q-65 -13 -177 -13q-49 0 -83 4.5t-59.5 17.5t-39.5 30.5t-23 49.5t-11.5 68
t-2.5 92q0 57 1.5 88.5t8.5 66.5t20.5 51.5t38.5 32t61.5 20.5t89.5 5q47 0 79 -4.5t54 -19t34.5 -31t19 -50.5t8 -67t1.5 -90zM290 477q-61 0 -92.5 -6t-50.5 -30t-23.5 -58.5t-4.5 -104.5h324v18q0 62 -6.5 97t-26 54.5t-45.5 24.5t-75 5z" />
    <glyph glyph-name="uni1EC0" unicode="&#x1ec0;" horiz-adv-x="599" 
d="M336 959l-127 134v5h56l106 -134v-5h-35zM199 781v6l106 133h55l106 -133v-6h-34l-100 106l-99 -106h-34zM111 0v688h431v-44h-383v-274h336v-44h-336v-282h383v-44h-431z" />
    <glyph glyph-name="uni1EC1" unicode="&#x1ec1;" horiz-adv-x="561" 
d="M336 780h-35l-127 134v5h56l106 -134v-5zM285 708l-99 -106h-34v6l106 133h55l106 -133v-6h-34zM489 256v-17h-370q0 -46 2 -73.5t8.5 -53.5t18 -39t32.5 -23t49 -13.5t71 -3.5q93 0 169 13v-41q-65 -13 -177 -13q-49 0 -83 4.5t-59.5 17.5t-39.5 30.5t-23 49.5t-11.5 68
t-2.5 92q0 57 1.5 88.5t8.5 66.5t20.5 51.5t38.5 32t61.5 20.5t89.5 5q47 0 79 -4.5t54 -19t34.5 -31t19 -50.5t8 -67t1.5 -90zM290 477q-61 0 -92.5 -6t-50.5 -30t-23.5 -58.5t-4.5 -104.5h324v18q0 62 -6.5 97t-26 54.5t-45.5 24.5t-75 5z" />
    <glyph glyph-name="uni1EC2" unicode="&#x1ec2;" horiz-adv-x="599" 
d="M295 945v11q0 23 9 32.5t34 17.5l25 6q39 11 48.5 19t9.5 28q0 29 -19 35.5t-79 6.5q-44 0 -102 -5v30q48 6 111 6q72 0 99.5 -13t27.5 -56q0 -31 -11 -46t-47 -25l-29 -8q-32 -8 -38 -13.5t-6 -25.5h-33zM199 781v6l106 133h55l106 -133v-6h-34l-100 106l-99 -106h-34z
M111 0v688h431v-44h-383v-274h336v-44h-336v-282h383v-44h-431z" />
    <glyph glyph-name="uni1EC3" unicode="&#x1ec3;" horiz-adv-x="561" 
d="M374 881q0 29 -19 35.5t-79 6.5q-44 0 -102 -5v30q48 6 111 6q72 0 99.5 -13t27.5 -56q0 -31 -11 -46t-47 -25l-29 -8q-32 -8 -38 -13.5t-6 -25.5h-33v11q0 23 9 32.5t34 17.5l25 6q39 11 48.5 19t9.5 28zM285 708l-99 -106h-34v6l106 133h55l106 -133v-6h-34zM489 256
v-17h-370q0 -46 2 -73.5t8.5 -53.5t18 -39t32.5 -23t49 -13.5t71 -3.5q93 0 169 13v-41q-65 -13 -177 -13q-49 0 -83 4.5t-59.5 17.5t-39.5 30.5t-23 49.5t-11.5 68t-2.5 92q0 57 1.5 88.5t8.5 66.5t20.5 51.5t38.5 32t61.5 20.5t89.5 5q47 0 79 -4.5t54 -19t34.5 -31
t19 -50.5t8 -67t1.5 -90zM290 477q-61 0 -92.5 -6t-50.5 -30t-23.5 -58.5t-4.5 -104.5h324v18q0 62 -6.5 97t-26 54.5t-45.5 24.5t-75 5z" />
    <glyph glyph-name="uni1EC4" unicode="&#x1ec4;" horiz-adv-x="599" 
d="M168 972q0 57 12.5 78.5t52.5 21.5q31 0 110 -27q58 -22 87 -22q22 0 28 12.5t6 47.5h32q0 -57 -12.5 -78.5t-52.5 -21.5q-34 0 -110 28q-62 22 -87 22q-21 0 -27.5 -13t-6.5 -48h-32zM199 781v6l106 133h55l106 -133v-6h-34l-100 106l-99 -106h-34zM111 0v688h431v-44
h-383v-274h336v-44h-336v-282h383v-44h-431z" />
    <glyph glyph-name="uni1EC5" unicode="&#x1ec5;" horiz-adv-x="561" 
d="M187 855q-21 0 -27.5 -13t-6.5 -48h-32q0 57 12.5 78.5t52.5 21.5q31 0 110 -27q56 -22 86 -22q22 0 28 12.5t6 47.5h32q0 -57 -12 -78.5t-52 -21.5q-36 0 -110 28q-64 22 -87 22zM257 741h56l106 -133v-6h-34l-100 106l-99 -106h-34v6zM489 256v-17h-370q0 -46 2 -73.5
t8.5 -53.5t18 -39t32.5 -23t49 -13.5t71 -3.5q93 0 169 13v-41q-65 -13 -177 -13q-49 0 -83 4.5t-59.5 17.5t-39.5 30.5t-23 49.5t-11.5 68t-2.5 92q0 57 1.5 88.5t8.5 66.5t20.5 51.5t38.5 32t61.5 20.5t89.5 5q47 0 79 -4.5t54 -19t34.5 -31t19 -50.5t8 -67t1.5 -90z
M290 477q-61 0 -92.5 -6t-50.5 -30t-23.5 -58.5t-4.5 -104.5h324v18q0 62 -6.5 97t-26 54.5t-45.5 24.5t-75 5z" />
    <glyph glyph-name="uni1EC6" unicode="&#x1ec6;" horiz-adv-x="599" 
d="M199 781v6l106 133h55l106 -133v-6h-34l-100 106l-99 -106h-34zM111 0v688h431v-44h-383v-274h336v-44h-336v-282h383v-44h-431zM307 -188v61h51v-61h-51z" />
    <glyph glyph-name="uni1EC7" unicode="&#x1ec7;" horiz-adv-x="561" 
d="M285 708l-99 -106h-34v6l106 133h55l106 -133v-6h-34zM489 256v-17h-370q0 -46 2 -73.5t8.5 -53.5t18 -39t32.5 -23t49 -13.5t71 -3.5q93 0 169 13v-41q-65 -13 -177 -13q-49 0 -83 4.5t-59.5 17.5t-39.5 30.5t-23 49.5t-11.5 68t-2.5 92q0 57 1.5 88.5t8.5 66.5
t20.5 51.5t38.5 32t61.5 20.5t89.5 5q47 0 79 -4.5t54 -19t34.5 -31t19 -50.5t8 -67t1.5 -90zM290 477q-61 0 -92.5 -6t-50.5 -30t-23.5 -58.5t-4.5 -104.5h324v18q0 62 -6.5 97t-26 54.5t-45.5 24.5t-75 5zM255 -188v61h51v-61h-51z" />
    <glyph glyph-name="uni1EC8" unicode="&#x1ec8;" horiz-adv-x="271" 
d="M98 767v11q0 23 9 32.5t34 17.5l25 6q39 11 49 19t10 28q0 29 -19.5 35.5t-79.5 6.5q-44 0 -102 -5v30q48 6 112 6q71 0 98.5 -13t27.5 -56q0 -31 -11 -46t-47 -25l-29 -8q-32 -8 -38 -13.5t-6 -25.5h-33zM111 0v688h48v-688h-48z" />
    <glyph glyph-name="uni1EC9" unicode="&#x1ec9;" horiz-adv-x="239" 
d="M83 589v11q0 23 9 32.5t34 17.5l25 6q39 11 49 19t10 28q0 29 -19.5 35.5t-79.5 6.5q-44 0 -102 -5v30q48 6 112 6q71 0 98.5 -13t27.5 -56q0 -31 -11 -46t-47 -25l-29 -8q-32 -8 -38 -13.5t-6 -25.5h-33zM97 0v510h46v-510h-46z" />
    <glyph glyph-name="uni1ECA" unicode="&#x1eca;" horiz-adv-x="271" 
d="M111 0v688h48v-688h-48zM110 -188v61h51v-61h-51z" />
    <glyph glyph-name="uni1ECB" unicode="&#x1ecb;" horiz-adv-x="239" 
d="M93 675v68h53v-68h-53zM97 0v510h46v-510h-46zM95 -188v61h51v-61h-51z" />
    <glyph glyph-name="uni1ECC" unicode="&#x1ecc;" horiz-adv-x="723" 
d="M362 -8q-41 0 -71 1t-57.5 6t-46 10.5t-34.5 18t-26 24.5t-18 35t-12 44.5t-6.5 57.5t-3 69.5t-0.5 85.5t0.5 85.5t3 69.5t6.5 57.5t12 44.5t18 35t26 24.5t34.5 18t46 10.5t57.5 6t71 1t71 -1t57 -6t45.5 -10.5t35 -18t26.5 -24.5t18 -35t11.5 -44.5t6.5 -57.5
t3.5 -69.5t0.5 -85.5t-0.5 -85.5t-3.5 -69.5t-6.5 -57.5t-11.5 -44.5t-18 -35t-26.5 -24.5t-35 -18t-45.5 -10.5t-57 -6t-71 -1zM362 36q62 0 90 1t60 12t42 26.5t21 54.5t12.5 85t1.5 129t-1.5 129t-12.5 85t-21 54.5t-42 26.5t-60 12t-90 1q-47 0 -70.5 -0.5t-53 -5.5
t-41 -11t-27 -23.5t-19.5 -36.5t-9.5 -55.5t-6 -75t-0.5 -100.5t0.5 -100.5t6 -75t9.5 -55.5t19.5 -36.5t27 -23.5t41 -11t53 -5.5t70.5 -0.5zM336 -188v61h51v-61h-51z" />
    <glyph glyph-name="uni1ECD" unicode="&#x1ecd;" horiz-adv-x="579" 
d="M289 -8q-53 0 -87 4t-59.5 17t-38.5 28.5t-20.5 49.5t-9 68t-1.5 95t1.5 95t9 68.5t20.5 50t38.5 29t59.5 17.5t87 4q40 0 68.5 -2t52 -9t38.5 -15t26.5 -25.5t17 -34t9 -46.5t4.5 -58t1 -74q0 -45 -1 -73t-4.5 -58t-9 -46.5t-17 -33.5t-26.5 -25t-38.5 -15t-52 -9
t-68.5 -2zM289 33q27 0 46.5 0.5t37 4.5t29 6.5t21.5 12.5t16 15.5t10 23t6 27.5t3.5 36t1.5 42.5v52.5q0 150 -24 186.5t-147 36.5q-122 0 -146 -36.5t-24 -186.5q0 -149 24 -185t146 -36zM264 -188v61h51v-61h-51z" />
    <glyph glyph-name="uni1ECE" unicode="&#x1ece;" horiz-adv-x="723" 
d="M324 767v11q0 23 9 32.5t34 17.5l25 6q39 11 49 19t10 28q0 29 -19.5 35.5t-79.5 6.5q-44 0 -102 -5v30q48 6 112 6q71 0 98.5 -13t27.5 -56q0 -31 -11 -46t-47 -25l-29 -8q-32 -8 -38 -13.5t-6 -25.5h-33zM362 -8q-41 0 -71 1t-57.5 6t-46 10.5t-34.5 18t-26 24.5
t-18 35t-12 44.5t-6.5 57.5t-3 69.5t-0.5 85.5t0.5 85.5t3 69.5t6.5 57.5t12 44.5t18 35t26 24.5t34.5 18t46 10.5t57.5 6t71 1t71 -1t57 -6t45.5 -10.5t35 -18t26.5 -24.5t18 -35t11.5 -44.5t6.5 -57.5t3.5 -69.5t0.5 -85.5t-0.5 -85.5t-3.5 -69.5t-6.5 -57.5t-11.5 -44.5
t-18 -35t-26.5 -24.5t-35 -18t-45.5 -10.5t-57 -6t-71 -1zM362 36q62 0 90 1t60 12t42 26.5t21 54.5t12.5 85t1.5 129t-1.5 129t-12.5 85t-21 54.5t-42 26.5t-60 12t-90 1q-47 0 -70.5 -0.5t-53 -5.5t-41 -11t-27 -23.5t-19.5 -36.5t-9.5 -55.5t-6 -75t-0.5 -100.5
t0.5 -100.5t6 -75t9.5 -55.5t19.5 -36.5t27 -23.5t41 -11t53 -5.5t70.5 -0.5z" />
    <glyph glyph-name="uni1ECF" unicode="&#x1ecf;" horiz-adv-x="579" 
d="M252 589v11q0 23 9 32.5t34 17.5l25 6q39 11 49 19t10 28q0 29 -19.5 35.5t-79.5 6.5q-44 0 -102 -5v30q48 6 112 6q71 0 98.5 -13t27.5 -56q0 -31 -11 -46t-47 -25l-29 -8q-32 -8 -38 -13.5t-6 -25.5h-33zM289 -8q-53 0 -87 4t-59.5 17t-38.5 28.5t-20.5 49.5t-9 68
t-1.5 95t1.5 95t9 68.5t20.5 50t38.5 29t59.5 17.5t87 4q40 0 68.5 -2t52 -9t38.5 -15t26.5 -25.5t17 -34t9 -46.5t4.5 -58t1 -74q0 -45 -1 -73t-4.5 -58t-9 -46.5t-17 -33.5t-26.5 -25t-38.5 -15t-52 -9t-68.5 -2zM289 33q27 0 46.5 0.5t37 4.5t29 6.5t21.5 12.5t16 15.5
t10 23t6 27.5t3.5 36t1.5 42.5v52.5q0 150 -24 186.5t-147 36.5q-122 0 -146 -36.5t-24 -186.5q0 -149 24 -185t146 -36z" />
    <glyph glyph-name="uni1ED0" unicode="&#x1ed0;" horiz-adv-x="723" 
d="M322 959v5l106 134h56v-5l-127 -134h-35zM228 781v6l106 133h55l106 -133v-6h-34l-100 106l-99 -106h-34zM362 -8q-41 0 -71 1t-57.5 6t-46 10.5t-34.5 18t-26 24.5t-18 35t-12 44.5t-6.5 57.5t-3 69.5t-0.5 85.5t0.5 85.5t3 69.5t6.5 57.5t12 44.5t18 35t26 24.5
t34.5 18t46 10.5t57.5 6t71 1t71 -1t57 -6t45.5 -10.5t35 -18t26.5 -24.5t18 -35t11.5 -44.5t6.5 -57.5t3.5 -69.5t0.5 -85.5t-0.5 -85.5t-3.5 -69.5t-6.5 -57.5t-11.5 -44.5t-18 -35t-26.5 -24.5t-35 -18t-45.5 -10.5t-57 -6t-71 -1zM362 36q62 0 90 1t60 12t42 26.5
t21 54.5t12.5 85t1.5 129t-1.5 129t-12.5 85t-21 54.5t-42 26.5t-60 12t-90 1q-47 0 -70.5 -0.5t-53 -5.5t-41 -11t-27 -23.5t-19.5 -36.5t-9.5 -55.5t-6 -75t-0.5 -100.5t0.5 -100.5t6 -75t9.5 -55.5t19.5 -36.5t27 -23.5t41 -11t53 -5.5t70.5 -0.5z" />
    <glyph glyph-name="uni1ED1" unicode="&#x1ed1;" horiz-adv-x="579" 
d="M249 780v5l106 134h56v-5l-127 -134h-35zM156 602v6l106 133h55l106 -133v-6h-34l-100 106l-99 -106h-34zM289 -8q-53 0 -87 4t-59.5 17t-38.5 28.5t-20.5 49.5t-9 68t-1.5 95t1.5 95t9 68.5t20.5 50t38.5 29t59.5 17.5t87 4q40 0 68.5 -2t52 -9t38.5 -15t26.5 -25.5
t17 -34t9 -46.5t4.5 -58t1 -74q0 -45 -1 -73t-4.5 -58t-9 -46.5t-17 -33.5t-26.5 -25t-38.5 -15t-52 -9t-68.5 -2zM289 33q27 0 46.5 0.5t37 4.5t29 6.5t21.5 12.5t16 15.5t10 23t6 27.5t3.5 36t1.5 42.5v52.5q0 150 -24 186.5t-147 36.5q-122 0 -146 -36.5t-24 -186.5
q0 -149 24 -185t146 -36z" />
    <glyph glyph-name="uni1ED2" unicode="&#x1ed2;" horiz-adv-x="723" 
d="M365 959l-127 134v5h56l106 -134v-5h-35zM228 781v6l106 133h55l106 -133v-6h-34l-100 106l-99 -106h-34zM362 -8q-41 0 -71 1t-57.5 6t-46 10.5t-34.5 18t-26 24.5t-18 35t-12 44.5t-6.5 57.5t-3 69.5t-0.5 85.5t0.5 85.5t3 69.5t6.5 57.5t12 44.5t18 35t26 24.5
t34.5 18t46 10.5t57.5 6t71 1t71 -1t57 -6t45.5 -10.5t35 -18t26.5 -24.5t18 -35t11.5 -44.5t6.5 -57.5t3.5 -69.5t0.5 -85.5t-0.5 -85.5t-3.5 -69.5t-6.5 -57.5t-11.5 -44.5t-18 -35t-26.5 -24.5t-35 -18t-45.5 -10.5t-57 -6t-71 -1zM362 36q62 0 90 1t60 12t42 26.5
t21 54.5t12.5 85t1.5 129t-1.5 129t-12.5 85t-21 54.5t-42 26.5t-60 12t-90 1q-47 0 -70.5 -0.5t-53 -5.5t-41 -11t-27 -23.5t-19.5 -36.5t-9.5 -55.5t-6 -75t-0.5 -100.5t0.5 -100.5t6 -75t9.5 -55.5t19.5 -36.5t27 -23.5t41 -11t53 -5.5t70.5 -0.5z" />
    <glyph glyph-name="uni1ED3" unicode="&#x1ed3;" horiz-adv-x="579" 
d="M305 780l-127 134v5h56l106 -134v-5h-35zM156 602v6l106 133h55l106 -133v-6h-34l-100 106l-99 -106h-34zM289 -8q-53 0 -87 4t-59.5 17t-38.5 28.5t-20.5 49.5t-9 68t-1.5 95t1.5 95t9 68.5t20.5 50t38.5 29t59.5 17.5t87 4q40 0 68.5 -2t52 -9t38.5 -15t26.5 -25.5
t17 -34t9 -46.5t4.5 -58t1 -74q0 -45 -1 -73t-4.5 -58t-9 -46.5t-17 -33.5t-26.5 -25t-38.5 -15t-52 -9t-68.5 -2zM289 33q27 0 46.5 0.5t37 4.5t29 6.5t21.5 12.5t16 15.5t10 23t6 27.5t3.5 36t1.5 42.5v52.5q0 150 -24 186.5t-147 36.5q-122 0 -146 -36.5t-24 -186.5
q0 -149 24 -185t146 -36z" />
    <glyph glyph-name="uni1ED4" unicode="&#x1ed4;" horiz-adv-x="723" 
d="M324 945v11q0 23 9 32.5t34 17.5l25 6q39 11 48.5 19t9.5 28q0 29 -19 35.5t-79 6.5q-44 0 -102 -5v30q48 6 111 6q72 0 99.5 -13t27.5 -56q0 -31 -11 -46t-47 -25l-29 -8q-32 -8 -38 -13.5t-6 -25.5h-33zM228 781v6l106 133h55l106 -133v-6h-34l-100 106l-99 -106h-34z
M362 -8q-41 0 -71 1t-57.5 6t-46 10.5t-34.5 18t-26 24.5t-18 35t-12 44.5t-6.5 57.5t-3 69.5t-0.5 85.5t0.5 85.5t3 69.5t6.5 57.5t12 44.5t18 35t26 24.5t34.5 18t46 10.5t57.5 6t71 1t71 -1t57 -6t45.5 -10.5t35 -18t26.5 -24.5t18 -35t11.5 -44.5t6.5 -57.5t3.5 -69.5
t0.5 -85.5t-0.5 -85.5t-3.5 -69.5t-6.5 -57.5t-11.5 -44.5t-18 -35t-26.5 -24.5t-35 -18t-45.5 -10.5t-57 -6t-71 -1zM362 36q62 0 90 1t60 12t42 26.5t21 54.5t12.5 85t1.5 129t-1.5 129t-12.5 85t-21 54.5t-42 26.5t-60 12t-90 1q-47 0 -70.5 -0.5t-53 -5.5t-41 -11
t-27 -23.5t-19.5 -36.5t-9.5 -55.5t-6 -75t-0.5 -100.5t0.5 -100.5t6 -75t9.5 -55.5t19.5 -36.5t27 -23.5t41 -11t53 -5.5t70.5 -0.5z" />
    <glyph glyph-name="uni1ED5" unicode="&#x1ed5;" horiz-adv-x="579" 
d="M252 767v11q0 23 9 32.5t34 17.5l25 6q39 11 48.5 19t9.5 28q0 29 -19 35.5t-79 6.5q-44 0 -102 -5v30q48 6 111 6q72 0 99.5 -13t27.5 -56q0 -31 -11 -46t-47 -25l-29 -8q-32 -8 -38 -13.5t-6 -25.5h-33zM156 602v6l106 133h55l106 -133v-6h-34l-100 106l-99 -106h-34z
M289 -8q-53 0 -87 4t-59.5 17t-38.5 28.5t-20.5 49.5t-9 68t-1.5 95t1.5 95t9 68.5t20.5 50t38.5 29t59.5 17.5t87 4q40 0 68.5 -2t52 -9t38.5 -15t26.5 -25.5t17 -34t9 -46.5t4.5 -58t1 -74q0 -45 -1 -73t-4.5 -58t-9 -46.5t-17 -33.5t-26.5 -25t-38.5 -15t-52 -9t-68.5 -2
zM289 33q27 0 46.5 0.5t37 4.5t29 6.5t21.5 12.5t16 15.5t10 23t6 27.5t3.5 36t1.5 42.5v52.5q0 150 -24 186.5t-147 36.5q-122 0 -146 -36.5t-24 -186.5q0 -149 24 -185t146 -36z" />
    <glyph glyph-name="uni1ED6" unicode="&#x1ed6;" horiz-adv-x="723" 
d="M197 972q0 57 12.5 78.5t52.5 21.5q31 0 110 -27q58 -22 87 -22q21 0 27.5 12.5t6.5 47.5h32q0 -57 -12.5 -78.5t-52.5 -21.5q-34 0 -110 28q-62 22 -87 22q-21 0 -27.5 -13t-6.5 -48h-32zM228 781v6l106 133h55l106 -133v-6h-34l-100 106l-99 -106h-34zM362 -8
q-41 0 -71 1t-57.5 6t-46 10.5t-34.5 18t-26 24.5t-18 35t-12 44.5t-6.5 57.5t-3 69.5t-0.5 85.5t0.5 85.5t3 69.5t6.5 57.5t12 44.5t18 35t26 24.5t34.5 18t46 10.5t57.5 6t71 1t71 -1t57 -6t45.5 -10.5t35 -18t26.5 -24.5t18 -35t11.5 -44.5t6.5 -57.5t3.5 -69.5
t0.5 -85.5t-0.5 -85.5t-3.5 -69.5t-6.5 -57.5t-11.5 -44.5t-18 -35t-26.5 -24.5t-35 -18t-45.5 -10.5t-57 -6t-71 -1zM362 36q62 0 90 1t60 12t42 26.5t21 54.5t12.5 85t1.5 129t-1.5 129t-12.5 85t-21 54.5t-42 26.5t-60 12t-90 1q-47 0 -70.5 -0.5t-53 -5.5t-41 -11
t-27 -23.5t-19.5 -36.5t-9.5 -55.5t-6 -75t-0.5 -100.5t0.5 -100.5t6 -75t9.5 -55.5t19.5 -36.5t27 -23.5t41 -11t53 -5.5t70.5 -0.5z" />
    <glyph glyph-name="uni1ED7" unicode="&#x1ed7;" horiz-adv-x="579" 
d="M125 794q0 57 12.5 78.5t52.5 21.5q31 0 110 -27q56 -22 86 -22q22 0 28 12.5t6 47.5h32q0 -57 -12 -78.5t-52 -21.5q-36 0 -110 28q-64 22 -87 22q-21 0 -27.5 -13t-6.5 -48h-32zM156 602v6l105 133h56l106 -133v-6h-34l-100 106l-99 -106h-34zM289 -8q-53 0 -87 4
t-59.5 17t-38.5 28.5t-20.5 49.5t-9 68t-1.5 95t1.5 95t9 68.5t20.5 50t38.5 29t59.5 17.5t87 4q40 0 68.5 -2t52 -9t38.5 -15t26.5 -25.5t17 -34t9 -46.5t4.5 -58t1 -74q0 -45 -1 -73t-4.5 -58t-9 -46.5t-17 -33.5t-26.5 -25t-38.5 -15t-52 -9t-68.5 -2zM289 33
q27 0 46.5 0.5t37 4.5t29 6.5t21.5 12.5t16 15.5t10 23t6 27.5t3.5 36t1.5 42.5v52.5q0 150 -24 186.5t-147 36.5q-122 0 -146 -36.5t-24 -186.5q0 -149 24 -185t146 -36z" />
    <glyph glyph-name="uni1ED8" unicode="&#x1ed8;" horiz-adv-x="723" 
d="M228 781v6l106 133h55l106 -133v-6h-34l-100 106l-99 -106h-34zM362 -8q-41 0 -71 1t-57.5 6t-46 10.5t-34.5 18t-26 24.5t-18 35t-12 44.5t-6.5 57.5t-3 69.5t-0.5 85.5t0.5 85.5t3 69.5t6.5 57.5t12 44.5t18 35t26 24.5t34.5 18t46 10.5t57.5 6t71 1t71 -1t57 -6
t45.5 -10.5t35 -18t26.5 -24.5t18 -35t11.5 -44.5t6.5 -57.5t3.5 -69.5t0.5 -85.5t-0.5 -85.5t-3.5 -69.5t-6.5 -57.5t-11.5 -44.5t-18 -35t-26.5 -24.5t-35 -18t-45.5 -10.5t-57 -6t-71 -1zM362 36q62 0 90 1t60 12t42 26.5t21 54.5t12.5 85t1.5 129t-1.5 129t-12.5 85
t-21 54.5t-42 26.5t-60 12t-90 1q-47 0 -70.5 -0.5t-53 -5.5t-41 -11t-27 -23.5t-19.5 -36.5t-9.5 -55.5t-6 -75t-0.5 -100.5t0.5 -100.5t6 -75t9.5 -55.5t19.5 -36.5t27 -23.5t41 -11t53 -5.5t70.5 -0.5zM336 -188v61h51v-61h-51z" />
    <glyph glyph-name="uni1ED9" unicode="&#x1ed9;" horiz-adv-x="579" 
d="M156 602v6l106 133h55l106 -133v-6h-34l-100 106l-99 -106h-34zM289 -8q-53 0 -87 4t-59.5 17t-38.5 28.5t-20.5 49.5t-9 68t-1.5 95t1.5 95t9 68.5t20.5 50t38.5 29t59.5 17.5t87 4q40 0 68.5 -2t52 -9t38.5 -15t26.5 -25.5t17 -34t9 -46.5t4.5 -58t1 -74q0 -45 -1 -73
t-4.5 -58t-9 -46.5t-17 -33.5t-26.5 -25t-38.5 -15t-52 -9t-68.5 -2zM289 33q27 0 46.5 0.5t37 4.5t29 6.5t21.5 12.5t16 15.5t10 23t6 27.5t3.5 36t1.5 42.5v52.5q0 150 -24 186.5t-147 36.5q-122 0 -146 -36.5t-24 -186.5q0 -149 24 -185t146 -36zM264 -188v61h51v-61h-51
z" />
    <glyph glyph-name="uni1EDA" unicode="&#x1eda;" horiz-adv-x="723" 
d="M484 915l-126 -134h-35v5l105 134h56v-5zM643 758q0 -54 -14 -75.5t-54 -24.5q40 -31 51 -97.5t11 -216.5q0 -52 -0.5 -85.5t-3.5 -69.5t-6.5 -57.5t-11.5 -44.5t-18 -35t-26.5 -24.5t-35 -18t-45.5 -10.5t-57 -6t-71 -1t-71 1t-57.5 6t-46 10.5t-34.5 18t-26 24.5
t-18 35t-12 44.5t-6.5 57.5t-3 69.5t-0.5 85.5t0.5 85.5t3 69.5t6.5 57.5t12 44.5t18 35t26 24.5t34.5 18t46 10.5t57.5 6t71 1q87 0 135 -8h56q33 0 42 12t9 51v34h39v-27zM589 344q0 83 -1.5 129t-12.5 85t-21 54.5t-42 26.5t-60 12t-90 1q-47 0 -70.5 -0.5t-53 -5.5
t-41 -11t-27 -23.5t-19.5 -36.5t-9.5 -55.5t-6 -75t-0.5 -100.5t0.5 -100.5t6 -75t9.5 -55.5t19.5 -36.5t27 -23.5t41 -11t53 -5.5t70.5 -0.5q62 0 90 1t60 12t42 26.5t21 54.5t12.5 85t1.5 129z" />
    <glyph glyph-name="uni1EDB" unicode="&#x1edb;" horiz-adv-x="579" 
d="M410 736l-126 -134h-35v5l105 134h56v-5zM520 580q0 -52 -12 -73.5t-46 -25.5q28 -26 36 -75.5t8 -151.5q0 -45 -1 -73t-4.5 -58t-9 -46.5t-17 -33.5t-26.5 -25t-38.5 -15t-52 -9t-68.5 -2q-53 0 -87 4t-59.5 17t-38.5 28.5t-20.5 49.5t-9 68t-1.5 95t1.5 95t9 68.5
t20.5 50t38.5 29t59.5 17.5t87 4q71 0 108 -8h33q33 0 42 12t9 51v34h39v-27zM289 33q27 0 46.5 0.5t37 4.5t29 6.5t21.5 12.5t16 15.5t10 23t6 27.5t3.5 36t1.5 42.5v52.5q0 150 -24 186.5t-147 36.5q-122 0 -146 -36.5t-24 -186.5q0 -149 24 -185t146 -36z" />
    <glyph glyph-name="uni1EDC" unicode="&#x1edc;" horiz-adv-x="723" 
d="M400 781h-34l-127 134v5h56l105 -134v-5zM643 758q0 -54 -14 -75.5t-54 -24.5q40 -31 51 -97.5t11 -216.5q0 -52 -0.5 -85.5t-3.5 -69.5t-6.5 -57.5t-11.5 -44.5t-18 -35t-26.5 -24.5t-35 -18t-45.5 -10.5t-57 -6t-71 -1t-71 1t-57.5 6t-46 10.5t-34.5 18t-26 24.5
t-18 35t-12 44.5t-6.5 57.5t-3 69.5t-0.5 85.5t0.5 85.5t3 69.5t6.5 57.5t12 44.5t18 35t26 24.5t34.5 18t46 10.5t57.5 6t71 1q87 0 135 -8h56q33 0 42 12t9 51v34h39v-27zM589 344q0 83 -1.5 129t-12.5 85t-21 54.5t-42 26.5t-60 12t-90 1q-47 0 -70.5 -0.5t-53 -5.5
t-41 -11t-27 -23.5t-19.5 -36.5t-9.5 -55.5t-6 -75t-0.5 -100.5t0.5 -100.5t6 -75t9.5 -55.5t19.5 -36.5t27 -23.5t41 -11t53 -5.5t70.5 -0.5q62 0 90 1t60 12t42 26.5t21 54.5t12.5 85t1.5 129z" />
    <glyph glyph-name="uni1EDD" unicode="&#x1edd;" horiz-adv-x="579" 
d="M339 602h-34l-127 134v5h56l105 -134v-5zM520 580q0 -52 -12 -73.5t-46 -25.5q28 -26 36 -75.5t8 -151.5q0 -45 -1 -73t-4.5 -58t-9 -46.5t-17 -33.5t-26.5 -25t-38.5 -15t-52 -9t-68.5 -2q-53 0 -87 4t-59.5 17t-38.5 28.5t-20.5 49.5t-9 68t-1.5 95t1.5 95t9 68.5
t20.5 50t38.5 29t59.5 17.5t87 4q71 0 108 -8h33q33 0 42 12t9 51v34h39v-27zM289 33q27 0 46.5 0.5t37 4.5t29 6.5t21.5 12.5t16 15.5t10 23t6 27.5t3.5 36t1.5 42.5v52.5q0 150 -24 186.5t-147 36.5q-122 0 -146 -36.5t-24 -186.5q0 -149 24 -185t146 -36z" />
    <glyph glyph-name="uni1EDE" unicode="&#x1ede;" horiz-adv-x="723" 
d="M451 881q0 29 -19.5 35.5t-79.5 6.5q-44 0 -102 -5v30q48 6 112 6q71 0 98.5 -13t27.5 -56q0 -31 -11 -46t-47 -25l-29 -8q-32 -8 -38 -13.5t-6 -25.5h-33v11q0 23 9 32.5t34 17.5l25 6q39 11 49 19t10 28zM643 758q0 -54 -14 -75.5t-54 -24.5q40 -31 51 -97.5t11 -216.5
q0 -52 -0.5 -85.5t-3.5 -69.5t-6.5 -57.5t-11.5 -44.5t-18 -35t-26.5 -24.5t-35 -18t-45.5 -10.5t-57 -6t-71 -1t-71 1t-57.5 6t-46 10.5t-34.5 18t-26 24.5t-18 35t-12 44.5t-6.5 57.5t-3 69.5t-0.5 85.5t0.5 85.5t3 69.5t6.5 57.5t12 44.5t18 35t26 24.5t34.5 18t46 10.5
t57.5 6t71 1q87 0 135 -8h56q33 0 42 12t9 51v34h39v-27zM589 344q0 83 -1.5 129t-12.5 85t-21 54.5t-42 26.5t-60 12t-90 1q-47 0 -70.5 -0.5t-53 -5.5t-41 -11t-27 -23.5t-19.5 -36.5t-9.5 -55.5t-6 -75t-0.5 -100.5t0.5 -100.5t6 -75t9.5 -55.5t19.5 -36.5t27 -23.5
t41 -11t53 -5.5t70.5 -0.5q62 0 90 1t60 12t42 26.5t21 54.5t12.5 85t1.5 129z" />
    <glyph glyph-name="uni1EDF" unicode="&#x1edf;" horiz-adv-x="579" 
d="M379 703q0 29 -19.5 35.5t-79.5 6.5q-44 0 -102 -5v30q48 6 112 6q71 0 98.5 -13t27.5 -56q0 -31 -11 -46t-47 -25l-29 -8q-32 -8 -38 -13.5t-6 -25.5h-33v11q0 23 9 32.5t34 17.5l25 6q39 11 49 19t10 28zM520 580q0 -52 -12 -73.5t-46 -25.5q28 -26 36 -75.5t8 -151.5
q0 -45 -1 -73t-4.5 -58t-9 -46.5t-17 -33.5t-26.5 -25t-38.5 -15t-52 -9t-68.5 -2q-53 0 -87 4t-59.5 17t-38.5 28.5t-20.5 49.5t-9 68t-1.5 95t1.5 95t9 68.5t20.5 50t38.5 29t59.5 17.5t87 4q71 0 108 -8h33q33 0 42 12t9 51v34h39v-27zM289 33q27 0 46.5 0.5t37 4.5
t29 6.5t21.5 12.5t16 15.5t10 23t6 27.5t3.5 36t1.5 42.5v52.5q0 150 -24 186.5t-147 36.5q-122 0 -146 -36.5t-24 -186.5q0 -149 24 -185t146 -36z" />
    <glyph glyph-name="uni1EE0" unicode="&#x1ee0;" horiz-adv-x="723" 
d="M264 855q-21 0 -27.5 -13t-6.5 -48h-32q0 57 12.5 78.5t52.5 21.5q31 0 110 -27q56 -22 86 -22q21 0 27.5 12.5t6.5 47.5h32q0 -57 -12 -78.5t-52 -21.5q-36 0 -110 28q-64 22 -87 22zM643 758q0 -54 -14 -75.5t-54 -24.5q40 -31 51 -97.5t11 -216.5q0 -52 -0.5 -85.5
t-3.5 -69.5t-6.5 -57.5t-11.5 -44.5t-18 -35t-26.5 -24.5t-35 -18t-45.5 -10.5t-57 -6t-71 -1t-71 1t-57.5 6t-46 10.5t-34.5 18t-26 24.5t-18 35t-12 44.5t-6.5 57.5t-3 69.5t-0.5 85.5t0.5 85.5t3 69.5t6.5 57.5t12 44.5t18 35t26 24.5t34.5 18t46 10.5t57.5 6t71 1
q87 0 135 -8h56q33 0 42 12t9 51v34h39v-27zM589 344q0 83 -1.5 129t-12.5 85t-21 54.5t-42 26.5t-60 12t-90 1q-47 0 -70.5 -0.5t-53 -5.5t-41 -11t-27 -23.5t-19.5 -36.5t-9.5 -55.5t-6 -75t-0.5 -100.5t0.5 -100.5t6 -75t9.5 -55.5t19.5 -36.5t27 -23.5t41 -11t53 -5.5
t70.5 -0.5q62 0 90 1t60 12t42 26.5t21 54.5t12.5 85t1.5 129z" />
    <glyph glyph-name="uni1EE1" unicode="&#x1ee1;" horiz-adv-x="579" 
d="M191 677q-21 0 -27.5 -13t-6.5 -48h-32q0 57 12.5 78.5t52.5 21.5q31 0 110 -27q56 -22 86 -22q22 0 28 12.5t6 47.5h32q0 -57 -12 -78.5t-52 -21.5q-36 0 -110 28q-64 22 -87 22zM520 580q0 -52 -12 -73.5t-46 -25.5q28 -26 36 -75.5t8 -151.5q0 -45 -1 -73t-4.5 -58
t-9 -46.5t-17 -33.5t-26.5 -25t-38.5 -15t-52 -9t-68.5 -2q-53 0 -87 4t-59.5 17t-38.5 28.5t-20.5 49.5t-9 68t-1.5 95t1.5 95t9 68.5t20.5 50t38.5 29t59.5 17.5t87 4q71 0 108 -8h33q33 0 42 12t9 51v34h39v-27zM289 33q27 0 46.5 0.5t37 4.5t29 6.5t21.5 12.5t16 15.5
t10 23t6 27.5t3.5 36t1.5 42.5v52.5q0 150 -24 186.5t-147 36.5q-122 0 -146 -36.5t-24 -186.5q0 -149 24 -185t146 -36z" />
    <glyph glyph-name="uni1EE2" unicode="&#x1ee2;" horiz-adv-x="723" 
d="M643 758q0 -54 -14 -75.5t-54 -24.5q40 -31 51 -97.5t11 -216.5q0 -52 -0.5 -85.5t-3.5 -69.5t-6.5 -57.5t-11.5 -44.5t-18 -35t-26.5 -24.5t-35 -18t-45.5 -10.5t-57 -6t-71 -1t-71 1t-57.5 6t-46 10.5t-34.5 18t-26 24.5t-18 35t-12 44.5t-6.5 57.5t-3 69.5t-0.5 85.5
t0.5 85.5t3 69.5t6.5 57.5t12 44.5t18 35t26 24.5t34.5 18t46 10.5t57.5 6t71 1q87 0 135 -8h56q33 0 42 12t9 51v34h39v-27zM589 344q0 83 -1.5 129t-12.5 85t-21 54.5t-42 26.5t-60 12t-90 1q-47 0 -70.5 -0.5t-53 -5.5t-41 -11t-27 -23.5t-19.5 -36.5t-9.5 -55.5t-6 -75
t-0.5 -100.5t0.5 -100.5t6 -75t9.5 -55.5t19.5 -36.5t27 -23.5t41 -11t53 -5.5t70.5 -0.5q62 0 90 1t60 12t42 26.5t21 54.5t12.5 85t1.5 129zM336 -188v61h51v-61h-51z" />
    <glyph glyph-name="uni1EE3" unicode="&#x1ee3;" horiz-adv-x="579" 
d="M520 580q0 -52 -12 -73.5t-46 -25.5q28 -26 36 -75.5t8 -151.5q0 -45 -1 -73t-4.5 -58t-9 -46.5t-17 -33.5t-26.5 -25t-38.5 -15t-52 -9t-68.5 -2q-53 0 -87 4t-59.5 17t-38.5 28.5t-20.5 49.5t-9 68t-1.5 95t1.5 95t9 68.5t20.5 50t38.5 29t59.5 17.5t87 4q71 0 108 -8
h33q33 0 42 12t9 51v34h39v-27zM289 33q27 0 46.5 0.5t37 4.5t29 6.5t21.5 12.5t16 15.5t10 23t6 27.5t3.5 36t1.5 42.5v52.5q0 150 -24 186.5t-147 36.5q-122 0 -146 -36.5t-24 -186.5q0 -149 24 -185t146 -36zM264 -188v61h51v-61h-51z" />
    <glyph glyph-name="uni1EE4" unicode="&#x1ee4;" horiz-adv-x="715" 
d="M358 -8q-60 0 -100.5 5t-70 20.5t-45.5 35t-25.5 57.5t-12 78.5t-2.5 107.5v392h48v-423q0 -52 1.5 -82t9 -59.5t20 -43.5t37 -25.5t57.5 -15t83 -3.5t83 3.5t57 15t36.5 25.5t20 43.5t9 59t1.5 82.5v423h48v-392q0 -67 -2.5 -107.5t-12 -78.5t-25.5 -57.5t-45 -35
t-69.5 -20.5t-100.5 -5zM332 -188v61h51v-61h-51z" />
    <glyph glyph-name="uni1EE5" unicode="&#x1ee5;" horiz-adv-x="602" 
d="M281 -8q-60 0 -96.5 10t-55.5 36.5t-25.5 60t-6.5 91.5v320h46v-309q0 -109 27 -138t124 -29q34 0 60.5 6t44 14.5t29.5 25.5t18.5 31.5t9.5 40.5t3.5 43.5t0.5 50.5v264h46v-510h-39l-3 81h-5q-15 -42 -54.5 -65.5t-123.5 -23.5zM264 -188v61h51v-61h-51z" />
    <glyph glyph-name="uni1EE6" unicode="&#x1ee6;" horiz-adv-x="715" 
d="M320 767v11q0 23 9 32.5t34 17.5l25 6q39 11 49 19t10 28q0 29 -19.5 35.5t-79.5 6.5q-44 0 -102 -5v30q48 6 112 6q71 0 98.5 -13t27.5 -56q0 -31 -11 -46t-47 -25l-29 -8q-32 -8 -38 -13.5t-6 -25.5h-33zM358 -8q-60 0 -100.5 5t-70 20.5t-45.5 35t-25.5 57.5t-12 78.5
t-2.5 107.5v392h48v-423q0 -52 1.5 -82t9 -59.5t20 -43.5t37 -25.5t57.5 -15t83 -3.5t83 3.5t57 15t36.5 25.5t20 43.5t9 59t1.5 82.5v423h48v-392q0 -67 -2.5 -107.5t-12 -78.5t-25.5 -57.5t-45 -35t-69.5 -20.5t-100.5 -5z" />
    <glyph glyph-name="uni1EE7" unicode="&#x1ee7;" horiz-adv-x="602" 
d="M264 589v11q0 23 9 32.5t34 17.5l25 6q39 11 49 19t10 28q0 29 -19.5 35.5t-79.5 6.5q-44 0 -102 -5v30q48 6 112 6q71 0 98.5 -13t27.5 -56q0 -31 -11 -46t-47 -25l-29 -8q-32 -8 -38 -13.5t-6 -25.5h-33zM281 -8q-60 0 -96.5 10t-55.5 36.5t-25.5 60t-6.5 91.5v320h46
v-309q0 -109 27 -138t124 -29q34 0 60.5 6t44 14.5t29.5 25.5t18.5 31.5t9.5 40.5t3.5 43.5t0.5 50.5v264h46v-510h-39l-3 81h-5q-15 -42 -54.5 -65.5t-123.5 -23.5z" />
    <glyph glyph-name="uni1EE8" unicode="&#x1ee8;" horiz-adv-x="715" 
d="M480 915l-126 -134h-35v5l105 134h56v-5zM677 785h39v-27q0 -61 -17.5 -81t-72.5 -20h-13v-361q0 -67 -2.5 -107.5t-12 -78.5t-25.5 -57.5t-45 -35t-69.5 -20.5t-100.5 -5t-100.5 5t-70 20.5t-45.5 35t-25.5 57.5t-12 78.5t-2.5 107.5v392h48v-423q0 -52 1.5 -82t9 -59.5
t20 -43.5t37 -25.5t57.5 -15t83 -3.5t83 3.5t57 15t36.5 25.5t20 43.5t9 59t1.5 82.5v423h61q33 0 42 12t9 51v34z" />
    <glyph glyph-name="uni1EE9" unicode="&#x1ee9;" horiz-adv-x="602" 
d="M422 736l-126 -134h-35v5l105 134h56v-5zM572 607h39v-27q0 -61 -17.5 -81t-72.5 -20h-15v-479h-39l-3 81h-5q-15 -42 -54.5 -65.5t-123.5 -23.5q-60 0 -96.5 10t-55.5 36.5t-25.5 60t-6.5 91.5v320h46v-309q0 -109 27 -138t124 -29q34 0 60.5 6t44 14.5t29.5 25.5
t18.5 31.5t9.5 40.5t3.5 43.5t0.5 50.5v264h61q33 0 42 12t9 51v34z" />
    <glyph glyph-name="uni1EEA" unicode="&#x1eea;" horiz-adv-x="715" 
d="M396 781h-34l-127 134v5h56l105 -134v-5zM677 785h39v-27q0 -61 -17.5 -81t-72.5 -20h-13v-361q0 -67 -2.5 -107.5t-12 -78.5t-25.5 -57.5t-45 -35t-69.5 -20.5t-100.5 -5t-100.5 5t-70 20.5t-45.5 35t-25.5 57.5t-12 78.5t-2.5 107.5v392h48v-423q0 -52 1.5 -82t9 -59.5
t20 -43.5t37 -25.5t57.5 -15t83 -3.5t83 3.5t57 15t36.5 25.5t20 43.5t9 59t1.5 82.5v423h61q33 0 42 12t9 51v34z" />
    <glyph glyph-name="uni1EEB" unicode="&#x1eeb;" horiz-adv-x="602" 
d="M351 602h-34l-127 134v5h56l105 -134v-5zM572 607h39v-27q0 -61 -17.5 -81t-72.5 -20h-15v-479h-39l-3 81h-5q-15 -42 -54.5 -65.5t-123.5 -23.5q-60 0 -96.5 10t-55.5 36.5t-25.5 60t-6.5 91.5v320h46v-309q0 -109 27 -138t124 -29q34 0 60.5 6t44 14.5t29.5 25.5
t18.5 31.5t9.5 40.5t3.5 43.5t0.5 50.5v264h61q33 0 42 12t9 51v34z" />
    <glyph glyph-name="uni1EEC" unicode="&#x1eec;" horiz-adv-x="715" 
d="M447 881q0 29 -19.5 35.5t-79.5 6.5q-44 0 -102 -5v30q48 6 112 6q71 0 98.5 -13t27.5 -56q0 -31 -11 -46t-47 -25l-29 -8q-32 -8 -38 -13.5t-6 -25.5h-33v11q0 23 9 32.5t34 17.5l25 6q39 11 49 19t10 28zM677 785h39v-27q0 -61 -17.5 -81t-72.5 -20h-13v-361
q0 -67 -2.5 -107.5t-12 -78.5t-25.5 -57.5t-45 -35t-69.5 -20.5t-100.5 -5t-100.5 5t-70 20.5t-45.5 35t-25.5 57.5t-12 78.5t-2.5 107.5v392h48v-423q0 -52 1.5 -82t9 -59.5t20 -43.5t37 -25.5t57.5 -15t83 -3.5t83 3.5t57 15t36.5 25.5t20 43.5t9 59t1.5 82.5v423h61
q33 0 42 12t9 51v34z" />
    <glyph glyph-name="uni1EED" unicode="&#x1eed;" horiz-adv-x="602" 
d="M391 703q0 29 -19.5 35.5t-79.5 6.5q-44 0 -102 -5v30q48 6 112 6q71 0 98.5 -13t27.5 -56q0 -31 -11 -46t-47 -25l-29 -8q-32 -8 -38 -13.5t-6 -25.5h-33v11q0 23 9 32.5t34 17.5l25 6q39 11 49 19t10 28zM572 607h39v-27q0 -61 -17.5 -81t-72.5 -20h-15v-479h-39l-3 81
h-5q-15 -42 -54.5 -65.5t-123.5 -23.5q-60 0 -96.5 10t-55.5 36.5t-25.5 60t-6.5 91.5v320h46v-309q0 -109 27 -138t124 -29q34 0 60.5 6t44 14.5t29.5 25.5t18.5 31.5t9.5 40.5t3.5 43.5t0.5 50.5v264h61q33 0 42 12t9 51v34z" />
    <glyph glyph-name="uni1EEE" unicode="&#x1eee;" horiz-adv-x="715" 
d="M260 855q-21 0 -27.5 -13t-6.5 -48h-32q0 57 12.5 78.5t52.5 21.5q31 0 110 -27q56 -22 86 -22q21 0 27.5 12.5t6.5 47.5h32q0 -57 -12 -78.5t-52 -21.5q-36 0 -110 28q-64 22 -87 22zM677 785h39v-27q0 -61 -17.5 -81t-72.5 -20h-13v-361q0 -67 -2.5 -107.5t-12 -78.5
t-25.5 -57.5t-45 -35t-69.5 -20.5t-100.5 -5t-100.5 5t-70 20.5t-45.5 35t-25.5 57.5t-12 78.5t-2.5 107.5v392h48v-423q0 -52 1.5 -82t9 -59.5t20 -43.5t37 -25.5t57.5 -15t83 -3.5t83 3.5t57 15t36.5 25.5t20 43.5t9 59t1.5 82.5v423h61q33 0 42 12t9 51v34z" />
    <glyph glyph-name="uni1EEF" unicode="&#x1eef;" horiz-adv-x="602" 
d="M203 677q-21 0 -27.5 -13t-6.5 -48h-32q0 57 12.5 78.5t52.5 21.5q31 0 110 -27q56 -22 86 -22q22 0 28 12.5t6 47.5h32q0 -57 -12 -78.5t-52 -21.5q-36 0 -110 28q-64 22 -87 22zM572 607h39v-27q0 -61 -17.5 -81t-72.5 -20h-15v-479h-39l-3 81h-5q-15 -42 -54.5 -65.5
t-123.5 -23.5q-60 0 -96.5 10t-55.5 36.5t-25.5 60t-6.5 91.5v320h46v-309q0 -109 27 -138t124 -29q34 0 60.5 6t44 14.5t29.5 25.5t18.5 31.5t9.5 40.5t3.5 43.5t0.5 50.5v264h61q33 0 42 12t9 51v34z" />
    <glyph glyph-name="uni1EF0" unicode="&#x1ef0;" horiz-adv-x="715" 
d="M677 785h39v-27q0 -61 -17.5 -81t-72.5 -20h-13v-361q0 -67 -2.5 -107.5t-12 -78.5t-25.5 -57.5t-45 -35t-69.5 -20.5t-100.5 -5t-100.5 5t-70 20.5t-45.5 35t-25.5 57.5t-12 78.5t-2.5 107.5v392h48v-423q0 -52 1.5 -82t9 -59.5t20 -43.5t37 -25.5t57.5 -15t83 -3.5
t83 3.5t57 15t36.5 25.5t20 43.5t9 59t1.5 82.5v423h61q33 0 42 12t9 51v34zM332 -188v61h51v-61h-51z" />
    </font>
</defs>
</svg>
