<?xml version="1.0" standalone="no"?>
<!DOCTYPE svg PUBLIC "-//W3C//DTD SVG 1.1//EN" "http://www.w3.org/Graphics/SVG/1.1/DTD/svg11.dtd" >
<svg xmlns="http://www.w3.org/2000/svg" xmlns:xlink="http://www.w3.org/1999/xlink" version="1.1">
<metadata>
Created by FontForge 20170731 at Wed Jul  3 00:26:33 2019
 By Aleksey,,,
Copyright (c) 2019, The Saira Project Authors (https://github.com/Omnibus-Type/Saira/Saira)
</metadata>
<defs>
<font id="Saira-SemiBold" horiz-adv-x="0" >
  <font-face 
    font-family="Saira SemiBold"
    font-weight="600"
    font-stretch="normal"
    units-per-em="1000"
    panose-1="0 0 7 0 0 0 0 0 0 0"
    ascent="800"
    descent="-200"
    x-height="510"
    cap-height="688"
    bbox="-638 -408 1253 1169"
    underline-thickness="107"
    underline-position="-372"
    unicode-range="U+000D-FB02"
  />
<missing-glyph horiz-adv-x="500" 
d="M0 0v700h500v-700h-500zM50 50h400v600h-400v-600zM229 215v63q0 29 13.5 48t40.5 41q18 15 28 25t19 29.5t9 43.5q0 31 -19 59t-70 28q-31 0 -52.5 -12t-30.5 -30.5t-12 -32t-3 -25.5v-28h-49l-1 4q-1 5 -2 12.5t-1 14.5q0 11 2 24.5t11 36.5t24 41t45 31.5t69 13.5
t68 -13.5t43 -30t22 -39t9 -33.5t1 -19q0 -71 -67 -129q-15 -12 -22.5 -19.5t-14.5 -21.5t-7 -29v-53h-53zM225 99v70h60v-70h-60z" />
    <glyph glyph-name="fi" unicode="fi" horiz-adv-x="678" 
d="M473 625v118h137v-118h-137zM120 0v403h-98v107h98v46q0 34 2 59.5t9.5 45.5t15.5 33t25.5 22.5t33 14t46 7.5t56.5 3.5t71 0.5v-97q-85 0 -105.5 -11t-20.5 -56v-68h126v-107h-126v-403h-133zM474 0v510h134v-510h-134z" />
    <glyph glyph-name="fl" unicode="fl" horiz-adv-x="658" 
d="M454 0v743h134v-743h-134zM120 0v403h-98v107h98v46q0 34 2 59.5t9.5 45.5t15.5 33t25.5 22.5t33 14t46 7.5t56.5 3.5t71 0.5v-97q-85 0 -105.5 -11t-20.5 -56v-68h126v-107h-126v-403h-133z" />
    <glyph glyph-name="f_f" unicode="ff" horiz-adv-x="807" 
d="M120 0v403h-98v107h98v46q0 34 2 59.5t9.5 45.5t15.5 33t25.5 22.5t33 14t46 7.5t56.5 3.5t71 0.5v-97q-85 0 -105.5 -11t-20.5 -56v-68h126v-107h-126v-403h-133zM524 0v403h-98v107h98v46q0 34 2 59.5t9.5 45.5t15.5 33t25.5 22.5t33 14t46 7.5t56.5 3.5t71 0.5v-97
q-85 0 -105.5 -11t-20.5 -56v-68h126v-107h-126v-403h-133z" />
    <glyph glyph-name="f_f_i" unicode="ffi" horiz-adv-x="1082" 
d="M876 625v118h137v-118h-137zM120 0v403h-98v107h98v46q0 34 2 59.5t9.5 45.5t15.5 33t25.5 22.5t33 14t46 7.5t56.5 3.5t71 0.5v-97q-85 0 -105.5 -11t-20.5 -56v-68h126v-107h-126v-403h-133zM524 0v403h-98v107h98v46q0 34 2 59.5t9.5 45.5t15.5 33t25.5 22.5t33 14
t46 7.5t56.5 3.5t71 0.5v-97q-85 0 -105.5 -11t-20.5 -56v-68h126v-107h-126v-403h-133zM877 0v510h134v-510h-134z" />
    <glyph glyph-name="f_f_l" unicode="ffl" horiz-adv-x="1062" 
d="M857 0v743h134v-743h-134zM120 0v403h-98v107h98v46q0 34 2 59.5t9.5 45.5t15.5 33t25.5 22.5t33 14t46 7.5t56.5 3.5t71 0.5v-97q-85 0 -105.5 -11t-20.5 -56v-68h126v-107h-126v-403h-133zM524 0v403h-98v107h98v46q0 34 2 59.5t9.5 45.5t15.5 33t25.5 22.5t33 14
t46 7.5t56.5 3.5t71 0.5v-97q-85 0 -105.5 -11t-20.5 -56v-68h126v-107h-126v-403h-133z" />
    <glyph glyph-name=".notdef" horiz-adv-x="500" 
d="M0 0v700h500v-700h-500zM50 50h400v600h-400v-600zM229 215v63q0 29 13.5 48t40.5 41q18 15 28 25t19 29.5t9 43.5q0 31 -19 59t-70 28q-31 0 -52.5 -12t-30.5 -30.5t-12 -32t-3 -25.5v-28h-49l-1 4q-1 5 -2 12.5t-1 14.5q0 11 2 24.5t11 36.5t24 41t45 31.5t69 13.5
t68 -13.5t43 -30t22 -39t9 -33.5t1 -19q0 -71 -67 -129q-15 -12 -22.5 -19.5t-14.5 -21.5t-7 -29v-53h-53zM225 99v70h60v-70h-60z" />
    <glyph glyph-name=".null" 
 />
    <glyph glyph-name="nonmarkingreturn" horiz-adv-x="333" 
 />
    <glyph glyph-name="CR" unicode="&#xd;" horiz-adv-x="600" 
 />
    <glyph glyph-name="space" unicode=" " horiz-adv-x="246" 
 />
    <glyph glyph-name="exclam" unicode="!" horiz-adv-x="303" 
d="M107 223q-4 40 -15.5 198.5t-11.5 208.5v58h156v-58q0 -50 -12 -207t-16 -200h-101zM85 0v131h146v-131h-146z" />
    <glyph glyph-name="quotedbl" unicode="&#x22;" horiz-adv-x="432" 
d="M80 433l-15 193v62h122v-62l-15 -193h-92zM260 433l-15 193v62h122v-62l-15 -193h-92z" />
    <glyph glyph-name="numbersign" unicode="#" horiz-adv-x="746" 
d="M107 0l41 180h-91v88h111l34 148h-108v88h128l43 184h92l-43 -184h141l44 184h92l-44 -184h93v-88h-113l-33 -148h109v-88h-130l-41 -180h-92l41 180h-141l-41 -180h-92zM260 268h142l33 148h-141z" />
    <glyph glyph-name="dollar" unicode="$" horiz-adv-x="537" 
d="M479 235q0 -87 -34.5 -122.5t-125.5 -42.5v-78h-97v76q-87 5 -148 15v103q3 0 30 -2t67 -4.5t76 -2.5q68 0 85 10.5t17 43.5q0 32 -8.5 39t-44.5 12l-118 16q-72 10 -96.5 48.5t-24.5 111.5q0 79 40 114.5t125 42.5v81h97v-79q73 -3 131 -15v-103q-78 9 -159 9
q-63 0 -83.5 -8.5t-20.5 -41.5q0 -31 7.5 -38t42.5 -12l130 -16q60 -8 86 -39.5t26 -117.5z" />
    <glyph glyph-name="percent" unicode="%" horiz-adv-x="859" 
d="M199 311q-36 0 -59.5 3t-40.5 13t-26 22t-14 37t-6 49t-1 68q0 52 2 79.5t9.5 53.5t24 36.5t42.5 17t69 6.5t69 -6.5t42.5 -17t24 -36.5t9.5 -53.5t2 -79.5q0 -44 -1 -68t-6 -49t-14 -37t-26 -22t-40.5 -13t-59.5 -3zM161 0l448 688h89l-449 -688h-88zM199 378h27t17 5.5
t11.5 10.5t5.5 22.5t3 34v52.5v52t-3 34t-5.5 23t-11.5 10.5t-17.5 5.5h-26.5h-26.5t-17.5 -5.5t-11.5 -10.5t-5.5 -23t-3 -34v-52v-52.5t3 -34t5.5 -22.5t11.5 -10.5t17 -5.5h27zM660 -8q-36 0 -59.5 3t-40.5 13t-26 22t-14 37t-6 49t-1 68q0 52 2 79.5t9.5 53.5t24 36.5
t42.5 17t69 6.5q36 0 60 -3t40.5 -13.5t26 -22.5t14.5 -37t6 -49.5t1 -67.5q0 -44 -1 -68t-6 -49t-14 -37t-26.5 -22t-41 -13t-59.5 -3zM660 59q48 0 56 16t8 109q0 92 -8 108.5t-56 16.5h-26.5t-17 -5.5t-11.5 -10.5t-5.5 -23t-2.5 -34v-52v-52.5t3 -34t5 -22.5t11 -10.5
t17.5 -5.5h26.5z" />
    <glyph glyph-name="ampersand" unicode="&#x26;" horiz-adv-x="735" 
d="M465 401h241v-107h-108v-281q-119 -21 -237 -21q-97 0 -160 14t-93.5 42.5t-41 59.5t-10.5 76q0 79 29.5 114.5t94.5 50.5v4q-61 15 -89.5 52t-28.5 110q0 40 12.5 70.5t44 56.5t92.5 40t150 14q118 0 233 -22v-101q-109 14 -206 14q-85 0 -125 -9t-52.5 -27.5
t-12.5 -58.5q0 -49 20 -70t89 -21h72v-107h-72q-72 0 -93.5 -20t-21.5 -77q0 -60 35.5 -78.5t134.5 -18.5q48 0 103 5v296z" />
    <glyph glyph-name="quotesingle" unicode="'" horiz-adv-x="252" 
d="M80 433l-15 193v62h122v-62l-15 -193h-92z" />
    <glyph glyph-name="parenleft" unicode="(" horiz-adv-x="339" 
d="M228 -150q-43 48 -63 73.5t-43 64.5t-32 77.5t-15 95.5t-6 136q0 98 7 161t29 114t47 84t76 87h91q-33 -44 -45 -60.5t-32.5 -56.5t-27.5 -78t-13 -101.5t-6 -149.5t6 -150t13 -102t27.5 -78t32.5 -56.5t45 -60.5h-91z" />
    <glyph glyph-name="parenright" unicode=")" horiz-adv-x="339" 
d="M20 -150q33 44 45 60.5t32.5 56.5t27.5 78t13 102t6 150t-6 149.5t-13 101.5t-27.5 78t-32.5 56.5t-45 60.5h91q51 -54 75.5 -87t46.5 -84t29 -114t7 -161q0 -79 -6 -135.5t-14.5 -95.5t-31.5 -78t-43.5 -64.5t-62.5 -73.5h-91z" />
    <glyph glyph-name="asterisk" unicode="*" horiz-adv-x="447" 
d="M186 320l10 135l-114 -77l-38 67l124 58l-124 61l38 66l114 -77l-10 135h75l-11 -134l116 76l36 -66l-123 -61l123 -58l-36 -67l-115 77l10 -135h-75z" />
    <glyph glyph-name="plus" unicode="+" horiz-adv-x="539" 
d="M218 52v150h-148v101h148v149h102v-149h150v-101h-150v-150h-102z" />
    <glyph glyph-name="comma" unicode="," horiz-adv-x="274" 
d="M52 -140v58q41 0 54 12.5t13 52.5v17h-55v131h146v-94q0 -111 -28 -144t-130 -33z" />
    <glyph glyph-name="hyphen" unicode="-" horiz-adv-x="368" 
d="M53 228v113h263v-113h-263z" />
    <glyph glyph-name="period" unicode="." horiz-adv-x="274" 
d="M64 0v131h146v-131h-146z" />
    <glyph glyph-name="slash" unicode="/" horiz-adv-x="392" 
d="M-8 -55l290 798h116l-290 -798h-116z" />
    <glyph glyph-name="zero" unicode="0" horiz-adv-x="664" 
d="M331 -8q-44 0 -77 3t-60.5 8t-46.5 17.5t-33.5 24.5t-23.5 36t-15 45.5t-8.5 59t-3.5 71t-1 87.5t1 87.5t3.5 71t8.5 59t15 45.5t23.5 36t33.5 24.5t46.5 17.5t60.5 8t77 3q49 0 85.5 -3t65.5 -12.5t47.5 -20.5t32.5 -34t21.5 -45t11.5 -62.5t5 -77t1 -97.5t-1 -97.5
t-5 -77t-11.5 -62.5t-21.5 -45t-32.5 -34t-47.5 -20.5t-65.5 -12.5t-85.5 -3zM331 108h41t30.5 4.5t23 8.5t15 18.5t10.5 27.5t5 43t3 57v77v77t-3 57t-5 43t-10.5 27.5t-15 18.5t-23 8.5t-30.5 4.5h-41t-41 -0.5t-30.5 -4.5t-23 -8.5t-15 -18.5t-10.5 -27.5t-5 -42.5
t-3 -57v-77v-77t3 -57t5 -42.5t10.5 -27.5t15 -18.5t23 -8.5t30.5 -4.5t41 -0.5z" />
    <glyph glyph-name="one" unicode="1" horiz-adv-x="388" 
d="M158 0v535l-134 -57v119l178 91h98v-688h-142z" />
    <glyph glyph-name="two" unicode="2" horiz-adv-x="610" 
d="M196 144v-27h353v-117h-491v90q0 124 20 172t98 80q115 48 157 64q48 19 61 36t13 58q0 52 -27.5 66t-113.5 14q-75 0 -194 -14v109q108 21 237 21q57 0 94.5 -6t73.5 -24.5t54 -57.5t18 -99q0 -90 -28 -132.5t-92 -67.5l-179 -72q-33 -13 -42 -26q-12 -19 -12 -67z" />
    <glyph glyph-name="three" unicode="3" horiz-adv-x="605" 
d="M269 -8q-111 0 -216 20v108q122 -12 203 -12q84 0 113 15t29 74q0 55 -22.5 74t-84.5 19h-119v116h119q54 0 77 17t23 69q0 59 -27.5 73.5t-117.5 14.5q-94 0 -189 -13v109q95 20 213 20q147 0 206.5 -44.5t59.5 -136.5q0 -73 -29 -111t-89 -51v-4q63 -14 93.5 -50
t30.5 -115q0 -46 -11.5 -78.5t-40 -59.5t-84 -40.5t-137.5 -13.5z" />
    <glyph glyph-name="four" unicode="4" horiz-adv-x="646" 
d="M377 0v145h-339v103l251 440h155l-253 -427h187l38 188h102v-188h92v-116h-92v-145h-141z" />
    <glyph glyph-name="five" unicode="5" horiz-adv-x="621" 
d="M290 -8q-117 0 -217 20v108q122 -12 202 -12q89 0 116.5 20t27.5 82q0 65 -28.5 82t-121.5 17q-95 0 -188 -11v390h431v-117h-304v-154q72 8 134 8q128 0 174.5 -49t46.5 -154q0 -128 -55.5 -179t-217.5 -51z" />
    <glyph glyph-name="six" unicode="6" horiz-adv-x="662" 
d="M343 -8q-112 0 -167 17.5t-83 72.5q-31 66 -31 258q0 170 29 241q26 65 85.5 90t173.5 25q95 0 216 -21v-109q-121 14 -188 14q-61 0 -93 -6.5t-51.5 -30.5t-24 -60t-4.5 -106h7q41 49 167 49q123 0 174 -40t51 -160q0 -69 -10 -111t-39.5 -71.5t-79.5 -40.5t-132 -11z
M335 108q83 0 107 16.5t24 82.5q0 69 -23.5 86t-107.5 17q-82 0 -104.5 -17.5t-22.5 -68.5q0 -42 5.5 -65t22.5 -34.5t37 -14t62 -2.5z" />
    <glyph glyph-name="seven" unicode="7" horiz-adv-x="568" 
d="M114 0l261 571h-339v117h492v-107l-257 -581h-157z" />
    <glyph glyph-name="eight" unicode="8" horiz-adv-x="680" 
d="M340 -8q-85 0 -141 12.5t-85.5 39t-41 59.5t-11.5 81q0 81 29.5 115t95.5 50v4q-62 13 -90.5 50.5t-28.5 111.5q0 93 60 137t213 44t212.5 -44t59.5 -137q0 -74 -28.5 -111.5t-90.5 -50.5v-4q66 -16 95.5 -50t29.5 -115q0 -48 -11.5 -81t-41 -59.5t-85.5 -39t-140 -12.5z
M340 403q80 0 104 16t24 73q0 58 -23.5 74t-104.5 16q-82 0 -105 -16t-23 -74q0 -57 23.5 -73t104.5 -16zM340 107q83 0 108.5 15.5t25.5 75.5q0 61 -25.5 78t-108.5 17q-84 0 -109 -16.5t-25 -78.5q0 -60 25.5 -75.5t108.5 -15.5z" />
    <glyph glyph-name="nine" unicode="9" horiz-adv-x="662" 
d="M312 -8q-95 0 -216 21v109q121 -14 188 -14q61 0 93 6.5t51.5 30.5t24 60t4.5 106h-6q-42 -49 -168 -49q-123 0 -174 40t-51 160q0 69 10 111t39.5 71.5t79.5 40.5t132 11q123 0 178.5 -20.5t78.5 -88.5q25 -68 25 -239q0 -184 -38 -259q-28 -54 -86.5 -75.5
t-164.5 -21.5zM327 378q82 0 104.5 17.5t22.5 68.5q0 42 -5.5 65t-22.5 34.5t-37 14t-62 2.5q-83 0 -106.5 -16.5t-23.5 -82.5q0 -70 23 -86.5t107 -16.5z" />
    <glyph glyph-name="colon" unicode=":" horiz-adv-x="274" 
d="M64 378v132h146v-132h-146zM64 0v131h146v-131h-146z" />
    <glyph glyph-name="semicolon" unicode=";" horiz-adv-x="274" 
d="M64 378v132h146v-132h-146zM52 -140v58q41 0 54 12.5t13 52.5v17h-55v131h146v-94q0 -111 -28 -144t-130 -33z" />
    <glyph glyph-name="less" unicode="&#x3c;" horiz-adv-x="540" 
d="M471 45l-400 154v107l400 155v-104l-286 -104l286 -105v-103z" />
    <glyph glyph-name="equal" unicode="=" horiz-adv-x="539" 
d="M70 303v101h400v-101h-400zM70 101v101h400v-101h-400z" />
    <glyph glyph-name="greater" unicode="&#x3e;" horiz-adv-x="540" 
d="M70 45v103l286 105l-286 104v104l400 -155v-107z" />
    <glyph glyph-name="question" unicode="?" horiz-adv-x="510" 
d="M142 222v72q0 54 15.5 77.5t51.5 35.5l39 14q39 13 49.5 27.5t10.5 59.5q0 49 -22 60.5t-93 11.5q-75 0 -156 -11v110q99 17 204 17q111 0 159.5 -43t48.5 -145q0 -68 -20.5 -104t-62.5 -51l-43 -14q-43 -15 -51.5 -25t-8.5 -52v-40h-121zM130 0v131h146v-131h-146z" />
    <glyph glyph-name="at" unicode="@" horiz-adv-x="935" 
d="M467 -108q-100 0 -161 4t-108 24t-69 40.5t-35.5 75t-15.5 105.5t-2 153q0 61 0.5 97t4 79t8.5 66t16 50.5t24.5 40.5t36.5 28t49.5 20.5t66 11.5t82.5 7.5t103 1.5t103 -1t82.5 -7t65.5 -11t49.5 -20.5t36.5 -28t24.5 -40t16 -50.5t8 -66.5t4 -79.5t0.5 -98
q0 -47 -2.5 -80.5t-6 -57.5t-13 -39t-17.5 -24t-25.5 -12.5t-30 -4.5t-38.5 -1h-171l-5 54h-7q-22 -37 -55 -49t-80 -12q-70 0 -101.5 30.5t-31.5 100.5q0 78 27.5 105.5t107.5 27.5q51 0 137 -4v19q0 55 -17.5 66t-97.5 11q-54 0 -131 -5v86q89 13 170 13q66 0 105 -9.5
t59 -33.5t25.5 -53t5.5 -80v-211h70q28 0 38.5 7t16.5 41.5t6 114.5q0 53 -0.5 82t-2 66.5t-4.5 56t-9 42t-14.5 35t-21.5 24t-30 18.5t-39 11q-51 10 -208 10q-134 0 -185 -7q-27 -4 -46.5 -9.5t-35 -17t-25.5 -22.5t-17.5 -34t-11 -42.5t-5.5 -57.5t-2.5 -69t-0.5 -86
q0 -62 0.5 -95.5t3.5 -74.5t7.5 -60t14.5 -42t23.5 -32.5t34.5 -19.5t47 -13.5t63 -5.5q36 -2 136 -2q112 0 196 4v-58q-74 -3 -196 -3zM459 154q53 0 69.5 17t16.5 68v24h-104q-36 0 -45.5 -9t-9.5 -44t12.5 -45.5t60.5 -10.5z" />
    <glyph glyph-name="A" unicode="A" horiz-adv-x="687" 
d="M15 0l233 688h191l233 -688h-147l-50 152h-268l-48 -152h-144zM245 270h192l-94 289h-5z" />
    <glyph glyph-name="B" unicode="B" horiz-adv-x="673" 
d="M82 0v688h335q192 0 192 -173q0 -71 -28.5 -110t-89.5 -52v-4q68 -14 96.5 -53t28.5 -114q0 -88 -45 -135t-153 -47h-336zM224 404h142q56 0 78.5 18.5t22.5 64.5q0 52 -20 69t-81 17h-142v-169zM224 115h146q62 0 82.5 17.5t20.5 70.5q0 52 -21.5 70.5t-81.5 18.5h-146
v-177z" />
    <glyph glyph-name="C" unicode="C" horiz-adv-x="570" 
d="M348 -8q-64 0 -108.5 6t-77 23.5t-51.5 41.5t-30.5 66.5t-15 91t-3.5 123.5t3.5 123.5t15 91t30.5 66.5t51.5 41.5t77 23.5t108.5 6q100 0 170 -17v-109q-90 10 -135 10q-46 0 -72 -2t-48.5 -12t-32 -22.5t-16.5 -42.5t-8.5 -63.5t-1.5 -93.5t1.5 -93.5t8.5 -63.5
t16.5 -42.5t32 -22.5t48.5 -12t72 -2q76 0 139 10v-111q-75 -15 -174 -15z" />
    <glyph glyph-name="D" unicode="D" horiz-adv-x="685" 
d="M83 0v688h234q76 0 126 -5.5t85 -24.5t53.5 -38.5t28 -66.5t11.5 -88t2 -121t-2 -121t-11.5 -88t-28 -66.5t-53.5 -38.5t-85 -24.5t-126 -5.5h-234zM225 118h85h55t40.5 4t31 7.5t19.5 17.5t14 26t6 41t4 55v75v61t-2.5 48.5t-3.5 39t-7.5 28t-10.5 21t-17 13.5t-20.5 9
t-28.5 4t-35.5 2h-44.5h-85v-452z" />
    <glyph glyph-name="E" unicode="E" horiz-adv-x="611" 
d="M83 0v688h472v-118h-330v-164h283v-118h-283v-170h330v-118h-472z" />
    <glyph glyph-name="F" unicode="F" horiz-adv-x="572" 
d="M83 0v688h452v-118h-310v-182h273v-118h-273v-270h-142z" />
    <glyph glyph-name="G" unicode="G" horiz-adv-x="670" 
d="M365 -8q-65 0 -110 6t-80.5 22t-56 40t-34 65.5t-18 92.5t-4.5 126q0 72 5 122t18 91.5t34.5 66.5t56 42t80 23.5t109.5 6.5q117 0 227 -22v-111q-108 15 -172 15q-42 0 -63.5 -0.5t-49 -4t-39 -9t-26 -17.5t-19.5 -27.5t-10.5 -42t-6.5 -57t-1 -76.5q0 -55 2 -89
t8.5 -63t17 -43.5t30 -25t44 -13.5t63.5 -3q60 0 89 4v167h-113v114h249v-377q-113 -23 -230 -23z" />
    <glyph glyph-name="H" unicode="H" horiz-adv-x="720" 
d="M82 0v688h142v-281h272v281h143v-688h-143v285h-272v-285h-142z" />
    <glyph glyph-name="I" unicode="I" horiz-adv-x="306" 
d="M82 0v688h142v-688h-142z" />
    <glyph glyph-name="J" unicode="J" horiz-adv-x="388" 
d="M26 0v110l60 1.5t39 8t25.5 13t11.5 27.5t5.5 40t0.5 60v428h143v-389q0 -62 -0.5 -96.5t-6.5 -71.5t-11 -54t-23 -35t-33.5 -23.5t-51.5 -11.5t-67.5 -6.5t-91.5 -0.5z" />
    <glyph glyph-name="K" unicode="K" horiz-adv-x="678" 
d="M83 0v688h142v-279h69l212 279h157l-255 -329l258 -359h-163l-209 291h-69v-291h-142z" />
    <glyph glyph-name="L" unicode="L" horiz-adv-x="541" 
d="M83 0v688h142v-565h290v-123h-432z" />
    <glyph glyph-name="M" unicode="M" horiz-adv-x="897" 
d="M82 0v688h196l168 -453h6l168 453h195v-688h-137v479h-5l-178 -479h-98l-177 479h-5v-479h-133z" />
    <glyph glyph-name="N" unicode="N" horiz-adv-x="721" 
d="M82 0v688h147l269 -422h5v422h137v-688h-136l-281 445h-4v-445h-137z" />
    <glyph glyph-name="O" unicode="O" horiz-adv-x="708" 
d="M354 -8q-43 0 -76.5 2t-62 8.5t-49 13t-37 21t-27.5 27t-18.5 37t-11.5 45t-6.5 56t-3 65t-0.5 77.5t0.5 77.5t3 65t6.5 56t11.5 45t18.5 37t27.5 27t37 21t49 13t62 8.5t76.5 2q54 0 93.5 -3t71 -13.5t52 -21.5t35.5 -35t22.5 -45.5t12 -62.5t5.5 -76t1 -95t-1 -95
t-5.5 -76t-12 -62.5t-22.5 -45.5t-35.5 -35t-52 -21.5t-71 -13.5t-93.5 -3zM354 110h48t35.5 4.5t27 8.5t17.5 18.5t12.5 27.5t5.5 42.5t3 56v76.5v76.5t-3 56t-5.5 42.5t-12.5 27.5t-17.5 18.5t-27 8.5t-35.5 4.5h-48h-48t-35.5 -4.5t-27 -8.5t-17.5 -18.5t-12 -27.5
t-5.5 -42.5t-3.5 -56.5v-76v-76t3.5 -56.5t5.5 -42.5t12 -27.5t17.5 -18.5t27 -8.5t35.5 -4.5h48z" />
    <glyph glyph-name="P" unicode="P" horiz-adv-x="650" 
d="M83 0v688h317q65 0 107.5 -15.5t64.5 -47.5t30 -70t8 -95q0 -55 -7.5 -92t-29 -70.5t-65.5 -50t-111 -16.5h-172v-231h-142zM225 349h114q86 0 107 20t21 91q0 50 -7.5 70.5t-33 30t-84.5 9.5h-117v-221z" />
    <glyph glyph-name="Q" unicode="Q" horiz-adv-x="705" 
d="M513 -115l-75 111q-33 -4 -86 -4q-72 0 -119 5.5t-80.5 25t-51 39.5t-26.5 67.5t-11 90t-2 124.5t2 124.5t11 90t26.5 67.5t51 39.5t80.5 25t119 5.5q43 0 76.5 -2t61.5 -8t48.5 -13t37 -21t27.5 -27t19 -37t12 -44.5t6.5 -56t3 -65.5t0.5 -78q0 -146 -13.5 -213.5
t-62.5 -98.5l103 -144v-3h-158zM352 108h48t35.5 4.5t27 8.5t17.5 18.5t12 28t5.5 43t3.5 56.5v77v77t-3.5 56.5t-5.5 43t-12 28t-17.5 18.5t-27 8.5t-35.5 4.5h-48h-47.5t-35 -4.5t-27 -8.5t-17.5 -18.5t-12 -28t-5.5 -43t-3.5 -57v-76.5v-76.5t3.5 -57t5.5 -43t12 -28
t17.5 -18.5t27 -8.5t35 -4.5h47.5z" />
    <glyph glyph-name="R" unicode="R" horiz-adv-x="679" 
d="M632 0h-151l-98 251h-158v-251h-142v688h324q55 0 93.5 -10.5t61.5 -28t36 -46.5t17 -59.5t4 -73.5q0 -164 -97 -201zM350 369q84 0 105 19t21 82q0 64 -20 82t-104 18h-127v-201h125z" />
    <glyph glyph-name="S" unicode="S" horiz-adv-x="622" 
d="M325 -8q-137 0 -252 16v114q123 -12 210 -12q96 0 122 20q19 15 19 68q0 46 -9.5 59.5t-49.5 17.5l-147 18q-96 11 -130.5 59t-34.5 139q0 54 13 92t34 60t56 34t69.5 15.5t84.5 3.5q126 0 224 -20v-111q-96 13 -195 13q-91 0 -119 -16q-16 -8 -20 -22t-4 -42
q0 -45 11 -57t56 -17l158 -19q94 -10 123 -67q24 -46 24 -130q0 -71 -17 -116t-53 -66t-74 -27.5t-99 -6.5z" />
    <glyph glyph-name="T" unicode="T" horiz-adv-x="582" 
d="M219 0v565h-199v123h542v-123h-200v-565h-143z" />
    <glyph glyph-name="U" unicode="U" horiz-adv-x="696" 
d="M348 -8q-63 0 -105 5t-73.5 20.5t-49 36t-28 59.5t-13.5 82t-3 112v381h142v-417q0 -41 1 -62t5.5 -42.5t12 -30t23 -16.5t35.5 -9.5t53 -1.5t53 1.5t35.5 9.5t23 16t12 30.5t5 43t0.5 61.5v417h142v-381q0 -69 -3 -112t-13.5 -82t-27.5 -59.5t-48.5 -36t-73.5 -20.5
t-105 -5z" />
    <glyph glyph-name="V" unicode="V" horiz-adv-x="662" 
d="M236 0l-219 688h146l167 -536h6l164 536h144l-219 -688h-189z" />
    <glyph glyph-name="W" unicode="W" horiz-adv-x="983" 
d="M192 0l-169 688h143l122 -523h5l133 523h148l135 -523h5l115 523h142l-169 -688h-178l-125 475h-4l-125 -475h-178z" />
    <glyph glyph-name="X" unicode="X" horiz-adv-x="677" 
d="M18 0l233 345l-229 343h164l151 -228h8l152 228h159l-229 -340l232 -348h-164l-155 235h-8l-156 -235h-158z" />
    <glyph glyph-name="Y" unicode="Y" horiz-adv-x="623" 
d="M239 0v243l-235 445h149l157 -306h7l156 306h145l-236 -445v-243h-143z" />
    <glyph glyph-name="Z" unicode="Z" horiz-adv-x="613" 
d="M47 0v113l338 457h-327v118h507v-109l-342 -461h345v-118h-521z" />
    <glyph glyph-name="bracketleft" unicode="[" horiz-adv-x="365" 
d="M83 -150v893h239v-87l-119 -4v-711l119 -4v-87h-239z" />
    <glyph glyph-name="backslash" unicode="\" horiz-adv-x="392" 
d="M283 -55l-291 798h117l289 -798h-115z" />
    <glyph glyph-name="bracketright" unicode="]" horiz-adv-x="365" 
d="M43 -150v87l119 4v711l-119 4v87h240v-893h-240z" />
    <glyph glyph-name="asciicircum" unicode="^" horiz-adv-x="441" 
d="M28 444l141 305h103l140 -305h-98l-93 215l-94 -215h-99z" />
    <glyph glyph-name="underscore" unicode="_" horiz-adv-x="378" 
d="M0 -181v102h378v-102h-378z" />
    <glyph glyph-name="grave" unicode="`" horiz-adv-x="267" 
d="M151 582l-131 139v5h133l94 -139v-5h-96z" />
    <glyph glyph-name="a" unicode="a" horiz-adv-x="564" 
d="M196 -8q-77 0 -114.5 35t-37.5 116q0 89 33.5 124t126.5 35q52 0 156 -4v20q0 65 -22.5 79t-112.5 14q-76 0 -150 -9v101q97 15 194 15q75 0 120 -11t67.5 -39.5t29.5 -62.5t7 -94v-311h-125l-4 62h-7q-40 -70 -161 -70zM259 95q66 0 86 32q15 25 15 78v15h-120
q-43 0 -55.5 -11.5t-12.5 -52.5q0 -39 15.5 -50t71.5 -11z" />
    <glyph glyph-name="b" unicode="b" horiz-adv-x="584" 
d="M357 -8q-114 0 -151 71h-7l-4 -63h-125v743h133v-289h7q39 64 150 64q95 0 133 -56.5t38 -206.5t-39 -206.5t-135 -56.5zM300 106q36 0 53 3.5t28.5 20.5t14 43.5t2.5 81.5q0 54 -2.5 80.5t-14 43.5t-28.5 20.5t-53 3.5q-61 0 -79 -31q-18 -28 -18 -117t18 -118
q18 -31 79 -31z" />
    <glyph glyph-name="c" unicode="c" horiz-adv-x="461" 
d="M268 -8q-50 0 -86.5 7t-60 23.5t-37.5 35.5t-21 53t-9 64.5t-2 80.5q0 71 6.5 113.5t27.5 79.5t65 53t115 16q84 0 147 -15v-101q-52 9 -112 9q-76 0 -95 -28t-19 -128q0 -101 20 -128.5t96 -27.5q52 0 114 8v-100q-65 -15 -149 -15z" />
    <glyph glyph-name="d" unicode="d" horiz-adv-x="584" 
d="M227 -8q-96 0 -135.5 56.5t-39.5 205.5q0 150 38.5 207t133.5 57q110 0 149 -64h7v289h133v-743h-124l-4 63h-8q-36 -71 -150 -71zM284 106q66 0 84 41q12 30 12 108q0 77 -12 106q-17 42 -84 42t-82.5 -23.5t-15.5 -124.5q0 -102 15.5 -125.5t82.5 -23.5z" />
    <glyph glyph-name="e" unicode="e" horiz-adv-x="556" 
d="M503 254v-39h-318q0 -43 3 -62t18 -33.5t41.5 -18t80.5 -3.5q69 0 155 9v-99q-70 -16 -186 -16q-57 0 -97 5.5t-67 20.5t-43 33t-24.5 51t-11 66t-2.5 86q0 61 4 98.5t17 72.5t39 53.5t68.5 29t105.5 10.5q45 0 78 -5.5t56.5 -14t39 -27t24.5 -35.5t13 -49.5t5 -59
t1 -73.5zM284 414q-64 0 -81 -21t-18 -96h192q0 76 -18 96.5t-75 20.5z" />
    <glyph glyph-name="f" unicode="f" horiz-adv-x="404" 
d="M120 0v403h-98v107h98v46q0 34 2 59.5t9.5 45.5t15.5 33t25.5 22.5t33 14t46 7.5t56.5 3.5t71 0.5v-97q-85 0 -105.5 -11t-20.5 -56v-68h126v-107h-126v-403h-133z" />
    <glyph glyph-name="g" unicode="g" horiz-adv-x="584" 
d="M266 -206q-111 0 -176 12v98q120 -3 144 -3q54 0 81 4t43 20.5t19 38.5t3 70v30h-6q-36 -65 -147 -65q-98 0 -136.5 54.5t-38.5 202.5q0 149 39.5 205.5t135.5 56.5q113 0 150 -72h8l4 64h124v-450q0 -52 -2.5 -84.5t-11 -66t-24.5 -52.5t-43.5 -34.5t-68 -22t-97.5 -6.5
zM284 112q61 0 80 33q16 26 16 112q0 84 -15 112q-20 35 -81 35q-67 0 -82.5 -23.5t-15.5 -123.5q0 -98 15.5 -121.5t82.5 -23.5z" />
    <glyph glyph-name="h" unicode="h" horiz-adv-x="592" 
d="M70 0v743h133v-293h8q38 67 150 67q98 0 129 -45.5t31 -152.5v-319h-133v270q0 50 -2 73.5t-12.5 39t-25.5 18t-48 2.5q-61 0 -79 -29.5t-18 -109.5v-264h-133z" />
    <glyph glyph-name="i" unicode="i" horiz-adv-x="275" 
d="M69 625v118h137v-118h-137zM70 0v510h134v-510h-134z" />
    <glyph glyph-name="j" unicode="j" horiz-adv-x="275" 
d="M69 625v118h137v-118h-137zM-17 -200v99q58 0 72.5 10.5t14.5 42.5v558h134v-530q0 -63 -8.5 -98t-37 -54t-65.5 -23.5t-110 -4.5z" />
    <glyph glyph-name="k" unicode="k" horiz-adv-x="557" 
d="M70 0v743h133v-434h42l146 201h144l-183 -245l186 -265h-149l-144 202h-42v-202h-133z" />
    <glyph glyph-name="l" unicode="l" horiz-adv-x="275" 
d="M70 0v743h134v-743h-134z" />
    <glyph glyph-name="m" unicode="m" horiz-adv-x="870" 
d="M70 0v510h125l4 -64h7q38 72 147 72q60 0 91.5 -17.5t45.5 -54.5h8q38 72 150 72q91 0 121 -46.5t30 -152.5v-319h-133v270q0 92 -12.5 112.5t-66.5 20.5q-55 0 -70.5 -28.5t-15.5 -110.5v-264h-133v270q0 92 -12.5 112.5t-66.5 20.5t-70 -29t-16 -110v-264h-133z" />
    <glyph glyph-name="n" unicode="n" horiz-adv-x="592" 
d="M70 0v510h125l4 -64h8q37 72 154 72q98 0 129 -46t31 -153v-319h-133v270q0 50 -2 73.5t-12.5 39t-25.5 18t-48 2.5q-61 0 -79 -29.5t-18 -109.5v-264h-133z" />
    <glyph glyph-name="o" unicode="o" horiz-adv-x="572" 
d="M286 -8q-56 0 -94 4.5t-65 19t-41 30.5t-22 50.5t-10 67.5t-2 92t2 92t10 67t22 50t41 30t65 18.5t94 4.5t94 -4.5t65 -18.5t41 -30t22 -50t10 -67t2 -92t-2 -92t-10 -67.5t-22 -50.5t-41 -30.5t-65 -19t-94 -4.5zM286 99q27 0 42.5 1t28 9.5t17.5 15t8 29.5t3.5 41
t0.5 61v47.5t-1.5 35.5t-3.5 28t-7.5 18.5t-12 14t-18 6.5t-24.5 4.5t-33 0.5t-33 -0.5t-24.5 -4.5t-18 -6.5t-12 -14t-7.5 -18.5t-3.5 -28t-1.5 -35.5v-47.5q0 -43 0.5 -61t3.5 -41t8 -29.5t17.5 -15t28 -9.5t42.5 -1z" />
    <glyph glyph-name="p" unicode="p" horiz-adv-x="584" 
d="M70 -199v709h125l4 -64h7q38 72 151 72q96 0 135 -56t39 -206t-38 -207t-133 -57q-111 0 -149 64h-8v-255h-133zM300 107q36 0 53 3.5t28.5 20.5t14 43.5t2.5 80.5q0 101 -16 125t-82 24t-83 -39q-14 -28 -14 -110q0 -81 13 -109q17 -39 84 -39z" />
    <glyph glyph-name="q" unicode="q" horiz-adv-x="585" 
d="M380 -199v255h-6q-23 -37 -59.5 -50.5t-90.5 -13.5q-95 0 -133.5 56.5t-38.5 205.5q0 150 39.5 207t135.5 57q113 0 150 -72h8l4 64h124v-709h-133zM284 107q67 0 85 41q11 28 11 107q0 89 -17 117q-19 32 -79 32q-67 0 -82.5 -24t-15.5 -125t15.5 -124.5t82.5 -23.5z
" />
    <glyph glyph-name="r" unicode="r" horiz-adv-x="394" 
d="M70 0v510h125l4 -88h8q19 54 58 75t105 21v-127q-97 0 -132 -40.5t-35 -146.5v-204h-133z" />
    <glyph glyph-name="s" unicode="s" horiz-adv-x="498" 
d="M257 -8q-103 0 -197 14v101q88 -9 169 -9q65 0 81.5 10t16.5 41q0 29 -8.5 36t-45.5 12l-118 15q-66 8 -88.5 43.5t-22.5 108.5q0 50 14.5 81.5t44.5 47t63.5 20.5t84.5 5q101 0 174 -16v-100q-80 10 -155 10q-60 0 -80 -8.5t-20 -39.5q0 -28 7.5 -35.5t40.5 -11.5
l128 -16q58 -7 82.5 -35.5t24.5 -113.5q0 -98 -47 -129t-149 -31z" />
    <glyph glyph-name="t" unicode="t" horiz-adv-x="390" 
d="M119 0v403h-98v107h98v148h133v-148h116v-107h-116v-403h-133z" />
    <glyph glyph-name="u" unicode="u" horiz-adv-x="592" 
d="M231 -8q-98 0 -129.5 46t-31.5 153v319h133v-270q0 -92 14 -112.5t75 -20.5t78.5 29t17.5 110v264h133v-510h-124l-4 64h-8q-37 -72 -154 -72z" />
    <glyph glyph-name="v" unicode="v" horiz-adv-x="540" 
d="M182 0l-164 510h137l112 -386h10l110 386h135l-163 -510h-177z" />
    <glyph glyph-name="w" unicode="w" horiz-adv-x="831" 
d="M165 0l-142 510h134l90 -367h8l101 367h122l101 -367h9l89 367h131l-143 -510h-161l-85 299h-8l-84 -299h-162z" />
    <glyph glyph-name="x" unicode="x" horiz-adv-x="557" 
d="M19 0l177 259l-171 251h147l106 -158h7l105 158h141l-171 -250l178 -260h-148l-113 166h-6l-112 -166h-140z" />
    <glyph glyph-name="y" unicode="y" horiz-adv-x="592" 
d="M279 -206q-107 0 -173 11v99q105 -3 142 -3q52 0 78.5 4t41.5 21t17.5 37.5t2.5 66.5v35h-7q-37 -66 -150 -66q-98 0 -129.5 45.5t-31.5 151.5v314h133v-265q0 -92 14 -112.5t75 -20.5t78.5 29t17.5 110v259h133v-452q0 -52 -2.5 -84.5t-10.5 -65.5t-24 -52t-43 -34.5
t-66.5 -21.5t-95.5 -6z" />
    <glyph glyph-name="z" unicode="z" horiz-adv-x="520" 
d="M48 0v100l252 303h-240v107h410v-100l-253 -303h255v-107h-424z" />
    <glyph glyph-name="braceleft" unicode="{" horiz-adv-x="351" 
d="M239 -150q-9 4 -25 15.5t-40.5 34t-41.5 58t-17 74.5v116q0 115 -91 117v62q91 2 91 118v115q0 40 17 75.5t41.5 58t40.5 34t25 15.5h92q-15 -13 -30.5 -29t-40 -60t-24.5 -86v-122q0 -124 -112 -146v-7q112 -22 112 -147v-121q0 -42 24.5 -86t40 -60t30.5 -29h-92z" />
    <glyph glyph-name="bar" unicode="|" horiz-adv-x="290" 
d="M86 -161v904h117v-904h-117z" />
    <glyph glyph-name="braceright" unicode="}" horiz-adv-x="351" 
d="M19 -150q15 13 30.5 29t40 60t24.5 86v121q0 125 112 147v7q-112 22 -112 146v122q0 42 -24.5 86t-40 60t-30.5 29h92q9 -4 25 -15.5t40.5 -34t41.5 -58t17 -75.5v-115q0 -116 91 -118v-62q-91 -2 -91 -117v-116q0 -39 -17 -74.5t-41.5 -58t-40.5 -34t-25 -15.5h-92z" />
    <glyph glyph-name="asciitilde" unicode="~" horiz-adv-x="497" 
d="M57 230q0 31 1 48t5.5 36t14 28.5t25.5 15.5t41 6q36 0 118 -20q56 -15 80 -15q19 0 23 8.5t4 37.5h69q0 -74 -14.5 -104t-71.5 -30q-40 0 -118 21q-64 15 -80 15q-19 0 -23 -8.5t-4 -38.5h-70z" />
    <glyph glyph-name="uni00A0" unicode="&#xa0;" horiz-adv-x="246" 
 />
    <glyph glyph-name="exclamdown" unicode="&#xa1;" horiz-adv-x="291" 
d="M72 379v131h146v-131h-146zM67 -178v58q0 51 12 214.5t16 192.5h100q4 -29 16 -192.5t12 -214.5v-58h-156z" />
    <glyph glyph-name="cent" unicode="&#xa2;" horiz-adv-x="467" 
d="M419 187v-104q-46 -13 -93 -15v-76h-98v76q-54 5 -89 25t-53 58t-24.5 81.5t-6.5 109.5q0 129 37 197.5t136 77.5v79h98v-80q46 -2 89 -14v-104q-52 9 -109 9q-74 0 -93 -29.5t-19 -135.5t20 -135t94 -29q57 0 111 9z" />
    <glyph glyph-name="sterling" unicode="&#xa3;" horiz-adv-x="598" 
d="M264 116h291v-116h-509v116h74v181h-74v113h75q0 164 54 225t211 61q91 0 157 -16v-109q-76 9 -119 9q-93 0 -121 -21q-23 -15 -31 -48.5t-8 -100.5h204v-113h-204v-181z" />
    <glyph glyph-name="currency" unicode="&#xa4;" horiz-adv-x="678" 
d="M124 -2l-71 72l75 76q-23 46 -23 199q0 151 22 198l-75 75l72 72l85 -85q46 13 130 13t130 -13l85 86l72 -72l-76 -76q23 -49 23 -198q0 -151 -24 -199l77 -76l-72 -73l-86 86q-46 -13 -129 -13q-84 0 -130 13zM339 177q20 0 33 0.5t24.5 5t18 7.5t12 15.5t7.5 20
t3.5 30.5t1.5 38.5v50.5q0 46 -0.5 65t-3.5 43.5t-8 31.5t-17.5 15.5t-28 9.5t-42.5 1q-18 0 -30 -1t-23.5 -2t-18 -7t-12 -9.5t-8.5 -16t-5 -20.5t-3 -29t-1 -35v-46v-50.5t1.5 -38.5t3.5 -30.5t7.5 -20t12 -15.5t18 -7.5t25 -5t33.5 -0.5z" />
    <glyph glyph-name="yen" unicode="&#xa5;" horiz-adv-x="627" 
d="M241 0v218h-188v77h170l-42 75h-128v77h90l-120 241h147l141 -307h7l142 307h142l-120 -241h90v-77h-129l-42 -75h171v-77h-188v-218h-143z" />
    <glyph glyph-name="brokenbar" unicode="&#xa6;" horiz-adv-x="290" 
d="M86 390v353h117v-353h-117zM86 -161v353h117v-353h-117z" />
    <glyph glyph-name="section" unicode="&#xa7;" horiz-adv-x="691" 
d="M327 -171q-49 0 -95 3.5t-68 6.5t-26 5v106q36 -6 139 -6q93 0 118 8t25 42q0 30 -8 39t-41 19l-197 57q-70 20 -98.5 52t-28.5 113q0 77 21 120t80 53q-12 23 -12 86q0 94 57.5 128.5t169.5 34.5q49 0 95 -3.5t68 -6.5t26 -5v-106q-36 6 -139 6q-93 0 -118 -8t-25 -42
q0 -31 8 -40t42 -19l197 -58q70 -21 98 -52.5t28 -112.5q0 -76 -21 -119t-80 -54q12 -28 12 -85q0 -94 -57.5 -128t-169.5 -34zM476 153q40 0 40 74q0 39 -10 53t-42 22l-202 58q-7 1 -17 4t-17.5 5t-12.5 2q-40 0 -40 -75q0 -39 10 -53t43 -22l201 -59q38 -9 47 -9z" />
    <glyph glyph-name="dieresis" unicode="&#xa8;" horiz-adv-x="360" 
d="M20 604v101h113v-101h-113zM226 604v101h114v-101h-114z" />
    <glyph glyph-name="copyright" unicode="&#xa9;" horiz-adv-x="741" 
d="M370 -8q-44 0 -76.5 1.5t-61.5 7t-49 10.5t-36.5 19t-27 25t-18.5 35.5t-11.5 44.5t-6 57.5t-3 68.5t-0.5 83q0 66 1 102t5 78.5t11.5 63t22.5 44t34.5 32.5t51.5 18.5t70.5 11.5t93.5 2t93.5 -2t70.5 -11.5t52 -18.5t35 -32.5t22.5 -44t11.5 -63t5 -78.5t1 -102
q0 -52 -0.5 -83t-3 -68.5t-6 -57.5t-11.5 -44.5t-18.5 -35.5t-27.5 -25t-37 -19t-48.5 -10.5t-61.5 -7t-77 -1.5zM370 47q50 0 76.5 0.5t56 6.5t42.5 10.5t27.5 24t18.5 34.5t8.5 54t4.5 71v96v96t-4.5 71t-8.5 54t-18.5 34.5t-27.5 24t-42.5 10.5t-56 6.5t-76.5 0.5
t-76.5 -0.5t-56 -6.5t-42.5 -10.5t-27.5 -24t-18.5 -34.5t-8.5 -54t-4.5 -71v-96v-96t4.5 -71t8.5 -54t18.5 -34.5t27.5 -24t42.5 -10.5t56 -6.5t76.5 -0.5zM392 153q-97 0 -125 38t-28 151t28 151t125 38q56 0 92 -9v-62q-40 5 -73 5q-64 0 -77 -18.5t-13 -104.5t13 -104.5
t77 -18.5q42 0 75 5v-64q-39 -7 -94 -7z" />
    <glyph glyph-name="ordfeminine" unicode="&#xaa;" horiz-adv-x="414" 
d="M146 313q-57 0 -82.5 26t-25.5 85q0 64 23 89t90 25q39 0 113 -4v16q0 45 -15.5 55t-85.5 10q-41 0 -104 -6v75q70 12 141 12q55 0 88.5 -8.5t49.5 -29.5t21 -45.5t5 -67.5v-228h-94l-5 42h-5q-33 -46 -114 -46zM193 386q51 0 63 23q8 16 8 55v15h-84q-30 0 -39 -8.5
t-9 -37.5t11 -38t50 -9z" />
    <glyph glyph-name="guillemotleft" unicode="&#xab;" horiz-adv-x="493" 
d="M163 99l-132 205l132 206h88l-107 -206l107 -205h-88zM348 99l-132 205l132 206h88l-108 -206l108 -205h-88z" />
    <glyph glyph-name="logicalnot" unicode="&#xac;" horiz-adv-x="539" 
d="M368 53v149h-298v103h399v-252h-101z" />
    <glyph glyph-name="uni00AD" unicode="&#xad;" horiz-adv-x="368" 
d="M53 228v113h263v-113h-263z" />
    <glyph glyph-name="registered" unicode="&#xae;" horiz-adv-x="741" 
d="M370 696q55 0 93.5 -2t70.5 -11.5t52 -18.5t35 -32.5t22.5 -44t11.5 -63t5 -78.5t1 -102q0 -52 -0.5 -83t-3 -68.5t-6 -57.5t-11.5 -44.5t-18.5 -35.5t-27.5 -25t-37 -19t-48.5 -10.5t-61.5 -7t-77 -1.5t-76.5 1.5t-61.5 7t-49 10.5t-36.5 19t-27 25t-18.5 35.5
t-11.5 44.5t-6 57.5t-3 68.5t-0.5 83q0 66 1 102t5 78.5t11.5 63t22.5 44t34.5 32.5t51.5 18.5t70.5 11.5t93.5 2zM370 47q50 0 76.5 0.5t56 6.5t42.5 10.5t27.5 24t18.5 34.5t8.5 54t4.5 71v96v96t-4.5 71t-8.5 54t-18.5 34.5t-27.5 24t-42.5 10.5t-56 6.5t-76.5 0.5
t-76.5 -0.5t-56 -6.5t-42.5 -10.5t-27.5 -24t-18.5 -34.5t-8.5 -54t-4.5 -71v-96v-96t4.5 -71t8.5 -54t18.5 -34.5t27.5 -24t42.5 -10.5t56 -6.5t76.5 -0.5zM518 411q0 -87 -53 -107l60 -146h-85l-51 135q-8 -1 -22 -1h-58v-134h-79v370h170q74 0 96 -28.5t22 -88.5z
M369 356q46 0 57.5 10.5t11.5 43.5t-11 42.5t-53 9.5h-65v-106h60z" />
    <glyph glyph-name="macron" unicode="&#xaf;" horiz-adv-x="381" 
d="M33 604v84h315v-84h-315z" />
    <glyph glyph-name="degree" unicode="&#xb0;" horiz-adv-x="393" 
d="M196 397q-50 0 -78.5 7t-42.5 27.5t-17 43.5t-3 71q0 47 3 70.5t17 44.5t42.5 28t78.5 7q51 0 79.5 -7t42.5 -28t17 -44t3 -71q0 -38 -2 -58t-9 -41t-22.5 -30t-41.5 -14.5t-67 -5.5zM196 459q42 0 50.5 14t8.5 73t-8.5 73t-50.5 14t-50.5 -14t-8.5 -73t8.5 -73t50.5 -14
z" />
    <glyph glyph-name="plusminus" unicode="&#xb1;" horiz-adv-x="539" 
d="M218 185v150h-148v101h148v149h102v-149h150v-101h-150v-150h-102zM70 0v102h400v-102h-400z" />
    <glyph glyph-name="uni00B2" unicode="&#xb2;" horiz-adv-x="352" 
d="M35 420v55q0 65 10 90.5t53 43.5l92 36q27 11 32 18t5 31q0 27 -13.5 34.5t-57.5 7.5q-54 0 -113 -7v63q66 11 135 11q33 0 54 -3t42 -13t31 -32t10 -56q0 -48 -16.5 -72t-56.5 -40l-101 -40q-13 -5 -16.5 -11.5t-3.5 -20.5v-27h194v-68h-280z" />
    <glyph glyph-name="uni00B3" unicode="&#xb3;" horiz-adv-x="349" 
d="M155 416q-65 0 -123 10v62q78 -6 114 -6q44 0 60 8.5t16 38.5t-12 40t-44 10h-69v65h69q28 0 40.5 9.5t12.5 37.5q0 30 -15 37.5t-64 7.5q-58 0 -106 -6v63q68 10 122 10q84 0 117.5 -23t33.5 -76q0 -41 -16.5 -61.5t-50.5 -28.5v-2q36 -7 53.5 -27t17.5 -64
q0 -55 -33 -80t-123 -25z" />
    <glyph glyph-name="acute" unicode="&#xb4;" horiz-adv-x="267" 
d="M20 582v5l94 139h133v-5l-131 -139h-96z" />
    <glyph glyph-name="uni00B5" unicode="&#xb5;" horiz-adv-x="592" 
d="M388 510h133v-510h-124l-4 64h-8q-38 -71 -152 -71q-15 0 -30 3v-185h-133v699h133v-270q0 -92 14 -112.5t75 -20.5t78.5 29t17.5 110v264z" />
    <glyph glyph-name="paragraph" unicode="&#xb6;" horiz-adv-x="619" 
d="M296 -144v366q-46 0 -77 1.5t-58.5 7t-43.5 11t-29 20.5t-19 29t-10.5 41.5t-5 53t-0.5 68.5t1 68.5t4.5 53.5t10 42t19.5 29t29 21t43 11.5t58.5 7t77.5 1.5h91v-832h-91zM453 -144v832h88v-832h-88z" />
    <glyph glyph-name="periodcentered" unicode="&#xb7;" horiz-adv-x="273" 
d="M64 234v131h146v-131h-146z" />
    <glyph glyph-name="cedilla" unicode="&#xb8;" horiz-adv-x="202" 
d="M20 -190v5l76 203h88v-5l-39 -203h-125z" />
    <glyph glyph-name="uni00B9" unicode="&#xb9;" horiz-adv-x="229" 
d="M90 420v292l-75 -33v69l101 50h59v-378h-85z" />
    <glyph glyph-name="ordmasculine" unicode="&#xba;" horiz-adv-x="430" 
d="M215 313q-40 0 -68 4t-47 14.5t-30 23.5t-17 37.5t-7.5 48t-1.5 63.5q0 60 4.5 91t21.5 57t51 35t94 9t94 -9t51 -35t21.5 -57t4.5 -91q0 -40 -1.5 -63.5t-7.5 -48t-17 -37.5t-30 -23.5t-47 -14.5t-68 -4zM215 393q51 0 60.5 16.5t9.5 94.5t-9.5 95t-60.5 17t-60.5 -17
t-9.5 -95t9.5 -94.5t60.5 -16.5z" />
    <glyph glyph-name="guillemotright" unicode="&#xbb;" horiz-adv-x="493" 
d="M57 99l108 205l-108 206h88l132 -206l-132 -205h-88zM242 99l107 205l-107 206h88l131 -206l-131 -205h-88z" />
    <glyph glyph-name="onequarter" unicode="&#xbc;" horiz-adv-x="686" 
d="M38 0l448 688h90l-448 -688h-90zM90 308v292l-75 -33v69l101 50h59v-378h-85zM532 0v78h-190v59l130 241h94l-134 -233h103l24 100h59v-100h49v-67h-49v-78h-86z" />
    <glyph glyph-name="onehalf" unicode="&#xbd;" horiz-adv-x="737" 
d="M38 0l448 688h90l-448 -688h-90zM90 308v292l-75 -33v69l101 50h59v-378h-85zM420 0v55q0 65 10 90.5t53 43.5l92 36q27 11 32 18t5 31q0 27 -13.5 34.5t-57.5 7.5q-54 0 -113 -7v63q66 11 135 11q33 0 54 -3t42 -13t31 -32t10 -56q0 -48 -16.5 -72t-56.5 -40l-101 -40
q-13 -5 -16.5 -11.5t-3.5 -20.5v-27h194v-68h-280z" />
    <glyph glyph-name="threequarters" unicode="&#xbe;" horiz-adv-x="806" 
d="M155 304q-65 0 -123 10v62q78 -6 114 -6q44 0 60 8.5t16 38.5t-12 40t-44 10h-69v65h69q28 0 40.5 9.5t12.5 37.5q0 30 -15 37.5t-64 7.5q-58 0 -106 -6v63q68 10 122 10q84 0 117.5 -23t33.5 -76q0 -41 -16.5 -61.5t-50.5 -28.5v-2q36 -7 53.5 -27t17.5 -64
q0 -55 -33 -80t-123 -25zM158 0l448 688h90l-448 -688h-90zM652 0v78h-190v59l130 241h94l-134 -233h103l24 100h59v-100h49v-67h-49v-78h-86z" />
    <glyph glyph-name="questiondown" unicode="&#xbf;" horiz-adv-x="450" 
d="M229 379v131h146v-131h-146zM264 -186q-113 0 -160.5 43.5t-47.5 144.5q0 66 19 103t60 51l42 14q47 16 56 25.5t9 52.5v40h121v-72q0 -54 -15.5 -77.5t-51.5 -35.5l-33 -12q-44 -14 -55 -28t-11 -61q0 -49 22 -60.5t93 -11.5q69 0 157 11v-110q-100 -17 -205 -17z" />
    <glyph glyph-name="Agrave" unicode="&#xc0;" horiz-adv-x="687" 
d="M324 760l-131 139v5h133l95 -139v-5h-97zM15 0l233 688h191l233 -688h-147l-50 152h-268l-48 -152h-144zM245 270h192l-94 289h-5z" />
    <glyph glyph-name="Aacute" unicode="&#xc1;" horiz-adv-x="687" 
d="M270 760v5l94 139h134v-5l-132 -139h-96zM15 0l233 688h191l233 -688h-147l-50 152h-268l-48 -152h-144zM245 270h192l-94 289h-5z" />
    <glyph glyph-name="Acircumflex" unicode="&#xc2;" horiz-adv-x="687" 
d="M183 760v7l96 137h128l97 -137v-7h-88l-73 85l-73 -85h-87zM15 0l233 688h191l233 -688h-147l-50 152h-268l-48 -152h-144zM245 270h192l-94 289h-5z" />
    <glyph glyph-name="Atilde" unicode="&#xc3;" horiz-adv-x="687" 
d="M162 759q0 31 1 48t5.5 36t14 28.5t25.5 15.5t41 6q33 0 109 -20q51 -15 72 -15q19 0 23 8.5t4 37.5h69q0 -74 -15 -103.5t-71 -29.5q-41 0 -109 20q-58 15 -72 15q-19 0 -23 -8.5t-4 -38.5h-70zM15 0l233 688h191l233 -688h-147l-50 152h-268l-48 -152h-144zM245 270
h192l-94 289h-5z" />
    <glyph glyph-name="Adieresis" unicode="&#xc4;" horiz-adv-x="687" 
d="M183 782v101h113v-101h-113zM390 782v101h113v-101h-113zM15 0l233 688h191l233 -688h-147l-50 152h-268l-48 -152h-144zM245 270h192l-94 289h-5z" />
    <glyph glyph-name="Aring" unicode="&#xc5;" horiz-adv-x="687" 
d="M440 684l232 -684h-147l-50 152h-268l-48 -152h-144l231 683q-31 11 -40 35t-9 72q0 36 3.5 54t17.5 35t43.5 23.5t79.5 6.5q51 0 81 -6.5t44 -23.5t17.5 -35t3.5 -54q0 -47 -8.5 -70.5t-38.5 -35.5zM341 849q-47 0 -57.5 -11t-10.5 -48t10.5 -47.5t57.5 -10.5
q49 0 59.5 10.5t10.5 47.5q0 21 -1 29.5t-7.5 17t-21 10.5t-40.5 2zM245 270h192l-94 289h-5z" />
    <glyph glyph-name="AE" unicode="&#xc6;" horiz-adv-x="968" 
d="M-14 0l321 688h605v-118h-389l34 -164h308v-118h-284l35 -170h296v-118h-417l-30 152h-267l-70 -152h-142zM250 270h193l-57 288h-5z" />
    <glyph glyph-name="Ccedilla" unicode="&#xc7;" horiz-adv-x="570" 
d="M522 118v-111q-48 -9 -122 -14l-35 -183h-125v5l67 178q-54 2 -92.5 10t-66 26.5t-44 43t-26.5 66t-13 88.5t-3 117q0 75 3.5 123.5t15 91t30.5 66.5t51.5 41.5t77 23.5t108.5 6q100 0 170 -17v-109q-90 10 -135 10q-46 0 -72 -2t-48.5 -12t-32 -22.5t-16.5 -42.5
t-8.5 -63.5t-1.5 -93.5t1.5 -93.5t8.5 -63.5t16.5 -42.5t32 -22.5t48.5 -12t72 -2q76 0 139 10z" />
    <glyph glyph-name="Egrave" unicode="&#xc8;" horiz-adv-x="611" 
d="M300 760l-131 139v5h133l95 -139v-5h-97zM83 0v688h472v-118h-330v-164h283v-118h-283v-170h330v-118h-472z" />
    <glyph glyph-name="Eacute" unicode="&#xc9;" horiz-adv-x="611" 
d="M246 760v5l94 139h134v-5l-132 -139h-96zM83 0v688h472v-118h-330v-164h283v-118h-283v-170h330v-118h-472z" />
    <glyph glyph-name="Ecircumflex" unicode="&#xca;" horiz-adv-x="611" 
d="M159 760v7l96 137h128l97 -137v-7h-88l-73 85l-73 -85h-87zM83 0v688h472v-118h-330v-164h283v-118h-283v-170h330v-118h-472z" />
    <glyph glyph-name="Edieresis" unicode="&#xcb;" horiz-adv-x="611" 
d="M159 782v101h113v-101h-113zM366 782v101h113v-101h-113zM83 0v688h472v-118h-330v-164h283v-118h-283v-170h330v-118h-472z" />
    <glyph glyph-name="Igrave" unicode="&#xcc;" horiz-adv-x="306" 
d="M133 760l-131 139v5h133l95 -139v-5h-97zM82 0v688h142v-688h-142z" />
    <glyph glyph-name="Iacute" unicode="&#xcd;" horiz-adv-x="306" 
d="M80 760v5l94 139h134v-5l-132 -139h-96zM82 0v688h142v-688h-142z" />
    <glyph glyph-name="Icircumflex" unicode="&#xce;" horiz-adv-x="306" 
d="M-7 760v7l96 137h128l97 -137v-7h-88l-73 85l-73 -85h-87zM82 0v688h142v-688h-142z" />
    <glyph glyph-name="Idieresis" unicode="&#xcf;" horiz-adv-x="306" 
d="M-7 782v101h113v-101h-113zM200 782v101h113v-101h-113zM82 0v688h142v-688h-142z" />
    <glyph glyph-name="Eth" unicode="&#xd0;" horiz-adv-x="686" 
d="M83 0v296h-67v104h67v288h234q76 0 126 -5.5t85 -24.5t53.5 -38.5t28 -66.5t11.5 -88t2 -121t-2 -121t-11.5 -88t-28 -66.5t-53.5 -38.5t-85 -24.5t-126 -5.5h-234zM225 118h85h55t40.5 4t31 7.5t19.5 17.5t14 26t6 41t4 55v75v61t-2.5 48.5t-3.5 39t-7.5 28t-10.5 21
t-17 13.5t-20.5 9t-28.5 4t-35.5 2h-44.5h-85v-170h93v-104h-93v-178z" />
    <glyph glyph-name="Ntilde" unicode="&#xd1;" horiz-adv-x="721" 
d="M189 759q0 31 1 48t5.5 36t14 28.5t25.5 15.5t41 6q33 0 109 -20q51 -15 72 -15q19 0 23 8.5t4 37.5h69q0 -74 -15 -103.5t-71 -29.5q-41 0 -109 20q-58 15 -72 15q-19 0 -23 -8.5t-4 -38.5h-70zM82 0v688h147l269 -422h5v422h137v-688h-136l-281 445h-4v-445h-137z" />
    <glyph glyph-name="Ograve" unicode="&#xd2;" horiz-adv-x="708" 
d="M335 760l-131 139v5h133l95 -139v-5h-97zM354 -8q-43 0 -76.5 2t-62 8.5t-49 13t-37 21t-27.5 27t-18.5 37t-11.5 45t-6.5 56t-3 65t-0.5 77.5t0.5 77.5t3 65t6.5 56t11.5 45t18.5 37t27.5 27t37 21t49 13t62 8.5t76.5 2q54 0 93.5 -3t71 -13.5t52 -21.5t35.5 -35
t22.5 -45.5t12 -62.5t5.5 -76t1 -95t-1 -95t-5.5 -76t-12 -62.5t-22.5 -45.5t-35.5 -35t-52 -21.5t-71 -13.5t-93.5 -3zM354 110h48t35.5 4.5t27 8.5t17.5 18.5t12.5 27.5t5.5 42.5t3 56v76.5v76.5t-3 56t-5.5 42.5t-12.5 27.5t-17.5 18.5t-27 8.5t-35.5 4.5h-48h-48
t-35.5 -4.5t-27 -8.5t-17.5 -18.5t-12 -27.5t-5.5 -42.5t-3.5 -56.5v-76v-76t3.5 -56.5t5.5 -42.5t12 -27.5t17.5 -18.5t27 -8.5t35.5 -4.5h48z" />
    <glyph glyph-name="Oacute" unicode="&#xd3;" horiz-adv-x="708" 
d="M281 760v5l94 139h134v-5l-132 -139h-96zM354 -8q-43 0 -76.5 2t-62 8.5t-49 13t-37 21t-27.5 27t-18.5 37t-11.5 45t-6.5 56t-3 65t-0.5 77.5t0.5 77.5t3 65t6.5 56t11.5 45t18.5 37t27.5 27t37 21t49 13t62 8.5t76.5 2q54 0 93.5 -3t71 -13.5t52 -21.5t35.5 -35
t22.5 -45.5t12 -62.5t5.5 -76t1 -95t-1 -95t-5.5 -76t-12 -62.5t-22.5 -45.5t-35.5 -35t-52 -21.5t-71 -13.5t-93.5 -3zM354 110h48t35.5 4.5t27 8.5t17.5 18.5t12.5 27.5t5.5 42.5t3 56v76.5v76.5t-3 56t-5.5 42.5t-12.5 27.5t-17.5 18.5t-27 8.5t-35.5 4.5h-48h-48
t-35.5 -4.5t-27 -8.5t-17.5 -18.5t-12 -27.5t-5.5 -42.5t-3.5 -56.5v-76v-76t3.5 -56.5t5.5 -42.5t12 -27.5t17.5 -18.5t27 -8.5t35.5 -4.5h48z" />
    <glyph glyph-name="Ocircumflex" unicode="&#xd4;" horiz-adv-x="708" 
d="M194 760v7l96 137h128l97 -137v-7h-88l-73 85l-73 -85h-87zM354 -8q-43 0 -76.5 2t-62 8.5t-49 13t-37 21t-27.5 27t-18.5 37t-11.5 45t-6.5 56t-3 65t-0.5 77.5t0.5 77.5t3 65t6.5 56t11.5 45t18.5 37t27.5 27t37 21t49 13t62 8.5t76.5 2q54 0 93.5 -3t71 -13.5
t52 -21.5t35.5 -35t22.5 -45.5t12 -62.5t5.5 -76t1 -95t-1 -95t-5.5 -76t-12 -62.5t-22.5 -45.5t-35.5 -35t-52 -21.5t-71 -13.5t-93.5 -3zM354 110h48t35.5 4.5t27 8.5t17.5 18.5t12.5 27.5t5.5 42.5t3 56v76.5v76.5t-3 56t-5.5 42.5t-12.5 27.5t-17.5 18.5t-27 8.5
t-35.5 4.5h-48h-48t-35.5 -4.5t-27 -8.5t-17.5 -18.5t-12 -27.5t-5.5 -42.5t-3.5 -56.5v-76v-76t3.5 -56.5t5.5 -42.5t12 -27.5t17.5 -18.5t27 -8.5t35.5 -4.5h48z" />
    <glyph glyph-name="Otilde" unicode="&#xd5;" horiz-adv-x="708" 
d="M173 759q0 31 1 48t5.5 36t14 28.5t25.5 15.5t41 6q33 0 109 -20q51 -15 72 -15q19 0 23 8.5t4 37.5h69q0 -74 -15 -103.5t-71 -29.5q-41 0 -109 20q-58 15 -72 15q-19 0 -23 -8.5t-4 -38.5h-70zM354 -8q-43 0 -76.5 2t-62 8.5t-49 13t-37 21t-27.5 27t-18.5 37t-11.5 45
t-6.5 56t-3 65t-0.5 77.5t0.5 77.5t3 65t6.5 56t11.5 45t18.5 37t27.5 27t37 21t49 13t62 8.5t76.5 2q54 0 93.5 -3t71 -13.5t52 -21.5t35.5 -35t22.5 -45.5t12 -62.5t5.5 -76t1 -95t-1 -95t-5.5 -76t-12 -62.5t-22.5 -45.5t-35.5 -35t-52 -21.5t-71 -13.5t-93.5 -3z
M354 110h48t35.5 4.5t27 8.5t17.5 18.5t12.5 27.5t5.5 42.5t3 56v76.5v76.5t-3 56t-5.5 42.5t-12.5 27.5t-17.5 18.5t-27 8.5t-35.5 4.5h-48h-48t-35.5 -4.5t-27 -8.5t-17.5 -18.5t-12 -27.5t-5.5 -42.5t-3.5 -56.5v-76v-76t3.5 -56.5t5.5 -42.5t12 -27.5t17.5 -18.5
t27 -8.5t35.5 -4.5h48z" />
    <glyph glyph-name="Odieresis" unicode="&#xd6;" horiz-adv-x="708" 
d="M194 782v101h113v-101h-113zM401 782v101h113v-101h-113zM354 -8q-43 0 -76.5 2t-62 8.5t-49 13t-37 21t-27.5 27t-18.5 37t-11.5 45t-6.5 56t-3 65t-0.5 77.5t0.5 77.5t3 65t6.5 56t11.5 45t18.5 37t27.5 27t37 21t49 13t62 8.5t76.5 2q54 0 93.5 -3t71 -13.5t52 -21.5
t35.5 -35t22.5 -45.5t12 -62.5t5.5 -76t1 -95t-1 -95t-5.5 -76t-12 -62.5t-22.5 -45.5t-35.5 -35t-52 -21.5t-71 -13.5t-93.5 -3zM354 110h48t35.5 4.5t27 8.5t17.5 18.5t12.5 27.5t5.5 42.5t3 56v76.5v76.5t-3 56t-5.5 42.5t-12.5 27.5t-17.5 18.5t-27 8.5t-35.5 4.5h-48
h-48t-35.5 -4.5t-27 -8.5t-17.5 -18.5t-12 -27.5t-5.5 -42.5t-3.5 -56.5v-76v-76t3.5 -56.5t5.5 -42.5t12 -27.5t17.5 -18.5t27 -8.5t35.5 -4.5h48z" />
    <glyph glyph-name="multiply" unicode="&#xd7;" horiz-adv-x="500" 
d="M139 69l-71 73l110 110l-111 111l72 72l111 -111l111 112l72 -72l-111 -112l111 -111l-72 -72l-111 111z" />
    <glyph glyph-name="Oslash" unicode="&#xd8;" horiz-adv-x="705" 
d="M586 644q37 -35 47.5 -100t10.5 -200q0 -48 -0.5 -78t-3 -65.5t-6.5 -56t-12 -44.5t-19 -37t-27.5 -27t-37 -21t-48.5 -13t-61.5 -8t-76.5 -2q-90 0 -142 11l-33 -58h-115l57 99q-37 35 -47 99t-10 201q0 82 2 124.5t11 90t26.5 67.5t51 39.5t80.5 25t119 5.5
q91 0 142 -11l33 58h117zM352 108h48t35.5 4.5t27 8.5t17.5 18.5t12 28t5.5 43t3.5 56.5v77v77t-3.5 56.5t-5.5 43t-12 28t-17.5 18.5t-27 8.5t-35.5 4.5h-48h-47.5t-35 -4.5t-27 -8.5t-17.5 -18.5t-12 -28t-5.5 -43t-3.5 -57v-76.5v-76.5t3.5 -57t5.5 -43t12 -28
t17.5 -18.5t27 -8.5t35 -4.5h47.5z" />
    <glyph glyph-name="Ugrave" unicode="&#xd9;" horiz-adv-x="696" 
d="M329 760l-131 139v5h133l95 -139v-5h-97zM348 -8q-63 0 -105 5t-73.5 20.5t-49 36t-28 59.5t-13.5 82t-3 112v381h142v-417q0 -41 1 -62t5.5 -42.5t12 -30t23 -16.5t35.5 -9.5t53 -1.5t53 1.5t35.5 9.5t23 16t12 30.5t5 43t0.5 61.5v417h142v-381q0 -69 -3 -112
t-13.5 -82t-27.5 -59.5t-48.5 -36t-73.5 -20.5t-105 -5z" />
    <glyph glyph-name="Uacute" unicode="&#xda;" horiz-adv-x="696" 
d="M275 760v5l94 139h134v-5l-132 -139h-96zM348 -8q-63 0 -105 5t-73.5 20.5t-49 36t-28 59.5t-13.5 82t-3 112v381h142v-417q0 -41 1 -62t5.5 -42.5t12 -30t23 -16.5t35.5 -9.5t53 -1.5t53 1.5t35.5 9.5t23 16t12 30.5t5 43t0.5 61.5v417h142v-381q0 -69 -3 -112
t-13.5 -82t-27.5 -59.5t-48.5 -36t-73.5 -20.5t-105 -5z" />
    <glyph glyph-name="Ucircumflex" unicode="&#xdb;" horiz-adv-x="696" 
d="M188 760v7l96 137h128l97 -137v-7h-88l-73 85l-73 -85h-87zM348 -8q-63 0 -105 5t-73.5 20.5t-49 36t-28 59.5t-13.5 82t-3 112v381h142v-417q0 -41 1 -62t5.5 -42.5t12 -30t23 -16.5t35.5 -9.5t53 -1.5t53 1.5t35.5 9.5t23 16t12 30.5t5 43t0.5 61.5v417h142v-381
q0 -69 -3 -112t-13.5 -82t-27.5 -59.5t-48.5 -36t-73.5 -20.5t-105 -5z" />
    <glyph glyph-name="Udieresis" unicode="&#xdc;" horiz-adv-x="696" 
d="M188 782v101h113v-101h-113zM395 782v101h113v-101h-113zM348 -8q-63 0 -105 5t-73.5 20.5t-49 36t-28 59.5t-13.5 82t-3 112v381h142v-417q0 -41 1 -62t5.5 -42.5t12 -30t23 -16.5t35.5 -9.5t53 -1.5t53 1.5t35.5 9.5t23 16t12 30.5t5 43t0.5 61.5v417h142v-381
q0 -69 -3 -112t-13.5 -82t-27.5 -59.5t-48.5 -36t-73.5 -20.5t-105 -5z" />
    <glyph glyph-name="Yacute" unicode="&#xdd;" horiz-adv-x="623" 
d="M238 760v5l94 139h134v-5l-132 -139h-96zM239 0v243l-235 445h149l157 -306h7l156 306h145l-236 -445v-243h-143z" />
    <glyph glyph-name="Thorn" unicode="&#xde;" horiz-adv-x="650" 
d="M83 0v688h142v-109h175q65 0 107.5 -15t64.5 -47t30 -70.5t8 -95.5q0 -54 -7.5 -91t-29 -70.5t-65.5 -50t-111 -16.5h-172v-123h-142zM225 240h114q86 0 107 20t21 91q0 50 -7.5 70.5t-33 30t-84.5 9.5h-117v-221z" />
    <glyph glyph-name="germandbls" unicode="&#xdf;" horiz-adv-x="602" 
d="M70 0v552q0 104 53 151t185 47q133 0 182.5 -42.5t49.5 -133.5q0 -62 -28 -95t-88 -43v-4q64 -12 94.5 -55.5t30.5 -136.5q0 -68 -8 -110t-32 -73t-67.5 -44t-114.5 -13h-53v106h33q28 0 42 1t28.5 6t20 12.5t10.5 24.5t6 37.5t1 56.5q0 86 -20.5 109.5t-86.5 23.5h-20
v107h20q59 0 78.5 14t19.5 58q0 55 -20 71t-82 16q-58 0 -79.5 -19.5t-21.5 -88.5v-535h-133z" />
    <glyph glyph-name="agrave" unicode="&#xe0;" horiz-adv-x="564" 
d="M241 582l-132 139v5h134l94 -139v-5h-96zM196 -8q-77 0 -114.5 35t-37.5 116q0 89 33.5 124t126.5 35q52 0 156 -4v20q0 65 -22.5 79t-112.5 14q-76 0 -150 -9v101q97 15 194 15q75 0 120 -11t67.5 -39.5t29.5 -62.5t7 -94v-311h-125l-4 62h-7q-40 -70 -161 -70zM259 95
q66 0 86 32q15 25 15 78v15h-120q-43 0 -55.5 -11.5t-12.5 -52.5q0 -39 15.5 -50t71.5 -11z" />
    <glyph glyph-name="aacute" unicode="&#xe1;" horiz-adv-x="564" 
d="M225 582v5l94 139h134v-5l-132 -139h-96zM196 -8q-77 0 -114.5 35t-37.5 116q0 89 33.5 124t126.5 35q52 0 156 -4v20q0 65 -22.5 79t-112.5 14q-76 0 -150 -9v101q97 15 194 15q75 0 120 -11t67.5 -39.5t29.5 -62.5t7 -94v-311h-125l-4 62h-7q-40 -70 -161 -70zM259 95
q66 0 86 32q15 25 15 78v15h-120q-43 0 -55.5 -11.5t-12.5 -52.5q0 -39 15.5 -50t71.5 -11z" />
    <glyph glyph-name="acircumflex" unicode="&#xe2;" horiz-adv-x="564" 
d="M123 582v7l96 137h129l96 -137v-7h-88l-73 85l-72 -85h-88zM196 -8q-77 0 -114.5 35t-37.5 116q0 89 33.5 124t126.5 35q52 0 156 -4v20q0 65 -22.5 79t-112.5 14q-76 0 -150 -9v101q97 15 194 15q75 0 120 -11t67.5 -39.5t29.5 -62.5t7 -94v-311h-125l-4 62h-7
q-40 -70 -161 -70zM259 95q66 0 86 32q15 25 15 78v15h-120q-43 0 -55.5 -11.5t-12.5 -52.5q0 -39 15.5 -50t71.5 -11z" />
    <glyph glyph-name="atilde" unicode="&#xe3;" horiz-adv-x="564" 
d="M100 581q0 31 1 48t5.5 36t14 28.5t25.5 15.5t41 6q33 0 109 -20q51 -15 72 -15q19 0 23 8.5t4 37.5h69q0 -74 -15 -103.5t-71 -29.5q-41 0 -109 20q-58 15 -72 15q-19 0 -23 -8.5t-4 -38.5h-70zM196 -8q-77 0 -114.5 35t-37.5 116q0 89 33.5 124t126.5 35q52 0 156 -4
v20q0 65 -22.5 79t-112.5 14q-76 0 -150 -9v101q97 15 194 15q75 0 120 -11t67.5 -39.5t29.5 -62.5t7 -94v-311h-125l-4 62h-7q-40 -70 -161 -70zM259 95q66 0 86 32q15 25 15 78v15h-120q-43 0 -55.5 -11.5t-12.5 -52.5q0 -39 15.5 -50t71.5 -11z" />
    <glyph glyph-name="adieresis" unicode="&#xe4;" horiz-adv-x="564" 
d="M126 604v101h113v-101h-113zM333 604v101h113v-101h-113zM196 -8q-77 0 -114.5 35t-37.5 116q0 89 33.5 124t126.5 35q52 0 156 -4v20q0 65 -22.5 79t-112.5 14q-76 0 -150 -9v101q97 15 194 15q75 0 120 -11t67.5 -39.5t29.5 -62.5t7 -94v-311h-125l-4 62h-7
q-40 -70 -161 -70zM259 95q66 0 86 32q15 25 15 78v15h-120q-43 0 -55.5 -11.5t-12.5 -52.5q0 -39 15.5 -50t71.5 -11z" />
    <glyph glyph-name="aring" unicode="&#xe5;" horiz-adv-x="564" 
d="M282 568q-49 0 -77.5 6t-42 22t-17 34t-3.5 53t3.5 52.5t16.5 34.5t42 23t78 6q50 0 79 -6t43 -22.5t17.5 -35t3.5 -52.5q0 -35 -3.5 -53t-17.5 -34t-43 -22t-79 -6zM282 626q48 0 58 10.5t10 46.5q0 37 -10 47t-58 10q-47 0 -56.5 -10t-9.5 -47q0 -20 1 -28t7.5 -16.5
t19.5 -10.5t38 -2zM196 -8q-77 0 -114.5 35t-37.5 116q0 89 33.5 124t126.5 35q52 0 156 -4v20q0 65 -22.5 79t-112.5 14q-76 0 -150 -9v101q97 15 194 15q75 0 120 -11t67.5 -39.5t29.5 -62.5t7 -94v-311h-125l-4 62h-7q-40 -70 -161 -70zM259 95q66 0 86 32q15 25 15 78
v15h-120q-43 0 -55.5 -11.5t-12.5 -52.5q0 -39 15.5 -50t71.5 -11z" />
    <glyph glyph-name="ae" unicode="&#xe6;" horiz-adv-x="867" 
d="M220 -8q-92 0 -134 34.5t-42 116.5q0 89 33.5 124t126.5 35q50 0 156 -4v20q0 65 -22.5 79t-112.5 14q-91 0 -150 -9v101q96 15 192 15q117 0 166 -43q52 43 164 43q45 0 77.5 -5.5t56 -14t38.5 -27t24 -35.5t13 -49.5t5 -59t1 -73.5v-37h-318q0 -43 3 -62.5t18 -34.5
t42 -18.5t80 -3.5q69 0 155 9v-99q-70 -16 -186 -16q-151 0 -196 58q-55 -58 -190 -58zM494 297h192q0 76 -18 96.5t-75 20.5q-64 0 -81 -21t-18 -96zM259 95q72 0 90 41q11 27 11 69v13h-120q-44 0 -56 -10.5t-12 -51.5q0 -39 15.5 -50t71.5 -11z" />
    <glyph glyph-name="ccedilla" unicode="&#xe7;" horiz-adv-x="461" 
d="M417 107v-100q-43 -10 -99 -13l-35 -184h-125v5l68 178q-48 4 -80.5 18t-51 33t-28 54.5t-12 68.5t-2.5 89q0 71 6.5 113.5t27.5 79.5t65 53t115 16q84 0 147 -15v-101q-52 9 -112 9q-76 0 -95 -28t-19 -128q0 -101 20 -128.5t96 -27.5q52 0 114 8z" />
    <glyph glyph-name="egrave" unicode="&#xe8;" horiz-adv-x="556" 
d="M357 582h-97l-131 139v5h133l95 -139v-5zM503 254v-39h-318q0 -43 3 -62t18 -33.5t41.5 -18t80.5 -3.5q69 0 155 9v-99q-70 -16 -186 -16q-57 0 -97 5.5t-67 20.5t-43 33t-24.5 51t-11 66t-2.5 86q0 61 4 98.5t17 72.5t39 53.5t68.5 29t105.5 10.5q45 0 78 -5.5t56.5 -14
t39 -27t24.5 -35.5t13 -49.5t5 -59t1 -73.5zM284 414q-64 0 -81 -21t-18 -96h192q0 76 -18 96.5t-75 20.5z" />
    <glyph glyph-name="eacute" unicode="&#xe9;" horiz-adv-x="556" 
d="M434 721l-132 -139h-96v5l94 139h134v-5zM503 254v-39h-318q0 -43 3 -62t18 -33.5t41.5 -18t80.5 -3.5q69 0 155 9v-99q-70 -16 -186 -16q-57 0 -97 5.5t-67 20.5t-43 33t-24.5 51t-11 66t-2.5 86q0 61 4 98.5t17 72.5t39 53.5t68.5 29t105.5 10.5q45 0 78 -5.5t56.5 -14
t39 -27t24.5 -35.5t13 -49.5t5 -59t1 -73.5zM284 414q-64 0 -81 -21t-18 -96h192q0 76 -18 96.5t-75 20.5z" />
    <glyph glyph-name="ecircumflex" unicode="&#xea;" horiz-adv-x="556" 
d="M284 667l-73 -85h-87v7l96 137h128l97 -137v-7h-88zM503 254v-39h-318q0 -43 3 -62t18 -33.5t41.5 -18t80.5 -3.5q69 0 155 9v-99q-70 -16 -186 -16q-57 0 -97 5.5t-67 20.5t-43 33t-24.5 51t-11 66t-2.5 86q0 61 4 98.5t17 72.5t39 53.5t68.5 29t105.5 10.5
q45 0 78 -5.5t56.5 -14t39 -27t24.5 -35.5t13 -49.5t5 -59t1 -73.5zM284 414q-64 0 -81 -21t-18 -96h192q0 76 -18 96.5t-75 20.5z" />
    <glyph glyph-name="edieresis" unicode="&#xeb;" horiz-adv-x="556" 
d="M240 705v-101h-113v101h113zM447 705v-101h-113v101h113zM503 254v-39h-318q0 -43 3 -62t18 -33.5t41.5 -18t80.5 -3.5q69 0 155 9v-99q-70 -16 -186 -16q-57 0 -97 5.5t-67 20.5t-43 33t-24.5 51t-11 66t-2.5 86q0 61 4 98.5t17 72.5t39 53.5t68.5 29t105.5 10.5
q45 0 78 -5.5t56.5 -14t39 -27t24.5 -35.5t13 -49.5t5 -59t1 -73.5zM284 414q-64 0 -81 -21t-18 -96h192q0 76 -18 96.5t-75 20.5z" />
    <glyph glyph-name="igrave" unicode="&#xec;" horiz-adv-x="275" 
d="M113 582l-131 139v5h133l95 -139v-5h-97zM70 0v510h134v-510h-134z" />
    <glyph glyph-name="iacute" unicode="&#xed;" horiz-adv-x="275" 
d="M59 582v5l94 139h134v-5l-132 -139h-96zM70 0v510h134v-510h-134z" />
    <glyph glyph-name="icircumflex" unicode="&#xee;" horiz-adv-x="275" 
d="M-23 582v7l96 137h128l97 -137v-7h-88l-73 85l-73 -85h-87zM70 0v510h134v-510h-134z" />
    <glyph glyph-name="idieresis" unicode="&#xef;" horiz-adv-x="275" 
d="M-19 604v101h113v-101h-113zM188 604v101h113v-101h-113zM70 0v510h134v-510h-134z" />
    <glyph glyph-name="eth" unicode="&#xf0;" horiz-adv-x="576" 
d="M286 -8q-56 0 -94 5t-64.5 19.5t-41 31.5t-22.5 51t-10 66.5t-2 88.5q0 43 1.5 71.5t6 59t12.5 49t22.5 36t35 27t49.5 15t67 5.5q59 0 107 -16l3 3q-20 52 -45 93l-118 -18v81l67 10q-42 44 -71 69v4h143q34 -30 54 -54l117 18v-80l-64 -11q42 -67 64 -166
q17 -82 17 -186q0 -60 -2 -94t-9.5 -69.5t-22 -52.5t-41 -32t-65 -19.5t-94.5 -4.5zM286 98q18 0 30 1t23.5 2t18 6.5t12 8.5t8.5 15t5 19.5t3 27.5t1 33v43q0 35 -0.5 50t-2 37t-5.5 30t-10.5 18.5t-18 13.5t-27 5.5t-37.5 2.5q-20 0 -33 -0.5t-24.5 -4.5t-18 -7t-12 -14.5
t-7.5 -18.5t-3.5 -28.5t-1.5 -36v-47.5q0 -44 0.5 -61.5t3.5 -40.5t8 -29.5t17.5 -14.5t28 -9t42.5 -1z" />
    <glyph glyph-name="ntilde" unicode="&#xf1;" horiz-adv-x="592" 
d="M109 581q0 30 1 47t5.5 36t14 28.5t25.5 15.5t41 6q33 0 109 -20q51 -15 72 -15q19 0 23 8.5t4 37.5h69q0 -74 -14.5 -103.5t-71.5 -29.5q-33 0 -109 20q-51 15 -72 15q-19 0 -23 -8.5t-4 -37.5h-70zM70 0v510h125l4 -64h8q37 72 154 72q98 0 129 -46t31 -153v-319h-133
v270q0 50 -2 73.5t-12.5 39t-25.5 18t-48 2.5q-61 0 -79 -29.5t-18 -109.5v-264h-133z" />
    <glyph glyph-name="ograve" unicode="&#xf2;" horiz-adv-x="572" 
d="M249 582l-131 139v5h133l95 -139v-5h-97zM286 -8q-56 0 -94 4.5t-65 19t-41 30.5t-22 50.5t-10 67.5t-2 92t2 92t10 67t22 50t41 30t65 18.5t94 4.5t94 -4.5t65 -18.5t41 -30t22 -50t10 -67t2 -92t-2 -92t-10 -67.5t-22 -50.5t-41 -30.5t-65 -19t-94 -4.5zM286 99
q27 0 42.5 1t28 9.5t17.5 15t8 29.5t3.5 41t0.5 61v47.5t-1.5 35.5t-3.5 28t-7.5 18.5t-12 14t-18 6.5t-24.5 4.5t-33 0.5t-33 -0.5t-24.5 -4.5t-18 -6.5t-12 -14t-7.5 -18.5t-3.5 -28t-1.5 -35.5v-47.5q0 -43 0.5 -61t3.5 -41t8 -29.5t17.5 -15t28 -9.5t42.5 -1z" />
    <glyph glyph-name="oacute" unicode="&#xf3;" horiz-adv-x="572" 
d="M209 582v5l94 139h134v-5l-132 -139h-96zM286 -8q-56 0 -94 4.5t-65 19t-41 30.5t-22 50.5t-10 67.5t-2 92t2 92t10 67t22 50t41 30t65 18.5t94 4.5t94 -4.5t65 -18.5t41 -30t22 -50t10 -67t2 -92t-2 -92t-10 -67.5t-22 -50.5t-41 -30.5t-65 -19t-94 -4.5zM286 99
q27 0 42.5 1t28 9.5t17.5 15t8 29.5t3.5 41t0.5 61v47.5t-1.5 35.5t-3.5 28t-7.5 18.5t-12 14t-18 6.5t-24.5 4.5t-33 0.5t-33 -0.5t-24.5 -4.5t-18 -6.5t-12 -14t-7.5 -18.5t-3.5 -28t-1.5 -35.5v-47.5q0 -43 0.5 -61t3.5 -41t8 -29.5t17.5 -15t28 -9.5t42.5 -1z" />
    <glyph glyph-name="ocircumflex" unicode="&#xf4;" horiz-adv-x="572" 
d="M126 582v7l96 137h128l97 -137v-7h-88l-73 85l-73 -85h-87zM286 -8q-56 0 -94 4.5t-65 19t-41 30.5t-22 50.5t-10 67.5t-2 92t2 92t10 67t22 50t41 30t65 18.5t94 4.5t94 -4.5t65 -18.5t41 -30t22 -50t10 -67t2 -92t-2 -92t-10 -67.5t-22 -50.5t-41 -30.5t-65 -19
t-94 -4.5zM286 99q27 0 42.5 1t28 9.5t17.5 15t8 29.5t3.5 41t0.5 61v47.5t-1.5 35.5t-3.5 28t-7.5 18.5t-12 14t-18 6.5t-24.5 4.5t-33 0.5t-33 -0.5t-24.5 -4.5t-18 -6.5t-12 -14t-7.5 -18.5t-3.5 -28t-1.5 -35.5v-47.5q0 -43 0.5 -61t3.5 -41t8 -29.5t17.5 -15t28 -9.5
t42.5 -1z" />
    <glyph glyph-name="otilde" unicode="&#xf5;" horiz-adv-x="572" 
d="M103 581q0 31 1 48t5.5 36t14 28.5t25.5 15.5t41 6q33 0 109 -20q51 -15 72 -15q19 0 23 8.5t4 37.5h69q0 -74 -15 -103.5t-71 -29.5q-41 0 -109 20q-58 15 -72 15q-19 0 -23 -8.5t-4 -38.5h-70zM286 -8q-56 0 -94 4.5t-65 19t-41 30.5t-22 50.5t-10 67.5t-2 92t2 92
t10 67t22 50t41 30t65 18.5t94 4.5t94 -4.5t65 -18.5t41 -30t22 -50t10 -67t2 -92t-2 -92t-10 -67.5t-22 -50.5t-41 -30.5t-65 -19t-94 -4.5zM286 99q27 0 42.5 1t28 9.5t17.5 15t8 29.5t3.5 41t0.5 61v47.5t-1.5 35.5t-3.5 28t-7.5 18.5t-12 14t-18 6.5t-24.5 4.5t-33 0.5
t-33 -0.5t-24.5 -4.5t-18 -6.5t-12 -14t-7.5 -18.5t-3.5 -28t-1.5 -35.5v-47.5q0 -43 0.5 -61t3.5 -41t8 -29.5t17.5 -15t28 -9.5t42.5 -1z" />
    <glyph glyph-name="odieresis" unicode="&#xf6;" horiz-adv-x="572" 
d="M130 604v101h113v-101h-113zM337 604v101h113v-101h-113zM286 -8q-56 0 -94 4.5t-65 19t-41 30.5t-22 50.5t-10 67.5t-2 92t2 92t10 67t22 50t41 30t65 18.5t94 4.5t94 -4.5t65 -18.5t41 -30t22 -50t10 -67t2 -92t-2 -92t-10 -67.5t-22 -50.5t-41 -30.5t-65 -19t-94 -4.5
zM286 99q27 0 42.5 1t28 9.5t17.5 15t8 29.5t3.5 41t0.5 61v47.5t-1.5 35.5t-3.5 28t-7.5 18.5t-12 14t-18 6.5t-24.5 4.5t-33 0.5t-33 -0.5t-24.5 -4.5t-18 -6.5t-12 -14t-7.5 -18.5t-3.5 -28t-1.5 -35.5v-47.5q0 -43 0.5 -61t3.5 -41t8 -29.5t17.5 -15t28 -9.5t42.5 -1z
" />
    <glyph glyph-name="divide" unicode="&#xf7;" horiz-adv-x="539" 
d="M218 391v94h102v-94h-102zM70 202v101h400v-101h-400zM218 19v95h102v-95h-102z" />
    <glyph glyph-name="oslash" unicode="&#xf8;" horiz-adv-x="572" 
d="M470 480q32 -26 41 -75t9 -149q0 -59 -2 -92t-10 -67.5t-22 -50.5t-41 -30.5t-65 -19t-94 -4.5q-58 0 -100 6l-31 -53h-103l50 85q-32 26 -41 75.5t-9 150.5q0 59 2 92t10 67t22 50t41 30t65 18.5t94 4.5q58 0 99 -6l32 53h103zM286 99q27 0 42.5 1t28 9.5t17.5 15
t8 29.5t3.5 41t0.5 61v47.5t-1.5 35.5t-3.5 28t-7.5 18.5t-12 14t-18 6.5t-24.5 4.5t-33 0.5t-33 -0.5t-24.5 -4.5t-18 -6.5t-12 -14t-7.5 -18.5t-3.5 -28t-1.5 -35.5v-47.5q0 -43 0.5 -61t3.5 -41t8 -29.5t17.5 -15t28 -9.5t42.5 -1z" />
    <glyph glyph-name="ugrave" unicode="&#xf9;" horiz-adv-x="592" 
d="M272 582l-131 139v5h133l95 -139v-5h-97zM231 -8q-98 0 -129.5 46t-31.5 153v319h133v-270q0 -92 14 -112.5t75 -20.5t78.5 29t17.5 110v264h133v-510h-124l-4 64h-8q-37 -72 -154 -72z" />
    <glyph glyph-name="uacute" unicode="&#xfa;" horiz-adv-x="592" 
d="M218 582v5l94 139h134v-5l-132 -139h-96zM231 -8q-98 0 -129.5 46t-31.5 153v319h133v-270q0 -92 14 -112.5t75 -20.5t78.5 29t17.5 110v264h133v-510h-124l-4 64h-8q-37 -72 -154 -72z" />
    <glyph glyph-name="ucircumflex" unicode="&#xfb;" horiz-adv-x="592" 
d="M135 582v7l96 137h128l97 -137v-7h-88l-73 85l-73 -85h-87zM231 -8q-98 0 -129.5 46t-31.5 153v319h133v-270q0 -92 14 -112.5t75 -20.5t78.5 29t17.5 110v264h133v-510h-124l-4 64h-8q-37 -72 -154 -72z" />
    <glyph glyph-name="udieresis" unicode="&#xfc;" horiz-adv-x="592" 
d="M139 604v101h113v-101h-113zM346 604v101h113v-101h-113zM231 -8q-98 0 -129.5 46t-31.5 153v319h133v-270q0 -92 14 -112.5t75 -20.5t78.5 29t17.5 110v264h133v-510h-124l-4 64h-8q-37 -72 -154 -72z" />
    <glyph glyph-name="yacute" unicode="&#xfd;" horiz-adv-x="592" 
d="M218 582v5l94 139h134v-5l-132 -139h-96zM279 -206q-107 0 -173 11v99q105 -3 142 -3q52 0 78.5 4t41.5 21t17.5 37.5t2.5 66.5v35h-7q-37 -66 -150 -66q-98 0 -129.5 45.5t-31.5 151.5v314h133v-265q0 -92 14 -112.5t75 -20.5t78.5 29t17.5 110v259h133v-452
q0 -52 -2.5 -84.5t-10.5 -65.5t-24 -52t-43 -34.5t-66.5 -21.5t-95.5 -6z" />
    <glyph glyph-name="thorn" unicode="&#xfe;" horiz-adv-x="584" 
d="M70 -189v932h133v-294h8q36 69 146 69q96 0 135 -56t39 -206t-38 -207t-133 -57q-111 0 -149 64h-8v-245h-133zM300 107q36 0 53 3.5t28.5 20.5t14 43.5t2.5 80.5q0 101 -16 125t-82 24q-62 0 -81 -35q-16 -29 -16 -114q0 -77 12 -105q9 -23 28.5 -33t56.5 -10z" />
    <glyph glyph-name="ydieresis" unicode="&#xff;" horiz-adv-x="592" 
d="M139 604v101h113v-101h-113zM346 604v101h113v-101h-113zM279 -206q-107 0 -173 11v99q105 -3 142 -3q52 0 78.5 4t41.5 21t17.5 37.5t2.5 66.5v35h-7q-37 -66 -150 -66q-98 0 -129.5 45.5t-31.5 151.5v314h133v-265q0 -92 14 -112.5t75 -20.5t78.5 29t17.5 110v259h133
v-452q0 -52 -2.5 -84.5t-10.5 -65.5t-24 -52t-43 -34.5t-66.5 -21.5t-95.5 -6z" />
    <glyph glyph-name="Amacron" unicode="&#x100;" horiz-adv-x="687" 
d="M185 782v84h315v-84h-315zM15 0l233 688h191l233 -688h-147l-50 152h-268l-48 -152h-144zM245 270h192l-94 289h-5z" />
    <glyph glyph-name="amacron" unicode="&#x101;" horiz-adv-x="564" 
d="M125 604v84h315v-84h-315zM196 -8q-77 0 -114.5 35t-37.5 116q0 89 33.5 124t126.5 35q52 0 156 -4v20q0 65 -22.5 79t-112.5 14q-76 0 -150 -9v101q97 15 194 15q75 0 120 -11t67.5 -39.5t29.5 -62.5t7 -94v-311h-125l-4 62h-7q-40 -70 -161 -70zM259 95q66 0 86 32
q15 25 15 78v15h-120q-43 0 -55.5 -11.5t-12.5 -52.5q0 -39 15.5 -50t71.5 -11z" />
    <glyph glyph-name="Abreve" unicode="&#x102;" horiz-adv-x="687" 
d="M341 756q-91 0 -118.5 36t-27.5 112h77q0 -21 1 -31t7.5 -21.5t21 -15.5t39.5 -4q26 0 41 4.5t21.5 15.5t8 21t1.5 31h77q0 -76 -28.5 -112t-120.5 -36zM15 0l233 688h191l233 -688h-147l-50 152h-268l-48 -152h-144zM245 270h192l-94 289h-5z" />
    <glyph glyph-name="abreve" unicode="&#x103;" horiz-adv-x="564" 
d="M281 578q-91 0 -118.5 36t-27.5 112h77q0 -21 1 -31t7.5 -21.5t21 -15.5t39.5 -4q26 0 41 4.5t21.5 15.5t8 21t1.5 31h77q0 -76 -28.5 -112t-120.5 -36zM196 -8q-77 0 -114.5 35t-37.5 116q0 89 33.5 124t126.5 35q52 0 156 -4v20q0 65 -22.5 79t-112.5 14q-76 0 -150 -9
v101q97 15 194 15q75 0 120 -11t67.5 -39.5t29.5 -62.5t7 -94v-311h-125l-4 62h-7q-40 -70 -161 -70zM259 95q66 0 86 32q15 25 15 78v15h-120q-43 0 -55.5 -11.5t-12.5 -52.5q0 -39 15.5 -50t71.5 -11z" />
    <glyph glyph-name="Aogonek" unicode="&#x104;" horiz-adv-x="687" 
d="M586 -85q0 -36 47 -36q11 0 17 2v-74q-25 -3 -59 -3q-116 0 -116 82q0 56 60 114h-10l-50 152h-268l-48 -152h-144l233 688h191l233 -688h-29q-22 -16 -39.5 -40.5t-17.5 -44.5zM245 270h192l-94 289h-5z" />
    <glyph glyph-name="aogonek" unicode="&#x105;" horiz-adv-x="564" 
d="M477 -125q11 0 17 2v-74q-25 -3 -59 -3q-116 0 -116 82q0 57 64 118h-15l-4 62h-7q-40 -70 -161 -70q-77 0 -114.5 35t-37.5 116q0 89 33.5 124t126.5 35q52 0 156 -4v20q0 65 -22.5 79t-112.5 14q-76 0 -150 -9v101q97 15 194 15q75 0 120 -11t67.5 -39.5t29.5 -62.5
t7 -94v-311q-22 -15 -42.5 -41.5t-20.5 -47.5q0 -36 47 -36zM360 205v15h-120q-43 0 -55.5 -11.5t-12.5 -52.5q0 -39 15.5 -50t71.5 -11q66 0 86 32q15 25 15 78z" />
    <glyph glyph-name="Cacute" unicode="&#x106;" horiz-adv-x="570" 
d="M258 760v5l94 139h134v-5l-132 -139h-96zM348 -8q-64 0 -108.5 6t-77 23.5t-51.5 41.5t-30.5 66.5t-15 91t-3.5 123.5t3.5 123.5t15 91t30.5 66.5t51.5 41.5t77 23.5t108.5 6q100 0 170 -17v-109q-90 10 -135 10q-46 0 -72 -2t-48.5 -12t-32 -22.5t-16.5 -42.5
t-8.5 -63.5t-1.5 -93.5t1.5 -93.5t8.5 -63.5t16.5 -42.5t32 -22.5t48.5 -12t72 -2q76 0 139 10v-111q-75 -15 -174 -15z" />
    <glyph glyph-name="cacute" unicode="&#x107;" horiz-adv-x="461" 
d="M172 582v5l94 139h134v-5l-132 -139h-96zM268 -8q-50 0 -86.5 7t-60 23.5t-37.5 35.5t-21 53t-9 64.5t-2 80.5q0 71 6.5 113.5t27.5 79.5t65 53t115 16q84 0 147 -15v-101q-52 9 -112 9q-76 0 -95 -28t-19 -128q0 -101 20 -128.5t96 -27.5q52 0 114 8v-100
q-65 -15 -149 -15z" />
    <glyph glyph-name="Ccircumflex" unicode="&#x108;" horiz-adv-x="570" 
d="M171 760v7l96 137h128l97 -137v-7h-88l-73 85l-73 -85h-87zM348 -8q-64 0 -108.5 6t-77 23.5t-51.5 41.5t-30.5 66.5t-15 91t-3.5 123.5t3.5 123.5t15 91t30.5 66.5t51.5 41.5t77 23.5t108.5 6q100 0 170 -17v-109q-90 10 -135 10q-46 0 -72 -2t-48.5 -12t-32 -22.5
t-16.5 -42.5t-8.5 -63.5t-1.5 -93.5t1.5 -93.5t8.5 -63.5t16.5 -42.5t32 -22.5t48.5 -12t72 -2q76 0 139 10v-111q-75 -15 -174 -15z" />
    <glyph glyph-name="ccircumflex" unicode="&#x109;" horiz-adv-x="461" 
d="M89 582v7l96 137h128l97 -137v-7h-88l-73 85l-73 -85h-87zM268 -8q-50 0 -86.5 7t-60 23.5t-37.5 35.5t-21 53t-9 64.5t-2 80.5q0 71 6.5 113.5t27.5 79.5t65 53t115 16q84 0 147 -15v-101q-52 9 -112 9q-76 0 -95 -28t-19 -128q0 -101 20 -128.5t96 -27.5q52 0 114 8
v-100q-65 -15 -149 -15z" />
    <glyph glyph-name="Cdotaccent" unicode="&#x10a;" horiz-adv-x="570" 
d="M274 782v101h113v-101h-113zM348 -8q-64 0 -108.5 6t-77 23.5t-51.5 41.5t-30.5 66.5t-15 91t-3.5 123.5t3.5 123.5t15 91t30.5 66.5t51.5 41.5t77 23.5t108.5 6q100 0 170 -17v-109q-90 10 -135 10q-46 0 -72 -2t-48.5 -12t-32 -22.5t-16.5 -42.5t-8.5 -63.5t-1.5 -93.5
t1.5 -93.5t8.5 -63.5t16.5 -42.5t32 -22.5t48.5 -12t72 -2q76 0 139 10v-111q-75 -15 -174 -15z" />
    <glyph glyph-name="cdotaccent" unicode="&#x10b;" horiz-adv-x="461" 
d="M192 604v101h113v-101h-113zM268 -8q-50 0 -86.5 7t-60 23.5t-37.5 35.5t-21 53t-9 64.5t-2 80.5q0 71 6.5 113.5t27.5 79.5t65 53t115 16q84 0 147 -15v-101q-52 9 -112 9q-76 0 -95 -28t-19 -128q0 -101 20 -128.5t96 -27.5q52 0 114 8v-100q-65 -15 -149 -15z" />
    <glyph glyph-name="Ccaron" unicode="&#x10c;" horiz-adv-x="570" 
d="M267 760l-96 137v7h87l73 -86l73 86h88v-7l-97 -137h-128zM348 -8q-64 0 -108.5 6t-77 23.5t-51.5 41.5t-30.5 66.5t-15 91t-3.5 123.5t3.5 123.5t15 91t30.5 66.5t51.5 41.5t77 23.5t108.5 6q100 0 170 -17v-109q-90 10 -135 10q-46 0 -72 -2t-48.5 -12t-32 -22.5
t-16.5 -42.5t-8.5 -63.5t-1.5 -93.5t1.5 -93.5t8.5 -63.5t16.5 -42.5t32 -22.5t48.5 -12t72 -2q76 0 139 10v-111q-75 -15 -174 -15z" />
    <glyph glyph-name="ccaron" unicode="&#x10d;" horiz-adv-x="461" 
d="M185 582l-96 137v7h87l73 -86l73 86h88v-7l-97 -137h-128zM268 -8q-50 0 -86.5 7t-60 23.5t-37.5 35.5t-21 53t-9 64.5t-2 80.5q0 71 6.5 113.5t27.5 79.5t65 53t115 16q84 0 147 -15v-101q-52 9 -112 9q-76 0 -95 -28t-19 -128q0 -101 20 -128.5t96 -27.5q52 0 114 8
v-100q-65 -15 -149 -15z" />
    <glyph glyph-name="Dcaron" unicode="&#x10e;" horiz-adv-x="685" 
d="M279 760l-96 137v7h87l73 -86l73 86h88v-7l-97 -137h-128zM83 0v688h234q76 0 126 -5.5t85 -24.5t53.5 -38.5t28 -66.5t11.5 -88t2 -121t-2 -121t-11.5 -88t-28 -66.5t-53.5 -38.5t-85 -24.5t-126 -5.5h-234zM225 118h85h55t40.5 4t31 7.5t19.5 17.5t14 26t6 41t4 55v75
v61t-2.5 48.5t-3.5 39t-7.5 28t-10.5 21t-17 13.5t-20.5 9t-28.5 4t-35.5 2h-44.5h-85v-452z" />
    <glyph glyph-name="dcaron" unicode="&#x10f;" horiz-adv-x="584" 
d="M227 -8q-96 0 -135.5 56.5t-39.5 205.5q0 150 38.5 207t133.5 57q110 0 149 -64h7v289h133v-743h-124l-4 63h-8q-36 -71 -150 -71zM543 433l15 193v62h109v-62l-45 -193h-79zM284 106q66 0 84 41q12 30 12 108q0 77 -12 106q-17 42 -84 42t-82.5 -23.5t-15.5 -124.5
q0 -102 15.5 -125.5t82.5 -23.5z" />
    <glyph glyph-name="Dcroat" unicode="&#x110;" horiz-adv-x="686" 
d="M83 0v296h-67v104h67v288h234q76 0 126 -5.5t85 -24.5t53.5 -38.5t28 -66.5t11.5 -88t2 -121t-2 -121t-11.5 -88t-28 -66.5t-53.5 -38.5t-85 -24.5t-126 -5.5h-234zM225 118h85h55t40.5 4t31 7.5t19.5 17.5t14 26t6 41t4 55v75v61t-2.5 48.5t-3.5 39t-7.5 28t-10.5 21
t-17 13.5t-20.5 9t-28.5 4t-35.5 2h-44.5h-85v-170h93v-104h-93v-178z" />
    <glyph glyph-name="dcroat" unicode="&#x111;" horiz-adv-x="584" 
d="M576 688v-103h-63v-585h-124l-4 63h-8q-36 -71 -150 -71q-96 0 -135.5 56.5t-39.5 205.5q0 150 38.5 207t133.5 57q110 0 149 -64h7v131h-123v103h123v55h133v-55h63zM368 147q12 30 12 108q0 77 -12 106q-17 42 -84 42t-82.5 -23.5t-15.5 -124.5q0 -102 15.5 -125.5
t82.5 -23.5q66 0 84 41z" />
    <glyph glyph-name="Emacron" unicode="&#x112;" horiz-adv-x="611" 
d="M161 782v84h315v-84h-315zM83 0v688h472v-118h-330v-164h283v-118h-283v-170h330v-118h-472z" />
    <glyph glyph-name="emacron" unicode="&#x113;" horiz-adv-x="556" 
d="M441 688v-84h-315v84h315zM503 254v-39h-318q0 -43 3 -62t18 -33.5t41.5 -18t80.5 -3.5q69 0 155 9v-99q-70 -16 -186 -16q-57 0 -97 5.5t-67 20.5t-43 33t-24.5 51t-11 66t-2.5 86q0 61 4 98.5t17 72.5t39 53.5t68.5 29t105.5 10.5q45 0 78 -5.5t56.5 -14t39 -27
t24.5 -35.5t13 -49.5t5 -59t1 -73.5zM284 414q-64 0 -81 -21t-18 -96h192q0 76 -18 96.5t-75 20.5z" />
    <glyph glyph-name="Ebreve" unicode="&#x114;" horiz-adv-x="611" 
d="M318 756q-91 0 -118.5 36t-27.5 112h77q0 -21 1 -31t7.5 -21.5t21 -15.5t39.5 -4q26 0 41 4.5t21.5 15.5t8 21t1.5 31h77q0 -76 -28.5 -112t-120.5 -36zM83 0v688h472v-118h-330v-164h283v-118h-283v-170h330v-118h-472z" />
    <glyph glyph-name="ebreve" unicode="&#x115;" horiz-adv-x="556" 
d="M282 578q-91 0 -118.5 36t-27.5 112h77q0 -21 1 -31t7.5 -21.5t21 -15.5t39.5 -4q26 0 41 4.5t21.5 15.5t8 21t1.5 31h77q0 -76 -28.5 -112t-120.5 -36zM503 254v-39h-318q0 -43 3 -62t18 -33.5t41.5 -18t80.5 -3.5q69 0 155 9v-99q-70 -16 -186 -16q-57 0 -97 5.5
t-67 20.5t-43 33t-24.5 51t-11 66t-2.5 86q0 61 4 98.5t17 72.5t39 53.5t68.5 29t105.5 10.5q45 0 78 -5.5t56.5 -14t39 -27t24.5 -35.5t13 -49.5t5 -59t1 -73.5zM284 414q-64 0 -81 -21t-18 -96h192q0 76 -18 96.5t-75 20.5z" />
    <glyph glyph-name="Edotaccent" unicode="&#x116;" horiz-adv-x="611" 
d="M263 782v101h113v-101h-113zM83 0v688h472v-118h-330v-164h283v-118h-283v-170h330v-118h-472z" />
    <glyph glyph-name="edotaccent" unicode="&#x117;" horiz-adv-x="556" 
d="M340 705v-101h-113v101h113zM503 254v-39h-318q0 -43 3 -62t18 -33.5t41.5 -18t80.5 -3.5q69 0 155 9v-99q-70 -16 -186 -16q-57 0 -97 5.5t-67 20.5t-43 33t-24.5 51t-11 66t-2.5 86q0 61 4 98.5t17 72.5t39 53.5t68.5 29t105.5 10.5q45 0 78 -5.5t56.5 -14t39 -27
t24.5 -35.5t13 -49.5t5 -59t1 -73.5zM284 414q-64 0 -81 -21t-18 -96h192q0 76 -18 96.5t-75 20.5z" />
    <glyph glyph-name="Eogonek" unicode="&#x118;" horiz-adv-x="611" 
d="M539 -125q11 0 17 2v-74q-26 -3 -59 -3q-116 0 -116 82q0 57 64 118h-362v688h472v-118h-330v-164h283v-118h-283v-170h330v-118q-22 -15 -42.5 -41.5t-20.5 -47.5q0 -36 47 -36z" />
    <glyph glyph-name="eogonek" unicode="&#x119;" horiz-adv-x="556" 
d="M503 254v-39h-318q0 -43 3 -62t18 -33.5t41.5 -18t80.5 -3.5q69 0 155 9v-99q-22 -15 -42.5 -41.5t-20.5 -47.5q0 -36 47 -36q11 0 17 2v-74q-26 -3 -59 -3q-116 0 -116 82q0 49 50 104q-42 -2 -62 -2q-57 0 -97 5.5t-67 20.5t-43 33t-24.5 51t-11 66t-2.5 86
q0 61 4 98.5t17 72.5t39 53.5t68.5 29t105.5 10.5q45 0 78 -5.5t56.5 -14t39 -27t24.5 -35.5t13 -49.5t5 -59t1 -73.5zM284 414q-64 0 -81 -21t-18 -96h192q0 76 -18 96.5t-75 20.5z" />
    <glyph glyph-name="Ecaron" unicode="&#x11a;" horiz-adv-x="611" 
d="M255 760l-96 137v7h87l73 -86l73 86h88v-7l-97 -137h-128zM83 0v688h472v-118h-330v-164h283v-118h-283v-170h330v-118h-472z" />
    <glyph glyph-name="ecaron" unicode="&#x11b;" horiz-adv-x="556" 
d="M348 582h-128l-96 137v7h87l73 -86l73 86h88v-7zM503 254v-39h-318q0 -43 3 -62t18 -33.5t41.5 -18t80.5 -3.5q69 0 155 9v-99q-70 -16 -186 -16q-57 0 -97 5.5t-67 20.5t-43 33t-24.5 51t-11 66t-2.5 86q0 61 4 98.5t17 72.5t39 53.5t68.5 29t105.5 10.5q45 0 78 -5.5
t56.5 -14t39 -27t24.5 -35.5t13 -49.5t5 -59t1 -73.5zM284 414q-64 0 -81 -21t-18 -96h192q0 76 -18 96.5t-75 20.5z" />
    <glyph glyph-name="Gcircumflex" unicode="&#x11c;" horiz-adv-x="670" 
d="M187 760v7l96 137h128l97 -137v-7h-88l-73 85l-73 -85h-87zM365 -8q-65 0 -110 6t-80.5 22t-56 40t-34 65.5t-18 92.5t-4.5 126q0 72 5 122t18 91.5t34.5 66.5t56 42t80 23.5t109.5 6.5q117 0 227 -22v-111q-108 15 -172 15q-42 0 -63.5 -0.5t-49 -4t-39 -9t-26 -17.5
t-19.5 -27.5t-10.5 -42t-6.5 -57t-1 -76.5q0 -55 2 -89t8.5 -63t17 -43.5t30 -25t44 -13.5t63.5 -3q60 0 89 4v167h-113v114h249v-377q-113 -23 -230 -23z" />
    <glyph glyph-name="gcircumflex" unicode="&#x11d;" horiz-adv-x="584" 
d="M132 582v7l96 137h128l97 -137v-7h-88l-73 85l-73 -85h-87zM266 -206q-111 0 -176 12v98q120 -3 144 -3q54 0 81 4t43 20.5t19 38.5t3 70v30h-6q-36 -65 -147 -65q-98 0 -136.5 54.5t-38.5 202.5q0 149 39.5 205.5t135.5 56.5q113 0 150 -72h8l4 64h124v-450
q0 -52 -2.5 -84.5t-11 -66t-24.5 -52.5t-43.5 -34.5t-68 -22t-97.5 -6.5zM284 112q61 0 80 33q16 26 16 112q0 84 -15 112q-20 35 -81 35q-67 0 -82.5 -23.5t-15.5 -123.5q0 -98 15.5 -121.5t82.5 -23.5z" />
    <glyph glyph-name="Gbreve" unicode="&#x11e;" horiz-adv-x="670" 
d="M345 756q-91 0 -118.5 36t-27.5 112h77q0 -21 1 -31t7.5 -21.5t21 -15.5t39.5 -4q26 0 41 4.5t21.5 15.5t8 21t1.5 31h77q0 -76 -28.5 -112t-120.5 -36zM365 -8q-65 0 -110 6t-80.5 22t-56 40t-34 65.5t-18 92.5t-4.5 126q0 72 5 122t18 91.5t34.5 66.5t56 42t80 23.5
t109.5 6.5q117 0 227 -22v-111q-108 15 -172 15q-42 0 -63.5 -0.5t-49 -4t-39 -9t-26 -17.5t-19.5 -27.5t-10.5 -42t-6.5 -57t-1 -76.5q0 -55 2 -89t8.5 -63t17 -43.5t30 -25t44 -13.5t63.5 -3q60 0 89 4v167h-113v114h249v-377q-113 -23 -230 -23z" />
    <glyph glyph-name="gbreve" unicode="&#x11f;" horiz-adv-x="584" 
d="M290 578q-91 0 -118.5 36t-27.5 112h77q0 -21 1 -31t7.5 -21.5t21 -15.5t39.5 -4q26 0 41 4.5t21.5 15.5t8 21t1.5 31h77q0 -76 -28.5 -112t-120.5 -36zM266 -206q-111 0 -176 12v98q120 -3 144 -3q54 0 81 4t43 20.5t19 38.5t3 70v30h-6q-36 -65 -147 -65
q-98 0 -136.5 54.5t-38.5 202.5q0 149 39.5 205.5t135.5 56.5q113 0 150 -72h8l4 64h124v-450q0 -52 -2.5 -84.5t-11 -66t-24.5 -52.5t-43.5 -34.5t-68 -22t-97.5 -6.5zM284 112q61 0 80 33q16 26 16 112q0 84 -15 112q-20 35 -81 35q-67 0 -82.5 -23.5t-15.5 -123.5
q0 -98 15.5 -121.5t82.5 -23.5z" />
    <glyph glyph-name="Gdotaccent" unicode="&#x120;" horiz-adv-x="670" 
d="M290 782v101h113v-101h-113zM365 -8q-65 0 -110 6t-80.5 22t-56 40t-34 65.5t-18 92.5t-4.5 126q0 72 5 122t18 91.5t34.5 66.5t56 42t80 23.5t109.5 6.5q117 0 227 -22v-111q-108 15 -172 15q-42 0 -63.5 -0.5t-49 -4t-39 -9t-26 -17.5t-19.5 -27.5t-10.5 -42t-6.5 -57
t-1 -76.5q0 -55 2 -89t8.5 -63t17 -43.5t30 -25t44 -13.5t63.5 -3q60 0 89 4v167h-113v114h249v-377q-113 -23 -230 -23z" />
    <glyph glyph-name="gdotaccent" unicode="&#x121;" horiz-adv-x="584" 
d="M235 604v101h113v-101h-113zM266 -206q-111 0 -176 12v98q120 -3 144 -3q54 0 81 4t43 20.5t19 38.5t3 70v30h-6q-36 -65 -147 -65q-98 0 -136.5 54.5t-38.5 202.5q0 149 39.5 205.5t135.5 56.5q113 0 150 -72h8l4 64h124v-450q0 -52 -2.5 -84.5t-11 -66t-24.5 -52.5
t-43.5 -34.5t-68 -22t-97.5 -6.5zM284 112q61 0 80 33q16 26 16 112q0 84 -15 112q-20 35 -81 35q-67 0 -82.5 -23.5t-15.5 -123.5q0 -98 15.5 -121.5t82.5 -23.5z" />
    <glyph glyph-name="uni0122" unicode="&#x122;" horiz-adv-x="670" 
d="M365 -8q-65 0 -110 6t-80.5 22t-56 40t-34 65.5t-18 92.5t-4.5 126q0 72 5 122t18 91.5t34.5 66.5t56 42t80 23.5t109.5 6.5q117 0 227 -22v-111q-108 15 -172 15q-42 0 -63.5 -0.5t-49 -4t-39 -9t-26 -17.5t-19.5 -27.5t-10.5 -42t-6.5 -57t-1 -76.5q0 -55 2 -89
t8.5 -63t17 -43.5t30 -25t44 -13.5t63.5 -3q60 0 89 4v167h-113v114h249v-377q-113 -23 -230 -23zM267 -289v54q40 0 53 7.5t13 31.5v16h-55v119h139v-83q0 -91 -26.5 -118t-123.5 -27z" />
    <glyph glyph-name="uni0123" unicode="&#x123;" horiz-adv-x="584" 
d="M223 582v83q0 91 26.5 118t123.5 27v-54q-40 0 -53 -7.5t-13 -32.5v-15h55v-119h-139zM266 -206q-111 0 -176 12v98q120 -3 144 -3q54 0 81 4t43 20.5t19 38.5t3 70v30h-6q-36 -65 -147 -65q-98 0 -136.5 54.5t-38.5 202.5q0 149 39.5 205.5t135.5 56.5q113 0 150 -72h8
l4 64h124v-450q0 -52 -2.5 -84.5t-11 -66t-24.5 -52.5t-43.5 -34.5t-68 -22t-97.5 -6.5zM284 112q61 0 80 33q16 26 16 112q0 84 -15 112q-20 35 -81 35q-67 0 -82.5 -23.5t-15.5 -123.5q0 -98 15.5 -121.5t82.5 -23.5z" />
    <glyph glyph-name="Hcircumflex" unicode="&#x124;" horiz-adv-x="720" 
d="M200 760v7l96 137h128l97 -137v-7h-88l-73 85l-73 -85h-87zM82 0v688h142v-281h272v281h143v-688h-143v285h-272v-285h-142z" />
    <glyph glyph-name="hcircumflex" unicode="&#x125;" horiz-adv-x="592" 
d="M-24 764v7l96 137h129l97 -137v-7h-89l-73 85l-72 -85h-88zM70 0v743h133v-293h8q38 67 150 67q98 0 129 -45.5t31 -152.5v-319h-133v270q0 50 -2 73.5t-12.5 39t-25.5 18t-48 2.5q-61 0 -79 -29.5t-18 -109.5v-264h-133z" />
    <glyph glyph-name="Hbar" unicode="&#x126;" horiz-adv-x="720" 
d="M82 0v688h142v-112h272v112h143v-688h-143v245h-272v-245h-142zM224 367h272v105h-272v-105z" />
    <glyph glyph-name="hbar" unicode="&#x127;" horiz-adv-x="592" 
d="M361 517q98 0 129 -45.5t31 -152.5v-319h-133v270q0 50 -2 73.5t-12.5 39t-25.5 18t-48 2.5q-61 0 -79 -29.5t-18 -109.5v-264h-133v585h-63v103h63v55h133v-55h124v-103h-124v-135h8q38 67 150 67z" />
    <glyph glyph-name="Itilde" unicode="&#x128;" horiz-adv-x="306" 
d="M-28 759q0 31 1 48t5.5 36t14 28.5t25.5 15.5t41 6q33 0 109 -20q51 -15 72 -15q19 0 23 8.5t4 37.5h69q0 -74 -15 -103.5t-71 -29.5q-41 0 -109 20q-58 15 -72 15q-19 0 -23 -8.5t-4 -38.5h-70zM82 0v688h142v-688h-142z" />
    <glyph glyph-name="itilde" unicode="&#x129;" horiz-adv-x="275" 
d="M-46 581q0 31 1 48t5.5 36t14 28.5t25.5 15.5t41 6q33 0 109 -20q51 -15 72 -15q19 0 23 8.5t4 37.5h69q0 -74 -15 -103.5t-71 -29.5q-41 0 -109 20q-58 15 -72 15q-19 0 -23 -8.5t-4 -38.5h-70zM70 0v510h134v-510h-134z" />
    <glyph glyph-name="Imacron" unicode="&#x12a;" horiz-adv-x="306" 
d="M-5 782v84h315v-84h-315zM82 0v688h142v-688h-142z" />
    <glyph glyph-name="imacron" unicode="&#x12b;" horiz-adv-x="275" 
d="M-21 604v84h315v-84h-315zM70 0v510h134v-510h-134z" />
    <glyph glyph-name="Ibreve" unicode="&#x12c;" horiz-adv-x="306" 
d="M151 756q-91 0 -118.5 36t-27.5 112h77q0 -21 1 -31t7.5 -21.5t21 -15.5t39.5 -4q26 0 41 4.5t21.5 15.5t8 21t1.5 31h77q0 -76 -28.5 -112t-120.5 -36zM82 0v688h142v-688h-142z" />
    <glyph glyph-name="ibreve" unicode="&#x12d;" horiz-adv-x="275" 
d="M135 578q-91 0 -118.5 36t-27.5 112h77q0 -21 1 -31t7.5 -21.5t21 -15.5t39.5 -4q26 0 41 4.5t21.5 15.5t8 21t1.5 31h77q0 -76 -28.5 -112t-120.5 -36zM70 0v510h134v-510h-134z" />
    <glyph glyph-name="Iogonek" unicode="&#x12e;" horiz-adv-x="306" 
d="M208 -125q11 0 17 2v-74q-25 -3 -59 -3q-116 0 -116 82q0 57 64 118h-32v688h142v-688q-22 -15 -42.5 -41.5t-20.5 -47.5q0 -36 47 -36z" />
    <glyph glyph-name="iogonek" unicode="&#x12f;" horiz-adv-x="275" 
d="M69 743h137v-118h-137v118zM141 -89q0 -36 47 -36q11 0 17 2v-74q-25 -3 -59 -3q-116 0 -116 82q0 57 64 118h-24v510h134v-510q-22 -15 -42.5 -41.5t-20.5 -47.5z" />
    <glyph glyph-name="Idotaccent" unicode="&#x130;" horiz-adv-x="306" 
d="M96 782v101h113v-101h-113zM82 0v688h142v-688h-142z" />
    <glyph glyph-name="dotlessi" unicode="&#x131;" horiz-adv-x="275" 
d="M70 0v510h134v-510h-134z" />
    <glyph glyph-name="IJ" unicode="&#x132;" horiz-adv-x="694" 
d="M82 0v688h142v-688h-142zM332 0v110l60 1.5t39 8t25.5 13t11.5 27.5t5.5 40t0.5 60v428h143v-389q0 -62 -0.5 -96.5t-6.5 -71.5t-11 -54t-23 -35t-33.5 -23.5t-51.5 -11.5t-67.5 -6.5t-91.5 -0.5z" />
    <glyph glyph-name="ij" unicode="&#x133;" horiz-adv-x="549" 
d="M69 625v118h137v-118h-137zM344 625v118h137v-118h-137zM70 0v510h134v-510h-134zM258 -200v99q58 0 72.5 10.5t14.5 42.5v558h134v-530q0 -63 -8.5 -98t-37 -54t-65.5 -23.5t-110 -4.5z" />
    <glyph glyph-name="Jcircumflex" unicode="&#x134;" horiz-adv-x="388" 
d="M79 760v7l96 137h128l97 -137v-7h-88l-73 85l-73 -85h-87zM26 0v110l60 1.5t39 8t25.5 13t11.5 27.5t5.5 40t0.5 60v428h143v-389q0 -62 -0.5 -96.5t-6.5 -71.5t-11 -54t-23 -35t-33.5 -23.5t-51.5 -11.5t-67.5 -6.5t-91.5 -0.5z" />
    <glyph glyph-name="jcircumflex" unicode="&#x135;" horiz-adv-x="275" 
d="M-23 582v7l96 137h128l97 -137v-7h-88l-73 85l-73 -85h-87zM-17 -200v99q58 0 72.5 10.5t14.5 42.5v558h134v-530q0 -63 -8.5 -98t-37 -54t-65.5 -23.5t-110 -4.5z" />
    <glyph glyph-name="uni0136" unicode="&#x136;" horiz-adv-x="678" 
d="M83 0v688h142v-279h69l212 279h157l-255 -329l258 -359h-163l-209 291h-69v-291h-142zM271 -289v53q37 0 49 7.5t12 32.5v16h-52v94h124v-61q0 -89 -23.5 -115.5t-109.5 -26.5z" />
    <glyph glyph-name="uni0137" unicode="&#x137;" horiz-adv-x="557" 
d="M70 0v743h133v-434h42l146 201h144l-183 -245l186 -265h-149l-144 202h-42v-202h-133zM204 -289v54q40 0 53 7.5t13 31.5v16h-55v119h139v-83q0 -91 -26.5 -118t-123.5 -27z" />
    <glyph glyph-name="kgreenlandic" unicode="&#x138;" horiz-adv-x="557" 
d="M70 0v510h133v-201h42l146 201h144l-183 -245l186 -265h-149l-144 202h-42v-202h-133z" />
    <glyph glyph-name="Lacute" unicode="&#x139;" horiz-adv-x="541" 
d="M125 760v5l94 139h134v-5l-132 -139h-96zM83 0v688h142v-565h290v-123h-432z" />
    <glyph glyph-name="lacute" unicode="&#x13a;" horiz-adv-x="275" 
d="M59 773v5l94 139h133v-5l-131 -139h-96zM70 0v743h134v-743h-134z" />
    <glyph glyph-name="uni013B" unicode="&#x13b;" horiz-adv-x="541" 
d="M83 0v688h142v-565h290v-123h-432zM230 -289v53q37 0 49 7.5t12 32.5v16h-52v94h124v-61q0 -89 -23.5 -115.5t-109.5 -26.5z" />
    <glyph glyph-name="uni013C" unicode="&#x13c;" horiz-adv-x="275" 
d="M70 0v743h134v-743h-134zM57 -289v54q40 0 53 7.5t13 31.5v16h-55v119h139v-83q0 -91 -26.5 -118t-123.5 -27z" />
    <glyph glyph-name="Lcaron" unicode="&#x13d;" horiz-adv-x="541" 
d="M416 503l15 193v62h109v-62l-45 -193h-79zM83 0v688h142v-565h290v-123h-432z" />
    <glyph glyph-name="lcaron" unicode="&#x13e;" horiz-adv-x="275" 
d="M70 0v743h134v-743h-134zM234 433l15 193v62h109v-62l-45 -193h-79z" />
    <glyph glyph-name="Ldot" unicode="&#x13f;" horiz-adv-x="540" 
d="M83 0v688h142v-565h290v-123h-432zM350 309v131h146v-131h-146z" />
    <glyph glyph-name="ldot" unicode="&#x140;" horiz-adv-x="342" 
d="M70 0v743h134v-743h-134zM240 234v131h140v-131h-140z" />
    <glyph glyph-name="Lslash" unicode="&#x141;" horiz-adv-x="537" 
d="M225 123h290v-123h-432v269l-60 -22v102l60 22v317h142v-264l162 61v-102l-162 -61v-199z" />
    <glyph glyph-name="lslash" unicode="&#x142;" horiz-adv-x="287" 
d="M76 0v299l-54 -20v102l54 19v343h134v-295l54 20v-103l-54 -20v-345h-134z" />
    <glyph glyph-name="Nacute" unicode="&#x143;" horiz-adv-x="721" 
d="M297 760v5l94 139h134v-5l-132 -139h-96zM82 0v688h147l269 -422h5v422h137v-688h-136l-281 445h-4v-445h-137z" />
    <glyph glyph-name="nacute" unicode="&#x144;" horiz-adv-x="592" 
d="M218 582v5l94 139h134v-5l-132 -139h-96zM70 0v510h125l4 -64h8q37 72 154 72q98 0 129 -46t31 -153v-319h-133v270q0 50 -2 73.5t-12.5 39t-25.5 18t-48 2.5q-61 0 -79 -29.5t-18 -109.5v-264h-133z" />
    <glyph glyph-name="uni0145" unicode="&#x145;" horiz-adv-x="721" 
d="M82 0v688h147l269 -422h5v422h137v-688h-136l-281 445h-4v-445h-137zM301 -289v53q37 0 49 7.5t12 32.5v16h-52v94h124v-61q0 -89 -23.5 -115.5t-109.5 -26.5z" />
    <glyph glyph-name="uni0146" unicode="&#x146;" horiz-adv-x="592" 
d="M70 0v510h125l4 -64h8q37 72 154 72q98 0 129 -46t31 -153v-319h-133v270q0 50 -2 73.5t-12.5 39t-25.5 18t-48 2.5q-61 0 -79 -29.5t-18 -109.5v-264h-133zM216 -289v54q40 0 53 7.5t13 31.5v16h-55v119h139v-83q0 -91 -26.5 -118t-123.5 -27z" />
    <glyph glyph-name="Ncaron" unicode="&#x147;" horiz-adv-x="721" 
d="M306 760l-96 137v7h87l73 -86l73 86h88v-7l-97 -137h-128zM82 0v688h147l269 -422h5v422h137v-688h-136l-281 445h-4v-445h-137z" />
    <glyph glyph-name="ncaron" unicode="&#x148;" horiz-adv-x="592" 
d="M231 582l-96 137v7h87l73 -86l73 86h88v-7l-97 -137h-128zM70 0v510h125l4 -64h8q37 72 154 72q98 0 129 -46t31 -153v-319h-133v270q0 50 -2 73.5t-12.5 39t-25.5 18t-48 2.5q-61 0 -79 -29.5t-18 -109.5v-264h-133z" />
    <glyph glyph-name="napostrophe" unicode="&#x149;" horiz-adv-x="661" 
d="M0 512v54q40 0 53 12t13 50v17h-55v98h139v-63q0 -55 -4.5 -84.5t-21 -50t-45 -27t-79.5 -6.5zM139 0v510h124l4 -64h9q37 72 154 72q97 0 128.5 -46t31.5 -153v-319h-133v270q0 92 -14 112.5t-75 20.5t-78.5 -29.5t-17.5 -109.5v-264h-133z" />
    <glyph glyph-name="Eng" unicode="&#x14a;" horiz-adv-x="721" 
d="M416 -200v99q58 0 72.5 10.5t14.5 42.5v50l-280 443h-4v-445h-137v688h147l269 -422h5v422h137v-708q0 -42 -3.5 -70.5t-15 -49.5t-26 -32t-42.5 -17.5t-58 -8.5t-79 -2z" />
    <glyph glyph-name="eng" unicode="&#x14b;" horiz-adv-x="592" 
d="M301 -200v99q58 0 72.5 10.5t14.5 42.5v318q0 50 -2 73.5t-12.5 39t-25.5 18t-48 2.5q-61 0 -79 -29.5t-18 -109.5v-264h-133v510h125l4 -64h8q37 72 154 72q98 0 129 -46t31 -153v-339q0 -63 -8.5 -98t-36.5 -54t-65 -23.5t-110 -4.5z" />
    <glyph glyph-name="Omacron" unicode="&#x14c;" horiz-adv-x="708" 
d="M196 782v84h315v-84h-315zM354 -8q-43 0 -76.5 2t-62 8.5t-49 13t-37 21t-27.5 27t-18.5 37t-11.5 45t-6.5 56t-3 65t-0.5 77.5t0.5 77.5t3 65t6.5 56t11.5 45t18.5 37t27.5 27t37 21t49 13t62 8.5t76.5 2q54 0 93.5 -3t71 -13.5t52 -21.5t35.5 -35t22.5 -45.5t12 -62.5
t5.5 -76t1 -95t-1 -95t-5.5 -76t-12 -62.5t-22.5 -45.5t-35.5 -35t-52 -21.5t-71 -13.5t-93.5 -3zM354 110h48t35.5 4.5t27 8.5t17.5 18.5t12.5 27.5t5.5 42.5t3 56v76.5v76.5t-3 56t-5.5 42.5t-12.5 27.5t-17.5 18.5t-27 8.5t-35.5 4.5h-48h-48t-35.5 -4.5t-27 -8.5
t-17.5 -18.5t-12 -27.5t-5.5 -42.5t-3.5 -56.5v-76v-76t3.5 -56.5t5.5 -42.5t12 -27.5t17.5 -18.5t27 -8.5t35.5 -4.5h48z" />
    <glyph glyph-name="omacron" unicode="&#x14d;" horiz-adv-x="572" 
d="M128 604v84h315v-84h-315zM286 -8q-56 0 -94 4.5t-65 19t-41 30.5t-22 50.5t-10 67.5t-2 92t2 92t10 67t22 50t41 30t65 18.5t94 4.5t94 -4.5t65 -18.5t41 -30t22 -50t10 -67t2 -92t-2 -92t-10 -67.5t-22 -50.5t-41 -30.5t-65 -19t-94 -4.5zM286 99q27 0 42.5 1t28 9.5
t17.5 15t8 29.5t3.5 41t0.5 61v47.5t-1.5 35.5t-3.5 28t-7.5 18.5t-12 14t-18 6.5t-24.5 4.5t-33 0.5t-33 -0.5t-24.5 -4.5t-18 -6.5t-12 -14t-7.5 -18.5t-3.5 -28t-1.5 -35.5v-47.5q0 -43 0.5 -61t3.5 -41t8 -29.5t17.5 -15t28 -9.5t42.5 -1z" />
    <glyph glyph-name="Obreve" unicode="&#x14e;" horiz-adv-x="708" 
d="M353 756q-91 0 -118.5 36t-27.5 112h77q0 -21 1 -31t7.5 -21.5t21 -15.5t39.5 -4q26 0 41 4.5t21.5 15.5t8 21t1.5 31h77q0 -76 -28.5 -112t-120.5 -36zM354 -8q-43 0 -76.5 2t-62 8.5t-49 13t-37 21t-27.5 27t-18.5 37t-11.5 45t-6.5 56t-3 65t-0.5 77.5t0.5 77.5t3 65
t6.5 56t11.5 45t18.5 37t27.5 27t37 21t49 13t62 8.5t76.5 2q54 0 93.5 -3t71 -13.5t52 -21.5t35.5 -35t22.5 -45.5t12 -62.5t5.5 -76t1 -95t-1 -95t-5.5 -76t-12 -62.5t-22.5 -45.5t-35.5 -35t-52 -21.5t-71 -13.5t-93.5 -3zM354 110h48t35.5 4.5t27 8.5t17.5 18.5
t12.5 27.5t5.5 42.5t3 56v76.5v76.5t-3 56t-5.5 42.5t-12.5 27.5t-17.5 18.5t-27 8.5t-35.5 4.5h-48h-48t-35.5 -4.5t-27 -8.5t-17.5 -18.5t-12 -27.5t-5.5 -42.5t-3.5 -56.5v-76v-76t3.5 -56.5t5.5 -42.5t12 -27.5t17.5 -18.5t27 -8.5t35.5 -4.5h48z" />
    <glyph glyph-name="obreve" unicode="&#x14f;" horiz-adv-x="572" 
d="M284 578q-91 0 -118.5 36t-27.5 112h77q0 -21 1 -31t7.5 -21.5t21 -15.5t39.5 -4q26 0 41 4.5t21.5 15.5t8 21t1.5 31h77q0 -76 -28.5 -112t-120.5 -36zM286 -8q-56 0 -94 4.5t-65 19t-41 30.5t-22 50.5t-10 67.5t-2 92t2 92t10 67t22 50t41 30t65 18.5t94 4.5t94 -4.5
t65 -18.5t41 -30t22 -50t10 -67t2 -92t-2 -92t-10 -67.5t-22 -50.5t-41 -30.5t-65 -19t-94 -4.5zM286 99q27 0 42.5 1t28 9.5t17.5 15t8 29.5t3.5 41t0.5 61v47.5t-1.5 35.5t-3.5 28t-7.5 18.5t-12 14t-18 6.5t-24.5 4.5t-33 0.5t-33 -0.5t-24.5 -4.5t-18 -6.5t-12 -14
t-7.5 -18.5t-3.5 -28t-1.5 -35.5v-47.5q0 -43 0.5 -61t3.5 -41t8 -29.5t17.5 -15t28 -9.5t42.5 -1z" />
    <glyph glyph-name="Ohungarumlaut" unicode="&#x150;" horiz-adv-x="708" 
d="M220 760v5l84 122h111v-5l-115 -122h-80zM410 760v5l84 122h112v-5l-115 -122h-81zM354 -8q-43 0 -76.5 2t-62 8.5t-49 13t-37 21t-27.5 27t-18.5 37t-11.5 45t-6.5 56t-3 65t-0.5 77.5t0.5 77.5t3 65t6.5 56t11.5 45t18.5 37t27.5 27t37 21t49 13t62 8.5t76.5 2
q54 0 93.5 -3t71 -13.5t52 -21.5t35.5 -35t22.5 -45.5t12 -62.5t5.5 -76t1 -95t-1 -95t-5.5 -76t-12 -62.5t-22.5 -45.5t-35.5 -35t-52 -21.5t-71 -13.5t-93.5 -3zM354 110h48t35.5 4.5t27 8.5t17.5 18.5t12.5 27.5t5.5 42.5t3 56v76.5v76.5t-3 56t-5.5 42.5t-12.5 27.5
t-17.5 18.5t-27 8.5t-35.5 4.5h-48h-48t-35.5 -4.5t-27 -8.5t-17.5 -18.5t-12 -27.5t-5.5 -42.5t-3.5 -56.5v-76v-76t3.5 -56.5t5.5 -42.5t12 -27.5t17.5 -18.5t27 -8.5t35.5 -4.5h48z" />
    <glyph glyph-name="ohungarumlaut" unicode="&#x151;" horiz-adv-x="572" 
d="M144 582v5l84 122h111v-5l-115 -122h-80zM334 582v5l84 122h112v-5l-115 -122h-81zM286 -8q-56 0 -94 4.5t-65 19t-41 30.5t-22 50.5t-10 67.5t-2 92t2 92t10 67t22 50t41 30t65 18.5t94 4.5t94 -4.5t65 -18.5t41 -30t22 -50t10 -67t2 -92t-2 -92t-10 -67.5t-22 -50.5
t-41 -30.5t-65 -19t-94 -4.5zM286 99q27 0 42.5 1t28 9.5t17.5 15t8 29.5t3.5 41t0.5 61v47.5t-1.5 35.5t-3.5 28t-7.5 18.5t-12 14t-18 6.5t-24.5 4.5t-33 0.5t-33 -0.5t-24.5 -4.5t-18 -6.5t-12 -14t-7.5 -18.5t-3.5 -28t-1.5 -35.5v-47.5q0 -43 0.5 -61t3.5 -41t8 -29.5
t17.5 -15t28 -9.5t42.5 -1z" />
    <glyph glyph-name="OE" unicode="&#x152;" horiz-adv-x="1018" 
d="M354 0q-72 0 -119.5 5.5t-81 24.5t-51 39t-27 66.5t-11.5 88t-2 120.5t2 120.5t11.5 88t27 66.5t51 39t81 24.5t119.5 5.5h609v-118h-273q-36 0 -71 8q25 -58 27 -172h270v-118h-269q-3 -126 -28 -178q35 8 71 8h273v-118h-609zM354 118q42 0 61.5 0.5t40.5 10t27 19
t12.5 40.5t7 61.5t0.5 94.5t-0.5 94.5t-7 61.5t-12.5 40.5t-27 19t-40.5 10t-61.5 0.5t-61.5 -0.5t-40.5 -10t-27 -19t-12.5 -40.5t-7 -61.5t-0.5 -94.5t0.5 -94.5t7 -61.5t12.5 -40.5t27 -19t40.5 -10t61.5 -0.5z" />
    <glyph glyph-name="oe" unicode="&#x153;" horiz-adv-x="894" 
d="M840 254v-39h-318q0 -56 7.5 -77t36 -30.5t99.5 -9.5q69 0 155 9v-99q-70 -16 -184 -16q-127 0 -181 43q-47 -43 -170 -43q-42 0 -73 2.5t-56 10t-41.5 16t-28.5 26.5t-18.5 34.5t-10 46.5t-4.5 57t-1 71q0 59 2 92t10 67t22 50t41 30t64.5 18.5t93.5 4.5q121 0 170 -43
q53 43 169 43q45 0 78 -5.5t56.5 -14t38.5 -27t24 -35.5t13 -49.5t5 -59t1 -73.5zM620 414q-63 0 -80 -21t-18 -96h191q0 76 -18 96.5t-75 20.5zM286 99q27 0 42.5 1t28 9.5t17.5 15t8 29.5t3.5 41t0.5 61v47.5t-1.5 35.5t-3.5 28t-7.5 18.5t-12 14t-18 6.5t-24.5 4.5
t-33 0.5t-33 -0.5t-24.5 -4.5t-18 -6.5t-12 -14t-7.5 -18.5t-3.5 -28t-1.5 -35.5v-47.5q0 -43 0.5 -61t3.5 -41t8 -29.5t17.5 -15t28 -9.5t42.5 -1z" />
    <glyph glyph-name="Racute" unicode="&#x154;" horiz-adv-x="679" 
d="M494 899l-132 -139h-96v5l94 139h134v-5zM632 0h-151l-98 251h-158v-251h-142v688h324q55 0 93.5 -10.5t61.5 -28t36 -46.5t17 -59.5t4 -73.5q0 -164 -97 -201zM350 369q84 0 105 19t21 82q0 64 -20 82t-104 18h-127v-201h125z" />
    <glyph glyph-name="racute" unicode="&#x155;" horiz-adv-x="394" 
d="M119 582v5l94 139h134v-5l-132 -139h-96zM70 0v510h125l4 -88h8q19 54 58 75t105 21v-127q-97 0 -132 -40.5t-35 -146.5v-204h-133z" />
    <glyph glyph-name="uni0156" unicode="&#x156;" horiz-adv-x="679" 
d="M522 269l110 -269h-151l-98 251h-158v-251h-142v688h324q55 0 93.5 -10.5t61.5 -28t36 -46.5t17 -59.5t4 -73.5q0 -164 -97 -201zM350 369q84 0 105 19t21 82q0 64 -20 82t-104 18h-127v-201h125zM280 -180v94h124v-61q0 -89 -23.5 -115.5t-109.5 -26.5v53q37 0 49 7.5
t12 32.5v16h-52z" />
    <glyph glyph-name="uni0157" unicode="&#x157;" horiz-adv-x="394" 
d="M70 0v510h125l4 -88h8q19 54 58 75t105 21v-127q-97 0 -132 -40.5t-35 -146.5v-204h-133zM57 -289v54q40 0 53 7.5t13 31.5v16h-55v119h139v-83q0 -91 -26.5 -118t-123.5 -27z" />
    <glyph glyph-name="Rcaron" unicode="&#x158;" horiz-adv-x="679" 
d="M403 760h-128l-96 137v7h87l73 -86l73 86h88v-7zM632 0h-151l-98 251h-158v-251h-142v688h324q55 0 93.5 -10.5t61.5 -28t36 -46.5t17 -59.5t4 -73.5q0 -164 -97 -201zM350 369q84 0 105 19t21 82q0 64 -20 82t-104 18h-127v-201h125z" />
    <glyph glyph-name="rcaron" unicode="&#x159;" horiz-adv-x="394" 
d="M133 582l-96 137v7h87l73 -86l73 86h88v-7l-97 -137h-128zM70 0v510h125l4 -88h8q19 54 58 75t105 21v-127q-97 0 -132 -40.5t-35 -146.5v-204h-133z" />
    <glyph glyph-name="Sacute" unicode="&#x15a;" horiz-adv-x="622" 
d="M238 760v5l94 139h134v-5l-132 -139h-96zM325 -8q-137 0 -252 16v114q123 -12 210 -12q96 0 122 20q19 15 19 68q0 46 -9.5 59.5t-49.5 17.5l-147 18q-96 11 -130.5 59t-34.5 139q0 54 13 92t34 60t56 34t69.5 15.5t84.5 3.5q126 0 224 -20v-111q-96 13 -195 13
q-91 0 -119 -16q-16 -8 -20 -22t-4 -42q0 -45 11 -57t56 -17l158 -19q94 -10 123 -67q24 -46 24 -130q0 -71 -17 -116t-53 -66t-74 -27.5t-99 -6.5z" />
    <glyph glyph-name="sacute" unicode="&#x15b;" horiz-adv-x="498" 
d="M171 582v5l94 139h134v-5l-132 -139h-96zM257 -8q-103 0 -197 14v101q88 -9 169 -9q65 0 81.5 10t16.5 41q0 29 -8.5 36t-45.5 12l-118 15q-66 8 -88.5 43.5t-22.5 108.5q0 50 14.5 81.5t44.5 47t63.5 20.5t84.5 5q101 0 174 -16v-100q-80 10 -155 10q-60 0 -80 -8.5
t-20 -39.5q0 -28 7.5 -35.5t40.5 -11.5l128 -16q58 -7 82.5 -35.5t24.5 -113.5q0 -98 -47 -129t-149 -31z" />
    <glyph glyph-name="Scircumflex" unicode="&#x15c;" horiz-adv-x="622" 
d="M150 760v7l96 137h128l97 -137v-7h-88l-73 85l-73 -85h-87zM325 -8q-137 0 -252 16v114q123 -12 210 -12q96 0 122 20q19 15 19 68q0 46 -9.5 59.5t-49.5 17.5l-147 18q-96 11 -130.5 59t-34.5 139q0 54 13 92t34 60t56 34t69.5 15.5t84.5 3.5q126 0 224 -20v-111
q-96 13 -195 13q-91 0 -119 -16q-16 -8 -20 -22t-4 -42q0 -45 11 -57t56 -17l158 -19q94 -10 123 -67q24 -46 24 -130q0 -71 -17 -116t-53 -66t-74 -27.5t-99 -6.5z" />
    <glyph glyph-name="scircumflex" unicode="&#x15d;" horiz-adv-x="498" 
d="M88 582v7l96 137h128l97 -137v-7h-88l-73 85l-73 -85h-87zM257 -8q-103 0 -197 14v101q88 -9 169 -9q65 0 81.5 10t16.5 41q0 29 -8.5 36t-45.5 12l-118 15q-66 8 -88.5 43.5t-22.5 108.5q0 50 14.5 81.5t44.5 47t63.5 20.5t84.5 5q101 0 174 -16v-100q-80 10 -155 10
q-60 0 -80 -8.5t-20 -39.5q0 -28 7.5 -35.5t40.5 -11.5l128 -16q58 -7 82.5 -35.5t24.5 -113.5q0 -98 -47 -129t-149 -31z" />
    <glyph glyph-name="Scedilla" unicode="&#x15e;" horiz-adv-x="622" 
d="M568 208q0 -62 -13 -104.5t-40 -65t-58.5 -32.5t-77.5 -13l-35 -183h-125v5l67 177q-128 3 -213 16v114q123 -12 210 -12q96 0 122 20q19 15 19 68q0 46 -9.5 59.5t-49.5 17.5l-147 18q-96 11 -130.5 59t-34.5 139q0 54 13 92t34 60t56 34t69.5 15.5t84.5 3.5
q126 0 224 -20v-111q-96 13 -195 13q-91 0 -119 -16q-16 -8 -20 -22t-4 -42q0 -45 11 -57t56 -17l158 -19q94 -10 123 -67q24 -46 24 -130z" />
    <glyph glyph-name="scedilla" unicode="&#x15f;" horiz-adv-x="498" 
d="M453 152q0 -89 -39 -122.5t-120 -36.5l-35 -183h-125v5l68 178q-94 6 -142 13v101q88 -9 169 -9q65 0 81.5 10t16.5 41q0 29 -8.5 36t-45.5 12l-118 15q-66 8 -88.5 43.5t-22.5 108.5q0 50 14.5 81.5t44.5 47t63.5 20.5t84.5 5q101 0 174 -16v-100q-80 10 -155 10
q-60 0 -80 -8.5t-20 -39.5q0 -28 7.5 -35.5t40.5 -11.5l128 -16q58 -7 82.5 -35.5t24.5 -113.5z" />
    <glyph glyph-name="Scaron" unicode="&#x160;" horiz-adv-x="619" 
d="M251 734l-96 136v7h88l72 -86l73 86h88v-7l-96 -136h-129zM325 -8q-137 0 -252 16v114q123 -12 210 -12q96 0 122 20q19 15 19 68q0 46 -9.5 59.5t-49.5 17.5l-147 18q-96 11 -130.5 59t-34.5 139q0 54 13 92t34 60t56 34t69.5 15.5t84.5 3.5q126 0 224 -20v-111
q-96 13 -195 13q-91 0 -119 -16q-16 -8 -20 -22t-4 -42q0 -45 11 -57t56 -17l158 -19q94 -10 123 -67q24 -46 24 -130q0 -71 -17 -116t-53 -66t-74 -27.5t-99 -6.5z" />
    <glyph glyph-name="scaron" unicode="&#x161;" horiz-adv-x="498" 
d="M184 582l-96 137v7h87l73 -86l73 86h88v-7l-97 -137h-128zM257 -8q-103 0 -197 14v101q88 -9 169 -9q65 0 81.5 10t16.5 41q0 29 -8.5 36t-45.5 12l-118 15q-66 8 -88.5 43.5t-22.5 108.5q0 50 14.5 81.5t44.5 47t63.5 20.5t84.5 5q101 0 174 -16v-100q-80 10 -155 10
q-60 0 -80 -8.5t-20 -39.5q0 -28 7.5 -35.5t40.5 -11.5l128 -16q58 -7 82.5 -35.5t24.5 -113.5q0 -98 -47 -129t-149 -31z" />
    <glyph glyph-name="uni0162" unicode="&#x162;" horiz-adv-x="582" 
d="M20 688h542v-123h-200v-565h-22l-37 -190h-125v5l70 185h-29v565h-199v123z" />
    <glyph glyph-name="uni0163" unicode="&#x163;" horiz-adv-x="390" 
d="M252 510h116v-107h-116v-403h-20l-37 -190h-125v5l70 185h-21v403h-98v107h98v148h133v-148z" />
    <glyph glyph-name="Tcaron" unicode="&#x164;" horiz-adv-x="582" 
d="M226 760l-96 137v7h87l73 -86l73 86h88v-7l-97 -137h-128zM219 0v565h-199v123h542v-123h-200v-565h-143z" />
    <glyph glyph-name="tcaron" unicode="&#x165;" horiz-adv-x="390" 
d="M302 558l15 193v62h109v-62l-45 -193h-79zM119 0v403h-98v107h98v148h133v-148h116v-107h-116v-403h-133z" />
    <glyph glyph-name="Tbar" unicode="&#x166;" horiz-adv-x="581" 
d="M562 565h-200v-190h178v-103h-178v-272h-143v272h-178v103h178v190h-199v123h542v-123z" />
    <glyph glyph-name="tbar" unicode="&#x167;" horiz-adv-x="390" 
d="M369 283v-103h-117v-180h-133v180h-97v103h97v120h-98v107h98v148h133v-148h116v-107h-116v-120h117z" />
    <glyph glyph-name="Utilde" unicode="&#x168;" horiz-adv-x="696" 
d="M167 759q0 31 1 48t5.5 36t14 28.5t25.5 15.5t41 6q33 0 109 -20q51 -15 72 -15q19 0 23 8.5t4 37.5h69q0 -74 -15 -103.5t-71 -29.5q-41 0 -109 20q-58 15 -72 15q-19 0 -23 -8.5t-4 -38.5h-70zM348 -8q-63 0 -105 5t-73.5 20.5t-49 36t-28 59.5t-13.5 82t-3 112v381
h142v-417q0 -41 1 -62t5.5 -42.5t12 -30t23 -16.5t35.5 -9.5t53 -1.5t53 1.5t35.5 9.5t23 16t12 30.5t5 43t0.5 61.5v417h142v-381q0 -69 -3 -112t-13.5 -82t-27.5 -59.5t-48.5 -36t-73.5 -20.5t-105 -5z" />
    <glyph glyph-name="utilde" unicode="&#x169;" horiz-adv-x="592" 
d="M113 581q0 31 1 48t5.5 36t14 28.5t25.5 15.5t41 6q33 0 109 -20q51 -15 72 -15q19 0 23 8.5t4 37.5h69q0 -74 -15 -103.5t-71 -29.5q-41 0 -109 20q-58 15 -72 15q-19 0 -23 -8.5t-4 -38.5h-70zM231 -8q-98 0 -129.5 46t-31.5 153v319h133v-270q0 -92 14 -112.5
t75 -20.5t78.5 29t17.5 110v264h133v-510h-124l-4 64h-8q-37 -72 -154 -72z" />
    <glyph glyph-name="Umacron" unicode="&#x16a;" horiz-adv-x="696" 
d="M190 782v84h315v-84h-315zM348 -8q-63 0 -105 5t-73.5 20.5t-49 36t-28 59.5t-13.5 82t-3 112v381h142v-417q0 -41 1 -62t5.5 -42.5t12 -30t23 -16.5t35.5 -9.5t53 -1.5t53 1.5t35.5 9.5t23 16t12 30.5t5 43t0.5 61.5v417h142v-381q0 -69 -3 -112t-13.5 -82t-27.5 -59.5
t-48.5 -36t-73.5 -20.5t-105 -5z" />
    <glyph glyph-name="umacron" unicode="&#x16b;" horiz-adv-x="592" 
d="M138 604v84h315v-84h-315zM231 -8q-98 0 -129.5 46t-31.5 153v319h133v-270q0 -92 14 -112.5t75 -20.5t78.5 29t17.5 110v264h133v-510h-124l-4 64h-8q-37 -72 -154 -72z" />
    <glyph glyph-name="Ubreve" unicode="&#x16c;" horiz-adv-x="696" 
d="M346 756q-91 0 -118.5 36t-27.5 112h77q0 -21 1 -31t7.5 -21.5t21 -15.5t39.5 -4q26 0 41 4.5t21.5 15.5t8 21t1.5 31h77q0 -76 -28.5 -112t-120.5 -36zM348 -8q-63 0 -105 5t-73.5 20.5t-49 36t-28 59.5t-13.5 82t-3 112v381h142v-417q0 -41 1 -62t5.5 -42.5t12 -30
t23 -16.5t35.5 -9.5t53 -1.5t53 1.5t35.5 9.5t23 16t12 30.5t5 43t0.5 61.5v417h142v-381q0 -69 -3 -112t-13.5 -82t-27.5 -59.5t-48.5 -36t-73.5 -20.5t-105 -5z" />
    <glyph glyph-name="ubreve" unicode="&#x16d;" horiz-adv-x="592" 
d="M294 578q-91 0 -118.5 36t-27.5 112h77q0 -21 1 -31t7.5 -21.5t21 -15.5t39.5 -4q26 0 41 4.5t21.5 15.5t8 21t1.5 31h77q0 -76 -28.5 -112t-120.5 -36zM231 -8q-98 0 -129.5 46t-31.5 153v319h133v-270q0 -92 14 -112.5t75 -20.5t78.5 29t17.5 110v264h133v-510h-124
l-4 64h-8q-37 -72 -154 -72z" />
    <glyph glyph-name="Uring" unicode="&#x16e;" horiz-adv-x="696" 
d="M346 746q-49 0 -77.5 6t-42 22t-17 34t-3.5 53t3.5 53t17 34.5t42 22.5t77.5 6q50 0 79 -6t43 -22.5t17.5 -34.5t3.5 -53t-3.5 -53t-17.5 -34t-43 -22t-79 -6zM346 804q48 0 58 10.5t10 46.5q0 37 -10 47t-58 10q-46 0 -56 -10.5t-10 -46.5t10 -46.5t56 -10.5zM348 -8
q-63 0 -105 5t-73.5 20.5t-49 36t-28 59.5t-13.5 82t-3 112v381h142v-417q0 -41 1 -62t5.5 -42.5t12 -30t23 -16.5t35.5 -9.5t53 -1.5t53 1.5t35.5 9.5t23 16t12 30.5t5 43t0.5 61.5v417h142v-381q0 -69 -3 -112t-13.5 -82t-27.5 -59.5t-48.5 -36t-73.5 -20.5t-105 -5z" />
    <glyph glyph-name="uring" unicode="&#x16f;" horiz-adv-x="592" 
d="M294 568q-49 0 -77.5 6t-42 22t-17 34t-3.5 53t3.5 53t17 34.5t42 22.5t77.5 6q50 0 79 -6t43 -22.5t17.5 -34.5t3.5 -53t-3.5 -53t-17.5 -34t-43 -22t-79 -6zM294 626q48 0 58 10.5t10 46.5q0 37 -10 47t-58 10q-46 0 -56 -10.5t-10 -46.5t10 -46.5t56 -10.5zM231 -8
q-98 0 -129.5 46t-31.5 153v319h133v-270q0 -92 14 -112.5t75 -20.5t78.5 29t17.5 110v264h133v-510h-124l-4 64h-8q-37 -72 -154 -72z" />
    <glyph glyph-name="Uhungarumlaut" unicode="&#x170;" horiz-adv-x="696" 
d="M214 760v5l84 122h111v-5l-115 -122h-80zM404 760v5l84 122h112v-5l-115 -122h-81zM348 -8q-63 0 -105 5t-73.5 20.5t-49 36t-28 59.5t-13.5 82t-3 112v381h142v-417q0 -41 1 -62t5.5 -42.5t12 -30t23 -16.5t35.5 -9.5t53 -1.5t53 1.5t35.5 9.5t23 16t12 30.5t5 43
t0.5 61.5v417h142v-381q0 -69 -3 -112t-13.5 -82t-27.5 -59.5t-48.5 -36t-73.5 -20.5t-105 -5z" />
    <glyph glyph-name="uhungarumlaut" unicode="&#x171;" horiz-adv-x="592" 
d="M153 582v5l84 122h111v-5l-115 -122h-80zM343 582v5l84 122h112v-5l-115 -122h-81zM231 -8q-98 0 -129.5 46t-31.5 153v319h133v-270q0 -92 14 -112.5t75 -20.5t78.5 29t17.5 110v264h133v-510h-124l-4 64h-8q-37 -72 -154 -72z" />
    <glyph glyph-name="Uogonek" unicode="&#x172;" horiz-adv-x="696" 
d="M477 688h142v-381q0 -74 -4 -119t-15 -84.5t-34 -60t-58.5 -33t-89.5 -16.5q-21 -16 -38 -39.5t-17 -43.5q0 -36 47 -36q11 0 17 2v-74q-25 -3 -59 -3q-116 0 -116 82q0 52 56 111q-63 2 -103.5 13t-67 30.5t-39.5 59t-17.5 86.5t-4.5 125v381h142v-417q0 -41 1 -62
t5.5 -42.5t12 -30t23 -16.5t35.5 -9.5t53 -1.5t53 1.5t35.5 9.5t23 16t12 30.5t5 43t0.5 61.5v417z" />
    <glyph glyph-name="uogonek" unicode="&#x173;" horiz-adv-x="592" 
d="M506 -125q11 0 17 2v-74q-26 -3 -59 -3q-116 0 -116 82q0 57 64 118h-15l-4 64h-8q-37 -72 -154 -72q-98 0 -129.5 46t-31.5 153v319h133v-270q0 -92 14 -112.5t75 -20.5t78.5 29t17.5 110v264h133v-510h1q-22 -15 -42.5 -41.5t-20.5 -47.5q0 -36 47 -36z" />
    <glyph glyph-name="Wcircumflex" unicode="&#x174;" horiz-adv-x="983" 
d="M335 760v7l96 137h128l97 -137v-7h-88l-73 85l-73 -85h-87zM192 0l-169 688h143l122 -523h5l133 523h148l135 -523h5l115 523h142l-169 -688h-178l-125 475h-4l-125 -475h-178z" />
    <glyph glyph-name="wcircumflex" unicode="&#x175;" horiz-adv-x="831" 
d="M255 582v7l96 137h128l97 -137v-7h-88l-73 85l-73 -85h-87zM165 0l-142 510h134l90 -367h8l101 367h122l101 -367h9l89 367h131l-143 -510h-161l-85 299h-8l-84 -299h-162z" />
    <glyph glyph-name="Ycircumflex" unicode="&#x176;" horiz-adv-x="623" 
d="M151 760v7l96 137h128l97 -137v-7h-88l-73 85l-73 -85h-87zM239 0v243l-235 445h149l157 -306h7l156 306h145l-236 -445v-243h-143z" />
    <glyph glyph-name="ycircumflex" unicode="&#x177;" horiz-adv-x="592" 
d="M135 582v7l96 137h128l97 -137v-7h-88l-73 85l-73 -85h-87zM279 -206q-107 0 -173 11v99q105 -3 142 -3q52 0 78.5 4t41.5 21t17.5 37.5t2.5 66.5v35h-7q-37 -66 -150 -66q-98 0 -129.5 45.5t-31.5 151.5v314h133v-265q0 -92 14 -112.5t75 -20.5t78.5 29t17.5 110v259
h133v-452q0 -52 -2.5 -84.5t-10.5 -65.5t-24 -52t-43 -34.5t-66.5 -21.5t-95.5 -6z" />
    <glyph glyph-name="Ydieresis" unicode="&#x178;" horiz-adv-x="623" 
d="M151 782v101h113v-101h-113zM358 782v101h113v-101h-113zM239 0v243l-235 445h149l157 -306h7l156 306h145l-236 -445v-243h-143z" />
    <glyph glyph-name="Zacute" unicode="&#x179;" horiz-adv-x="613" 
d="M240 760v5l94 139h134v-5l-132 -139h-96zM47 0v113l338 457h-327v118h507v-109l-342 -461h345v-118h-521z" />
    <glyph glyph-name="zacute" unicode="&#x17a;" horiz-adv-x="520" 
d="M190 582v5l94 139h134v-5l-132 -139h-96zM48 0v100l252 303h-240v107h410v-100l-253 -303h255v-107h-424z" />
    <glyph glyph-name="Zdotaccent" unicode="&#x17b;" horiz-adv-x="613" 
d="M256 782v101h113v-101h-113zM47 0v113l338 457h-327v118h507v-109l-342 -461h345v-118h-521z" />
    <glyph glyph-name="zdotaccent" unicode="&#x17c;" horiz-adv-x="520" 
d="M210 604v101h113v-101h-113zM48 0v100l252 303h-240v107h410v-100l-253 -303h255v-107h-424z" />
    <glyph glyph-name="Zcaron" unicode="&#x17d;" horiz-adv-x="613" 
d="M248 760l-96 137v7h87l73 -86l73 86h88v-7l-97 -137h-128zM47 0v113l338 457h-327v118h507v-109l-342 -461h345v-118h-521z" />
    <glyph glyph-name="zcaron" unicode="&#x17e;" horiz-adv-x="520" 
d="M203 582l-96 137v7h87l73 -86l73 86h88v-7l-97 -137h-128zM48 0v100l252 303h-240v107h410v-100l-253 -303h255v-107h-424z" />
    <glyph glyph-name="longs" unicode="&#x17f;" horiz-adv-x="384" 
d="M120 0v403h-98v107h98v46q0 34 2 59.5t9.5 45.5t15.5 33t25.5 22.5t33 14t46 7.5t56.5 3.5t71 0.5v-97q-85 0 -105.5 -11t-20.5 -56v-578h-133z" />
    <glyph glyph-name="uni018F" unicode="&#x18f;" horiz-adv-x="685" 
d="M342 -8q-52 0 -90 3t-68 13.5t-49.5 21t-33.5 34.5t-21.5 45.5t-11.5 62.5t-5 76t-1 96v62h418q-1 50 -6 78.5t-15 49t-33 29.5t-51.5 12t-79.5 3q-82 0 -154 -10v112q78 16 190 16q65 0 110.5 -6.5t79 -24.5t53 -42t31 -66.5t15 -90.5t3.5 -122q0 -61 -1 -96t-5 -76
t-11.5 -62.5t-22 -45.5t-34 -34.5t-49.5 -21t-68 -13.5t-90 -3zM342 108q36 0 53 1t36 7t26 15.5t14 32t8 50t2 74.5h-277q1 -36 1.5 -58.5t4.5 -43.5t6.5 -32.5t12 -21.5t17 -14t24.5 -6.5t31 -3t41 -0.5z" />
    <glyph glyph-name="florin" unicode="&#x192;" horiz-adv-x="461" 
d="M444 645h-54t-35.5 -6t-25 -10.5t-15.5 -24.5t-13.5 -37t-11.5 -57h126l-22 -107h-126l-83 -389q-9 -40 -16 -66.5t-18.5 -50t-21 -37t-28.5 -24.5t-35 -16t-47.5 -8.5t-58.5 -4t-76 -0.5l20 97q83 0 106 11t33 56l92 432h-97l21 107h98v1q10 44 17.5 73.5t19.5 55.5
t21 41t28.5 28t36 18.5t48.5 9.5t60.5 4.5t77.5 0.5z" />
    <glyph glyph-name="uni019D" unicode="&#x19d;" horiz-adv-x="721" 
d="M-6 -200v99q58 0 73 10.5t15 42.5v736h147l269 -422h5v422h137v-688h-136l-281 445h-4v-465q0 -42 -3.5 -70.5t-15 -49.5t-26 -32t-42.5 -17.5t-58 -8.5t-80 -2z" />
    <glyph glyph-name="Ohorn" unicode="&#x1a0;" horiz-adv-x="708" 
d="M673 780h88v-20q0 -75 -27.5 -99.5t-123.5 -24.5h-14q33 -36 42 -99t9 -193q0 -60 -1 -95t-5.5 -76t-12 -62.5t-22.5 -45.5t-35.5 -35t-52 -21.5t-71 -13.5t-93.5 -3q-43 0 -76.5 2t-62 8.5t-49 13t-37 21t-27.5 27t-18.5 37t-11.5 45t-6.5 56t-3 65t-0.5 77.5t0.5 77.5
t3 65t6.5 56t11.5 45t18.5 37t27.5 27t37 21t49 13t62 8.5t76.5 2q131 0 191 -25v17h65q41 0 52 12.5t11 50.5v29zM354 110h48t35.5 4.5t27 8.5t17.5 18.5t12.5 27.5t5.5 42.5t3 56v76.5v76.5t-3 56t-5.5 42.5t-12.5 27.5t-17.5 18.5t-27 8.5t-35.5 4.5h-48h-48t-35.5 -4.5
t-27 -8.5t-17.5 -18.5t-12 -27.5t-5.5 -42.5t-3.5 -56.5v-76v-76t3.5 -56.5t5.5 -42.5t12 -27.5t17.5 -18.5t27 -8.5t35.5 -4.5h48z" />
    <glyph glyph-name="ohorn" unicode="&#x1a1;" horiz-adv-x="572" 
d="M462 602h88v-20q0 -56 -13 -81.5t-52 -35.5q22 -27 28.5 -73.5t6.5 -135.5q0 -59 -2 -92t-10 -67.5t-22 -50.5t-41 -30.5t-65 -19t-94 -4.5t-94 4.5t-65 19t-41 30.5t-22 50.5t-10 67.5t-2 92t2 92t10 67t22 50t41 30t65 18.5t94 4.5q72 0 112 -8h1q41 0 52 12.5t11 50.5
v29zM286 99q27 0 42.5 1t28 9.5t17.5 15t8 29.5t3.5 41t0.5 61v47.5t-1.5 35.5t-3.5 28t-7.5 18.5t-12 14t-18 6.5t-24.5 4.5t-33 0.5t-33 -0.5t-24.5 -4.5t-18 -6.5t-12 -14t-7.5 -18.5t-3.5 -28t-1.5 -35.5v-47.5q0 -43 0.5 -61t3.5 -41t8 -29.5t17.5 -15t28 -9.5t42.5 -1
z" />
    <glyph glyph-name="Uhorn" unicode="&#x1af;" horiz-adv-x="696" 
d="M623 780h88v-20q0 -63 -17.5 -89t-74.5 -32v-332q0 -69 -3 -112t-13.5 -82t-27.5 -59.5t-48.5 -36t-73.5 -20.5t-105 -5t-105 5t-73.5 20.5t-49 36t-28 59.5t-13.5 82t-3 112v381h142v-417q0 -41 1 -62t5.5 -42.5t12 -30t23 -16.5t35.5 -9.5t53 -1.5t53 1.5t35.5 9.5
t23 16t12 30.5t5 43t0.5 61.5v417h83q41 0 52 12.5t11 50.5v29z" />
    <glyph glyph-name="uhorn" unicode="&#x1b0;" horiz-adv-x="592" 
d="M525 602h88v-20q0 -63 -17.5 -89t-74.5 -32v-461h-124l-4 64h-8q-37 -72 -154 -72q-98 0 -129.5 46t-31.5 153v319h133v-270q0 -92 14 -112.5t75 -20.5t78.5 29t17.5 110v264h74q41 0 52 12.5t11 50.5v29z" />
    <glyph glyph-name="uni01C4" unicode="&#x1c4;" horiz-adv-x="1299" 
d="M933 760l-96 137v7h87l73 -86l73 86h88v-7l-97 -137h-128zM83 0v688h234q76 0 126 -5.5t85 -24.5t53.5 -38.5t28 -66.5t11.5 -88t2 -121t-2 -121t-11.5 -88t-28 -66.5t-53.5 -38.5t-85 -24.5t-126 -5.5h-234zM732 0v113l338 457h-327v118h507v-109l-342 -461h345v-118
h-521zM225 118h85h55t40.5 4t31 7.5t19.5 17.5t14 26t6 41t4 55v75v61t-2.5 48.5t-3.5 39t-7.5 28t-10.5 21t-17 13.5t-20.5 9t-28.5 4t-35.5 2h-44.5h-85v-452z" />
    <glyph glyph-name="uni01C5" unicode="&#x1c5;" horiz-adv-x="1205" 
d="M888 582l-96 137v7h87l73 -86l73 86h88v-7l-97 -137h-128zM83 0v688h234q76 0 126 -5.5t85 -24.5t53.5 -38.5t28 -66.5t11.5 -88t2 -121t-2 -121t-11.5 -88t-28 -66.5t-53.5 -38.5t-85 -24.5t-126 -5.5h-234zM225 118h85h55t40.5 4t31 7.5t19.5 17.5t14 26t6 41t4 55v75
v61t-2.5 48.5t-3.5 39t-7.5 28t-10.5 21t-17 13.5t-20.5 9t-28.5 4t-35.5 2h-44.5h-85v-452zM733 0v100l252 303h-240v107h410v-100l-253 -303h255v-107h-424z" />
    <glyph glyph-name="uni01C6" unicode="&#x1c6;" horiz-adv-x="1103" 
d="M227 -8q-96 0 -135.5 56.5t-39.5 205.5q0 150 38.5 207t133.5 57q110 0 149 -64h7v289h133v-743h-124l-4 63h-8q-36 -71 -150 -71zM787 582l-96 137v7h87l73 -86l73 86h88v-7l-97 -137h-128zM632 0v100l252 303h-240v107h410v-100l-253 -303h255v-107h-424zM284 106
q66 0 84 41q12 30 12 108q0 77 -12 106q-17 42 -84 42t-82.5 -23.5t-15.5 -124.5q0 -102 15.5 -125.5t82.5 -23.5z" />
    <glyph glyph-name="uni01C7" unicode="&#x1c7;" horiz-adv-x="929" 
d="M83 0v688h142v-565h290v-123h-432zM567 0v110l60 1.5t39 8t25.5 13t11.5 27.5t5.5 40t0.5 60v428h143v-389q0 -62 -0.5 -96.5t-6.5 -71.5t-11 -54t-23 -35t-33.5 -23.5t-51.5 -11.5t-67.5 -6.5t-91.5 -0.5z" />
    <glyph glyph-name="uni01C8" unicode="&#x1c8;" horiz-adv-x="815" 
d="M610 625v118h137v-118h-137zM83 0v688h142v-565h290v-123h-432zM524 -200v99q58 0 72.5 10.5t14.5 42.5v558h134v-530q0 -63 -8.5 -98t-37 -54t-65.5 -23.5t-110 -4.5z" />
    <glyph glyph-name="uni01C9" unicode="&#x1c9;" horiz-adv-x="549" 
d="M70 0v743h134v-743h-134zM344 625v118h137v-118h-137zM258 -200v99q58 0 72.5 10.5t14.5 42.5v558h134v-530q0 -63 -8.5 -98t-37 -54t-65.5 -23.5t-110 -4.5z" />
    <glyph glyph-name="uni01CA" unicode="&#x1ca;" horiz-adv-x="1110" 
d="M82 0v688h147l269 -422h5v422h137v-688h-136l-281 445h-4v-445h-137zM747 0v110l60 1.5t39 8t25.5 13t11.5 27.5t5.5 40t0.5 60v428h143v-389q0 -62 -0.5 -96.5t-6.5 -71.5t-11 -54t-23 -35t-33.5 -23.5t-51.5 -11.5t-67.5 -6.5t-91.5 -0.5z" />
    <glyph glyph-name="uni01CB" unicode="&#x1cb;" horiz-adv-x="996" 
d="M790 625v118h137v-118h-137zM82 0v688h147l269 -422h5v422h137v-688h-136l-281 445h-4v-445h-137zM704 -200v99q58 0 72.5 10.5t14.5 42.5v558h134v-530q0 -63 -8.5 -98t-37 -54t-65.5 -23.5t-110 -4.5z" />
    <glyph glyph-name="uni01CC" unicode="&#x1cc;" horiz-adv-x="867" 
d="M661 625v118h137v-118h-137zM70 0v510h125l4 -64h8q37 72 154 72q98 0 129 -46t31 -153v-319h-133v270q0 50 -2 73.5t-12.5 39t-25.5 18t-48 2.5q-61 0 -79 -29.5t-18 -109.5v-264h-133zM575 -200v99q58 0 72.5 10.5t14.5 42.5v558h134v-530q0 -63 -8.5 -98t-37 -54
t-65.5 -23.5t-110 -4.5z" />
    <glyph glyph-name="uni01CD" unicode="&#x1cd;" horiz-adv-x="687" 
d="M279 760l-96 137v7h87l73 -86l73 86h88v-7l-97 -137h-128zM15 0l233 688h191l233 -688h-147l-50 152h-268l-48 -152h-144zM245 270h192l-94 289h-5z" />
    <glyph glyph-name="uni01CE" unicode="&#x1ce;" horiz-adv-x="564" 
d="M219 582l-96 137v7h87l73 -86l73 86h88v-7l-97 -137h-128zM196 -8q-77 0 -114.5 35t-37.5 116q0 89 33.5 124t126.5 35q52 0 156 -4v20q0 65 -22.5 79t-112.5 14q-76 0 -150 -9v101q97 15 194 15q75 0 120 -11t67.5 -39.5t29.5 -62.5t7 -94v-311h-125l-4 62h-7
q-40 -70 -161 -70zM259 95q66 0 86 32q15 25 15 78v15h-120q-43 0 -55.5 -11.5t-12.5 -52.5q0 -39 15.5 -50t71.5 -11z" />
    <glyph glyph-name="uni01CF" unicode="&#x1cf;" horiz-adv-x="306" 
d="M89 760l-96 137v7h87l73 -86l73 86h88v-7l-97 -137h-128zM82 0v688h142v-688h-142z" />
    <glyph glyph-name="uni01D0" unicode="&#x1d0;" horiz-adv-x="275" 
d="M73 582l-96 137v7h87l73 -86l73 86h88v-7l-97 -137h-128zM70 0v510h134v-510h-134z" />
    <glyph glyph-name="uni01D1" unicode="&#x1d1;" horiz-adv-x="708" 
d="M290 760l-96 137v7h87l73 -86l73 86h88v-7l-97 -137h-128zM354 -8q-43 0 -76.5 2t-62 8.5t-49 13t-37 21t-27.5 27t-18.5 37t-11.5 45t-6.5 56t-3 65t-0.5 77.5t0.5 77.5t3 65t6.5 56t11.5 45t18.5 37t27.5 27t37 21t49 13t62 8.5t76.5 2q54 0 93.5 -3t71 -13.5t52 -21.5
t35.5 -35t22.5 -45.5t12 -62.5t5.5 -76t1 -95t-1 -95t-5.5 -76t-12 -62.5t-22.5 -45.5t-35.5 -35t-52 -21.5t-71 -13.5t-93.5 -3zM354 110h48t35.5 4.5t27 8.5t17.5 18.5t12.5 27.5t5.5 42.5t3 56v76.5v76.5t-3 56t-5.5 42.5t-12.5 27.5t-17.5 18.5t-27 8.5t-35.5 4.5h-48
h-48t-35.5 -4.5t-27 -8.5t-17.5 -18.5t-12 -27.5t-5.5 -42.5t-3.5 -56.5v-76v-76t3.5 -56.5t5.5 -42.5t12 -27.5t17.5 -18.5t27 -8.5t35.5 -4.5h48z" />
    <glyph glyph-name="uni01D2" unicode="&#x1d2;" horiz-adv-x="572" 
d="M222 582l-96 137v7h87l73 -86l73 86h88v-7l-97 -137h-128zM286 -8q-56 0 -94 4.5t-65 19t-41 30.5t-22 50.5t-10 67.5t-2 92t2 92t10 67t22 50t41 30t65 18.5t94 4.5t94 -4.5t65 -18.5t41 -30t22 -50t10 -67t2 -92t-2 -92t-10 -67.5t-22 -50.5t-41 -30.5t-65 -19
t-94 -4.5zM286 99q27 0 42.5 1t28 9.5t17.5 15t8 29.5t3.5 41t0.5 61v47.5t-1.5 35.5t-3.5 28t-7.5 18.5t-12 14t-18 6.5t-24.5 4.5t-33 0.5t-33 -0.5t-24.5 -4.5t-18 -6.5t-12 -14t-7.5 -18.5t-3.5 -28t-1.5 -35.5v-47.5q0 -43 0.5 -61t3.5 -41t8 -29.5t17.5 -15t28 -9.5
t42.5 -1z" />
    <glyph glyph-name="uni01D3" unicode="&#x1d3;" horiz-adv-x="696" 
d="M284 760l-96 137v7h87l73 -86l73 86h88v-7l-97 -137h-128zM348 -8q-63 0 -105 5t-73.5 20.5t-49 36t-28 59.5t-13.5 82t-3 112v381h142v-417q0 -41 1 -62t5.5 -42.5t12 -30t23 -16.5t35.5 -9.5t53 -1.5t53 1.5t35.5 9.5t23 16t12 30.5t5 43t0.5 61.5v417h142v-381
q0 -69 -3 -112t-13.5 -82t-27.5 -59.5t-48.5 -36t-73.5 -20.5t-105 -5z" />
    <glyph glyph-name="uni01D4" unicode="&#x1d4;" horiz-adv-x="592" 
d="M231 582l-96 137v7h87l73 -86l73 86h88v-7l-97 -137h-128zM231 -8q-98 0 -129.5 46t-31.5 153v319h133v-270q0 -92 14 -112.5t75 -20.5t78.5 29t17.5 110v264h133v-510h-124l-4 64h-8q-37 -72 -154 -72z" />
    <glyph glyph-name="uni01D5" unicode="&#x1d5;" horiz-adv-x="696" 
d="M190 973v80h315v-80h-315zM188 782v101h113v-101h-113zM395 782v101h113v-101h-113zM348 -8q-63 0 -105 5t-73.5 20.5t-49 36t-28 59.5t-13.5 82t-3 112v381h142v-417q0 -41 1 -62t5.5 -42.5t12 -30t23 -16.5t35.5 -9.5t53 -1.5t53 1.5t35.5 9.5t23 16t12 30.5t5 43
t0.5 61.5v417h142v-381q0 -69 -3 -112t-13.5 -82t-27.5 -59.5t-48.5 -36t-73.5 -20.5t-105 -5z" />
    <glyph glyph-name="uni01D6" unicode="&#x1d6;" horiz-adv-x="592" 
d="M138 764v84h315v-84h-315zM139 604v101h113v-101h-113zM346 604v101h113v-101h-113zM231 -8q-98 0 -129.5 46t-31.5 153v319h133v-270q0 -92 14 -112.5t75 -20.5t78.5 29t17.5 110v264h133v-510h-124l-4 64h-8q-37 -72 -154 -72z" />
    <glyph glyph-name="uni01D7" unicode="&#x1d7;" horiz-adv-x="696" 
d="M275 955v5l94 139h134v-5l-132 -139h-96zM188 782v101h113v-101h-113zM395 782v101h113v-101h-113zM348 -8q-63 0 -105 5t-73.5 20.5t-49 36t-28 59.5t-13.5 82t-3 112v381h142v-417q0 -41 1 -62t5.5 -42.5t12 -30t23 -16.5t35.5 -9.5t53 -1.5t53 1.5t35.5 9.5t23 16
t12 30.5t5 43t0.5 61.5v417h142v-381q0 -69 -3 -112t-13.5 -82t-27.5 -59.5t-48.5 -36t-73.5 -20.5t-105 -5z" />
    <glyph glyph-name="uni01D8" unicode="&#x1d8;" horiz-adv-x="592" 
d="M218 742v5l94 139h134v-5l-132 -139h-96zM139 604v101h113v-101h-113zM346 604v101h113v-101h-113zM231 -8q-98 0 -129.5 46t-31.5 153v319h133v-270q0 -92 14 -112.5t75 -20.5t78.5 29t17.5 110v264h133v-510h-124l-4 64h-8q-37 -72 -154 -72z" />
    <glyph glyph-name="uni01D9" unicode="&#x1d9;" horiz-adv-x="696" 
d="M284 955l-96 137v7h87l73 -86l73 86h88v-7l-97 -137h-128zM188 782v101h113v-101h-113zM395 782v101h113v-101h-113zM348 -8q-63 0 -105 5t-73.5 20.5t-49 36t-28 59.5t-13.5 82t-3 112v381h142v-417q0 -41 1 -62t5.5 -42.5t12 -30t23 -16.5t35.5 -9.5t53 -1.5t53 1.5
t35.5 9.5t23 16t12 30.5t5 43t0.5 61.5v417h142v-381q0 -69 -3 -112t-13.5 -82t-27.5 -59.5t-48.5 -36t-73.5 -20.5t-105 -5z" />
    <glyph glyph-name="uni01DA" unicode="&#x1da;" horiz-adv-x="592" 
d="M231 742l-96 137v7h87l73 -86l73 86h88v-7l-97 -137h-128zM139 604v101h113v-101h-113zM346 604v101h113v-101h-113zM231 -8q-98 0 -129.5 46t-31.5 153v319h133v-270q0 -92 14 -112.5t75 -20.5t78.5 29t17.5 110v264h133v-510h-124l-4 64h-8q-37 -72 -154 -72z" />
    <glyph glyph-name="uni01DB" unicode="&#x1db;" horiz-adv-x="696" 
d="M329 955l-131 139v5h133l95 -139v-5h-97zM188 782v101h113v-101h-113zM395 782v101h113v-101h-113zM348 -8q-63 0 -105 5t-73.5 20.5t-49 36t-28 59.5t-13.5 82t-3 112v381h142v-417q0 -41 1 -62t5.5 -42.5t12 -30t23 -16.5t35.5 -9.5t53 -1.5t53 1.5t35.5 9.5t23 16
t12 30.5t5 43t0.5 61.5v417h142v-381q0 -69 -3 -112t-13.5 -82t-27.5 -59.5t-48.5 -36t-73.5 -20.5t-105 -5z" />
    <glyph glyph-name="uni01DC" unicode="&#x1dc;" horiz-adv-x="592" 
d="M271 742l-131 139v5h133l95 -139v-5h-97zM139 604v101h113v-101h-113zM346 604v101h113v-101h-113zM231 -8q-98 0 -129.5 46t-31.5 153v319h133v-270q0 -92 14 -112.5t75 -20.5t78.5 29t17.5 110v264h133v-510h-124l-4 64h-8q-37 -72 -154 -72z" />
    <glyph glyph-name="Gcaron" unicode="&#x1e6;" horiz-adv-x="670" 
d="M283 760l-96 137v7h87l73 -86l73 86h88v-7l-97 -137h-128zM365 -8q-65 0 -110 6t-80.5 22t-56 40t-34 65.5t-18 92.5t-4.5 126q0 72 5 122t18 91.5t34.5 66.5t56 42t80 23.5t109.5 6.5q117 0 227 -22v-111q-108 15 -172 15q-42 0 -63.5 -0.5t-49 -4t-39 -9t-26 -17.5
t-19.5 -27.5t-10.5 -42t-6.5 -57t-1 -76.5q0 -55 2 -89t8.5 -63t17 -43.5t30 -25t44 -13.5t63.5 -3q60 0 89 4v167h-113v114h249v-377q-113 -23 -230 -23z" />
    <glyph glyph-name="gcaron" unicode="&#x1e7;" horiz-adv-x="584" 
d="M228 582l-96 137v7h87l73 -86l73 86h88v-7l-97 -137h-128zM266 -206q-111 0 -176 12v98q120 -3 144 -3q54 0 81 4t43 20.5t19 38.5t3 70v30h-6q-36 -65 -147 -65q-98 0 -136.5 54.5t-38.5 202.5q0 149 39.5 205.5t135.5 56.5q113 0 150 -72h8l4 64h124v-450
q0 -52 -2.5 -84.5t-11 -66t-24.5 -52.5t-43.5 -34.5t-68 -22t-97.5 -6.5zM284 112q61 0 80 33q16 26 16 112q0 84 -15 112q-20 35 -81 35q-67 0 -82.5 -23.5t-15.5 -123.5q0 -98 15.5 -121.5t82.5 -23.5z" />
    <glyph glyph-name="uni01EA" unicode="&#x1ea;" horiz-adv-x="708" 
d="M442 -5q-51 -43 -51 -80q0 -36 47 -36q11 0 17 2v-74q-25 -3 -59 -3q-116 0 -116 82q0 51 52 106q-66 1 -110.5 7.5t-75.5 26.5t-47 41t-24.5 68t-10.5 88.5t-2 120.5q0 48 0.5 77.5t3 65t6.5 56t11.5 45t18.5 37t27.5 27t37 21t49 13t62 8.5t76.5 2q54 0 93.5 -3
t71 -13.5t52 -21.5t35.5 -35t22.5 -45.5t12 -62.5t5.5 -76t1 -95q0 -53 -0.5 -85t-3.5 -70t-9 -59.5t-16 -45t-25 -36.5t-36.5 -25.5t-49.5 -18.5t-65 -9zM205 344v-76t3.5 -56.5t5.5 -42.5t12 -27.5t17.5 -18.5t27 -8.5t35.5 -4.5h48h48t35.5 4.5t27 8.5t17.5 18.5
t12.5 27.5t5.5 42.5t3 56v76.5v76.5t-3 56t-5.5 42.5t-12.5 27.5t-17.5 18.5t-27 8.5t-35.5 4.5h-48h-48t-35.5 -4.5t-27 -8.5t-17.5 -18.5t-12 -27.5t-5.5 -42.5t-3.5 -56.5v-76z" />
    <glyph glyph-name="uni01EB" unicode="&#x1eb;" horiz-adv-x="572" 
d="M351 -6q-21 -16 -38 -39.5t-17 -43.5q0 -36 47 -36q11 0 17 2v-74q-26 -3 -59 -3q-116 0 -116 82q0 52 57 111q-39 2 -67 7.5t-49 14t-34 25.5t-21.5 34t-12.5 48t-5 59.5t-1 74.5q0 59 2 92t10 67t22 50t41 30t65 18.5t94 4.5t94 -4.5t65 -18.5t41 -30t22 -50t10 -67
t2 -92q0 -45 -1 -72.5t-4.5 -57.5t-11 -47t-19.5 -34t-30 -26t-43.5 -15.5t-59.5 -9.5zM186 256q0 -43 0.5 -61t3.5 -41t8 -29.5t17.5 -15t28 -9.5t42.5 -1t42.5 1t28 9.5t17.5 15t8 29.5t3.5 41t0.5 61v47.5t-1.5 35.5t-3.5 28t-7.5 18.5t-12 14t-18 6.5t-24.5 4.5t-33 0.5
t-33 -0.5t-24.5 -4.5t-18 -6.5t-12 -14t-7.5 -18.5t-3.5 -28t-1.5 -35.5v-47.5z" />
    <glyph glyph-name="uni01F1" unicode="&#x1f1;" horiz-adv-x="1299" 
d="M83 0v688h234q76 0 126 -5.5t85 -24.5t53.5 -38.5t28 -66.5t11.5 -88t2 -121t-2 -121t-11.5 -88t-28 -66.5t-53.5 -38.5t-85 -24.5t-126 -5.5h-234zM732 0v113l338 457h-327v118h507v-109l-342 -461h345v-118h-521zM225 118h85h55t40.5 4t31 7.5t19.5 17.5t14 26t6 41
t4 55v75v61t-2.5 48.5t-3.5 39t-7.5 28t-10.5 21t-17 13.5t-20.5 9t-28.5 4t-35.5 2h-44.5h-85v-452z" />
    <glyph glyph-name="uni01F2" unicode="&#x1f2;" horiz-adv-x="1205" 
d="M83 0v688h234q76 0 126 -5.5t85 -24.5t53.5 -38.5t28 -66.5t11.5 -88t2 -121t-2 -121t-11.5 -88t-28 -66.5t-53.5 -38.5t-85 -24.5t-126 -5.5h-234zM225 118h85h55t40.5 4t31 7.5t19.5 17.5t14 26t6 41t4 55v75v61t-2.5 48.5t-3.5 39t-7.5 28t-10.5 21t-17 13.5t-20.5 9
t-28.5 4t-35.5 2h-44.5h-85v-452zM733 0v100l252 303h-240v107h410v-100l-253 -303h255v-107h-424z" />
    <glyph glyph-name="uni01F3" unicode="&#x1f3;" horiz-adv-x="1103" 
d="M227 -8q-96 0 -135.5 56.5t-39.5 205.5q0 150 38.5 207t133.5 57q110 0 149 -64h7v289h133v-743h-124l-4 63h-8q-36 -71 -150 -71zM632 0v100l252 303h-240v107h410v-100l-253 -303h255v-107h-424zM284 106q66 0 84 41q12 30 12 108q0 77 -12 106q-17 42 -84 42
t-82.5 -23.5t-15.5 -124.5q0 -102 15.5 -125.5t82.5 -23.5z" />
    <glyph glyph-name="uni01F4" unicode="&#x1f4;" horiz-adv-x="670" 
d="M274 760v5l94 139h134v-5l-132 -139h-96zM365 -8q-65 0 -110 6t-80.5 22t-56 40t-34 65.5t-18 92.5t-4.5 126q0 72 5 122t18 91.5t34.5 66.5t56 42t80 23.5t109.5 6.5q117 0 227 -22v-111q-108 15 -172 15q-42 0 -63.5 -0.5t-49 -4t-39 -9t-26 -17.5t-19.5 -27.5
t-10.5 -42t-6.5 -57t-1 -76.5q0 -55 2 -89t8.5 -63t17 -43.5t30 -25t44 -13.5t63.5 -3q60 0 89 4v167h-113v114h249v-377q-113 -23 -230 -23z" />
    <glyph glyph-name="uni01F5" unicode="&#x1f5;" horiz-adv-x="584" 
d="M215 582v5l94 139h134v-5l-132 -139h-96zM266 -206q-111 0 -176 12v98q120 -3 144 -3q54 0 81 4t43 20.5t19 38.5t3 70v30h-6q-36 -65 -147 -65q-98 0 -136.5 54.5t-38.5 202.5q0 149 39.5 205.5t135.5 56.5q113 0 150 -72h8l4 64h124v-450q0 -52 -2.5 -84.5t-11 -66
t-24.5 -52.5t-43.5 -34.5t-68 -22t-97.5 -6.5zM284 112q61 0 80 33q16 26 16 112q0 84 -15 112q-20 35 -81 35q-67 0 -82.5 -23.5t-15.5 -123.5q0 -98 15.5 -121.5t82.5 -23.5z" />
    <glyph glyph-name="Aringacute" unicode="&#x1fa;" horiz-adv-x="687" 
d="M498 1095l-132 -139h-96v5l94 139h134v-5zM440 684l232 -684h-147l-50 152h-268l-48 -152h-144l231 683q-31 11 -40 35t-9 72q0 36 3.5 54t17.5 35t43.5 23.5t79.5 6.5q51 0 81 -6.5t44 -23.5t17.5 -35t3.5 -54q0 -47 -8.5 -70.5t-38.5 -35.5zM341 849q-47 0 -57.5 -11
t-10.5 -48t10.5 -47.5t57.5 -10.5q49 0 59.5 10.5t10.5 47.5q0 21 -1 29.5t-7.5 17t-21 10.5t-40.5 2zM245 270h192l-94 289h-5z" />
    <glyph glyph-name="aringacute" unicode="&#x1fb;" horiz-adv-x="564" 
d="M205 847v5l94 139h134v-5l-132 -139h-96zM281 568q-49 0 -77.5 6t-42 22t-17 34t-3.5 53t3.5 53t17 34.5t42 22.5t77.5 6q50 0 79 -6t43 -22.5t17.5 -34.5t3.5 -53t-3.5 -53t-17.5 -34t-43 -22t-79 -6zM281 626q48 0 58 10.5t10 46.5q0 37 -10 47t-58 10q-46 0 -56 -10.5
t-10 -46.5t10 -46.5t56 -10.5zM196 -8q-77 0 -114.5 35t-37.5 116q0 89 33.5 124t126.5 35q52 0 156 -4v20q0 65 -22.5 79t-112.5 14q-76 0 -150 -9v101q97 15 194 15q75 0 120 -11t67.5 -39.5t29.5 -62.5t7 -94v-311h-125l-4 62h-7q-40 -70 -161 -70zM259 95q66 0 86 32
q15 25 15 78v15h-120q-43 0 -55.5 -11.5t-12.5 -52.5q0 -39 15.5 -50t71.5 -11z" />
    <glyph glyph-name="AEacute" unicode="&#x1fc;" horiz-adv-x="968" 
d="M431 760v5l94 139h134v-5l-132 -139h-96zM-14 0l321 688h605v-118h-389l34 -164h308v-118h-284l35 -170h296v-118h-417l-30 152h-267l-70 -152h-142zM250 270h193l-57 288h-5z" />
    <glyph glyph-name="aeacute" unicode="&#x1fd;" horiz-adv-x="867" 
d="M356 582v5l94 139h134v-5l-132 -139h-96zM220 -8q-92 0 -134 34.5t-42 116.5q0 89 33.5 124t126.5 35q50 0 156 -4v20q0 65 -22.5 79t-112.5 14q-91 0 -150 -9v101q96 15 192 15q117 0 166 -43q52 43 164 43q45 0 77.5 -5.5t56 -14t38.5 -27t24 -35.5t13 -49.5t5 -59
t1 -73.5v-37h-318q0 -43 3 -62.5t18 -34.5t42 -18.5t80 -3.5q69 0 155 9v-99q-70 -16 -186 -16q-151 0 -196 58q-55 -58 -190 -58zM494 297h192q0 76 -18 96.5t-75 20.5q-64 0 -81 -21t-18 -96zM259 95q72 0 90 41q11 27 11 69v13h-120q-44 0 -56 -10.5t-12 -51.5
q0 -39 15.5 -50t71.5 -11z" />
    <glyph glyph-name="Oslashacute" unicode="&#x1fe;" horiz-adv-x="705" 
d="M508 899l-132 -139h-96v5l94 139h134v-5zM586 644q37 -35 47.5 -100t10.5 -200q0 -48 -0.5 -78t-3 -65.5t-6.5 -56t-12 -44.5t-19 -37t-27.5 -27t-37 -21t-48.5 -13t-61.5 -8t-76.5 -2q-90 0 -142 11l-33 -58h-115l57 99q-37 35 -47 99t-10 201q0 82 2 124.5t11 90
t26.5 67.5t51 39.5t80.5 25t119 5.5q91 0 142 -11l33 58h117zM352 108h48t35.5 4.5t27 8.5t17.5 18.5t12 28t5.5 43t3.5 56.5v77v77t-3.5 56.5t-5.5 43t-12 28t-17.5 18.5t-27 8.5t-35.5 4.5h-48h-47.5t-35 -4.5t-27 -8.5t-17.5 -18.5t-12 -28t-5.5 -43t-3.5 -57v-76.5
v-76.5t3.5 -57t5.5 -43t12 -28t17.5 -18.5t27 -8.5t35 -4.5h47.5z" />
    <glyph glyph-name="oslashacute" unicode="&#x1ff;" horiz-adv-x="572" 
d="M437 721l-132 -139h-96v5l94 139h134v-5zM470 480q32 -26 41 -75t9 -149q0 -59 -2 -92t-10 -67.5t-22 -50.5t-41 -30.5t-65 -19t-94 -4.5q-58 0 -100 6l-31 -53h-103l50 85q-32 26 -41 75.5t-9 150.5q0 59 2 92t10 67t22 50t41 30t65 18.5t94 4.5q58 0 99 -6l32 53h103z
M286 99q27 0 42.5 1t28 9.5t17.5 15t8 29.5t3.5 41t0.5 61v47.5t-1.5 35.5t-3.5 28t-7.5 18.5t-12 14t-18 6.5t-24.5 4.5t-33 0.5t-33 -0.5t-24.5 -4.5t-18 -6.5t-12 -14t-7.5 -18.5t-3.5 -28t-1.5 -35.5v-47.5q0 -43 0.5 -61t3.5 -41t8 -29.5t17.5 -15t28 -9.5t42.5 -1z
" />
    <glyph glyph-name="uni0200" unicode="&#x200;" horiz-adv-x="687" 
d="M306 760h-81l-115 122v5h112l84 -122v-5zM496 760h-80l-115 122v5h111l84 -122v-5zM15 0l233 688h191l233 -688h-147l-50 152h-268l-48 -152h-144zM245 270h192l-94 289h-5z" />
    <glyph glyph-name="uni0201" unicode="&#x201;" horiz-adv-x="564" 
d="M160 582l-115 121v5h112l84 -121v-5h-81zM351 582l-115 121v5h111l84 -121v-5h-80zM196 -8q-77 0 -114.5 35t-37.5 116q0 89 33.5 124t126.5 35q52 0 156 -4v20q0 65 -22.5 79t-112.5 14q-76 0 -150 -9v101q97 15 194 15q75 0 120 -11t67.5 -39.5t29.5 -62.5t7 -94v-311
h-125l-4 62h-7q-40 -70 -161 -70zM259 95q66 0 86 32q15 25 15 78v15h-120q-43 0 -55.5 -11.5t-12.5 -52.5q0 -39 15.5 -50t71.5 -11z" />
    <glyph glyph-name="uni0202" unicode="&#x202;" horiz-adv-x="687" 
d="M344 908q48 0 78.5 -10.5t44.5 -32.5t18.5 -45t4.5 -60h-76q0 21 -1 31t-7.5 21.5t-21.5 15.5t-40 4q-26 0 -41 -4.5t-21.5 -15.5t-8 -21t-1.5 -31h-77q0 75 28.5 111.5t120.5 36.5zM15 0l233 688h191l233 -688h-147l-50 152h-268l-48 -152h-144zM245 270h192l-94 289h-5
z" />
    <glyph glyph-name="uni0203" unicode="&#x203;" horiz-adv-x="564" 
d="M284 730q91 0 118.5 -36t27.5 -112h-76q0 21 -1 31t-7.5 21.5t-21.5 15.5t-40 4q-26 0 -41 -4.5t-21.5 -15.5t-8 -21t-1.5 -31h-77q0 75 28.5 111.5t120.5 36.5zM196 -8q-77 0 -114.5 35t-37.5 116q0 89 33.5 124t126.5 35q52 0 156 -4v20q0 65 -22.5 79t-112.5 14
q-76 0 -150 -9v101q97 15 194 15q75 0 120 -11t67.5 -39.5t29.5 -62.5t7 -94v-311h-125l-4 62h-7q-40 -70 -161 -70zM259 95q66 0 86 32q15 25 15 78v15h-120q-43 0 -55.5 -11.5t-12.5 -52.5q0 -39 15.5 -50t71.5 -11z" />
    <glyph glyph-name="uni0204" unicode="&#x204;" horiz-adv-x="611" 
d="M282 760h-81l-115 122v5h112l84 -122v-5zM472 760h-80l-115 122v5h111l84 -122v-5zM83 0v688h472v-118h-330v-164h283v-118h-283v-170h330v-118h-472z" />
    <glyph glyph-name="uni0205" unicode="&#x205;" horiz-adv-x="556" 
d="M242 582h-81l-115 121v5h112l84 -121v-5zM432 582h-80l-115 121v5h111l84 -121v-5zM503 254v-39h-318q0 -43 3 -62t18 -33.5t41.5 -18t80.5 -3.5q69 0 155 9v-99q-70 -16 -186 -16q-57 0 -97 5.5t-67 20.5t-43 33t-24.5 51t-11 66t-2.5 86q0 61 4 98.5t17 72.5t39 53.5
t68.5 29t105.5 10.5q45 0 78 -5.5t56.5 -14t39 -27t24.5 -35.5t13 -49.5t5 -59t1 -73.5zM284 414q-64 0 -81 -21t-18 -96h192q0 76 -18 96.5t-75 20.5z" />
    <glyph glyph-name="uni0206" unicode="&#x206;" horiz-adv-x="611" 
d="M321 908q48 0 78.5 -10.5t44.5 -32.5t18.5 -45t4.5 -60h-76q0 21 -1 31t-7.5 21.5t-21.5 15.5t-40 4q-26 0 -41 -4.5t-21.5 -15.5t-8 -21t-1.5 -31h-77q0 75 28.5 111.5t120.5 36.5zM83 0v688h472v-118h-330v-164h283v-118h-283v-170h330v-118h-472z" />
    <glyph glyph-name="uni0207" unicode="&#x207;" horiz-adv-x="556" 
d="M285 654q-26 0 -41 -4.5t-21.5 -15.5t-8 -21t-1.5 -31h-77q0 75 28.5 111.5t120.5 36.5q91 0 118.5 -36t27.5 -112h-76q0 21 -1 31t-7.5 21.5t-21.5 15.5t-40 4zM503 254v-39h-318q0 -43 3 -62t18 -33.5t41.5 -18t80.5 -3.5q69 0 155 9v-99q-70 -16 -186 -16
q-57 0 -97 5.5t-67 20.5t-43 33t-24.5 51t-11 66t-2.5 86q0 61 4 98.5t17 72.5t39 53.5t68.5 29t105.5 10.5q45 0 78 -5.5t56.5 -14t39 -27t24.5 -35.5t13 -49.5t5 -59t1 -73.5zM284 414q-64 0 -81 -21t-18 -96h192q0 76 -18 96.5t-75 20.5z" />
    <glyph glyph-name="uni0208" unicode="&#x208;" horiz-adv-x="306" 
d="M116 760h-81l-115 122v5h112l84 -122v-5zM306 760h-80l-115 122v5h111l84 -122v-5zM82 0v688h142v-688h-142z" />
    <glyph glyph-name="uni0209" unicode="&#x209;" horiz-adv-x="275" 
d="M15 582l-115 121v5h112l84 -121v-5h-81zM206 582l-115 121v5h111l84 -121v-5h-80zM70 0v510h134v-510h-134z" />
    <glyph glyph-name="uni020A" unicode="&#x20a;" horiz-adv-x="306" 
d="M154 908q48 0 78.5 -10.5t44.5 -32.5t18.5 -45t4.5 -60h-76q0 21 -1 31t-7.5 21.5t-21.5 15.5t-40 4q-26 0 -41 -4.5t-21.5 -15.5t-8 -21t-1.5 -31h-77q0 75 28.5 111.5t120.5 36.5zM82 0v688h142v-688h-142z" />
    <glyph glyph-name="uni020B" unicode="&#x20b;" horiz-adv-x="275" 
d="M138 730q91 0 118.5 -36t27.5 -112h-76q0 21 -1 31t-7.5 21.5t-21.5 15.5t-40 4q-26 0 -41 -4.5t-21.5 -15.5t-8 -21t-1.5 -31h-77q0 75 28.5 111.5t120.5 36.5zM70 0v510h134v-510h-134z" />
    <glyph glyph-name="uni020C" unicode="&#x20c;" horiz-adv-x="708" 
d="M317 760h-81l-115 122v5h112l84 -122v-5zM507 760h-80l-115 122v5h111l84 -122v-5zM354 -8q-43 0 -76.5 2t-62 8.5t-49 13t-37 21t-27.5 27t-18.5 37t-11.5 45t-6.5 56t-3 65t-0.5 77.5t0.5 77.5t3 65t6.5 56t11.5 45t18.5 37t27.5 27t37 21t49 13t62 8.5t76.5 2
q54 0 93.5 -3t71 -13.5t52 -21.5t35.5 -35t22.5 -45.5t12 -62.5t5.5 -76t1 -95t-1 -95t-5.5 -76t-12 -62.5t-22.5 -45.5t-35.5 -35t-52 -21.5t-71 -13.5t-93.5 -3zM354 110h48t35.5 4.5t27 8.5t17.5 18.5t12.5 27.5t5.5 42.5t3 56v76.5v76.5t-3 56t-5.5 42.5t-12.5 27.5
t-17.5 18.5t-27 8.5t-35.5 4.5h-48h-48t-35.5 -4.5t-27 -8.5t-17.5 -18.5t-12 -27.5t-5.5 -42.5t-3.5 -56.5v-76v-76t3.5 -56.5t5.5 -42.5t12 -27.5t17.5 -18.5t27 -8.5t35.5 -4.5h48z" />
    <glyph glyph-name="uni020D" unicode="&#x20d;" horiz-adv-x="572" 
d="M164 582l-115 121v5h112l84 -121v-5h-81zM355 582l-115 121v5h111l84 -121v-5h-80zM286 -8q-56 0 -94 4.5t-65 19t-41 30.5t-22 50.5t-10 67.5t-2 92t2 92t10 67t22 50t41 30t65 18.5t94 4.5t94 -4.5t65 -18.5t41 -30t22 -50t10 -67t2 -92t-2 -92t-10 -67.5t-22 -50.5
t-41 -30.5t-65 -19t-94 -4.5zM286 99q27 0 42.5 1t28 9.5t17.5 15t8 29.5t3.5 41t0.5 61v47.5t-1.5 35.5t-3.5 28t-7.5 18.5t-12 14t-18 6.5t-24.5 4.5t-33 0.5t-33 -0.5t-24.5 -4.5t-18 -6.5t-12 -14t-7.5 -18.5t-3.5 -28t-1.5 -35.5v-47.5q0 -43 0.5 -61t3.5 -41t8 -29.5
t17.5 -15t28 -9.5t42.5 -1z" />
    <glyph glyph-name="uni020E" unicode="&#x20e;" horiz-adv-x="708" 
d="M356 908q48 0 78.5 -10.5t44.5 -32.5t18.5 -45t4.5 -60h-76q0 21 -1 31t-7.5 21.5t-21.5 15.5t-40 4q-26 0 -41 -4.5t-21.5 -15.5t-8 -21t-1.5 -31h-77q0 75 28.5 111.5t120.5 36.5zM354 -8q-43 0 -76.5 2t-62 8.5t-49 13t-37 21t-27.5 27t-18.5 37t-11.5 45t-6.5 56
t-3 65t-0.5 77.5t0.5 77.5t3 65t6.5 56t11.5 45t18.5 37t27.5 27t37 21t49 13t62 8.5t76.5 2q54 0 93.5 -3t71 -13.5t52 -21.5t35.5 -35t22.5 -45.5t12 -62.5t5.5 -76t1 -95t-1 -95t-5.5 -76t-12 -62.5t-22.5 -45.5t-35.5 -35t-52 -21.5t-71 -13.5t-93.5 -3zM354 110h48
t35.5 4.5t27 8.5t17.5 18.5t12.5 27.5t5.5 42.5t3 56v76.5v76.5t-3 56t-5.5 42.5t-12.5 27.5t-17.5 18.5t-27 8.5t-35.5 4.5h-48h-48t-35.5 -4.5t-27 -8.5t-17.5 -18.5t-12 -27.5t-5.5 -42.5t-3.5 -56.5v-76v-76t3.5 -56.5t5.5 -42.5t12 -27.5t17.5 -18.5t27 -8.5t35.5 -4.5
h48z" />
    <glyph glyph-name="uni020F" unicode="&#x20f;" horiz-adv-x="572" 
d="M287 730q91 0 118.5 -36t27.5 -112h-76q0 21 -1 31t-7.5 21.5t-21.5 15.5t-40 4q-26 0 -41 -4.5t-21.5 -15.5t-8 -21t-1.5 -31h-77q0 75 28.5 111.5t120.5 36.5zM286 -8q-56 0 -94 4.5t-65 19t-41 30.5t-22 50.5t-10 67.5t-2 92t2 92t10 67t22 50t41 30t65 18.5t94 4.5
t94 -4.5t65 -18.5t41 -30t22 -50t10 -67t2 -92t-2 -92t-10 -67.5t-22 -50.5t-41 -30.5t-65 -19t-94 -4.5zM286 99q27 0 42.5 1t28 9.5t17.5 15t8 29.5t3.5 41t0.5 61v47.5t-1.5 35.5t-3.5 28t-7.5 18.5t-12 14t-18 6.5t-24.5 4.5t-33 0.5t-33 -0.5t-24.5 -4.5t-18 -6.5
t-12 -14t-7.5 -18.5t-3.5 -28t-1.5 -35.5v-47.5q0 -43 0.5 -61t3.5 -41t8 -29.5t17.5 -15t28 -9.5t42.5 -1z" />
    <glyph glyph-name="uni0210" unicode="&#x210;" horiz-adv-x="679" 
d="M302 760h-81l-115 122v5h112l84 -122v-5zM492 760h-80l-115 122v5h111l84 -122v-5zM632 0h-151l-98 251h-158v-251h-142v688h324q55 0 93.5 -10.5t61.5 -28t36 -46.5t17 -59.5t4 -73.5q0 -164 -97 -201zM350 369q84 0 105 19t21 82q0 64 -20 82t-104 18h-127v-201h125z
" />
    <glyph glyph-name="uni0211" unicode="&#x211;" horiz-adv-x="394" 
d="M74 582l-115 121v5h112l84 -121v-5h-81zM265 582l-115 121v5h111l84 -121v-5h-80zM70 0v510h125l4 -88h8q19 54 58 75t105 21v-127q-97 0 -132 -40.5t-35 -146.5v-204h-133z" />
    <glyph glyph-name="uni0212" unicode="&#x212;" horiz-adv-x="679" 
d="M341 832q-26 0 -41 -4.5t-21.5 -15.5t-8 -21t-1.5 -31h-77q0 75 28.5 111.5t120.5 36.5q48 0 78.5 -10.5t44.5 -32.5t18.5 -45t4.5 -60h-76q0 21 -1 31t-7.5 21.5t-21.5 15.5t-40 4zM632 0h-151l-98 251h-158v-251h-142v688h324q55 0 93.5 -10.5t61.5 -28t36 -46.5
t17 -59.5t4 -73.5q0 -164 -97 -201zM350 369q84 0 105 19t21 82q0 64 -20 82t-104 18h-127v-201h125z" />
    <glyph glyph-name="uni0213" unicode="&#x213;" horiz-adv-x="394" 
d="M198 730q91 0 118.5 -36t27.5 -112h-76q0 21 -1 31t-7.5 21.5t-21.5 15.5t-40 4q-26 0 -41 -4.5t-21.5 -15.5t-8 -21t-1.5 -31h-77q0 75 28.5 111.5t120.5 36.5zM70 0v510h125l4 -88h8q19 54 58 75t105 21v-127q-97 0 -132 -40.5t-35 -146.5v-204h-133z" />
    <glyph glyph-name="uni0214" unicode="&#x214;" horiz-adv-x="696" 
d="M311 760h-81l-115 122v5h112l84 -122v-5zM501 760h-80l-115 122v5h111l84 -122v-5zM348 -8q-63 0 -105 5t-73.5 20.5t-49 36t-28 59.5t-13.5 82t-3 112v381h142v-417q0 -41 1 -62t5.5 -42.5t12 -30t23 -16.5t35.5 -9.5t53 -1.5t53 1.5t35.5 9.5t23 16t12 30.5t5 43
t0.5 61.5v417h142v-381q0 -69 -3 -112t-13.5 -82t-27.5 -59.5t-48.5 -36t-73.5 -20.5t-105 -5z" />
    <glyph glyph-name="uni0215" unicode="&#x215;" horiz-adv-x="592" 
d="M173 582l-115 121v5h112l84 -121v-5h-81zM364 582l-115 121v5h111l84 -121v-5h-80zM231 -8q-98 0 -129.5 46t-31.5 153v319h133v-270q0 -92 14 -112.5t75 -20.5t78.5 29t17.5 110v264h133v-510h-124l-4 64h-8q-37 -72 -154 -72z" />
    <glyph glyph-name="uni0216" unicode="&#x216;" horiz-adv-x="696" 
d="M349 908q48 0 78.5 -10.5t44.5 -32.5t18.5 -45t4.5 -60h-76q0 21 -1 31t-7.5 21.5t-21.5 15.5t-40 4q-26 0 -41 -4.5t-21.5 -15.5t-8 -21t-1.5 -31h-77q0 75 28.5 111.5t120.5 36.5zM348 -8q-63 0 -105 5t-73.5 20.5t-49 36t-28 59.5t-13.5 82t-3 112v381h142v-417
q0 -41 1 -62t5.5 -42.5t12 -30t23 -16.5t35.5 -9.5t53 -1.5t53 1.5t35.5 9.5t23 16t12 30.5t5 43t0.5 61.5v417h142v-381q0 -69 -3 -112t-13.5 -82t-27.5 -59.5t-48.5 -36t-73.5 -20.5t-105 -5z" />
    <glyph glyph-name="uni0217" unicode="&#x217;" horiz-adv-x="592" 
d="M297 730q91 0 118.5 -36t27.5 -112h-76q0 21 -1 31t-7.5 21.5t-21.5 15.5t-40 4q-26 0 -41 -4.5t-21.5 -15.5t-8 -21t-1.5 -31h-77q0 75 28.5 111.5t120.5 36.5zM231 -8q-98 0 -129.5 46t-31.5 153v319h133v-270q0 -92 14 -112.5t75 -20.5t78.5 29t17.5 110v264h133v-510
h-124l-4 64h-8q-37 -72 -154 -72z" />
    <glyph glyph-name="uni0218" unicode="&#x218;" horiz-adv-x="622" 
d="M325 -8q-137 0 -252 16v114q123 -12 210 -12q96 0 122 20q19 15 19 68q0 46 -9.5 59.5t-49.5 17.5l-147 18q-96 11 -130.5 59t-34.5 139q0 54 13 92t34 60t56 34t69.5 15.5t84.5 3.5q126 0 224 -20v-111q-96 13 -195 13q-91 0 -119 -16q-16 -8 -20 -22t-4 -42
q0 -45 11 -57t56 -17l158 -19q94 -10 123 -67q24 -46 24 -130q0 -71 -17 -116t-53 -66t-74 -27.5t-99 -6.5zM242 -289v53q37 0 49 7.5t12 32.5v16h-52v94h124v-61q0 -89 -23.5 -115.5t-109.5 -26.5z" />
    <glyph glyph-name="uni0219" unicode="&#x219;" horiz-adv-x="498" 
d="M257 -8q-103 0 -197 14v101q88 -9 169 -9q65 0 81.5 10t16.5 41q0 29 -8.5 36t-45.5 12l-118 15q-66 8 -88.5 43.5t-22.5 108.5q0 50 14.5 81.5t44.5 47t63.5 20.5t84.5 5q101 0 174 -16v-100q-80 10 -155 10q-60 0 -80 -8.5t-20 -39.5q0 -28 7.5 -35.5t40.5 -11.5
l128 -16q58 -7 82.5 -35.5t24.5 -113.5q0 -98 -47 -129t-149 -31zM168 -289v54q40 0 53 7.5t13 31.5v16h-55v119h139v-83q0 -91 -26.5 -118t-123.5 -27z" />
    <glyph glyph-name="uni021A" unicode="&#x21a;" horiz-adv-x="582" 
d="M219 0v565h-199v123h542v-123h-200v-565h-143zM222 -289v53q37 0 49 7.5t12 32.5v16h-52v94h124v-61q0 -89 -23.5 -115.5t-109.5 -26.5z" />
    <glyph glyph-name="uni021B" unicode="&#x21b;" horiz-adv-x="390" 
d="M119 0v403h-98v107h98v148h133v-148h116v-107h-116v-403h-133zM105 -289v54q40 0 53 7.5t13 31.5v16h-55v119h139v-83q0 -91 -26.5 -118t-123.5 -27z" />
    <glyph glyph-name="uni022A" unicode="&#x22a;" horiz-adv-x="708" 
d="M196 977v84h315v-84h-315zM194 782v101h113v-101h-113zM401 782v101h113v-101h-113zM354 -8q-43 0 -76.5 2t-62 8.5t-49 13t-37 21t-27.5 27t-18.5 37t-11.5 45t-6.5 56t-3 65t-0.5 77.5t0.5 77.5t3 65t6.5 56t11.5 45t18.5 37t27.5 27t37 21t49 13t62 8.5t76.5 2
q54 0 93.5 -3t71 -13.5t52 -21.5t35.5 -35t22.5 -45.5t12 -62.5t5.5 -76t1 -95t-1 -95t-5.5 -76t-12 -62.5t-22.5 -45.5t-35.5 -35t-52 -21.5t-71 -13.5t-93.5 -3zM354 110h48t35.5 4.5t27 8.5t17.5 18.5t12.5 27.5t5.5 42.5t3 56v76.5v76.5t-3 56t-5.5 42.5t-12.5 27.5
t-17.5 18.5t-27 8.5t-35.5 4.5h-48h-48t-35.5 -4.5t-27 -8.5t-17.5 -18.5t-12 -27.5t-5.5 -42.5t-3.5 -56.5v-76v-76t3.5 -56.5t5.5 -42.5t12 -27.5t17.5 -18.5t27 -8.5t35.5 -4.5h48z" />
    <glyph glyph-name="uni022B" unicode="&#x22b;" horiz-adv-x="572" 
d="M128 764v84h315v-84h-315zM130 604v101h113v-101h-113zM337 604v101h113v-101h-113zM286 -8q-56 0 -94 4.5t-65 19t-41 30.5t-22 50.5t-10 67.5t-2 92t2 92t10 67t22 50t41 30t65 18.5t94 4.5t94 -4.5t65 -18.5t41 -30t22 -50t10 -67t2 -92t-2 -92t-10 -67.5t-22 -50.5
t-41 -30.5t-65 -19t-94 -4.5zM286 99q27 0 42.5 1t28 9.5t17.5 15t8 29.5t3.5 41t0.5 61v47.5t-1.5 35.5t-3.5 28t-7.5 18.5t-12 14t-18 6.5t-24.5 4.5t-33 0.5t-33 -0.5t-24.5 -4.5t-18 -6.5t-12 -14t-7.5 -18.5t-3.5 -28t-1.5 -35.5v-47.5q0 -43 0.5 -61t3.5 -41t8 -29.5
t17.5 -15t28 -9.5t42.5 -1z" />
    <glyph glyph-name="uni022C" unicode="&#x22c;" horiz-adv-x="708" 
d="M196 960v84h315v-84h-315zM173 759q0 31 1 48t5.5 36t14 28.5t25.5 15.5t41 6q33 0 109 -20q51 -15 72 -15q19 0 23 8.5t4 37.5h69q0 -74 -15 -103.5t-71 -29.5q-41 0 -109 20q-58 15 -72 15q-19 0 -23 -8.5t-4 -38.5h-70zM354 -8q-43 0 -76.5 2t-62 8.5t-49 13t-37 21
t-27.5 27t-18.5 37t-11.5 45t-6.5 56t-3 65t-0.5 77.5t0.5 77.5t3 65t6.5 56t11.5 45t18.5 37t27.5 27t37 21t49 13t62 8.5t76.5 2q54 0 93.5 -3t71 -13.5t52 -21.5t35.5 -35t22.5 -45.5t12 -62.5t5.5 -76t1 -95t-1 -95t-5.5 -76t-12 -62.5t-22.5 -45.5t-35.5 -35t-52 -21.5
t-71 -13.5t-93.5 -3zM354 110h48t35.5 4.5t27 8.5t17.5 18.5t12.5 27.5t5.5 42.5t3 56v76.5v76.5t-3 56t-5.5 42.5t-12.5 27.5t-17.5 18.5t-27 8.5t-35.5 4.5h-48h-48t-35.5 -4.5t-27 -8.5t-17.5 -18.5t-12 -27.5t-5.5 -42.5t-3.5 -56.5v-76v-76t3.5 -56.5t5.5 -42.5
t12 -27.5t17.5 -18.5t27 -8.5t35.5 -4.5h48z" />
    <glyph glyph-name="uni022D" unicode="&#x22d;" horiz-adv-x="572" 
d="M128 782v84h315v-84h-315zM103 581q0 31 1 48t5.5 36t14 28.5t25.5 15.5t41 6q33 0 109 -20q51 -15 72 -15q19 0 23 8.5t4 37.5h69q0 -74 -15 -103.5t-71 -29.5q-41 0 -109 20q-58 15 -72 15q-19 0 -23 -8.5t-4 -38.5h-70zM286 -8q-56 0 -94 4.5t-65 19t-41 30.5
t-22 50.5t-10 67.5t-2 92t2 92t10 67t22 50t41 30t65 18.5t94 4.5t94 -4.5t65 -18.5t41 -30t22 -50t10 -67t2 -92t-2 -92t-10 -67.5t-22 -50.5t-41 -30.5t-65 -19t-94 -4.5zM286 99q27 0 42.5 1t28 9.5t17.5 15t8 29.5t3.5 41t0.5 61v47.5t-1.5 35.5t-3.5 28t-7.5 18.5
t-12 14t-18 6.5t-24.5 4.5t-33 0.5t-33 -0.5t-24.5 -4.5t-18 -6.5t-12 -14t-7.5 -18.5t-3.5 -28t-1.5 -35.5v-47.5q0 -43 0.5 -61t3.5 -41t8 -29.5t17.5 -15t28 -9.5t42.5 -1z" />
    <glyph glyph-name="uni0230" unicode="&#x230;" horiz-adv-x="708" 
d="M196 958v84h315v-84h-315zM297 782v101h113v-101h-113zM354 -8q-43 0 -76.5 2t-62 8.5t-49 13t-37 21t-27.5 27t-18.5 37t-11.5 45t-6.5 56t-3 65t-0.5 77.5t0.5 77.5t3 65t6.5 56t11.5 45t18.5 37t27.5 27t37 21t49 13t62 8.5t76.5 2q54 0 93.5 -3t71 -13.5t52 -21.5
t35.5 -35t22.5 -45.5t12 -62.5t5.5 -76t1 -95t-1 -95t-5.5 -76t-12 -62.5t-22.5 -45.5t-35.5 -35t-52 -21.5t-71 -13.5t-93.5 -3zM354 110h48t35.5 4.5t27 8.5t17.5 18.5t12.5 27.5t5.5 42.5t3 56v76.5v76.5t-3 56t-5.5 42.5t-12.5 27.5t-17.5 18.5t-27 8.5t-35.5 4.5h-48
h-48t-35.5 -4.5t-27 -8.5t-17.5 -18.5t-12 -27.5t-5.5 -42.5t-3.5 -56.5v-76v-76t3.5 -56.5t5.5 -42.5t12 -27.5t17.5 -18.5t27 -8.5t35.5 -4.5h48z" />
    <glyph glyph-name="uni0231" unicode="&#x231;" horiz-adv-x="572" 
d="M128 780v84h315v-84h-315zM229 604v101h113v-101h-113zM286 -8q-56 0 -94 4.5t-65 19t-41 30.5t-22 50.5t-10 67.5t-2 92t2 92t10 67t22 50t41 30t65 18.5t94 4.5t94 -4.5t65 -18.5t41 -30t22 -50t10 -67t2 -92t-2 -92t-10 -67.5t-22 -50.5t-41 -30.5t-65 -19t-94 -4.5z
M286 99q27 0 42.5 1t28 9.5t17.5 15t8 29.5t3.5 41t0.5 61v47.5t-1.5 35.5t-3.5 28t-7.5 18.5t-12 14t-18 6.5t-24.5 4.5t-33 0.5t-33 -0.5t-24.5 -4.5t-18 -6.5t-12 -14t-7.5 -18.5t-3.5 -28t-1.5 -35.5v-47.5q0 -43 0.5 -61t3.5 -41t8 -29.5t17.5 -15t28 -9.5t42.5 -1z
" />
    <glyph glyph-name="uni0232" unicode="&#x232;" horiz-adv-x="623" 
d="M153 782v84h315v-84h-315zM239 0v243l-235 445h149l157 -306h7l156 306h145l-236 -445v-243h-143z" />
    <glyph glyph-name="uni0233" unicode="&#x233;" horiz-adv-x="592" 
d="M138 604v84h315v-84h-315zM279 -206q-107 0 -173 11v99q105 -3 142 -3q52 0 78.5 4t41.5 21t17.5 37.5t2.5 66.5v35h-7q-37 -66 -150 -66q-98 0 -129.5 45.5t-31.5 151.5v314h133v-265q0 -92 14 -112.5t75 -20.5t78.5 29t17.5 110v259h133v-452q0 -52 -2.5 -84.5
t-10.5 -65.5t-24 -52t-43 -34.5t-66.5 -21.5t-95.5 -6z" />
    <glyph glyph-name="uni0237" unicode="&#x237;" horiz-adv-x="275" 
d="M-17 -200v99q58 0 72.5 10.5t14.5 42.5v558h134v-530q0 -63 -8.5 -98t-37 -54t-65.5 -23.5t-110 -4.5z" />
    <glyph glyph-name="uni0259" unicode="&#x259;" horiz-adv-x="556" 
d="M259 518q57 0 97 -5.5t67 -20.5t43 -33t24.5 -51t11 -66t2.5 -86q0 -61 -4 -98.5t-17 -72.5t-39 -53.5t-68.5 -29t-105.5 -10.5q-45 0 -78 5.5t-56.5 14t-39 27t-24.5 35.5t-13 49.5t-5 59t-1 73.5v39h318q0 43 -3 62t-18 33.5t-41.5 18t-80.5 3.5q-69 0 -155 -9v99
q70 16 186 16zM272 96q64 0 81 21t18 96h-192q0 -76 18 -96.5t75 -20.5z" />
    <glyph glyph-name="uni0272" unicode="&#x272;" horiz-adv-x="592" 
d="M-17 -200v99q58 0 72.5 10.5t14.5 42.5v558h125l4 -64h8q37 72 154 72q98 0 129 -46t31 -153v-319h-133v270q0 50 -2 73.5t-12.5 39t-25.5 18t-48 2.5q-61 0 -79 -29.5t-18 -109.5v-284q0 -63 -8.5 -98t-36.5 -54t-65 -23.5t-110 -4.5z" />
    <glyph glyph-name="uni02B9" unicode="&#x2b9;" horiz-adv-x="144" 
d="M0 373l22 315h122l-9 -122l-43 -193h-92z" />
    <glyph glyph-name="uni02BA" unicode="&#x2ba;" horiz-adv-x="329" 
d="M0 373l22 315h122l-9 -122l-43 -193h-92zM185 373l22 315h122l-9 -122l-43 -193h-92z" />
    <glyph glyph-name="uni02BC" unicode="&#x2bc;" horiz-adv-x="150" 
d="M0 512v54q40 0 53 12t13 50v17h-55v98h139v-63q0 -55 -4.5 -84.5t-21 -50t-45 -27t-79.5 -6.5z" />
    <glyph glyph-name="circumflex" unicode="&#x2c6;" horiz-adv-x="361" 
d="M20 582v7l96 137h128l97 -137v-7h-88l-74 85l-72 -85h-87z" />
    <glyph glyph-name="caron" unicode="&#x2c7;" horiz-adv-x="361" 
d="M116 582l-96 137v7h87l73 -86l73 86h88v-7l-97 -137h-128z" />
    <glyph glyph-name="uni02C9" unicode="&#x2c9;" horiz-adv-x="264" 
d="M-20 604v84h316v-84h-316z" />
    <glyph glyph-name="breve" unicode="&#x2d8;" horiz-adv-x="335" 
d="M166 578q-91 0 -118.5 36t-27.5 112h76q0 -21 1 -31t7.5 -21.5t21.5 -15.5t40 -4q26 0 41 4.5t21.5 15.5t8 21t1.5 31h77q0 -75 -28.5 -111.5t-120.5 -36.5z" />
    <glyph glyph-name="dotaccent" unicode="&#x2d9;" horiz-adv-x="153" 
d="M20 604v101h113v-101h-113z" />
    <glyph glyph-name="ring" unicode="&#x2da;" horiz-adv-x="323" 
d="M160 568q-49 0 -77.5 6t-42 22t-17 34t-3.5 53t3.5 52.5t16.5 34.5t42 23t78 6q50 0 79 -6t43 -22.5t17.5 -34.5t3.5 -53t-3.5 -53t-17.5 -34t-43 -22t-79 -6zM160 626q48 0 58 10.5t10 46.5q0 37 -10 47t-58 10q-46 0 -56 -10.5t-10 -46.5t10 -46.5t56 -10.5z" />
    <glyph glyph-name="ogonek" unicode="&#x2db;" horiz-adv-x="215" 
d="M136 -196q-116 0 -116 82q0 63 75 128l99 -10q-22 -15 -42.5 -41.5t-20.5 -47.5q0 -36 47 -36q10 0 17 2v-74q-26 -3 -59 -3z" />
    <glyph glyph-name="tilde" unicode="&#x2dc;" horiz-adv-x="403" 
d="M20 581q0 31 1 48t5.5 36t14 28.5t25.5 15.5t41 6q33 0 109 -20q51 -15 71 -15t24 8.5t4 37.5h69q0 -74 -15 -103.5t-71 -29.5q-41 0 -109 20q-58 15 -72 15q-19 0 -23 -8.5t-4 -38.5h-70z" />
    <glyph glyph-name="hungarumlaut" unicode="&#x2dd;" horiz-adv-x="426" 
d="M20 582v5l84 122h111v-5l-115 -122h-80zM210 582v5l84 122h112v-5l-115 -122h-81z" />
    <glyph glyph-name="gravecomb" unicode="&#x300;" 
d="M-97 582l-131 139v5h133l95 -139v-5h-97z" />
    <glyph glyph-name="acutecomb" unicode="&#x301;" 
d="M-228 582v5l94 139h134v-5l-132 -139h-96z" />
    <glyph glyph-name="uni0302" unicode="&#x302;" 
d="M-321 582v7l96 137h128l97 -137v-7h-88l-73 85l-73 -85h-87z" />
    <glyph glyph-name="tildecomb" unicode="&#x303;" 
d="M-364 581q0 31 1 48t5.5 36t14 28.5t25.5 15.5t41 6q33 0 109 -20q51 -15 72 -15q19 0 23 8.5t4 37.5h69q0 -74 -15 -103.5t-71 -29.5q-41 0 -109 20q-58 15 -72 15q-19 0 -23 -8.5t-4 -38.5h-70z" />
    <glyph glyph-name="uni0304" unicode="&#x304;" 
d="M-315 604v84h315v-84h-315z" />
    <glyph glyph-name="uni0306" unicode="&#x306;" 
d="M-149 578q-91 0 -118.5 36t-27.5 112h77q0 -21 1 -31t7.5 -21.5t21 -15.5t39.5 -4q26 0 41 4.5t21.5 15.5t8 21t1.5 31h77q0 -76 -28.5 -112t-120.5 -36z" />
    <glyph glyph-name="uni0307" unicode="&#x307;" 
d="M-113 604v101h113v-101h-113z" />
    <glyph glyph-name="uni0308" unicode="&#x308;" 
d="M-320 604v101h113v-101h-113zM-113 604v101h113v-101h-113z" />
    <glyph glyph-name="hookabovecomb" unicode="&#x309;" 
d="M-194 570v8q0 25 10 39.5t37 22.5l19 5q28 9 35 14.5t7 20.5q0 22 -14 26.5t-59 4.5q-55 0 -103 -5v63q59 9 124 9q37 0 58 -2.5t41.5 -11t29.5 -27t9 -49.5q0 -38 -14.5 -53.5t-52.5 -26.5l-19 -6q-24 -7 -30 -12t-6 -20h-72z" />
    <glyph glyph-name="uni030A" unicode="&#x30a;" 
d="M-143 568q-49 0 -77.5 6t-42 22t-17 34t-3.5 53t3.5 53t17 34.5t42 22.5t77.5 6q50 0 79 -6t43 -22.5t17.5 -34.5t3.5 -53t-3.5 -53t-17.5 -34t-43 -22t-79 -6zM-143 626q48 0 58 10.5t10 46.5q0 37 -10 47t-58 10q-46 0 -56 -10.5t-10 -46.5t10 -46.5t56 -10.5z" />
    <glyph glyph-name="uni030B" unicode="&#x30b;" 
d="M-386 582v5l84 122h111v-5l-115 -122h-80zM-196 582v5l84 122h112v-5l-115 -122h-81z" />
    <glyph glyph-name="uni030C" unicode="&#x30c;" 
d="M-225 582l-96 137v7h87l73 -86l73 86h88v-7l-97 -137h-128z" />
    <glyph glyph-name="uni030F" unicode="&#x30f;" 
d="M-271 582l-115 121v5h112l84 -121v-5h-81zM-80 582l-115 121v5h111l84 -121v-5h-80z" />
    <glyph glyph-name="uni0311" unicode="&#x311;" 
d="M-146 730q91 0 118.5 -36t27.5 -112h-76q0 21 -1 31t-7.5 21.5t-21.5 15.5t-40 4q-26 0 -41 -4.5t-21.5 -15.5t-8 -21t-1.5 -31h-77q0 75 28.5 111.5t120.5 36.5z" />
    <glyph glyph-name="uni0312" unicode="&#x312;" 
d="M-150 582v83q0 91 26.5 118t123.5 27v-54q-40 0 -53 -7.5t-13 -32.5v-15h55v-119h-139z" />
    <glyph glyph-name="uni031B" unicode="&#x31b;" 
d="M-216 458v52h65q41 0 52 12.5t11 50.5v29h88v-20q0 -75 -27.5 -99.5t-123.5 -24.5h-65z" />
    <glyph glyph-name="dotbelowcomb" unicode="&#x323;" 
d="M-105 -202v100h105v-100h-105z" />
    <glyph glyph-name="uni0324" unicode="&#x324;" 
d="M-312 -188v101h113v-101h-113zM-105 -188v101h113v-101h-113z" />
    <glyph glyph-name="uni0326" unicode="&#x326;" 
d="M-150 -289v54q40 0 53 7.5t13 31.5v16h-55v119h139v-83q0 -91 -26.5 -118t-123.5 -27z" />
    <glyph glyph-name="uni0327" unicode="&#x327;" 
d="M-162 -190v5l77 203h87v-5l-39 -203h-125z" />
    <glyph glyph-name="uni0328" unicode="&#x328;" 
d="M-59 -196q-116 0 -116 82q0 63 75 128l99 -10q-22 -15 -42.5 -41.5t-20.5 -47.5q0 -36 47 -36q11 0 17 2v-74q-26 -3 -59 -3z" />
    <glyph glyph-name="uni032E" unicode="&#x32e;" 
d="M-149 -227q-91 0 -118.5 36t-27.5 112h77q0 -21 1 -31t7.5 -21.5t21 -15.5t39.5 -4q26 0 41 4.5t21.5 15.5t8 21t1.5 31h77q0 -76 -28.5 -112t-120.5 -36z" />
    <glyph glyph-name="uni0331" unicode="&#x331;" 
d="M-251 -200v84h315v-84h-315z" />
    <glyph glyph-name="uni0335" unicode="&#x335;" 
d="M-314 296v104h298v-104h-298z" />
    <glyph glyph-name="uni0336" unicode="&#x336;" 
d="M-638 472v104h557v-104h-557z" />
    <glyph glyph-name="uni0394" unicode="&#x394;" horiz-adv-x="685" 
d="M15 0l232 688h191l232 -688h-655zM186 116h309l-153 453h-5z" />
    <glyph glyph-name="uni03A9" unicode="&#x3a9;" horiz-adv-x="708" 
d="M63 0v116h16q37 -9 113 -29v6q-70 29 -99.5 98.5t-29.5 183.5q0 55 2 89.5t8 72.5t18.5 60t33.5 43.5t52.5 32t75 17t102.5 6.5q51 0 90.5 -4t70 -14.5t51.5 -23t35.5 -34.5t23 -43.5t12.5 -56.5t5.5 -66t1.5 -79q0 -114 -29 -183t-99 -99v-6q85 22 113 29h16v-116h-241
v110q32 3 51 17.5t29 47t13 73.5t3 112q0 56 -1 86t-6.5 59t-13.5 40.5t-26 21t-40 11.5t-59 2q-38 0 -60 -2t-40 -11.5t-26 -21t-13.5 -40.5t-6.5 -58.5t-1 -86.5q0 -71 3 -112t13 -73.5t29 -47t51 -17.5v-110h-241z" />
    <glyph glyph-name="uni03BC" unicode="&#x3bc;" horiz-adv-x="592" 
d="M388 510h133v-510h-124l-4 64h-8q-38 -71 -152 -71q-15 0 -30 3v-185h-133v699h133v-270q0 -92 14 -112.5t75 -20.5t78.5 29t17.5 110v264z" />
    <glyph glyph-name="pi" unicode="&#x3c0;" horiz-adv-x="587" 
d="M71 0v510h444v-510h-132v403h-178v-403h-134z" />
    <glyph glyph-name="uni1E0C" unicode="&#x1e0c;" horiz-adv-x="685" 
d="M83 0v688h234q76 0 126 -5.5t85 -24.5t53.5 -38.5t28 -66.5t11.5 -88t2 -121t-2 -121t-11.5 -88t-28 -66.5t-53.5 -38.5t-85 -24.5t-126 -5.5h-234zM225 118h85h55t40.5 4t31 7.5t19.5 17.5t14 26t6 41t4 55v75v61t-2.5 48.5t-3.5 39t-7.5 28t-10.5 21t-17 13.5t-20.5 9
t-28.5 4t-35.5 2h-44.5h-85v-452zM291 -202v100h105v-100h-105z" />
    <glyph glyph-name="uni1E0D" unicode="&#x1e0d;" horiz-adv-x="584" 
d="M227 -8q-96 0 -135.5 56.5t-39.5 205.5q0 150 38.5 207t133.5 57q110 0 149 -64h7v289h133v-743h-124l-4 63h-8q-36 -71 -150 -71zM284 106q66 0 84 41q12 30 12 108q0 77 -12 106q-17 42 -84 42t-82.5 -23.5t-15.5 -124.5q0 -102 15.5 -125.5t82.5 -23.5zM240 -202v100
h105v-100h-105z" />
    <glyph glyph-name="uni1E24" unicode="&#x1e24;" horiz-adv-x="720" 
d="M82 0v688h142v-281h272v281h143v-688h-143v285h-272v-285h-142zM307 -202v100h105v-100h-105z" />
    <glyph glyph-name="uni1E25" unicode="&#x1e25;" horiz-adv-x="592" 
d="M70 0v743h133v-293h8q38 67 150 67q98 0 129 -45.5t31 -152.5v-319h-133v270q0 50 -2 73.5t-12.5 39t-25.5 18t-48 2.5q-61 0 -79 -29.5t-18 -109.5v-264h-133zM243 -202v100h105v-100h-105z" />
    <glyph glyph-name="uni1E44" unicode="&#x1e44;" horiz-adv-x="721" 
d="M313 782v101h113v-101h-113zM82 0v688h147l269 -422h5v422h137v-688h-136l-281 445h-4v-445h-137z" />
    <glyph glyph-name="uni1E45" unicode="&#x1e45;" horiz-adv-x="592" 
d="M239 604v101h113v-101h-113zM70 0v510h125l4 -64h8q37 72 154 72q98 0 129 -46t31 -153v-319h-133v270q0 50 -2 73.5t-12.5 39t-25.5 18t-48 2.5q-61 0 -79 -29.5t-18 -109.5v-264h-133z" />
    <glyph glyph-name="uni1E5A" unicode="&#x1e5a;" horiz-adv-x="679" 
d="M522 269l110 -269h-151l-98 251h-158v-251h-142v688h324q55 0 93.5 -10.5t61.5 -28t36 -46.5t17 -59.5t4 -73.5q0 -164 -97 -201zM350 369q84 0 105 19t21 82q0 64 -20 82t-104 18h-127v-201h125zM287 -202v100h105v-100h-105z" />
    <glyph glyph-name="uni1E5B" unicode="&#x1e5b;" horiz-adv-x="394" 
d="M70 0v510h125l4 -88h8q19 54 58 75t105 21v-127q-97 0 -132 -40.5t-35 -146.5v-204h-133zM84 -202v100h105v-100h-105z" />
    <glyph glyph-name="uni1E62" unicode="&#x1e62;" horiz-adv-x="622" 
d="M325 -8q-137 0 -252 16v114q123 -12 210 -12q96 0 122 20q19 15 19 68q0 46 -9.5 59.5t-49.5 17.5l-147 18q-96 11 -130.5 59t-34.5 139q0 54 13 92t34 60t56 34t69.5 15.5t84.5 3.5q126 0 224 -20v-111q-96 13 -195 13q-91 0 -119 -16q-16 -8 -20 -22t-4 -42
q0 -45 11 -57t56 -17l158 -19q94 -10 123 -67q24 -46 24 -130q0 -71 -17 -116t-53 -66t-74 -27.5t-99 -6.5zM258 -202v100h105v-100h-105z" />
    <glyph glyph-name="uni1E63" unicode="&#x1e63;" horiz-adv-x="498" 
d="M257 -8q-103 0 -197 14v101q88 -9 169 -9q65 0 81.5 10t16.5 41q0 29 -8.5 36t-45.5 12l-118 15q-66 8 -88.5 43.5t-22.5 108.5q0 50 14.5 81.5t44.5 47t63.5 20.5t84.5 5q101 0 174 -16v-100q-80 10 -155 10q-60 0 -80 -8.5t-20 -39.5q0 -28 7.5 -35.5t40.5 -11.5
l128 -16q58 -7 82.5 -35.5t24.5 -113.5q0 -98 -47 -129t-149 -31zM196 -202v100h105v-100h-105z" />
    <glyph glyph-name="uni1E6C" unicode="&#x1e6c;" horiz-adv-x="582" 
d="M219 0v565h-199v123h542v-123h-200v-565h-143zM238 -202v100h105v-100h-105z" />
    <glyph glyph-name="uni1E6D" unicode="&#x1e6d;" horiz-adv-x="390" 
d="M119 0v403h-98v107h98v148h133v-148h116v-107h-116v-403h-133zM133 -202v100h105v-100h-105z" />
    <glyph glyph-name="Wgrave" unicode="&#x1e80;" horiz-adv-x="983" 
d="M476 760l-131 139v5h133l95 -139v-5h-97zM192 0l-169 688h143l122 -523h5l133 523h148l135 -523h5l115 523h142l-169 -688h-178l-125 475h-4l-125 -475h-178z" />
    <glyph glyph-name="wgrave" unicode="&#x1e81;" horiz-adv-x="831" 
d="M391 582l-131 139v5h133l95 -139v-5h-97zM165 0l-142 510h134l90 -367h8l101 367h122l101 -367h9l89 367h131l-143 -510h-161l-85 299h-8l-84 -299h-162z" />
    <glyph glyph-name="Wacute" unicode="&#x1e82;" horiz-adv-x="983" 
d="M423 760v5l94 139h134v-5l-132 -139h-96zM192 0l-169 688h143l122 -523h5l133 523h148l135 -523h5l115 523h142l-169 -688h-178l-125 475h-4l-125 -475h-178z" />
    <glyph glyph-name="wacute" unicode="&#x1e83;" horiz-adv-x="831" 
d="M338 582v5l94 139h134v-5l-132 -139h-96zM165 0l-142 510h134l90 -367h8l101 367h122l101 -367h9l89 367h131l-143 -510h-161l-85 299h-8l-84 -299h-162z" />
    <glyph glyph-name="Wdieresis" unicode="&#x1e84;" horiz-adv-x="983" 
d="M336 782v101h113v-101h-113zM543 782v101h113v-101h-113zM192 0l-169 688h143l122 -523h5l133 523h148l135 -523h5l115 523h142l-169 -688h-178l-125 475h-4l-125 -475h-178z" />
    <glyph glyph-name="wdieresis" unicode="&#x1e85;" horiz-adv-x="831" 
d="M259 604v101h113v-101h-113zM466 604v101h113v-101h-113zM165 0l-142 510h134l90 -367h8l101 367h122l101 -367h9l89 367h131l-143 -510h-161l-85 299h-8l-84 -299h-162z" />
    <glyph glyph-name="uni1E92" unicode="&#x1e92;" horiz-adv-x="613" 
d="M47 0v113l338 457h-327v118h507v-109l-342 -461h345v-118h-521zM257 -202v100h105v-100h-105z" />
    <glyph glyph-name="uni1E93" unicode="&#x1e93;" horiz-adv-x="520" 
d="M48 0v100l252 303h-240v107h410v-100l-253 -303h255v-107h-424zM215 -202v100h105v-100h-105z" />
    <glyph glyph-name="uni1E9E" unicode="&#x1e9e;" horiz-adv-x="724" 
d="M480 382q102 -5 144.5 -48.5t42.5 -149.5q0 -100 -56.5 -146t-185.5 -46q-73 0 -138 20v108q70 -12 119 -12q72 0 94 17t22 72q0 56 -19.5 74.5t-75.5 18.5h-104v100l154 184q-48 6 -80 6q-46 0 -72 -2t-48.5 -12t-32 -22.5t-17 -43.5t-8.5 -64.5t-1 -94.5v-341h-142v354
q0 108 11 170.5t44 103t87.5 54.5t147.5 14q146 0 265 -32v-100z" />
    <glyph glyph-name="uni1EA0" unicode="&#x1ea0;" horiz-adv-x="687" 
d="M15 0l233 688h191l233 -688h-147l-50 152h-268l-48 -152h-144zM245 270h192l-94 289h-5zM291 -202v100h105v-100h-105z" />
    <glyph glyph-name="uni1EA1" unicode="&#x1ea1;" horiz-adv-x="564" 
d="M196 -8q-77 0 -114.5 35t-37.5 116q0 89 33.5 124t126.5 35q52 0 156 -4v20q0 65 -22.5 79t-112.5 14q-76 0 -150 -9v101q97 15 194 15q75 0 120 -11t67.5 -39.5t29.5 -62.5t7 -94v-311h-125l-4 62h-7q-40 -70 -161 -70zM259 95q66 0 86 32q15 25 15 78v15h-120
q-43 0 -55.5 -11.5t-12.5 -52.5q0 -39 15.5 -50t71.5 -11zM230 -202v100h105v-100h-105z" />
    <glyph glyph-name="uni1EA2" unicode="&#x1ea2;" horiz-adv-x="687" 
d="M287 748v8q0 25 10 39.5t37 22.5l19 5q28 9 35 14.5t7 20.5q0 22 -14 26.5t-59 4.5q-55 0 -103 -5v63q59 9 124 9q73 0 105.5 -16t32.5 -74q0 -38 -14.5 -53.5t-52.5 -26.5l-19 -6q-24 -7 -30 -12t-6 -20h-72zM15 0l233 688h191l233 -688h-147l-50 152h-268l-48 -152
h-144zM245 270h192l-94 289h-5z" />
    <glyph glyph-name="uni1EA3" unicode="&#x1ea3;" horiz-adv-x="564" 
d="M226 570v8q0 25 10 39.5t37 22.5l19 5q28 9 35 14.5t7 20.5q0 22 -14 26.5t-59 4.5q-55 0 -103 -5v63q59 9 124 9q37 0 58 -2.5t41.5 -11t29.5 -27t9 -49.5q0 -38 -14.5 -53.5t-52.5 -26.5l-19 -6q-24 -7 -30 -12t-6 -20h-72zM196 -8q-77 0 -114.5 35t-37.5 116
q0 89 33.5 124t126.5 35q52 0 156 -4v20q0 65 -22.5 79t-112.5 14q-76 0 -150 -9v101q97 15 194 15q75 0 120 -11t67.5 -39.5t29.5 -62.5t7 -94v-311h-125l-4 62h-7q-40 -70 -161 -70zM259 95q66 0 86 32q15 25 15 78v15h-120q-43 0 -55.5 -11.5t-12.5 -52.5q0 -39 15.5 -50
t71.5 -11z" />
    <glyph glyph-name="uni1EA4" unicode="&#x1ea4;" horiz-adv-x="687" 
d="M270 938v5l95 139h133v-5l-131 -139h-97zM183 760v7l96 137h128l97 -137v-7h-88l-73 85l-73 -85h-87zM15 0l233 688h191l233 -688h-147l-50 152h-268l-48 -152h-144zM245 270h192l-94 289h-5z" />
    <glyph glyph-name="uni1EA5" unicode="&#x1ea5;" horiz-adv-x="564" 
d="M206 760v5l94 139h134v-5l-132 -139h-96zM123 582v7l96 137h128l97 -137v-7h-88l-73 85l-73 -85h-87zM196 -8q-77 0 -114.5 35t-37.5 116q0 89 33.5 124t126.5 35q52 0 156 -4v20q0 65 -22.5 79t-112.5 14q-76 0 -150 -9v101q97 15 194 15q75 0 120 -11t67.5 -39.5
t29.5 -62.5t7 -94v-311h-125l-4 62h-7q-40 -70 -161 -70zM259 95q66 0 86 32q15 25 15 78v15h-120q-43 0 -55.5 -11.5t-12.5 -52.5q0 -39 15.5 -50t71.5 -11z" />
    <glyph glyph-name="uni1EA6" unicode="&#x1ea6;" horiz-adv-x="687" 
d="M324 938l-131 139v5h133l94 -139v-5h-96zM183 760v7l96 137h128l97 -137v-7h-88l-73 85l-73 -85h-87zM15 0l233 688h191l233 -688h-147l-50 152h-268l-48 -152h-144zM245 270h192l-94 289h-5z" />
    <glyph glyph-name="uni1EA7" unicode="&#x1ea7;" horiz-adv-x="564" 
d="M260 760l-132 139v5h134l94 -139v-5h-96zM123 582v7l96 137h128l97 -137v-7h-88l-73 85l-73 -85h-87zM196 -8q-77 0 -114.5 35t-37.5 116q0 89 33.5 124t126.5 35q52 0 156 -4v20q0 65 -22.5 79t-112.5 14q-76 0 -150 -9v101q97 15 194 15q75 0 120 -11t67.5 -39.5
t29.5 -62.5t7 -94v-311h-125l-4 62h-7q-40 -70 -161 -70zM259 95q66 0 86 32q15 25 15 78v15h-120q-43 0 -55.5 -11.5t-12.5 -52.5q0 -39 15.5 -50t71.5 -11z" />
    <glyph glyph-name="uni1EA8" unicode="&#x1ea8;" horiz-adv-x="687" 
d="M287 926v8q0 25 10 39t37 22l19 6q28 9 35 14.5t7 20.5q0 22 -14 26.5t-59 4.5q-55 0 -103 -5v63q59 9 124 9q73 0 105.5 -16t32.5 -74q0 -38 -14.5 -53.5t-53.5 -26.5l-18 -6q-24 -7 -30 -12t-6 -20h-72zM183 760v7l96 137h128l97 -137v-7h-88l-73 85l-73 -85h-87zM15 0
l233 688h191l233 -688h-147l-50 152h-268l-48 -152h-144zM245 270h192l-94 289h-5z" />
    <glyph glyph-name="uni1EA9" unicode="&#x1ea9;" horiz-adv-x="564" 
d="M227 748v8q0 25 10 39t37 22l19 6q28 9 35 14.5t7 20.5q0 22 -14 26.5t-59 4.5q-55 0 -103 -5v63q59 9 124 9q74 0 106 -16t32 -74q0 -38 -14.5 -53.5t-52.5 -26.5l-19 -6q-24 -7 -30 -12.5t-6 -19.5h-72zM123 582v7l96 137h128l97 -137v-7h-88l-73 85l-73 -85h-87z
M196 -8q-77 0 -114.5 35t-37.5 116q0 89 33.5 124t126.5 35q52 0 156 -4v20q0 65 -22.5 79t-112.5 14q-76 0 -150 -9v101q97 15 194 15q75 0 120 -11t67.5 -39.5t29.5 -62.5t7 -94v-311h-125l-4 62h-7q-40 -70 -161 -70zM259 95q66 0 86 32q15 25 15 78v15h-120
q-43 0 -55.5 -11.5t-12.5 -52.5q0 -39 15.5 -50t71.5 -11z" />
    <glyph glyph-name="uni1EAA" unicode="&#x1eaa;" horiz-adv-x="687" 
d="M162 937q0 31 1 48t5.5 36t14 28.5t25.5 15.5t41 6q33 0 109 -20q51 -15 72 -15q19 0 23 8.5t4 37.5h69q0 -74 -14.5 -103.5t-71.5 -29.5q-41 0 -109 20q-58 15 -72 15q-19 0 -23 -8.5t-4 -38.5h-70zM183 760v7l96 137h128l97 -137v-7h-88l-73 85l-73 -85h-87zM15 0
l233 688h191l233 -688h-147l-50 152h-268l-48 -152h-144zM245 270h192l-94 289h-5z" />
    <glyph glyph-name="uni1EAB" unicode="&#x1eab;" horiz-adv-x="564" 
d="M100 759q0 31 1 48t5.5 36t14 28.5t25.5 15.5t41 6q33 0 109 -20q51 -15 72 -15q19 0 23 8.5t4 37.5h69q0 -74 -15 -103.5t-71 -29.5q-41 0 -109 20q-58 15 -72 15q-19 0 -23 -8.5t-4 -38.5h-70zM122 582v7l96 137h129l97 -137v-7h-89l-73 85l-72 -85h-88zM196 -8
q-77 0 -114.5 35t-37.5 116q0 89 33.5 124t126.5 35q52 0 156 -4v20q0 65 -22.5 79t-112.5 14q-76 0 -150 -9v101q97 15 194 15q75 0 120 -11t67.5 -39.5t29.5 -62.5t7 -94v-311h-125l-4 62h-7q-40 -70 -161 -70zM259 95q66 0 86 32q15 25 15 78v15h-120q-43 0 -55.5 -11.5
t-12.5 -52.5q0 -39 15.5 -50t71.5 -11z" />
    <glyph glyph-name="uni1EAC" unicode="&#x1eac;" horiz-adv-x="687" 
d="M183 760v7l96 137h128l97 -137v-7h-88l-73 85l-73 -85h-87zM15 0l233 688h191l233 -688h-147l-50 152h-268l-48 -152h-144zM245 270h192l-94 289h-5zM291 -202v100h105v-100h-105z" />
    <glyph glyph-name="uni1EAD" unicode="&#x1ead;" horiz-adv-x="564" 
d="M123 582v7l96 137h128l97 -137v-7h-88l-73 85l-73 -85h-87zM196 -8q-77 0 -114.5 35t-37.5 116q0 89 33.5 124t126.5 35q52 0 156 -4v20q0 65 -22.5 79t-112.5 14q-76 0 -150 -9v101q97 15 194 15q75 0 120 -11t67.5 -39.5t29.5 -62.5t7 -94v-311h-125l-4 62h-7
q-40 -70 -161 -70zM259 95q66 0 86 32q15 25 15 78v15h-120q-43 0 -55.5 -11.5t-12.5 -52.5q0 -39 15.5 -50t71.5 -11zM230 -202v100h105v-100h-105z" />
    <glyph glyph-name="uni1EAE" unicode="&#x1eae;" horiz-adv-x="687" 
d="M270 931v5l94 138h133v-5l-131 -138h-96zM341 756q-91 0 -118.5 36t-27.5 112h77q0 -21 1 -31t7.5 -21.5t21 -15.5t39.5 -4q26 0 41 4.5t21.5 15.5t8 21t1.5 31h77q0 -76 -28.5 -112t-120.5 -36zM15 0l233 688h191l233 -688h-147l-50 152h-268l-48 -152h-144zM245 270
h192l-94 289h-5z" />
    <glyph glyph-name="uni1EAF" unicode="&#x1eaf;" horiz-adv-x="564" 
d="M205 753v5l95 138h133v-5l-131 -138h-97zM281 578q-91 0 -118.5 36t-27.5 112h77q0 -21 1 -31t7.5 -21.5t21 -15.5t39.5 -4q26 0 41 4.5t21.5 15.5t8 21t1.5 31h77q0 -76 -28.5 -112t-120.5 -36zM196 -8q-77 0 -114.5 35t-37.5 116q0 89 33.5 124t126.5 35q52 0 156 -4
v20q0 65 -22.5 79t-112.5 14q-76 0 -150 -9v101q97 15 194 15q75 0 120 -11t67.5 -39.5t29.5 -62.5t7 -94v-311h-125l-4 62h-7q-40 -70 -161 -70zM259 95q66 0 86 32q15 25 15 78v15h-120q-43 0 -55.5 -11.5t-12.5 -52.5q0 -39 15.5 -50t71.5 -11z" />
    <glyph glyph-name="uni1EB0" unicode="&#x1eb0;" horiz-adv-x="687" 
d="M319 931l-131 138v5h133l94 -138v-5h-96zM341 756q-91 0 -118.5 36t-27.5 112h77q0 -21 1 -31t7.5 -21.5t21 -15.5t39.5 -4q26 0 41 4.5t21.5 15.5t8 21t1.5 31h77q0 -76 -28.5 -112t-120.5 -36zM15 0l233 688h191l233 -688h-147l-50 152h-268l-48 -152h-144zM245 270
h192l-94 289h-5z" />
    <glyph glyph-name="uni1EB1" unicode="&#x1eb1;" horiz-adv-x="564" 
d="M259 753l-131 138v5h134l94 -138v-5h-97zM282 578q-48 0 -78.5 10t-45 32t-19 45.5t-4.5 60.5h77q0 -21 1 -31t7.5 -21.5t21.5 -15.5t40 -4t40 4.5t21.5 15.5t8 21.5t1.5 30.5h78q0 -75 -28.5 -111.5t-120.5 -36.5zM196 -8q-77 0 -114.5 35t-37.5 116q0 89 33.5 124
t126.5 35q52 0 156 -4v20q0 65 -22.5 79t-112.5 14q-76 0 -150 -9v101q97 15 194 15q75 0 120 -11t67.5 -39.5t29.5 -62.5t7 -94v-311h-125l-4 62h-7q-40 -70 -161 -70zM259 95q66 0 86 32q15 25 15 78v15h-120q-43 0 -55.5 -11.5t-12.5 -52.5q0 -39 15.5 -50t71.5 -11z" />
    <glyph glyph-name="uni1EB2" unicode="&#x1eb2;" horiz-adv-x="687" 
d="M287 919v7q0 26 9.5 40t36.5 22l19 6q27 8 34.5 13.5t7.5 20.5q0 16 -8 22.5t-20 8t-44 1.5q-54 0 -104 -5v63q61 9 124 9q74 0 106 -16.5t32 -73.5q0 -38 -14.5 -54t-52.5 -26l-19 -6q-24 -8 -30 -13t-6 -19h-71zM341 756q-91 0 -118.5 36t-27.5 112h77q0 -21 1 -31
t7.5 -21.5t21 -15.5t39.5 -4q26 0 41 4.5t21.5 15.5t8 21t1.5 31h77q0 -76 -28.5 -112t-120.5 -36zM15 0l233 688h191l233 -688h-147l-50 152h-268l-48 -152h-144zM245 270h192l-94 289h-5z" />
    <glyph glyph-name="uni1EB3" unicode="&#x1eb3;" horiz-adv-x="564" 
d="M227 741v7q0 26 9.5 40t36.5 22l19 6q27 8 34.5 13.5t7.5 20.5q0 16 -8 22.5t-20 8t-44 1.5q-54 0 -104 -5v63q61 9 124 9q74 0 106 -16.5t32 -73.5q0 -38 -14.5 -54t-52.5 -26l-19 -6q-24 -8 -30 -13t-6 -19h-71zM281 578q-91 0 -118.5 36t-27.5 112h77q0 -21 1 -31
t7.5 -21.5t21 -15.5t39.5 -4q26 0 41 4.5t21.5 15.5t8 21t1.5 31h77q0 -76 -28.5 -112t-120.5 -36zM196 -8q-77 0 -114.5 35t-37.5 116q0 89 33.5 124t126.5 35q52 0 156 -4v20q0 65 -22.5 79t-112.5 14q-76 0 -150 -9v101q97 15 194 15q75 0 120 -11t67.5 -39.5t29.5 -62.5
t7 -94v-311h-125l-4 62h-7q-40 -70 -161 -70zM259 95q66 0 86 32q15 25 15 78v15h-120q-43 0 -55.5 -11.5t-12.5 -52.5q0 -39 15.5 -50t71.5 -11z" />
    <glyph glyph-name="uni1EB4" unicode="&#x1eb4;" horiz-adv-x="687" 
d="M160 930q0 75 14.5 104.5t71.5 29.5q34 0 110 -20q54 -16 71 -16q20 0 24 8.5t4 38.5h69q0 -75 -15 -104.5t-71 -29.5q-33 0 -109 20q-54 16 -72 16q-19 0 -23 -8.5t-4 -38.5h-70zM341 756q-91 0 -118.5 36t-27.5 112h77q0 -21 1 -31t7.5 -21.5t21 -15.5t39.5 -4
q26 0 41 4.5t21.5 15.5t8 21t1.5 31h77q0 -76 -28.5 -112t-120.5 -36zM15 0l233 688h191l233 -688h-147l-50 152h-268l-48 -152h-144zM245 270h192l-94 289h-5z" />
    <glyph glyph-name="uni1EB5" unicode="&#x1eb5;" horiz-adv-x="564" 
d="M100 752q0 31 1 48t5.5 36t14 28.5t25.5 15.5t41 6q33 0 109 -20q54 -16 72 -16q19 0 23 8.5t4 38.5h69q0 -75 -15 -104.5t-71 -29.5q-33 0 -109 20q-54 16 -72 16q-19 0 -23 -8.5t-4 -38.5h-70zM281 578q-91 0 -118.5 36t-27.5 112h77q0 -21 1 -31t7.5 -21.5t21 -15.5
t39.5 -4q26 0 41 4.5t21.5 15.5t8 21t1.5 31h77q0 -76 -28.5 -112t-120.5 -36zM196 -8q-77 0 -114.5 35t-37.5 116q0 89 33.5 124t126.5 35q52 0 156 -4v20q0 65 -22.5 79t-112.5 14q-76 0 -150 -9v101q97 15 194 15q75 0 120 -11t67.5 -39.5t29.5 -62.5t7 -94v-311h-125
l-4 62h-7q-40 -70 -161 -70zM259 95q66 0 86 32q15 25 15 78v15h-120q-43 0 -55.5 -11.5t-12.5 -52.5q0 -39 15.5 -50t71.5 -11z" />
    <glyph glyph-name="uni1EB6" unicode="&#x1eb6;" horiz-adv-x="687" 
d="M341 756q-91 0 -118.5 36t-27.5 112h77q0 -21 1 -31t7.5 -21.5t21 -15.5t39.5 -4q26 0 41 4.5t21.5 15.5t8 21t1.5 31h77q0 -76 -28.5 -112t-120.5 -36zM15 0l233 688h191l233 -688h-147l-50 152h-268l-48 -152h-144zM245 270h192l-94 289h-5zM291 -202v100h105v-100
h-105z" />
    <glyph glyph-name="uni1EB7" unicode="&#x1eb7;" horiz-adv-x="564" 
d="M281 578q-91 0 -118.5 36t-27.5 112h77q0 -21 1 -31t7.5 -21.5t21 -15.5t39.5 -4q26 0 41 4.5t21.5 15.5t8 21t1.5 31h77q0 -76 -28.5 -112t-120.5 -36zM196 -8q-77 0 -114.5 35t-37.5 116q0 89 33.5 124t126.5 35q52 0 156 -4v20q0 65 -22.5 79t-112.5 14q-76 0 -150 -9
v101q97 15 194 15q75 0 120 -11t67.5 -39.5t29.5 -62.5t7 -94v-311h-125l-4 62h-7q-40 -70 -161 -70zM259 95q66 0 86 32q15 25 15 78v15h-120q-43 0 -55.5 -11.5t-12.5 -52.5q0 -39 15.5 -50t71.5 -11zM230 -202v100h105v-100h-105z" />
    <glyph glyph-name="uni1EB8" unicode="&#x1eb8;" horiz-adv-x="611" 
d="M83 0v688h472v-118h-330v-164h283v-118h-283v-170h330v-118h-472zM267 -202v100h105v-100h-105z" />
    <glyph glyph-name="uni1EB9" unicode="&#x1eb9;" horiz-adv-x="556" 
d="M503 254v-39h-318q0 -43 3 -62t18 -33.5t41.5 -18t80.5 -3.5q69 0 155 9v-99q-70 -16 -186 -16q-57 0 -97 5.5t-67 20.5t-43 33t-24.5 51t-11 66t-2.5 86q0 61 4 98.5t17 72.5t39 53.5t68.5 29t105.5 10.5q45 0 78 -5.5t56.5 -14t39 -27t24.5 -35.5t13 -49.5t5 -59
t1 -73.5zM284 414q-64 0 -81 -21t-18 -96h192q0 76 -18 96.5t-75 20.5zM226 -202v100h105v-100h-105z" />
    <glyph glyph-name="uni1EBA" unicode="&#x1eba;" horiz-adv-x="611" 
d="M263 748v8q0 25 10 39.5t37 22.5l19 5q28 9 35 14.5t7 20.5q0 22 -14 26.5t-59 4.5q-55 0 -103 -5v63q59 9 124 9q73 0 105.5 -16t32.5 -74q0 -38 -14.5 -53.5t-52.5 -26.5l-19 -6q-24 -7 -30 -12t-6 -20h-72zM83 0v688h472v-118h-330v-164h283v-118h-283v-170h330v-118
h-472z" />
    <glyph glyph-name="uni1EBB" unicode="&#x1ebb;" horiz-adv-x="556" 
d="M335 680q0 22 -14 26.5t-59 4.5q-55 0 -103 -5v63q59 9 124 9q73 0 105.5 -16t32.5 -74q0 -38 -14.5 -53.5t-52.5 -26.5l-19 -6q-24 -7 -30 -12t-6 -20h-72v8q0 25 10 39.5t37 22.5l19 5q28 9 35 14.5t7 20.5zM503 254v-39h-318q0 -43 3 -62t18 -33.5t41.5 -18t80.5 -3.5
q69 0 155 9v-99q-70 -16 -186 -16q-57 0 -97 5.5t-67 20.5t-43 33t-24.5 51t-11 66t-2.5 86q0 61 4 98.5t17 72.5t39 53.5t68.5 29t105.5 10.5q45 0 78 -5.5t56.5 -14t39 -27t24.5 -35.5t13 -49.5t5 -59t1 -73.5zM284 414q-64 0 -81 -21t-18 -96h192q0 76 -18 96.5t-75 20.5
z" />
    <glyph glyph-name="uni1EBC" unicode="&#x1ebc;" horiz-adv-x="611" 
d="M138 759q0 31 1 48t5.5 36t14 28.5t25.5 15.5t41 6q33 0 109 -20q51 -15 72 -15q19 0 23 8.5t4 37.5h69q0 -74 -15 -103.5t-71 -29.5q-41 0 -109 20q-58 15 -72 15q-19 0 -23 -8.5t-4 -38.5h-70zM83 0v688h472v-118h-330v-164h283v-118h-283v-170h330v-118h-472z" />
    <glyph glyph-name="uni1EBD" unicode="&#x1ebd;" horiz-adv-x="556" 
d="M198 628q-19 0 -23 -8.5t-4 -38.5h-70q0 31 1 48t5.5 36t14 28.5t25.5 15.5t41 6q33 0 109 -20q51 -15 72 -15q19 0 23 8.5t4 37.5h69q0 -74 -15 -103.5t-71 -29.5q-41 0 -109 20q-58 15 -72 15zM503 254v-39h-318q0 -43 3 -62t18 -33.5t41.5 -18t80.5 -3.5q69 0 155 9
v-99q-70 -16 -186 -16q-57 0 -97 5.5t-67 20.5t-43 33t-24.5 51t-11 66t-2.5 86q0 61 4 98.5t17 72.5t39 53.5t68.5 29t105.5 10.5q45 0 78 -5.5t56.5 -14t39 -27t24.5 -35.5t13 -49.5t5 -59t1 -73.5zM284 414q-64 0 -81 -21t-18 -96h192q0 76 -18 96.5t-75 20.5z" />
    <glyph glyph-name="uni1EBE" unicode="&#x1ebe;" horiz-adv-x="611" 
d="M246 938v5l95 139h133v-5l-131 -139h-97zM159 760v7l96 137h128l97 -137v-7h-88l-73 85l-73 -85h-87zM83 0v688h472v-118h-330v-164h283v-118h-283v-170h330v-118h-472z" />
    <glyph glyph-name="uni1EBF" unicode="&#x1ebf;" horiz-adv-x="556" 
d="M435 899l-132 -139h-96v5l94 139h134v-5zM284 667l-73 -85h-87v7l96 137h128l97 -137v-7h-88zM503 254v-39h-318q0 -43 3 -62t18 -33.5t41.5 -18t80.5 -3.5q69 0 155 9v-99q-70 -16 -186 -16q-57 0 -97 5.5t-67 20.5t-43 33t-24.5 51t-11 66t-2.5 86q0 61 4 98.5t17 72.5
t39 53.5t68.5 29t105.5 10.5q45 0 78 -5.5t56.5 -14t39 -27t24.5 -35.5t13 -49.5t5 -59t1 -73.5zM284 414q-64 0 -81 -21t-18 -96h192q0 76 -18 96.5t-75 20.5z" />
    <glyph glyph-name="uni1EC0" unicode="&#x1ec0;" horiz-adv-x="611" 
d="M300 938l-131 139v5h133l94 -139v-5h-96zM159 760v7l96 137h128l97 -137v-7h-88l-73 85l-73 -85h-87zM83 0v688h472v-118h-330v-164h283v-118h-283v-170h330v-118h-472z" />
    <glyph glyph-name="uni1EC1" unicode="&#x1ec1;" horiz-adv-x="556" 
d="M357 760h-96l-132 139v5h134l94 -139v-5zM284 667l-73 -85h-87v7l96 137h128l97 -137v-7h-88zM503 254v-39h-318q0 -43 3 -62t18 -33.5t41.5 -18t80.5 -3.5q69 0 155 9v-99q-70 -16 -186 -16q-57 0 -97 5.5t-67 20.5t-43 33t-24.5 51t-11 66t-2.5 86q0 61 4 98.5t17 72.5
t39 53.5t68.5 29t105.5 10.5q45 0 78 -5.5t56.5 -14t39 -27t24.5 -35.5t13 -49.5t5 -59t1 -73.5zM284 414q-64 0 -81 -21t-18 -96h192q0 76 -18 96.5t-75 20.5z" />
    <glyph glyph-name="uni1EC2" unicode="&#x1ec2;" horiz-adv-x="611" 
d="M263 926v8q0 25 10 39t37 22l19 6q28 9 35 14.5t7 20.5q0 22 -14 26.5t-59 4.5q-55 0 -103 -5v63q59 9 124 9q73 0 105.5 -16t32.5 -74q0 -38 -14.5 -53.5t-53.5 -26.5l-18 -6q-24 -7 -30 -12t-6 -20h-72zM159 760v7l96 137h128l97 -137v-7h-88l-73 85l-73 -85h-87zM83 0
v688h472v-118h-330v-164h283v-118h-283v-170h330v-118h-472z" />
    <glyph glyph-name="uni1EC3" unicode="&#x1ec3;" horiz-adv-x="556" 
d="M336 858q0 22 -14 26.5t-59 4.5q-55 0 -103 -5v63q59 9 124 9q74 0 106 -16t32 -74q0 -38 -14.5 -53.5t-52.5 -26.5l-19 -6q-24 -7 -30 -12.5t-6 -19.5h-72v8q0 25 10 39t37 22l19 6q28 9 35 14.5t7 20.5zM284 667l-73 -85h-87v7l96 137h128l97 -137v-7h-88zM503 254v-39
h-318q0 -43 3 -62t18 -33.5t41.5 -18t80.5 -3.5q69 0 155 9v-99q-70 -16 -186 -16q-57 0 -97 5.5t-67 20.5t-43 33t-24.5 51t-11 66t-2.5 86q0 61 4 98.5t17 72.5t39 53.5t68.5 29t105.5 10.5q45 0 78 -5.5t56.5 -14t39 -27t24.5 -35.5t13 -49.5t5 -59t1 -73.5zM284 414
q-64 0 -81 -21t-18 -96h192q0 76 -18 96.5t-75 20.5z" />
    <glyph glyph-name="uni1EC4" unicode="&#x1ec4;" horiz-adv-x="611" 
d="M138 937q0 31 1 48t5.5 36t14 28.5t25.5 15.5t41 6q33 0 109 -20q51 -15 72 -15q19 0 23 8.5t4 37.5h69q0 -74 -14.5 -103.5t-71.5 -29.5q-41 0 -109 20q-58 15 -72 15q-19 0 -23 -8.5t-4 -38.5h-70zM159 760v7l96 137h128l97 -137v-7h-88l-73 85l-73 -85h-87zM83 0v688
h472v-118h-330v-164h283v-118h-283v-170h330v-118h-472z" />
    <glyph glyph-name="uni1EC5" unicode="&#x1ec5;" horiz-adv-x="556" 
d="M198 806q-19 0 -23 -8.5t-4 -38.5h-70q0 31 1 48t5.5 36t14 28.5t25.5 15.5t41 6q33 0 109 -20q51 -15 72 -15q19 0 23 8.5t4 37.5h69q0 -74 -15 -103.5t-71 -29.5q-41 0 -109 20q-58 15 -72 15zM219 726h129l97 -137v-7h-89l-73 85l-72 -85h-88v7zM503 254v-39h-318
q0 -43 3 -62t18 -33.5t41.5 -18t80.5 -3.5q69 0 155 9v-99q-70 -16 -186 -16q-57 0 -97 5.5t-67 20.5t-43 33t-24.5 51t-11 66t-2.5 86q0 61 4 98.5t17 72.5t39 53.5t68.5 29t105.5 10.5q45 0 78 -5.5t56.5 -14t39 -27t24.5 -35.5t13 -49.5t5 -59t1 -73.5zM284 414
q-64 0 -81 -21t-18 -96h192q0 76 -18 96.5t-75 20.5z" />
    <glyph glyph-name="uni1EC6" unicode="&#x1ec6;" horiz-adv-x="611" 
d="M159 760v7l96 137h128l97 -137v-7h-88l-73 85l-73 -85h-87zM83 0v688h472v-118h-330v-164h283v-118h-283v-170h330v-118h-472zM267 -202v100h105v-100h-105z" />
    <glyph glyph-name="uni1EC7" unicode="&#x1ec7;" horiz-adv-x="556" 
d="M284 667l-73 -85h-87v7l96 137h128l97 -137v-7h-88zM503 254v-39h-318q0 -43 3 -62t18 -33.5t41.5 -18t80.5 -3.5q69 0 155 9v-99q-70 -16 -186 -16q-57 0 -97 5.5t-67 20.5t-43 33t-24.5 51t-11 66t-2.5 86q0 61 4 98.5t17 72.5t39 53.5t68.5 29t105.5 10.5
q45 0 78 -5.5t56.5 -14t39 -27t24.5 -35.5t13 -49.5t5 -59t1 -73.5zM284 414q-64 0 -81 -21t-18 -96h192q0 76 -18 96.5t-75 20.5zM226 -202v100h105v-100h-105z" />
    <glyph glyph-name="uni1EC8" unicode="&#x1ec8;" horiz-adv-x="306" 
d="M96 748v8q0 25 10 39.5t37 22.5l19 5q28 9 35 14.5t7 20.5q0 22 -14 26.5t-59 4.5q-55 0 -103 -5v63q59 9 124 9q37 0 58 -2.5t41.5 -11t29.5 -27t9 -49.5q0 -38 -14.5 -53.5t-52.5 -26.5l-19 -6q-24 -7 -30 -12t-6 -20h-72zM82 0v688h142v-688h-142z" />
    <glyph glyph-name="uni1EC9" unicode="&#x1ec9;" horiz-adv-x="275" 
d="M81 570v8q0 25 10 39.5t37 22.5l19 5q28 9 35 14.5t7 20.5q0 22 -14 26.5t-59 4.5q-55 0 -103 -5v63q59 9 124 9q73 0 105.5 -16t32.5 -74q0 -38 -14.5 -53.5t-52.5 -26.5l-19 -6q-24 -7 -30 -12t-6 -20h-72zM70 0v510h134v-510h-134z" />
    <glyph glyph-name="uni1ECA" unicode="&#x1eca;" horiz-adv-x="306" 
d="M82 0v688h142v-688h-142zM100 -202v100h105v-100h-105z" />
    <glyph glyph-name="uni1ECB" unicode="&#x1ecb;" horiz-adv-x="275" 
d="M69 625v118h137v-118h-137zM70 0v510h134v-510h-134zM85 -202v100h105v-100h-105z" />
    <glyph glyph-name="uni1ECC" unicode="&#x1ecc;" horiz-adv-x="708" 
d="M354 -8q-43 0 -76.5 2t-62 8.5t-49 13t-37 21t-27.5 27t-18.5 37t-11.5 45t-6.5 56t-3 65t-0.5 77.5t0.5 77.5t3 65t6.5 56t11.5 45t18.5 37t27.5 27t37 21t49 13t62 8.5t76.5 2q54 0 93.5 -3t71 -13.5t52 -21.5t35.5 -35t22.5 -45.5t12 -62.5t5.5 -76t1 -95t-1 -95
t-5.5 -76t-12 -62.5t-22.5 -45.5t-35.5 -35t-52 -21.5t-71 -13.5t-93.5 -3zM354 110h48t35.5 4.5t27 8.5t17.5 18.5t12.5 27.5t5.5 42.5t3 56v76.5v76.5t-3 56t-5.5 42.5t-12.5 27.5t-17.5 18.5t-27 8.5t-35.5 4.5h-48h-48t-35.5 -4.5t-27 -8.5t-17.5 -18.5t-12 -27.5
t-5.5 -42.5t-3.5 -56.5v-76v-76t3.5 -56.5t5.5 -42.5t12 -27.5t17.5 -18.5t27 -8.5t35.5 -4.5h48zM302 -202v100h105v-100h-105z" />
    <glyph glyph-name="uni1ECD" unicode="&#x1ecd;" horiz-adv-x="572" 
d="M286 -8q-56 0 -94 4.5t-65 19t-41 30.5t-22 50.5t-10 67.5t-2 92t2 92t10 67t22 50t41 30t65 18.5t94 4.5t94 -4.5t65 -18.5t41 -30t22 -50t10 -67t2 -92t-2 -92t-10 -67.5t-22 -50.5t-41 -30.5t-65 -19t-94 -4.5zM286 99q27 0 42.5 1t28 9.5t17.5 15t8 29.5t3.5 41
t0.5 61v47.5t-1.5 35.5t-3.5 28t-7.5 18.5t-12 14t-18 6.5t-24.5 4.5t-33 0.5t-33 -0.5t-24.5 -4.5t-18 -6.5t-12 -14t-7.5 -18.5t-3.5 -28t-1.5 -35.5v-47.5q0 -43 0.5 -61t3.5 -41t8 -29.5t17.5 -15t28 -9.5t42.5 -1zM234 -202v100h105v-100h-105z" />
    <glyph glyph-name="uni1ECE" unicode="&#x1ece;" horiz-adv-x="708" 
d="M298 748v8q0 25 10 39.5t37 22.5l19 5q28 9 35 14.5t7 20.5q0 22 -14 26.5t-59 4.5q-55 0 -103 -5v63q59 9 124 9q37 0 58 -2.5t41.5 -11t29.5 -27t9 -49.5q0 -38 -14.5 -53.5t-52.5 -26.5l-19 -6q-24 -7 -30 -12t-6 -20h-72zM354 -8q-43 0 -76.5 2t-62 8.5t-49 13
t-37 21t-27.5 27t-18.5 37t-11.5 45t-6.5 56t-3 65t-0.5 77.5t0.5 77.5t3 65t6.5 56t11.5 45t18.5 37t27.5 27t37 21t49 13t62 8.5t76.5 2q54 0 93.5 -3t71 -13.5t52 -21.5t35.5 -35t22.5 -45.5t12 -62.5t5.5 -76t1 -95t-1 -95t-5.5 -76t-12 -62.5t-22.5 -45.5t-35.5 -35
t-52 -21.5t-71 -13.5t-93.5 -3zM354 110h48t35.5 4.5t27 8.5t17.5 18.5t12.5 27.5t5.5 42.5t3 56v76.5v76.5t-3 56t-5.5 42.5t-12.5 27.5t-17.5 18.5t-27 8.5t-35.5 4.5h-48h-48t-35.5 -4.5t-27 -8.5t-17.5 -18.5t-12 -27.5t-5.5 -42.5t-3.5 -56.5v-76v-76t3.5 -56.5
t5.5 -42.5t12 -27.5t17.5 -18.5t27 -8.5t35.5 -4.5h48z" />
    <glyph glyph-name="uni1ECF" unicode="&#x1ecf;" horiz-adv-x="572" 
d="M230 570v8q0 25 10 39.5t37 22.5l19 5q28 9 35 14.5t7 20.5q0 22 -14 26.5t-59 4.5q-55 0 -103 -5v63q59 9 124 9q37 0 58 -2.5t41.5 -11t29.5 -27t9 -49.5q0 -38 -14.5 -53.5t-52.5 -26.5l-19 -6q-24 -7 -30 -12t-6 -20h-72zM286 -8q-56 0 -94 4.5t-65 19t-41 30.5
t-22 50.5t-10 67.5t-2 92t2 92t10 67t22 50t41 30t65 18.5t94 4.5t94 -4.5t65 -18.5t41 -30t22 -50t10 -67t2 -92t-2 -92t-10 -67.5t-22 -50.5t-41 -30.5t-65 -19t-94 -4.5zM286 99q27 0 42.5 1t28 9.5t17.5 15t8 29.5t3.5 41t0.5 61v47.5t-1.5 35.5t-3.5 28t-7.5 18.5
t-12 14t-18 6.5t-24.5 4.5t-33 0.5t-33 -0.5t-24.5 -4.5t-18 -6.5t-12 -14t-7.5 -18.5t-3.5 -28t-1.5 -35.5v-47.5q0 -43 0.5 -61t3.5 -41t8 -29.5t17.5 -15t28 -9.5t42.5 -1z" />
    <glyph glyph-name="uni1ED0" unicode="&#x1ed0;" horiz-adv-x="708" 
d="M281 938v5l95 139h133v-5l-131 -139h-97zM194 760v7l96 137h128l97 -137v-7h-88l-73 85l-73 -85h-87zM354 -8q-43 0 -76.5 2t-62 8.5t-49 13t-37 21t-27.5 27t-18.5 37t-11.5 45t-6.5 56t-3 65t-0.5 77.5t0.5 77.5t3 65t6.5 56t11.5 45t18.5 37t27.5 27t37 21t49 13
t62 8.5t76.5 2q54 0 93.5 -3t71 -13.5t52 -21.5t35.5 -35t22.5 -45.5t12 -62.5t5.5 -76t1 -95t-1 -95t-5.5 -76t-12 -62.5t-22.5 -45.5t-35.5 -35t-52 -21.5t-71 -13.5t-93.5 -3zM354 110h48t35.5 4.5t27 8.5t17.5 18.5t12.5 27.5t5.5 42.5t3 56v76.5v76.5t-3 56t-5.5 42.5
t-12.5 27.5t-17.5 18.5t-27 8.5t-35.5 4.5h-48h-48t-35.5 -4.5t-27 -8.5t-17.5 -18.5t-12 -27.5t-5.5 -42.5t-3.5 -56.5v-76v-76t3.5 -56.5t5.5 -42.5t12 -27.5t17.5 -18.5t27 -8.5t35.5 -4.5h48z" />
    <glyph glyph-name="uni1ED1" unicode="&#x1ed1;" horiz-adv-x="572" 
d="M209 760v5l94 139h134v-5l-132 -139h-96zM126 582v7l96 137h128l97 -137v-7h-88l-73 85l-73 -85h-87zM286 -8q-56 0 -94 4.5t-65 19t-41 30.5t-22 50.5t-10 67.5t-2 92t2 92t10 67t22 50t41 30t65 18.5t94 4.5t94 -4.5t65 -18.5t41 -30t22 -50t10 -67t2 -92t-2 -92
t-10 -67.5t-22 -50.5t-41 -30.5t-65 -19t-94 -4.5zM286 99q27 0 42.5 1t28 9.5t17.5 15t8 29.5t3.5 41t0.5 61v47.5t-1.5 35.5t-3.5 28t-7.5 18.5t-12 14t-18 6.5t-24.5 4.5t-33 0.5t-33 -0.5t-24.5 -4.5t-18 -6.5t-12 -14t-7.5 -18.5t-3.5 -28t-1.5 -35.5v-47.5
q0 -43 0.5 -61t3.5 -41t8 -29.5t17.5 -15t28 -9.5t42.5 -1z" />
    <glyph glyph-name="uni1ED2" unicode="&#x1ed2;" horiz-adv-x="708" 
d="M335 938l-131 139v5h133l94 -139v-5h-96zM194 760v7l96 137h128l97 -137v-7h-88l-73 85l-73 -85h-87zM354 -8q-43 0 -76.5 2t-62 8.5t-49 13t-37 21t-27.5 27t-18.5 37t-11.5 45t-6.5 56t-3 65t-0.5 77.5t0.5 77.5t3 65t6.5 56t11.5 45t18.5 37t27.5 27t37 21t49 13
t62 8.5t76.5 2q54 0 93.5 -3t71 -13.5t52 -21.5t35.5 -35t22.5 -45.5t12 -62.5t5.5 -76t1 -95t-1 -95t-5.5 -76t-12 -62.5t-22.5 -45.5t-35.5 -35t-52 -21.5t-71 -13.5t-93.5 -3zM354 110h48t35.5 4.5t27 8.5t17.5 18.5t12.5 27.5t5.5 42.5t3 56v76.5v76.5t-3 56t-5.5 42.5
t-12.5 27.5t-17.5 18.5t-27 8.5t-35.5 4.5h-48h-48t-35.5 -4.5t-27 -8.5t-17.5 -18.5t-12 -27.5t-5.5 -42.5t-3.5 -56.5v-76v-76t3.5 -56.5t5.5 -42.5t12 -27.5t17.5 -18.5t27 -8.5t35.5 -4.5h48z" />
    <glyph glyph-name="uni1ED3" unicode="&#x1ed3;" horiz-adv-x="572" 
d="M263 760l-132 139v5h134l94 -139v-5h-96zM126 582v7l96 137h128l97 -137v-7h-88l-73 85l-73 -85h-87zM286 -8q-56 0 -94 4.5t-65 19t-41 30.5t-22 50.5t-10 67.5t-2 92t2 92t10 67t22 50t41 30t65 18.5t94 4.5t94 -4.5t65 -18.5t41 -30t22 -50t10 -67t2 -92t-2 -92
t-10 -67.5t-22 -50.5t-41 -30.5t-65 -19t-94 -4.5zM286 99q27 0 42.5 1t28 9.5t17.5 15t8 29.5t3.5 41t0.5 61v47.5t-1.5 35.5t-3.5 28t-7.5 18.5t-12 14t-18 6.5t-24.5 4.5t-33 0.5t-33 -0.5t-24.5 -4.5t-18 -6.5t-12 -14t-7.5 -18.5t-3.5 -28t-1.5 -35.5v-47.5
q0 -43 0.5 -61t3.5 -41t8 -29.5t17.5 -15t28 -9.5t42.5 -1z" />
    <glyph glyph-name="uni1ED4" unicode="&#x1ed4;" horiz-adv-x="708" 
d="M298 926v8q0 25 10 39t37 22l19 6q28 9 35 14.5t7 20.5q0 22 -14 26.5t-59 4.5q-55 0 -103 -5v63q59 9 124 9q37 0 58 -2.5t41.5 -11t29.5 -27t9 -49.5q0 -38 -14.5 -53.5t-53.5 -26.5l-18 -6q-24 -7 -30 -12t-6 -20h-72zM194 760v7l96 137h128l97 -137v-7h-88l-73 85
l-73 -85h-87zM354 -8q-43 0 -76.5 2t-62 8.5t-49 13t-37 21t-27.5 27t-18.5 37t-11.5 45t-6.5 56t-3 65t-0.5 77.5t0.5 77.5t3 65t6.5 56t11.5 45t18.5 37t27.5 27t37 21t49 13t62 8.5t76.5 2q54 0 93.5 -3t71 -13.5t52 -21.5t35.5 -35t22.5 -45.5t12 -62.5t5.5 -76t1 -95
t-1 -95t-5.5 -76t-12 -62.5t-22.5 -45.5t-35.5 -35t-52 -21.5t-71 -13.5t-93.5 -3zM354 110h48t35.5 4.5t27 8.5t17.5 18.5t12.5 27.5t5.5 42.5t3 56v76.5v76.5t-3 56t-5.5 42.5t-12.5 27.5t-17.5 18.5t-27 8.5t-35.5 4.5h-48h-48t-35.5 -4.5t-27 -8.5t-17.5 -18.5
t-12 -27.5t-5.5 -42.5t-3.5 -56.5v-76v-76t3.5 -56.5t5.5 -42.5t12 -27.5t17.5 -18.5t27 -8.5t35.5 -4.5h48z" />
    <glyph glyph-name="uni1ED5" unicode="&#x1ed5;" horiz-adv-x="572" 
d="M230 748v8q0 25 10 39t37 22l19 6q28 9 35 14.5t7 20.5q0 22 -14 26.5t-59 4.5q-55 0 -103 -5v63q59 9 124 9q74 0 106 -16t32 -74q0 -38 -14.5 -53.5t-52.5 -26.5l-19 -6q-24 -7 -30 -12.5t-6 -19.5h-72zM126 582v7l96 137h128l97 -137v-7h-88l-73 85l-73 -85h-87z
M286 -8q-56 0 -94 4.5t-65 19t-41 30.5t-22 50.5t-10 67.5t-2 92t2 92t10 67t22 50t41 30t65 18.5t94 4.5t94 -4.5t65 -18.5t41 -30t22 -50t10 -67t2 -92t-2 -92t-10 -67.5t-22 -50.5t-41 -30.5t-65 -19t-94 -4.5zM286 99q27 0 42.5 1t28 9.5t17.5 15t8 29.5t3.5 41t0.5 61
v47.5t-1.5 35.5t-3.5 28t-7.5 18.5t-12 14t-18 6.5t-24.5 4.5t-33 0.5t-33 -0.5t-24.5 -4.5t-18 -6.5t-12 -14t-7.5 -18.5t-3.5 -28t-1.5 -35.5v-47.5q0 -43 0.5 -61t3.5 -41t8 -29.5t17.5 -15t28 -9.5t42.5 -1z" />
    <glyph glyph-name="uni1ED6" unicode="&#x1ed6;" horiz-adv-x="708" 
d="M173 937q0 31 1 48t5.5 36t14 28.5t25.5 15.5t41 6q33 0 109 -20q51 -15 72 -15q19 0 23 8.5t4 37.5h69q0 -74 -14.5 -103.5t-71.5 -29.5q-41 0 -109 20q-58 15 -72 15q-19 0 -23 -8.5t-4 -38.5h-70zM194 760v7l96 137h128l97 -137v-7h-88l-73 85l-73 -85h-87zM354 -8
q-43 0 -76.5 2t-62 8.5t-49 13t-37 21t-27.5 27t-18.5 37t-11.5 45t-6.5 56t-3 65t-0.5 77.5t0.5 77.5t3 65t6.5 56t11.5 45t18.5 37t27.5 27t37 21t49 13t62 8.5t76.5 2q54 0 93.5 -3t71 -13.5t52 -21.5t35.5 -35t22.5 -45.5t12 -62.5t5.5 -76t1 -95t-1 -95t-5.5 -76
t-12 -62.5t-22.5 -45.5t-35.5 -35t-52 -21.5t-71 -13.5t-93.5 -3zM354 110h48t35.5 4.5t27 8.5t17.5 18.5t12.5 27.5t5.5 42.5t3 56v76.5v76.5t-3 56t-5.5 42.5t-12.5 27.5t-17.5 18.5t-27 8.5t-35.5 4.5h-48h-48t-35.5 -4.5t-27 -8.5t-17.5 -18.5t-12 -27.5t-5.5 -42.5
t-3.5 -56.5v-76v-76t3.5 -56.5t5.5 -42.5t12 -27.5t17.5 -18.5t27 -8.5t35.5 -4.5h48z" />
    <glyph glyph-name="uni1ED7" unicode="&#x1ed7;" horiz-adv-x="572" 
d="M103 759q0 31 1 48t5.5 36t14 28.5t25.5 15.5t41 6q33 0 109 -20q51 -15 72 -15q19 0 23 8.5t4 37.5h69q0 -74 -15 -103.5t-71 -29.5q-41 0 -109 20q-58 15 -72 15q-19 0 -23 -8.5t-4 -38.5h-70zM125 582v7l96 137h129l97 -137v-7h-89l-73 85l-72 -85h-88zM286 -8
q-56 0 -94 4.5t-65 19t-41 30.5t-22 50.5t-10 67.5t-2 92t2 92t10 67t22 50t41 30t65 18.5t94 4.5t94 -4.5t65 -18.5t41 -30t22 -50t10 -67t2 -92t-2 -92t-10 -67.5t-22 -50.5t-41 -30.5t-65 -19t-94 -4.5zM286 99q27 0 42.5 1t28 9.5t17.5 15t8 29.5t3.5 41t0.5 61v47.5
t-1.5 35.5t-3.5 28t-7.5 18.5t-12 14t-18 6.5t-24.5 4.5t-33 0.5t-33 -0.5t-24.5 -4.5t-18 -6.5t-12 -14t-7.5 -18.5t-3.5 -28t-1.5 -35.5v-47.5q0 -43 0.5 -61t3.5 -41t8 -29.5t17.5 -15t28 -9.5t42.5 -1z" />
    <glyph glyph-name="uni1ED8" unicode="&#x1ed8;" horiz-adv-x="708" 
d="M194 760v7l96 137h128l97 -137v-7h-88l-73 85l-73 -85h-87zM354 -8q-43 0 -76.5 2t-62 8.5t-49 13t-37 21t-27.5 27t-18.5 37t-11.5 45t-6.5 56t-3 65t-0.5 77.5t0.5 77.5t3 65t6.5 56t11.5 45t18.5 37t27.5 27t37 21t49 13t62 8.5t76.5 2q54 0 93.5 -3t71 -13.5
t52 -21.5t35.5 -35t22.5 -45.5t12 -62.5t5.5 -76t1 -95t-1 -95t-5.5 -76t-12 -62.5t-22.5 -45.5t-35.5 -35t-52 -21.5t-71 -13.5t-93.5 -3zM354 110h48t35.5 4.5t27 8.5t17.5 18.5t12.5 27.5t5.5 42.5t3 56v76.5v76.5t-3 56t-5.5 42.5t-12.5 27.5t-17.5 18.5t-27 8.5
t-35.5 4.5h-48h-48t-35.5 -4.5t-27 -8.5t-17.5 -18.5t-12 -27.5t-5.5 -42.5t-3.5 -56.5v-76v-76t3.5 -56.5t5.5 -42.5t12 -27.5t17.5 -18.5t27 -8.5t35.5 -4.5h48zM302 -202v100h105v-100h-105z" />
    <glyph glyph-name="uni1ED9" unicode="&#x1ed9;" horiz-adv-x="572" 
d="M126 582v7l96 137h128l97 -137v-7h-88l-73 85l-73 -85h-87zM286 -8q-56 0 -94 4.5t-65 19t-41 30.5t-22 50.5t-10 67.5t-2 92t2 92t10 67t22 50t41 30t65 18.5t94 4.5t94 -4.5t65 -18.5t41 -30t22 -50t10 -67t2 -92t-2 -92t-10 -67.5t-22 -50.5t-41 -30.5t-65 -19
t-94 -4.5zM286 99q27 0 42.5 1t28 9.5t17.5 15t8 29.5t3.5 41t0.5 61v47.5t-1.5 35.5t-3.5 28t-7.5 18.5t-12 14t-18 6.5t-24.5 4.5t-33 0.5t-33 -0.5t-24.5 -4.5t-18 -6.5t-12 -14t-7.5 -18.5t-3.5 -28t-1.5 -35.5v-47.5q0 -43 0.5 -61t3.5 -41t8 -29.5t17.5 -15t28 -9.5
t42.5 -1zM234 -202v100h105v-100h-105z" />
    <glyph glyph-name="uni1EDA" unicode="&#x1eda;" horiz-adv-x="708" 
d="M509 899l-132 -139h-96v5l94 139h134v-5zM673 780h88v-20q0 -75 -27.5 -99.5t-123.5 -24.5h-14q33 -36 42 -99t9 -193q0 -60 -1 -95t-5.5 -76t-12 -62.5t-22.5 -45.5t-35.5 -35t-52 -21.5t-71 -13.5t-93.5 -3q-43 0 -76.5 2t-62 8.5t-49 13t-37 21t-27.5 27t-18.5 37
t-11.5 45t-6.5 56t-3 65t-0.5 77.5t0.5 77.5t3 65t6.5 56t11.5 45t18.5 37t27.5 27t37 21t49 13t62 8.5t76.5 2q131 0 191 -25v17h65q41 0 52 12.5t11 50.5v29zM354 110h48t35.5 4.5t27 8.5t17.5 18.5t12.5 27.5t5.5 42.5t3 56v76.5v76.5t-3 56t-5.5 42.5t-12.5 27.5
t-17.5 18.5t-27 8.5t-35.5 4.5h-48h-48t-35.5 -4.5t-27 -8.5t-17.5 -18.5t-12 -27.5t-5.5 -42.5t-3.5 -56.5v-76v-76t3.5 -56.5t5.5 -42.5t12 -27.5t17.5 -18.5t27 -8.5t35.5 -4.5h48z" />
    <glyph glyph-name="uni1EDB" unicode="&#x1edb;" horiz-adv-x="572" 
d="M437 721l-132 -139h-96v5l94 139h134v-5zM462 602h88v-20q0 -56 -13 -81.5t-52 -35.5q22 -27 28.5 -73.5t6.5 -135.5q0 -59 -2 -92t-10 -67.5t-22 -50.5t-41 -30.5t-65 -19t-94 -4.5t-94 4.5t-65 19t-41 30.5t-22 50.5t-10 67.5t-2 92t2 92t10 67t22 50t41 30t65 18.5
t94 4.5q72 0 112 -8h1q41 0 52 12.5t11 50.5v29zM286 99q27 0 42.5 1t28 9.5t17.5 15t8 29.5t3.5 41t0.5 61v47.5t-1.5 35.5t-3.5 28t-7.5 18.5t-12 14t-18 6.5t-24.5 4.5t-33 0.5t-33 -0.5t-24.5 -4.5t-18 -6.5t-12 -14t-7.5 -18.5t-3.5 -28t-1.5 -35.5v-47.5
q0 -43 0.5 -61t3.5 -41t8 -29.5t17.5 -15t28 -9.5t42.5 -1z" />
    <glyph glyph-name="uni1EDC" unicode="&#x1edc;" horiz-adv-x="708" 
d="M432 760h-97l-131 139v5h133l95 -139v-5zM673 780h88v-20q0 -75 -27.5 -99.5t-123.5 -24.5h-14q33 -36 42 -99t9 -193q0 -60 -1 -95t-5.5 -76t-12 -62.5t-22.5 -45.5t-35.5 -35t-52 -21.5t-71 -13.5t-93.5 -3q-43 0 -76.5 2t-62 8.5t-49 13t-37 21t-27.5 27t-18.5 37
t-11.5 45t-6.5 56t-3 65t-0.5 77.5t0.5 77.5t3 65t6.5 56t11.5 45t18.5 37t27.5 27t37 21t49 13t62 8.5t76.5 2q131 0 191 -25v17h65q41 0 52 12.5t11 50.5v29zM354 110h48t35.5 4.5t27 8.5t17.5 18.5t12.5 27.5t5.5 42.5t3 56v76.5v76.5t-3 56t-5.5 42.5t-12.5 27.5
t-17.5 18.5t-27 8.5t-35.5 4.5h-48h-48t-35.5 -4.5t-27 -8.5t-17.5 -18.5t-12 -27.5t-5.5 -42.5t-3.5 -56.5v-76v-76t3.5 -56.5t5.5 -42.5t12 -27.5t17.5 -18.5t27 -8.5t35.5 -4.5h48z" />
    <glyph glyph-name="uni1EDD" unicode="&#x1edd;" horiz-adv-x="572" 
d="M359 582h-97l-131 139v5h133l95 -139v-5zM462 602h88v-20q0 -56 -13 -81.5t-52 -35.5q22 -27 28.5 -73.5t6.5 -135.5q0 -59 -2 -92t-10 -67.5t-22 -50.5t-41 -30.5t-65 -19t-94 -4.5t-94 4.5t-65 19t-41 30.5t-22 50.5t-10 67.5t-2 92t2 92t10 67t22 50t41 30t65 18.5
t94 4.5q72 0 112 -8h1q41 0 52 12.5t11 50.5v29zM286 99q27 0 42.5 1t28 9.5t17.5 15t8 29.5t3.5 41t0.5 61v47.5t-1.5 35.5t-3.5 28t-7.5 18.5t-12 14t-18 6.5t-24.5 4.5t-33 0.5t-33 -0.5t-24.5 -4.5t-18 -6.5t-12 -14t-7.5 -18.5t-3.5 -28t-1.5 -35.5v-47.5
q0 -43 0.5 -61t3.5 -41t8 -29.5t17.5 -15t28 -9.5t42.5 -1z" />
    <glyph glyph-name="uni1EDE" unicode="&#x1ede;" horiz-adv-x="708" 
d="M406 858q0 22 -14 26.5t-59 4.5q-55 0 -103 -5v63q59 9 124 9q37 0 58 -2.5t41.5 -11t29.5 -27t9 -49.5q0 -38 -14.5 -53.5t-52.5 -26.5l-19 -6q-24 -7 -30 -12t-6 -20h-72v8q0 25 10 39.5t37 22.5l19 5q28 9 35 14.5t7 20.5zM673 780h88v-20q0 -75 -27.5 -99.5
t-123.5 -24.5h-14q33 -36 42 -99t9 -193q0 -60 -1 -95t-5.5 -76t-12 -62.5t-22.5 -45.5t-35.5 -35t-52 -21.5t-71 -13.5t-93.5 -3q-43 0 -76.5 2t-62 8.5t-49 13t-37 21t-27.5 27t-18.5 37t-11.5 45t-6.5 56t-3 65t-0.5 77.5t0.5 77.5t3 65t6.5 56t11.5 45t18.5 37t27.5 27
t37 21t49 13t62 8.5t76.5 2q131 0 191 -25v17h65q41 0 52 12.5t11 50.5v29zM354 110h48t35.5 4.5t27 8.5t17.5 18.5t12.5 27.5t5.5 42.5t3 56v76.5v76.5t-3 56t-5.5 42.5t-12.5 27.5t-17.5 18.5t-27 8.5t-35.5 4.5h-48h-48t-35.5 -4.5t-27 -8.5t-17.5 -18.5t-12 -27.5
t-5.5 -42.5t-3.5 -56.5v-76v-76t3.5 -56.5t5.5 -42.5t12 -27.5t17.5 -18.5t27 -8.5t35.5 -4.5h48z" />
    <glyph glyph-name="uni1EDF" unicode="&#x1edf;" horiz-adv-x="572" 
d="M338 680q0 22 -14 26.5t-59 4.5q-55 0 -103 -5v63q59 9 124 9q37 0 58 -2.5t41.5 -11t29.5 -27t9 -49.5q0 -38 -14.5 -53.5t-52.5 -26.5l-19 -6q-24 -7 -30 -12t-6 -20h-72v8q0 25 10 39.5t37 22.5l19 5q28 9 35 14.5t7 20.5zM462 602h88v-20q0 -56 -13 -81.5t-52 -35.5
q22 -27 28.5 -73.5t6.5 -135.5q0 -59 -2 -92t-10 -67.5t-22 -50.5t-41 -30.5t-65 -19t-94 -4.5t-94 4.5t-65 19t-41 30.5t-22 50.5t-10 67.5t-2 92t2 92t10 67t22 50t41 30t65 18.5t94 4.5q72 0 112 -8h1q41 0 52 12.5t11 50.5v29zM286 99q27 0 42.5 1t28 9.5t17.5 15
t8 29.5t3.5 41t0.5 61v47.5t-1.5 35.5t-3.5 28t-7.5 18.5t-12 14t-18 6.5t-24.5 4.5t-33 0.5t-33 -0.5t-24.5 -4.5t-18 -6.5t-12 -14t-7.5 -18.5t-3.5 -28t-1.5 -35.5v-47.5q0 -43 0.5 -61t3.5 -41t8 -29.5t17.5 -15t28 -9.5t42.5 -1z" />
    <glyph glyph-name="uni1EE0" unicode="&#x1ee0;" horiz-adv-x="708" 
d="M270 806q-19 0 -23 -8.5t-4 -38.5h-70q0 31 1 48t5.5 36t14 28.5t25.5 15.5t41 6q33 0 109 -20q51 -15 72 -15q19 0 23 8.5t4 37.5h69q0 -74 -15 -103.5t-71 -29.5q-41 0 -109 20q-58 15 -72 15zM673 780h88v-20q0 -75 -27.5 -99.5t-123.5 -24.5h-14q33 -36 42 -99
t9 -193q0 -60 -1 -95t-5.5 -76t-12 -62.5t-22.5 -45.5t-35.5 -35t-52 -21.5t-71 -13.5t-93.5 -3q-43 0 -76.5 2t-62 8.5t-49 13t-37 21t-27.5 27t-18.5 37t-11.5 45t-6.5 56t-3 65t-0.5 77.5t0.5 77.5t3 65t6.5 56t11.5 45t18.5 37t27.5 27t37 21t49 13t62 8.5t76.5 2
q131 0 191 -25v17h65q41 0 52 12.5t11 50.5v29zM354 110h48t35.5 4.5t27 8.5t17.5 18.5t12.5 27.5t5.5 42.5t3 56v76.5v76.5t-3 56t-5.5 42.5t-12.5 27.5t-17.5 18.5t-27 8.5t-35.5 4.5h-48h-48t-35.5 -4.5t-27 -8.5t-17.5 -18.5t-12 -27.5t-5.5 -42.5t-3.5 -56.5v-76v-76
t3.5 -56.5t5.5 -42.5t12 -27.5t17.5 -18.5t27 -8.5t35.5 -4.5h48z" />
    <glyph glyph-name="uni1EE1" unicode="&#x1ee1;" horiz-adv-x="572" 
d="M200 628q-19 0 -23 -8.5t-4 -38.5h-70q0 31 1 48t5.5 36t14 28.5t25.5 15.5t41 6q33 0 109 -20q51 -15 72 -15q19 0 23 8.5t4 37.5h69q0 -74 -15 -103.5t-71 -29.5q-41 0 -109 20q-58 15 -72 15zM462 602h88v-20q0 -56 -13 -81.5t-52 -35.5q22 -27 28.5 -73.5t6.5 -135.5
q0 -59 -2 -92t-10 -67.5t-22 -50.5t-41 -30.5t-65 -19t-94 -4.5t-94 4.5t-65 19t-41 30.5t-22 50.5t-10 67.5t-2 92t2 92t10 67t22 50t41 30t65 18.5t94 4.5q72 0 112 -8h1q41 0 52 12.5t11 50.5v29zM286 99q27 0 42.5 1t28 9.5t17.5 15t8 29.5t3.5 41t0.5 61v47.5
t-1.5 35.5t-3.5 28t-7.5 18.5t-12 14t-18 6.5t-24.5 4.5t-33 0.5t-33 -0.5t-24.5 -4.5t-18 -6.5t-12 -14t-7.5 -18.5t-3.5 -28t-1.5 -35.5v-47.5q0 -43 0.5 -61t3.5 -41t8 -29.5t17.5 -15t28 -9.5t42.5 -1z" />
    <glyph glyph-name="uni1EE2" unicode="&#x1ee2;" horiz-adv-x="708" 
d="M673 780h88v-20q0 -75 -27.5 -99.5t-123.5 -24.5h-14q33 -36 42 -99t9 -193q0 -60 -1 -95t-5.5 -76t-12 -62.5t-22.5 -45.5t-35.5 -35t-52 -21.5t-71 -13.5t-93.5 -3q-43 0 -76.5 2t-62 8.5t-49 13t-37 21t-27.5 27t-18.5 37t-11.5 45t-6.5 56t-3 65t-0.5 77.5t0.5 77.5
t3 65t6.5 56t11.5 45t18.5 37t27.5 27t37 21t49 13t62 8.5t76.5 2q131 0 191 -25v17h65q41 0 52 12.5t11 50.5v29zM354 110h48t35.5 4.5t27 8.5t17.5 18.5t12.5 27.5t5.5 42.5t3 56v76.5v76.5t-3 56t-5.5 42.5t-12.5 27.5t-17.5 18.5t-27 8.5t-35.5 4.5h-48h-48t-35.5 -4.5
t-27 -8.5t-17.5 -18.5t-12 -27.5t-5.5 -42.5t-3.5 -56.5v-76v-76t3.5 -56.5t5.5 -42.5t12 -27.5t17.5 -18.5t27 -8.5t35.5 -4.5h48zM302 -202v100h105v-100h-105z" />
    <glyph glyph-name="uni1EE3" unicode="&#x1ee3;" horiz-adv-x="572" 
d="M462 602h88v-20q0 -56 -13 -81.5t-52 -35.5q22 -27 28.5 -73.5t6.5 -135.5q0 -59 -2 -92t-10 -67.5t-22 -50.5t-41 -30.5t-65 -19t-94 -4.5t-94 4.5t-65 19t-41 30.5t-22 50.5t-10 67.5t-2 92t2 92t10 67t22 50t41 30t65 18.5t94 4.5q72 0 112 -8h1q41 0 52 12.5t11 50.5
v29zM286 99q27 0 42.5 1t28 9.5t17.5 15t8 29.5t3.5 41t0.5 61v47.5t-1.5 35.5t-3.5 28t-7.5 18.5t-12 14t-18 6.5t-24.5 4.5t-33 0.5t-33 -0.5t-24.5 -4.5t-18 -6.5t-12 -14t-7.5 -18.5t-3.5 -28t-1.5 -35.5v-47.5q0 -43 0.5 -61t3.5 -41t8 -29.5t17.5 -15t28 -9.5t42.5 -1
zM234 -202v100h105v-100h-105z" />
    <glyph glyph-name="uni1EE4" unicode="&#x1ee4;" horiz-adv-x="696" 
d="M348 -8q-63 0 -105 5t-73.5 20.5t-49 36t-28 59.5t-13.5 82t-3 112v381h142v-417q0 -41 1 -62t5.5 -42.5t12 -30t23 -16.5t35.5 -9.5t53 -1.5t53 1.5t35.5 9.5t23 16t12 30.5t5 43t0.5 61.5v417h142v-381q0 -69 -3 -112t-13.5 -82t-27.5 -59.5t-48.5 -36t-73.5 -20.5
t-105 -5zM296 -202v100h105v-100h-105z" />
    <glyph glyph-name="uni1EE5" unicode="&#x1ee5;" horiz-adv-x="592" 
d="M231 -8q-98 0 -129.5 46t-31.5 153v319h133v-270q0 -92 14 -112.5t75 -20.5t78.5 29t17.5 110v264h133v-510h-124l-4 64h-8q-37 -72 -154 -72zM216 -202v100h105v-100h-105z" />
    <glyph glyph-name="uni1EE6" unicode="&#x1ee6;" horiz-adv-x="696" 
d="M292 748v8q0 25 10 39.5t37 22.5l19 5q28 9 35 14.5t7 20.5q0 22 -14 26.5t-59 4.5q-55 0 -103 -5v63q59 9 124 9q37 0 58 -2.5t41.5 -11t29.5 -27t9 -49.5q0 -38 -14.5 -53.5t-52.5 -26.5l-19 -6q-24 -7 -30 -12t-6 -20h-72zM348 -8q-63 0 -105 5t-73.5 20.5t-49 36
t-28 59.5t-13.5 82t-3 112v381h142v-417q0 -41 1 -62t5.5 -42.5t12 -30t23 -16.5t35.5 -9.5t53 -1.5t53 1.5t35.5 9.5t23 16t12 30.5t5 43t0.5 61.5v417h142v-381q0 -69 -3 -112t-13.5 -82t-27.5 -59.5t-48.5 -36t-73.5 -20.5t-105 -5z" />
    <glyph glyph-name="uni1EE7" unicode="&#x1ee7;" horiz-adv-x="592" 
d="M239 570v8q0 25 10 39.5t37 22.5l19 5q28 9 35 14.5t7 20.5q0 22 -14 26.5t-59 4.5q-55 0 -103 -5v63q59 9 124 9q73 0 105.5 -16t32.5 -74q0 -38 -14.5 -53.5t-52.5 -26.5l-19 -6q-24 -7 -30 -12t-6 -20h-72zM231 -8q-98 0 -129.5 46t-31.5 153v319h133v-270
q0 -92 14 -112.5t75 -20.5t78.5 29t17.5 110v264h133v-510h-124l-4 64h-8q-37 -72 -154 -72z" />
    <glyph glyph-name="uni1EE8" unicode="&#x1ee8;" horiz-adv-x="696" 
d="M503 899l-132 -139h-96v5l94 139h134v-5zM623 780h88v-20q0 -63 -17.5 -89t-74.5 -32v-332q0 -69 -3 -112t-13.5 -82t-27.5 -59.5t-48.5 -36t-73.5 -20.5t-105 -5t-105 5t-73.5 20.5t-49 36t-28 59.5t-13.5 82t-3 112v381h142v-417q0 -41 1 -62t5.5 -42.5t12 -30
t23 -16.5t35.5 -9.5t53 -1.5t53 1.5t35.5 9.5t23 16t12 30.5t5 43t0.5 61.5v417h83q41 0 52 12.5t11 50.5v29z" />
    <glyph glyph-name="uni1EE9" unicode="&#x1ee9;" horiz-adv-x="592" 
d="M446 721l-132 -139h-96v5l94 139h134v-5zM525 602h88v-20q0 -63 -17.5 -89t-74.5 -32v-461h-124l-4 64h-8q-37 -72 -154 -72q-98 0 -129.5 46t-31.5 153v319h133v-270q0 -92 14 -112.5t75 -20.5t78.5 29t17.5 110v264h74q41 0 52 12.5t11 50.5v29z" />
    <glyph glyph-name="uni1EEA" unicode="&#x1eea;" horiz-adv-x="696" 
d="M426 760h-97l-131 139v5h133l95 -139v-5zM623 780h88v-20q0 -63 -17.5 -89t-74.5 -32v-332q0 -69 -3 -112t-13.5 -82t-27.5 -59.5t-48.5 -36t-73.5 -20.5t-105 -5t-105 5t-73.5 20.5t-49 36t-28 59.5t-13.5 82t-3 112v381h142v-417q0 -41 1 -62t5.5 -42.5t12 -30
t23 -16.5t35.5 -9.5t53 -1.5t53 1.5t35.5 9.5t23 16t12 30.5t5 43t0.5 61.5v417h83q41 0 52 12.5t11 50.5v29z" />
    <glyph glyph-name="uni1EEB" unicode="&#x1eeb;" horiz-adv-x="592" 
d="M369 582h-97l-131 139v5h133l95 -139v-5zM525 602h88v-20q0 -63 -17.5 -89t-74.5 -32v-461h-124l-4 64h-8q-37 -72 -154 -72q-98 0 -129.5 46t-31.5 153v319h133v-270q0 -92 14 -112.5t75 -20.5t78.5 29t17.5 110v264h74q41 0 52 12.5t11 50.5v29z" />
    <glyph glyph-name="uni1EEC" unicode="&#x1eec;" horiz-adv-x="696" 
d="M400 858q0 22 -14 26.5t-59 4.5q-55 0 -103 -5v63q59 9 124 9q37 0 58 -2.5t41.5 -11t29.5 -27t9 -49.5q0 -38 -14.5 -53.5t-52.5 -26.5l-19 -6q-24 -7 -30 -12t-6 -20h-72v8q0 25 10 39.5t37 22.5l19 5q28 9 35 14.5t7 20.5zM623 780h88v-20q0 -63 -17.5 -89t-74.5 -32
v-332q0 -69 -3 -112t-13.5 -82t-27.5 -59.5t-48.5 -36t-73.5 -20.5t-105 -5t-105 5t-73.5 20.5t-49 36t-28 59.5t-13.5 82t-3 112v381h142v-417q0 -41 1 -62t5.5 -42.5t12 -30t23 -16.5t35.5 -9.5t53 -1.5t53 1.5t35.5 9.5t23 16t12 30.5t5 43t0.5 61.5v417h83q41 0 52 12.5
t11 50.5v29z" />
    <glyph glyph-name="uni1EED" unicode="&#x1eed;" horiz-adv-x="592" 
d="M347 680q0 22 -14 26.5t-59 4.5q-55 0 -103 -5v63q59 9 124 9q73 0 105.5 -16t32.5 -74q0 -38 -14.5 -53.5t-52.5 -26.5l-19 -6q-24 -7 -30 -12t-6 -20h-72v8q0 25 10 39.5t37 22.5l19 5q28 9 35 14.5t7 20.5zM525 602h88v-20q0 -63 -17.5 -89t-74.5 -32v-461h-124l-4 64
h-8q-37 -72 -154 -72q-98 0 -129.5 46t-31.5 153v319h133v-270q0 -92 14 -112.5t75 -20.5t78.5 29t17.5 110v264h74q41 0 52 12.5t11 50.5v29z" />
    <glyph glyph-name="uni1EEE" unicode="&#x1eee;" horiz-adv-x="696" 
d="M264 806q-19 0 -23 -8.5t-4 -38.5h-70q0 31 1 48t5.5 36t14 28.5t25.5 15.5t41 6q33 0 109 -20q51 -15 72 -15q19 0 23 8.5t4 37.5h69q0 -74 -15 -103.5t-71 -29.5q-41 0 -109 20q-58 15 -72 15zM623 780h88v-20q0 -63 -17.5 -89t-74.5 -32v-332q0 -69 -3 -112t-13.5 -82
t-27.5 -59.5t-48.5 -36t-73.5 -20.5t-105 -5t-105 5t-73.5 20.5t-49 36t-28 59.5t-13.5 82t-3 112v381h142v-417q0 -41 1 -62t5.5 -42.5t12 -30t23 -16.5t35.5 -9.5t53 -1.5t53 1.5t35.5 9.5t23 16t12 30.5t5 43t0.5 61.5v417h83q41 0 52 12.5t11 50.5v29z" />
    <glyph glyph-name="uni1EEF" unicode="&#x1eef;" horiz-adv-x="592" 
d="M210 628q-19 0 -23 -8.5t-4 -38.5h-70q0 31 1 48t5.5 36t14 28.5t25.5 15.5t41 6q33 0 109 -20q51 -15 72 -15q19 0 23 8.5t4 37.5h69q0 -74 -15 -103.5t-71 -29.5q-41 0 -109 20q-58 15 -72 15zM525 602h88v-20q0 -63 -17.5 -89t-74.5 -32v-461h-124l-4 64h-8
q-37 -72 -154 -72q-98 0 -129.5 46t-31.5 153v319h133v-270q0 -92 14 -112.5t75 -20.5t78.5 29t17.5 110v264h74q41 0 52 12.5t11 50.5v29z" />
    <glyph glyph-name="uni1EF0" unicode="&#x1ef0;" horiz-adv-x="696" 
d="M623 780h88v-20q0 -63 -17.5 -89t-74.5 -32v-332q0 -69 -3 -112t-13.5 -82t-27.5 -59.5t-48.5 -36t-73.5 -20.5t-105 -5t-105 5t-73.5 20.5t-49 36t-28 59.5t-13.5 82t-3 112v381h142v-417q0 -41 1 -62t5.5 -42.5t12 -30t23 -16.5t35.5 -9.5t53 -1.5t53 1.5t35.5 9.5
t23 16t12 30.5t5 43t0.5 61.5v417h83q41 0 52 12.5t11 50.5v29zM296 -202v100h105v-100h-105z" />
    <glyph glyph-name="uni1EF1" unicode="&#x1ef1;" horiz-adv-x="592" 
d="M525 602h88v-20q0 -63 -17.5 -89t-74.5 -32v-461h-124l-4 64h-8q-37 -72 -154 -72q-98 0 -129.5 46t-31.5 153v319h133v-270q0 -92 14 -112.5t75 -20.5t78.5 29t17.5 110v264h74q41 0 52 12.5t11 50.5v29zM216 -202v100h105v-100h-105z" />
    <glyph glyph-name="Ygrave" unicode="&#x1ef2;" horiz-adv-x="623" 
d="M292 760l-131 139v5h133l95 -139v-5h-97zM239 0v243l-235 445h149l157 -306h7l156 306h145l-236 -445v-243h-143z" />
    <glyph glyph-name="ygrave" unicode="&#x1ef3;" horiz-adv-x="592" 
d="M272 582l-131 139v5h133l95 -139v-5h-97zM279 -206q-107 0 -173 11v99q105 -3 142 -3q52 0 78.5 4t41.5 21t17.5 37.5t2.5 66.5v35h-7q-37 -66 -150 -66q-98 0 -129.5 45.5t-31.5 151.5v314h133v-265q0 -92 14 -112.5t75 -20.5t78.5 29t17.5 110v259h133v-452
q0 -52 -2.5 -84.5t-10.5 -65.5t-24 -52t-43 -34.5t-66.5 -21.5t-95.5 -6z" />
    <glyph glyph-name="uni1EF4" unicode="&#x1ef4;" horiz-adv-x="623" 
d="M239 0v243l-235 445h149l157 -306h7l156 306h145l-236 -445v-243h-143zM259 -202v100h105v-100h-105z" />
    <glyph glyph-name="uni1EF5" unicode="&#x1ef5;" horiz-adv-x="592" 
d="M279 -206q-107 0 -173 11v99q105 -3 142 -3q52 0 78.5 4t41.5 21t17.5 37.5t2.5 66.5v35h-7q-37 -66 -150 -66q-98 0 -129.5 45.5t-31.5 151.5v314h133v-265q0 -92 14 -112.5t75 -20.5t78.5 29t17.5 110v259h133v-452q0 -52 -2.5 -84.5t-10.5 -65.5t-24 -52t-43 -34.5
t-66.5 -21.5t-95.5 -6zM226 -408v100h105v-100h-105z" />
    <glyph glyph-name="uni1EF6" unicode="&#x1ef6;" horiz-adv-x="623" 
d="M255 748v8q0 25 10 39.5t37 22.5l19 5q28 9 35 14.5t7 20.5q0 22 -14 26.5t-59 4.5q-55 0 -103 -5v63q59 9 124 9q73 0 105.5 -16t32.5 -74q0 -38 -14.5 -53.5t-52.5 -26.5l-19 -6q-24 -7 -30 -12t-6 -20h-72zM239 0v243l-235 445h149l157 -306h7l156 306h145l-236 -445
v-243h-143z" />
    <glyph glyph-name="uni1EF7" unicode="&#x1ef7;" horiz-adv-x="592" 
d="M239 570v8q0 25 10 39.5t37 22.5l19 5q28 9 35 14.5t7 20.5q0 22 -14 26.5t-59 4.5q-55 0 -103 -5v63q59 9 124 9q73 0 105.5 -16t32.5 -74q0 -38 -14.5 -53.5t-52.5 -26.5l-19 -6q-24 -7 -30 -12t-6 -20h-72zM279 -206q-107 0 -173 11v99q105 -3 142 -3q52 0 78.5 4
t41.5 21t17.5 37.5t2.5 66.5v35h-7q-37 -66 -150 -66q-98 0 -129.5 45.5t-31.5 151.5v314h133v-265q0 -92 14 -112.5t75 -20.5t78.5 29t17.5 110v259h133v-452q0 -52 -2.5 -84.5t-10.5 -65.5t-24 -52t-43 -34.5t-66.5 -21.5t-95.5 -6z" />
    <glyph glyph-name="uni1EF8" unicode="&#x1ef8;" horiz-adv-x="623" 
d="M130 759q0 31 1 48t5.5 36t14 28.5t25.5 15.5t41 6q33 0 109 -20q51 -15 72 -15q19 0 23 8.5t4 37.5h69q0 -74 -15 -103.5t-71 -29.5q-41 0 -109 20q-58 15 -72 15q-19 0 -23 -8.5t-4 -38.5h-70zM239 0v243l-235 445h149l157 -306h7l156 306h145l-236 -445v-243h-143z
" />
    <glyph glyph-name="uni1EF9" unicode="&#x1ef9;" horiz-adv-x="592" 
d="M113 581q0 31 1 48t5.5 36t14 28.5t25.5 15.5t41 6q33 0 109 -20q51 -15 72 -15q19 0 23 8.5t4 37.5h69q0 -74 -15 -103.5t-71 -29.5q-41 0 -109 20q-58 15 -72 15q-19 0 -23 -8.5t-4 -38.5h-70zM279 -206q-107 0 -173 11v99q105 -3 142 -3q52 0 78.5 4t41.5 21
t17.5 37.5t2.5 66.5v35h-7q-37 -66 -150 -66q-98 0 -129.5 45.5t-31.5 151.5v314h133v-265q0 -92 14 -112.5t75 -20.5t78.5 29t17.5 110v259h133v-452q0 -52 -2.5 -84.5t-10.5 -65.5t-24 -52t-43 -34.5t-66.5 -21.5t-95.5 -6z" />
    <glyph glyph-name="uni2002" unicode="&#x2002;" horiz-adv-x="300" 
 />
    <glyph glyph-name="uni2003" unicode="&#x2003;" horiz-adv-x="1000" 
 />
    <glyph glyph-name="uni2004" unicode="&#x2004;" horiz-adv-x="333" 
 />
    <glyph glyph-name="uni2005" unicode="&#x2005;" horiz-adv-x="250" 
 />
    <glyph glyph-name="uni2010" unicode="&#x2010;" horiz-adv-x="600" 
d="M53 228v113h263v-113h-263z" />
    <glyph glyph-name="endash" unicode="&#x2013;" horiz-adv-x="475" 
d="M48 253v101h379v-101h-379z" />
    <glyph glyph-name="emdash" unicode="&#x2014;" horiz-adv-x="875" 
d="M48 253v101h779v-101h-779z" />
    <glyph glyph-name="underscoredbl" unicode="&#x2017;" horiz-adv-x="378" 
d="M0 -167v98h378v-98h-378zM0 -289v97h378v-97h-378z" />
    <glyph glyph-name="quoteleft" unicode="&#x2018;" horiz-adv-x="267" 
d="M64 430v90q0 105 26.5 136.5t123.5 31.5v-54q-40 0 -53 -12t-13 -50v-17h55v-125h-139z" />
    <glyph glyph-name="quoteright" unicode="&#x2019;" horiz-adv-x="267" 
d="M53 430v54q39 0 52 12t13 51v16h-54v125h139v-90q0 -105 -26.5 -136.5t-123.5 -31.5z" />
    <glyph glyph-name="quotesinglbase" unicode="&#x201a;" horiz-adv-x="267" 
d="M53 -133v54q39 0 52 12t13 50v17h-54v125h139v-90q0 -105 -26.5 -136.5t-123.5 -31.5z" />
    <glyph glyph-name="quotedblleft" unicode="&#x201c;" horiz-adv-x="469" 
d="M64 430v90q0 105 26.5 136.5t123.5 31.5v-54q-40 0 -53 -12t-13 -50v-17h55v-125h-139zM266 430v90q0 105 26.5 136.5t123.5 31.5v-54q-40 0 -53 -12t-13 -50v-17h55v-125h-139z" />
    <glyph glyph-name="quotedblright" unicode="&#x201d;" horiz-adv-x="469" 
d="M53 430v54q39 0 52 12t13 51v16h-54v125h139v-90q0 -105 -26.5 -136.5t-123.5 -31.5zM255 430v54q39 0 52 12t13 51v16h-54v125h139v-90q0 -105 -26.5 -136.5t-123.5 -31.5z" />
    <glyph glyph-name="quotedblbase" unicode="&#x201e;" horiz-adv-x="469" 
d="M53 -133v54q39 0 52 12t13 50v17h-54v125h139v-90q0 -105 -26.5 -136.5t-123.5 -31.5zM255 -133v54q39 0 52 12t13 50v17h-54v125h139v-90q0 -105 -26.5 -136.5t-123.5 -31.5z" />
    <glyph glyph-name="dagger" unicode="&#x2020;" horiz-adv-x="492" 
d="M205 0l-9 431l-134 9v80l134 9l9 159h82l8 -159l135 -9v-80l-135 -9l-8 -431h-82z" />
    <glyph glyph-name="daggerdbl" unicode="&#x2021;" horiz-adv-x="492" 
d="M205 0l-9 158l-134 8v81l134 9v175l-134 9v80l134 10l9 158h82l8 -158l135 -10v-80l-135 -9v-175l135 -9v-81l-135 -8l-8 -158h-82z" />
    <glyph glyph-name="bullet" unicode="&#x2022;" horiz-adv-x="384" 
d="M190 225q-44 0 -65.5 3t-33.5 18.5t-14 34t-2 61.5q0 44 2 63t14 34.5t33.5 19t65.5 3.5q45 0 67.5 -3.5t35 -19t14.5 -34.5t2 -63q0 -43 -2 -61.5t-14.5 -34t-35 -18.5t-67.5 -3z" />
    <glyph glyph-name="ellipsis" unicode="&#x2026;" horiz-adv-x="821" 
d="M64 0v131h146v-131h-146zM337 0v131h147v-131h-147zM612 0v131h146v-131h-146z" />
    <glyph glyph-name="perthousand" unicode="&#x2030;" horiz-adv-x="1003" 
d="M180 360q-46 0 -71.5 6.5t-38.5 29t-15.5 49t-2.5 83.5q0 45 1.5 68.5t8 46.5t21 32.5t37.5 15t60 5.5q31 0 52 -3t36 -12t23 -19.5t12 -32.5t5 -42.5t1 -58.5q0 -46 -2 -69t-8 -46t-20.5 -32.5t-37.5 -15t-61 -5.5zM77 0l461 688h89l-460 -688h-90zM180 420
q40 0 47 14.5t7 93.5q0 80 -7 94t-47 14t-47 -14.5t-7 -93.5t7 -93.5t47 -14.5zM524 -8q-46 0 -71.5 6.5t-38.5 29t-15.5 49t-2.5 83.5q0 45 1.5 68.5t8 46.5t21 32.5t37.5 15t60 5.5q31 0 52 -3t36 -12t23 -19.5t12 -32.5t5 -42.5t1 -58.5q0 -46 -2 -69t-8 -46t-20.5 -32.5
t-37.5 -15t-61 -5.5zM822 -8q-46 0 -71.5 6.5t-38.5 29t-15.5 49t-2.5 83.5q0 45 1.5 68.5t8 46.5t21 32.5t37.5 15t60 5.5q38 0 61 -5.5t37.5 -15t21 -32.5t8.5 -46.5t2 -68.5t-2 -69t-8.5 -46.5t-21 -32t-37.5 -15t-61 -5.5zM524 52q40 0 47 14.5t7 93.5t-7 93.5t-47 14.5
q-39 0 -46.5 -14.5t-7.5 -93.5t7.5 -93.5t46.5 -14.5zM822 52q40 0 47.5 14.5t7.5 93.5t-7.5 93.5t-47.5 14.5q-39 0 -46.5 -14.5t-7.5 -93.5t7.5 -93.5t46.5 -14.5z" />
    <glyph glyph-name="minute" unicode="&#x2032;" horiz-adv-x="252" 
d="M52 373l22 315h122l-9 -122l-43 -193h-92z" />
    <glyph glyph-name="second" unicode="&#x2033;" horiz-adv-x="438" 
d="M52 373l22 315h122l-9 -122l-43 -193h-92zM238 373l22 315h122l-9 -122l-43 -193h-92z" />
    <glyph glyph-name="guilsinglleft" unicode="&#x2039;" horiz-adv-x="308" 
d="M162 99l-131 205l131 206h88l-107 -206l107 -205h-88z" />
    <glyph glyph-name="guilsinglright" unicode="&#x203a;" horiz-adv-x="308" 
d="M57 99l108 205l-108 206h89l132 -206l-132 -205h-89z" />
    <glyph glyph-name="exclamdbl" unicode="&#x203c;" horiz-adv-x="542" 
d="M107 223q-4 40 -15.5 198.5t-11.5 208.5v58h156v-58q0 -50 -12 -207t-16 -200h-101zM346 223q-4 43 -16 200t-12 207v58h156v-58q0 -50 -11.5 -208.5t-15.5 -198.5h-101zM85 0v131h146v-131h-146zM324 0v131h145v-131h-145z" />
    <glyph glyph-name="fraction" unicode="&#x2044;" horiz-adv-x="156" 
d="M-191 0l448 688h90l-448 -688h-90z" />
    <glyph glyph-name="uni2052" unicode="&#x2052;" horiz-adv-x="378" 
d="M0 0l291 688h87l-291 -688h-87zM14 557v131h140v-131h-140zM224 0v131h141v-131h-141z" />
    <glyph glyph-name="uni2070" unicode="&#x2070;" horiz-adv-x="382" 
d="M191 416q-38 0 -61.5 2t-42 11t-27 20t-14.5 36t-7 51t-1 73q0 48 1 74t7 51t14.5 36t27 20t42 11t61.5 2t61.5 -2t42 -11t27 -20t14.5 -36t7 -51.5t1 -73.5t-1 -73t-7 -51t-14.5 -36t-27 -20t-42 -11t-61.5 -2zM191 482q22 0 31 2t18 6t11 21.5t3 35.5t1 62t-1 62
t-3 35.5t-11 21.5t-18 6t-31 2t-31 -2t-18 -6t-11 -21.5t-3 -35.5t-1 -62t1 -62t3 -35.5t11 -21.5t18 -6t31 -2z" />
    <glyph glyph-name="uni2074" unicode="&#x2074;" horiz-adv-x="368" 
d="M214 420v78h-190v59l130 241h94l-134 -233h103l24 100h59v-100h49v-67h-49v-78h-86z" />
    <glyph glyph-name="uni2075" unicode="&#x2075;" horiz-adv-x="360" 
d="M169 416q-63 0 -123 10v62q72 -6 111 -6q50 0 64.5 10t14.5 45t-15.5 44.5t-67.5 9.5q-37 0 -103 -6v213h246v-67h-170v-80q35 5 76 5q72 0 97 -27.5t25 -85.5q0 -69 -32 -98t-123 -29z" />
    </font>
</defs>
</svg>
